<svg width="20" height="20" fill="none" xmlns="http://www.w3.org/2000/svg"><g clip-path="url(#clip0)"><path d="M10 19.999C15.522 19.999 20 15.522 20 10S15.522.002 10 .002.002 4.478.002 10C.002 15.522 4.478 20 10 20z" fill="#F0F0F0"/><path d="M1.341 5A10.005 10.005 0 00.335 7.433l16.722 9.654a10.012 10.012 0 001.602-2.087L1.341 5.001z" fill="#000"/><path d="M2.943 2.914C6.066-.199 11-.969 15 1.341s5.8 6.967 4.666 11.227L2.943 2.914zM17.056 17.086c-3.122 3.113-8.055 3.883-12.055 1.573C1 16.349-.8 11.692.335 7.432l16.721 9.654z" fill="#FFDA44"/><path d="M9.348 5.653h1.304v1.304h1.522a.56.56 0 01-.562.543h.018c0 .3-.243.544-.543.544a.544.544 0 01-.435.532v3.087a2.827 2.827 0 001.834-4.094c.614.627.992 1.485.992 2.43a3.47 3.47 0 01-1.178 2.61h.743v.434h.87v1.304h-2.609v-.434H8.696v.434H6.088v-1.304h.869v-.435H7.7A3.47 3.47 0 016.522 10c0-.946.379-1.804.992-2.431a2.827 2.827 0 001.834 4.094V8.576a.544.544 0 01-.435-.532.543.543 0 01-.543-.544h.018a.56.56 0 01-.562-.543h1.522V5.653z" fill="#D80027"/></g><defs><clipPath id="clip0"><path fill="#fff" d="M0 0h20v20H0z"/></clipPath></defs></svg>