<svg width="21" height="20" viewBox="0 0 21 20" fill="none" xmlns="http://www.w3.org/2000/svg">
<g clip-path="url(#clip0)">
<path d="M10.5 20C16.0228 20 20.5 15.5228 20.5 10C20.5 4.47715 16.0228 0 10.5 0C4.97715 0 0.5 4.47715 0.5 10C0.5 15.5228 4.97715 20 10.5 20Z" fill="#F0F0F0"/>
<path d="M19.878 6.52173H1.12199C0.720039 7.60505 0.5 8.77677 0.5 9.99997C0.5 11.2232 0.720039 12.3949 1.12199 13.4782H19.878C20.28 12.3949 20.5 11.2232 20.5 9.99997C20.5 8.77677 20.28 7.60505 19.878 6.52173Z" fill="#D80027"/>
<path d="M10.4999 0C7.46904 0 4.7533 1.34859 2.91943 3.47824H18.0804C16.2466 1.34859 13.5308 0 10.4999 0Z" fill="#0052B4"/>
<path d="M18.0805 16.5217H2.91943C4.7533 18.6514 7.46904 20 10.4999 20C13.5308 20 16.2466 18.6514 18.0805 16.5217Z" fill="#0052B4"/>
</g>
<defs>
<clipPath id="clip0">
<rect width="20" height="20" fill="white" transform="translate(0.5)"/>
</clipPath>
</defs>
</svg>
