<svg width="21" height="20" viewBox="0 0 21 20" fill="none" xmlns="http://www.w3.org/2000/svg">
<g clip-path="url(#clip0)">
<path d="M10.5 20C16.0228 20 20.5 15.5228 20.5 10C20.5 4.47715 16.0228 0 10.5 0C4.97715 0 0.5 4.47715 0.5 10C0.5 15.5228 4.97715 20 10.5 20Z" fill="#F0F0F0"/>
<path d="M13.1088 10C13.1088 11.4408 11.9409 12.6087 10.5001 12.6087C9.05933 12.6087 7.89136 11.4408 7.89136 10C7.89136 8.55923 10.5001 7.3913 10.5001 7.3913C10.5001 7.3913 13.1088 8.55923 13.1088 10Z" fill="#496E2D"/>
<path d="M7.89128 0.344482C4.46538 1.2678 1.7678 3.96538 0.844482 7.39128H7.89132L7.89128 0.344482Z" fill="#0052B4"/>
<path d="M13.1086 19.6555C16.5345 18.7322 19.2321 16.0346 20.1555 12.6087H13.1086V19.6555Z" fill="#0052B4"/>
<path d="M10.5001 7.3913C9.05933 7.3913 7.89136 8.55923 7.89136 10H13.1088C13.1088 8.55923 11.9409 7.3913 10.5001 7.3913Z" fill="#0052B4"/>
<path d="M0.844482 12.6087C1.76784 16.0346 4.46538 18.7322 7.89132 19.6556V12.6087H0.844482Z" fill="#D80027"/>
<path d="M20.1556 7.39128C19.2323 3.96538 16.5347 1.2678 13.1088 0.344482V7.39132L20.1556 7.39128Z" fill="#D80027"/>
<path d="M9.03264 8.69564V10.3261C9.03264 11.1365 9.68959 11.7934 10.5 11.7934C11.3104 11.7934 11.9674 11.1365 11.9674 10.3261V8.69564H9.03264Z" fill="#D80027"/>
</g>
<defs>
<clipPath id="clip0">
<rect width="20" height="20" fill="white" transform="translate(0.5)"/>
</clipPath>
</defs>
</svg>
