<svg width="20" height="20" fill="none" xmlns="http://www.w3.org/2000/svg"><g clip-path="url(#clip0)"><path d="M19.378 13.478A9.978 9.978 0 0020 10c0-1.223-.22-2.395-.622-3.478L10 5.652l-9.378.87A9.979 9.979 0 000 10c0 1.223.22 2.395.622 3.478l9.378.87 9.378-.87z" fill="#F0F0F0"/><path d="M10 20c4.3 0 7.965-2.714 9.378-6.522H.622A10.004 10.004 0 0010 20z" fill="#D80027"/><path d="M10 0C5.7 0 2.035 2.714.622 6.522h18.756A10.004 10.004 0 0010 0z" fill="#6DA544"/><path d="M2.929 2.929c-3.905 3.905-3.905 10.237 0 14.142l3.593-3.593V6.522L2.929 2.929z" fill="#000"/></g><defs><clipPath id="clip0"><path fill="#fff" d="M0 0h20v20H0z"/></clipPath></defs></svg>