<svg width="21" height="20" viewBox="0 0 21 20" fill="none" xmlns="http://www.w3.org/2000/svg">
<g clip-path="url(#clip0)">
<path d="M10.5 20C16.0228 20 20.5 15.5228 20.5 10C20.5 4.47715 16.0228 0 10.5 0C4.97715 0 0.5 4.47715 0.5 10C0.5 15.5228 4.97715 20 10.5 20Z" fill="#338AF3"/>
<path d="M7.0499 10.1087H4.8479C4.8479 10.8892 5.52763 11.5218 6.30798 11.5218H6.26095C6.26095 12.3022 6.89356 12.9348 7.67399 12.9348C7.67399 13.7153 8.30661 14.3479 9.08704 14.3479H11.9131C12.6936 14.3479 13.3262 13.7153 13.3262 12.9348C14.1066 12.9348 14.7392 12.3022 14.7392 11.5218H14.6922C15.4725 11.5218 16.1523 10.8892 16.1523 10.1087H13.95C13.2902 11.338 11.9927 12.1738 10.5 12.1738C9.0072 12.1738 7.70968 11.338 7.0499 10.1087Z" fill="#FFDA44"/>
<path d="M13.4888 8.26084L12.2675 8.83533L12.9178 10.0181L11.5916 9.76443L11.4236 11.1041L10.4999 10.1188L9.57614 11.1041L9.40813 9.76443L8.08197 10.0181L8.73228 8.83529L7.51103 8.26084L8.73232 7.68639L8.08197 6.50362L9.4081 6.75729L9.57618 5.4176L10.4999 6.40295L11.4236 5.4176L11.5916 6.75729L12.9179 6.50362L12.2675 7.68642L13.4888 8.26084Z" fill="#FFDA44"/>
</g>
<defs>
<clipPath id="clip0">
<rect width="20" height="20" fill="white" transform="translate(0.5)"/>
</clipPath>
</defs>
</svg>
