<svg width="20" height="20" fill="none" xmlns="http://www.w3.org/2000/svg"><g clip-path="url(#clip0)"><path d="M10 20c5.523 0 10-4.477 10-10S15.523 0 10 0 0 4.477 0 10s4.477 10 10 10z" fill="#F0F0F0"/><path d="M0 10a9.998 9.998 0 005.217 8.784V1.216A9.998 9.998 0 000 10z" fill="#D80027"/><path d="M7.391 19.655C3.134 18.509 0 14.62 0 10 0 5.38 3.134 1.492 7.391.344v6.178h11.987A9.977 9.977 0 0120 10c0 1.223-.22 2.395-.622 3.478l-9.378.87-2.609-.242v5.55z" fill="#D80027"/><path d="M10 20c4.3 0 7.965-2.714 9.378-6.522H.622A10.003 10.003 0 0010 20z" fill="#6DA544"/><path d="M6.118 4.4l-.922-.922-.615.615-.615-.615-.922.923.614.614-.615.615.923.923.615-.615.615.615.922-.923-.615-.615.615-.614z" fill="#F0F0F0"/></g><defs><clipPath id="clip0"><path fill="#fff" d="M0 0h20v20H0z"/></clipPath></defs></svg>