<svg width="21" height="20" viewBox="0 0 21 20" fill="none" xmlns="http://www.w3.org/2000/svg">
<g clip-path="url(#clip0)">
<path d="M10.5 20C16.0228 20 20.5 15.5228 20.5 10C20.5 4.47715 16.0228 0 10.5 0C4.97715 0 0.5 4.47715 0.5 10C0.5 15.5228 4.97715 20 10.5 20Z" fill="#F0F0F0"/>
<path d="M10.5 7.39131H20.1555C19.9048 6.46107 19.5237 5.58447 19.0323 4.78259H10.5V7.39131Z" fill="#338AF3"/>
<path d="M4.27514 17.8262H16.7249C17.6375 17.0993 18.4201 16.2164 19.0323 15.2174H1.96776C2.57991 16.2163 3.36256 17.0993 4.27514 17.8262Z" fill="#338AF3"/>
<path d="M10.5 0C10.5 0.86957 10.5 2.17391 10.5 2.17391H16.7249C15.0167 0.813438 12.8535 0 10.5 0Z" fill="#338AF3"/>
<path d="M10.5 7.39133H20.1555C19.9048 6.4611 19.5237 5.58449 19.0323 4.78261H10.5V7.39133Z" fill="#338AF3"/>
<path d="M0.5 10C0.5 10.9026 0.620313 11.7769 0.844492 12.6087H20.1555C20.3797 11.7769 20.5 10.9026 20.5 10H0.5Z" fill="#338AF3"/>
<path d="M9.19551 5.85236L7.97418 6.42685L8.62453 7.60966L7.29836 7.35599L7.13031 8.69564L6.20664 7.71033L5.28289 8.69564L5.11488 7.35599L3.78871 7.60959L4.43902 6.42681L3.21777 5.85236L4.43906 5.27794L3.78871 4.09513L5.11484 4.3488L5.28293 3.00916L6.20664 3.99447L7.13035 3.00916L7.29836 4.3488L8.62457 4.09513L7.97422 5.27798L9.19551 5.85236Z" fill="#FFDA44"/>
</g>
<defs>
<clipPath id="clip0">
<rect width="20" height="20" fill="white" transform="translate(0.5)"/>
</clipPath>
</defs>
</svg>
