<svg width="20" height="20" fill="none" xmlns="http://www.w3.org/2000/svg"><path d="M10 20c5.523 0 10-4.477 10-10S15.523 0 10 0 0 4.477 0 10s4.477 10 10 10z" fill="#496E2D"/><path d="M13.913 10H10v10c1.169 0 2.29-.201 3.333-.57l.58-9.43z" fill="#D80027"/><path d="M15.87 6.522h2.608c0 .48-.418.87-.899.87h.03c0 .48-.39.869-.87.869 0 .48-.39.87-.87.87H14.13a.87.87 0 01-.87-.87.87.87 0 01-.869-.87h.029c-.48 0-.899-.389-.899-.87h2.61a.87.87 0 011.738 0zM20 10a9.975 9.975 0 01-3.333 7.453L16.087 10H20z" fill="#FF9811"/><path d="M13.333 10v9.43a9.995 9.995 0 003.334-1.977V10h-3.334z" fill="#000"/></svg>