<svg width="20" height="20" fill="none" xmlns="http://www.w3.org/2000/svg"><circle cx="10" cy="10" r="10" fill="#050F66"/><path fill-rule="evenodd" clip-rule="evenodd" d="m9.11 5.407-.834 1.417.012 1.974.012 1.974.123-.092c.197-.15.733-.387 1.094-.486.477-.131 1.197-.16 1.671-.068.206.04.405.084.443.098.06.022.069-.18.069-1.687V6.826l-.84-1.408c-.463-.774-.858-1.412-.88-1.418-.02-.006-.412.627-.87 1.407Zm-3.622 6.079L4 13.978l1.484.012c.816.006 1.491.004 1.5-.004.009-.009.01-1.136.004-2.504l-.011-2.489-1.489 2.493Zm7.49.013V14H16l-.066-.098c-.037-.054-.7-1.161-1.473-2.46a168.12 168.12 0 0 0-1.445-2.403c-.021-.023-.038 1.08-.038 2.46Zm-3.035-.237c-.767.18-1.453.856-1.615 1.592-.065.297-.065.704 0 .952L8.38 14h3.32V11.547l-.285-.128a2.316 2.316 0 0 0-1.471-.157Z" fill="#fff"/></svg>