<svg width="20" height="20" viewBox="0 0 20 20" fill="none" xmlns="http://www.w3.org/2000/svg">
<path d="M4.32 5H5.142C6.426 5.126 7.614 5.772 8.494 6.702C10.32 8.618 11.324 11.322 13.648 12.748C15.328 13.78 17.678 12.936 18.504 11.194C18.924 11.186 19.346 11.186 19.766 11.188C19.188 12.958 17.504 14.23 15.662 14.4H14.984C13.85 14.306 12.748 13.87 11.89 13.116C10.644 12.06 9.844 10.612 8.876 9.322C8.044 8.182 7.194 6.9 5.816 6.382C4.114 5.744 2.034 6.742 1.414 8.438C0.868 9.834 1.312 11.566 2.532 12.46C3.446 13.168 4.72 13.432 5.818 13.02C7.038 12.58 7.944 11.58 8.638 10.52C8.912 10.912 9.178 11.31 9.442 11.71C8.362 13.07 6.864 14.238 5.082 14.4H4.352C2.106 14.244 0.154 12.336 0 10.082V9.344C0.146 7.094 2.072 5.164 4.32 5Z" fill="#DE3F6B"/>
<path d="M14.9377 5H15.6197C17.8857 5.148 19.8137 7.094 19.9997 9.348V10.504C18.1297 10.522 16.2577 10.51 14.3877 10.512C14.3897 10.174 14.3897 9.838 14.3877 9.5C15.8657 9.496 17.3417 9.506 18.8177 9.496C18.7137 8.898 18.5777 8.286 18.2237 7.78C17.3597 6.46 15.5337 5.92 14.0737 6.492C12.9097 6.924 12.0337 7.87 11.3577 8.88C11.0977 8.506 10.8397 8.128 10.5897 7.746C11.6557 6.366 13.1437 5.172 14.9377 5Z" fill="#DE3F6B"/>
</svg>
