<svg width="100" height="100" viewBox="0 0 100 100" fill="none" xmlns="http://www.w3.org/2000/svg">
<rect width="100" height="100" fill="#1D0D4B"/>
<path d="M46.7383 10.8299C43.7511 13.68 41.1238 16.8008 39.6423 20.2504C38.1625 23.5926 37.7681 27.3206 38.5153 30.9022C39.1064 34.3327 40.7872 37.4767 43.3045 39.8607C45.7964 42.356 49.168 44.4082 52.7356 46.6089C56.2797 48.8343 60.1782 51.2469 63.4001 54.9211C66.6374 58.6402 68.5427 63.347 68.8107 68.2874C69.1384 73.0324 67.9735 77.7607 65.4816 81.7998C63.0095 85.7423 59.4977 88.6369 55.8135 90.8479C55.3342 91.1355 54.7162 91.0044 54.3926 90.5465C54.0689 90.0886 54.1477 89.457 54.5738 89.0942C57.6816 86.4219 60.3617 83.313 61.9415 79.8332C63.5006 76.4128 63.9691 72.5893 63.2828 68.8892C62.7432 65.3514 61.023 62.1048 58.4062 59.6854C55.841 57.2092 52.4576 55.2324 48.8561 53.1158C45.2813 50.9699 41.3379 48.7025 37.9467 45.1387C36.2338 43.3098 34.8344 41.2067 33.8057 38.9152C32.8302 36.6278 32.2391 34.1927 32.0565 31.7097C31.7257 26.9161 32.8448 21.8414 35.4966 17.9179C38.0597 14.1847 41.512 11.1603 45.5365 9.12218C46.0012 8.87494 46.5758 9.01304 46.8798 9.44508C47.1839 9.87712 47.1233 10.4694 46.7383 10.8299Z" fill="white"/>
<path d="M55.2471 9.08262C58.0591 10.4187 60.6055 12.2608 62.7613 14.5185C63.8988 15.7487 64.9024 17.0981 65.7549 18.5436C66.6217 20.0827 67.2978 21.7233 67.7679 23.4285C68.2155 25.1773 68.4503 26.9744 68.4673 28.7803C68.4311 30.5721 67.994 39.2606 63.2394 43.4406C62.6357 43.8677 61.8877 44.0341 61.1618 43.9028C60.4358 43.7714 59.7919 43.3533 59.3732 42.7412C58.7834 41.8241 58.7295 40.6577 59.2322 39.6893L59.2929 39.5766C60.5688 37.1512 65.8738 27.7236 59.8182 17.3194C58.1929 14.9332 56.3418 12.7115 54.291 10.6855L54.284 10.6792C53.9265 10.2985 53.9089 9.70815 54.243 9.3065C54.4879 9.00984 54.9009 8.91776 55.2471 9.08262Z" fill="white"/>
<path d="M45.6427 90.9185C42.8311 89.582 40.2847 87.7399 38.1285 85.4826C36.9909 84.2523 35.9873 82.9026 35.135 81.4567C34.268 79.918 33.5919 78.2776 33.1219 76.5726C32.6742 74.8237 32.4396 73.0262 32.4233 71.2201C32.4588 69.4282 32.8967 60.7405 37.6504 56.5606C38.2541 56.1334 39.0021 55.967 39.7281 56.0983C40.454 56.2296 41.0979 56.6478 41.5166 57.26C42.1068 58.1769 42.1607 59.3435 41.6576 60.3118L41.5969 60.4245C40.3211 62.8499 35.016 72.2768 41.0724 82.6817C42.6975 85.0681 44.5486 87.2898 46.5996 89.3156L46.6059 89.322C46.9634 89.7027 46.981 90.293 46.6469 90.6946C46.4019 90.9914 45.9889 91.0835 45.6427 90.9185Z" fill="white"/>
</svg>
