<svg width="21" height="20" viewBox="0 0 21 20" fill="none" xmlns="http://www.w3.org/2000/svg">
<circle cx="10.9968" cy="10" r="10" fill="white"/>
<path d="M11 16C11.3356 16 11.6637 15.9034 11.9428 15.7224C12.2219 15.5414 12.4394 15.2842 12.5678 14.9832C12.6962 14.6823 12.7299 14.3511 12.6644 14.0316C12.5989 13.7121 12.4373 13.4186 12.1999 13.1883C11.9626 12.9579 11.6603 12.8011 11.3311 12.7375C11.0019 12.674 10.6607 12.7066 10.3506 12.8312C10.0405 12.9559 9.7755 13.167 9.58903 13.4379C9.40257 13.7087 9.30304 14.0272 9.30304 14.3529C9.30304 14.7898 9.48183 15.2087 9.80007 15.5176C10.1183 15.8265 10.5499 16 11 16Z" fill="#1C1C1C"/>
<path d="M12.8412 2H9.1503L4 15.7941H7.11818L11 5.40735L14.8733 15.7941H18L12.8412 2Z" fill="#1C1C1C"/>
</svg>
