<svg width="20" height="20" viewBox="0 0 20 20" fill="none" xmlns="http://www.w3.org/2000/svg">
<path d="M10 20C15.5228 20 20 15.5228 20 10C20 4.47715 15.5228 0 10 0C4.47715 0 0 4.47715 0 10C0 15.5228 4.47715 20 10 20Z" fill="#000123"/>
<path fill-rule="evenodd" clip-rule="evenodd" d="M17.9174 9.57687C17.5786 9.01181 15.1207 5.16299 10 5.16299C4.85278 5.16299 2.39534 9.04011 2.07781 9.58296C2.02663 9.64919 1.99936 9.73142 2.00001 9.8149C1.99934 9.90096 2.02834 9.98569 2.08261 10.0529C2.42145 10.618 4.87928 14.4668 10 14.4668C15.1346 14.4668 17.5918 10.6045 17.9201 10.0495C17.9726 9.98285 18.0007 9.89952 18 9.8149C18.0007 9.72884 17.9717 9.64412 17.9174 9.57687ZM2.80931 9.8149C3.21781 10.4384 4.7296 12.4886 7.46077 13.3456C6.58294 12.7131 5.95575 11.7606 5.74351 10.6554C5.57708 10.5958 5.45801 10.4367 5.45801 10.2498C5.45801 10.012 5.65081 9.81918 5.88865 9.81918C6.12649 9.81918 6.31929 10.012 6.31929 10.2498C6.31929 10.3962 6.24631 10.5254 6.13476 10.6033C6.44755 12.162 7.66051 13.3843 9.22597 13.6938C9.47644 13.7158 9.73443 13.7274 10 13.7274C10.2624 13.7274 10.5174 13.7161 10.765 13.6946C11.3348 13.5812 11.879 13.3447 12.3485 12.9962C12.4378 12.9312 12.5597 12.9474 12.6247 13.0368C12.6897 13.1262 12.6735 13.2481 12.5841 13.3131C12.5694 13.3239 12.5546 13.3347 12.5398 13.3454C15.2706 12.4883 16.7822 10.4383 17.1907 9.8149C16.7775 9.18425 15.2355 7.09392 12.4446 6.25517C13.3199 6.85857 13.965 7.77551 14.2153 8.84454C14.4113 8.88494 14.5586 9.05842 14.5586 9.26631C14.5586 9.50414 14.3657 9.69695 14.1279 9.69695C13.8901 9.69695 13.6973 9.50414 13.6973 9.26631C13.6973 9.14031 13.7514 9.02697 13.8376 8.94821C13.4796 7.35866 12.151 6.13336 10.5119 5.91889C10.507 5.91815 10.5023 5.91724 10.4976 5.91616C10.3348 5.90709 10.1689 5.9024 10 5.9024C9.82576 5.9024 9.65479 5.90739 9.48706 5.91703C9.48207 5.91787 9.47701 5.9185 9.47189 5.91889C8.83811 6.00014 8.22871 6.2439 7.70869 6.61767C7.67619 6.64205 7.63556 6.65017 7.59494 6.65017C7.52993 6.65017 7.47305 6.61767 7.43243 6.56892C7.36743 6.47954 7.3918 6.35766 7.48118 6.29266L7.51929 6.26611C4.75119 7.11196 3.22072 9.18698 2.80931 9.8149ZM12.9333 12.7524C12.9658 12.7849 13.0145 12.8012 13.0633 12.8012C13.112 12.8012 13.1689 12.7849 13.2095 12.7443C13.8189 12.0699 14.2008 11.233 14.3065 10.3311C14.3227 10.2254 14.2415 10.1279 14.1358 10.1117C14.0302 10.0954 13.9327 10.1767 13.9164 10.2823C13.8189 11.103 13.4777 11.8586 12.917 12.4762C12.8439 12.5574 12.852 12.6793 12.9333 12.7524ZM5.90502 9.4129H5.87252C5.76689 9.39665 5.69376 9.29914 5.70189 9.18539C5.83189 8.30785 6.22191 7.49532 6.83943 6.84529C6.91256 6.76403 7.04257 6.76403 7.11569 6.83716C7.19695 6.91029 7.19695 7.0403 7.12382 7.11342C6.56317 7.70657 6.20566 8.43786 6.0919 9.24226C6.08378 9.33977 6.00252 9.4129 5.90502 9.4129ZM9.99988 13.3291C8.06604 13.3291 6.49785 11.7528 6.49785 9.82706C6.49785 7.89323 8.07417 6.32504 9.99988 6.32504C11.9337 6.32504 13.5019 7.90136 13.5019 9.82706C13.5019 11.7609 11.9337 13.3291 9.99988 13.3291ZM9.99988 6.71506C8.28543 6.71506 6.88787 8.11262 6.88787 9.82706C6.88787 11.5415 8.28543 12.9391 9.99988 12.9391C11.7143 12.9391 13.1119 11.5415 13.1119 9.82706C13.1038 8.11262 11.7143 6.71506 9.99988 6.71506ZM10.0246 7.73864C10.6421 7.73864 11.1459 8.24241 11.1459 8.85994C11.1459 9.24995 10.9428 9.59122 10.6421 9.79435L10.6407 9.7873C10.4622 9.90867 10.2514 9.9734 10.0244 9.9734C9.79754 9.9734 9.58687 9.90071 9.40845 9.78754L9.40709 9.79435C9.09833 9.59122 8.90332 9.24995 8.90332 8.85994C8.90332 8.24241 9.40709 7.73864 10.0246 7.73864ZM9.4069 9.79457L9.09813 11.6796C9.07376 11.8259 9.17939 11.9478 9.32564 11.9478H10.7232C10.8776 11.9478 10.9751 11.8259 10.9507 11.6796L10.6419 9.79457C10.4632 9.90833 10.2519 9.98145 10.0244 9.98145C9.79691 9.98145 9.58565 9.90833 9.4069 9.79457Z" fill="url(#paint0_linear)"/>
<defs>
<linearGradient id="paint0_linear" x1="4.34686" y1="6.08963" x2="15.4944" y2="14.2613" gradientUnits="userSpaceOnUse">
<stop stop-color="#8AE3FF"/>
<stop offset="0.4953" stop-color="#8AE3FF"/>
<stop offset="0.8918" stop-color="#8AE3FF"/>
<stop offset="1" stop-color="#8AE3FF"/>
</linearGradient>
</defs>
</svg>
