<svg width="20" height="20" fill="none" xmlns="http://www.w3.org/2000/svg"><circle cx="10" cy="10" r="10" fill="#fff"/><path fill-rule="evenodd" clip-rule="evenodd" d="M10.24 4.005a45.954 45.954 0 0 1-.507.144l-.03.008-.03.075-.153.404c-.612 1.618-1.024 2.677-2.356 6.045a348.857 348.857 0 0 1-1.334 3.357c-.131.306-.276.577-.407.762a1.383 1.383 0 0 1-.81.563c-.131.036-.284.072-.418.097a3.996 3.996 0 0 0-.159.03l-.03.008-.004.044c-.004.04 0 .451.004.456.004.004 3.925-.01 3.951-.015l.027-.004.002-.229c0-.126 0-.237-.002-.247l-.003-.018-.09-.013a7.386 7.386 0 0 1-.6-.107c-.28-.07-.456-.166-.544-.297a.51.51 0 0 1-.071-.176 1.664 1.664 0 0 1 0-.316 3.88 3.88 0 0 1 .063-.309c.037-.141.255-.81.426-1.307.286-.834.438-1.254 1.124-3.104.606-1.633.892-2.42 1.167-3.207.065-.186.074-.208.088-.216.016-.008.017-.007.029.01.007.01.019.036.026.06a1025.481 1025.481 0 0 0 2.392 6.771c.433 1.21.446 1.25.476 1.428a.9.9 0 0 1 0 .276c-.062.23-.28.353-.809.455l-.208.036c-.12.018-.151.024-.157.034-.007.011-.006.457.002.479L11.3 16h2.193c1.552 0 2.202-.002 2.223-.006l.03-.007v-.228c0-.125-.002-.236-.004-.245-.004-.022.005-.02-.155-.043-.23-.033-.5-.093-.62-.138a1.438 1.438 0 0 1-.249-.123c-.251-.16-.411-.364-.623-.793-.13-.267-.148-.309-.655-1.67-.359-.965-.872-2.367-1.28-3.5-.48-1.329-1.091-3.033-1.322-3.683-.189-.531-.52-1.458-.545-1.52-.018-.048-.02-.05-.054-.039Z" fill="#000"/></svg>
