<svg xmlns="http://www.w3.org/2000/svg" width="20" height="20" fill="none"><path d="M10 20c5.523 0 10-4.477 10-10S15.523 0 10 0 0 4.477 0 10s4.477 10 10 10z" fill="#FFDA44"/><path d="M10 20a9.985 9.985 0 008.017-4.021H1.983A9.985 9.985 0 0010 20zM20 10c0-5.523-4.477-10-10-10S0 4.477 0 10c0 1.182.206 2.317.583 3.37h18.834A9.98 9.98 0 0020 10z" fill="#0052B4"/><path d="M4.17 5.67l-.324-.996-.324.997H2.474l.848.615-.324.997.848-.616.847.616-.323-.997.847-.615H4.17zM7.384 8.074l-.54-1.66-.54 1.66H4.56L5.97 9.1l-.54 1.661 1.413-1.026 1.413 1.026-.54-1.66L9.13 8.073H7.384z" fill="#F0F0F0"/></svg>