<svg width="500" height="500" viewBox="0 0 500 500" fill="none" xmlns="http://www.w3.org/2000/svg">
<path d="M471.926 459.132L348.016 244.132L289.896 143.342L224.096 29.2022C223.007 27.3166 221.442 25.7507 219.557 24.6619C217.671 23.5732 215.533 23 213.356 23C211.178 23 209.04 23.5732 207.154 24.6619C205.269 25.7507 203.704 27.3166 202.616 29.2022L78.4155 243.972L27.6655 331.732C26.5754 333.618 26.001 335.758 26 337.937C25.999 340.115 26.5716 342.256 27.6601 344.143C28.7485 346.03 30.3146 347.597 32.2008 348.687C34.0871 349.777 36.227 350.351 38.4055 350.352L134.276 350.412C136.452 350.412 138.591 349.84 140.478 348.754C142.364 347.668 143.933 346.105 145.026 344.222L194.846 258.042L202.466 244.862C202.766 244.354 203.1 243.866 203.466 243.402C204.72 241.809 206.347 240.548 208.202 239.728C210.057 238.909 212.085 238.557 214.108 238.703C216.131 238.849 218.087 239.489 219.806 240.566C221.524 241.643 222.952 243.125 223.966 244.882L275.666 334.562L285.236 351.132C285.757 352.05 286.166 353.027 286.456 354.042C286.961 355.886 287.033 357.822 286.667 359.699C286.301 361.576 285.506 363.343 284.344 364.861C283.183 366.38 281.686 367.61 279.97 368.455C278.255 369.3 276.368 369.737 274.456 369.732L161.676 369.662C159.499 369.662 157.36 370.234 155.473 371.32C153.587 372.407 152.018 373.969 150.926 375.852L102.926 458.852C101.835 460.737 101.26 462.875 101.258 465.053C101.257 467.23 101.829 469.37 102.916 471.256C104.004 473.142 105.569 474.709 107.454 475.798C109.339 476.888 111.478 477.462 113.656 477.462L213.046 477.532L336.975 477.612L461.155 477.692C463.329 477.694 465.465 477.124 467.348 476.04C469.232 474.956 470.798 473.396 471.889 471.516C472.98 469.636 473.557 467.502 473.564 465.329C473.57 463.155 473.005 461.019 471.926 459.132V459.132Z" fill="#111111"/>
</svg>
