<svg xmlns="http://www.w3.org/2000/svg" xmlns:xlink="http://www.w3.org/1999/xlink" viewBox="0 0 20 20"><defs><style>.cls-1{fill:url(#linear-gradient);}</style><linearGradient id="linear-gradient" x1="0.3" y1="9.93" x2="19.81" y2="9.93" gradientUnits="userSpaceOnUse"><stop offset="0" stop-color="#32c54e"/><stop offset="0.36" stop-color="#7cdd51"/><stop offset="0.52" stop-color="#a0e952"/><stop offset="1" stop-color="#ffff65"/></linearGradient></defs><g id="Layer_3" data-name="Layer 3"><path d="M1.79,17.69l16.38-.29c2.11,0,2.14-1.84,1.36-2.86L10.63,3.16a1.55,1.55,0,0,0-2.56.13L.37,15.19A1.69,1.69,0,0,0,1.79,17.69Z"/><path class="cls-1" d="M1.59,17.54,18,17.25a1.55,1.55,0,0,0,1.21-2.49l-9-11.84a1.55,1.55,0,0,0-2.56.14L.23,15.19A1.55,1.55,0,0,0,1.59,17.54Z"/></g></svg>