<svg width="20" height="20" viewBox="0 0 20 20" fill="none" xmlns="http://www.w3.org/2000/svg">
<path d="M10 20C15.5228 20 20 15.5228 20 10C20 4.47715 15.5228 0 10 0C4.47715 0 0 4.47715 0 10C0 15.5228 4.47715 20 10 20Z" fill="white"/>
<path d="M8.29256 1.88627L5.74782 2.20436C6.22496 2.25738 6.7021 2.31039 7.12622 2.36341C7.34585 2.38171 7.55917 2.40633 7.77053 2.43073C8.17138 2.477 8.56521 2.52245 8.98176 2.52245C9.35286 2.57547 9.72397 2.62848 10.0951 2.62848C10.4662 2.62848 10.7843 2.57547 11.1024 2.52245C11.4205 2.49595 11.7386 2.45619 12.0566 2.41642C12.3747 2.37666 12.6928 2.3369 13.0109 2.31039C13.4881 2.25738 13.9652 2.20436 14.4953 2.15135C14.1108 2.12177 13.7593 2.07568 13.4223 2.03151C13.1554 1.99652 12.8976 1.96272 12.6398 1.93929C12.2753 1.91125 11.9256 1.86838 11.5829 1.82637C11.2777 1.78895 10.978 1.7522 10.6782 1.72722C10.5722 1.72722 10.4529 1.71397 10.3336 1.70072C10.2144 1.68746 10.0951 1.67421 9.98905 1.67421C9.69746 1.70072 9.41913 1.74048 9.1408 1.78024C8.86247 1.82 8.58414 1.85976 8.29256 1.88627Z" fill="#4C598E"/>
<path d="M10.0953 3.79482H12.4279C12.587 3.79482 12.746 3.84784 12.8521 4.00688C12.9581 4.16593 12.9581 4.27196 12.8521 4.48402C12.4811 5.01403 12.11 5.53079 11.739 6.04755C11.368 6.5643 10.9964 7.08191 10.6254 7.61192C10.5724 7.69145 10.5061 7.77097 10.4399 7.85049C10.3736 7.93001 10.3073 8.00954 10.2543 8.08906C10.0953 8.30112 10.0953 8.30112 9.93622 8.08906C9.83019 7.95652 9.72416 7.81073 9.61813 7.66494C9.5121 7.51915 9.40607 7.37335 9.30004 7.24081C8.98194 6.79018 8.6506 6.33955 8.31925 5.88892C7.98792 5.43831 7.65655 4.98765 7.33847 4.53704C7.23244 4.37799 7.17943 4.27196 7.28546 4.11291C7.39149 3.95387 7.49752 3.84784 7.70958 3.84784H9.40607C9.67114 3.79482 9.88321 3.79482 10.0953 3.79482Z" fill="#4C598E"/>
<path d="M2.85839 9.96971C2.84957 9.9976 2.84095 10.0248 2.83236 10.0506C2.85003 10.1036 2.8677 10.1625 2.88537 10.2215C2.92072 10.3393 2.95606 10.4571 2.99141 10.5278C3.3095 11.0844 3.64084 11.6543 3.97219 12.2243C4.30353 12.7942 4.63488 13.3641 4.95297 13.9207C5.16503 14.2918 5.53614 14.3449 5.80122 13.9738L8.34595 10.4747C8.61102 10.1567 8.61102 9.83856 8.34595 9.46746C7.92183 8.91079 7.51096 8.34088 7.10009 7.77096C6.68922 7.20105 6.27835 6.63114 5.85423 6.07448C5.58915 5.70337 5.21805 5.70337 5.059 6.12749C4.87128 6.44518 4.68356 6.75893 4.49691 7.07089C3.99835 7.90416 3.50727 8.72492 3.04442 9.57349C2.9556 9.66231 2.90397 9.82557 2.85839 9.96971Z" fill="#4C598E"/>
<path d="M12.6931 16.3064C12.9582 16.2534 13.1173 15.9353 12.9582 15.6702C12.7462 15.3787 12.5208 15.0738 12.2955 14.769C12.0702 14.4642 11.8449 14.1593 11.6328 13.8677L10.2014 11.9592C10.0954 11.8001 10.0424 11.8001 9.93634 11.9592C9.48583 12.5687 9.03532 13.1914 8.58481 13.8142C8.1342 14.4371 7.68317 15.0606 7.23256 15.6702C7.22307 15.6892 7.21189 15.7082 7.20053 15.7275C7.14839 15.8159 7.09248 15.9108 7.17954 16.0414C7.23256 16.2004 7.33859 16.3064 7.55065 16.3064H12.6931Z" fill="#4C598E"/>
<path d="M0.499478 10.1567C1.71883 12.0652 2.93818 13.9207 4.15753 15.7763C4.15753 15.7233 4.15753 15.6702 4.10452 15.6172L1.55978 10.2097C1.50677 10.1036 1.50677 9.99761 1.55978 9.89158C1.85137 9.2554 2.15621 8.61921 2.46104 7.98303C2.76588 7.34684 3.07072 6.71066 3.3623 6.07448C3.57232 5.68944 3.75923 5.30441 3.95355 4.90411C4.0535 4.6982 4.15553 4.48802 4.26356 4.27196C4.21055 4.27196 4.21055 4.32497 4.21055 4.32497C3.29821 5.65546 2.41313 7.01321 1.53577 8.35913C1.18959 8.89017 0.84445 9.41964 0.499478 9.94459C0.446463 9.99761 0.446463 10.1036 0.499478 10.1567Z" fill="#4C598E"/>
<path d="M15.8209 15.7233L15.8453 15.6706C15.854 15.6711 15.859 15.6723 15.8603 15.6752C15.863 15.6811 15.8499 15.6943 15.8209 15.7233Z" fill="#4C598E"/>
<path d="M15.9052 15.542L15.8209 15.6702C15.8309 15.6702 15.839 15.6703 15.8453 15.6706L15.9052 15.542Z" fill="#4C598E"/>
<path d="M15.9052 15.542L19.479 10.1036C19.5711 10.0115 19.5432 9.95945 19.4995 9.87788C19.4929 9.86553 19.4859 9.8525 19.479 9.83856C18.8693 8.93731 18.2729 8.02281 17.6765 7.1083C17.08 6.19378 16.4836 5.27926 15.8739 4.37799C15.8412 4.37799 15.8286 4.35774 15.8114 4.32975C15.8007 4.31246 15.7881 4.29221 15.7679 4.27196C15.7679 4.29847 15.7812 4.31172 15.7944 4.32497C15.8077 4.33823 15.8209 4.35148 15.8209 4.37799C16.245 5.27922 16.6824 6.19371 17.1198 7.1082C17.5571 8.02274 17.9945 8.93728 18.4187 9.83856C18.4717 9.99761 18.4717 10.1036 18.4187 10.2097C18.1536 10.7663 17.8885 11.3362 17.6235 11.9061C17.3584 12.476 17.0933 13.046 16.8282 13.6026C16.6692 13.9473 16.4969 14.3051 16.3245 14.663C16.1823 14.9585 16.04 15.254 15.9052 15.542Z" fill="#4C598E"/>
<path d="M5.80109 17.8969C6.22528 17.8439 6.63621 17.7908 7.04714 17.7378C7.45795 17.6848 7.86875 17.6318 8.29281 17.5788C8.60627 17.5503 8.91974 17.5065 9.22497 17.4638C9.48755 17.4271 9.74415 17.3912 9.9893 17.3667C10.0953 17.3667 10.2146 17.38 10.3338 17.3932C10.4531 17.4065 10.5725 17.4197 10.6785 17.4197C11.0496 17.4728 11.434 17.5125 11.8183 17.5523C12.2027 17.592 12.587 17.6318 12.9582 17.6848C13.4352 17.7378 13.9125 17.7909 14.4956 17.8439C13.9654 17.8969 13.4883 17.9499 13.0112 18.0029C12.6592 18.0532 12.3073 18.0915 11.961 18.1293C11.5771 18.1711 11.1999 18.2122 10.8375 18.268C10.2544 18.374 9.61819 18.321 9.03503 18.215C8.69048 18.162 8.33267 18.1222 7.97487 18.0825C7.61702 18.0427 7.25901 18.0029 6.91441 17.9499C6.49029 18.0029 6.11918 17.9499 5.80109 17.8969Z" fill="#4C598E"/>
<path d="M17.2792 9.96969C17.2881 9.99761 17.2967 10.0248 17.3053 10.0506C17.2876 10.1036 17.2758 10.1625 17.264 10.2215C17.2405 10.3393 17.2169 10.4571 17.1462 10.5278C16.8281 11.0844 16.4968 11.6544 16.1654 12.2243C15.8341 12.7942 15.5027 13.3641 15.1847 13.9207C14.9726 14.2918 14.6015 14.3449 14.3364 13.9738L11.7917 10.4747C11.5266 10.1567 11.5266 9.83856 11.7917 9.46746C12.2158 8.9108 12.6267 8.34088 13.0375 7.77097C13.4484 7.20105 13.8593 6.63114 14.2834 6.07448C14.5485 5.70337 14.9196 5.70337 15.0786 6.12749C15.2663 6.44517 15.4541 6.75891 15.6407 7.07086C16.1393 7.90423 16.6303 8.72483 17.0932 9.57349C17.182 9.66231 17.2336 9.82555 17.2792 9.96969Z" fill="#4C598E"/>
</svg>
