<svg width="21" height="20" viewBox="0 0 21 20" fill="none" xmlns="http://www.w3.org/2000/svg">
<g clip-path="url(#clip0)">
<path d="M20.5 9.99999C20.5 8.77679 20.28 7.60503 19.878 6.52175L10.5 6.08694L1.12199 6.52171C0.720039 7.60503 0.5 8.77679 0.5 9.99999C0.5 11.2232 0.720039 12.395 1.12199 13.4782L10.5 13.913L19.878 13.4783C20.28 12.395 20.5 11.2232 20.5 9.99999Z" fill="#D80027"/>
<path d="M10.4998 20C14.7995 20 18.4649 17.2862 19.8778 13.4782H1.12183C2.53476 17.2862 6.20019 20 10.4998 20Z" fill="#6DA544"/>
<path d="M1.12183 6.52176H19.8779C18.4649 2.71375 14.7995 0 10.4998 0C6.20019 0 2.53476 2.71375 1.12183 6.52176Z" fill="#338AF3"/>
<path d="M10.7173 12.8261C9.15652 12.8261 7.89121 11.5608 7.89121 9.99998C7.89121 8.4392 9.15652 7.17389 10.7173 7.17389C11.2039 7.17389 11.6619 7.29693 12.0616 7.51357C11.4345 6.90025 10.5768 6.5217 9.63035 6.5217C7.70933 6.5217 6.1521 8.07896 6.1521 9.99994C6.1521 11.9209 7.70937 13.4782 9.63035 13.4782C10.5768 13.4782 11.4345 13.0996 12.0616 12.4863C11.6619 12.703 11.2039 12.8261 10.7173 12.8261Z" fill="#F0F0F0"/>
<path d="M12.8911 8.04346L13.2655 9.09623L14.2746 8.61646L13.7949 9.6256L14.8477 9.99998L13.7949 10.3744L14.2746 11.3835L13.2655 10.9037L12.8911 11.9565L12.5168 10.9037L11.5077 11.3835L11.9874 10.3744L10.9346 9.99998L11.9874 9.6256L11.5077 8.61646L12.5168 9.09623L12.8911 8.04346Z" fill="#F0F0F0"/>
</g>
<defs>
<clipPath id="clip0">
<rect width="20" height="20" fill="white" transform="translate(0.5)"/>
</clipPath>
</defs>
</svg>
