<svg width="20" height="20" fill="none" xmlns="http://www.w3.org/2000/svg"><path d="M14.404 9.843a.269.269 0 01.327.2l.236.975a.273.273 0 01-.198.33.269.269 0 01-.327-.201l-.236-.975a.273.273 0 01.198-.329zM7.095 2.716a.278.278 0 01.076-.378l.832-.55a.274.274 0 01.376.078.278.278 0 01-.076.379l-.832.55a.27.27 0 01-.376-.079z" fill="#fff"/><path fill-rule="evenodd" clip-rule="evenodd" d="M11.393 6.123a3.642 3.642 0 00-2.843.536 3.647 3.647 0 013.756.895 3.74 3.74 0 010 5.24 3.5 3.5 0 01-.556.458 3.7 3.7 0 001.433-.895 3.74 3.74 0 00.887-3.783 5.087 5.087 0 01-2.677-2.45z" fill="#FFAE54"/><path d="M17.403 14.409h0c-2.315 4.28-7.627 5.843-11.856 3.508-4.231-2.336-5.79-7.703-3.474-11.985A8.722 8.722 0 019.38 1.346c.392-.017.697.19.908.556.216.376.313.892.261 1.38a5.387 5.387 0 00.592 3.097 4.001 4.001 0 00-4.922 1.85c-1.059 1.956-.346 4.419 1.595 5.491 1.943 1.074 4.386.347 5.446-1.61h0a4.078 4.078 0 00.203-3.436 5.417 5.417 0 003.907.4c.263-.072.544-.041.754.066.203.104.324.268.337.479a8.86 8.86 0 01-1.057 4.79z" fill="url(#paint0_radial)" stroke="#AC562A" stroke-width="1.08"/><mask id="a" maskUnits="userSpaceOnUse" x="5" y="1" width="14" height="16"><path d="M10.925 3.045C11.075 2.1 10.599.992 9.642 1a9.028 9.028 0 00-3.482.728c-2.098.995-.827 5.792 2.909 4.8a3.645 3.645 0 013.235 1.028c1.364 1.38 1.445 3.56.208 5.016.242.044.668-.059 1.336-.477.527-.33 1.121-.002 1.315.552.178.506-.053.95-.284 1.394-.128.244-.255.489-.314.744-.172.741.017 1.509.816 1.72.35.091.772-.062 1.202-.336a9.226 9.226 0 002.188-6.56c-.042-.704-.836-1.042-1.517-.858a5.07 5.07 0 01-6.33-5.706z" fill="#fff"/></mask><g mask="url(#a)" fill="#AC562A"><path d="M10.925 3.045C11.075 2.1 10.599.992 9.642 1a9.028 9.028 0 00-3.482.728c-2.098.995-.827 5.792 2.909 4.8a3.645 3.645 0 013.235 1.028c1.364 1.38 1.445 3.56.208 5.016.242.044.668-.059 1.336-.477.527-.33 1.121-.002 1.315.552.178.506-.053.95-.284 1.394-.128.244-.255.489-.314.744-.172.741.017 1.509.816 1.72.35.091.772-.062 1.202-.336a9.226 9.226 0 002.188-6.56c-.042-.704-.836-1.042-1.517-.858a5.07 5.07 0 01-6.33-5.706z"/><path d="M6.16 1.728L5.891 1.1l-.012.005-.011.006.292.617zm2.908 4.8l-.119-.673-.028.005-.028.007.175.66zm3.236 1.028l.486-.48-.001-.002-.485.482zm.207 5.016l-.52-.443-.767.901 1.164.214.123-.672zm1.337-.477l-.362-.58h-.001l.363.58zm1.315.552l-.645.225v.001l.645-.226zm-.285 1.394l.607.316-.607-.316zm-.314.744l-.665-.155v.001l.665.154zm.817 1.72l-.175.66.002.001.173-.661zm1.201-.336l.368.576.086-.054.066-.078-.52-.444zm2.19-6.56l-.683.041.682-.041zm-1.518-.858l-.178-.66.178.66zM9.642 1L9.637.317 9.642 1zm1.283 2.045l-.676-.107.675.107zM9.636.317A9.712 9.712 0 005.89 1.1l.539 1.257a8.344 8.344 0 013.218-.673L9.637.317zm-3.77.794c-.761.36-1.182 1.056-1.332 1.79-.15.726-.046 1.53.265 2.245.313.719.854 1.385 1.622 1.794.778.414 1.737.537 2.822.248l-.351-1.32c-.783.207-1.384.102-1.829-.135-.455-.242-.801-.652-1.01-1.133-.212-.485-.267-1.004-.18-1.425.085-.416.292-.693.58-.829l-.586-1.235zm3.32 6.09a2.961 2.961 0 012.632.836l.97-.963a4.328 4.328 0 00-3.84-1.22l.239 1.347zm2.63.835c1.117 1.13 1.18 2.91.174 4.093l1.041.885c1.47-1.727 1.369-4.31-.242-5.939l-.972.961zm.571 5.208c.275.05.565.005.846-.088.288-.095.612-.253.977-.482l-.726-1.158c-.303.19-.525.291-.678.341-.16.053-.204.036-.172.042l-.247 1.345zm1.822-.57a.156.156 0 01.075-.027c.014 0 .034.002.06.014a.362.362 0 01.173.211l1.29-.45a1.725 1.725 0 00-.892-1.003 1.488 1.488 0 00-1.43.096l.724 1.16zm.308.2c.065.183.012.356-.246.851l1.213.632c.204-.393.614-1.108.323-1.937l-1.29.453zm-.246.851c-.119.228-.291.55-.373.905l1.331.31c.036-.156.119-.322.255-.583l-1.213-.632zm-.374.906c-.107.463-.116.991.077 1.469.205.506.62.904 1.231 1.066l.35-1.322c-.187-.05-.267-.141-.313-.257-.059-.144-.077-.37-.013-.648l-1.332-.308zm1.31 2.535c.644.168 1.284-.129 1.742-.42l-.735-1.153c-.401.255-.607.265-.661.25l-.346 1.323zm1.894-.553a9.91 9.91 0 002.351-7.045l-1.364.082a8.543 8.543 0 01-2.026 6.075l1.04.888zm-.026-8.522c-.365.099-.749.151-1.147.151V9.61c.52 0 1.024-.07 1.503-.2l-.356-1.319zm-1.147.151a4.386 4.386 0 01-4.386-4.386h-1.367A5.753 5.753 0 0015.93 9.61V8.242zm-4.386-4.386c0-.235.02-.471.057-.703l-1.35-.215c-.049.3-.074.608-.074.918h1.367zm7.91 5.712c-.038-.635-.425-1.089-.887-1.328a2.094 2.094 0 00-1.49-.149l.356 1.32a.73.73 0 01.506.043c.116.06.147.127.15.196l1.365-.082zM9.648 1.684c.169-.002.323.08.454.314.138.249.201.605.147.94l1.35.215a2.884 2.884 0 00-.303-1.82c-.31-.555-.87-1.023-1.66-1.016l.012 1.367zM9.72 16.559a.456.456 0 100-.911.456.456 0 000 .91zM6.93 17.242a.74.74 0 100-1.48.74.74 0 000 1.48z"/></g><defs><radialGradient id="paint0_radial" cx="0" cy="0" r="1" gradientUnits="userSpaceOnUse" gradientTransform="matrix(0 9.17301 -9.08054 0 9.739 10.169)"><stop offset=".334" stop-color="#F7B450"/><stop offset=".648" stop-color="#FFC977"/><stop offset="1" stop-color="#F90"/></radialGradient></defs></svg>