<svg width="20" height="20" viewBox="0 0 20 20" fill="none" xmlns="http://www.w3.org/2000/svg">
<circle cx="10" cy="10" r="10" fill="url(#paint0_linear)"/>
<path d="M13.6435 12.0507C13.3001 11.8489 13.1006 11.4893 13.1227 11.1122C13.1273 11.0348 13.1283 10.9561 13.1256 10.8782C13.1019 10.1891 12.7923 9.54005 12.2539 9.05045C11.7154 8.56097 11.0049 8.28251 10.2531 8.26641C9.45283 8.24902 8.69741 8.52184 8.12566 9.03394C7.55371 9.5462 7.23872 10.2319 7.23872 10.9649C7.23872 11.0146 7.24021 11.065 7.24319 11.1145C7.26562 11.4899 7.06604 11.8487 6.72235 12.0507C5.83332 12.5734 5.3152 13.4993 5.37019 14.4672C5.4081 15.1345 5.71623 15.7634 6.23781 16.2379C6.75927 16.7123 7.44751 16.99 8.17571 17.02C8.21996 17.0218 8.26416 17.0227 8.30836 17.0227C8.78032 17.0227 9.24595 16.9194 9.66261 16.7214C9.98843 16.5665 10.3774 16.5665 10.7033 16.7213C11.159 16.9379 11.6733 17.0411 12.1902 17.02C12.9184 16.9901 13.6066 16.7124 14.1281 16.2379C14.6497 15.7634 14.9578 15.1345 14.9957 14.4672C15.0506 13.4994 14.5325 12.5734 13.6435 12.0507Z" fill="#CF8E77"/>
<path d="M6.47739 8.38765C6.47739 8.17728 6.40895 7.78937 5.81704 6.85393C5.51174 6.37141 5.21088 5.9712 5.19821 5.95439C5.1147 5.84351 4.9771 5.77734 4.83013 5.77734C4.68316 5.77734 4.54558 5.84351 4.46205 5.95439C4.4494 5.97117 4.14854 6.37139 3.84321 6.85393C3.25134 7.78937 3.18286 8.17725 3.18286 8.38765C3.18286 9.22037 3.92182 9.89784 4.8301 9.89784C5.73837 9.89784 6.47739 9.22037 6.47739 8.38765Z" fill="#CF8E77"/>
<path d="M16.5226 6.85393C16.2173 6.37139 15.9164 5.97117 15.9038 5.95439C15.8202 5.84351 15.6827 5.77734 15.5357 5.77734C15.3887 5.77734 15.2511 5.84351 15.1676 5.95439C15.155 5.9712 14.8541 6.37141 14.5488 6.85393C13.9569 7.78937 13.8884 8.17725 13.8884 8.38765C13.8884 9.22037 14.6274 9.89784 15.5357 9.89784C16.444 9.89784 17.1829 9.22037 17.1829 8.38765C17.183 8.17725 17.1145 7.78937 16.5226 6.85393Z" fill="#CF8E77"/>
<path d="M8.10649 7.14393C9.01479 7.14393 9.75373 6.46646 9.75373 5.63372C9.75373 5.42335 9.68528 5.03547 9.09338 4.10002C8.78808 3.61751 8.48725 3.2173 8.47457 3.20048C8.39107 3.08961 8.25346 3.02344 8.10649 3.02344C7.95952 3.02344 7.82192 3.08961 7.73841 3.20048C7.72574 3.2173 7.42491 3.61751 7.11958 4.10002C6.5277 5.03547 6.45923 5.42332 6.45923 5.63372C6.45929 6.46646 7.19822 7.14393 8.10649 7.14393Z" fill="#CF8E77"/>
<path d="M12.2591 7.14393C13.1674 7.14393 13.9063 6.46646 13.9063 5.63372C13.9063 5.42335 13.8379 5.03547 13.246 4.10002C12.9407 3.61751 12.6398 3.2173 12.6271 3.20048C12.5436 3.08961 12.406 3.02344 12.2591 3.02344C12.1121 3.02344 11.9745 3.08961 11.891 3.20048C11.8783 3.2173 11.5775 3.61751 11.2722 4.10002C10.6803 5.03547 10.6118 5.42332 10.6118 5.63372C10.6118 6.46646 11.3508 7.14393 12.2591 7.14393Z" fill="#CF8E77"/>
<defs>
<linearGradient id="paint0_linear" x1="10" y1="0" x2="10" y2="20" gradientUnits="userSpaceOnUse">
<stop stop-color="#FE9C01"/>
<stop offset="1" stop-color="#FEE793"/>
</linearGradient>
</defs>
</svg>
