<svg width="21" height="20" viewBox="0 0 21 20" fill="none" xmlns="http://www.w3.org/2000/svg">
<g clip-path="url(#clip0)">
<path d="M20.5 10C20.5 8.77681 20.28 7.60506 19.878 6.52178L10.5 6.08698L1.12199 6.52174C0.720039 7.60506 0.5 8.77681 0.5 10C0.5 11.2232 0.720039 12.395 1.12199 13.4783L10.5 13.9131L19.878 13.4783C20.28 12.395 20.5 11.2232 20.5 10Z" fill="#496E2D"/>
<path d="M10.4998 20C14.7995 20 18.4649 17.2862 19.8778 13.4782H1.12183C2.53476 17.2862 6.20019 20 10.4998 20Z" fill="#D80027"/>
<path d="M1.12183 6.52176H19.8779C18.4649 2.71375 14.7995 0 10.4998 0C6.20019 0 2.53476 2.71375 1.12183 6.52176Z" fill="#F0F0F0"/>
</g>
<defs>
<clipPath id="clip0">
<rect width="20" height="20" fill="white" transform="translate(0.5)"/>
</clipPath>
</defs>
</svg>
