<svg xmlns="http://www.w3.org/2000/svg" id="Layer_1" viewBox="0 0 2500 2500"><style>.st2,.st7{fill-rule:evenodd;clip-rule:evenodd;fill:#fff}.st7{fill:#ccc}</style><g id="Layer_x0020_1"><g id="_2680769525760"><circle cx="1250" cy="1250" r="1223" fill-rule="evenodd" clip-rule="evenodd" fill="red"/><path d="M1250 2500c-345 0-658-140-884-366S0 1595 0 1250s140-658 366-884S905 0 1250 0s658 140 884 366 366 539 366 884-140 658-366 884-539 366-884 366zm-845-405c216 216 515 350 845 350s629-134 845-350 350-515 350-845-134-629-350-845-515-350-845-350-629 134-845 350S55 920 55 1250s134 629 350 845z"/><radialGradient id="SVGID_1_" cx="1250" cy="6189.242" r="260.961" gradientTransform="matrix(1 0 0 -.1411 0 2978.327)" gradientUnits="userSpaceOnUse"><stop offset="0" stop-color="#e7321f"/><stop offset=".812" stop-color="#f32f1a"/><stop offset="1" stop-color="#fe2d16"/></radialGradient><ellipse cx="1250" cy="2105" rx="570" ry="80" fill-rule="evenodd" clip-rule="evenodd" fill="url(#SVGID_1_)"/><path d="M1747 1659c-7-7-7-18 0-25s18-7 25 0l66 66c7 7 7 18 0 25s-18 7-25 0l-66-66z"/><path class="st2" d="M1925 1672c76 0 138 62 138 138s-62 138-138 138c-6 0-11 0-17-1 1 6 1 12 1 19 0 76-62 138-138 138s-138-81-138-138 24-81 49-106l-73-82 145-131 74 66c25-25 59-40 97-40v-1z"/><path d="M1925 1654c43 0 82 17 110 46 28 28 46 67 46 110s-17 82-46 110c-28 28-66 45-108 45 0 43-17 82-46 110-28 28-67 46-110 46-40 0-77-20-104-47-31-31-51-73-51-108 0-55 20-82 42-106l-62-70c-6-7-6-18 2-25l144-131c7-6 17-6 23 0l62 55c11-9 24-17 38-23 18-8 38-12 59-12h1zm85 70c-22-22-52-35-85-35-16 0-32 3-46 9s-27 15-38 25c-6 7-17 8-25 1l-62-55-120 109 61 69c7 7 7 18 0 24l-1 1c-22 22-43 43-43 93 0 26 16 59 41 84 21 21 49 37 80 37 33 0 63-13 85-35s35-52 35-85v-8c0-3 0-5-1-7v-5c1-10 10-16 19-15 3 0 5 1 7 1h7c33 0 63-13 85-35s35-52 35-85-13-63-35-85l1-3z"/><path d="M640 1367s57 93 97 112c41 20 69 33 127 71s109 115 136 143c26 29 58 108 152 171s174 58 198 52 117-14 271-150c154-135 263-305 272-409s-2-182-114-287-326-337-326-337l-73-84-740 718z" fill-rule="evenodd" clip-rule="evenodd" fill="#bb461a"/><path d="M663 1370c16 25 55 80 82 94 20 10 38 18 58 29s42 24 71 43c45 29 85 80 114 116 10 12 18 23 25 30 8 9 16 21 26 36 23 36 58 88 123 132 35 23 68 37 96 44 43 11 76 9 89 6 2-1 5-1 8-2 31-6 118-23 255-144 75-66 139-140 185-210 47-71 77-138 81-188s4-93-11-136-44-87-98-137c-113-106-326-338-326-338l-62-70-716 696v-1zm67 125c-45-22-104-119-105-119-4-7-3-16 3-22l735-715c6-5 8-8 17 2l86 79c1 1 213 232 325 337 58 55 90 103 107 151 17 49 17 96 13 150-5 56-36 128-86 204-48 73-114 149-191 217-144 127-237 145-271 152-3 1-5 1-7 1-16 4-55 7-106-6-32-8-68-23-106-49-71-47-108-103-133-142-9-13-16-25-22-32-7-8-16-19-26-32-27-34-66-82-106-108-29-19-50-31-69-42-19-10-36-18-56-28l-2 2z"/><path d="M613 1376s83 84 124 104 69 33 127 71 109 115 136 143c26 29 58 108 152 171s126 63 198 52c72-10 174-75 174-75-232 42-390-211-513-349-65-74-146-120-398-117z" fill-rule="evenodd" clip-rule="evenodd" fill="#652207"/><path d="M656 1393c27 25 66 60 89 71 20 10 38 18 58 29s42 24 71 43c45 29 85 80 114 116 10 12 18 23 25 30 8 9 16 21 26 36 23 36 58 88 123 132 45 30 75 45 101 51s51 3 85-1c32-5 70-20 102-36-166-13-289-164-391-287-21-26-41-50-60-72-31-35-65-63-121-82-51-17-120-28-220-29l-2-1zm73 102c-43-21-129-107-129-107-3-3-5-7-5-12 0-10 8-18 17-18 128-2 213 10 275 31 63 22 102 53 136 92 20 22 40 47 61 73 111 135 250 304 435 271 7-2 14 1 18 8 5 8 3 19-5 24 0 0-105 66-181 77-38 5-66 8-97 1s-64-23-113-56c-71-47-108-103-133-142-9-13-16-25-22-32-7-8-16-19-26-32-27-34-66-82-106-108-29-19-50-31-69-42-19-10-36-18-56-28z"/><path d="M591 1349c113 156 352 109 566-69s322-472 209-628-377-116-591 61c-214 178-296 479-183 636h-1z" fill-rule="evenodd" clip-rule="evenodd" fill="#bc471c"/><path d="M605 1339c3 4 6 9 10 12 49 59 122 82 204 73 85-9 181-50 275-118 17-12 34-26 51-40 106-88 185-206 223-320 36-108 34-213-17-285l-9-12c-51-61-130-85-220-77-93 8-196 50-293 119-15 11-30 22-44 34-103 86-175 201-208 315-33 113-26 223 28 298v1zm-17 35c-4-5-8-9-11-14-60-83-68-204-33-327 34-119 110-241 219-332 15-13 31-25 46-36 102-73 212-117 310-126 101-9 191 19 250 90 4 4 7 9 11 14 59 82 62 198 22 316-40 120-123 243-234 335-18 15-35 28-53 41-99 71-201 115-292 124-94 10-177-16-234-86l-1 1z"/><path d="M578 1217c96 133 367 110 549-41s342-405 246-538-403-99-585 52-306 394-210 527z" fill-rule="evenodd" clip-rule="evenodd" fill="#ec793a"/><path class="st7" d="M1655 1902s2 74 92 92 164-3 201-168c8-37 47 21 120-20l-52 108-95 38-12 44-34 60-68 33-80 5-62-53-36-89 26-51v1z"/><path d="M1925 1654c43 0 82 17 110 46 28 28 46 67 46 110s-17 82-46 110c-28 28-66 45-108 45 0 43-17 82-46 110-28 28-67 46-110 46-40 0-77-20-104-47-31-31-51-73-51-108 0-55 20-82 42-106l-62-70c-6-7-6-18 2-25l144-131c7-6 17-6 23 0l62 55c11-9 24-17 38-23 18-8 38-12 59-12h1zm85 70c-22-22-52-35-85-35-16 0-32 3-46 9s-27 15-38 25c-6 7-17 8-25 1l-62-55-120 109 61 69c7 7 7 18 0 24l-1 1c-22 22-43 43-43 93 0 26 16 59 41 84 21 21 49 37 80 37 33 0 63-13 85-35s35-52 35-85v-8c0-3 0-5-1-7v-5c1-10 10-16 19-15 3 0 5 1 7 1h7c33 0 63-13 85-35s35-52 35-85-13-63-35-85l1-3zM605 1339c3 4 6 9 10 12 49 59 122 82 204 73 85-9 181-50 275-118 17-12 34-26 51-40 106-88 185-206 223-320 36-108 34-213-17-285l-9-12c-51-61-130-85-220-77-93 8-196 50-293 119-15 11-30 22-44 34-103 86-175 201-208 315-33 113-26 223 28 298v1zm-17 35c-4-5-8-9-11-14-60-83-68-204-33-327 34-119 110-241 219-332 15-13 31-25 46-36 102-73 212-117 310-126 101-9 191 19 250 90 4 4 7 9 11 14 59 82 62 198 22 316-40 120-123 243-234 335-18 15-35 28-53 41-99 71-201 115-292 124-94 10-177-16-234-86l-1 1z"/><path class="st2" d="M527 837c-74 0-134-62-134-138s60-138 134-138c7 0 15 1 22 2-1-7-2-15-2-22 0-76 60-138 134-138s134 62 134 138c0 39-16 74-41 99 61 70 200 226 220 247 26 26-1 62-1 62s-21 46-51 67c-31 21-59 2-59 2L624 794c-24 27-59 43-97 43z"/><path d="M527 854c-42 0-80-17-107-46-27-28-44-67-44-110s17-81 44-110c27-28 65-46 107-46h2v-3c0-43 17-81 44-110 27-28 65-46 107-46s80 17 107 46c27 28 44 67 44 110 0 21-4 42-12 61-6 14-14 27-23 39 31 35 76 86 115 130 44 50 84 94 94 104 33 33 8 74 2 83-4 8-25 51-57 73-40 28-78 2-78 2-1 0-1-1-2-1L623 816c-11 10-24 18-38 24-18 8-39 13-60 13l2 1zm-82-70c21 22 50 35 82 35 16 0 32-3 46-10 15-6 28-16 39-28 6-7 17-8 24-1l258 223c4 2 20 10 38-3 27-18 45-59 45-60 1-1 1-2 2-3 0 0 18-24 2-40-10-10-50-55-95-106-46-51-95-107-125-142-6-7-6-17 1-24 11-11 20-25 27-40 6-14 9-30 9-47 0-33-13-64-34-85-21-22-50-35-82-35s-61 13-82 35-34 52-34 85v10c0 3 1 6 1 9v6c-2 10-11 16-20 14-3 0-6-1-9-1h-9c-32 0-61 13-82 35s-34 52-34 85 13 64 34 85l-2 3z"/><path class="st7" d="M417 642s-5 73 93 93 156-25 156-25l311 277-74 42-153-130-116-100-114 38-91-41-35-92 12-48 11-15v2-1z"/><path d="M527 854c-42 0-80-17-107-46-27-28-44-67-44-110s17-81 44-110c27-28 65-46 107-46h2v-3c0-43 17-81 44-110 27-28 65-46 107-46s80 17 107 46c27 28 44 67 44 110 0 21-4 42-12 61-6 14-14 27-23 39 31 35 76 86 115 130 44 50 84 94 94 104 33 33 8 74 2 83-4 8-25 51-57 73-40 28-78 2-78 2-1 0-1-1-2-1L623 816c-11 10-24 18-38 24-18 8-39 13-60 13l2 1zm-82-70c21 22 50 35 82 35 16 0 32-3 46-10 15-6 28-16 39-28 6-7 17-8 24-1l258 223c4 2 20 10 38-3 27-18 45-59 45-60 1-1 1-2 2-3 0 0 18-24 2-40-10-10-50-55-95-106-46-51-95-107-125-142-6-7-6-17 1-24 11-11 20-25 27-40 6-14 9-30 9-47 0-33-13-64-34-85-21-22-50-35-82-35s-61 13-82 35-34 52-34 85v10c0 3 1 6 1 9v6c-2 10-11 16-20 14-3 0-6-1-9-1h-9c-32 0-61 13-82 35s-34 52-34 85 13 64 34 85l-2 3z"/></g></g></svg>
