<svg width="20" height="20" viewBox="0 0 20 20" fill="none" xmlns="http://www.w3.org/2000/svg">
<g clip-path="url(#clip0)">
<path d="M11.7485 3.70677C11.3632 2.79031 10.7549 1.98522 9.98418 1.35833C9.21029 0.731447 8.29628 0.305037 7.32176 0.114107C6.34405 -0.0768231 5.33768 -0.0227267 4.38545 0.26685C3.43004 0.556427 2.5638 1.07512 1.85998 1.77838C1.00647 2.6312 1.00647 4.01226 1.85998 4.86508C2.71348 5.7179 4.09564 5.7179 4.94596 4.86508C5.10201 4.70915 5.28673 4.58505 5.48736 4.49913C5.69756 4.41003 5.92367 4.36548 6.14978 4.36548C6.37908 4.36548 6.60201 4.41003 6.81221 4.49913C7.11794 4.6296 7.37908 4.84599 7.5638 5.11965C7.75488 5.39968 7.85679 5.73063 7.85361 6.07112C7.85361 7.27716 8.83131 8.25409 10.0351 8.25409C11.239 8.25409 12.2167 7.27716 12.2167 6.07112C12.2262 5.25649 12.0638 4.45458 11.7485 3.70677Z" fill="#00FFBA"/>
<path d="M9.95533 11.7491C8.74833 11.7491 7.77381 12.726 7.77381 13.9321C7.77381 14.1612 7.72922 14.384 7.64005 14.594C7.50948 14.8995 7.2961 15.1604 7.01903 15.345C6.88209 15.4373 6.7324 15.5105 6.57635 15.5582C6.27381 15.6537 5.95215 15.66 5.64642 15.5837C5.34068 15.5041 5.06043 15.3418 4.84387 15.1159C4.69419 14.9599 4.57635 14.7786 4.49355 14.5813C4.32158 14.1612 4.32476 13.6903 4.49992 13.2702C4.63049 12.9647 4.84387 12.7038 5.12094 12.5192C5.40119 12.3283 5.7324 12.2296 6.07317 12.2296C7.28018 12.2296 8.2547 11.2527 8.2547 10.0466C8.2547 8.84058 7.27699 7.86365 6.07317 7.86365C4.88209 7.86365 3.71648 8.21369 2.72285 8.86922C1.72922 9.52476 0.948965 10.4603 0.483997 11.5582C0.0190288 12.6529 -0.114729 13.8621 0.101831 15.0331C0.318392 16.2042 0.875717 17.2861 1.70374 18.1421C2.54451 19.0141 3.62412 19.6123 4.80884 19.8669C5.99355 20.1183 7.22604 20.0133 8.34705 19.5582C9.46807 19.1064 10.4299 18.3267 11.1082 17.3243C11.7834 16.3219 12.1464 15.1382 12.1464 13.9289C12.1369 12.726 11.1592 11.7491 9.95533 11.7491Z" fill="#00CFAB"/>
<path d="M19.3377 3.29998C18.9141 2.4758 18.3058 1.75663 17.5606 1.20293L17.5574 1.19975C16.653 0.528315 15.5829 0.120997 14.4619 0.0223503C13.3409 -0.0762968 12.2135 0.14009 11.2071 0.646054C10.2007 1.15202 9.35679 1.92528 8.76443 2.88312C8.17531 3.84133 7.86336 4.94388 7.86316 6.06846C7.86316 7.2745 8.84087 8.25143 10.0447 8.25143C11.2485 8.25143 12.2262 7.2745 12.2262 6.06846C12.2262 5.83935 12.2708 5.6166 12.36 5.40657C12.4905 5.10109 12.7039 4.84015 12.981 4.65558C13.1179 4.5633 13.2676 4.49011 13.4237 4.44238C13.6816 4.36282 13.9523 4.34373 14.2167 4.38828C14.481 4.43283 14.7326 4.54102 14.946 4.70013C15.1562 4.85606 15.3281 5.05972 15.4491 5.29202C15.5606 5.51477 15.6243 5.75661 15.6339 6.00482C15.6434 6.25303 15.5988 6.50124 15.5033 6.73035C15.3727 7.03584 15.1593 7.29678 14.8823 7.48134C14.7453 7.57363 14.5956 7.64682 14.4396 7.69455C14.274 7.74546 14.1052 7.77092 13.93 7.77092C12.723 7.77092 11.7485 8.74785 11.7485 9.95389C11.7485 11.1599 12.7262 12.1369 13.93 12.1369C14.9714 12.1369 15.9937 11.8696 16.9014 11.3604C17.809 10.8513 18.5702 10.1194 19.1116 9.23154C19.653 8.34371 19.9587 7.33178 19.9969 6.2944C20.0415 5.25701 19.8122 4.22599 19.3377 3.29998Z" fill="#00CFAB"/>
<path d="M19.4973 11.5038C19.0323 10.4059 18.2552 9.4672 17.2616 8.8085C16.2679 8.1498 15.0991 7.79658 13.9048 7.79976C12.6978 7.79976 11.7233 8.77668 11.7233 9.98271C11.7233 11.1887 12.701 12.1657 13.9048 12.1657C14.1341 12.1657 14.3571 12.2102 14.5673 12.2993C14.873 12.4298 15.1342 12.6462 15.3189 12.9198C15.4749 13.1521 15.5736 13.4226 15.5991 13.7026C15.6278 13.9827 15.5864 14.2659 15.4781 14.5236C15.3953 14.7241 15.2743 14.9055 15.1246 15.0582C14.9685 15.2205 14.7806 15.3478 14.5768 15.4369C14.3666 15.526 14.1373 15.5737 13.908 15.5737C13.6787 15.5737 13.4494 15.5292 13.2392 15.4401C12.9335 15.3096 12.6723 15.0932 12.4876 14.8196C12.2965 14.5395 12.1978 14.2054 12.1978 13.8681C12.1978 12.6621 11.2201 11.6852 10.0163 11.6852C8.81243 11.6852 7.83472 12.6621 7.83472 13.8681C7.83472 15.0773 8.19459 16.2579 8.86657 17.2603C9.54174 18.2626 10.5003 19.0391 11.6214 19.4941C12.7424 19.9492 13.9717 20.0573 15.1533 19.8091C16.3348 19.5609 17.4176 18.9659 18.2584 18.0972C19.0896 17.2412 19.6501 16.1592 19.8699 14.9882C20.0896 13.814 19.959 12.6016 19.4973 11.5038Z" fill="#00FFBA"/>
<path d="M6.09511 7.83221C5.86581 7.83221 5.64288 7.78766 5.43269 7.69856C5.12696 7.56809 4.86581 7.35489 4.6811 7.07804C4.45817 6.75028 4.35944 6.35569 4.39766 5.9611C4.43588 5.56651 4.61103 5.20056 4.89129 4.92053C5.74479 4.06771 5.74479 2.68665 4.89129 1.83383C4.03779 0.981009 2.65562 0.981009 1.8053 1.83383C0.954984 2.68347 0.375366 3.76222 0.139697 4.93962C-0.0959715 6.11703 0.0250477 7.33898 0.483646 8.44637C0.942245 9.55694 1.7225 10.502 2.7225 11.1703C3.7225 11.8386 4.89766 12.1918 6.0983 12.1918C7.3053 12.1918 8.27982 11.2149 8.27982 10.0088C8.27982 8.80914 7.30212 7.83221 6.09511 7.83221Z" fill="#00FFBA"/>
</g>
<defs>
<clipPath id="clip0">
<rect width="20" height="20" fill="white"/>
</clipPath>
</defs>
</svg>
