<svg width="20" height="20" viewBox="0 0 20 20" fill="none" xmlns="http://www.w3.org/2000/svg">
<path d="M10 20C15.5228 20 20 15.5228 20 10C20 4.47715 15.5228 0 10 0C4.47715 0 0 4.47715 0 10C0 15.5228 4.47715 20 10 20Z" fill="url(#paint0_linear)"/>
<path d="M5 5.64937C5 5.29062 5.295 5 5.65875 5H10.4012C13.1987 5 14.1856 5.33 14.8656 6.00062C15.0759 6.21421 15.2391 6.46951 15.3446 6.75006C15.4501 7.0306 15.4956 7.33016 15.4781 7.62937C15.4781 8.78625 14.855 9.57063 13.1737 9.915C14.7975 10.1988 15.6219 10.8587 15.6219 12.1862C15.6373 12.4959 15.5886 12.8053 15.4789 13.0953C15.3692 13.3852 15.2009 13.6494 14.9844 13.8713C14.3188 14.5275 13.2312 15 10.3044 15H5.65875C5.48531 15.0012 5.31849 14.9334 5.19497 14.8117C5.07145 14.6899 5.00132 14.5241 5 14.3506V5.64937ZM8.60062 9.37563C8.60062 9.13625 8.7975 8.9425 9.04 8.9425H10.5669C11.4381 8.9425 12.09 8.9 12.3919 8.5875C12.4622 8.51367 12.5164 8.42607 12.5512 8.33022C12.5859 8.23437 12.6004 8.13236 12.5938 8.03062C12.6125 7.83063 12.545 7.63188 12.4062 7.48375C12.1 7.1825 11.4487 7.12937 10.5669 7.12937H7.725V12.8994H10.5375C11.495 12.8994 12.2044 12.8281 12.5356 12.4981C12.6881 12.3419 12.7669 12.1294 12.7519 11.9125C12.7656 11.6919 12.6875 11.475 12.5356 11.3125C12.2006 10.9831 11.4919 10.9581 10.5375 10.9581H9.05C8.99038 10.9596 8.93109 10.949 8.87567 10.927C8.82025 10.905 8.76985 10.872 8.7275 10.83C8.68546 10.7885 8.65245 10.7388 8.63051 10.6839C8.60857 10.6291 8.59818 10.5703 8.6 10.5113L8.60062 9.37563Z" fill="white"/>
<defs>
<linearGradient id="paint0_linear" x1="2.5" y1="17" x2="18" y2="3.5" gradientUnits="userSpaceOnUse">
<stop stop-color="#FE5D86"/>
<stop offset="1" stop-color="#FB9E3E"/>
</linearGradient>
</defs>
</svg>
