<svg width="18" height="18" viewBox="0 0 18 18" fill="none" xmlns="http://www.w3.org/2000/svg">
<path d="M10.231 13.7577V15.3719L8.82472 16.2L7.45859 15.3719V13.7577L8.82472 14.5858L10.231 13.7577ZM2.69995 8.17101L4.06608 8.99908V11.7715L6.42442 13.1777V14.7919L2.69995 12.5995V8.17101ZM14.9477 8.17101V12.5977L11.1812 14.7919V13.1777L13.5396 11.7715V8.99908L14.9477 8.17101ZM11.1812 5.97863L12.5875 6.8067V8.42089L10.2291 9.82714V12.6415L8.86485 13.4677L7.49872 12.6397V9.82714L5.0583 8.42089V6.8067L6.46455 5.97863L8.8229 7.38489L11.1812 5.97863ZM5.0583 9.57909L6.42442 10.4072V12.0213L5.0583 11.1933V9.57909ZM12.5893 9.57909V11.1933L11.2232 12.0213V10.4072L12.5893 9.57909ZM4.06608 4.57238L5.47233 5.40044L4.06608 6.22851V7.8427L2.69995 7.01281V5.39862L4.06608 4.57238ZM13.5815 4.57238L14.9878 5.40044V7.01463L13.5815 7.8427V6.22851L12.2154 5.40044L13.5815 4.57238ZM8.8229 4.57238L10.2291 5.40044L8.8229 6.22851L7.45677 5.40044L8.8229 4.57238ZM8.8229 1.79999L12.5875 3.99236L11.2214 4.82043L8.86485 3.41417L6.46455 4.82043L5.09842 3.99236L8.8229 1.79999Z" fill="#E7BA42"/>
</svg>
