<svg width="18" height="18" viewBox="0 0 18 18" fill="none" xmlns="http://www.w3.org/2000/svg">
<path d="M13.7081 9.7457C13.5473 9.37606 13.2998 9.05142 12.8048 8.7782C12.549 8.63355 12.2742 8.52536 11.9884 8.45677C12.1807 8.36743 12.3575 8.24809 12.5123 8.1032C12.7399 7.89978 12.9124 7.64217 13.0138 7.35427C13.1071 7.06171 13.1453 6.75435 13.1263 6.44784C13.0909 5.90784 12.9848 5.38392 12.702 5.00784C12.4191 4.63177 12.0206 4.34249 11.4934 4.13999C11.0884 3.9857 10.6738 3.88927 10.0309 3.85392V1.79999H8.7452V3.85713H7.71663V1.79999H6.39878V3.85713H3.6001V5.39999H4.49592C4.77556 5.39999 4.9652 5.4257 5.06163 5.47392C5.15136 5.5123 5.22513 5.5804 5.27056 5.66677C5.31235 5.74713 5.33163 5.93677 5.33163 6.22927V11.7964C5.33163 12.0857 5.31235 12.2721 5.27056 12.3557C5.22878 12.4393 5.20628 12.5132 5.10663 12.5582C5.00699 12.6032 5.00378 12.6 4.72735 12.6H3.87878L3.6001 14.1428H6.39653V16.2H7.71438V14.1428H8.74295V16.2H10.0287V14.13C10.8644 14.0882 11.459 13.9789 11.938 13.7989C12.5583 13.5675 13.034 13.23 13.3747 12.7864C13.7155 12.3428 13.8247 11.6646 13.8546 11.1407C13.8762 10.6746 13.8537 10.0736 13.7081 9.7457ZM7.71438 5.59284H8.74295V7.97142H7.71438V5.59284ZM7.71438 12.4071V9.51427H8.74295V12.4071H7.71438ZM10.0287 5.7182C10.2215 5.79856 10.3469 5.95927 10.4722 6.12642C10.6105 6.30963 10.6812 6.55392 10.6812 6.81427C10.6812 7.06499 10.588 7.28034 10.4401 7.4732C10.318 7.6307 10.2215 7.73999 10.0287 7.82999V5.7182ZM10.9544 11.7193C10.7037 11.9411 10.559 12.0439 10.244 12.1628C10.1736 12.1876 10.1017 12.208 10.0287 12.2239V9.56249C10.1544 9.5811 10.2768 9.61791 10.3919 9.67177C10.6426 9.77784 10.8805 9.89356 11.0283 10.0961C11.1923 10.3286 11.2819 10.6054 11.2855 10.89C11.2845 11.2403 11.1945 11.5071 10.9534 11.7193H10.9544Z" fill="#E9983E"/>
</svg>
