<svg width="20" height="20" viewBox="0 0 20 20" fill="none" xmlns="http://www.w3.org/2000/svg">
<circle cx="10" cy="10" r="10" fill="white"/>
<path fill-rule="evenodd" clip-rule="evenodd" d="M8.58116 2.53286C8.57955 2.59377 8.51944 2.92165 8.44755 3.2614C8.28637 4.02367 8.28229 3.96629 8.49724 3.96485C8.73336 3.96324 8.79691 3.91131 9.0602 3.5052C9.29887 3.13693 9.39633 3.07033 9.32412 3.32487C9.29911 3.41303 9.258 3.55802 9.23267 3.64706C9.18979 3.79806 9.20678 3.79534 9.48433 3.60699C9.81991 3.37921 9.92226 3.36158 10.0733 3.5052C10.1373 3.56612 10.1253 3.49967 10.0424 3.33569C9.94221 3.13741 9.88258 3.08964 9.81686 3.15536C9.67412 3.2981 9.59926 3.25995 9.59926 3.04436C9.59926 2.79045 9.51319 2.79189 9.20526 3.05101L8.95921 3.25803L8.8785 3.0458C8.8341 2.92911 8.79779 2.80672 8.79779 2.77394C8.79779 2.74116 8.74971 2.64859 8.69096 2.5682C8.61602 2.4657 8.58316 2.4552 8.58116 2.53286ZM8.16415 2.96525C8.038 3.16418 7.89125 3.43195 7.83811 3.56034C7.75043 3.77201 7.68808 3.80231 7.1676 3.88662C6.27172 4.03169 5.73754 4.18549 5.57893 4.3441C5.41999 4.50311 5.18372 5.36454 4.99185 6.48459C4.92452 6.87803 4.85896 7.21032 4.84622 7.22307C4.83348 7.23581 4.64497 7.19261 4.42737 7.12713C4.11456 7.03296 3.94553 7.02591 3.62053 7.09339C2.34755 7.35763 1.75286 8.78513 2.09565 10.7532C2.31918 12.0362 2.74621 12.8512 3.39388 13.2308C3.69827 13.4091 3.82475 13.437 4.19398 13.4063C4.56715 13.3754 4.62654 13.3889 4.59256 13.4969C4.49446 13.8091 4.3897 14.5205 4.3897 14.8745C4.3897 15.1858 4.41327 15.2527 4.50992 15.2157C4.60201 15.1803 4.63022 15.2324 4.63063 15.4385C4.63087 15.5865 4.67166 15.8519 4.72127 16.0282C4.80615 16.3298 4.81641 16.3381 4.89335 16.1684C4.99954 15.9346 5.08153 15.9399 5.14301 16.1849C5.2512 16.6158 6.02855 16.9699 7.51288 17.2646C8.20695 17.4024 8.51215 17.4388 9.91985 17.552C10.788 17.6218 13.4167 17.1437 14.2295 16.7682C14.5805 16.606 14.889 16.2923 14.889 16.0975C14.889 15.9273 15.0159 15.9687 15.1067 16.1684C15.1836 16.3381 15.1939 16.3298 15.2787 16.0282C15.3283 15.8519 15.3691 15.5865 15.3694 15.4385C15.3698 15.2324 15.398 15.1803 15.4901 15.2157C15.5867 15.2527 15.6103 15.1858 15.6103 14.8745C15.6103 14.5205 15.5055 13.8091 15.4074 13.4969C15.3735 13.3889 15.4329 13.3754 15.806 13.4063C16.8417 13.4922 17.5926 12.5427 17.9043 10.7532C18.2471 8.78513 17.6524 7.35763 16.3795 7.09339C16.0545 7.02591 15.8854 7.03296 15.5726 7.12713C15.355 7.19261 15.1665 7.23581 15.1538 7.22307C15.141 7.21032 15.0755 6.87803 15.0082 6.48459C14.8233 5.40501 14.5851 4.51818 14.436 4.35332C14.2067 4.09997 12.8852 3.83004 11.5629 3.76656L10.7614 3.72801L11.4403 3.83982C12.372 3.9933 13.0563 4.14237 13.0157 4.18293C12.997 4.2016 12.355 4.17788 11.5891 4.13019C10.0678 4.03562 8.55359 4.10567 7.04498 4.3405C6.29111 4.45791 6.16761 4.50031 5.97261 4.70893C5.72592 4.97286 5.65482 4.82122 5.89246 4.53806C5.9997 4.41022 6.24791 4.3328 6.9476 4.20873C7.45076 4.11953 7.86969 4.03738 7.87851 4.02632C7.88732 4.01518 7.95753 3.80776 8.03455 3.56531C8.11149 3.32287 8.24141 3.00733 8.32316 2.86403C8.54517 2.47491 8.42767 2.54977 8.16415 2.96525ZM9.52898 5.60714C10.0305 5.63519 10.6933 5.62461 11.0018 5.58366C11.3104 5.5427 11.5787 5.52347 11.5981 5.54094C11.6174 5.55841 11.5544 5.62798 11.4579 5.69562C11.2663 5.82971 11.223 6.09419 11.3825 6.15447C11.4879 6.1943 12.3974 6.14549 12.7038 6.08362C12.8113 6.0619 12.9028 5.96788 12.9328 5.8483C12.9901 5.61988 13.1004 5.60289 13.4842 5.76327C13.6974 5.85231 13.7749 5.94488 13.837 6.18404C13.8806 6.35267 13.9565 6.64481 14.0055 6.83315C14.0546 7.0215 14.0762 7.20559 14.0536 7.24214C14.031 7.27869 13.6597 7.33046 13.2285 7.35715C12.0183 7.43209 10.8381 7.80582 10.6395 8.1769C10.4124 8.6012 9.58756 8.6012 9.36051 8.1769C9.30288 8.06926 9.07679 7.90632 8.84933 7.80846C8.30817 7.57563 7.11551 7.33455 6.49829 7.33327C6.22539 7.33271 5.9803 7.29696 5.95369 7.25392C5.92708 7.21088 5.94055 7.03953 5.98367 6.87322C6.02679 6.70692 6.10261 6.41478 6.1523 6.22411C6.22555 5.9428 6.294 5.85592 6.51577 5.76327C6.8963 5.60426 7.00979 5.6198 7.06469 5.83845C7.10677 6.00611 7.17409 6.03433 7.65442 6.0853C8.64616 6.19061 8.67501 6.18813 8.70266 5.99361C8.71845 5.88293 8.66611 5.77858 8.5624 5.71382C8.37758 5.5984 8.33607 5.44829 8.5071 5.51393C8.56761 5.53717 9.02749 5.57909 9.52898 5.60714ZM8.05643 6.50719C8.15557 6.52627 8.31795 6.52627 8.41709 6.50719C8.51624 6.48804 8.43513 6.47241 8.23676 6.47241C8.0384 6.47241 7.95729 6.48804 8.05643 6.50719ZM11.5829 6.50719C11.682 6.52627 11.8444 6.52627 11.9436 6.50719C12.0427 6.48804 11.9616 6.47241 11.7632 6.47241C11.5649 6.47241 11.4838 6.48804 11.5829 6.50719ZM7.63622 6.61002C7.60817 6.65538 7.64031 6.66885 7.71164 6.64152C7.85045 6.58822 7.87586 6.53076 7.76061 6.53076C7.71909 6.53076 7.66315 6.56642 7.63622 6.61002ZM12.164 6.56225C12.164 6.57957 12.2199 6.61523 12.2884 6.64152C12.3597 6.66885 12.3918 6.65538 12.3638 6.61002C12.3167 6.5338 12.164 6.49733 12.164 6.56225ZM7.275 7.56906C7.39899 7.60657 7.0885 7.64176 6.4599 7.66131C5.90144 7.6787 5.41535 7.72214 5.37968 7.75797C5.34401 7.79371 5.29424 8.13634 5.269 8.51937C5.21955 9.27002 5.15094 9.26105 5.07865 8.49436C5.05364 8.22987 5.01108 7.91762 4.98407 7.80045C4.946 7.63566 4.96836 7.57884 5.08306 7.54927C5.3231 7.48747 7.05676 7.5031 7.275 7.56906ZM14.8761 7.54494C15.0304 7.58621 15.055 7.6323 15.0152 7.80429C14.9886 7.91938 14.9464 8.22987 14.9214 8.49436C14.8491 9.26105 14.7805 9.27002 14.731 8.51937C14.7058 8.13634 14.656 7.79371 14.6203 7.75797C14.5847 7.72214 14.0986 7.6787 13.5401 7.66131C12.9115 7.64176 12.601 7.60657 12.725 7.56906C12.9717 7.49444 14.6186 7.47601 14.8761 7.54494ZM3.97142 8.44611C3.7773 8.66203 3.57565 8.98181 3.52323 9.1567C3.33609 9.7812 3.43643 10.6053 3.75029 11.0213C3.88854 11.2046 3.8883 11.1918 3.74484 10.7762C3.56106 10.2438 3.55321 10.0164 3.7038 9.58941C3.86506 9.13257 4.10975 8.82665 4.48059 8.61819C4.90288 8.38079 5.03088 8.4413 5.03088 8.87826C5.03088 9.40163 5.24768 9.95087 5.54326 10.1763C5.86337 10.4205 6.56449 10.6086 7.39522 10.673C7.74787 10.7003 8.06292 10.7624 8.0953 10.8108C8.12768 10.8592 8.15469 10.8024 8.15541 10.6842C8.15798 10.2373 8.95552 9.89693 10 9.89693C11.0445 9.89693 11.842 10.2373 11.8446 10.6842C11.8453 10.8024 11.8723 10.8592 11.9047 10.8108C11.9371 10.7624 12.2521 10.7003 12.6048 10.673C13.4355 10.6086 14.1366 10.4205 14.4567 10.1763C14.7523 9.95087 14.9691 9.40163 14.9691 8.87826C14.9691 8.4413 15.0971 8.38079 15.5194 8.61819C15.8903 8.82665 16.1349 9.13257 16.2962 9.58941C16.4468 10.0164 16.4389 10.2438 16.2552 10.7762C16.1117 11.1918 16.1115 11.2046 16.2497 11.0213C16.5636 10.6053 16.6639 9.7812 16.4768 9.1567C16.4244 8.98181 16.2227 8.66203 16.0286 8.44611L15.6756 8.05355H15.9773C16.4029 8.05355 16.9108 8.58332 17.0529 9.17529C17.2713 10.0858 16.9851 11.3002 16.4134 11.8894C15.7587 12.564 14.889 12.4294 14.889 11.6536C14.889 11.5158 14.9121 11.5066 15.0596 11.5856C15.2253 11.6742 15.2286 11.6661 15.1749 11.3078C15.1293 11.0032 15.1414 10.9388 15.2447 10.9388C15.4266 10.9388 15.3986 10.7636 15.1602 10.4091C15.0449 10.2376 14.9391 10.0846 14.925 10.0693C14.9111 10.0538 14.7579 10.155 14.5848 10.2941C14.2558 10.5585 13.6609 10.7786 13.2751 10.7786H13.0492L13.5681 11.5706C13.8536 12.0061 14.1977 12.5989 14.3329 12.8879L14.5788 13.4133L14.3739 14.2633C14.0874 15.4521 13.8388 15.946 13.3806 16.2366C12.5841 16.7417 11.1856 17.1063 10.0401 17.1074C8.84676 17.1085 7.42255 16.746 6.6194 16.2366C6.16119 15.946 5.91258 15.4521 5.62605 14.2633L5.4212 13.4133L5.66709 12.8879C5.8023 12.5989 6.14645 12.0061 6.43185 11.5706L6.9508 10.7786H6.72487C6.33912 10.7786 5.74419 10.5585 5.41518 10.2941C5.24207 10.155 5.08891 10.0538 5.07496 10.0693C5.06093 10.0846 4.95506 10.2376 4.83981 10.4091C4.60137 10.7636 4.5734 10.9388 4.75525 10.9388C4.85856 10.9388 4.87075 11.0032 4.82506 11.3078C4.77136 11.6661 4.77473 11.6742 4.94039 11.5856C5.08762 11.5068 5.11103 11.5159 5.11103 11.6522C5.11103 12.1517 4.66252 12.4439 4.12386 12.2952C3.49807 12.1224 2.94193 11.1473 2.88238 10.1185C2.83429 9.2887 2.96597 8.84156 3.38826 8.40083C3.66533 8.11166 3.77153 8.05355 4.02271 8.05355H4.32438L3.97142 8.44611ZM10.355 9.14123C10.4242 9.21055 10.4809 9.39089 10.4809 9.54196V9.81679H10H9.51912V9.54196C9.51912 9.20719 9.69432 9.01532 10 9.01532C10.1259 9.01532 10.2856 9.07198 10.355 9.14123ZM8.75516 10.7866C8.68879 10.9957 8.83618 11.173 8.9673 11.0418C9.03302 10.9761 9.14395 10.9832 9.38671 11.0689L9.71676 11.1854L9.44194 10.9018C9.12912 10.5791 8.83659 10.53 8.75516 10.7866ZM10.5591 10.9008L10.2853 11.1832L10.5448 11.0928C10.6875 11.043 10.8916 11.0242 10.9983 11.0511C11.223 11.1074 11.3143 11.0052 11.242 10.7778C11.1636 10.5305 10.8661 10.5841 10.5591 10.9008ZM8.15662 11.0143C8.15662 11.0558 8.19228 11.1117 8.23588 11.1387C8.28125 11.1667 8.29471 11.1346 8.26738 11.0632C8.21408 10.9244 8.15662 10.899 8.15662 11.0143ZM11.7283 11.0757C11.6849 11.1899 11.694 11.1991 11.7732 11.1205C11.828 11.0661 11.8526 11.0014 11.8279 10.9768C11.8032 10.9522 11.7584 10.9966 11.7283 11.0757ZM8.59743 15.459C8.28782 15.5553 8.30625 15.5601 9.13842 15.6C9.61233 15.6226 10.3874 15.624 10.8609 15.6029L11.722 15.5646L11.3619 15.457C10.9032 15.3198 9.04024 15.3212 8.59743 15.459Z" fill="black"/>
</svg>
