<svg width="21" height="20" viewBox="0 0 21 20" fill="none" xmlns="http://www.w3.org/2000/svg">
<g clip-path="url(#clip0)">
<circle cx="10.1104" cy="10" r="10" fill="url(#paint0_linear)"/>
<path d="M4.7314 10C4.7314 7.14683 7.04435 4.83388 9.89753 4.83388C11.0113 4.83388 12.0404 5.18534 12.8833 5.78348L13.2258 6.02649C13.4149 6.1607 13.677 6.11617 13.8112 5.92704L14.2972 5.24214C14.4314 5.05301 14.3869 4.79089 14.1978 4.65669L13.8553 4.41368C12.7377 3.6206 11.3708 3.15424 9.89753 3.15424C6.11672 3.15424 3.05176 6.21919 3.05176 10C3.05176 13.7808 6.11672 16.8458 9.89753 16.8458C11.7428 16.8458 13.4191 16.1146 14.6494 14.9279L14.9517 14.6364C15.1186 14.4754 15.1234 14.2096 14.9624 14.0427L14.3794 13.4382C14.2184 13.2712 13.9526 13.2664 13.7857 13.4274L13.4834 13.7189C12.5535 14.6158 11.2907 15.1661 9.89753 15.1661C7.04435 15.1661 4.7314 12.8532 4.7314 10Z" fill="white"/>
<path fill-rule="evenodd" clip-rule="evenodd" d="M15.5603 5.90601C14.6491 5.90601 13.9104 6.64467 13.9104 7.55586C13.9104 8.46704 14.6491 9.20571 15.5603 9.20571C16.4714 9.20571 17.2101 8.46704 17.2101 7.55586C17.2101 6.64467 16.4714 5.90601 15.5603 5.90601ZM15.0861 7.55586C15.0861 7.29402 15.2984 7.08175 15.5603 7.08175C15.8221 7.08175 16.0344 7.29402 16.0344 7.55586C16.0344 7.8177 15.8221 8.02996 15.5603 8.02996C15.2984 8.02996 15.0861 7.8177 15.0861 7.55586Z" fill="white"/>
</g>
<defs>
<linearGradient id="paint0_linear" x1="10.1104" y1="0" x2="0.110352" y2="10" gradientUnits="userSpaceOnUse">
<stop stop-color="#F1C26F"/>
<stop offset="1" stop-color="#E47F3E"/>
</linearGradient>
<clipPath id="clip0">
<rect width="20" height="20" fill="white" transform="translate(0.130859)"/>
</clipPath>
</defs>
</svg>
