<svg width="20" height="20" viewBox="0 0 20 20" fill="none" xmlns="http://www.w3.org/2000/svg">
<circle cx="10" cy="10" r="10" fill="black"/>
<g clip-path="url(#clip0)">
<path fill-rule="evenodd" clip-rule="evenodd" d="M4.18052 9.30305L6.72857 6.755L9.97111 9.99753L13.2401 6.72855L15.8146 9.30305C16.1981 9.6866 16.1981 10.3085 15.8146 10.692L13.2444 13.2622L9.9797 9.99753L6.73288 13.2444L4.18052 10.692C3.79697 10.3085 3.79697 9.6866 4.18052 9.30305ZM8.67173 3.54915C9.40396 2.81692 10.5911 2.81692 11.3234 3.54915L16.4459 8.67171C17.1782 9.40394 17.1782 10.5911 16.4459 11.3234L11.3234 16.4459C10.5911 17.1781 9.40396 17.1781 8.67173 16.4459L3.54918 11.3234C2.81694 10.5911 2.81694 9.40394 3.54918 8.67171L8.67173 3.54915Z" fill="white"/>
</g>
<defs>
<clipPath id="clip0">
<rect width="14" height="14" fill="white" transform="translate(3 3)"/>
</clipPath>
</defs>
</svg>
