<svg width="21" height="21" viewBox="0 0 21 21" fill="none" xmlns="http://www.w3.org/2000/svg">
<circle cx="10.8119" cy="10.1398" r="10" fill="white"/>
<path d="M6.12537 2.72958L6.12537 8.98115C6.12537 9.19463 6.29265 9.36743 6.4984 9.36648L9.24069 9.35381C9.52585 9.35249 9.70323 9.03204 9.56065 8.77583L9.20523 8.1371C9.0514 7.86064 8.7107 7.76592 8.44426 7.92555L8.40649 7.94816C8.14314 8.10592 7.8064 8.01229 7.65435 7.73907C7.57554 7.59742 7.55901 7.42755 7.60895 7.27242L8.17926 5.5011C8.26845 5.22408 8.5428 5.05963 8.81864 5.11781L10.5841 5.4903C10.7386 5.52287 10.8722 5.6227 10.9511 5.76441C11.1031 6.03757 11.0129 6.38686 10.7496 6.54458L10.7117 6.56728C10.4453 6.72688 10.354 7.08038 10.5078 7.35681L10.858 7.98599C11.0005 8.24223 11.3567 8.24304 11.5004 7.98747L12.8713 5.54895C12.975 5.36456 12.9144 5.12786 12.7362 5.02111L7.51806 1.89533C6.89908 1.52455 6.12537 1.98802 6.12537 2.72958Z" fill="#34C88A"/>
<path d="M19.5976 9.13567L14.3795 6.00987C14.2013 5.90315 13.9734 5.96705 13.8713 6.15241L12.5108 8.62276C12.3693 8.87965 12.5481 9.19926 12.8332 9.19926H13.7298C13.9349 9.19926 14.1012 9.02676 14.1012 8.81396V8.39008C14.1012 8.17727 14.2674 8.00477 14.4725 8.00477H14.7324C14.8388 8.00477 14.94 8.05204 15.0105 8.13461L16.3663 9.72305C16.4907 9.8688 16.4908 10.088 16.3664 10.2338L15.0105 11.8243C14.94 11.907 14.8387 11.9544 14.7323 11.9544H14.4725C14.2674 11.9544 14.1012 11.7818 14.1012 11.569V11.1452C14.1012 10.9324 13.9349 10.7598 13.7298 10.7598H12.8439C12.5587 10.7598 12.3799 11.0795 12.5214 11.3363L13.8713 13.7874C13.9734 13.9728 14.2013 14.0367 14.3795 13.93L19.5976 10.8042C20.2166 10.4334 20.2166 9.50645 19.5976 9.13567Z" fill="#34C88A"/>
<path d="M7.51546 18.0325L12.7336 14.9067C12.9118 14.8 12.9724 14.5632 12.8687 14.3788L11.487 11.9212C11.3433 11.6656 10.9872 11.6664 10.8446 11.9226L10.3963 12.7282C10.2937 12.9125 10.3546 13.1482 10.5323 13.2546L10.886 13.4665C11.0637 13.5729 11.1245 13.8086 11.022 13.9929L10.892 14.2264C10.8389 14.3219 10.7488 14.3893 10.6446 14.4113L8.64084 14.8353C8.45698 14.8742 8.274 14.7647 8.21445 14.5801L7.56485 12.5665C7.53108 12.4618 7.54219 12.3471 7.59539 12.2515L7.72528 12.0181C7.82784 11.8338 8.05498 11.7706 8.23261 11.877L8.5864 12.089C8.76403 12.1954 8.99117 12.1322 9.09372 11.9479L9.53668 11.1519C9.67926 10.8957 9.50186 10.5752 9.21672 10.5739L6.49582 10.5613C6.29005 10.5604 6.12277 10.7332 6.12276 10.9467L6.12277 17.1982C6.12277 17.9398 6.89649 18.4033 7.51546 18.0325Z" fill="#163F59"/>
</svg>
