<svg width="20" height="20" viewBox="0 0 20 20" fill="none" xmlns="http://www.w3.org/2000/svg">
<circle cx="10" cy="10" r="10" fill="white"/>
<path d="M9.99838 18C8.41627 17.9997 6.86977 17.5303 5.55443 16.6511C4.23909 15.7719 3.21396 14.5225 2.60866 13.0607C2.00336 11.599 1.84507 9.99058 2.1538 8.43888C2.46253 6.88719 3.22443 5.46187 4.34315 4.34315C5.46187 3.22443 6.88718 2.46253 8.43888 2.1538C9.99058 1.84507 11.599 2.00336 13.0607 2.60866C14.5225 3.21396 15.7719 4.23909 16.6511 5.55443C17.5302 6.86978 17.9997 8.41627 18 9.99838C18.0002 11.0492 17.7934 12.0898 17.3913 13.0607C16.9893 14.0316 16.3999 14.9138 15.6568 15.6569C14.9138 16.3999 14.0316 16.9893 13.0607 17.3913C12.0898 17.7934 11.0492 18.0002 9.99838 18ZM9.99838 17.3755C11.4571 17.3755 12.883 16.943 14.0958 16.1326C15.3087 15.3223 16.254 14.1705 16.8123 12.8229C17.3706 11.4753 17.5168 9.99237 17.2323 8.5617C16.9479 7.13103 16.2456 5.81684 15.2142 4.78529C14.1829 3.75374 12.8689 3.05116 11.4383 2.76639C10.0077 2.48162 8.52474 2.62745 7.17701 3.18544C5.82928 3.74343 4.67727 4.68851 3.86664 5.9012C3.05601 7.11389 2.62317 8.53971 2.62285 9.99838C2.625 11.9532 3.40295 13.8273 4.78586 15.209C6.16876 16.5907 8.04352 17.367 9.99838 17.3674V17.3755Z" fill="black"/>
<path d="M10.0146 10.7022C10.3943 10.7022 10.7022 10.3943 10.7022 10.0146C10.7022 9.63486 10.3943 9.32703 10.0146 9.32703C9.63486 9.32703 9.32703 9.63486 9.32703 10.0146C9.32703 10.3943 9.63486 10.7022 10.0146 10.7022Z" fill="black"/>
</svg>
