<svg width="20" height="20" viewBox="0 0 20 20" fill="none" xmlns="http://www.w3.org/2000/svg">
<circle cx="10" cy="10" r="10" fill="black"/>
<g filter="url(#filter0_f)">
<path d="M12.7979 5.09998H7.15295C6.30211 5.09998 5.83551 6.10139 6.3655 6.767C8.2887 9.18231 8.89638 10.2 9.9392 10.2C10.8112 10.2 12.3299 8.37111 13.6001 6.70238C14.0995 6.04638 13.6223 5.09998 12.7979 5.09998Z" fill="#163AB5"/>
</g>
<g filter="url(#filter1_f)">
<path d="M7.1499 17.7C7.51657 17.8333 8.6099 18.1 10.0499 18.1C11.8499 18.1 12.6499 17.75 12.6999 17.6" stroke="#FF7DEE" stroke-width="0.3" stroke-linecap="round"/>
<path d="M9.45 4C7.37 4 5 4 5 4.25C5 4.55 9.14834 4.45 9.9 4.45C10.55 4.45 14.95 4.45 14.95 4.25C14.95 4 11.53 4 9.45 4Z" stroke="#FF7DEE" stroke-width="0.3"/>
<path d="M5.1001 4.5L9.0501 9.3L9.12262 9.37252C9.2074 9.4573 9.28359 9.55024 9.3501 9.65V9.65L9.4501 9.8V9.8C9.51656 9.93293 9.56828 10.0727 9.60433 10.2169L9.6501 10.4V10.4C9.68338 10.5664 9.7035 10.7352 9.71029 10.9047L9.7501 11.9V12.55V16.25V16.4441C9.7501 16.4813 9.74643 16.5183 9.73914 16.5548V16.5548C9.71388 16.6811 9.64612 16.795 9.54715 16.8775L9.48785 16.9269C9.42966 16.9754 9.36473 17.0152 9.2951 17.045L8.7001 17.3" stroke="#FF7DEE" stroke-width="0.3" stroke-linecap="round"/>
<path d="M14.8 4.5L10.85 9.3L10.7775 9.37252C10.6927 9.4573 10.6166 9.55024 10.55 9.65V9.65L10.45 9.8V9.8C10.3836 9.93293 10.3319 10.0727 10.2958 10.2169L10.25 10.4V10.4C10.2168 10.5664 10.1966 10.7352 10.1899 10.9047L10.15 11.9V12.55V16.25V16.4441C10.15 16.4813 10.1537 16.5183 10.161 16.5548V16.5548C10.1863 16.6811 10.254 16.795 10.353 16.8775L10.4123 16.9269C10.4705 16.9754 10.5354 17.0152 10.605 17.045L11.2 17.3" stroke="#FF7DEE" stroke-width="0.3" stroke-linecap="round"/>
<path d="M9.14995 16.95C8.49995 16.9833 7.19995 17.12 7.19995 17.4C7.19995 17.68 8.39995 17.85 8.99995 17.9L10.7 17.9C11.4 17.85 12.7 17.73 12.7 17.45C12.7 17.1 10.85 16.85 10.85 16.95" stroke="#FF7DEE" stroke-width="0.3" stroke-linecap="round"/>
</g>
<path d="M7.1499 17.7C7.51657 17.8333 8.6099 18.1 10.0499 18.1C11.8499 18.1 12.6499 17.75 12.6999 17.6" stroke="#FF7DEE" stroke-width="0.3" stroke-linecap="round"/>
<path d="M9.45 4C7.37 4 5 4 5 4.25C5 4.55 9.14834 4.45 9.9 4.45C10.55 4.45 14.95 4.45 14.95 4.25C14.95 4 11.53 4 9.45 4Z" stroke="#FF7DEE" stroke-width="0.3"/>
<path d="M5.1001 4.5L9.0501 9.3L9.12262 9.37252C9.2074 9.4573 9.28359 9.55024 9.3501 9.65V9.65L9.4501 9.8V9.8C9.51656 9.93293 9.56828 10.0727 9.60433 10.2169L9.6501 10.4V10.4C9.68338 10.5664 9.7035 10.7352 9.71029 10.9047L9.7501 11.9V12.55V16.25V16.4441C9.7501 16.4813 9.74643 16.5183 9.73914 16.5548V16.5548C9.71388 16.6811 9.64612 16.795 9.54715 16.8775L9.48785 16.9269C9.42966 16.9754 9.36473 17.0152 9.2951 17.045L8.7001 17.3" stroke="#FF7DEE" stroke-width="0.3" stroke-linecap="round"/>
<path d="M14.8 4.5L10.85 9.3L10.7775 9.37252C10.6927 9.4573 10.6166 9.55024 10.55 9.65V9.65L10.45 9.8V9.8C10.3836 9.93293 10.3319 10.0727 10.2958 10.2169L10.25 10.4V10.4C10.2168 10.5664 10.1966 10.7352 10.1899 10.9047L10.15 11.9V12.55V16.25V16.4441C10.15 16.4813 10.1537 16.5183 10.161 16.5548V16.5548C10.1863 16.6811 10.254 16.795 10.353 16.8775L10.4123 16.9269C10.4705 16.9754 10.5354 17.0152 10.605 17.045L11.2 17.3" stroke="#FF7DEE" stroke-width="0.3" stroke-linecap="round"/>
<path d="M9.14995 16.95C8.49995 16.9833 7.19995 17.12 7.19995 17.4C7.19995 17.68 8.39995 17.85 8.99995 17.9L10.7 17.9C11.4 17.85 12.7 17.73 12.7 17.45C12.7 17.1 10.85 16.85 10.85 16.95" stroke="#FF7DEE" stroke-width="0.3" stroke-linecap="round"/>
<path d="M6.78564 5.70703C6.94649 5.60468 7.75949 5.39996 9.72471 5.39996C12.1812 5.39996 13.0147 5.53157 13.0147 5.66317C13.0147 5.79477 10.8214 5.8825 10.3827 5.8825C9.94405 5.8825 7.13658 5.92637 7.13658 5.66317" stroke="#32D8FF" stroke-width="0.2" stroke-linecap="round"/>
<path d="M7.00488 5.83862L9.11048 8.47062" stroke="#32D8FF" stroke-width="0.2" stroke-linecap="round"/>
<path d="M12.7955 5.92633L10.7776 8.42674" stroke="#32D8FF" stroke-width="0.2" stroke-linecap="round"/>
<path d="M9.24219 8.68994C9.47614 8.9239 10.0669 9.25144 10.5582 8.68994" stroke="#32D8FF" stroke-width="0.2" stroke-linecap="round"/>
<g filter="url(#filter2_f)">
<path d="M13 6H7C8.872 8.13043 9.2545 9 10.024 9C10.744 9 12.184 7.04348 13 6Z" fill="#34ACD3"/>
</g>
<g filter="url(#filter3_f)">
<path d="M9.6001 8.79999L13.6001 1.54999" stroke="white" stroke-width="0.15" stroke-linecap="round"/>
</g>
<path d="M9.6001 8.79999L13.6001 1.54999" stroke="#985008" stroke-width="0.1" stroke-linecap="round"/>
<g filter="url(#filter4_f)">
<path d="M13.3947 3.0441C13.1736 3.37436 12.792 3.48295 12.547 3.31891C12.302 3.15486 12.2571 2.76069 12.4783 2.43043C12.6994 2.10017 13.081 1.99158 13.326 2.15562C13.5709 2.31966 13.6159 2.71384 13.3947 3.0441Z" stroke="#38FB15" stroke-width="0.1"/>
</g>
<path d="M13.3945 3.0441C13.1733 3.37436 12.7917 3.48295 12.5468 3.31891C12.3018 3.15486 12.2569 2.76069 12.478 2.43043C12.6992 2.10017 13.0807 1.99158 13.3257 2.15562C13.5707 2.31966 13.6156 2.71384 13.3945 3.0441Z" stroke="#38FB15" stroke-width="0.1"/>
<path d="M12.8291 2.30244C12.7506 2.27087 12.6437 2.55234 12.6001 2.69703C12.6263 2.7286 12.8073 2.49973 12.8946 2.38135C12.9055 2.3682 12.9077 2.334 12.8291 2.30244Z" stroke="white" stroke-width="0.05" stroke-linecap="round"/>
<defs>
<filter id="filter0_f" x="4.14087" y="3.09998" width="11.6628" height="9.1" filterUnits="userSpaceOnUse" color-interpolation-filters="sRGB">
<feFlood flood-opacity="0" result="BackgroundImageFix"/>
<feBlend mode="normal" in="SourceGraphic" in2="BackgroundImageFix" result="shape"/>
<feGaussianBlur stdDeviation="1" result="effect1_foregroundBlur"/>
</filter>
<filter id="filter1_f" x="4.3501" y="3.34998" width="11.25" height="15.4" filterUnits="userSpaceOnUse" color-interpolation-filters="sRGB">
<feFlood flood-opacity="0" result="BackgroundImageFix"/>
<feBlend mode="normal" in="SourceGraphic" in2="BackgroundImageFix" result="shape"/>
<feGaussianBlur stdDeviation="0.25" result="effect1_foregroundBlur"/>
</filter>
<filter id="filter2_f" x="6" y="5" width="8" height="5" filterUnits="userSpaceOnUse" color-interpolation-filters="sRGB">
<feFlood flood-opacity="0" result="BackgroundImageFix"/>
<feBlend mode="normal" in="SourceGraphic" in2="BackgroundImageFix" result="shape"/>
<feGaussianBlur stdDeviation="0.5" result="effect1_foregroundBlur"/>
</filter>
<filter id="filter3_f" x="9.42515" y="1.37498" width="4.35003" height="7.60003" filterUnits="userSpaceOnUse" color-interpolation-filters="sRGB">
<feFlood flood-opacity="0" result="BackgroundImageFix"/>
<feBlend mode="normal" in="SourceGraphic" in2="BackgroundImageFix" result="shape"/>
<feGaussianBlur stdDeviation="0.05" result="effect1_foregroundBlur"/>
</filter>
<filter id="filter4_f" x="12.1854" y="1.92979" width="1.5022" height="1.615" filterUnits="userSpaceOnUse" color-interpolation-filters="sRGB">
<feFlood flood-opacity="0" result="BackgroundImageFix"/>
<feBlend mode="normal" in="SourceGraphic" in2="BackgroundImageFix" result="shape"/>
<feGaussianBlur stdDeviation="0.05" result="effect1_foregroundBlur"/>
</filter>
</defs>
</svg>
