<svg width="20" height="20" viewBox="0 0 20 20" fill="none" xmlns="http://www.w3.org/2000/svg">
<path d="M8.78616 7.10907C8.52697 7.10907 8.27836 7.21201 8.09507 7.3953C7.91178 7.57859 7.80884 7.8272 7.80884 8.08639C7.80884 8.09745 7.80884 8.1079 7.80884 8.11896V18.0227C7.80884 18.2819 7.91178 18.5305 8.09507 18.7137C8.27836 18.897 8.52697 19 8.78616 19C9.04539 19 9.29395 18.897 9.47725 18.7137C9.66054 18.5305 9.76352 18.2819 9.76352 18.0227V8.11896C9.76352 8.1079 9.76352 8.09745 9.76352 8.08639C9.76352 7.8272 9.66054 7.57859 9.47725 7.3953C9.29395 7.21201 9.04539 7.10907 8.78616 7.10907Z" fill="#4564FD"/>
<path d="M11.9462 18.153C12.486 18.153 12.9236 17.7154 12.9236 17.1756C12.9236 16.6359 12.486 16.1983 11.9462 16.1983C11.4065 16.1983 10.9689 16.6359 10.9689 17.1756C10.9689 17.7154 11.4065 18.153 11.9462 18.153Z" fill="#4564FD"/>
<path d="M10.9689 6.47378V11.4257C10.9889 11.6702 11.1002 11.8983 11.2807 12.0646C11.4611 12.2309 11.6976 12.3233 11.943 12.3233C12.1883 12.3233 12.4248 12.2309 12.6052 12.0646C12.7857 11.8983 12.897 11.6702 12.917 11.4257H12.9203V6.47378C12.9203 6.21459 12.8173 5.96598 12.634 5.78269C12.4508 5.5994 12.2021 5.49646 11.943 5.49646C11.6838 5.49646 11.4352 5.5994 11.2519 5.78269C11.0686 5.96598 10.9656 6.21459 10.9656 6.47378H10.9689Z" fill="#4564FD"/>
<path d="M16.1937 3.99783C15.5393 3.10031 14.6885 2.36405 13.7064 1.84515C12.7242 1.32625 11.6366 1.03842 10.5263 1.00359C9.41604 0.968757 8.31247 1.18785 7.29971 1.64416C6.28696 2.10047 5.39174 2.78196 4.68229 3.63669C3.97283 4.49142 3.46787 5.49682 3.20588 6.57631C2.94389 7.65576 2.93178 8.7808 3.17049 9.86565C3.4092 10.9505 3.89242 11.9666 4.58332 12.8363C5.27422 13.7061 6.15457 14.4067 7.15727 14.8847V12.6167C6.53288 12.1637 6.01397 11.5809 5.63621 10.9084C5.25845 10.2359 5.0308 9.4895 4.9689 8.72063C4.907 7.95176 5.01233 7.1786 5.27763 6.4543C5.54294 5.72996 5.96194 5.07171 6.50584 4.52472C7.04973 3.97774 7.70559 3.55501 8.42839 3.2856C9.1512 3.01618 9.92375 2.90647 10.693 2.96401C11.4622 3.02155 12.2098 3.24496 12.8845 3.6189C13.5592 3.99284 14.1448 4.50843 14.6013 5.13024C14.6742 5.23855 14.7679 5.33119 14.8771 5.40267C14.9863 5.47415 15.1087 5.52305 15.2371 5.54645C15.3655 5.56985 15.4972 5.56732 15.6247 5.53899C15.7521 5.51067 15.8725 5.4571 15.9788 5.38146C16.0852 5.30582 16.1753 5.20965 16.2439 5.09862C16.3125 4.98759 16.3582 4.86395 16.3782 4.73499C16.3982 4.60602 16.3922 4.47436 16.3605 4.34775C16.3289 4.22114 16.2722 4.10216 16.1937 3.99783Z" fill="#4564FD"/>
<path d="M16.1162 12.3541C16.116 12.1455 16.0491 11.9424 15.9252 11.7746C15.8013 11.6068 15.627 11.483 15.4278 11.4214C15.2285 11.3597 15.0148 11.3634 14.8178 11.4319C14.6208 11.5005 14.4508 11.6302 14.3329 11.8022C13.8447 12.3656 13.2438 12.8203 12.5689 13.137C11.8941 13.4537 11.1603 13.6253 10.415 13.6409V15.5956C11.4606 15.5804 12.4906 15.3403 13.435 14.8915C14.3795 14.4427 15.2161 13.7957 15.8882 12.9946L15.8829 12.99C16.0343 12.8128 16.1171 12.5872 16.1162 12.3541Z" fill="#4564FD"/>
</svg>
