<svg width="36" height="36" viewBox="0 0 36 36" fill="none" xmlns="http://www.w3.org/2000/svg">
<path d="M15.5977 13.8003C14.7577 13.8003 13.9177 14.0403 13.2577 14.5203C12.5977 15.0003 11.9977 15.6603 11.6977 16.4403C11.3377 17.1603 11.2777 18.0003 11.4577 18.8403C11.6377 19.6803 11.9977 20.4003 12.5977 21.0003C13.1977 21.6003 13.9177 22.0203 14.7577 22.1403C15.5977 22.3203 16.4377 22.2003 17.2177 21.9003C17.9977 21.6003 18.6577 21.0603 19.1377 20.3403C19.6177 19.6203 19.8577 18.8403 19.8577 18.0003C19.8577 16.8603 19.4377 15.7803 18.5977 15.0003C17.7577 14.2203 16.6777 13.8003 15.5977 13.8003Z" fill="#25D695"/>
<path d="M15.6016 1.08032C13.3816 1.08032 11.1616 1.50032 9.12156 2.34032C7.08156 3.18032 5.22156 4.44032 3.66156 6.00032L9.66156 12.0003C10.8616 10.8003 12.3616 10.0203 13.9816 9.66032C15.6016 9.36032 17.3416 9.48032 18.8416 10.1403C20.4016 10.8003 21.7216 11.8803 22.6216 13.2603C23.5216 14.6403 24.0616 16.2603 24.0616 17.9403C24.0616 19.6203 23.5816 21.2403 22.6216 22.6203C21.7216 24.0003 20.3416 25.0803 18.8416 25.7403C17.2816 26.4003 15.6016 26.5203 13.9816 26.2203C12.3016 25.9803 10.8016 25.1403 9.60156 24.0003L3.60156 30.0003C5.58156 31.9803 7.98156 33.4203 10.6216 34.2003C13.2616 34.9803 16.0816 35.1603 18.8416 34.6203C21.5416 34.0803 24.1216 32.8803 26.2816 31.0803C28.4416 29.3403 30.1216 27.0603 31.2016 24.4803C32.2816 21.9003 32.7016 19.1403 32.4016 16.3803C32.1016 13.6203 31.2016 10.9803 29.6416 8.64032C28.0816 6.30032 25.9816 4.44032 23.5816 3.12032C21.1216 1.80032 18.3616 1.08032 15.6016 1.08032Z" fill="#25D695"/>
</svg>
