<svg width="20" height="20" fill="none" xmlns="http://www.w3.org/2000/svg"><circle cx="10" cy="10" r="10" fill="#fff"/><path d="M16.15 14.382a.806.806 0 0 0-.787.636l-3.04-.144a.883.883 0 0 0 .017-.174c0-.104-.017-.208-.046-.313l1.106-.637a.823.823 0 0 0 1.117.151.815.815 0 0 0 .209-1.106.822.822 0 0 0-1.095-.266.816.816 0 0 0-.324 1.077l-1.071.62a1.118 1.118 0 0 0-2.067.85l-1.992.481a1.108 1.108 0 0 0-.319-.724l.36-.498a.811.811 0 1 0-.163-.075l-.33.457a1.138 1.138 0 0 0-.816-.214l-.342-1.951a1.114 1.114 0 0 0 .434-1.98 1.113 1.113 0 0 0-1.198-.099L4.94 8.788a1.13 1.13 0 0 0 .446-.411l.718.191c-.006.04-.012.075-.012.116 0 .417.319.77.736.81.417.041.799-.243.874-.66a.805.805 0 0 0-.579-.926.809.809 0 0 0-.979.492l-.677-.18a1.1 1.1 0 0 0 .052-.694l1.998-.92c.37.462 1.042.56 1.528.213a1.112 1.112 0 0 0 .29-1.511l1.274-1.245c.156.099.336.162.515.174v.55a.808.808 0 0 0 .087 1.61.807.807 0 0 0 .087-1.61v-.55c.162-.012.313-.058.451-.133l1.396 1.592a1.126 1.126 0 0 0 .052 1.424 1.124 1.124 0 0 0 1.893-1.13l.435-.242a.804.804 0 0 0 1.1.122.802.802 0 0 0-.892-1.332.809.809 0 0 0-.3 1.065l-.412.232a1.116 1.116 0 0 0-1.754-.266L11.9 4.01c.133-.104.243-.243.319-.394l1.198.197a.797.797 0 0 0 .915.614.802.802 0 0 0 .666-.88.807.807 0 0 0-.84-.718.806.806 0 0 0-.764.799l-1.112-.185a1.127 1.127 0 0 0-.602-1.338 1.116 1.116 0 0 0-1.407.4 1.118 1.118 0 0 0 .191 1.453l-1.24 1.21a1.12 1.12 0 0 0-.752-.382v-.845a.808.808 0 0 0 .718-.846.797.797 0 0 0-.799-.758.807.807 0 0 0-.087 1.61v.839a1.125 1.125 0 0 0-.903.59c-.18.342-.174.747.017 1.083l-1.945.892a1.11 1.11 0 0 0-.319-.428l.759-1.367c.07.017.133.029.202.029a.813.813 0 0 0 .805-.712.806.806 0 0 0-.608-.88.807.807 0 0 0-.567 1.5L5.01 6.824a1.12 1.12 0 0 0-1.523 1.552c.272.44.804.637 1.297.48l.874 1.709c-.22.162-.376.405-.428.671l-.637-.185a.803.803 0 0 0-.689-.996.81.81 0 0 0-.88.614c-.099.4.121.805.509.944a.808.808 0 0 0 .996-.394l.677.197v.052c0 .382.191.735.516.938l-.435.568a.802.802 0 0 0-1.106.04.801.801 0 0 0-.023 1.106c.29.319.77.353 1.106.081a.807.807 0 0 0 .145-1.1l.47-.614c.138.064.294.093.45.093.024 0 .047 0 .07-.006l.348 1.963a1.135 1.135 0 0 0-.805 1.042 1.118 1.118 0 0 0 2.009.707l1.621.723a.953.953 0 0 0-.023.18.809.809 0 0 0 1.598.185.811.811 0 0 0-.52-.944.806.806 0 0 0-.997.412l-1.58-.707c.069-.127.115-.266.127-.411l2.061-.504c.157.29.434.492.759.562.324.064.66-.018.915-.22l.77.666a.806.806 0 0 0 .359 1.054.805.805 0 0 0 1.071-.302.81.81 0 0 0-1.338-.91l-.735-.63c.11-.116.191-.26.243-.41l3.063.15c.006.446.365.799.811.799a.798.798 0 1 0-.006-1.598Z" fill="#FF473E"/></svg>
