<svg width="20" height="20" fill="none" xmlns="http://www.w3.org/2000/svg"><path d="M3.24 5c.552-.181 1.129-.28 1.703-.355.513-.066.995-.225 1.495-.344.41-.097.802-.253 1.215-.344.549-.12 1.117-.197 1.672-.287.68-.112 1.413-.067 2.095-.004.23.022.523-.04.744.022.123.036.271.074.398.085.25.023.496.11.743.154.187.032.414.028.592.092.233.082.453.203.676.32.362.19.716.405 1.067.616.123.074.352.175.424.305.035.062-.414.149-.461.161-.362.095-.727.135-1.097.19-.739.112-1.494.004-2.233.1-.278.035-.524.11-.791.177a6.843 6.843 0 0 1-1.638.214c-.54 0-1.075.123-1.619.123-.18 0-.337.076-.51.09-.235.02-.472.043-.705.07-.39.044-.772.112-1.165.148-.494.045-.983.135-1.477.196-.56.068-1.108.129-1.658.255-.326.075-.442.397-.63.633-.168.21-.459.44-.521.719-.03.135.46.055.526.047.482-.058.967-.08 1.452-.075.15.002.3.039.45.024.144-.014.286-.067.433-.053.321.031.632.18.911.329.299.16.697.231 1.015.337.35.117.646.221 1.014.221.402 0 .801.037 1.202.055.449.02.979.07 1.415-.07.256-.083.543-.112.81-.153.483-.075 1.008-.165 1.435-.414.176-.103.338-.211.504-.33.223-.16.529-.218.786-.307.349-.12.692-.274 1.042-.398.133-.047.273-.07.407-.114.133-.044.267-.13.4-.14.397-.025.718-.164 1.105-.013.203.08.395.276.55.43.22.222.491.572.503.896.016.414-.574.346-.85.344-.47-.003-.948-.171-1.412-.136-.364.027-.72.182-1.066.286-.34.102-.664.241-1.002.347-.577.18-1.156.284-1.743.415-.56.125-1.13.247-1.696.346-.601.104-1.195.304-1.81.304-.682 0-1.361-.087-2.047-.06-.404.017-.894.173-1.27.312-.443.165-.93.249-1.352.46-.202.101-.502.3-.735.3-.162 0-.347.12-.497.175-.11.04.02.1.075.131.386.22.826.276 1.263.276.455 0 .902.092 1.358.092H5.94c.29 0 .574.051.863.061.355.012.704.144 1.03.274.351.14.723.233 1.098.284.686.095 1.421.245 2.11.1.321-.069.637-.18.96-.229.39-.059.792-.049 1.18-.109.349-.054.69-.205 1.02-.32.222-.078.459-.122.669-.23.14-.072.273-.158.414-.23.34-.172.698-.337 1.059-.46.201-.068.544-.168.76-.12.1.022.133.067.157-.08.033-.205.032-.516.138-.701.026-.045.12.084.13.112.062.189.026.4-.045.579-.216.539-.374 1.128-.899 1.454-.322.2-.567.512-.914.677-.655.31-1.321.58-1.983.871-.676.298-1.328.616-2.067.733-.381.06-.775.154-1.162.107-.662-.08-1.339-.162-2.007-.169-.616-.006-1.206-.03-1.818.038-.578.064-1.23.19-1.805.085-.654-.12-1.302-.157-1.923-.405-.14-.056-.314-.064-.422-.184a1.988 1.988 0 0 1-.266-.422c-.013-.026-.06-.177-.04-.16.195.176.416.35.598.54.109.112.214.229.319.345.24.264.561.502.74.813.105.183.123.39.295.528.102.083.217.154.332.218.278.156.643.26.95.35.392.117.824.285 1.232.331.528.06 1.057.168 1.588.189.325.012.685.023 1 .109.69.189 1.471.51 2.192.291.441-.134.925-.217 1.382-.293.306-.05.612-.131.882-.29.138-.08.248-.195.391-.265.225-.108.444-.285.65-.425.11-.075.193-.226.28-.327.13-.15.268-.285.41-.422.235-.228.435-.525.625-.79.1-.139.24-.291.313-.436" stroke="#4FADD0" stroke-width="2" stroke-linecap="round"/><path fill-rule="evenodd" clip-rule="evenodd" d="M8.916 1.807c-2.883.259-5.012 1.528-6.54 3.898-.989 1.534-1.34 2.868-1.265 4.798.06 1.516.387 2.677 1.113 3.937.547.95 1.862 2.312 2.74 2.838 1.755 1.05 3.58 1.411 5.714 1.13 2.039-.268 3.065-.626 4.246-1.48 2.438-1.76 3.72-4.438 3.554-7.42-.166-2.974-1.863-5.626-4.424-6.914-1.521-.765-2.947-.983-5.138-.787Zm2.213.69c2.87.696 4.937 2.784 5.675 5.73 1.002 4-1.235 8.114-5.126 9.432-2.727.923-5.814.16-7.893-1.951C2.286 14.185 1.54 12.32 1.55 10.13c.006-1.368.216-2.268.842-3.605.902-1.93 2.78-3.452 4.96-4.02 1.014-.265 2.707-.268 3.778-.008Zm2.582.45c.243.13.39.24.329.243-.062.002-.304-.107-.539-.242-.545-.316-.371-.317.21-.002Zm-5.433.24c-3.588.581-5.927 3.38-5.916 7.076.003.926.098 1.425.45 2.37.774 2.072 2.572 3.707 4.734 4.306.963.266 2.578.24 3.523-.057 2.66-.836 4.486-2.834 4.944-5.412.47-2.64-.372-5.07-2.344-6.771-.589-.508-1.83-1.145-2.649-1.36-.709-.186-2.068-.262-2.742-.153Zm2.338.551c2.146.46 4.024 2.18 4.77 4.366.202.594.234.872.234 2.026 0 1.14-.034 1.435-.226 2-.37 1.082-.793 1.77-1.587 2.58-.63.641-.912.843-1.768 1.262-.56.275-1.256.544-1.546.598-2.767.521-5.805-.958-7-3.408-.504-1.034-.681-1.821-.684-3.032-.003-1.2.215-2.072.807-3.22.79-1.534 2.551-2.86 4.273-3.217.638-.132 2.006-.11 2.727.045Zm4.444.007c.12.085.217.196.217.247 0 .172-.28.096-.557-.15-.248-.222-.256-.246-.076-.248a.85.85 0 0 1 .416.15Zm1 .985.23.248h-.23c-.228 0-.587-.252-.587-.412 0-.176.367-.073.587.164Zm-7.204.741a.56.56 0 0 0-.277.266c-.117.302-.175 1.938-.083 2.358.11.505.552.8 1.056.704.306-.058.352-.112.49-.58.116-.392.138-.743.09-1.458-.077-1.15-.199-1.39-.704-1.38-.2.003-.458.044-.572.09Zm8.183.598c0 .054-.111.098-.246.098-.173 0-.304-.096-.44-.322-.18-.3-.181-.325-.022-.388.117-.046.253.023.439.224.148.16.269.334.269.388Zm-7.432-.175c.066.263.154 1.795.118 2.029-.057.36-.303.493-.61.326-.181-.098-.199-.202-.199-1.178 0-.588.03-1.1.066-1.135.06-.062.611-.098.625-.042Zm7.877 1.112c.186.45.186.449-.132.449-.221 0-.296-.063-.391-.33-.16-.445-.154-.463.132-.463.192 0 .282.079.391.344Zm-11.968.217c-.068.028-.123.136-.123.24 0 .151.07.19.343.19h.342v1.288c0 1.072.025 1.288.145 1.288.195 0 .243-.26.272-1.486.022-.983.035-1.042.236-1.071.218-.032.368-.266.272-.424-.057-.093-1.27-.113-1.487-.025Zm6.393.317c-.117.192-.157 1.212-.085 2.144.06.78.108.991.224.991.111 0 .158-.164.196-.686.064-.91.217-.94.582-.116.216.487.327.636.44.592.223-.086.19-.262-.193-1.047l-.345-.707.247-.378c.541-.828.178-.927-.389-.107l-.391.566-.03-.668c-.026-.608-.116-.813-.256-.584Zm5.951.567c.11.291.06.614-.105.678-.212.083-.383-.109-.457-.513-.055-.302-.041-.322.222-.322.166 0 .305.064.34.157Zm.194 1.441c.104.524.08.582-.232.582-.24 0-.294-.042-.295-.223-.001-.122-.028-.323-.06-.446-.052-.195-.023-.223.233-.223.25 0 .302.046.354.31Zm-.056 1.548c-.027.431-.052.473-.299.502-.257.03-.269.013-.269-.405 0-.5.043-.567.364-.567.218 0 .232.032.204.47Zm-10.872.483c-.089.09-.08 2.34.012 2.861l.069.397h.634c.5 0 .635-.032.635-.149 0-.107-.13-.157-.465-.179l-.465-.03v-1.08h.399c.327 0 .393-.03.366-.172-.022-.12-.142-.183-.387-.204-.31-.026-.363-.07-.416-.335-.143-.727-.114-.774.486-.774.466 0 .54-.025.513-.174-.027-.14-.155-.179-.672-.202-.352-.016-.67.003-.709.041Zm4.118 1.152-.028 1.115-.253-.446a6.135 6.135 0 0 1-.366-.768c-.288-.81-.343-.917-.47-.917-.108 0-.134.305-.134 1.586 0 1.508.01 1.585.192 1.585.172 0 .194-.081.22-.802l.028-.803.343.604c.33.582.573.786.782.655.108-.068.137-2.107.037-2.614-.033-.17-.12-.31-.192-.31-.1 0-.138.262-.16 1.115Zm6.519-.636c.027.046 0 .246-.06.446-.092.303-.154.363-.38.363-.263 0-.266-.007-.168-.371.055-.204.12-.405.145-.446.06-.1.4-.095.463.008Zm-.43 1.301c0 .053-.075.254-.165.446-.12.252-.23.35-.392.35-.277 0-.286-.148-.032-.57.18-.3.588-.456.588-.226Zm-.784 1.295c0 .21-.322.591-.5.591-.234 0-.231-.051.018-.405.197-.281.482-.39.482-.186Zm-.884 1.141c-.2.244-.687.568-.753.5-.1-.1.484-.653.69-.653.159 0 .169.024.063.153Zm-1.268.976c0 .021-.069.065-.152.098-.087.034-.127.017-.092-.04.057-.093.243-.139.243-.058Z" fill="#000"/></svg>
