<svg width="20" height="20" fill="none" xmlns="http://www.w3.org/2000/svg"><g clip-path="url(#a)"><path d="M12.538 3.9h-1.289v2.103h1.289V3.9ZM8.84 0H7.552v2.103H8.84V0Z" fill="#1682FE"/><path d="M5.143 2.006H3.855v2.103h1.288V2.006Z" fill="#60D8A4"/><path d="M3.301 10H2v6.003h1.301V10Z" fill="#F4BB3B"/><path d="M3.301 3.997H2V10h1.301V3.997Z" fill="#60D8A4"/><path d="M14.38 5.905h-1.288v2.103h1.288V5.905Z" fill="#1682FE"/><path d="M14.38 11.992h-1.288v2.103h1.288v-2.103ZM12.538 13.997h-1.289V16.1h1.289v-2.103ZM8.84 17.897H7.552V20H8.84v-2.103Z" fill="#FF5A5A"/><path d="M5.143 15.891H3.855v2.103h1.288v-2.103Z" fill="#F4BB3B"/><path d="M18 7.994V3.997h-1.855V2.006h-3.697V0H8.75v2.006H5.053V4.01H3.198v11.992h1.855v2.005h3.698v2.006h3.697v-2.006h3.697v-2.005H18v-4.011h-3.697v2.005h-1.855v2.006H8.75v-2.006H6.908V6.003h1.855V3.997h3.698v2.006h1.855v2.005H18v-.014Z" fill="#3A3A3A"/></g><defs><clipPath id="a"><path fill="#fff" transform="translate(2)" d="M0 0h16v20H0z"/></clipPath></defs></svg>
