<svg width="20" height="20" viewBox="0 0 20 20" fill="none" xmlns="http://www.w3.org/2000/svg">
<circle cx="10" cy="10" r="8" fill="white"/>
<path fill-rule="evenodd" clip-rule="evenodd" d="M8.95585 0.0139493C8.34213 0.107536 7.64855 0.248698 7.26739 0.357496C4.55967 1.13085 2.32459 2.9942 1.04642 5.54382C-0.384203 8.39761 -0.345744 11.8417 1.14848 14.683C2.53958 17.3283 4.97015 19.1656 7.98655 19.8522C8.60253 19.9925 10.8119 20.0517 11.485 19.9461C13.5747 19.6182 15.4348 18.7053 16.9328 17.2727C18.4638 15.8086 19.5011 13.8952 19.8671 11.8606C20.0449 10.8719 20.0442 9.17053 19.8655 8.17094C19.2268 4.59719 16.5439 1.54301 13.0832 0.449894C12.0981 0.13871 11.4063 0.0299748 10.2691 0.00756416C9.65 -0.00464277 9.05904 -0.00176319 8.95585 0.0139493ZM11.0508 4.97209C11.0508 5.00051 10.9804 5.23076 10.8945 5.48385C10.8085 5.73694 10.7381 5.96718 10.7381 5.9956C10.7381 6.02402 11.0142 6.04724 11.3517 6.04724H11.9653L12.1452 5.48385L12.325 4.92045H12.9699C13.7218 4.92045 13.7017 4.89303 13.4634 5.59427L13.3121 6.03961L14.9286 6.05908C16.4472 6.07735 16.5555 6.08637 16.7176 6.20762C17.2997 6.64307 17.2923 6.8683 16.6271 8.95813C16.3422 9.8533 15.9823 10.9942 15.8273 11.4934C15.6723 11.9926 15.5188 12.4837 15.4862 12.5846C15.3103 13.129 14.8998 13.5653 14.3233 13.8209C14.0413 13.9459 13.9135 13.9551 12.3982 13.9604L10.7752 13.9661L10.616 14.4693C10.5284 14.746 10.4339 15.0066 10.4061 15.0483C10.3338 15.1568 9.18204 15.1535 9.14033 15.0447C9.12357 15.001 9.18073 14.7566 9.26734 14.5016C9.35402 14.2467 9.42487 14.0138 9.42487 13.9842C9.42487 13.9545 9.15053 13.9383 8.81515 13.9482L8.20543 13.9661L8.01094 14.5295L7.81645 15.0929L7.20348 15.1109C6.86635 15.1209 6.57018 15.1068 6.54536 15.0796C6.52053 15.0525 6.57794 14.7838 6.67299 14.4826L6.84584 13.9348H4.84558C3.27137 13.9348 2.85151 13.9182 2.87459 13.8566C2.89078 13.8135 3.17745 12.905 3.51163 11.8377C4.3815 9.06004 4.41165 8.96439 4.64684 8.23811C4.76397 7.87653 4.85953 7.55258 4.85927 7.51821C4.85896 7.48384 4.6479 7.16102 4.39026 6.80082C4.13255 6.44056 3.92174 6.12393 3.92174 6.0972C3.92174 6.07047 5.15063 6.04123 6.65261 6.03228L9.38347 6.01594L9.53193 5.54645C9.6136 5.28822 9.6924 5.04177 9.70703 4.9987C9.73748 4.90918 11.0508 4.88314 11.0508 4.97209ZM8.05246 8.64457C7.9474 8.97278 7.86148 9.2551 7.86148 9.27188C7.86148 9.28866 8.23969 9.30243 8.70202 9.30243C9.17629 9.30243 9.55888 9.32884 9.57996 9.36302C9.60053 9.39633 9.52987 9.70544 9.42299 10.0499L9.22857 10.6763L8.31655 10.6936L7.4046 10.7109L7.22781 11.2743C7.13063 11.5842 7.05046 11.8589 7.04977 11.8847C7.04908 11.9105 8.15302 11.9315 9.50304 11.9313L11.9576 11.931L12.1232 11.3836C12.2143 11.0824 12.4745 10.2391 12.7016 9.50938C12.9287 8.77972 13.1145 8.15416 13.1145 8.11929C13.1145 8.07773 12.2779 8.05456 10.679 8.05187L8.24338 8.0478L8.05246 8.64457Z" fill="#057BFF"/>
</svg>
