<svg width="100" height="100" viewBox="0 0 100 100" fill="none" xmlns="http://www.w3.org/2000/svg">
<path d="M69.5 40.6L58 60.6L54.2999 54.2L61.4 40.6H27.2L50.0999 80L58.0999 66.2L60.0999 62.8L73 40.6H69.5ZM57.7 43L52.7999 51.5L47.7999 43H57.7ZM50.0999 74.2L31.9 43H44.5999L56.4 63.3L50.0999 74.2Z" fill="#DC724C"/>
<path d="M68.6 9.09998H31.3L75.1 37.1L68.6 9.09998Z" fill="#DC724C"/>
<path d="M24.8 37.2H75.1L31.3 9.09998L24.8 37.2Z" fill="#DC724C"/>
<path d="M79.5 92.1999L98.1 59.7999L51.9 83.6999L79.5 92.1999Z" fill="#DC724C"/>
<path d="M77.1 40.2L51.9 83.6999L98.1 59.7999L77.1 40.2Z" fill="#DC724C"/>
<path d="M20.7 92.1999L2 59.7999L48.2 83.6999L20.7 92.1999Z" fill="#DC724C"/>
<path d="M23.1 40.2L48.2 83.6999L2 59.7999L23.1 40.2Z" fill="#DC724C"/>
</svg>
