<svg width="18" height="18" viewBox="0 0 18 18" fill="none" xmlns="http://www.w3.org/2000/svg">
<path d="M14.67 1.79999H2.43C2.02436 1.80045 1.63547 1.96233 1.34863 2.25012C1.0618 2.53791 0.900459 2.92811 0.900002 3.3351V11.9318C0.900459 12.3388 1.0618 12.729 1.34863 13.0167C1.63547 13.3045 2.02436 13.4664 2.43 13.4669H8.244V15.5859H6.102C6.02085 15.5859 5.94301 15.6183 5.88563 15.6759C5.82824 15.7334 5.796 15.8115 5.796 15.893C5.796 15.9744 5.82824 16.0525 5.88563 16.1101C5.94301 16.1676 6.02085 16.2 6.102 16.2H10.998C11.0792 16.2 11.157 16.1676 11.2144 16.1101C11.2718 16.0525 11.304 15.9744 11.304 15.893C11.304 15.8115 11.2718 15.7334 11.2144 15.6759C11.157 15.6183 11.0792 15.5859 10.998 15.5859H8.856V13.4669H14.67C15.0756 13.4664 15.4645 13.3045 15.7514 13.0167C16.0382 12.729 16.1995 12.3388 16.2 11.9318V3.3351C16.1995 2.92811 16.0382 2.53791 15.7514 2.25012C15.4645 1.96233 15.0756 1.80045 14.67 1.79999ZM2.43 2.41403H14.67C14.9134 2.41431 15.1467 2.51144 15.3188 2.68411C15.4909 2.85679 15.5877 3.09091 15.588 3.3351V9.78259H1.512V3.3351C1.51227 3.09091 1.60908 2.85679 1.78118 2.68411C1.95328 2.51144 2.18662 2.41431 2.43 2.41403ZM14.67 12.8528H2.43C2.18662 12.8526 1.95328 12.7554 1.78118 12.5828C1.60908 12.4101 1.51227 12.176 1.512 11.9318V10.3966H15.588V11.9318C15.5877 12.176 15.4909 12.4101 15.3188 12.5828C15.1467 12.7554 14.9134 12.8526 14.67 12.8528Z" fill="#363636"/>
</svg>
