<svg width="100" height="100" viewBox="0 0 100 100" fill="none" xmlns="http://www.w3.org/2000/svg">
<path d="M90 42.0952C90 45.4286 89.5239 48.7619 89.0477 52.0952C84.7619 74.9524 71.6667 86.381 49.762 86.381H35.9524V86.1429L39.2858 70.4286H48.8096C60.7143 70.4286 67.8572 63.7619 70.2381 50.1905C70.4762 49.2381 70.4762 48.5238 70.7143 47.5714L89.7619 36.619C89.7619 38.2857 90 40.1905 90 42.0952ZM83.0953 22.3333L66.1905 32.0952C63.3334 30.4286 60 29.4762 56.4286 29.7143H28.8096V29.2381L32.1429 14H60.7143C64.2858 14 68.0953 14.4762 71.4286 15.4286C75.4762 16.619 79.2858 18.5238 82.1429 21.381C82.6191 21.619 82.8572 21.8571 83.0953 22.3333Z" fill="white"/>
<path d="M55.9524 43.2857L53.3333 59H41.6667L35.9524 85.9048V86.1428H10L19.7619 73.0476L26.1905 43.2857H55.9524Z" fill="#00D0C4"/>
</svg>
