<svg fill="none" height="20" viewBox="0 0 20 20" width="20" xmlns="http://www.w3.org/2000/svg"><circle cx="10" cy="10" fill="#30239d" r="10" transform="matrix(0 1 -1 0 20 0)"/><path clip-rule="evenodd" d="m8.06064 2.7887h.0586c2.99596 0 5.83916 1.21053 7.06476 3.05526l.0006.00088c.6713 1.01973.9394 2.1766 1.042 3.08534.0515.45597.0618.85356.0592 1.14622-.0013.1465-.0058.2667-.01.3548-.0018.0393-.0036.0723-.005.0976l-.0005.0085c-.0016.029-.002.0394-.002.0394 0 .4429-.0397 1.0649-.1688 1.5164-.4862 1.9643-1.9602 3.4481-4.2187 4.3246-.8416.3459-1.6552.5436-2.25757.6551-.30188.0558-.55177.0901-.72695.1106-.08762.0102-.15663.017-.20419.0212-.02378.0021-.04221.0036-.05493.0046l-.01476.0011-.00408.0002-.00121.0001s-.00063.0001-.01463-.2172l.01463.2172-.00867.0006h-.09983l-2.60685-1.1263-.1376-.2275v-11.43518l.08779-.21773 2.10324-1.36349zm-.44672 13.2611c.99898-.1284 1.95325-.3772 2.79308-.722 1.1138-.4572 2.0458-1.0914 2.604-1.857.597-.7838.8262-1.7255.9094-2.4227.0429-.2797.0424-.5548.0222-.8398-.0011-.0507-.0093-.096-.014-.1217-.0008-.0041-.0014-.0076-.002-.0108-.0018-.0097-.0029-.0155-.0038-.0213l-.0002-.0011v-.013l-.0029-.0189c-.1845-1.19506-.8936-1.95193-1.6655-2.43608-.7119-.44657-1.49-.66952-1.9804-.80197v-.78706c1.2025.11737 2.4378.41524 3.4044 1.05011 1.0245.6729 1.7628 1.73341 1.8297 3.4208l.0001.0021c.0195.4077-.0016 1.0345-.1124 1.4559l-.0009.0035c-.5322 2.1497-2.3226 3.2791-3.7774 3.8447l-.0016.0006c-1.3585.5391-2.6354.6797-2.97594.7133zm1.95943-2.7702v-7.79288l.28798-.23808.09965.00693c2.34442.16295 4.09352.86423 5.14632 2.09656-.137-.38124-.3142-.76078-.542-1.11484-.5065-.78138-1.3974-1.46043-2.5208-1.94741-1.052-.45605-2.2928-.73677-3.57502-.77751v9.79823c.3915.0273.70597.0147 1.10387-.031zm-3.10871 2.1343c1.28259-.037 2.49778-.2848 3.52086-.6845 1.0182-.3977 1.8304-.9393 2.3361-1.5571-.5038.3021-1.076.515-1.6558.6534-.89327.2131-1.82523.2547-2.59656.1616l-.10087-.0122-.19937-.2472v-9.91017l-1.30436.84829zm3.80916-7.9387c.4492.12328 1.0342.31125 1.569.63948.6544.4017 1.2163 1.00231 1.3623 1.94342l.006.039.0111.0219v.054l.0015.0139c.0173.1543.0184.4479-.0185.7471-.0901.4382-.3023.8096-.6496 1.1545-.5506.5289-1.4055.8927-2.2818 1.0726z" fill="#fff" fill-rule="evenodd"/></svg>