<svg width="20" height="20" fill="none" xmlns="http://www.w3.org/2000/svg"><circle cx="10" cy="10" r="10" fill="#1A325F"/><path d="m9.642 4.735-4.404 9.182h7.31a.53.53 0 0 1 .488.32l.007.019a.443.443 0 0 1-.022.394.696.696 0 0 1-.604.35h-7.77a.607.607 0 0 1-.336-.102l-.041-.027a.608.608 0 0 1-.21-.77L9.256 3.408a.88.88 0 0 1 .227-.29.509.509 0 0 1 .645-.006.348.348 0 0 1 .097.12L15.495 14a.66.66 0 0 1 .043.47.411.411 0 0 1-.397.3h-.06a.634.634 0 0 1-.574-.365L9.96 4.737a.176.176 0 0 0-.32-.002Z" fill="#fff"/></svg>
