<svg width="20" height="20" viewBox="0 0 20 20" fill="none" xmlns="http://www.w3.org/2000/svg">
<path d="M10 20C15.5228 20 20 15.5228 20 10C20 4.47715 15.5228 0 10 0C4.47715 0 0 4.47715 0 10C0 15.5228 4.47715 20 10 20Z" fill="white"/>
<path d="M9.77185 3.62075C9.66877 3.66411 9.65292 3.73111 9.74013 3.76264C9.77185 3.77447 9.81942 3.85724 9.84717 3.94001C9.87096 4.02672 9.91457 4.11343 9.94628 4.13708C10.0097 4.19226 10.0176 4.40904 9.95421 4.40904C9.93042 4.40904 9.81942 4.30656 9.70842 4.18438C9.20494 3.62863 9.19304 3.62075 8.97104 3.62075C8.7411 3.62075 8.68956 3.67593 8.78075 3.82571C8.81246 3.87694 8.85211 3.9676 8.864 4.03066C8.87986 4.09766 8.93139 4.20408 8.97897 4.26715C9.02654 4.33415 9.08601 4.44451 9.10979 4.51152L9.1534 4.63764L8.97104 4.55881C8.87193 4.51546 8.76092 4.45634 8.72524 4.4248C8.63803 4.34597 8.62613 4.35386 8.47152 4.50757C8.30898 4.66523 8.30502 4.69676 8.41206 4.83077C8.45566 4.88595 8.49134 4.96084 8.49134 4.99631C8.49134 5.03179 8.57063 5.22097 8.67371 5.41016C8.77282 5.60329 8.84418 5.7846 8.83228 5.81219C8.79264 5.91073 8.61028 5.87525 7.8174 5.60724C7.71828 5.5757 7.5161 5.51658 7.36149 5.47717C7.21084 5.43381 7.03244 5.38257 6.96505 5.35892C6.75097 5.28404 6.45364 5.19338 6.19199 5.1185C5.85105 5.01996 5.58147 4.93325 5.33964 4.8426C5.2326 4.79924 5.07799 4.75194 5.00267 4.74012C4.92734 4.72435 4.80048 4.681 4.72516 4.64552C4.64983 4.61005 4.49919 4.55487 4.38818 4.53122C4.28114 4.50363 4.16221 4.45634 4.1305 4.42875C4.07499 4.38145 4.03535 4.38539 3.83713 4.46422C3.54376 4.58246 3.52394 4.60611 3.56359 4.76771C3.60719 4.92143 3.81334 5.05937 4.07103 5.10273C4.15825 5.11456 4.30493 5.15791 4.39611 5.19733C4.49126 5.23674 4.64983 5.28404 4.75291 5.2998C4.97491 5.33134 5.09385 5.38257 5.06213 5.43775C5.02249 5.49688 4.43576 5.47717 4.10671 5.40622C3.84506 5.35104 3.7737 5.3471 3.55962 5.3944C3.4288 5.42199 3.24643 5.45746 3.15922 5.46929C2.98875 5.49688 2.91739 5.61118 3.04821 5.65847C3.08786 5.6703 3.15525 5.72154 3.19886 5.76883C3.28608 5.86737 3.72216 6.00926 4.03931 6.04868C4.31286 6.08021 4.48729 6.14327 4.48729 6.20239C4.48729 6.28122 4.38025 6.30487 3.8847 6.32064C3.34158 6.3364 3.20282 6.37187 3.18697 6.49406C3.17904 6.5453 3.18697 6.60048 3.20679 6.62019C3.22265 6.63595 3.4724 6.67931 3.75388 6.71478C4.31286 6.78178 4.56658 6.83696 4.56658 6.8882C4.56658 6.94732 4.43972 6.97886 4.1186 6.99856C3.94813 7.01039 3.80145 7.03798 3.78956 7.05374C3.77766 7.07345 3.83713 7.15228 3.91642 7.23505C4.05914 7.373 4.07499 7.38088 4.39215 7.39665C4.80841 7.4203 4.83616 7.44395 4.77273 7.75532C4.7093 8.05881 4.7093 8.07063 4.82823 8.11399C4.8877 8.13764 4.97888 8.19282 5.03835 8.23618C5.09385 8.27953 5.25639 8.40172 5.39514 8.50813C5.5339 8.61849 5.66076 8.70521 5.67661 8.70521C5.71229 8.70521 6.16424 9.06388 6.29903 9.19394C6.35056 9.24518 6.56464 9.37525 6.77476 9.48167C7.33374 9.76151 7.65089 10.0729 8.22176 10.9085C8.2733 10.9794 8.38431 11.1213 8.47549 11.2238C8.5627 11.3223 8.74903 11.547 8.88779 11.7204C9.02654 11.8938 9.20097 12.0988 9.2763 12.1776C9.46262 12.3786 9.83924 12.8871 9.83924 12.9423C9.83924 12.9659 9.88285 13.0447 9.93835 13.1196C10.1168 13.36 10.0969 13.3955 9.61327 13.7897C9.36748 13.9907 9.35558 13.9946 8.90364 14.0695C8.64992 14.1089 8.25744 14.1562 8.03147 14.168C7.80154 14.1838 7.60728 14.2114 7.59142 14.2311C7.57953 14.2548 7.58746 14.3099 7.61125 14.3533C7.67468 14.4794 7.73811 14.8302 7.73811 15.0312C7.73811 15.2204 7.75 15.2362 8.20987 15.8077C8.48738 16.1545 8.57063 16.1703 8.88779 15.9575C8.94329 15.918 9.08601 15.8234 9.20494 15.7446C9.32387 15.6658 9.46659 15.5712 9.52209 15.5357C9.57759 15.5002 9.7441 15.3899 9.89078 15.2953L10.1604 15.1179L10.6083 15.1455C10.8541 15.1613 11.1197 15.1889 11.1911 15.2086C11.2664 15.2322 11.4845 15.2598 11.6748 15.2756C11.9959 15.2992 12.0276 15.2914 12.1029 15.2165C12.2575 15.0509 12.3765 15.1495 12.3765 15.4372C12.3765 15.6224 12.424 15.6697 12.6778 15.7328C12.8324 15.7722 12.8879 15.8116 12.9909 15.9575C13.0583 16.056 13.1416 16.1348 13.1693 16.1348C13.2011 16.1348 13.2447 16.0639 13.2685 15.9693C13.3477 15.654 13.5539 15.5436 13.6649 15.7604C13.7125 15.851 13.7521 15.8786 13.8433 15.8786C13.986 15.8786 14.0296 15.8156 13.9464 15.7249C13.9147 15.6894 13.871 15.5948 13.8552 15.516C13.8354 15.4372 13.764 15.3111 13.6926 15.2322C13.5698 15.0943 13.5539 15.0903 13.2883 15.0903C13.0623 15.0903 12.9949 15.0746 12.9315 15.0115C12.7095 14.7908 12.9117 14.708 13.7561 14.6765C14.0732 14.6607 14.6005 14.5109 14.66 14.4164C14.6719 14.3966 14.7075 14.3809 14.7432 14.3809C14.8066 14.3809 14.9494 14.2981 15.4806 13.9591C15.6273 13.8685 15.8651 13.7108 16.0158 13.6202C16.1625 13.5256 16.3845 13.3798 16.5153 13.293C16.6422 13.2103 16.7849 13.1157 16.8325 13.092C16.9554 13.0171 17.1893 13.029 17.2923 13.1117C17.3756 13.1787 17.3795 13.2024 17.3478 13.3798C17.3201 13.5295 17.328 13.6162 17.3756 13.7621C17.4787 14.0616 17.5104 14.0695 17.6888 13.8685C17.8355 13.699 17.8434 13.6793 17.8473 13.4231C17.8473 13.1551 17.883 13.0684 18.0931 12.824C18.1447 12.7649 18.1605 12.6585 18.1685 12.3747L18.1764 12.0042L17.9821 11.7914C17.8434 11.6416 17.6927 11.5352 17.4509 11.4169C17.1575 11.2711 17.0703 11.2474 16.8007 11.2356C16.6184 11.2238 16.3131 11.2474 16.0594 11.2868C15.3418 11.4012 15.1278 11.342 15.0366 10.9912C15.0049 10.8572 14.9176 10.2227 14.8185 9.33584C14.763 8.85104 14.7948 8.93775 14.3032 8.01545C14.2199 7.86568 14.0891 7.66861 14.0098 7.57796C13.9305 7.4873 13.7997 7.3257 13.7244 7.22323C13.649 7.11681 13.5618 7.00645 13.5341 6.97097C13.5024 6.93944 13.3002 6.67142 13.0821 6.37976C12.5628 5.69001 12.4597 5.57176 12.21 5.38651C11.9959 5.22492 11.6153 4.91354 11.5043 4.80318C11.4686 4.76771 11.3695 4.68888 11.2863 4.62582C11.0722 4.46816 10.4339 3.94395 10.1485 3.68775C10.0176 3.57739 9.9225 3.56163 9.77185 3.62075Z" fill="#327CCB"/>
</svg>
