<svg width="20" height="20" viewBox="0 0 20 20" fill="none" xmlns="http://www.w3.org/2000/svg">
<path d="M10 20C15.5228 20 20 15.5228 20 10C20 4.47715 15.5228 0 10 0C4.47715 0 0 4.47715 0 10C0 15.5228 4.47715 20 10 20Z" fill="#1676CF"/>
<path d="M9.95688 6.73189L8.93876 5.71126C8.80167 5.58015 8.72229 5.39995 8.71807 5.2103C8.71385 5.02065 8.78514 4.8371 8.91625 4.70001C9.04737 4.56293 9.22757 4.48355 9.41722 4.47933C9.60687 4.47511 9.79042 4.5464 9.92751 4.67751L9.95126 4.70126L12.2238 6.97376C12.5031 7.25314 12.5031 7.70501 12.2238 7.98439L9.94876 10.2569C9.81378 10.3857 9.63378 10.4565 9.44723 10.4543C9.26069 10.4522 9.0824 10.3771 8.95048 10.2452C8.81857 10.1132 8.74349 9.93496 8.7413 9.74841C8.7391 9.56187 8.80997 9.38187 8.93876 9.24689L10.0056 8.18002C9.28684 8.05314 8.54642 8.1503 7.88471 8.45835C7.22299 8.7664 6.67198 9.27044 6.30634 9.90215C5.9407 10.5339 5.77811 11.2627 5.8406 11.9899C5.90309 12.7172 6.18765 13.4076 6.6557 13.9677C7.12376 14.5277 7.75268 14.9304 8.45725 15.121C9.16182 15.3117 9.90796 15.2811 10.5946 15.0334C11.2812 14.7858 11.875 14.333 12.2957 13.7366C12.7164 13.1401 12.9435 12.4287 12.9463 11.6988V3.83876C12.9463 3.6493 13.0215 3.4676 13.1555 3.33363C13.2895 3.19965 13.4712 3.12439 13.6606 3.12439C13.8501 3.12439 14.0318 3.19965 14.1658 3.33363C14.2997 3.4676 14.375 3.6493 14.375 3.83876V11.7944C14.3551 12.8037 14.0301 13.7833 13.4428 14.6043C12.8556 15.4254 12.0335 16.0495 11.0848 16.3945C10.1361 16.7395 9.10525 16.7893 8.12774 16.5373C7.15023 16.2853 6.27189 15.7433 5.60826 14.9826C4.94464 14.2219 4.5268 13.2782 4.40972 12.2755C4.29264 11.2728 4.4818 10.2582 4.95232 9.36511C5.42283 8.47199 6.15267 7.74221 7.04582 7.27177C7.93897 6.80132 8.9536 6.61224 9.95626 6.72939L9.95688 6.73189Z" fill="white"/>
</svg>
