<svg width="21" height="20" viewBox="0 0 21 20" fill="none" xmlns="http://www.w3.org/2000/svg">
<g clip-path="url(#clip0)">
<circle cx="10.1104" cy="10" r="10" fill="#7957DE"/>
<path d="M11.2745 19.933L11.1919 19.911L5.77246 14.4914L7.62336 7.50644L12.7389 6.28564L19.3851 13.746C18.0417 17.069 14.9642 19.5052 11.2745 19.933Z" fill="#361D67"/>
<path d="M10.444 15.9185C13.379 15.9185 15.1193 14.1029 15.1193 11.0927C15.1193 8.09181 13.379 6.28564 10.5098 6.28564H7.17969V15.9185H10.444ZM8.92471 14.4087V7.79549H10.411C12.3677 7.79549 12.9011 8.71295 12.9011 10.9189C12.9011 13.1343 12.0014 13.6907 9.99294 13.6907L8.92471 14.4087Z" fill="#9479E5"/>
<path d="M9.00401 14.4579C11.939 14.4579 13.6793 12.6423 13.6793 9.63204C13.6793 6.63118 11.939 4.82501 9.06986 4.82501H5.73975V14.4579H9.00401ZM7.48476 12.948V6.33485H8.97109C10.9278 6.33485 11.9484 7.42608 11.9484 9.63204C11.9484 11.8474 10.9278 12.948 8.91935 12.948H7.48476Z" fill="white"/>
</g>
<defs>
<clipPath id="clip0">
<rect width="20" height="20" fill="white" transform="translate(0.130859)"/>
</clipPath>
</defs>
</svg>
