<svg xmlns="http://www.w3.org/2000/svg" viewBox="0 0 20 20"><defs><style>.cls-1{font-size:7px;font-family:MyriadPro-Regular, Myriad Pro;}.cls-2{fill:#fff;}</style></defs><g id="Layer_1" data-name="Layer 1"><text class="cls-1" transform="translate(-3.37 -0.32)">1</text></g><g id="_1" data-name="1"><circle cx="10" cy="10" r="10"/><path class="cls-2" d="M3.35,12.28l-.24-1L3.23,10l.51-1,.48-.46L5.1,8,4.93,6.32l.29-.23a2.23,2.23,0,0,1,.61-1.41,2.21,2.21,0,0,1,1.32-.45l-.1-.31,0-.11a1.06,1.06,0,0,1,.6,0c.31.09,1,.39,1.09.63s.55.11.55.11a10.8,10.8,0,0,1,2.36.38c.6.26,1.05.48,1.05.48l.45-.48a2.85,2.85,0,0,1,1.92-.58A2.13,2.13,0,0,1,16.25,5c-.65-.1-.71.33-.71.33.31,0,1.86.78,1.66,1.9s-.64,1.17-.64,1.17l0,.1L16.75,10l-.11.87,0,.14-.43-.11H16l0,1.21-.4,1.13-.1,0L15.05,13l-.13.28s-.21,1-.56,1.2a2.32,2.32,0,0,0-.52.47l-.15-.13-.31-.32-.22.21-.78.74-.19.11L12,15.29l-1-1.15H10.3l-.67.93-.52,1.47L7.49,15.9l-.73.37-.16,0-1-1.07-.64-.57-.38.11L4.32,15h-.2l-.42-.43Z"/><path d="M6.74,3.87a.73.73,0,0,1,.38-.17,1.8,1.8,0,0,1,1,.17,1.62,1.62,0,0,1,.7.54A.17.17,0,0,0,9,4.47a6.43,6.43,0,0,1,3.41.72c.1,0,.21.15.31.13s.15-.15.22-.23a2.58,2.58,0,0,1,1.65-.81,2,2,0,0,1,1.47.38.86.86,0,0,1,.33.49,1,1,0,0,0-.22-.05l-.42,0s-.07.07-.11.1.07.06.11.07a2,2,0,0,1,1.35,1.18,1.6,1.6,0,0,1,0,1.56.93.93,0,0,1-.42.41c-.07,0-.09.07,0,.15a1.79,1.79,0,0,1,.18.73,6.27,6.27,0,0,1,0,1.3,1.77,1.77,0,0,1-.08.31.19.19,0,0,1-.28.13L16.2,11c-.12,0-.16,0-.14.12A3,3,0,0,1,16,12.38a4.71,4.71,0,0,1-.27.8c-.09.21-.2.22-.37.07s-.29-.2-.37.1A2.81,2.81,0,0,1,14,14.91l-.11.08c-.16.1-.23.08-.32-.09a2.39,2.39,0,0,0-.13-.21c-.1-.13-.12-.13-.21,0a2.62,2.62,0,0,1-.89.86c-.22.14-.27.11-.43-.09-.29-.38-.57-.76-.88-1.12a.58.58,0,0,0-.85,0,2.36,2.36,0,0,0-.36.53c-.19.4-.34.82-.5,1.24a3.38,3.38,0,0,0-.08.34c0,.2-.1.25-.29.17s-.59-.27-.88-.42A1.29,1.29,0,0,0,7.46,16a.6.6,0,0,0-.44.18c-.06.05-.11.12-.17.18s-.18.14-.33,0a4.38,4.38,0,0,1-.74-.75,6.68,6.68,0,0,0-.61-.69c-.3-.29-.47-.27-.73.05l-.06.08c-.11.17-.15.18-.31,0a1.85,1.85,0,0,1-.53-.93,5.89,5.89,0,0,1-.27-1.72,1.21,1.21,0,0,0,0-.18c0-.16-.08-.32-.11-.48a4.15,4.15,0,0,1,.12-2,2.46,2.46,0,0,1,.91-1.26.15.15,0,0,0,.06-.2,2.49,2.49,0,0,1-.06-1.05A1.46,1.46,0,0,1,5,6.15.2.2,0,0,0,5.14,6a2,2,0,0,1,1.32-1.7A4.21,4.21,0,0,1,7,4.16h.1C7,4.05,7,4.05,6.74,3.87Zm6.17,1.57a3.47,3.47,0,0,1,.42.3A.81.81,0,0,0,14,6c.31,0,.61-.08.91-.12a1.63,1.63,0,0,1,.93.08A1.34,1.34,0,0,1,16.61,7a1.09,1.09,0,0,1,0,.59L16.54,7c-.15.23-.29.47-.46.69A1.19,1.19,0,0,1,15.7,8a.15.15,0,0,1-.22-.09c-.05-.11-.08-.23-.12-.34a2.42,2.42,0,0,0-1.07-1.34.82.82,0,0,0-.54-.11,1.65,1.65,0,0,1,.59.91,3.24,3.24,0,0,0-.45-.53,10.28,10.28,0,0,0-1.11-.86,3.83,3.83,0,0,0-2.24-.72,1.82,1.82,0,0,1-1.07-.2A.67.67,0,0,0,9,4.7,1.71,1.71,0,0,0,9.64,5c.36,0,.73.08,1.09.14a3.41,3.41,0,0,1,1.19.43.63.63,0,0,1,.25.3L12,5.78l-.14-.06a4.37,4.37,0,0,0-2.34-.31,1.12,1.12,0,0,1-.76-.15A3,3,0,0,0,8.21,5a.79.79,0,0,0-.45,0,3.76,3.76,0,0,0-1.24.64l-.14.13h.1a10.62,10.62,0,0,1,1.78-.09,9.85,9.85,0,0,1,2.17.2,4.67,4.67,0,0,1,1.79.76,2.1,2.1,0,0,1,.6.66,3.52,3.52,0,0,1,.38,2.21,1.28,1.28,0,0,1-1.71,1c-.27-.09-.52-.23-.78-.34l-.2-.09a.81.81,0,0,0,0,.11,8.2,8.2,0,0,1,.23,1,2.35,2.35,0,0,1-.68,2.06l.07.17,0,0a.25.25,0,0,0,0-.07A2,2,0,0,0,9,12.78c-.26,0-.53,0-.79,0a4.38,4.38,0,0,1-1.91-.47,1.35,1.35,0,0,0-.74-.15,4.68,4.68,0,0,1-.75,0,2.18,2.18,0,0,0-1.21.14c-.12,0-.18.11-.16.24.07.47.12.95.21,1.41a2,2,0,0,0,.39.95c.14.18.2.18.34,0l.09-.1A.4.4,0,0,1,5,14.62a2.38,2.38,0,0,1,.5.4c.3.33.58.68.88,1s.28.24.52,0a.8.8,0,0,1,.84-.21,3.49,3.49,0,0,1,.48.23c.21.11.42.24.64.33s.21,0,.26-.13c.12-.35.22-.7.35-1a3.13,3.13,0,0,1,.54-1,.81.81,0,0,1,1.2,0l.87,1.06c.12.15.15.16.31.05a2.69,2.69,0,0,0,.78-.83c.09-.16.21-.18.33,0l.3.38h0a.27.27,0,0,0,.08-.07,2.7,2.7,0,0,0,.91-1.62c.05-.23.18-.3.39-.19s.2.13.31.2,0,0,0-.07c.08-.24.17-.47.23-.71A3.1,3.1,0,0,0,15.87,11c0-.16.07-.26.25-.24l.27.06c.16.05.17.05.21-.11a.28.28,0,0,1,0-.09,5.35,5.35,0,0,0,0-1.44,1.57,1.57,0,0,0-.38-.92l-.05-.07a.4.4,0,0,1,.19.07.21.21,0,0,0,.25,0,1.16,1.16,0,0,0,.52-.88,1.84,1.84,0,0,0-.73-1.62,1.8,1.8,0,0,0-.86-.4c-.14,0-.19-.12-.08-.21A1.81,1.81,0,0,1,15.8,5a2,2,0,0,1,.3,0,1.67,1.67,0,0,0-1.41-.46A2.24,2.24,0,0,0,12.91,5.44ZM10,9.75l0-.06a3.41,3.41,0,0,0-.7-.61A2.92,2.92,0,0,0,8,8.65c-.06,0-.09,0-.12.07a1.73,1.73,0,0,1-.2.32A7.74,7.74,0,0,1,6.2,10.18a.2.2,0,0,0-.08.08A2.47,2.47,0,0,0,6,11.4a.76.76,0,0,0,.32.61,3.16,3.16,0,0,0,.72.34,6.79,6.79,0,0,0,1.62.21,2.29,2.29,0,0,1,1.3.37.12.12,0,0,0,.19,0,3,3,0,0,0,.2-.29c.09-.15.09-.16-.07-.25a4.91,4.91,0,0,0-1.53-.59,5.2,5.2,0,0,0-1.57-.19l-.08,0a1.13,1.13,0,0,1,.46-.19,4,4,0,0,1,1.43,0,4.06,4.06,0,0,1,1.22.31c.13.06.25.14.4.22a2.82,2.82,0,0,0,0-.4.15.15,0,0,0-.08-.11,4.64,4.64,0,0,0-1.4-.57,4.26,4.26,0,0,0-1.33-.11.41.41,0,0,1-.16,0,.6.6,0,0,1,.13-.09,2.66,2.66,0,0,1,1.19-.15,3.45,3.45,0,0,1,1.45.32l.12,0c0-.24-.08-.45-.34-.53l-.26-.11A3.69,3.69,0,0,0,8.2,9.89H8.08a.38.38,0,0,1,.13-.09A1.26,1.26,0,0,1,9,9.6ZM3.21,11.4s0,0,.06,0l.1,0A3.3,3.3,0,0,1,5,11.28a1.53,1.53,0,0,1,.29.07s.06.06.09.09l-.12,0a4.71,4.71,0,0,0-1.82.27c-.07,0-.11.07-.09.15s0,.14,0,.23l.12,0a2.29,2.29,0,0,1,1.29-.17,2,2,0,0,0,.34,0c.22,0,.43,0,.65-.09s.11-.07.07-.17a1.23,1.23,0,0,1-.08-.33,2.74,2.74,0,0,1,.15-1.1.19.19,0,0,0,0-.15,2.28,2.28,0,0,1-.56-1.64c0-.12,0-.14-.13-.13A2,2,0,0,0,3.53,9.52s0,0,0,.07l.13,0c.25,0,.49-.05.74-.05a1.43,1.43,0,0,1,.78.21,1.42,1.42,0,0,1,.13.12l0,0H5.19A2.41,2.41,0,0,0,3.42,10s-.09,0-.09.07-.06.28-.09.43L4,10.41a2.35,2.35,0,0,1,1.23.19,1.49,1.49,0,0,1,.14.12l0,0H5.19a3.29,3.29,0,0,0-1.89.13.12.12,0,0,0-.08.09C3.21,11.12,3.21,11.26,3.21,11.4ZM7.61,8a.64.64,0,0,0,0-.09L6.83,6.05C6.8,6,6.75,6,6.68,6c-.29,0-.58.1-.87.17s-.45.14-.67.22c-.07,0-.16,0-.12.16.19.44.37.89.55,1.33a.18.18,0,0,0,.09.08,3.62,3.62,0,0,1,.47.13.79.79,0,0,0,.48,0A1.78,1.78,0,0,1,7.61,8Zm3-1.86.05.14c.21.49.43,1,.64,1.46.35.78.7,1.57,1,2.36,0,.1.09.13.18.06l.25-.23a.17.17,0,0,0,0-.21l-.15-.31L11.34,6.49s0-.11-.07-.12ZM9.65,9a.16.16,0,0,0,0-.08C9.24,8,8.86,7.11,8.47,6.2c-.15-.35,0-.28-.43-.29H7.62l0,.14c.34.8.68,1.61,1,2.41a.24.24,0,0,0,.09.11C9.05,8.73,9.35,8.88,9.65,9ZM5.32,6c.2,0,.23,0,.27-.19a1.06,1.06,0,0,1,.28-.52A3.45,3.45,0,0,1,6.13,5V5l-.38.16v0A.83.83,0,0,1,5.88,5,1.77,1.77,0,0,1,7.2,4.84a.49.49,0,0,0,.24,0l.8-.25c.14,0,.29-.06.43-.09a1.67,1.67,0,0,0-1.54-.6,1.22,1.22,0,0,1,.12.19c.08.19,0,.26-.17.26a1.72,1.72,0,0,0-1.62,1A1.17,1.17,0,0,0,5.32,6Zm3.39-.08.06.17,1.39,3.36c.1.23.3.28.48.37-.09-.26-.2-.51-.3-.76l-1.26-3A.24.24,0,0,0,9,5.92,1,1,0,0,0,8.71,5.92ZM5.65,9.17l0,0A1.25,1.25,0,0,1,5.9,8.4c.07-.1,0-.18-.1-.21a.19.19,0,0,0-.26.16,1.46,1.46,0,0,0,.06.75A.18.18,0,0,0,5.65,9.17Z"/><path d="M15.44,8.47a1,1,0,0,1,.07.15,5.67,5.67,0,0,1,.05,2,4.23,4.23,0,0,1-.46,1.29,1.34,1.34,0,0,1-1.06.69,5.54,5.54,0,0,1-2.22-.08l-.21-.08a.39.39,0,0,1-.1-.08v0a.33.33,0,0,1,.14,0A5.05,5.05,0,0,0,13.39,12l.24-.08a2,2,0,0,0,1.26-1.23,7.36,7.36,0,0,0,.41-1.46,4.62,4.62,0,0,0,.08-.65.45.45,0,0,0,0-.11Z"/><path d="M12.54,11.57a3.09,3.09,0,0,1-1.2-.19.82.82,0,0,1-.19-.09,1.12,1.12,0,0,1-.13-.16l.18,0a4.68,4.68,0,0,0,1.62-.28A2.14,2.14,0,0,0,14,9.7a5.53,5.53,0,0,0,.55-1.65c0-.07,0-.14,0-.22a.47.47,0,0,1,.05-.1s.06.06.06.1a1.35,1.35,0,0,1,.06.35,6.58,6.58,0,0,1-.38,2.37,1.38,1.38,0,0,1-1.26,1Z"/><path d="M5.25,13.05l.11-.24.21.17.28.26L6,12.88l.46.49,0,0c0-.23.06-.23.24-.08a.74.74,0,0,0,.54.2h.13c-.16.12-.28.11-.76-.07l.05.22a.6.6,0,0,1-.33-.18L6,13.17l0,.26a1.57,1.57,0,0,1-.6-.47l0,.25A.53.53,0,0,1,5,12.65a2.14,2.14,0,0,0,.1.22Z"/></g></svg>