<svg width="20" height="20" fill="none" xmlns="http://www.w3.org/2000/svg"><g clip-path="url(#clip0)"><path d="M10 20c5.523 0 10-4.477 10-10S15.523 0 10 0 0 4.477 0 10s4.477 10 10 10z" fill="#F0F0F0"/><path d="M10 0C5.7 0 2.035 2.714.622 6.522h18.756A10.004 10.004 0 0010 0z" fill="#D80027"/><path d="M10 20c4.3 0 7.965-2.714 9.378-6.522H.622A10.004 10.004 0 0010 20z" fill="#000"/><path d="M13.478 8.913h-2.609a.87.87 0 10-1.739 0H6.521c0 .48.419.87.899.87h-.029c0 .48.39.87.87.87 0 .48.389.869.87.869h1.738c.48 0 .87-.39.87-.87.48 0 .87-.39.87-.87h-.03c.48 0 .899-.389.899-.869z" fill="#FF9811"/></g><defs><clipPath id="clip0"><path fill="#fff" d="M0 0h20v20H0z"/></clipPath></defs></svg>