<svg width="120" height="120" viewBox="0 0 120 120" fill="none" xmlns="http://www.w3.org/2000/svg">
<path d="M30 59.8778L59.935 10V47.2524L30 59.8778Z" fill="url(#paint0_linear_335_2)"/>
<path d="M89.8701 59.8778L59.9351 10V47.2524L89.8701 59.8778Z" fill="url(#paint1_linear_335_2)"/>
<path d="M59.935 47.137L30 59.7649L59.935 77.2415V47.137Z" fill="url(#paint2_linear_335_2)"/>
<path d="M59.9351 47.137L89.8701 59.7649L59.9351 77.2415V47.137Z" fill="url(#paint3_linear_335_2)"/>
<path d="M30 65.6108L59.935 109.004V83.0875L30 65.6108Z" fill="url(#paint4_linear_335_2)"/>
<path d="M89.8701 65.6108L59.9351 109.004V83.0875L89.8701 65.6108Z" fill="url(#paint5_linear_335_2)"/>
<path d="M43.7998 37.4664L45.4308 67.1951" stroke="#B0B4E9" stroke-width="0.982524"/>
<path d="M75.3165 37.4664L73.6855 67.1951" stroke="#B0B4E9" stroke-width="0.982524"/>
<path d="M59.9794 47.3408L45.4331 66.9471" stroke="#B0B4E9" stroke-width="0.982524"/>
<path d="M59.4092 47.3408L73.9555 66.9471" stroke="#B0B4E9" stroke-width="0.982524"/>
<path d="M43.8783 41.4088C45.9118 41.4088 47.5603 39.7603 47.5603 37.7268C47.5603 35.6933 45.9118 34.0448 43.8783 34.0448C41.8448 34.0448 40.1963 35.6933 40.1963 37.7268C40.1963 39.7603 41.8448 41.4088 43.8783 41.4088Z" fill="url(#paint6_linear_335_2)"/>
<path d="M46.4548 36.3292C46.2607 36.5453 45.7547 36.4078 45.3249 36.0221C44.895 35.6365 44.7059 35.1477 44.8999 34.9315C45.094 34.7154 45.6 34.8529 46.0298 35.2386C46.4597 35.6242 46.6488 36.113 46.4548 36.3292Z" fill="url(#paint7_radial_335_2)"/>
<path d="M45.433 70.6291C47.4665 70.6291 49.115 68.9807 49.115 66.9471C49.115 64.9136 47.4665 63.2651 45.433 63.2651C43.3995 63.2651 41.751 64.9136 41.751 66.9471C41.751 68.9807 43.3995 70.6291 45.433 70.6291Z" fill="url(#paint8_linear_335_2)"/>
<path d="M48.0099 65.5495C47.8159 65.7657 47.3099 65.6281 46.88 65.2425C46.4502 64.8568 46.2611 64.368 46.4551 64.1519C46.6491 63.9357 47.1551 64.0733 47.585 64.4589C48.0149 64.8446 48.204 65.3334 48.0099 65.5495Z" fill="url(#paint9_radial_335_2)"/>
<path d="M75.4095 41.4088C77.4431 41.4088 79.0916 39.7603 79.0916 37.7268C79.0916 35.6933 77.4431 34.0448 75.4095 34.0448C73.376 34.0448 71.7275 35.6933 71.7275 37.7268C71.7275 39.7603 73.376 41.4088 75.4095 41.4088Z" fill="url(#paint10_linear_335_2)"/>
<path d="M77.9865 36.3292C77.7925 36.5453 77.2865 36.4078 76.8566 36.0221C76.4268 35.6365 76.2376 35.1477 76.4317 34.9315C76.6257 34.7154 77.1317 34.8529 77.5616 35.2386C77.9914 35.6242 78.1806 36.113 77.9865 36.3292Z" fill="url(#paint11_radial_335_2)"/>
<path d="M73.6854 70.6291C75.7189 70.6291 77.3674 68.9807 77.3674 66.9471C77.3674 64.9136 75.7189 63.2651 73.6854 63.2651C71.6519 63.2651 70.0034 64.9136 70.0034 66.9471C70.0034 68.9807 71.6519 70.6291 73.6854 70.6291Z" fill="url(#paint12_linear_335_2)"/>
<path d="M76.2624 65.5495C76.0683 65.7657 75.5623 65.6281 75.1325 65.2425C74.7026 64.8568 74.5135 64.368 74.7075 64.1519C74.9016 63.9357 75.4076 64.0733 75.8374 64.4589C76.2673 64.8446 76.4589 65.3334 76.2624 65.5495Z" fill="url(#paint13_radial_335_2)"/>
<path d="M59.9794 51.0228C62.0129 51.0228 63.6614 49.3743 63.6614 47.3408C63.6614 45.3073 62.0129 43.6588 59.9794 43.6588C57.9459 43.6588 56.2974 45.3073 56.2974 47.3408C56.2974 49.3743 57.9459 51.0228 59.9794 51.0228Z" fill="url(#paint14_linear_335_2)"/>
<path d="M62.5558 45.9432C62.3618 46.1593 61.8558 46.0218 61.4259 45.6362C60.9961 45.2505 60.807 44.7617 61.001 44.5455C61.195 44.3294 61.701 44.4669 62.1309 44.8526C62.5608 45.2382 62.7523 45.727 62.5558 45.9432Z" fill="url(#paint15_radial_335_2)"/>
<defs>
<linearGradient id="paint0_linear_335_2" x1="29.3409" y1="59.2193" x2="69.2481" y2="19.3121" gradientUnits="userSpaceOnUse">
<stop offset="0.3243" stop-color="#AC9CF2"/>
<stop offset="0.326" stop-color="#AC9CF2"/>
<stop offset="0.4645" stop-color="#B1B3EA"/>
<stop offset="0.6134" stop-color="#B4C3E5"/>
<stop offset="0.7803" stop-color="#B6CDE2"/>
<stop offset="1" stop-color="#B7D0E1"/>
</linearGradient>
<linearGradient id="paint1_linear_335_2" x1="90.5292" y1="59.2193" x2="50.622" y2="19.3121" gradientUnits="userSpaceOnUse">
<stop offset="0.3243" stop-color="#B2DBF5"/>
<stop offset="0.4427" stop-color="#C4E3F4"/>
<stop offset="0.5977" stop-color="#D4EAF4"/>
<stop offset="0.7713" stop-color="#DEEFF3"/>
<stop offset="1" stop-color="#E1F0F3"/>
</linearGradient>
<linearGradient id="paint2_linear_335_2" x1="43.1694" y1="62.1895" x2="73.2654" y2="62.1895" gradientUnits="userSpaceOnUse">
<stop offset="0.3243" stop-color="#D6CDFB"/>
<stop offset="0.4284" stop-color="#D9D4FA"/>
<stop offset="0.6546" stop-color="#DCDEF9"/>
<stop offset="0.9528" stop-color="#DDE1F9"/>
</linearGradient>
<linearGradient id="paint3_linear_335_2" x1="76.7007" y1="62.1895" x2="46.6047" y2="62.1895" gradientUnits="userSpaceOnUse">
<stop offset="0.3243" stop-color="#ECF2F2"/>
<stop offset="0.3653" stop-color="#EEF4F3"/>
<stop offset="0.6187" stop-color="#F8FAF6"/>
<stop offset="0.9528" stop-color="#FBFCF7"/>
</linearGradient>
<linearGradient id="paint4_linear_335_2" x1="29.9994" y1="87.3075" x2="59.935" y2="87.3075" gradientUnits="userSpaceOnUse">
<stop offset="0.3243" stop-color="#6E89D3"/>
<stop offset="0.3255" stop-color="#6E89D3"/>
<stop offset="0.5001" stop-color="#6A83E3"/>
<stop offset="0.6954" stop-color="#6880ED"/>
<stop offset="0.9528" stop-color="#677FF0"/>
</linearGradient>
<linearGradient id="paint5_linear_335_2" x1="89.8707" y1="87.3075" x2="59.9351" y2="87.3075" gradientUnits="userSpaceOnUse">
<stop offset="0.3243" stop-color="#C4C5FC"/>
<stop offset="0.5439" stop-color="#C8CBF8"/>
<stop offset="0.9528" stop-color="#CACEF6"/>
</linearGradient>
<linearGradient id="paint6_linear_335_2" x1="42.2715" y1="40.8439" x2="45.645" y2="34.2967" gradientUnits="userSpaceOnUse">
<stop stop-color="#718BD4"/>
<stop offset="0.0121" stop-color="#758ED5"/>
<stop offset="0.0579" stop-color="#7790D6"/>
<stop offset="0.099" stop-color="#7A92D7"/>
<stop offset="0.2589" stop-color="#889DDD"/>
<stop offset="0.473" stop-color="#9AAAE4"/>
<stop offset="0.695" stop-color="#AEB9EC"/>
<stop offset="1" stop-color="#C6CBF5"/>
</linearGradient>
<radialGradient id="paint7_radial_335_2" cx="0" cy="0" r="1" gradientUnits="userSpaceOnUse" gradientTransform="translate(45.714 35.6556) rotate(42.0005) scale(0.79617)">
<stop stop-color="#DADCF4"/>
<stop offset="0.00819061" stop-color="#DADCF4"/>
<stop offset="0.0579" stop-color="#DADCF4"/>
<stop offset="0.099" stop-color="#DADCF4"/>
<stop offset="0.473" stop-color="#DADCF4"/>
<stop offset="1" stop-color="#DADCF4"/>
</radialGradient>
<linearGradient id="paint8_linear_335_2" x1="43.8264" y1="70.0636" x2="47.1999" y2="63.5164" gradientUnits="userSpaceOnUse">
<stop stop-color="#718BD4"/>
<stop offset="0.0121" stop-color="#758ED5"/>
<stop offset="0.0579" stop-color="#7790D6"/>
<stop offset="0.099" stop-color="#7A92D7"/>
<stop offset="0.2589" stop-color="#889DDD"/>
<stop offset="0.473" stop-color="#9AAAE4"/>
<stop offset="0.695" stop-color="#AEB9EC"/>
<stop offset="1" stop-color="#C6CBF5"/>
</linearGradient>
<radialGradient id="paint9_radial_335_2" cx="0" cy="0" r="1" gradientUnits="userSpaceOnUse" gradientTransform="translate(47.269 64.8737) rotate(42.0004) scale(0.796171)">
<stop stop-color="#DADCF4"/>
<stop offset="0.00819061" stop-color="#DADCF4"/>
<stop offset="0.0579" stop-color="#DADCF4"/>
<stop offset="0.099" stop-color="#DADCF4"/>
<stop offset="0.473" stop-color="#DADCF4"/>
<stop offset="1" stop-color="#DADCF4"/>
</radialGradient>
<linearGradient id="paint10_linear_335_2" x1="73.8029" y1="40.8439" x2="77.1764" y2="34.2967" gradientUnits="userSpaceOnUse">
<stop stop-color="#718BD4"/>
<stop offset="0.0121" stop-color="#758ED5"/>
<stop offset="0.0579" stop-color="#7790D6"/>
<stop offset="0.099" stop-color="#7A92D7"/>
<stop offset="0.2589" stop-color="#889DDD"/>
<stop offset="0.473" stop-color="#9AAAE4"/>
<stop offset="0.695" stop-color="#AEB9EC"/>
<stop offset="1" stop-color="#C6CBF5"/>
</linearGradient>
<radialGradient id="paint11_radial_335_2" cx="0" cy="0" r="1" gradientUnits="userSpaceOnUse" gradientTransform="translate(77.2442 35.6558) rotate(42.0004) scale(0.796171)">
<stop stop-color="#DADCF4"/>
<stop offset="0.00819061" stop-color="#DADCF4"/>
<stop offset="0.0579" stop-color="#DADCF4"/>
<stop offset="0.099" stop-color="#DADCF4"/>
<stop offset="0.473" stop-color="#DADCF4"/>
<stop offset="1" stop-color="#DADCF4"/>
</radialGradient>
<linearGradient id="paint12_linear_335_2" x1="72.0791" y1="70.0636" x2="75.4527" y2="63.5164" gradientUnits="userSpaceOnUse">
<stop stop-color="#718BD4"/>
<stop offset="0.0121" stop-color="#758ED5"/>
<stop offset="0.0579" stop-color="#7790D6"/>
<stop offset="0.099" stop-color="#7A92D7"/>
<stop offset="0.2589" stop-color="#889DDD"/>
<stop offset="0.473" stop-color="#9AAAE4"/>
<stop offset="0.695" stop-color="#AEB9EC"/>
<stop offset="1" stop-color="#C6CBF5"/>
</linearGradient>
<radialGradient id="paint13_radial_335_2" cx="0" cy="0" r="1" gradientUnits="userSpaceOnUse" gradientTransform="translate(75.5203 64.8739) rotate(42.0006) scale(0.796168)">
<stop stop-color="#DADCF4"/>
<stop offset="0.00819061" stop-color="#DADCF4"/>
<stop offset="0.0579" stop-color="#DADCF4"/>
<stop offset="0.099" stop-color="#DADCF4"/>
<stop offset="0.473" stop-color="#DADCF4"/>
<stop offset="1" stop-color="#DADCF4"/>
</radialGradient>
<linearGradient id="paint14_linear_335_2" x1="58.3731" y1="50.4575" x2="61.7466" y2="43.9103" gradientUnits="userSpaceOnUse">
<stop stop-color="#718BD4"/>
<stop offset="0.0121" stop-color="#758ED5"/>
<stop offset="0.0579" stop-color="#7790D6"/>
<stop offset="0.099" stop-color="#7A92D7"/>
<stop offset="0.2589" stop-color="#889DDD"/>
<stop offset="0.473" stop-color="#9AAAE4"/>
<stop offset="0.695" stop-color="#AEB9EC"/>
<stop offset="1" stop-color="#C6CBF5"/>
</linearGradient>
<radialGradient id="paint15_radial_335_2" cx="0" cy="0" r="1" gradientUnits="userSpaceOnUse" gradientTransform="translate(61.8147 45.2688) rotate(42.0006) scale(0.796168)">
<stop stop-color="#DADCF4"/>
<stop offset="0.00819061" stop-color="#DADCF4"/>
<stop offset="0.0579" stop-color="#DADCF4"/>
<stop offset="0.099" stop-color="#DADCF4"/>
<stop offset="0.473" stop-color="#DADCF4"/>
<stop offset="1" stop-color="#DADCF4"/>
</radialGradient>
</defs>
</svg>
