<svg width="20" height="20" viewBox="0 0 20 20" fill="none" xmlns="http://www.w3.org/2000/svg">
<circle cx="10" cy="10" r="10" fill="white"/>
<path d="M9.71202 5.43109C9.98213 4.39983 10.3562 4.02847 12.9864 2.18045C13.1277 2.08121 13.2627 2 13.2866 2C13.3105 2 13.3214 2.67782 13.3109 3.50633C13.2923 4.97919 13.2889 5.02039 13.1589 5.35986C13.0858 5.55077 12.9477 5.83617 12.852 5.99407C12.5443 6.50195 12.3771 6.64413 10.4122 8.06899L9.63971 8.62919L9.62601 7.22045C9.61381 5.96482 9.62318 5.77031 9.71202 5.43109Z" fill="#438E87"/>
<path d="M3.95917 9.22874C3.66316 8.54669 3.64014 8.32772 3.64014 6.19538V4.25702L3.85901 4.4194C3.97936 4.5087 4.4206 4.82933 4.83943 5.13193C6.12257 6.0589 7.1545 6.84663 7.4347 7.11298C7.74652 7.40935 8.06561 7.85806 8.23782 8.24244C8.59805 9.04638 8.63549 9.35378 8.63549 11.5082C8.63549 12.4817 8.61633 13.2782 8.5929 13.2782C8.56952 13.2782 8.33937 13.1217 8.08152 12.9306C7.82362 12.7394 7.43439 12.4555 7.2165 12.2997C5.76558 11.2624 5.23324 10.8544 4.83176 10.472C4.4088 10.0692 4.18643 9.75233 3.95917 9.22874Z" fill="#438E87"/>
<path d="M15.5313 6.46883C15.6049 6.42001 15.8041 6.27674 15.974 6.15042C16.144 6.02414 16.3004 5.91924 16.3216 5.91734C16.3429 5.91543 16.3602 6.98572 16.3601 8.29569C16.3599 10.8663 16.3317 11.2416 16.0769 12.068C15.8155 12.9162 15.2828 13.7541 14.6156 14.3667C14.428 14.539 13.9998 14.8801 13.6639 15.1249C13.0205 15.5937 12.8215 15.739 12.1373 16.2393C11.9049 16.4093 11.6487 16.5947 11.5679 16.6513C11.4871 16.708 11.0465 17.0284 10.5887 17.3633C10.131 17.6983 9.72438 17.9847 9.68518 17.9997C9.57302 18.0428 9.58198 13.3344 9.69528 12.6859C9.82572 11.9393 10.093 11.26 10.5364 10.5487C10.8667 10.0188 11.7181 9.24136 12.9356 8.35806C14.5872 7.15989 14.7055 7.07368 15.0679 6.80347C15.2492 6.66829 15.4578 6.51765 15.5313 6.46883Z" fill="#438E87"/>
</svg>
