<svg width="20" height="20" fill="none" xmlns="http://www.w3.org/2000/svg"><path d="M10 20c5.523 0 10-4.477 10-10S15.523 0 10 0 0 4.477 0 10s4.477 10 10 10Z" fill="#044AAC"/><path fill-rule="evenodd" clip-rule="evenodd" d="m6.301 10.756-1.636 1.638-.769.768A6.836 6.836 0 0 1 3.125 10 6.883 6.883 0 0 1 10 3.125 6.883 6.883 0 0 1 16.875 10 6.883 6.883 0 0 1 10 16.875a6.839 6.839 0 0 1-4.742-1.901l.726-.727 5.261-5.26a1.013 1.013 0 0 1 1.687-.67c.185.167.303.398.328.647l2.421 2.422A5.854 5.854 0 0 0 10 4.153a5.854 5.854 0 0 0-5.7 7.153L5.853 9.75a1.013 1.013 0 0 1 1.649-.617c.182.153.304.364.346.598l.99.988-.727.727-.696-.697a1.007 1.007 0 0 1-1.115.007Zm5.443-.816-4.948 4.949c.95.626 2.065.96 3.204.959a5.855 5.855 0 0 0 5.304-3.387l-2.528-2.529a1.006 1.006 0 0 1-1.032.008Zm.528-1.322a.455.455 0 1 0-.033.909.455.455 0 0 0 .033-.91Zm-5.413.829a.455.455 0 1 0 0 .91.455.455 0 0 0 0-.91Z" fill="#fff"/></svg>
