<svg width="20" height="20" fill="none" xmlns="http://www.w3.org/2000/svg"><path d="m4.808 6.48-.94.907-.453 1.603.453.766.418.523v.453l-.175 1.672v2.23l.349.488.348.801.384.871.731.628 1.08.244 1.36-.244 2.438-.628 2.927-3.832 1.359-2.44-.627-3.135-3.206-2.404-2.195-.558-2.056.94-2.195 1.116Z" fill="#FFB133"/><path fill-rule="evenodd" clip-rule="evenodd" d="M9.007.099c-1.433.348-2.475 1.47-3.27 3.52-.17.44-.283.601-.735 1.05-.622.62-.937 1.179-1.03 1.832a2.63 2.63 0 0 1-.208.715 1.389 1.389 0 0 0-.147.573c0 .25-.04.34-.244.543-.279.28-.305.471-.114.852.071.142.15.348.177.458.027.11.208.367.402.573l.354.375-.12.471a6.363 6.363 0 0 0-.114 2.224c.067.463.063.606-.03.92-.148.497-.087.716.281 1.018.242.198.328.33.42.646.304 1.045.742 1.507 1.808 1.906.224.084.561.296.79.496.532.468.835.611 2.094.992.588.178 1.222.4 1.408.495.187.095.368.172.401.172.034 0 .116-.263.184-.584.123-.587.485-1.365.663-1.424.069-.023.08.012.043.135a4.74 4.74 0 0 0-.09.646l-.04.48.55-.578c.303-.318 1.005-.955 1.56-1.416 1.839-1.525 2.469-2.26 2.787-3.25.232-.72.18-1.73-.135-2.615-.2-.563-.229-.745-.282-1.777-.063-1.23-.173-1.78-.55-2.755-.429-1.11-1.16-2.148-1.969-2.793-.263-.21-.478-.433-.478-.496s-.05-.32-.112-.572C12.769.931 10.848-.348 9.007.1Zm.823 5.464c.308.277.662.826.583.905-.014.014-.173-.062-.354-.168-.323-.189-.34-.19-.825-.11-.272.045-.991.23-1.598.409-1.188.351-1.228.35-1.23-.052-.002-.232.348-.57.8-.774.284-.129.503-.163 1.185-.184.46-.015.865-.055.901-.09.04-.037.001-.13-.1-.238l-.165-.176.222.078c.122.042.383.222.58.4Zm-3.882 1.18c.026.105.123.308.217.45.172.263.213.439.118.495a1.67 1.67 0 0 1-.29.082c-.205.044-.23.035-.19-.068.026-.07-.012-.19-.095-.296-.17-.215-.18-.555-.024-.728.157-.174.21-.16.264.064Zm-.837.45c.06.085.109.19.109.232 0 .042-.237.151-.527.242-.452.141-.537.15-.592.065-.1-.158-.082-.204.171-.457.293-.293.666-.33.84-.082Zm5.518.156c.06.154-.091.768-.294 1.196-.1.21-.353.568-.565.796-.29.314-.352.415-.254.415.232.001.656.145.616.21-.021.035-.148.084-.281.109-.133.025-.258.07-.277.1-.018.031.167.2.412.375.46.328.871.817 1.054 1.253l.104.25-.296-.205a1.93 1.93 0 0 0-.497-.252l-.2-.047.178.305c.098.169.21.388.247.488l.068.18-.253-.128a1.302 1.302 0 0 0-.491-.13h-.24l.324.346c.402.43.412.6.062.99l-.262.289.367-.036c.205-.02.425-.088.499-.155.126-.114.135-.112.18.032.059.184-.015.72-.141 1.022-.129.309-.634.84-.971 1.02-.24.129-.396.151-1.049.151-.685 0-.808-.02-1.163-.186l-.398-.186-.02.343-.021.343-.418-.28-.419-.278-.022.211c-.012.116.043.466.122.779.079.312.132.58.117.594-.094.094-.488-.136-.848-.498-.512-.513-.629-.84-.567-1.584.041-.483.039-.49-.112-.442-.405.13-.591.122-.639-.03-.065-.205.16-.543.568-.85.964-.727 2.204-1.012 4.06-.935l1.084.045-.313-.15c-.467-.222-1.325-.355-2.195-.34-.422.007-.823.01-.892.004-.189-.014-.327-.427-.335-1-.004-.28-.029-.586-.057-.682-.045-.157-.061-.139-.173.195-.095.282-.119.533-.1 1.064l.023.694-.662.313c-.364.171-.701.312-.75.312-.17.001-.239-.37-.204-1.114.032-.693.15-1.187.375-1.568.075-.128.1-.131.313-.044.36.147.606.173.724.075.094-.078.08-.1-.106-.179-.415-.175-.43-.713-.024-.868.243-.092.484-.031.58.148.102.19.207.107.21-.164.005-.506.537-.77.929-.461.27.212.256.604-.033.933-.128.147-.178.246-.122.246.175 0 .555-.28.674-.494.215-.39.257-.417.779-.525.285-.06.598-.15.695-.2.394-.205.7-.72.7-1.18 0-.173.062-.315.216-.49.235-.268.324-.302.384-.145Zm-2.707.316c.023.3-.203.697-.397.697-.18 0-.233-.099-.233-.44 0-.522.59-.763.63-.257Zm6.05.377.238.237v.76c0 .876-.11 1.293-.418 1.587-.303.291-.445.202-.384-.242.04-.288.022-.389-.103-.591-.083-.135-.14-.3-.128-.367.043-.22.228-.13.378.183.183.381.252.29.225-.301-.015-.346.008-.477.1-.58a.537.537 0 0 0 .12-.174c0-.076-.5-.208-.774-.204l-.27.004.104-.202c.214-.413.567-.456.913-.11ZM6.519 8.4c.111.17.109.185-.06.366-.097.104-.212.26-.257.347-.118.229-.214.126-.214-.228 0-.62.277-.873.53-.485Zm-2.02.346c.117.304-.24 1.026-.43.869-.052-.043-.114-.173-.14-.289-.039-.177-.01-.249.184-.448.254-.263.327-.287.386-.132Zm2.295.771c-.157.157-.135.262.077.36.209.097.37.016.37-.185 0-.26-.26-.362-.447-.175Zm-1.178.425c-.08.08-.051.28.05.366.078.064.129.042.245-.106.08-.102.146-.213.146-.246 0-.07-.373-.082-.441-.014Zm1.525 3.794a5.258 5.258 0 0 0-.662.14c-.345.109-.91.418-.91.497 0 .084.744.007 1.255-.129.51-.136 1.254-.447 1.254-.524 0-.073-.367-.067-.937.016Z" fill="#000"/><path d="M8.118 3.031c-.836.307-1.393 1.336-1.567 1.812.452-.453 1.777-1.08 2.578-1.15.244-.02-.523-.244-1.324-.07.244-.243.383-.617.313-.592ZM12.2 3.17c-.034.036.105.64.105.942l.767.627-.105-.488.523.104c-.07-.209-.523-.383-.523-.453 0-.446-.197-.813-.313-.94v.662c-.186-.163-.391-.516-.453-.453ZM15.399 9.745c-.045.02-.127.635-.233.918l.498.856.073-.494.453.281c.008-.22-.355-.542-.33-.607.156-.419.1-.83.036-.991l-.232.62c-.117-.218-.185-.62-.265-.583Z" fill="#FF1646"/><rect width="2.569" height=".209" rx=".105" transform="rotate(21.362 -12.286 31.606)" fill="#FF1646"/><path d="M5.374 8.084c-.878 0-1.58.441-1.82.662 0 1.425.957 1.483 1.429 1.324.696-.236.658-1.986.39-1.986Z" fill="#FF1646"/><path d="m5.13 9.133-.255.382c-.088.133.01.298.159.242a.628.628 0 0 0 .275-.186.704.704 0 0 0 .118-.355c.019-.18-.197-.234-.297-.083Z" fill="#000"/><ellipse rx=".254" ry=".453" transform="rotate(15.202 -32.095 20.285)" fill="#fff"/><path d="M9.268 6.83c-1.143 0-2.055.464-2.37.696 0 1.498 1.339 1.526 1.952 1.359 1.15-.314.767-2.056.418-2.056Z" fill="#FF1646"/><path d="m8.985 7.873-.29.462c-.084.133.013.294.16.24a.665.665 0 0 0 .309-.213c.074-.098.11-.25.123-.409.017-.184-.204-.236-.302-.08Z" fill="#000"/><ellipse rx=".315" ry=".453" transform="rotate(15.202 -25.754 32.421)" fill="#fff"/></svg>