<svg width="21" height="20" viewBox="0 0 21 20" fill="none" xmlns="http://www.w3.org/2000/svg">
<path d="M10.7966 20C16.3195 20 20.7966 15.5228 20.7966 10C20.7966 4.47715 16.3195 0 10.7966 0C5.27378 0 0.796631 4.47715 0.796631 10C0.796631 15.5228 5.27378 20 10.7966 20Z" fill="#FEFEFE"/>
<path d="M7.21924 14.0462C7.11648 14.2518 6.89811 14.3802 6.6669 14.3802V14.3866H1.80498C1.1563 13.0636 0.796631 11.5735 0.796631 10.0064C0.796631 4.47656 5.27961 0 10.8031 0C13.6675 0 16.243 1.20103 18.067 3.12781H13.3593C13.128 3.12781 12.9161 3.25626 12.8069 3.46179L10.0131 8.75402H6.41641C6.07602 8.75402 5.79342 9.03019 5.79342 9.37701V10.6294C5.79342 10.9698 6.06959 11.2524 6.41641 11.2524H8.69002L7.21924 14.0462Z" fill="#9B1C2E"/>
<path d="M14.374 5.95375C14.4768 5.74823 14.6952 5.61978 14.9264 5.61978V5.61335H19.7883C20.437 6.93641 20.7966 8.42646 20.7966 9.99357C20.7966 15.5234 16.3137 20 10.7902 20C7.92573 20 5.35026 18.799 3.52624 16.8722H8.23401C8.46523 16.8722 8.67717 16.7437 8.78636 16.5382L11.5802 11.246H15.1769C15.5173 11.246 15.7998 10.9698 15.7998 10.623V9.37058C15.7998 9.03018 15.5237 8.74759 15.1769 8.74759H12.9033L14.374 5.95375Z" fill="#9B1C2E"/>
</svg>
