<svg width="608" height="608" viewBox="0 0 608 608" fill="none" xmlns="http://www.w3.org/2000/svg">
<rect width="608" height="608" fill="#114181"/>
<path fill-rule="evenodd" clip-rule="evenodd" d="M94.0134 93.0267V133.053H100.333H106.653V93.0267V53H100.333H94.0134V93.0267ZM275.187 93.0267V133.053H281.507H287.827L287.896 104.087L287.968 75.12L292.255 80.3867C294.614 83.2833 305.179 96.3194 315.734 109.353C333.055 130.742 335.593 133.053 341.766 133.053H348.608L348.825 93.0267L349.044 53H341.61H334.173V81.6001V110.198L310.901 81.6001C290.544 56.5834 286.847 53 281.408 53H275.187V93.0267ZM301.295 270.423C299.373 274.137 290.856 292.204 282.366 310.572L266.931 343.964H274.5C280.605 343.457 281.5 345.5 285.292 336.873L288.056 331.08H311.225H334.392L336.596 337.4C338.5 344 338 343.72 346.877 343.72H354.956L339.577 310.449C317.173 261.977 318.205 263.667 311 263.667C306.14 263.667 304.029 265.137 301.295 270.423ZM484.162 269.987L483.679 276.307H499.513H515.347V310.013V343.72H521.667H527.987V310.013V276.307H543.787H559.587V269.987V263.667H522.115H484.642L484.162 269.987ZM318.974 298.467C322.698 306.019 325.747 313.129 325.747 314.267C325.747 315.421 319.237 316.333 311 316.333C302.5 316.333 296.253 315.697 296.253 314.922C296.253 312.183 309.536 284.733 310.859 284.733C311.598 284.733 315.249 290.914 318.974 298.467ZM70.84 514.36V554.387H92.4902C116.163 554.387 121.055 552.6 126.566 541.94C130.229 534.858 129.155 523.65 124.297 518.283C120.96 514.596 120.989 514.092 124.76 509.925C127.448 506.955 128.773 502.377 128.773 496.059C128.773 488.069 127.722 485.688 121.893 480.481C115.219 474.517 114.353 474.333 92.9263 474.333H70.84V514.36ZM111.77 490.283C113.591 492.105 115.08 495.356 115.08 497.507C115.08 504.617 109.213 508.04 97.0238 508.04H85.5867V497.507V486.973H97.0238C104.61 486.973 109.573 488.088 111.77 490.283ZM111.77 523.99C113.591 525.812 115.08 529.062 115.08 531.213C115.08 538.323 109.213 541.747 97.0238 541.747H85.5867V531.213V520.68H97.0238C104.61 520.68 109.573 521.794 111.77 523.99Z" fill="#EDADAD"/>
<path fill-rule="evenodd" clip-rule="evenodd" d="M301.295 480.763C299.373 484.477 290.856 502.544 282.366 520.912L266.931 554.304H274.5C275.672 554.207 276.652 554.204 277.498 554.201C281.056 554.188 282.228 554.184 285.292 547.213L288.056 541.42H311.225H334.392L336.596 547.74C337.468 550.761 337.835 552.341 338.829 553.166C340.007 554.142 342.063 554.06 346.877 554.06H354.956L339.577 520.789C321.521 481.725 318.687 475.241 314.496 474.195C313.487 473.943 312.398 474.007 311 474.007C306.14 474.007 304.029 475.477 301.295 480.763ZM318.974 508.807C322.698 516.36 325.747 523.47 325.747 524.607C325.747 525.762 319.237 526.674 311 526.674C302.5 526.674 296.253 526.038 296.253 525.262C296.253 522.524 309.536 495.074 310.859 495.074C311.598 495.074 315.249 501.255 318.974 508.807Z" fill="#EDADAD"/>
<rect x="48" y="300" width="104" height="7" fill="#EDADAD"/>
<rect x="483" y="127.668" width="104" height="7" transform="rotate(-45.886 483 127.668)" fill="#EDADAD"/>
<rect width="104" height="7" transform="matrix(0.696088 0.717956 0.717956 -0.696088 483 478.873)" fill="#EDADAD"/>
</svg>
