<svg width="20" height="20" viewBox="0 0 20 20" fill="none" xmlns="http://www.w3.org/2000/svg">
<path d="M10 20C15.5228 20 20 15.5228 20 10C20 4.47715 15.5228 0 10 0C4.47715 0 0 4.47715 0 10C0 15.5228 4.47715 20 10 20Z" fill="#ED1968"/>
<path d="M7.93803 16.8105C7.13952 16.5893 6.39496 16.2064 5.75053 15.6855C5.11554 15.1964 4.56637 14.605 4.12553 13.9355C3.65544 13.2313 3.31665 12.4479 3.12553 11.623C2.90672 10.635 2.90672 9.61108 3.12553 8.62305C3.312 7.78725 3.62834 6.98586 4.06303 6.24805C4.69941 5.22706 5.60866 4.40441 6.68803 3.87305C7.06708 3.66903 7.46471 3.50161 7.87553 3.37305C8.50053 4.12305 9.12553 4.93555 9.75053 5.74805C9.81303 5.87305 9.93803 5.93555 10.0005 6.06055C9.37362 6.08683 8.7579 6.23545 8.18803 6.49805C7.68424 6.76142 7.23803 7.12264 6.87553 7.56055C6.51885 8.03204 6.24417 8.56027 6.06303 9.12305C5.89612 9.80346 5.91773 10.5165 6.12553 11.1855L8.81303 9.06055C9.43803 9.87305 10.063 10.623 10.688 11.4355C9.81303 12.123 8.87553 12.8105 8.00053 13.5605C8.87553 14.6855 9.81303 15.873 10.688 17.0605C9.76396 17.1698 8.82725 17.0846 7.93803 16.8105ZM13.8943 9.2393C13.8713 9.13698 13.8442 9.03565 13.813 8.93555C13.7287 9.0018 11.8693 10.423 11.1255 11.0605C10.5005 10.248 9.87553 9.49805 9.25053 8.68555C10.1255 7.99805 11.063 7.31055 11.938 6.56055C11.063 5.43555 10.188 4.31055 9.25053 3.12305C9.25053 3.06055 9.18803 3.06055 9.18803 2.99805H10.063C11.6662 3.01301 13.2138 3.58782 14.438 4.62305C15.0347 5.11607 15.5421 5.70803 15.938 6.37305C16.4044 7.08894 16.7035 7.90071 16.813 8.74805C16.9805 9.72218 16.9593 10.7194 16.7505 11.6855C16.5716 12.4951 16.2315 13.2603 15.7505 13.9355C15.3308 14.5838 14.8021 15.1547 14.188 15.623C13.5899 16.1427 12.8863 16.5265 12.1255 16.748C11.563 16.0605 11.063 15.4355 10.563 14.748C10.3762 14.5342 10.2089 14.3041 10.063 14.0605C10.6544 14.0625 11.2383 13.9282 11.7694 13.6681C12.3005 13.408 12.7646 13.029 13.1255 12.5605C13.4855 12.1 13.7414 11.567 13.8755 10.998C13.9918 10.5237 13.998 9.93742 13.8943 9.2393ZM10.9424 14.4724C11.374 15.062 11.8221 15.6393 12.2862 16.2037C12.8798 15.989 13.4283 15.6658 13.9037 15.2505C14.48 14.81 14.9757 14.2728 15.3687 13.663C15.8127 13.0399 16.1269 12.3338 16.2924 11.5868C16.4887 10.6793 16.508 9.74242 16.3487 8.80805C16.2464 8.02447 15.9685 7.27412 15.5355 6.61305C15.166 5.99276 14.6924 5.44074 14.1355 4.98117C13.0106 4.02948 11.5919 3.49484 10.1187 3.46742C10.698 4.20492 11.2849 4.9568 12.308 6.27305L12.583 6.62555L12.243 6.91617C11.7985 7.29427 11.3446 7.66126 10.8818 8.0168C10.838 8.05117 10.3068 8.4593 9.90803 8.76805C10.0724 8.97742 10.263 9.21617 10.5543 9.58055C10.8418 9.93992 11.0324 10.1793 11.1968 10.3887C11.4868 10.1493 11.803 9.89805 12.1818 9.6043C12.243 9.5568 13.2418 8.78805 13.5237 8.5668L14.0587 8.14617L14.2605 8.79617C14.4935 9.54523 14.5181 10.3436 14.3318 11.1055C14.1825 11.7395 13.8976 12.3335 13.4968 12.8468C12.8594 13.6739 11.944 14.2421 10.9199 14.4462L10.9424 14.4724Z" fill="white"/>
</svg>
