<svg width="1008" height="968" viewBox="0 0 1008 968" fill="none" xmlns="http://www.w3.org/2000/svg">
<path d="M265.2 187.3L229 223.5L274.8 269.3L320.7 315.1L316.9 326.3C312 341 310 353.3 310 369.6C310 422.7 337.8 467.9 387 494.8C406.8 505.6 440.8 517.8 478.5 527.5C552.1 546.4 563.4 549.7 577.9 556.5C597.7 565.9 607.5 576.1 611.6 591.5C613.4 598.2 613.3 613.2 611.5 620.4C606.9 637.9 592 655.5 573.5 665.1C548.5 678.2 505 681.8 472.2 673.4C460 670.4 442.7 661.9 434 654.8C416.3 640.2 402.5 615 396.4 585.9C395.4 581.3 394.6 577.4 394.5 577.2C394.2 576.8 291.8 586.8 291.3 587.4C290.9 587.7 291.2 591.9 291.9 596.7C295.1 619.8 303.2 647.3 312.5 666.4L317.9 677.5L273.4 722L229 766.5L265.3 802.8L301.5 839L347.4 793.1L393.2 747.3L401.1 750.6C442.9 768.2 505.6 773.7 566.4 764.9C581 762.8 602.1 757.8 613.2 753.7L619.8 751.3L663.7 795.2L707.5 839L743.7 802.8L780 766.5L739.3 725.8L698.7 685.2L703.8 674.8C714.4 653.5 718.8 635.4 719.7 610.5C721.3 563 709 527.2 681 497.7C651.8 467 618.9 452.4 526 429C460.5 412.6 432.3 401.3 421.1 387.1C410 373.1 409 353.5 418.7 339.2C424.3 330.9 438.1 322 453.1 317C470 311.3 498.4 308.7 519.5 310.9C564 315.6 586.4 334.6 596.2 376.2C597.4 381.3 598.5 385.6 598.6 385.8C598.8 386.1 671.2 383.5 692.9 382.4L705.3 381.8L704.6 373.1C703.2 355.4 699.7 339.6 693.3 323.1L689.8 313.8L734.9 268.6L780 223.5L743.8 187.2L707.5 151L661.9 196.6L616.2 242.3L605.1 238.1C577.8 227.9 551.4 223.4 512.5 222.3C470 221.2 432.7 226.7 404.1 238.3L393.5 242.6L347.5 196.8L301.5 151L265.2 187.3Z" fill="black"/>
</svg>
