<svg width="20" height="20" fill="none" xmlns="http://www.w3.org/2000/svg"><path d="M1.13 8.6C.508 9.304 0 10.165 0 10.512c0 .9 2.294 3.008 3.104 2.853.583-.111.667-.485.667-2.979 0-2.626-.06-2.86-.755-2.959-.5-.07-1.137.325-1.886 1.173Z" fill="#5EFEE2"/><path d="M7.732.17C5.921.638 4.114 1.623 3.06 2.718c-.84.87-.905 1.031-.546 1.59.647.775 1.362.683 2.574-.33 2.541-2.127 7.074-2.112 9.635.031 1.147.96 1.375 1.848.658 2.561-.636.632-1.117.707-2.633-.322-1.146-.778-1.83-1.019-3.411-.892-2.155.173-2.873.892-4.13 2.856-.556 1.236-.49 1.88-.19 2.978.706 2.594 3.315 4.277 5.85 3.772 3.318-.501 3.856-2.826 3.856-3.536 0-.218 0-.175-1.466-.19-.416-.003-.914-.008-1.485-.028l-1.892-.066a1.11 1.11 0 0 1-1.07-1.108c0-.71.575-1.286 1.285-1.286h5.609c.965 0 1.765.746 1.833 1.708.131 1.792-.78 3.734-2.502 5.332-2.678 2.486-7.089 2.597-10.21.256-1.36-1.02-1.803-1.042-2.302-.116-.189.496-.218.874.616 1.644C5.117 19.399 6.782 19.999 9.887 20c2.1 0 3.21-.176 4.13-.658 2.348-1.23 3.802-2.644 4.864-4.729 1.406-2.758 1.495-6.246.222-8.686-1.116-2.137-3.07-4.102-4.956-4.984C12.4.127 9.33-.243 7.732.17Z" fill="url(#a)"/><defs><linearGradient id="a" x1="14.723" y1=".893" x2="4.757" y2="19.151" gradientUnits="userSpaceOnUse"><stop stop-color="#B46FFD"/><stop offset="1" stop-color="#6A38FC"/></linearGradient></defs></svg>
