<svg width="20" height="20" viewBox="0 0 20 20" fill="none" xmlns="http://www.w3.org/2000/svg">
<rect width="20" height="20" fill="#0A0A0A"/>
<path d="M10.0254 1.35223L4.77953 17.407L13.247 11.2589L11.5634 6.08154H10.6718L10.3486 7.52522H10.995L11.3182 10.8855L8.28505 12.4288L10.2491 5.01122H11.2153L10.0254 1.35223Z" fill="url(#paint0_linear_2339_3380)"/>
<path d="M15.2466 17.407L10.4731 13.9706L13.4334 11.8314L15.2466 17.407Z" fill="url(#paint1_linear_2339_3380)"/>
<path d="M12.6855 7.52524L13.7049 10.786L18.3292 7.52524H12.6855Z" fill="url(#paint2_linear_2339_3380)"/>
<path d="M7.26572 7.52524L6.24638 10.786L1.62207 7.52524H7.26572Z" fill="url(#paint3_linear_2339_3380)"/>
<path fill-rule="evenodd" clip-rule="evenodd" d="M10.0247 1.19177L11.283 5.061H10.2866L8.36083 12.334L11.2647 10.8565L10.9491 7.57501H10.2857L10.6312 6.03176H11.5987L13.3047 11.2779L4.68383 17.5374L10.0247 1.19177ZM4.8737 17.2766L13.1878 11.2399L11.5265 6.13132H10.7108L10.4099 7.47544H11.0394L11.3702 10.9145L8.20775 12.5236L10.2101 4.96144H11.146L10.0245 1.51269L4.8737 17.2766ZM1.46436 7.47544H7.33262L6.27271 10.866L1.46436 7.47544ZM1.77826 7.57501L6.21852 10.706L7.19729 7.57501H1.77826ZM12.6172 7.47544H18.4854L13.6771 10.866L12.6172 7.47544ZM12.7525 7.57501L13.7313 10.706L18.1715 7.57501H12.7525ZM13.4586 11.7511L15.3399 17.5362L10.3871 13.9707L13.4586 11.7511ZM10.5572 13.9705L15.1513 17.2778L13.4063 11.9117L10.5572 13.9705Z" fill="url(#paint4_linear_2339_3380)"/>
<path d="M17.4215 9.2178C17.446 9.46339 17.4585 9.7125 17.4585 9.96453C17.4585 12.0017 16.6409 13.8477 15.3164 15.1917L15.8425 16.8435C17.7749 15.1908 18.9999 12.7333 18.9999 9.98942C18.9999 9.37578 18.9387 8.77646 18.8219 8.19727L17.4215 9.2178Z" fill="url(#paint5_linear_2339_3380)"/>
<path d="M13.1326 16.7274C12.1871 17.1636 11.1344 17.407 10.0249 17.407C8.91544 17.407 7.86275 17.1636 6.91717 16.7274L5.5249 17.8089C6.84305 18.5667 8.371 19 10 19C11.667 19 13.2281 18.5463 14.5669 17.7554L13.1326 16.7274Z" fill="url(#paint6_linear_2339_3380)"/>
<path d="M16.7213 6.7287H18.3928C17.1706 3.57768 14.229 1.28573 10.7212 1.00735L11.1687 2.60964C13.621 2.98874 15.6775 4.56774 16.7213 6.7287Z" fill="url(#paint7_linear_2339_3380)"/>
<path d="M1.60742 6.7287H3.3287C4.36183 4.58967 6.38735 3.02086 8.80668 2.62155L9.3785 1C5.82692 1.24254 2.84119 3.54794 1.60742 6.7287Z" fill="url(#paint8_linear_2339_3380)"/>
<path d="M2.59116 9.96453C2.59116 9.7125 2.60367 9.46339 2.62811 9.2178L1.17802 8.19727C1.06127 8.77646 1 9.37578 1 9.98942C1 12.756 2.24538 15.2314 4.20548 16.8843L4.73325 15.1917C3.40871 13.8477 2.59116 12.0017 2.59116 9.96453Z" fill="url(#paint9_linear_2339_3380)"/>
<path fill-rule="evenodd" clip-rule="evenodd" d="M3.26657 6.62913C4.31318 4.50747 6.32724 2.94953 8.73234 2.53314L9.23386 1.11096C5.83892 1.4007 2.9873 3.59856 1.75397 6.62913H3.26657ZM1.64668 6.62913C1.63339 6.66222 1.62029 6.69541 1.60738 6.72869H3.32866C4.36178 4.58967 6.3873 3.02086 8.80663 2.62155L9.37845 1C9.34229 1.00247 9.30619 1.00515 9.27015 1.00805C5.8033 1.2866 2.89076 3.53211 1.64668 6.62913ZM18.3926 6.72869C18.3797 6.69541 18.3666 6.66222 18.3533 6.62913C17.1208 3.56102 14.2509 1.32859 10.8268 1.01636C10.7916 1.01315 10.7563 1.01014 10.721 1.00734L11.1685 2.60963C13.6208 2.98873 15.6773 4.56772 16.7211 6.72869H18.3926ZM11.2471 2.52131C13.6832 2.91928 15.7264 4.48684 16.7832 6.62913H18.246C17.0235 3.62518 14.211 1.43936 10.8555 1.11903L11.2471 2.52131ZM17.526 9.26486C17.5472 9.49527 17.558 9.72865 17.558 9.96453C17.558 12.0073 16.7467 13.8605 15.4294 15.2185L15.8914 16.6691C17.737 15.0362 18.9006 12.6489 18.9006 9.98942C18.9006 9.43632 18.8502 8.89508 18.7539 8.36999L17.526 9.26486ZM17.4216 9.2178C17.4461 9.46339 17.4586 9.7125 17.4586 9.96453C17.4586 12.0017 16.641 13.8477 15.3165 15.1917L15.8425 16.8435C15.87 16.82 15.8972 16.7964 15.9244 16.7726C17.8095 15.121 19 12.6944 19 9.98942C19 9.41377 18.9461 8.85073 18.843 8.30508C18.8362 8.26906 18.8292 8.23313 18.822 8.19727L17.4216 9.2178ZM2.62811 9.2178L1.17802 8.19727C1.17085 8.23286 1.16388 8.26852 1.15713 8.30426C1.05397 8.85017 1 9.41349 1 9.98942C1 12.7171 2.21059 15.1617 4.1232 16.814C4.15049 16.8376 4.17791 16.861 4.20548 16.8843L4.73325 15.1917C3.40871 13.8477 2.59116 12.0017 2.59116 9.96453C2.59116 9.7125 2.60367 9.46339 2.62811 9.2178ZM4.62061 15.2188C3.3031 13.8607 2.49171 12.0074 2.49171 9.96453C2.49171 9.72902 2.5025 9.496 2.52361 9.26595L1.24656 8.36721C1.14995 8.89316 1.09945 9.43535 1.09945 9.98942C1.09945 12.6714 2.28276 15.0765 4.15554 16.7103L4.62061 15.2188ZM13.1215 16.8419C12.1768 17.2689 11.1284 17.5065 10.0249 17.5065C8.92223 17.5065 7.87469 17.2693 6.93058 16.8429L5.7041 17.7957C6.97769 18.4997 8.44196 18.9004 10 18.9004C11.5939 18.9004 13.0897 18.4811 14.3836 17.7465L13.1215 16.8419ZM13.1326 16.7274C12.187 17.1636 11.1343 17.407 10.0249 17.407C8.9154 17.407 7.86271 17.1636 6.91713 16.7274L5.52486 17.8089C5.55601 17.8268 5.58727 17.8445 5.61864 17.8621C6.91527 18.5869 8.40945 19 10 19C11.628 19 13.155 18.5672 14.4726 17.8103C14.5041 17.7922 14.5356 17.7739 14.5668 17.7554L13.1326 16.7274Z" fill="url(#paint10_linear_2339_3380)"/>
<defs>
<linearGradient id="paint0_linear_2339_3380" x1="9.97566" y1="1.35223" x2="9.97566" y2="17.407" gradientUnits="userSpaceOnUse">
<stop stop-color="#AFAFAF"/>
<stop offset="0.223016" stop-color="#F9F9F9"/>
<stop offset="0.51634" stop-color="#999999"/>
<stop offset="0.775252" stop-color="#F4F4F4"/>
<stop offset="1" stop-color="#989898"/>
</linearGradient>
<linearGradient id="paint1_linear_2339_3380" x1="13.1334" y1="12.5034" x2="12.4606" y2="14.7681" gradientUnits="userSpaceOnUse">
<stop stop-color="#A9A9A9"/>
<stop offset="1" stop-color="#F3F3F3"/>
</linearGradient>
<linearGradient id="paint2_linear_2339_3380" x1="15.9425" y1="7.77415" x2="13.7267" y2="10.4349" gradientUnits="userSpaceOnUse">
<stop stop-color="#F5F5F5"/>
<stop offset="1" stop-color="#BDBDBD"/>
</linearGradient>
<linearGradient id="paint3_linear_2339_3380" x1="6.66903" y1="7.84882" x2="4.20502" y2="10.1359" gradientUnits="userSpaceOnUse">
<stop stop-color="#8C8C8C"/>
<stop offset="0.954882" stop-color="#EFEFEF"/>
</linearGradient>
<linearGradient id="paint4_linear_2339_3380" x1="8.14114" y1="9.35499" x2="2.72282" y2="17.2866" gradientUnits="userSpaceOnUse">
<stop stop-color="#4D4D4D"/>
<stop offset="1" stop-color="#CDCDCD"/>
</linearGradient>
<linearGradient id="paint5_linear_2339_3380" x1="18.4778" y1="9.16802" x2="15.8371" y2="15.8865" gradientUnits="userSpaceOnUse">
<stop stop-color="#F8F8F8"/>
<stop offset="0.605306" stop-color="#959595"/>
<stop offset="1" stop-color="#D9D9D9"/>
</linearGradient>
<linearGradient id="paint6_linear_2339_3380" x1="6.51938" y1="17.407" x2="13.4558" y2="17.4815" gradientUnits="userSpaceOnUse">
<stop stop-color="#959595"/>
<stop offset="1" stop-color="#DDDDDD"/>
</linearGradient>
<linearGradient id="paint7_linear_2339_3380" x1="11.4422" y1="1.85005" x2="17.2156" y2="6.59759" gradientUnits="userSpaceOnUse">
<stop stop-color="#9C9C9C"/>
<stop offset="1" stop-color="#B6B6B6"/>
</linearGradient>
<linearGradient id="paint8_linear_2339_3380" x1="9.12989" y1="1.50156" x2="2.5852" y2="6.74608" gradientUnits="userSpaceOnUse">
<stop stop-color="#A0A0A0"/>
<stop offset="0.324006" stop-color="#F3F3F3"/>
<stop offset="1" stop-color="#969696"/>
</linearGradient>
<linearGradient id="paint9_linear_2339_3380" x1="1.82044" y1="8.86933" x2="4.21229" y2="16.4595" gradientUnits="userSpaceOnUse">
<stop stop-color="#F2F2F2"/>
<stop offset="1" stop-color="#959595"/>
</linearGradient>
<linearGradient id="paint10_linear_2339_3380" x1="8.06077" y1="9.98942" x2="2.0099" y2="18.4955" gradientUnits="userSpaceOnUse">
<stop stop-color="#4D4D4D"/>
<stop offset="1" stop-color="#CDCDCD"/>
</linearGradient>
</defs>
</svg>
