<svg width="100" height="100" viewBox="0 0 100 100" fill="none" xmlns="http://www.w3.org/2000/svg">
<rect width="100" height="100" fill="#0A0A0A"/>
<path d="M50.9865 82.629C45.7787 82.6311 40.6445 81.3996 36.0043 79.0354C31.3642 76.6712 27.3499 73.2415 24.2904 69.0272C21.2309 64.813 19.2131 59.9339 18.4022 54.7897C17.5913 49.6454 18.0104 44.3823 19.6252 39.4312C21.24 34.4801 24.0046 29.9819 27.6925 26.305C31.3804 22.628 35.8868 19.8769 40.8427 18.2768C45.7985 16.6768 51.0629 16.2734 56.2047 17.0996C61.3465 17.9258 66.2195 19.9581 70.4247 23.0302C71.132 23.5489 71.623 24.3105 71.8035 25.1689C71.984 26.0273 71.8412 26.9221 71.4026 27.6818L64.8187 39.0916C64.5558 39.5461 64.1955 39.9369 63.7638 40.2358C63.3321 40.5348 62.8396 40.7345 62.3216 40.8208C61.8037 40.907 61.273 40.8776 60.7677 40.7347C60.2624 40.5918 59.795 40.3389 59.3989 39.9941C57.7317 38.5391 55.7161 37.5406 53.5484 37.0959C51.3807 36.6512 49.1348 36.7754 47.0293 37.4565C44.9239 38.1375 43.0307 39.3522 41.5341 40.9822C40.0375 42.6122 38.9885 44.602 38.4893 46.7578C37.9901 48.9136 38.0576 51.1619 38.6853 53.2839C39.3131 55.4058 40.4796 57.3291 42.0713 58.8663C43.6631 60.4035 45.6258 61.5024 47.7683 62.0558C49.9108 62.6092 52.1602 62.5984 54.2973 62.0244C55.1368 61.7997 55.9515 61.491 56.7291 61.103C57.5747 60.6824 58.5527 60.615 59.448 60.9155C60.3433 61.216 61.0826 61.8598 61.5032 62.7054C61.9238 63.551 61.9913 64.529 61.6908 65.4243C61.3903 66.3196 60.7464 67.0589 59.9009 67.4795C58.6942 68.075 57.4312 68.5486 56.1306 68.8934C52.98 69.741 49.6695 69.8024 46.4896 69.0721C43.3097 68.3419 40.3577 66.8424 37.8925 64.7051C35.4274 62.5679 33.5244 59.8583 32.3507 56.8141C31.177 53.7699 30.7684 50.4841 31.1607 47.2452C31.5531 44.0062 32.7344 40.9131 34.601 38.2371C36.4676 35.5612 38.9624 33.3843 41.8666 31.8975C44.7708 30.4106 47.9954 29.6593 51.2577 29.7094C54.5199 29.7595 57.72 30.6096 60.5772 32.1849L63.5368 27.0573C59.1029 24.5924 54.0417 23.4866 48.9837 23.8775C43.9257 24.2684 39.0945 26.1387 35.0919 29.2556C31.0893 32.3725 28.0922 36.5982 26.4739 41.4062C24.8557 46.2142 24.6877 51.3921 25.9911 56.2948C27.2944 61.1976 30.0114 65.6086 33.8036 68.9783C37.5958 72.348 42.2957 74.5275 47.3177 75.2453C52.3397 75.9631 57.4619 75.1875 62.0463 73.0151C66.6307 70.8427 70.4746 67.3696 73.0992 63.0282L64.642 58.1433C64.2246 57.9162 63.8569 57.6078 63.5605 57.2363C63.2642 56.8649 63.0452 56.4378 62.9164 55.9804C62.7877 55.523 62.7518 55.0444 62.811 54.5729C62.8701 54.1014 63.023 53.6465 63.2607 53.235C63.4983 52.8235 63.816 52.4637 64.1949 52.1769C64.5738 51.8901 65.0062 51.6821 65.4668 51.565C65.9273 51.4479 66.4067 51.4243 66.8765 51.4953C67.3464 51.5664 67.7972 51.7309 68.2026 51.9789L79.603 58.5769C80.3648 59.0164 80.9368 59.7224 81.2088 60.5587C81.4808 61.3951 81.4334 62.3025 81.0757 63.106C78.4778 68.9157 74.2549 73.85 68.9161 77.314C63.5774 80.778 57.3506 82.6238 50.9865 82.629V82.629Z" fill="#E83B41"/>
<path d="M35.9831 27.901C35.1997 27.8999 34.4384 27.6408 33.817 27.1638C33.1956 26.6867 32.7485 26.0183 32.5451 25.2618L30.5704 17.8932C30.3257 16.9795 30.454 16.006 30.9271 15.1869C31.4001 14.3679 32.1792 13.7702 33.0929 13.5256C34.0066 13.2809 34.9801 13.4092 35.7992 13.8823C36.6183 14.3553 37.2159 15.1344 37.4606 16.0481L39.4353 23.419C39.5748 23.9463 39.5914 24.4985 39.484 25.0332C39.3766 25.5679 39.1479 26.0709 38.8156 26.5033C38.4833 26.9358 38.0562 27.2863 37.5672 27.5277C37.0782 27.7692 36.5403 27.8953 35.9949 27.8963L35.9831 27.901Z" fill="#E83B41"/>
<path d="M48.4511 23.8998C47.6683 23.8987 46.9076 23.6399 46.2866 23.1633C45.6656 22.6867 45.2189 22.0188 45.0154 21.2629L43.2057 14.5047C43.0812 14.0519 43.0475 13.579 43.1065 13.1132C43.1655 12.6473 43.316 12.1978 43.5495 11.7903C43.7829 11.3829 44.0947 11.0257 44.4667 10.7393C44.8388 10.4528 45.2639 10.2428 45.7174 10.1213C46.171 9.99977 46.6441 9.96918 47.1096 10.0313C47.575 10.0933 48.0236 10.2469 48.4294 10.483C48.8353 10.7192 49.1904 11.0332 49.4744 11.4072C49.7584 11.7811 49.9656 12.2076 50.0841 12.6619L51.8915 19.4225C52.0127 19.8742 52.0437 20.3453 51.9828 20.8089C51.9219 21.2725 51.7703 21.7196 51.5366 22.1247C51.3029 22.5297 50.9917 22.8847 50.6208 23.1695C50.2499 23.4543 49.8265 23.6632 49.3748 23.7843C49.0732 23.8625 48.7627 23.9013 48.4511 23.8998V23.8998Z" fill="#E83B41"/>
<path d="M52.6218 90C51.8382 89.999 51.0769 89.7397 50.4558 89.2621C49.8346 88.7845 49.3883 88.1154 49.1861 87.3584L47.2114 79.9922C47.0904 79.5407 47.0595 79.0698 47.1205 78.6064C47.1815 78.143 47.3332 77.6961 47.5669 77.2913C47.8006 76.8865 48.1117 76.5317 48.4825 76.2471C48.8533 75.9625 49.2766 75.7538 49.7281 75.6328C50.1796 75.5118 50.6505 75.4809 51.1139 75.5419C51.5773 75.6029 52.0242 75.7546 52.429 75.9883C52.8338 76.222 53.1886 76.5331 53.4732 76.9039C53.7577 77.2747 53.9665 77.698 54.0875 78.1495L56.0622 85.5157C56.2007 86.0429 56.2166 86.5948 56.1088 87.1291C56.001 87.6634 55.7723 88.1659 55.4401 88.5981C55.108 89.0304 54.6813 89.3808 54.1928 89.6225C53.7043 89.8643 53.1669 89.991 52.6218 89.9929V90Z" fill="#E83B41"/>
<path d="M65.2523 86.6162C64.4692 86.615 63.7083 86.3558 63.0872 85.8788C62.4662 85.4017 62.0196 84.7333 61.8166 83.977L60.0069 77.2187C59.7696 76.3089 59.9018 75.3422 60.3746 74.5295C60.8475 73.7168 61.6226 73.1241 62.5308 72.8808C63.439 72.6375 64.4066 72.7633 65.2224 73.2308C66.0382 73.6982 66.636 74.4694 66.8853 75.376L68.695 82.1342C68.8162 82.5859 68.8471 83.057 68.786 83.5206C68.7249 83.9842 68.573 84.4312 68.3391 84.8361C68.1051 85.2409 67.7937 85.5957 67.4225 85.8801C67.0514 86.1646 66.6278 86.373 66.176 86.4936C65.8749 86.5753 65.5643 86.6165 65.2523 86.6162V86.6162Z" fill="#E83B41"/>
</svg>
