<svg width="1418" height="1418" viewBox="0 0 1418 1418" fill="none" xmlns="http://www.w3.org/2000/svg">
<g clip-path="url(#clip0_530_4889)">
<path d="M708.7 0C317.9 0 0 317.9 0 708.7C0 1099.5 317.9 1417.4 708.7 1417.4C1099.5 1417.4 1417.4 1099.5 1417.4 708.7C1417.4 317.9 1099.4 0 708.7 0ZM708.7 1377.2C340.1 1377.2 40.2 1077.3 40.2 708.7C40.2 340.1 340 40.2 708.7 40.2C1077.4 40.2 1377.2 340.1 1377.2 708.7C1377.2 1077.3 1077.3 1377.2 708.7 1377.2ZM843.7 409.7L781.5 471.9C760.4 456.8 734.6 448 706.7 448C635.5 448 577.6 505.9 577.6 577.1C577.6 641 624.2 694.1 685.2 704.4V751.1C624.2 761.4 577.6 814.5 577.6 878.4C577.6 949.6 635.5 1007.5 706.7 1007.5C777.9 1007.5 835.8 949.6 835.8 878.4C835.8 814.5 789.2 761.4 728.2 751.1V704.4C789.2 694.1 835.8 641 835.8 577.1C835.8 549.3 826.9 523.5 811.9 502.3L874.1 440.1L843.7 409.7ZM792.8 878.5C792.8 926 754.2 964.6 706.7 964.6C659.2 964.6 620.6 926 620.6 878.5C620.6 831 659.2 792.4 706.7 792.4C754.2 792.4 792.8 831 792.8 878.5ZM706.7 663.2C659.2 663.2 620.6 624.6 620.6 577.1C620.6 529.6 659.2 491 706.7 491C754.2 491 792.8 529.6 792.8 577.1C792.8 624.6 754.2 663.2 706.7 663.2Z" fill="#181EA9"/>
</g>
<defs>
<clipPath id="clip0_530_4889">
<rect width="1417.3" height="1417.3" fill="white"/>
</clipPath>
</defs>
</svg>
