<svg width="20" height="20" fill="none" xmlns="http://www.w3.org/2000/svg"><path d="M11.815 1.061c.268-.76.699-1.058 1.27-.912.555.14.764.585.645 1.424.604.162 1.215.325 1.825.49.46.123.926.233 1.38.377a3.794 3.794 0 0 1 2.7 3.687c.004 1.953 0 3.906.018 5.859a3.897 3.897 0 0 1-1.916 3.512 919.338 919.338 0 0 0-5.864 3.828 3.133 3.133 0 0 1-2.911.395 5.956 5.956 0 0 1-1.167-.637 910.239 910.239 0 0 1-5.656-3.681 3.737 3.737 0 0 1-1.792-3.317C.35 10.112.34 8.138.355 6.165A3.803 3.803 0 0 1 3.27 2.383c.972-.265 1.948-.514 2.923-.77.872-.23 1.75-.438 2.613-.696a4.244 4.244 0 0 1 2.566.03c.14.045.284.074.442.114ZM.721 9.184H.717c0 .997-.008 1.995.002 2.993a3.315 3.315 0 0 0 1.55 2.872c1.899 1.263 3.806 2.514 5.721 3.754a3.471 3.471 0 0 0 4.014.018 329.57 329.57 0 0 0 5.705-3.721 3.449 3.449 0 0 0 1.608-3.014c.01-1.974.007-3.948.003-5.922a3.479 3.479 0 0 0-2.606-3.436c-1.012-.279-2.03-.537-3.05-.79a.86.86 0 0 0-.453.032.999.999 0 0 1-1.169-.33.546.546 0 0 0-.205-.186 4.817 4.817 0 0 0-2.87-.225c-1.86.517-3.73 1.002-5.594 1.501A3.474 3.474 0 0 0 .72 6.16c-.004 1.008 0 2.016 0 3.025Z" fill="url(#a)"/><path d="M12.67 4.236c0-.495-.09 1.385-.09.943.223 0 .037.21.27.21 0 .4.146-1.743.12-1.346-.019.283.281.364.539.425.67.16 1.336.335 1.999.526A2.156 2.156 0 0 1 17.14 6.83c.072.421-.133.39-.55.497-1.571.407-3.31.125-4.877.544-.544.146-.962 1.05-.991 1.61-.022.413.114 1.126.138 1.539.037.63.619 1.581 1.25 1.472.604-.105 1.76-.318 2.355-.469a.892.892 0 0 0 .409-.775c-.062-.212-.179-.643-.379-.595-.474.113.21-.404-.264-.288-.597.145-1.393.517-1.406-.092-.006-.276.027-.234.036-.51.009-.296.194-.262.493-.342 1.58.035 1.643-.79 3.06-1.156.076-.02.26-.088.318-.026.274.289.425.672.423 1.07.007.743.013 1.486-.003 2.228a2.112 2.112 0 0 1-1.535 1.978c-1.705.476-3.417.932-5.136 1.354a2.442 2.442 0 0 1-1.125-.035c-1.595-.397-3.18-.832-4.766-1.259a2.181 2.181 0 0 1-1.717-2.231c-.003-1.39-.003-2.78 0-4.17a2.159 2.159 0 0 1 1.655-2.18C6.125 4.56 7.724 4.14 9.322 3.71c.474-.127.973-.12 1.444.018.56.157 1.274.341 1.904.509ZM3.769 9.824h-.005c0 .573.016 1.146-.006 1.718a.504.504 0 0 0 .448.599c1.52.387 3.031.804 4.546 1.21.39.105.511.02.512-.383.003-1.22-.006-2.44.005-3.659a.435.435 0 0 0-.379-.49C7.342 8.414 5.796 8 4.25 7.591c-.358-.094-.477-.007-.48.355-.005.626-.001 1.252-.001 1.877Z" stroke="#F6F6F6" stroke-width=".192" stroke-miterlimit="10"/><path d="M12.518 4.195V2.827h.643c0 .4.02.8-.006 1.198-.02.283.096.382.354.443.67.16 1.336.335 1.999.526a2.155 2.155 0 0 1 1.634 1.836c.071.421.02.47-.397.578-1.57.406-3.14.818-4.708 1.234a1.142 1.142 0 0 0-.895 1.105c-.021.413-.02.827.005 1.24a1.135 1.135 0 0 0 1.287 1.032c.605-.104 1.2-.269 1.796-.42a.305.305 0 0 0 .255-.405.32.32 0 0 0-.429-.222c-.474.113-.946.237-1.42.353-.597.145-.845-.042-.858-.651-.006-.276-.01-.553-.002-.828a.564.564 0 0 1 .45-.58c1.414-.376 2.827-.755 4.243-1.122a.331.331 0 0 1 .264.095c.274.289.425.672.423 1.07.007.743.013 1.486-.003 2.228a2.112 2.112 0 0 1-1.535 1.978c-1.705.476-3.417.932-5.136 1.354a2.442 2.442 0 0 1-1.125-.035c-1.595-.397-3.18-.832-4.766-1.259a2.182 2.182 0 0 1-1.717-2.231c-.003-1.39-.003-2.78 0-4.17a2.159 2.159 0 0 1 1.655-2.18C6.125 4.56 7.724 4.14 9.322 3.71c.474-.127.973-.12 1.444.018.56.157 1.123.3 1.752.468Zm-8.75 5.63h-.004c0 .572.016 1.145-.006 1.717a.504.504 0 0 0 .448.599c1.52.387 3.031.804 4.546 1.21.391.105.511.02.512-.383.003-1.22-.006-2.44.005-3.659a.435.435 0 0 0-.379-.49C7.342 8.413 5.796 8 4.25 7.591c-.358-.094-.477-.007-.48.355-.005.626-.001 1.252-.001 1.877Z" fill="url(#b)"/><path d="M3.768 9.825c0-.626-.003-1.252.002-1.877.002-.363.122-.45.48-.356 1.546.409 3.092.823 4.64 1.226a.435.435 0 0 1 .379.491c-.011 1.22-.002 2.44-.005 3.659-.001.403-.121.488-.512.383-1.515-.406-3.027-.823-4.546-1.21a.504.504 0 0 1-.448-.599c.022-.572.006-1.145.006-1.717h.004Zm1.008-.851c0 .622-.004 1.213.007 1.803a.246.246 0 0 0 .14.175c.168.05.339.09.511.121v-1.5c0-.49 0-.49-.48-.584-.042-.008-.084-.008-.178-.015Zm2.886 2.684c0-.517-.026-1.015.009-1.508.026-.358-.098-.53-.444-.56-.062-.006-.124-.014-.228-.026v1.402c.001.587.001.587.663.692Z" fill="#000"/><path d="M4.777 8.974c.093.007.136.007.177.015.48.093.48.093.48.584v1.5a4.477 4.477 0 0 1-.51-.121.247.247 0 0 1-.141-.174c-.01-.591-.006-1.182-.006-1.804ZM7.663 11.658C7 11.553 7 11.553 7 10.966V9.564c.104.012.165.02.227.026.347.03.47.202.444.56-.035.493-.008.99-.008 1.508Z" fill="#fff"/><path d="M12.824 2.108a1.013 1.013 0 1 0 0-2.025 1.013 1.013 0 0 0 0 2.025Z" fill="url(#c)"/><path d="M9.924 7.637c.047-.188-1.327-.692-3.07-1.124-1.742-.433-3.192-.63-3.239-.442-.046.188 1.328.692 3.07 1.124 1.742.433 3.192.63 3.24.442Z" fill="url(#d)"/><defs><linearGradient id="a" x1=".346" y1="10.015" x2="19.654" y2="10.015" gradientUnits="userSpaceOnUse"><stop stop-color="#F5DE4A"/><stop offset="1" stop-color="#F47B32"/></linearGradient><linearGradient id="b" x1="43.928" y1="110.115" x2="248.335" y2="110.115" gradientUnits="userSpaceOnUse"><stop stop-color="#F5DE4A"/><stop offset="1" stop-color="#F47B32"/></linearGradient><linearGradient id="c" x1="37.789" y1=".25" x2="37.789" y2="4.354" gradientUnits="userSpaceOnUse"><stop stop-color="#F5DE4A"/><stop offset="1" stop-color="#F47B32"/></linearGradient><radialGradient id="d" cx="0" cy="0" r="1" gradientUnits="userSpaceOnUse" gradientTransform="matrix(2.24347 .55687 -.08283 .33372 6.77 6.854)"><stop stop-color="#fff" stop-opacity=".8"/><stop offset="1" stop-color="#fff" stop-opacity="0"/></radialGradient></defs></svg>
