<svg width="100" height="100" viewBox="0 0 100 100" fill="none" xmlns="http://www.w3.org/2000/svg">
<rect width="100" height="100" fill="black"/>
<path d="M50.8417 49.832L59.5345 61.5845H71.776L63.3598 49.832L71.776 38.0767H59.5345L50.8417 49.832Z" fill="white"/>
<path d="M90 38.0655H77.6887L69.0629 49.8208L77.6887 61.5733C71.22 76.3827 53.9014 83.1363 39.0865 76.6621C24.2715 70.1879 17.5262 52.8917 23.9865 38.0655C30.4467 23.2394 47.7737 16.5053 62.5887 22.9767C67.2565 24.9997 71.3104 28.2143 74.344 32.2982H87.7562C78.0882 11.92 53.6667 3.2942 33.2968 12.9622C12.9269 22.6302 4.2928 47.0517 13.9608 67.4216C23.6288 87.7915 48.0503 96.4257 68.4202 86.7576C73.5746 84.3009 78.1566 80.7908 81.8707 76.454C85.5848 72.1171 88.3484 67.0498 89.9832 61.5789L81.4972 49.8264L90 38.0655Z" fill="white"/>
</svg>
