<svg width="20" height="21" viewBox="0 0 20 21" fill="none" xmlns="http://www.w3.org/2000/svg">
<path d="M10 20.2259C15.5228 20.2259 20 15.7487 20 10.2259C20 4.70301 15.5228 0.225861 10 0.225861C4.47715 0.225861 0 4.70301 0 10.2259C0 15.7487 4.47715 20.2259 10 20.2259Z" fill="white"/>
<path d="M4.36257 7.34252L2.88033 8.68471L3.49883 9.36774L4.32664 8.61815L4.91572 9.21524V11.8977H5.83717V8.83721L4.36257 7.34252Z" fill="#8D9A9D"/>
<path d="M2.72885 11.099V14.3551H7.60135V13.4337H3.65031V11.099H2.72885Z" fill="#8D9A9D"/>
<path fill-rule="evenodd" clip-rule="evenodd" d="M7.54127 2.27618L6.55452 3.28178H5.57775L4.38867 4.35195L3.97063 5.75539L2.16432 6.37826L0.935791 8.69071V13.1791L2.16146 15.5583L4.74904 16.4426L4.64994 16.5175L5.87766 18.1425H7.94047L9.38762 16.2003V2.58295L7.54127 2.27618ZM5.93135 4.20324H6.50744L7.10696 5.06341L7.86292 4.53653L7.34436 3.7925L7.86319 3.26376L8.46616 3.36394V11.0247L7.69488 10.4975L7.96219 8.41342L6.72288 6.337L5.93164 6.80926L7.00769 8.61215L6.70913 10.9399L8.46616 12.1408V15.8947L7.47794 17.221H6.33636L5.79782 16.5082H6.90816V15.5868H5.0941L2.81065 14.8063L1.85725 12.9557V8.92028L2.8078 7.13107L4.71858 6.47217L5.19778 4.86345L5.93135 4.20324Z" fill="#8D9A9D"/>
<path d="M15.4305 7.34252L16.9127 8.68471L16.2942 9.36774L15.4664 8.61815L14.8773 9.21524V11.8977H13.9559V8.83721L15.4305 7.34252Z" fill="#8D9A9D"/>
<path d="M17.0642 11.099V14.3551H12.1917V13.4337H16.1427V11.099H17.0642Z" fill="#8D9A9D"/>
<path fill-rule="evenodd" clip-rule="evenodd" d="M12.2518 2.27618L13.2385 3.28178H14.2153L15.4044 4.35195L15.8224 5.75539L17.6287 6.37826L18.8573 8.69071V13.1791L17.6316 15.5583L15.044 16.4426L15.1431 16.5175L13.9154 18.1425H11.8526L10.4054 16.2003V2.58295L12.2518 2.27618ZM13.8617 4.20324H13.2856L12.6861 5.06341L11.9301 4.53653L12.4487 3.7925L11.9298 3.26376L11.3269 3.36394V11.0247L12.0982 10.4975L11.8309 8.41342L13.0702 6.337L13.8614 6.80926L12.7854 8.61215L13.0839 10.9399L11.3269 12.1408V15.8947L12.3151 17.221H13.4567L13.9952 16.5082H12.8849V15.5868H14.6989L16.9824 14.8063L17.9358 12.9557V8.92028L16.9852 7.13107L15.0745 6.47217L14.5953 4.86345L13.8617 4.20324Z" fill="#8D9A9D"/>
</svg>
