<svg width="20" height="21" viewBox="0 0 20 21" fill="none" xmlns="http://www.w3.org/2000/svg">
<circle cx="10" cy="10" r="10" fill="white"/>
<path d="M14.2894 6.7962C13.8426 7.33569 13.035 7.41604 12.488 6.97527C11.7456 6.37838 10.8472 6.06157 9.8883 6.06157C7.6214 6.06157 5.77576 7.88207 5.77576 10.1181C5.77576 12.3541 7.6214 14.1746 9.8883 14.1746C11.7083 14.1746 13.2584 13.0015 13.796 11.3807H9.8883C9.18077 11.3807 8.60822 10.816 8.60822 10.1181C8.60822 9.4202 9.18077 8.85546 9.8883 8.85546H15.2809C15.9 8.85546 16.4167 9.28935 16.5354 9.86327C16.4609 8.01752 15.6137 6.36461 14.3011 5.21216C14.6665 5.66901 14.6781 6.32787 14.2894 6.7962Z" fill="#27357B"/>
<path d="M9.87433 1.02478C9.16679 1.02478 8.59425 1.58953 8.59425 2.28742C8.59425 2.93481 9.08999 3.46742 9.72537 3.54088C9.7789 3.53859 9.83243 3.53629 9.88829 3.53629C11.4221 3.53629 12.9209 4.06201 14.1079 5.01932C14.18 5.07671 14.2429 5.14329 14.2987 5.21216C15.6114 6.36461 16.4609 8.01752 16.5331 9.86328C16.5494 9.94592 16.5587 10.0309 16.5587 10.1181C16.5587 13.4102 14.0963 16.1443 10.8914 16.6242C10.5586 16.6747 10.2188 16.6999 9.872 16.6999C9.16446 16.6999 8.59192 17.2647 8.59192 17.9626C8.59192 18.6605 9.16446 19.2252 9.872 19.2252C14.9597 19.2252 19.1002 15.1411 19.1002 10.1227C19.1002 5.10426 14.9621 1.02478 9.87433 1.02478Z" fill="#27357B"/>
<path d="M16.561 10.1182C16.561 10.031 16.5517 9.94601 16.5354 9.86336C16.4167 9.28714 15.9 8.85555 15.2809 8.85555H9.88828C9.18074 8.85555 8.6082 9.42029 8.6082 10.1182C8.6082 10.8161 9.18074 11.3808 9.88828 11.3808H13.796C13.256 13.0016 11.7083 14.1747 9.88828 14.1747C7.62137 14.1747 5.77573 12.3542 5.77573 10.1182C5.77573 7.88216 7.62137 6.06166 9.88828 6.06166C10.8472 6.06166 11.7479 6.37847 12.488 6.97536C13.0349 7.41613 13.8426 7.33578 14.2894 6.79629C14.6781 6.32796 14.6665 5.6668 14.2987 5.21225C14.2429 5.14338 14.18 5.0768 14.1079 5.01941C12.9209 4.0621 11.422 3.53638 9.88828 3.53638C9.83474 3.53638 9.78121 3.53867 9.72536 3.54097C6.12252 3.62591 3.21558 6.54376 3.21558 10.1182C3.21558 11.266 3.51581 12.345 4.04181 13.2863C4.06508 13.3184 4.0837 13.3551 4.10232 13.3919C5.25439 15.3662 7.41656 16.7 9.88828 16.7C10.2304 16.7 10.5656 16.6747 10.8937 16.6242C14.0986 16.1467 16.561 13.4102 16.561 10.1182Z" fill="white"/>
<path d="M5.90152 4.35124C6.50897 4.35124 7.00006 3.86684 7.00006 3.26766C7.00006 2.66848 6.50897 2.18408 5.90152 2.18408C5.29406 2.18408 4.80298 2.66848 4.80298 3.26766C4.80298 3.86684 5.29406 4.35124 5.90152 4.35124Z" fill="#1D8BCC"/>
<path d="M3.23069 7.30781C3.83588 7.26538 4.29161 6.74706 4.2486 6.15012C4.20558 5.55317 3.68011 5.10365 3.07492 5.14607C2.46973 5.1885 2.014 5.70682 2.05701 6.30377C2.10003 6.90071 2.6255 7.35024 3.23069 7.30781Z" fill="#1D8BCC"/>
<path d="M3.09686 9.98494C3.09686 9.38576 2.60578 8.90137 1.99832 8.90137C1.39086 8.90137 0.89978 9.38576 0.89978 9.98494C0.89978 10.5841 1.39086 11.0685 1.99832 11.0685C2.60578 11.0685 3.09686 10.5841 3.09686 9.98494Z" fill="#1D8BCC"/>
<path d="M3.14102 12.8201C2.53357 12.8201 2.04248 13.3045 2.04248 13.9036C2.04248 14.5028 2.53357 14.9872 3.14102 14.9872C3.74848 14.9872 4.23956 14.5028 4.23956 13.9036C4.23956 13.7177 4.18836 13.5432 4.10224 13.3917C4.08362 13.355 4.065 13.3205 4.04173 13.2861C3.84157 13.006 3.51341 12.8201 3.14102 12.8201Z" fill="#1D8BCC"/>
<path d="M5.92935 15.6965C5.3219 15.6965 4.83081 16.1809 4.83081 16.7801C4.83081 17.3793 5.3219 17.8637 5.92935 17.8637C6.53681 17.8637 7.02789 17.3793 7.02789 16.7801C7.03022 16.1832 6.53681 15.6965 5.92935 15.6965Z" fill="#1D8BCC"/>
</svg>
