<svg width="100" height="100" viewBox="0 0 100 100" fill="none" xmlns="http://www.w3.org/2000/svg">
<path d="M34.9859 82.2924C33.6981 82.2904 32.4634 81.7785 31.5521 80.8686C30.6408 79.9587 30.1269 78.7249 30.1229 77.4371V67.4684L60.8278 47.3833L30.3333 27.511V11.9857C30.3379 11.4575 30.551 10.9524 30.9262 10.5805C31.3013 10.2086 31.8083 9.99998 32.3365 10C32.7279 10.0016 33.1095 10.1221 33.4308 10.3456L82.4379 43.3542C83.0969 43.7972 83.6369 44.3955 84.0102 45.0964C84.3835 45.7972 84.5788 46.5792 84.5788 47.3733C84.5788 48.1673 84.3835 48.9492 84.0102 49.6501C83.6369 50.3509 83.0969 50.9492 82.4379 51.3922L37.6777 81.4411C36.8893 81.9832 35.9552 82.2739 34.9983 82.2749L34.9859 82.2924Z" fill="url(#paint0_linear_418_148)"/>
<path d="M65.3701 89.9975C64.4102 89.9963 63.4733 89.7038 62.6833 89.1586L18.1409 59.1573C17.4819 58.7143 16.942 58.116 16.5686 57.4152C16.1953 56.7143 16 55.9324 16 55.1384C16 54.3443 16.1953 53.5623 16.5686 52.8615C16.942 52.1606 17.4819 51.5623 18.1409 51.1193L67.3633 18.0656C67.6842 17.8435 68.0649 17.7239 68.4551 17.7225C68.9834 17.7225 69.4903 17.9312 69.8655 18.3031C70.2407 18.675 70.4537 19.18 70.4584 19.7083V35.0532L39.7535 55.1384L70.2405 75.0006V85.1446C70.2466 85.7966 70.1186 86.4429 69.8644 87.0434C69.6103 87.6438 69.2354 88.1857 68.7631 88.6352C67.8489 89.5037 66.6385 89.9917 65.3776 90L65.3701 89.9975Z" fill="url(#paint1_linear_418_148)"/>
<path d="M44.3635 58.1533L58.584 67.4184L44.4661 76.8962L30.2981 67.3583L44.3635 58.1533Z" fill="#264FA1"/>
<path d="M56.2128 44.3659L41.9922 35.1008L56.1101 25.6229L70.2806 35.1609L56.2128 44.3659Z" fill="#264FA1"/>
<defs>
<linearGradient id="paint0_linear_418_148" x1="57.3508" y1="18.169" x2="57.3508" y2="76.6536" gradientUnits="userSpaceOnUse">
<stop offset="0.1" stop-color="#264FA1"/>
<stop offset="0.484" stop-color="#288EC3"/>
<stop offset="0.8" stop-color="#2BBEDE"/>
</linearGradient>
<linearGradient id="paint1_linear_418_148" x1="43.2292" y1="86.097" x2="43.2292" y2="31.3107" gradientUnits="userSpaceOnUse">
<stop offset="0.1" stop-color="#264FA1"/>
<stop offset="0.484" stop-color="#288EC3"/>
<stop offset="0.8" stop-color="#2BBEDE"/>
</linearGradient>
</defs>
</svg>
