<svg width="20" height="20" viewBox="0 0 20 20" fill="none" xmlns="http://www.w3.org/2000/svg">
<circle cx="10" cy="10" r="10" fill="url(#paint0_linear)"/>
<path d="M9.99976 18.9995C14.9702 18.9995 18.9995 14.9702 18.9995 9.99976C18.9995 5.02933 14.9702 1 9.99976 1C5.02933 1 1 5.02933 1 9.99976C1 14.9702 5.02933 18.9995 9.99976 18.9995Z" fill="url(#paint1_linear)"/>
<path fill-rule="evenodd" clip-rule="evenodd" d="M14.2887 17.9139L14.336 17.8791C14.2055 17.64 13.994 17.5146 13.7561 17.4578C13.4163 17.3768 13.0709 17.3019 12.7245 17.2778C11.9544 17.2221 11.1821 17.2091 10.4115 17.1624C9.55316 17.1101 8.69594 17.0376 7.83702 16.9813C7.76221 16.9757 7.65478 17.0038 7.61203 17.0573C7.38703 17.3329 7.16935 17.6164 6.96686 17.9089C6.86786 18.0523 6.80655 18.221 6.72949 18.3757L6.78855 18.4095C6.44998 18.2802 6.11957 18.1305 5.79914 17.9612C5.85764 17.9724 5.93414 17.9634 5.96282 17.9347C6.31494 17.5821 6.6558 17.2181 6.99836 16.8581C6.74243 16.6534 6.49212 16.4717 6.26431 16.2658C6.0517 16.0735 5.96282 15.8187 5.98138 15.5267C6.00951 15.0784 6.20582 14.6965 6.49437 14.3759C6.8358 13.9973 7.21885 13.6559 7.58447 13.2993C7.62947 13.256 7.67615 13.2161 7.71778 13.1778C7.70371 13.1531 7.70203 13.1457 7.69809 13.1429L7.59122 13.0811C6.41675 12.4038 5.8312 11.375 5.81601 10.0324C5.80251 8.88267 6.29188 7.95176 7.15754 7.21659C8.00127 6.50054 8.99518 6.24911 10.0858 6.27386C10.893 6.29242 11.6473 6.47073 12.3498 6.87178C12.3892 6.89428 12.4882 6.86785 12.5242 6.83016C12.8566 6.48198 13.1936 6.13718 13.5052 5.76988C13.8922 5.31426 14.2195 4.81928 14.3551 4.22192C14.4608 3.75618 14.4158 3.31857 14.0784 2.9552C13.5828 2.4214 12.7301 2.4934 12.2953 3.10145C12.2098 3.22069 12.1603 3.36582 12.0765 3.48787C12.0455 3.53287 11.9668 3.54581 11.9094 3.57393C11.8959 3.52331 11.8644 3.471 11.8717 3.42431C11.8909 3.29607 11.9156 3.16557 11.9578 3.04407C12.1715 2.43097 12.5686 2.01248 13.2346 1.9191C13.4512 1.88873 13.6762 1.91404 13.9023 1.91404C13.891 1.89885 13.8865 1.88592 13.8775 1.88198C13.8357 1.85943 13.7931 1.83823 13.7499 1.81842C13.3254 1.62449 12.8869 1.46279 12.4381 1.33468C13.2809 1.5713 14.0845 1.93024 14.8231 2.40003C14.8276 2.44896 14.8248 2.4619 14.8304 2.46865C15.3271 3.0812 15.2635 3.73087 14.9508 4.39235C14.6853 4.95202 14.2983 5.42564 13.8804 5.87675C13.4979 6.28961 13.1131 6.70079 12.7278 7.11421C12.7436 7.12434 12.7526 7.13559 12.7616 7.13559C13.3505 7.13615 13.9394 7.14459 14.5278 7.13221C14.8349 7.12659 15.1077 7.02478 15.2973 6.7531C15.3333 6.70079 15.4311 6.69123 15.5009 6.66198L15.5403 6.71654C15.3771 7.18678 15.2163 7.65758 15.0441 8.12388C15.0295 8.16325 14.9429 8.19531 14.8878 8.19756C14.6797 8.20656 14.4715 8.2015 14.2634 8.2015H13.5153L13.6002 8.37024C14.0052 9.16335 14.1127 10.0043 13.9079 10.8621C13.6059 12.1276 12.7779 12.9455 11.5736 13.3707C10.5904 13.7184 9.58129 13.706 8.57163 13.4647C8.48219 13.4433 8.34382 13.4253 8.29601 13.4731C8.07889 13.6902 7.8494 13.909 7.69303 14.1689C7.37072 14.7044 7.55803 15.0768 8.17226 15.2061L8.1897 15.2084C8.79268 15.2551 9.39511 15.3124 9.99865 15.3456C10.8525 15.3923 11.7075 15.4109 12.5608 15.4621C13.0777 15.493 13.5879 15.5841 14.0536 15.831C14.6532 16.1477 15.0779 16.6146 15.2641 17.2969C15.3079 17.2659 15.3518 17.235 15.3957 17.2029C15.0453 17.4656 14.6757 17.7036 14.2876 17.9139H14.2887ZM11.5607 18.8645C11.0147 18.96 10.4612 19.0052 9.90697 18.9995C10.4607 18.9941 11.0134 18.949 11.5607 18.8645ZM18.9995 10.0279V9.99976C18.9995 9.22353 18.9011 8.47037 18.7166 7.75207C18.9004 8.49705 18.9953 9.26115 18.9995 10.0285V10.0279ZM16.9071 4.23148C16.3855 3.60737 15.7821 3.05642 15.1133 2.59352C15.7979 3.08851 16.3975 3.63412 16.9077 4.23148H16.9071ZM5.67202 17.8914C5.22806 17.6475 4.80545 17.3666 4.40868 17.0516C4.80973 17.3559 5.24734 17.6169 5.67202 17.8914ZM1.00002 10.0172C1.00112 9.53774 1.03816 9.05904 1.11083 8.58511C1.03611 9.05861 0.999055 9.53728 1.00002 10.0166V10.0172ZM2.64022 4.81815C2.99325 4.32706 3.39052 3.86935 3.82707 3.45075C3.38676 3.86555 2.98916 4.32345 2.64022 4.81759V4.81815ZM7.26216 1.42412C8.14927 1.15056 9.07149 1.00769 9.99978 1C9.07081 0.999149 8.14732 1.14222 7.26216 1.42412ZM12.0056 10.3688L11.9718 10.3603C11.9522 10.0881 11.9415 9.8147 11.9122 9.54359C11.8459 8.91585 11.6675 8.323 11.3216 7.78863C10.8098 6.99666 9.95478 6.67716 9.13468 6.99441C8.46138 7.25427 8.1042 7.78863 7.94333 8.4698C7.79034 9.11441 7.80271 9.76746 7.88033 10.4177C7.95514 11.0364 8.13176 11.6253 8.48782 12.149C8.94568 12.8212 9.5841 13.1148 10.3778 12.9821C11.1315 12.8572 11.6051 12.3695 11.798 11.6445C11.9089 11.2305 11.9392 10.7951 12.0062 10.3688H12.0056Z" fill="white"/>
<defs>
<linearGradient id="paint0_linear" x1="18.5" y1="15" x2="1.5" y2="4.5" gradientUnits="userSpaceOnUse">
<stop stop-color="#66A4BF"/>
<stop offset="1" stop-color="#66C4DC"/>
</linearGradient>
<linearGradient id="paint1_linear" x1="16.7496" y1="15.3996" x2="3.24994" y2="4.14992" gradientUnits="userSpaceOnUse">
<stop stop-color="#006895"/>
<stop offset="1" stop-color="#009BC2"/>
</linearGradient>
</defs>
</svg>
