<svg width="20" height="20" viewBox="0 0 20 20" fill="none" xmlns="http://www.w3.org/2000/svg">
<circle cx="10" cy="10" r="10" fill="white"/>
<path fill-rule="evenodd" clip-rule="evenodd" d="M9.04888 0.04696C8.31056 0.149438 7.07286 0.434626 6.60717 0.609626C3.19024 1.89341 0.789472 4.7261 0.157667 8.21967C-0.333925 10.9377 0.338585 13.8189 1.97175 15.9913C4.93257 19.93 10.2506 21.1317 14.6428 18.8547C17.9929 17.1179 20.0899 13.5683 19.997 9.79177C19.8987 5.79473 17.4906 2.30622 13.7629 0.75997C12.3939 0.192164 10.2925 -0.12563 9.04888 0.04696ZM11.6747 1.1241C13.066 1.40239 13.8612 1.71576 14.8962 2.39384C16.2456 3.27783 16.6871 3.85921 16.684 4.74826C16.6823 5.20957 16.65 5.33004 16.4572 5.59154C16.3335 5.75939 15.9654 6.30198 15.6394 6.79734C14.7638 8.12779 15.1742 8.02491 10.7414 8.02491H7.078V10.1933V12.3618H10.0946H13.1113V11.8397V11.3177H11.4114C9.46638 11.3177 9.34467 11.2839 9.00825 10.6509C8.78486 10.2304 8.82894 9.84157 9.14211 9.47004C9.54264 8.99476 9.58125 8.98865 12.1862 8.98865C14.842 8.98865 14.8763 8.99476 15.2407 9.5302L15.4442 9.82904V11.8799V13.9307L15.2351 14.2378C14.8642 14.7828 14.9773 14.7711 10.0759 14.7711C5.93924 14.7711 5.65061 14.762 5.39005 14.6225C5.23729 14.5406 5.03875 14.3754 4.94882 14.2552C4.79075 14.0438 4.78463 13.9139 4.76412 10.2879C4.74039 6.10224 4.73146 6.17701 5.30004 5.79786L5.57338 5.61555L9.76467 5.6129L13.9559 5.61025L14.3917 4.96904C14.812 4.35064 14.822 4.32341 14.6733 4.2068C13.8419 3.55467 12.9173 3.09199 11.9103 2.82431C11.264 2.65252 10.9531 2.61847 9.97398 2.6122C8.60821 2.60345 8.08516 2.71276 6.94744 3.24474C4.76887 4.26342 3.41982 5.83496 2.79775 8.0788C2.65094 8.6083 2.62311 8.92312 2.62166 10.0729C2.62005 11.3591 2.63316 11.4777 2.84731 12.1208C3.54821 14.2251 4.83909 15.7744 6.65189 16.6869C7.832 17.2809 9.57989 17.5855 10.8722 17.4223C13.4355 17.0986 15.5628 15.5879 16.698 13.2853C17.4321 11.7963 17.649 10.5526 17.4265 9.10912C17.3515 8.62323 17.197 7.94371 17.0831 7.5991C16.905 7.0598 16.8897 6.93949 16.974 6.73639C17.1706 6.26287 17.7894 6.07341 18.1876 6.36494C18.4071 6.52565 18.6327 7.06422 18.8661 7.98475C19.0581 8.74234 19.0901 9.02833 19.0903 9.99255C19.0906 10.9856 19.0614 11.2322 18.8407 12.104C17.9785 15.5098 15.4167 18.0569 12.0655 18.8404C9.96127 19.3324 7.75607 19.0739 5.91447 18.1193C4.28636 17.2753 2.86581 15.8676 1.94633 14.187C0.714097 11.9347 0.624965 8.66604 1.73091 6.28551C2.50856 4.61157 3.83081 3.1368 5.37557 2.22028C7.22546 1.12282 9.60112 0.709373 11.6747 1.1241ZM12.2904 4.71943C12.3171 5.38168 12.2342 5.55668 11.9115 5.51926C11.7289 5.49805 11.7005 5.4534 11.6788 5.15376L11.654 4.81243H10.1351H8.61617L8.59115 5.1136C8.56694 5.40594 8.55616 5.41549 8.22433 5.43943L7.88244 5.46416V4.83042C7.88244 4.48187 7.90714 4.17202 7.93739 4.14191C7.96755 4.11171 8.95403 4.09669 10.1295 4.10842L12.2666 4.12978L12.2904 4.71943Z" fill="#0A95A8"/>
</svg>
