<svg width="20" height="20" viewBox="0 0 20 20" fill="none" xmlns="http://www.w3.org/2000/svg">
<path d="M10 20C15.5228 20 20 15.5228 20 10C20 4.47715 15.5228 0 10 0C4.47715 0 0 4.47715 0 10C0 15.5228 4.47715 20 10 20Z" fill="#7F27FF"/>
<path d="M9.61 8.74997H5.0125V13.2637C5.0075 13.7256 5.1925 14.17 5.525 14.4962C5.8575 14.8225 6.31063 15.0043 6.78125 15H9.61062L9.61 8.74997ZM9.71625 6.3881H10.2112C10.7012 5.54435 11.15 4.9706 11.5719 4.6606C12.0919 4.27747 12.6244 4.27435 13.0419 4.68435C13.4319 5.06685 13.505 5.54685 13.2481 6.00935C13.1756 6.1381 13.0794 6.26435 12.9587 6.3881H14.7762C15.2006 6.3881 15.625 6.73685 15.625 7.22122C15.625 7.6381 15.2694 8.05497 14.7762 8.05497H10.3175V6.94372H9.61V8.05497H5.22375C4.8 8.05497 4.375 7.70622 4.375 7.22122C4.375 6.80497 4.73062 6.3881 5.22375 6.3881H7.06125C6.94627 6.28096 6.84394 6.16101 6.75625 6.0306C6.45188 5.5656 6.48875 5.07435 6.88563 4.68435C7.30313 4.27435 7.83562 4.2781 8.35625 4.6606C8.7775 4.9706 9.22625 5.54497 9.71688 6.3881H9.71625ZM8.89437 6.3881C8.53188 5.81122 8.20812 5.41935 7.93187 5.21622C7.67625 5.02872 7.53625 5.02747 7.38563 5.17497C7.23125 5.32685 7.22187 5.45685 7.35125 5.65435C7.49875 5.87997 7.80938 6.13435 8.25688 6.3881H8.89437ZM11.0331 6.3881H11.7956C12.2225 6.1431 12.5044 5.8956 12.6269 5.6756C12.7331 5.4856 12.7106 5.34122 12.5419 5.1756C12.3912 5.02747 12.2513 5.0281 11.9963 5.21622C11.7194 5.41935 11.395 5.81122 11.0337 6.3881H11.0331ZM10.3175 8.74935H14.9156V13.2637C14.9176 13.4931 14.8732 13.7205 14.7852 13.9323C14.6971 14.1441 14.5671 14.3359 14.4031 14.4962C14.0677 14.8241 13.6159 15.0053 13.1469 15H10.3175V8.74935Z" fill="white"/>
</svg>
