<svg width="100" height="100" viewBox="0 0 100 100" fill="none" xmlns="http://www.w3.org/2000/svg">
<rect width="100" height="100" fill="white"/>
<path d="M53.7819 17C24.603 17 10.0181 26.9891 10.0181 46.9672V50.392C10.009 50.8431 10 51.3034 10 51.7638V83.25H46.2181C75.397 83.25 89.9819 73.2609 89.9819 53.2828V49.858C89.991 49.4069 90 48.9466 90 48.4862V17H53.7819ZM42.1104 60.9611C41.1242 60.9611 40.138 60.9611 39.1246 60.9611C39.1246 60.8414 39.1246 60.7309 39.1246 60.6112C39.1246 57.9229 39.1337 55.2438 39.1246 52.5555C39.1246 51.3863 38.9527 50.2355 38.4822 49.1491C38.0118 48.0812 37.3332 47.1789 36.2746 46.6542C34.6551 45.8532 31.9317 45.9084 30.4479 48.1456C29.724 49.2412 29.3531 50.4656 29.3078 51.7546C29.2355 53.7616 29.2626 55.7778 29.2536 57.794C29.2445 58.8436 29.2536 59.8839 29.2536 60.9518C26.4669 60.9518 29.0455 60.9518 26.2497 60.9518C26.2497 53.4578 26.2497 45.9729 26.2497 38.4696C27.245 38.4696 28.2131 38.4696 29.2264 38.4696C29.2264 40.6607 29.2264 42.8611 29.2264 45.0522C30.1855 44.2697 31.3436 43.7725 32.7007 43.5608C34.447 43.2938 36.166 43.4135 37.7856 44.196C39.8394 45.1811 41.0518 46.8935 41.6761 49.057C41.9747 50.0882 42.1013 51.1377 42.1104 52.2149C42.1104 55.0781 42.1104 60.5468 42.1104 60.9611ZM66.2316 60.9611C65.2454 60.9611 64.223 60.9611 63.2278 60.9611C63.2278 58.7423 63.2278 56.4959 63.2278 54.2495C63.1463 54.627 63.0106 55.1517 62.8749 55.5292C61.9792 58.0334 60.2601 59.709 57.8082 60.556C55.2658 61.4398 52.7053 61.403 50.2352 60.2706C47.4214 58.9632 45.82 56.6984 45.4399 53.5682C45.2319 51.8558 45.4218 50.0145 46.1457 48.431C47.1138 46.3043 48.7152 44.8313 50.8776 44.0855C53.8 43.082 56.6863 43.2201 59.4006 44.8128C61.5268 46.0649 62.7754 47.9799 63.2368 50.4196C63.2368 48.072 63.2368 45.89 63.2368 43.5608C64.223 43.5608 65.2454 43.5608 66.2407 43.5608C66.2316 43.7633 66.2316 60.8598 66.2316 60.9611ZM72.9722 60.9611C71.986 60.9611 70.9545 60.9611 69.9683 60.9611C69.9683 55.2162 69.9683 49.324 69.9683 43.5792C70.9545 43.5792 71.9769 43.5792 72.9722 43.5792C72.9722 49.3056 72.9722 55.207 72.9722 60.9611ZM71.4703 41.0566C69.914 41.0566 68.6474 40.0623 68.6474 38.8378C68.6474 37.6134 69.914 36.6191 71.4703 36.6191C73.0265 36.6191 74.2931 37.6134 74.2931 38.8378C74.2931 40.0623 73.0265 41.0566 71.4703 41.0566ZM56.3877 46.4516C58.5411 47.1605 59.8077 48.6704 60.242 50.9076C60.5316 52.4542 60.3777 54.1298 59.6177 55.5292C58.6587 57.3153 57.1206 58.2267 55.1572 58.4385C54.18 58.549 53.221 58.4845 52.2891 58.1531C50.0995 57.3797 48.8871 55.787 48.5071 53.5038C48.4438 53.1355 48.4438 52.5923 48.4076 52.2241C48.4347 50.5761 48.8962 49.0939 50.0452 47.8878C51.0495 46.8475 52.2891 46.3135 53.7096 46.1938C54.6234 46.111 55.5191 46.1662 56.3877 46.4516Z" fill="#222427"/>
</svg>
