<svg width="20" height="20" fill="none" xmlns="http://www.w3.org/2000/svg"><g clip-path="url(#a)"><path d="M9.998 19.997c5.522 0 9.999-4.477 9.999-9.999S15.52 0 9.998 0 0 4.476 0 9.998c0 5.522 4.476 9.999 9.998 9.999Z" fill="url(#b)"/><path d="M9.998 19.997c5.522 0 9.999-4.477 9.999-9.999S15.52 0 9.998 0 0 4.476 0 9.998c0 5.522 4.476 9.999 9.998 9.999Z" fill="url(#c)"/><path d="M7.548 19.695s4.388-2.403-2.5-6.921C1.072 10.164.603 7.09 2.011 3.984a9.703 9.703 0 0 1 2.371-2.257C.37 5.517 4.8 9.024 7.134 10.528c3.585 2.312 8.21 6.535 2.155 9.443 0 0-.98-.064-1.74-.276Z" fill="#DDD"/><path d="M2.259 4.711c-.01.188-.006.376.011.563.221 2.394 2.617 4.412 4.587 5.682 3.183 2.054 4.952 4.145 4.852 5.739-.064 1.033-.912 1.96-2.52 2.757-.114-.01-.295-.028-.507-.056.37-.425.721-1.03.75-1.812.06-1.646-1.321-3.41-4.104-5.237-3.216-2.11-4.224-4.613-3.07-7.636ZM4.38 1.727a9.696 9.696 0 0 0-2.37 2.257c-1.407 3.106-.938 6.18 3.037 8.79 6.887 4.518 2.5 6.92 2.5 6.92.76.213 1.74.277 1.74.277 6.055-2.909 1.43-7.131-2.154-9.443C4.799 9.023.369 5.518 4.38 1.727Z" fill="#fff"/><path d="M13.956 8.437C11.47 6.09 5.052 2.787 9.296.025c-1.315.09-2.6.442-3.778 1.034-2.935 4.857 4.385 7.8 7.172 10.763 2.544 2.46 2.716 6.531-1.037 8.038l.163-.028c3.99-1.205 6.78-7.014 2.14-11.395Z" fill="#DDD"/><path d="M7.773.773a2.338 2.338 0 0 0-.398 1.204c-.074 1.898 2.247 3.68 4.294 5.251.735.565 1.43 1.097 1.94 1.579 1.865 1.762 2.61 3.93 2.097 6.103a6.15 6.15 0 0 1-.71 1.74c.283-1.768-.451-3.74-1.941-5.186-.761-.807-1.81-1.587-2.92-2.414C8.618 7.923 7.05 6.756 6.131 5.457c-.954-1.351-1.035-2.628-.25-4.007a9.4 9.4 0 0 1 1.89-.677ZM9.296.025c-1.315.09-2.6.442-3.778 1.034-2.935 4.857 4.385 7.8 7.172 10.763 2.544 2.46 2.716 6.531-1.037 8.038l.163-.028c3.99-1.205 6.78-7.014 2.14-11.395C11.47 6.09 5.052 2.787 9.296.025Z" fill="#fff"/><path opacity=".17" d="M19.924 8.74c-.017-.171-.051-.342-.078-.513a10.01 10.01 0 0 0-5.052-7.01 9.99 9.99 0 0 1 2.77 5.3l.079.513c.052.417.078.837.078 1.257 0 5.522-4.48 10.002-10.003 10.002-.102 0-.205 0-.307-.009a9.94 9.94 0 0 1-4.48-1.223 9.995 9.995 0 0 0 6.76 2.933c.102 0 .205.008.307.008C15.521 20 20 15.52 20 9.996c0-.42-.025-.84-.076-1.256Z" fill="#25604E"/></g><defs><radialGradient id="b" cx="0" cy="0" r="1" gradientUnits="userSpaceOnUse" gradientTransform="translate(6.936 8.09) scale(11.9809)"><stop stop-color="#B4DED7"/><stop offset=".39" stop-color="#7AAFAD"/><stop offset="1" stop-color="#21686E"/></radialGradient><radialGradient id="c" cx="0" cy="0" r="1" gradientUnits="userSpaceOnUse" gradientTransform="translate(6.727 8.559) scale(11.1867)"><stop stop-color="#B4DED7"/><stop offset="1" stop-color="#21686E"/></radialGradient><clipPath id="a"><path fill="#fff" d="M0 0h20v20H0z"/></clipPath></defs></svg>
