<svg width="20" height="20" fill="none" xmlns="http://www.w3.org/2000/svg"><path d="M9.993 19.974A12.742 12.742 0 0 1 3.987 18.5a6.53 6.53 0 0 1-2.84-9.089c.147-.304.23-.635.244-.972a17.909 17.909 0 0 1 .86-5.573A7.643 7.643 0 0 1 3.384.776a1.643 1.643 0 0 1 2.71-.071c.47.548.861 1.158 1.164 1.813.199.408.36.443.76.32a6.608 6.608 0 0 1 4.159.06c.316.108.428.058.59-.25A9.289 9.289 0 0 1 13.952.782a1.71 1.71 0 0 1 2.842.111 7.135 7.135 0 0 1 1.43 3.565c.207 1.372.275 2.765.42 4.147.02.28.088.555.202.813a6.533 6.533 0 0 1-2.913 9.15 12.807 12.807 0 0 1-5.94 1.407ZM1.08 13.563c.004.242.03.483.076.721a5.696 5.696 0 0 0 3.027 3.62 12.153 12.153 0 0 0 11.819-.083 5.577 5.577 0 0 0 2.84-3.495c.049-.255.074-.514.075-.774l-.01-.436c.068-.165.115-.34.138-.517a6.403 6.403 0 0 0-.753-2.895 3.222 3.222 0 0 1-.262-1.083c-.136-1.3-.153-2.62-.382-3.903a5.619 5.619 0 0 0-1.628-3.659 1.11 1.11 0 0 0-1.576.09 5.404 5.404 0 0 0-1.248 2.05.86.86 0 0 1-.646.627c-.127-.105-.238-.257-.383-.307a6.135 6.135 0 0 0-4.72.184c-.37.057-.419-.249-.54-.477-.354-.666-.702-1.335-1.072-1.992A1.514 1.514 0 0 0 4.587.762a2.081 2.081 0 0 0-1.31 1.211A15.14 15.14 0 0 0 2.02 8.12a4.663 4.663 0 0 1-.414 1.802 5.288 5.288 0 0 0-.556 3.418l.03.223Z" fill="#450C7B"/><path d="M1.049 13.34a5.288 5.288 0 0 1 .556-3.418c.256-.567.397-1.18.414-1.802a15.139 15.139 0 0 1 1.258-6.147A2.082 2.082 0 0 1 4.587.762a1.514 1.514 0 0 1 1.247.472c.37.657.718 1.326 1.072 1.992.121.228.169.534.54.477.21.031.422.033.632.004a7.365 7.365 0 0 1 3.542-.089c.31.063.619.138.928.208a.86.86 0 0 0 .647-.627 5.404 5.404 0 0 1 1.248-2.05 1.109 1.109 0 0 1 1.576-.09 5.62 5.62 0 0 1 1.628 3.659c.229 1.283.246 2.602.381 3.903.024.373.113.74.263 1.083.476.892.734 1.884.753 2.895-.024.178-.07.351-.138.517a4.993 4.993 0 0 0-1.005-.925 1.925 1.925 0 0 0-1.697.163c-.445.205-.852.493-1.292.71a2.073 2.073 0 0 1-2.436-.248 2.837 2.837 0 0 0-.536-.286c-.12-.116-.221-.301-.362-.338a4.131 4.131 0 0 0-3.507.225 1.225 1.225 0 0 0-.245.143 2.43 2.43 0 0 1-3.408.088 3.884 3.884 0 0 0-1.132-.52 1.614 1.614 0 0 0-2.237 1.212Zm15.963-6.513c-.099-.794-.136-1.501-.285-2.184a3.823 3.823 0 0 0-.91-2.173c-.366-.34-.694-.377-.968.028-.266.43-.467.898-.596 1.387a.834.834 0 0 0 .168.633 75.583 75.583 0 0 0 1.927 2.395c.139.128.294.236.46.324l.204-.41ZM4.694 2.474a1.14 1.14 0 0 0-.347.417c-.255.416-.431.506-.537.97-.217.956-.361 1.927-.488 2.9-.018.144-.112.299-.029.455.131-.082.254-.177.366-.285.697-.819 1.194-1.83 1.88-2.658a.302.302 0 0 0 .05-.254 1.928 1.928 0 0 0-.575-1.497c-.097-.096-.121.037-.32-.048ZM6.268 7.01c-.535.005-.926.308-.925.717a1.507 1.507 0 0 0 1.284 1.106.81.81 0 0 0 .74-.853 1.002 1.002 0 0 0-1.099-.97Zm7.155 1.844c.54-.003 1.283-.657 1.267-1.116a.856.856 0 0 0-.938-.715 1.047 1.047 0 0 0-1.09 1 .817.817 0 0 0 .761.83Zm-7.685 1.393a1.43 1.43 0 0 0-1.351.944 1.083 1.083 0 0 0-.026.258.789.789 0 0 0 .253-.063 1.483 1.483 0 0 1 2.205.283.789.789 0 0 0 .23.133.95.95 0 0 0 .086-.297 1.478 1.478 0 0 0-1.397-1.258Zm8.845.112a1.453 1.453 0 0 0-1.6 1.334c.011.107.033.213.066.315.088-.052.172-.113.248-.182.797-.853 1.053-.91 2.135-.47.083.027.17.048.256.063a.95.95 0 0 0-.047-.312 1.345 1.345 0 0 0-1.059-.748Z" fill="#646383"/><path d="M11.94 12.53c.188.076.368.171.536.286a2.073 2.073 0 0 0 2.436.248c.44-.217.847-.505 1.292-.71a1.923 1.923 0 0 1 1.697-.163c.376.261.714.572 1.005.925l.01.436a3.675 3.675 0 0 0-.297.31c-.273.41-.569.803-.885 1.18a9.49 9.49 0 0 1-5.445 2.628c-.416.04-.835.043-1.252.01l.356-.68c.79-.244 1.503-.575 1.71-1.488.13-.267.28-.527.384-.803.024-.14.022-.281-.004-.42l-.296.29c-.139.045-.275.097-.41.156a1.12 1.12 0 0 1-1.77-.756 1.74 1.74 0 0 0 .933-1.45Z" fill="#FCFBFD"/><path d="M11.037 17.68c.417.033.836.03 1.253-.01a9.49 9.49 0 0 0 5.444-2.627c.316-.377.612-.771.885-1.18.093-.11.192-.213.297-.311-.001.26-.026.519-.075.774a5.575 5.575 0 0 1-2.84 3.495 12.154 12.154 0 0 1-11.819.083 5.696 5.696 0 0 1-3.027-3.62 4.194 4.194 0 0 1-.076-.721c.112.083.216.177.311.28.293.442.617.863.968 1.26a9.972 9.972 0 0 0 6.713 2.688 1.564 1.564 0 0 0 1.966-.112Z" fill="#C2AFD4"/><path d="M9.07 17.791a9.972 9.972 0 0 1-6.712-2.688 11.437 11.437 0 0 1-.968-1.26 2.315 2.315 0 0 0-.311-.28l-.03-.223a1.613 1.613 0 0 1 2.237-1.212c.403.111.785.287 1.132.52a2.43 2.43 0 0 0 3.408-.088 1.22 1.22 0 0 1 .245-.143 1.639 1.639 0 0 0 .791 1.491.993.993 0 0 1-1.298.956c-.213-.058-.43-.106-.645-.159-.06-.07-.12-.141-.183-.21-.07-.075-.143-.148-.215-.222a.955.955 0 0 0-.034.356c.083.265.204.518.31.777.174.978.914 1.327 1.748 1.573l.526.812Z" fill="#FCFBFD"/><path d="M12.549 3.826c-.31-.07-.618-.144-.93-.208a7.365 7.365 0 0 0-3.54.09 2.26 2.26 0 0 1-.633-.005 6.135 6.135 0 0 1 4.72-.184c.145.05.256.202.383.307Z" fill="#C2AFD4"/><path d="M8.862 13.908a1.638 1.638 0 0 1-.791-1.49 4.131 4.131 0 0 1 3.507-.226c.14.037.242.222.362.338a1.74 1.74 0 0 1-.934 1.45l-.665.323c.134.298.318.572.545.808a1.67 1.67 0 0 0 2.302-.533l.295-.288c.026.138.027.28.004.419-.104.276-.253.536-.384.803-.3.114-.584.266-.845.453-.312.324-.601.67-.865 1.035l-.356.68a1.564 1.564 0 0 1-1.967.111l-.525-.812a7.018 7.018 0 0 0-.779-1.015c-.3-.223-.625-.41-.97-.558-.105-.258-.226-.512-.309-.777-.011-.12 0-.24.034-.356.072.074.145.147.215.223.063.068.122.14.183.21a1.683 1.683 0 0 0 2.473.171c.394-.462.346-.65-.215-.849-.106-.037-.21-.08-.315-.12Zm1.937 2.5c0-.174.051-.342-.01-.432a3.97 3.97 0 0 0-.486-.51c-.06.126-.117.254-.184.375-.04.06-.086.115-.137.166a2.015 2.015 0 0 0-.103-.212c-.069-.109-.176-.313-.216-.302a1.038 1.038 0 0 0-.487 1.376.858.858 0 0 0 1.147.548c.484-.191.498-.618.476-1.009Z" fill="#450C7B"/><path d="M17.012 6.827c.08.64-.167.528-.256.45a1.974 1.974 0 0 1-.407-.364 75.605 75.605 0 0 1-1.928-2.395.834.834 0 0 1-.168-.633c.13-.49.33-.957.596-1.387.274-.405.602-.369.967-.028.525.61.844 1.37.911 2.173.15.683.186 1.39.285 2.184Zm-.68-1.371c.038-.019-.221-.248-.183-.266-.268-.694-.227-1.181-.52-1.864a.22.22 0 0 0-.255-.142.826.826 0 0 0-.339 1.117c.379.424.643.776 1.027 1.195.058.076.122.146.193.21l.076-.25Z" fill="#410575"/><path d="M6.269 7.01a1.002 1.002 0 0 1 1.098.97.81.81 0 0 1-.74.853 1.507 1.507 0 0 1-1.284-1.106c0-.409.39-.712.926-.717ZM13.423 8.854a.817.817 0 0 1-.762-.832 1.046 1.046 0 0 1 1.091-1 .856.856 0 0 1 .938.716c.016.459-.728 1.113-1.267 1.116Z" fill="#FCFBFD"/><path d="M5.739 10.247a1.478 1.478 0 0 1 1.396 1.258.95.95 0 0 1-.085.297.786.786 0 0 1-.23-.133 1.484 1.484 0 0 0-2.206-.283.794.794 0 0 1-.253.063 1.082 1.082 0 0 1 .026-.258 1.43 1.43 0 0 1 1.352-.944ZM14.583 10.358a1.346 1.346 0 0 1 1.058.75c.033.1.049.205.047.31a1.744 1.744 0 0 1-.256-.062c-1.082-.44-1.338-.383-2.135.47-.076.069-.16.13-.248.182a1.631 1.631 0 0 1-.067-.315 1.454 1.454 0 0 1 1.6-1.335Z" fill="#410575"/><path d="M13.188 14.578a1.671 1.671 0 0 1-2.302.533 2.85 2.85 0 0 1-.544-.808l.665-.324a1.12 1.12 0 0 0 1.771.756c.134-.06.27-.111.41-.157ZM11.394 17c.263-.365.552-.71.864-1.035.261-.187.546-.339.845-.453-.207.913-.92 1.244-1.71 1.488ZM8.862 13.908c.105.04.21.083.315.12.56.2.609.387.215.85a1.68 1.68 0 0 1-2.473-.173c.215.053.431.101.645.16a.993.993 0 0 0 1.298-.957ZM6.797 15.406c.344.148.669.335.97.558.29.314.55.654.778 1.015-.834-.246-1.574-.595-1.748-1.573Z" fill="#C2AFD4"/><path d="M10.819 16.474c.022.39-.012.752-.496.943a.857.857 0 0 1-1.147-.548 1.038 1.038 0 0 1 .487-1.376c.04-.011.147.193.216.302.038.069.073.14.103.212.05-.051.096-.107.137-.166.068-.121.123-.25.184-.375a.698.698 0 0 1 .495.549c.025.151.032.305.02.459Z" fill="#F32E41"/><path d="M16.326 5.81c-.032.081-.134-.026-.189-.054a1.44 1.44 0 0 1-.193-.192c-.356-.444-.714-.869-1.063-1.318-.227-.292.132-1.17.506-1.228.112-.018.38.311.428.42a5.23 5.23 0 0 1 .487 1.688c.047.225.055.456.024.684Z" fill="#F14C79"/><path d="M3.379 4.643a3.823 3.823 0 0 1 .91-2.173c.366-.34.694-.377.968.028.266.43.467.898.596 1.387a.833.833 0 0 1-.168.633 75.528 75.528 0 0 1-1.927 2.395c-.119.14-.256.262-.408.364-.089.078-.336.19-.255-.45.098-.794.135-1.501.284-2.184Zm.472 1.064a1.58 1.58 0 0 0 .193-.211c.385-.419.784-.785 1.163-1.21a.89.89 0 0 0-.348-1.168.452.452 0 0 0-.382.208c-.292.683-.252 1.17-.52 1.864.038.018-.114.236-.076.254.026.084-.055.18-.03.263Z" fill="#410575"/><path d="M3.828 5.792c.031.082.134-.026.189-.054.07-.058.135-.122.193-.192.355-.444.714-.869 1.062-1.318.227-.292-.131-1.17-.505-1.228-.112-.018-.38.312-.428.42a5.228 5.228 0 0 0-.488 1.688 2.025 2.025 0 0 0-.023.684Z" fill="#F14C79"/><path d="M10 12.785c.416 0 .754-.091.754-.204 0-.112-.338-.203-.754-.203-.417 0-.755.091-.755.203 0 .113.338.204.755.204Z" fill="#FCFBFD"/></svg>
