<svg width="20" height="20" fill="none" xmlns="http://www.w3.org/2000/svg"><path d="M0 9.865c0 5.419 4.393 9.812 9.812 9.812s9.812-4.393 9.812-9.812c0-5.42-4.393-9.812-9.812-9.812C4.392.053 0 4.446 0 9.865Z" fill="#F04832"/><mask id="a" style="mask-type:alpha" maskUnits="userSpaceOnUse" x="0" y="0" width="20" height="20"><path d="M0 9.865c0 5.419 4.393 9.812 9.812 9.812s9.812-4.393 9.812-9.812c0-5.42-4.393-9.812-9.812-9.812C4.392.053 0 4.446 0 9.865Z" fill="#C4C4C4"/></mask><g mask="url(#a)"><path d="M7.683 15.954v4.096c.003.01-1.07-.009-1.06 0l-.056-4.096a.118.118 0 0 0 .093.045h.93a.118.118 0 0 0 .093-.045Z" fill="red"/><path d="M7.683 15.954v4.096c.003.01-1.07-.009-1.06 0l-.056-4.096a.118.118 0 0 0 .093.045h.93a.118.118 0 0 0 .093-.045Z" stroke="#000" stroke-width=".2" stroke-miterlimit="10"/><path d="m13.354 13.625.056 6.425c0-.009-1.163.01-1.171 0v-6.425c.088.089.21.143.344.143h.426a.486.486 0 0 0 .345-.143Z" fill="red"/><path d="m13.354 13.625.056 6.425c0-.009-1.163.01-1.171 0v-6.425c.088.089.21.143.344.143h.426a.486.486 0 0 0 .345-.143Z" stroke="#000" stroke-width=".2" stroke-miterlimit="10"/><path d="M9.681 5.494c0 .879-.442 3.839-1.117 5.95H7.545c.638-1.357 1.105-5.337 1.105-6.033 0-.843-.683-1.637-1.525-1.637-.842 0-1.525.794-1.525 1.637 0 .696.467 4.676 1.105 6.033h-1.02c-.674-2.111-1.117-5.071-1.117-5.95 0-1.412 1.145-2.742 2.557-2.742S9.68 4.082 9.68 5.494Z" fill="red"/><path d="M9.681 5.494c0 .879-.442 3.839-1.117 5.95H7.545c.638-1.357 1.105-5.337 1.105-6.033 0-.843-.683-1.637-1.525-1.637-.842 0-1.525.794-1.525 1.637 0 .696.467 4.676 1.105 6.033h-1.02c-.674-2.111-1.117-5.071-1.117-5.95 0-1.412 1.145-2.742 2.557-2.742S9.68 4.082 9.68 5.494Z" stroke="#000" stroke-width=".2" stroke-miterlimit="10"/><path d="M14.835 4.683a1.95 1.95 0 0 1-.73 1.689.64.64 0 0 0-.191.263c-.042.105-.045.205-.05.314a1.066 1.066 0 0 1-.487.837.159.159 0 0 0-.07.134v.254h-1.022V7.92a.158.158 0 0 0-.07-.134 1.067 1.067 0 0 1-.488-.897c0-.089.01-.168.03-.238a.645.645 0 0 1 .23-.34c.246-.185.55-.201.84-.246.248-.038.484-.087.7-.221a1.23 1.23 0 0 0 .502-.605c.046-.127.069-.262.069-.397-.001-.62-.49-1.153-1.108-1.203a1.205 1.205 0 0 0-1.114.546.115.115 0 0 1-.096.054h-.583a.114.114 0 0 1-.105-.158 1.952 1.952 0 0 1 3.743.602Z" fill="#FFC300"/><path d="M14.835 4.683a1.95 1.95 0 0 1-.73 1.689.64.64 0 0 0-.191.263c-.042.105-.045.205-.05.314a1.066 1.066 0 0 1-.487.837.159.159 0 0 0-.07.134v.254h-1.022V7.92a.158.158 0 0 0-.07-.134 1.067 1.067 0 0 1-.488-.897c0-.089.01-.168.03-.238a.645.645 0 0 1 .23-.34c.246-.185.55-.201.84-.246.248-.038.484-.087.7-.221a1.23 1.23 0 0 0 .502-.605c.046-.127.069-.262.069-.397-.001-.62-.49-1.153-1.108-1.203a1.205 1.205 0 0 0-1.114.546.115.115 0 0 1-.096.054h-.583a.114.114 0 0 1-.105-.158 1.952 1.952 0 0 1 3.743.602Z" stroke="#000" stroke-width=".2" stroke-miterlimit="10"/><path d="M14.097 10.56c0 .461-.256 1.314-.64 1.836a.484.484 0 0 0-.448-.301h-.426a.483.483 0 0 0-.448.301c-.384-.522-.64-1.375-.64-1.835 0-.483.283-.993.698-1.258a.06.06 0 0 1 .091.05v1.168c0 .267.196.43.462.456.305.029.561-.135.561-.434v-1.19c0-.048.052-.075.091-.05.416.265.7.775.7 1.258Z" fill="red"/><path d="M14.097 10.56c0 .461-.256 1.314-.64 1.836a.484.484 0 0 0-.448-.301h-.426a.483.483 0 0 0-.448.301c-.384-.522-.64-1.375-.64-1.835 0-.483.283-.993.698-1.258a.06.06 0 0 1 .091.05v1.168c0 .267.196.43.462.456.305.029.561-.135.561-.434v-1.19c0-.048.052-.075.091-.05.416.265.7.775.7 1.258Z" stroke="#000" stroke-width=".2" stroke-miterlimit="10"/><path d="M13.307 8.173v2.37c0 .282-.228.436-.511.436-.283 0-.511-.154-.511-.437V8.173h1.022Z" fill="#FFC300"/><path d="M13.307 8.173v2.37c0 .282-.228.436-.511.436-.283 0-.511-.154-.511-.437V8.173h1.022Z" stroke="#000" stroke-width=".2" stroke-miterlimit="10"/><path d="M12.552 6.042a.046.046 0 0 1-.032.07c-.087.013-.17.031-.246.055a.864.864 0 0 0-.287.143l-.758-1.442a.114.114 0 0 1-.013-.053V4.68c0-.063.05-.114.114-.114h.304a.08.08 0 0 1 .07.04l.794 1.351.024.038.03.048Z" fill="#FFC300"/><path d="M12.552 6.042a.046.046 0 0 1-.032.07c-.087.013-.17.031-.246.055a.864.864 0 0 0-.287.143l-.758-1.442a.114.114 0 0 1-.013-.053V4.68c0-.063.05-.114.114-.114h.304a.08.08 0 0 1 .07.04l.794 1.351.024.038.03.048Z" stroke="#000" stroke-width=".2" stroke-miterlimit="10"/><path d="M5.649 11.444a.117.117 0 0 0-.118.1c-.01.08-.008.32.009.405l1.005 3.96a.113.113 0 0 0 .022.045.118.118 0 0 0 .093.045h.465v-4.555H5.649Z" fill="#ADADAD"/><path d="M8.718 11.543a.117.117 0 0 0-.117-.099H7.125v4.555h.465a.118.118 0 0 0 .093-.045.112.112 0 0 0 .022-.045l1.005-3.96c.017-.085.02-.325.008-.405Z" fill="#CCC"/><path d="m8.71 11.95-1.005 3.96a.113.113 0 0 1-.022.044.118.118 0 0 1-.093.045h-.93a.118.118 0 0 1-.093-.045.113.113 0 0 1-.022-.045L5.54 11.95a1.975 1.975 0 0 1-.009-.405.117.117 0 0 1 .118-.1H8.6c.059 0 .11.042.117.1.011.08.009.32-.008.405Z" stroke="#000" stroke-width=".2" stroke-miterlimit="10"/><path d="M12.583 12.095a.484.484 0 0 0-.484.484v.705a.486.486 0 0 0 .484.484h.213v-1.673h-.213Z" fill="#ADADAD"/><path d="M13.457 12.396a.484.484 0 0 0-.449-.301h-.212v1.673h.213a.486.486 0 0 0 .484-.484v-.705a.48.48 0 0 0-.036-.183Z" fill="#CCC"/><path d="M13.493 12.58v.704a.485.485 0 0 1-.484.484h-.426a.486.486 0 0 1-.484-.484v-.705a.484.484 0 0 1 .484-.484h.426a.484.484 0 0 1 .484.484Z" stroke="#000" stroke-width=".2" stroke-miterlimit="10"/></g></svg>