<svg width="21" height="21" viewBox="0 0 21 21" fill="none" xmlns="http://www.w3.org/2000/svg">
<circle cx="10.8462" cy="10.7778" r="10" fill="#3949A1"/>
<path fill-rule="evenodd" clip-rule="evenodd" d="M14.706 17.3829L6.11221 11.354L5.05221 12.0944C4.82844 12.2508 4.64572 12.459 4.51954 12.7012C4.39337 12.9433 4.32749 13.2124 4.32749 13.4854C4.32749 13.7585 4.39337 14.0275 4.51954 14.2697C4.64572 14.5119 4.82844 14.72 5.05221 14.8765L6.97437 16.2247L9.20498 14.6681L10.0221 15.2442L6.97641 17.3747L4.51496 15.6466C4.16771 15.403 3.88419 15.0793 3.6885 14.7029C3.49281 14.3266 3.39062 13.9086 3.39062 13.4844C3.39062 13.0602 3.49281 12.6422 3.6885 12.2659C3.88419 11.8895 4.16771 11.5658 4.51496 11.3222L5.10108 10.9129L5.09744 10.9077L5.287 10.7751L4.51496 10.2335C4.16771 9.98985 3.88419 9.66616 3.6885 9.2898C3.49281 8.91344 3.39062 8.49548 3.39062 8.07128C3.39062 7.64707 3.49281 7.2291 3.6885 6.85276C3.88419 6.4764 4.16771 6.1527 4.51496 5.90908L6.98459 4.17279L15.5792 10.2023L16.6343 9.46542C16.8581 9.30894 17.0407 9.10078 17.1669 8.85861C17.2931 8.61644 17.359 8.34741 17.359 8.07435C17.359 7.80129 17.2931 7.53227 17.1669 7.2901C17.0407 7.04792 16.8581 6.83976 16.6343 6.68327L14.7121 5.3351L12.4856 6.89368L11.6685 6.31763L14.7162 4.18506L17.1797 5.91318L17.1776 5.90705C17.5249 6.15068 17.8084 6.47436 18.0041 6.85072C18.1998 7.22708 18.302 7.64504 18.302 8.06925C18.302 8.49345 18.1998 8.91141 18.0041 9.28777C17.8084 9.66413 17.5249 9.98782 17.1776 10.2314L16.745 10.5337C16.7462 10.5351 16.7474 10.5365 16.7486 10.5378L16.4026 10.7799L17.1756 11.3222C17.5229 11.5658 17.8063 11.8895 18.002 12.2659C18.1978 12.6422 18.2999 13.0602 18.2999 13.4844C18.2999 13.9086 18.1978 14.3266 18.002 14.7029C17.8063 15.0793 17.5229 15.403 17.1756 15.6466L14.706 17.3829ZM15.5777 11.3571L16.6322 12.0964C16.856 12.2529 17.0387 12.4611 17.1649 12.7032C17.291 12.9454 17.3569 13.2144 17.3569 13.4875C17.3569 13.7605 17.291 14.0296 17.1649 14.2717C17.0387 14.5139 16.856 14.7221 16.6322 14.8786L14.708 16.2247L6.93811 10.7772L10.0241 8.62178L9.20702 8.04573L8.97986 8.20436L8.97368 8.19553L6.11186 10.1979L5.05834 9.45929C4.83458 9.30279 4.65185 9.09463 4.52568 8.85246C4.39951 8.6103 4.33363 8.34127 4.33363 8.06821C4.33363 7.79515 4.39951 7.52612 4.52568 7.28395C4.65185 7.04178 4.83458 6.83362 5.05834 6.67714L6.98255 5.331L14.7534 10.7791L11.6623 12.938L12.4794 13.514L14.7857 11.9027L14.7897 11.9085L15.5777 11.3571Z" fill="white"/>
</svg>
