<svg width="20" height="20" fill="none" xmlns="http://www.w3.org/2000/svg"><g clip-path="url(#a)"><path d="M11.873 2.603c.037.014.072.03.109.042.332.115.674.208.995.349.415.181.826.38 1.217.61.336.197.658.427.955.68.385.33.75.687 1.102 1.052.205.214.383.458.547.706.238.36.482.723.67 1.11.212.437.376.898.54 1.356.093.256.166.704.275.95.06.134-.955-.584-1.572-.75-.047-.016-.092-.034-.14-.046a5.477 5.477 0 0 0-1.982-.149l-.544.094c-.007 0-.015 0-.022.002a4.55 4.55 0 0 0-1.522.575c-.798.469-1.644.717-2.575.584a2.916 2.916 0 0 1-1.48-.64c-.018-.022-.033-.048-.054-.067-.692-.647-1.038-1.436-.951-2.388.067-.741.42-1.346.954-1.85.477-.45 1.08-.696 1.645-1 .721-.39 1.44-.78 1.931-1.47.057-.08-.078.216-.098.25ZM18.407 10.53c.01.357.023.716-.002 1.072-.025.348-.094.693-.146 1.04-.042.276-.076.555-.137.828-.046.201-.124.397-.2.59-.137.35-.261.707-.432 1.04-.189.37-.422.718-.64 1.072-.074.122-.16.236-.24.354l-.64.171-.787-.047-.373-.077c-.099-.038-.198-.075-.296-.115-.547-.223-.987-.585-1.352-1.045-.018-.032-.035-.065-.055-.095a3.1 3.1 0 0 1-.539-1.458c0-.094.003-.188 0-.282-.031-.784.21-1.483.704-2.082.211-.256.483-.463.727-.692.136-.066.266-.149.409-.195.38-.124.765-.231 1.148-.345.029 0 .058.003.086-.002.838-.124 1.675-.094 2.512.005.118.014.221.034.216.19.027-.17.034-.067.037.074Z" fill="#F5E25D"/><path d="M18.396 9.544a4.66 4.66 0 0 0-1.685-.837l-.045.008-.044.007.044-.007.045-.008c-.046-.015-.092-.033-.14-.045a5.477 5.477 0 0 0-1.981-.149l-.544.094c-.008 0-.016 0-.023.002a4.55 4.55 0 0 0-1.522.575c-.798.469-1.643.717-2.574.584a2.916 2.916 0 0 1-1.482-.64c-.017-.022-.032-.048-.053-.067-.692-.647-1.037-1.436-.95-2.388.066-.741.419-1.346.953-1.85.477-.45 1.08-.696 1.646-1 .72-.39 1.44-.78 1.93-1.47.057-.08.115-.16.18-.232.06-.07.13-.13.196-.193.27-.516.234-1.075.224-1.63-.017-.071-.023-.147-.053-.212C12.5.046 12.446 0 12.408 0c-.046 0-.12.033-.135.07-.116.303-.332.53-.575.723-.641.51-1.413.742-2.18.975-.47.143-.953.247-1.412.418-.715.267-1.416.57-2.118.868a8.05 8.05 0 0 0-2.012 1.228 8.618 8.618 0 0 0-1.599 1.72 10.387 10.387 0 0 0-.954 1.715c-.105.236-.18.487-.249.737a24.52 24.52 0 0 0-.263 1.065c-.05.222-.117.446-.124.67-.018.566-.006 1.133-.006 1.699.005.118 0 .237.016.354.038.26.075.52.135.776.058.252.142.497.215.745.116.268.22.542.35.803.089.177.213.336.32.503l-.01-.06.01.06c.023.034.044.07.068.102.36.507.84.881 1.362 1.205.27.11.532.24.81.322.316.095.645.147.968.218l-.236-.125.236.125.368.026h.617a5.712 5.712 0 0 0 1.868-.391c.515-.21 1.031-.428 1.515-.7.713-.4 1.175-1.055 1.595-1.738.114-.185.23-.368.346-.552.272-.422.52-.864.823-1.262a5.23 5.23 0 0 1 1.63-1.398c.067-.038.14-.065.212-.097.135-.066.266-.149.408-.195.38-.123.766-.231 1.15-.345.028 0 .057.003.085-.002.838-.124 1.675-.093 2.512.005.118.014.221.034.216.19.027-.17.074-.191.216-.1.178.018.356.04.534.047.033.001.068-.06.103-.091-.275-.258-.533-.537-.827-.769Z" fill="url(#b)"/><path d="M17.181 16.458c0-.02-.07-.059-.095-.05-.112.039-.22.091-.33.139l-.147-.021-.639.171-.787-.047-.373-.077c-.099-.038-.198-.075-.296-.115-.547-.223-.987-.585-1.352-1.045-.019-.032-.035-.065-.055-.095a3.1 3.1 0 0 1-.539-1.458c0-.094.003-.188 0-.282-.031-.784.21-1.483.704-2.082.211-.256.483-.463.726-.692-.07.032-.143.06-.211.097-.638.356-1.19.82-1.63 1.398-.303.398-.55.84-.823 1.262-.115.184-.232.367-.346.552-.42.683-.882 1.337-1.595 1.738-.484.272-1 .49-1.515.7a5.712 5.712 0 0 1-1.868.391h-.617l-.368-.026c-.324-.071-.652-.123-.968-.218-.278-.083-.54-.213-.81-.322-.523-.324-1.001-.698-1.362-1.205-.024-.033-.045-.068-.068-.102-.107-.167-.231-.326-.32-.503-.13-.261-.234-.535-.35-.803.027.11.04.226.083.328.18.426.353.857.563 1.269.172.335.393.644.593.965.17.217.324.45.516.647.33.34.676.665 1.029.98.203.182.425.346.653.497.307.202.62.397.945.568.24.127.5.212.752.316l-.494-.245c-.087-.046-.176-.09-.264-.136.088.045.177.09.264.136l.494.245a8.206 8.206 0 0 0 1.8.526l-.165-.052.165.052.634.093L9.856 20c.032-.016.063-.044.095-.046.35-.02.698-.034 1.047-.05.085-.01.172-.012.254-.033.37-.092.742-.174 1.105-.29.388-.123.766-.28 1.149-.422.112-.046.231-.08.335-.14.576-.333 1.162-.652 1.717-1.018.373-.246.707-.555 1.047-.849.192-.166.363-.355.537-.541.032-.035.041-.102.04-.153Zm-13.983.731-.072-.106.072.106Z" fill="url(#c)"/></g><defs><linearGradient id="b" x1="2.775" y1="1.179" x2="12.27" y2="15.01" gradientUnits="userSpaceOnUse"><stop offset=".182" stop-color="#FEC63D"/><stop offset="1" stop-color="#F21526"/></linearGradient><linearGradient id="c" x1="6.014" y1="4.853" x2="10.707" y2="20.185" gradientUnits="userSpaceOnUse"><stop offset=".606" stop-color="#FEC63D"/><stop offset="1" stop-color="#F21526"/></linearGradient><clipPath id="a"><path fill="#fff" d="M0 0h20v20H0z"/></clipPath></defs></svg>
