<svg width="20" height="21" viewBox="0 0 20 21" fill="none" xmlns="http://www.w3.org/2000/svg">
<g clip-path="url(#clip0)">
<circle cx="10" cy="10.165" r="10" fill="#2CC2EA"/>
<path fill-rule="evenodd" clip-rule="evenodd" d="M6.13242 15.4515H6.66581L9.60941 11.0049L5.35115 4.39745H7.47585L9.78647 7.95291L9.37924 8.54326L6.90706 4.79399L6.37588 4.79622L9.37039 9.33633L12.7766 4.39745H14.7419L11.3278 9.39789L10.9838 8.86627L13.746 4.8274L13.2037 4.83631L10.4504 8.85959L15.0274 15.9326H12.8407L10.265 12.0437L10.6607 11.4326L13.3454 15.4492L13.881 15.4515L10.6541 10.6284L7.21912 15.9326H4.98597L8.68793 10.3915L9.08045 11.0004L6.13242 15.4515ZM8.42566 9.98471L4.15601 16.3782H7.45815L10.1812 12.173L10.0034 12.4507L12.6039 16.3782H15.8441L11.5891 9.80178L15.5851 3.95191H12.5464L9.78694 7.95223L10.0587 7.55637L7.7171 3.9519H4.53668L8.42566 9.98471Z" fill="white"/>
</g>
<defs>
<clipPath id="clip0">
<rect width="20" height="20" fill="white" transform="translate(0 0.165039)"/>
</clipPath>
</defs>
</svg>
