<svg fill="none" height="28" viewBox="0 0 40 28" width="40" xmlns="http://www.w3.org/2000/svg" xmlns:xlink="http://www.w3.org/1999/xlink"><clipPath id="a"><path d="m0 0h40v28h-40z"/></clipPath><g clip-path="url(#a)"><path d="m23.128 8.841h-6.365v10.299h6.365z" fill="#ff5f00"/><path clip-rule="evenodd" d="m17.418 13.991a6.515 6.515 0 0 1 2.525-5.148c-2.71-2.11-6.604-1.803-8.943.706a6.503 6.503 0 0 0 0 8.886c2.34 2.509 6.232 2.816 8.943.706a6.515 6.515 0 0 1 -2.525-5.15z" fill="#eb001b" fill-rule="evenodd"/><g fill="#f79e1b"><path d="m30.022 18.311v-.428h.101v-.088h-.24v.088h.095v.428zm.467 0v-.516h-.073l-.085.369-.085-.37h-.072v.517h.052v-.39l.079.335h.055l.078-.336v.391h.05z"/><path clip-rule="evenodd" d="m30.64 13.99a6.543 6.543 0 0 1 -3.722 5.89 6.663 6.663 0 0 1 -6.975-.741 6.527 6.527 0 0 0 2.526-5.15 6.524 6.524 0 0 0 -2.526-5.148 6.663 6.663 0 0 1 6.975-.742 6.543 6.543 0 0 1 3.723 5.89v.002z" fill-rule="evenodd"/></g></g></svg>