<svg width="20" height="20" fill="none" xmlns="http://www.w3.org/2000/svg"><circle cx="10" cy="10" r="10" fill="#5BC0E9"/><path d="M5.212 5.208l7.371.417v8.376l-7.37-.416V5.208z" fill="#C8774F"/><path d="M6.042 19.186c-.87-.375-1.675-.87-2.396-1.464v-4.493l2.396.128v.252l6.562.401.156 1.51-6.718-.41v4.076zM5.212 4.533l7.371.417v8.376l-7.37-.417V4.533zM19.124 14.1a10.041 10.041 0 01-3.811 4.374v-4.516l3.81.142z" fill="#F2CFA7"/><path d="M5.38 5.873v9.046H4.374v-2.512h-.837V6.71h.837V4.365H5.38v-.837h2.01V2.355l3.183.313V3.84h2.01v1.173h1.173v2.68h.838v5.696h-.838v2.178h-1.173V6.186h-1.005V5.013L6.385 4.7v1.173H5.38z" fill="#FCEDA1"/><path d="M15.096 18.606V15.67h-1.34V13.39h.838V7.797h-.838v-2.68h-1.173V3.944h-2.01v-1.34l3.518-.208V3.4h1.843v1.34h.838v1.005h.67v1.34h.67v7.037h-1.843v3.669c-.37.298-.762.57-1.173.814z" fill="#8C9169"/><path d="M7.642 6.982L6.354 6.93v2.346l1.288.052V6.982zM11.913 6.982l-1.288-.052v2.346l1.288.052V6.982z" fill="#000"/><path d="M10.538 10.668v1.005l-3.35-.104v-1.005l3.35.104z" fill="#EB494E"/><path d="M8.152 19.83a9.863 9.863 0 01-.444-.094v-3.9l2.24-.732v4.138l-1.796.588z" fill="#E5E5E5"/><path d="M5.937 14.896l9.271.729-2.344.833-.08-.008v3.157a10.005 10.005 0 01-4.138.302v-3.87L8.5 16l-.716-.058v3.812a9.966 9.966 0 01-4.138-2.032v-2.201l2.291-.625z" fill="#fff"/><path fill-rule="evenodd" clip-rule="evenodd" d="M15.208 18.538a9.95 9.95 0 01-2.396 1.061v-3.238l2.396-.736v2.913z" fill="#A3A7B3"/></svg>