<svg width="20" height="20" viewBox="0 0 20 20" fill="none" xmlns="http://www.w3.org/2000/svg">
<g clip-path="url(#clip0_4441_57711)">
<path d="M4.78087 11.8999C4.38178 11.3853 4.04786 10.8344 3.82924 10.2172C3.56166 9.46184 3.45996 8.68396 3.48261 7.88464C3.48899 7.65962 3.47445 7.42774 3.42641 7.20845C3.10264 5.73055 2.79004 4.25074 2.61437 2.74637C2.54108 2.11876 2.48933 1.48897 2.56676 0.856203C2.64198 0.241553 2.92817 -0.0605272 3.68285 0.0160228C4.37258 0.0859928 4.99448 0.379503 5.57414 0.735883C6.33723 1.20504 7.07145 1.72106 7.8214 2.21186C7.87883 2.24945 7.96834 2.27331 8.03317 2.25908C9.35061 1.96979 10.6663 1.97078 11.9837 2.25968C12.0484 2.27388 12.1411 2.25002 12.1953 2.20968C13.1168 1.52421 14.055 0.862393 15.11 0.396833C15.4945 0.227173 15.9125 0.129753 16.3206 0.0198228C16.4483 -0.0145472 16.5965 0.00195277 16.7309 0.0229428C17.1387 0.0866328 17.3623 0.265013 17.4082 0.670353C17.4634 1.15767 17.492 1.6565 17.4543 2.14433C17.3178 3.91123 16.9409 5.63909 16.5493 7.36342C16.5216 7.48523 16.5196 7.61609 16.5255 7.74179C16.5768 8.82156 16.4194 9.86099 15.9233 10.8323C15.3869 11.8826 14.5972 12.6923 13.5716 13.273C13.5577 13.1563 13.5438 13.0395 13.5299 12.9228C14.4499 12.3516 15.1811 11.6049 15.6571 10.6236C15.9294 10.0623 16.1097 9.47353 16.1612 8.84883C16.1676 8.78003 16.174 8.71123 16.1804 8.64244C16.2476 7.98299 16.204 7.33103 16.0483 6.68664C16.0389 6.65282 16.0296 6.61901 16.0203 6.58519L16.0235 6.58971C15.9161 6.00221 15.6791 5.4643 15.3648 4.9633C14.6472 3.81931 13.6072 3.09623 12.3297 2.70364C11.0935 2.3237 9.83186 2.27817 8.56405 2.49359C7.27023 2.71343 6.12141 3.23696 5.21753 4.21953C4.60892 4.88112 4.20274 5.65226 4.00448 6.53086C3.96685 6.70008 3.90562 6.86796 3.89596 7.03875C3.86571 7.57353 3.8549 8.1094 3.83656 8.64475C3.8464 8.73379 3.85623 8.82293 3.86606 8.91207C3.86653 8.9433 3.86335 8.97508 3.868 9.00567C4.13345 10.7513 5.05261 12.0535 6.55245 12.9616C6.52167 13.1449 6.49088 13.3281 6.4601 13.5114C6.34274 13.9132 6.22539 14.315 6.10803 14.7168C6.09659 14.7737 6.08166 14.8301 6.07424 14.8875C5.94389 15.8951 6.02549 16.8954 6.18428 17.8922C6.19275 17.9454 6.24843 18.0033 6.29763 18.0349C6.37352 18.0836 6.37615 18.1254 6.3169 18.1821C6.27496 18.2222 6.23407 18.2652 6.18617 18.2971C6.03432 18.3981 5.95343 18.5384 5.93763 18.7183C5.93241 18.7544 5.9272 18.7905 5.92198 18.8266C5.92143 18.8797 5.92088 18.9328 5.92032 18.9859C5.91412 19.2317 6.02258 19.4086 6.24357 19.5139C6.54084 19.6554 6.56685 19.6388 6.58859 19.3067L6.68749 19.0931C6.69787 19.1685 6.70818 19.2439 6.71876 19.3192C6.71947 19.3242 6.72213 19.329 6.72389 19.3339C6.73464 19.5353 6.8394 19.6351 7.03818 19.6331C7.13865 19.6319 7.24006 19.6183 7.33933 19.628C7.49778 19.6434 7.56183 19.5808 7.55171 19.4237C7.5477 19.3615 7.55954 19.2965 7.57584 19.2359C7.57943 19.2226 7.63261 19.2226 7.66295 19.2164C7.67217 19.2477 7.68138 19.2789 7.6906 19.3102C7.69553 19.3518 7.70363 19.3934 7.70481 19.4352C7.70926 19.5924 7.78436 19.6168 7.91743 19.559C8.14352 19.4608 8.28045 19.2995 8.30019 19.0485C8.3475 18.7843 8.28241 18.5541 8.08433 18.3696C8.01502 18.305 7.93143 18.256 7.85962 18.1938C7.82805 18.1665 7.80963 18.1239 7.78524 18.0883C7.82658 18.0673 7.87138 18.0233 7.90868 18.0289C8.10081 18.058 8.12048 17.9415 8.125 17.7984C8.1275 17.7194 8.14309 17.6408 8.15278 17.5621C8.15962 17.5163 8.16645 17.4706 8.17329 17.4248C8.17423 17.393 8.17516 17.3612 8.1761 17.3294C8.21145 17.1384 8.2468 16.9474 8.28215 16.7564C8.36558 16.8003 8.44902 16.8442 8.53245 16.8882C8.51946 17.1304 8.50648 17.3725 8.4935 17.6147C8.45725 17.799 8.41904 17.9829 8.38669 18.1679C8.3813 18.1987 8.39458 18.2379 8.41097 18.2664C8.4653 18.3611 8.52499 18.4528 8.58263 18.5456C8.60563 18.6699 8.64449 18.7939 8.64694 18.9187C8.64916 19.0319 8.68354 19.0735 8.79449 19.0911C9.49484 19.2022 10.1945 19.1938 10.896 19.103C11.0418 19.0841 11.1051 19.0313 11.0983 18.8748C11.0937 18.7673 11.1354 18.6578 11.1564 18.5492C11.2014 18.4726 11.2498 18.3977 11.2902 18.3188C11.3169 18.2667 11.3557 18.2057 11.3488 18.1542C11.3202 17.9416 11.2762 17.7312 11.2378 17.52C11.2269 17.3498 11.2159 17.1796 11.205 17.0094C11.2975 16.9782 11.3901 16.947 11.4827 16.9157C11.5054 17.045 11.5282 17.1742 11.551 17.3035C11.5778 17.5129 11.6018 17.7227 11.6346 17.9312C11.6398 17.9642 11.6788 18.0048 11.7117 18.018C11.7911 18.0499 11.8762 18.0677 11.959 18.0911C11.8996 18.1525 11.8402 18.214 11.7805 18.2751C11.7732 18.2825 11.7641 18.2883 11.7553 18.2942C11.4837 18.4755 11.3878 18.7308 11.4383 19.0476C11.4529 19.2675 11.5651 19.4252 11.7549 19.5272C11.9575 19.636 11.9946 19.6168 12.0396 19.3969C12.048 19.3557 12.0552 19.3142 12.063 19.2728C12.0878 19.2103 12.1126 19.1478 12.1374 19.0852C12.1464 19.1523 12.1548 19.2196 12.1648 19.2865C12.1662 19.2956 12.1759 19.3034 12.1818 19.3118C12.196 19.517 12.3056 19.6228 12.5106 19.6291C12.5795 19.6313 12.6483 19.6328 12.7172 19.6334C12.9098 19.635 13.009 19.5355 13.015 19.3349L13.07 19.1036C13.0965 19.1707 13.1231 19.2377 13.1496 19.3048C13.1586 19.3777 13.1613 19.4522 13.1797 19.5227C13.1869 19.5503 13.2292 19.5882 13.2558 19.5885C13.5403 19.591 13.7966 19.3381 13.8105 19.0479C13.8462 18.737 13.8103 18.4539 13.5145 18.2677C13.4796 18.2458 13.4555 18.2074 13.4239 18.1795C13.3576 18.1208 13.3688 18.0841 13.4428 18.0362C13.4921 18.0043 13.5471 17.9458 13.556 17.8919C13.6892 17.0906 13.7699 16.2832 13.7142 15.4716C13.6869 15.0746 13.5935 14.6821 13.5301 14.2876C13.5376 14.2644 13.5494 14.2417 13.5521 14.2179C13.5763 14.002 13.599 13.7859 13.6221 13.5699C13.7204 13.8992 13.8248 14.2268 13.9134 14.5586C13.9428 14.6688 13.9791 14.7361 14.0918 14.7888C14.2969 14.8847 14.501 14.9954 14.6787 15.1342C14.9809 15.3703 15.1657 15.6887 15.1521 16.0819C15.1297 16.7284 15.0847 17.3742 15.0551 18.0205C15.0521 18.0865 15.0725 18.1658 15.1099 18.2195C15.2969 18.4885 15.3185 18.776 15.1952 19.0668C15.0785 19.3423 14.8311 19.4566 14.5508 19.4527C14.2622 19.4486 14.0275 19.4671 13.8152 19.7263C13.6328 19.9489 13.3111 19.9934 13.0215 19.9983C12.6614 20.0044 12.2993 19.9949 11.9409 19.9618C11.6096 19.9312 11.3512 19.7578 11.2028 19.4506C11.161 19.3642 11.111 19.3552 11.0271 19.3699C10.2566 19.5052 9.48581 19.5014 8.71373 19.3765C8.66141 19.3681 8.56982 19.4092 8.54521 19.454C8.39078 19.7352 8.15996 19.9277 7.84687 19.9502C7.39402 19.9829 6.93602 19.9918 6.48333 19.9626C6.16477 19.942 5.88577 19.7866 5.69997 19.5015C5.67888 19.4691 5.61543 19.451 5.57095 19.4497C5.4334 19.4457 5.29458 19.4647 5.15798 19.4535C4.88927 19.4316 4.65525 19.3292 4.54661 19.0648C4.42925 18.7791 4.44751 18.4972 4.62343 18.2293C4.66719 18.1627 4.69033 18.068 4.68735 17.9875C4.66201 17.3044 4.62978 16.6215 4.59515 15.9388C4.59184 15.8735 4.56627 15.8059 4.53737 15.7459C4.23837 15.1253 4.0095 14.482 3.92772 13.7951C3.87409 13.3446 3.87061 12.8931 4.03287 12.4587C4.0733 12.3504 4.12729 12.2441 4.1925 12.1489C4.32679 11.9528 4.50748 11.8521 4.75328 11.9241C4.76611 11.935 4.77889 11.9459 4.79167 11.9569C4.78807 11.9379 4.78447 11.9189 4.78088 11.8999L4.78087 11.8999ZM5.15981 13.6811C5.04065 13.3036 4.92839 12.9236 4.79848 12.5498C4.75471 12.4239 4.66612 12.3135 4.59802 12.1961C4.50348 12.3088 4.37008 12.407 4.32139 12.5369C4.14756 13.0008 4.15817 13.4815 4.25956 13.962C4.31844 14.4734 4.50509 14.9454 4.71164 15.4106C4.71745 15.4237 4.78674 15.4297 4.79571 15.4171C5.01981 15.1031 5.33215 14.9106 5.68219 14.7722C5.77373 14.7361 5.82461 14.6868 5.81176 14.5856C5.86807 14.4239 5.89038 14.2786 5.66378 14.2326C5.62551 14.2248 5.58553 14.1946 5.55925 14.1638C5.42379 14.0049 5.29253 13.8424 5.15981 13.6811V13.6811ZM2.91421 0.844963C2.90869 0.857393 2.90316 0.869833 2.89764 0.882263C2.88419 1.03517 2.84864 1.1899 2.86099 1.3407C2.9254 2.12724 2.96853 2.91769 3.08307 3.69738C3.21702 4.60917 3.41654 5.51135 3.58954 6.41733C3.59642 6.45335 3.62307 6.48559 3.64051 6.51959C3.65498 6.48666 3.67244 6.45469 3.68344 6.42064C3.77133 6.14854 3.85799 5.87605 3.94503 5.60368C4.08384 5.3289 4.22265 5.05412 4.36146 4.77934C4.72557 4.22636 5.14538 3.7198 5.69123 3.34022C6.05057 3.09034 6.44094 2.88508 6.81741 2.65984C6.95818 2.60409 7.09896 2.54833 7.23973 2.49258C7.29037 2.47754 7.34153 2.46401 7.39149 2.44694C7.4263 2.43505 7.45946 2.41831 7.49335 2.40374C7.4655 2.37471 7.44129 2.34064 7.40921 2.31746C7.16878 2.1437 6.92945 1.96821 6.68479 1.80054C6.01503 1.34153 5.32525 0.916213 4.57424 0.600713C4.21666 0.450493 3.85128 0.321123 3.45428 0.332573C3.08229 0.343303 2.94543 0.474753 2.90827 0.850363L2.91421 0.844993V0.844963ZM5.34735 18.8266C5.36052 18.8881 5.36079 18.9571 5.39065 19.009C5.41809 19.0568 5.47742 19.0862 5.52269 19.1237C5.54329 19.0783 5.58104 19.0332 5.58169 18.9875C5.58577 18.6989 5.6434 18.432 5.83182 18.2003C5.87411 18.1483 5.9033 18.0595 5.89302 17.9949C5.75435 17.1229 5.68284 16.2474 5.72615 15.3642C5.73071 15.2712 5.73126 15.178 5.73367 15.0849C5.63539 15.132 5.53711 15.1791 5.43884 15.2262C5.08954 15.4389 4.86596 15.7289 4.8836 16.1579C4.90428 16.6608 4.93017 17.1635 4.95699 17.6661C4.96637 17.8419 4.93354 18.0522 5.22008 18.0387C5.24673 18.0374 5.27543 18.0795 5.30318 18.1015C5.28021 18.1214 5.25975 18.1457 5.2338 18.1603C5.15526 18.2044 5.07288 18.2418 4.99508 18.287C4.8179 18.3902 4.78787 18.5583 4.80659 18.742C4.82322 18.9052 4.88682 19.0352 5.06089 19.0896C5.17335 19.1247 5.24545 19.1265 5.24395 18.9772C5.24333 18.9154 5.26791 18.8529 5.28554 18.7921C5.28889 18.7805 5.31343 18.7751 5.32819 18.7668C5.33458 18.7867 5.34096 18.8067 5.34735 18.8266V18.8266ZM14.3594 18.9541C14.3853 18.8875 14.4112 18.8208 14.4371 18.7542C14.4572 18.8289 14.4773 18.9035 14.4971 18.9782C14.4998 18.9884 14.5023 18.9991 14.5025 19.0096C14.504 19.1022 14.5469 19.125 14.6356 19.1029C14.804 19.0609 14.9072 18.9618 14.9289 18.7887C14.9528 18.5979 14.9494 18.4119 14.7586 18.2957C14.6727 18.2434 14.5782 18.2049 14.4942 18.1501C14.4793 18.1404 14.4831 18.0625 14.502 18.0488C14.5379 18.0227 14.5918 18.0077 14.6368 18.0105C14.7374 18.0167 14.764 17.9661 14.7688 17.8791C14.7997 17.3231 14.8356 16.7672 14.8637 16.211C14.8881 15.7302 14.6414 15.4103 14.2376 15.1892C14.2067 15.1699 14.1768 15.1489 14.1448 15.1317C14.0494 15.0804 13.9854 15.0441 13.9995 15.2187C14.0242 15.524 14.0415 15.8336 14.0194 16.1383C13.9733 16.7707 13.899 17.4012 13.8375 18.0325C13.8342 18.0674 13.8274 18.118 13.8464 18.1365C14.102 18.3863 14.1583 18.7029 14.1631 19.0398C14.1635 19.0676 14.1957 19.1184 14.2116 19.1178C14.2523 19.1162 14.3036 19.102 14.3292 19.0735C14.3534 19.0465 14.3504 18.9949 14.3594 18.9541V18.9541ZM12.7773 2.49342C12.9004 2.54178 13.0236 2.59014 13.1467 2.6385C13.1934 2.66307 13.2391 2.6895 13.2867 2.71195C14.244 3.16329 15.0272 3.81586 15.6008 4.71123C15.7385 4.95635 15.8763 5.20146 16.014 5.44658C16.1289 5.80299 16.2437 6.15943 16.359 6.51571C16.3637 6.53036 16.3731 6.54349 16.3804 6.55734C16.3894 6.54212 16.4017 6.52791 16.4067 6.51147C16.4175 6.47605 16.4254 6.43966 16.433 6.40335C16.7159 5.04884 16.9997 3.69344 17.1129 2.31208C17.1524 1.82932 17.1155 1.34029 17.1136 0.854123C17.0592 0.452653 16.9231 0.331303 16.5194 0.331883C16.1406 0.332423 15.7904 0.454333 15.4477 0.598793C14.4598 1.01522 13.5778 1.60981 12.7138 2.23384C12.6462 2.28269 12.5847 2.33995 12.5203 2.3933C12.6059 2.42668 12.6916 2.46005 12.7773 2.49343V2.49342ZM5.01815 12.1761C5.01815 12.2165 5.0142 12.2348 5.01873 12.2507C5.11602 12.5919 5.20453 12.9361 5.31539 13.2729C5.40402 13.5421 5.54022 13.7889 5.77911 13.9612C5.87814 14.0326 5.94367 14.0478 5.99332 13.8951C6.06013 13.6896 6.15474 13.492 6.25045 13.2975C6.28868 13.2198 6.28558 13.1885 6.21441 13.1332C5.84694 12.8476 5.4861 12.5534 5.123 12.2621C5.09488 12.2395 5.06722 12.2164 5.01815 12.1761V12.1761Z" fill="#000037"/>
<path d="M16.0486 6.6867C16.2043 7.33109 16.2479 7.98305 16.1808 8.64242C16.1246 8.57914 16.0702 8.51408 16.0117 8.45303C15.5872 8.01005 15.0871 7.94804 14.5818 8.29613C14.4138 8.41179 14.2654 8.56199 14.1279 8.71432C13.7334 9.15135 13.2167 9.27564 12.6661 9.22897C12.5789 9.17913 12.4879 9.1183 12.4006 9.06847C12.3785 9.06986 12.3733 9.0452 12.3511 9.04659L12.3509 9.04631C12.3519 9.03455 12.3529 9.02279 12.3539 9.01104C12.3418 9.01228 12.3297 9.01353 12.3176 9.01478L12.3175 9.01506C12.3205 9.0031 12.3301 8.9846 12.3256 8.98011C12.0562 8.71004 11.7995 8.42531 11.5127 8.17503C10.6089 7.38631 9.20606 7.44701 8.36316 8.29879C8.15075 8.51344 7.94176 8.73147 7.7312 8.94795C7.60328 9.02117 7.47536 9.0944 7.34744 9.16762C6.81046 9.25961 6.32925 9.16085 5.93474 8.75868C5.805 8.62642 5.67993 8.48737 5.53709 8.37055C5.01225 7.94133 4.44343 7.98366 3.9829 8.47733C3.93239 8.53147 3.88549 8.58898 3.83691 8.64492C3.85525 8.10947 3.86606 7.57359 3.89631 7.03882C3.90597 6.86802 3.9672 6.70014 4.00484 6.53086C4.0263 6.48888 4.05133 6.4484 4.06865 6.40484C4.30388 5.81326 4.62396 5.27069 5.05117 4.79992C5.80608 3.96803 6.7501 3.44442 7.82697 3.14848C8.81525 2.87689 9.82097 2.84859 10.8359 2.92092C11.49 2.96754 12.1213 3.10698 12.7358 3.33355C14.1169 3.84277 15.1475 4.74123 15.7902 6.07243C15.8725 6.24278 15.9462 6.41723 16.0239 6.58979C16.0239 6.58979 16.0207 6.58527 16.0207 6.58528C16.03 6.6191 16.0393 6.65291 16.0486 6.68671L16.0486 6.6867ZM8.21299 7.10019C8.21572 6.64493 7.94394 6.28535 7.58975 6.24494C7.25482 6.20673 6.93956 6.45553 6.84967 6.83332C6.8326 6.90504 6.82353 6.98017 6.82233 7.05391C6.8154 7.48032 7.09784 7.8429 7.46261 7.88068C7.80545 7.91619 8.13092 7.62943 8.20106 7.22822C8.21015 7.17621 8.211 7.12276 8.213 7.10019H8.21299ZM11.8751 7.0702C11.878 7.4992 12.1647 7.85365 12.5322 7.88246C12.8836 7.91001 13.1975 7.60811 13.2624 7.18015C13.3304 6.73122 13.0219 6.27689 12.6264 6.24363C12.2156 6.20907 11.8719 6.58715 11.8751 7.0702V7.0702Z" fill="#FDAF01"/>
<path d="M12.6794 9.19187C13.23 9.23853 13.7333 9.1513 14.1279 8.71426C14.2654 8.56193 14.4138 8.41174 14.5817 8.29607C15.0871 7.94799 15.5872 8.00999 16.0117 8.45297C16.0702 8.51402 16.1245 8.57908 16.1808 8.64236C16.1744 8.71123 16.168 8.78003 16.1615 8.84883C16.1445 8.87826 16.1237 8.90615 16.1111 8.93737C15.9967 9.22178 15.9026 9.51616 15.7668 9.78985C15.3493 10.6312 14.7358 11.3106 13.9758 11.8552C13.7685 12.0037 13.5294 12.1077 13.3048 12.2321C13.0506 11.6831 12.6887 11.2179 12.2189 10.8367C12.2437 10.6853 12.2684 10.534 12.2931 10.3827C12.3141 10.2526 12.3373 10.1229 12.3549 9.99243C12.3595 9.95809 12.347 9.92144 12.3424 9.88584C12.3256 9.91537 12.3036 9.94313 12.2927 9.97471C12.2108 10.2112 12.0765 10.4103 11.8752 10.5606C11.2995 10.9905 10.5113 10.7551 10.3133 10.0951C10.5841 10.0074 10.8169 9.86466 11.0212 9.66167C11.1958 9.48817 11.2051 9.10729 11.0532 8.94606C11.004 8.56679 10.8021 8.3358 10.4103 8.30522C10.2002 8.28883 9.98689 8.27182 9.7781 8.2901C9.27065 8.33454 9.14357 8.45462 9.02505 8.94483C8.86713 9.17746 8.89495 9.58592 9.20992 9.79074C9.38973 9.90767 9.58849 9.99545 9.77872 10.0964C9.63383 10.5965 9.11864 10.8873 8.60036 10.7503C8.18144 10.6395 7.91982 10.3594 7.78878 9.95096C7.78152 9.92832 7.76292 9.90931 7.7496 9.88862C7.7445 9.9122 7.73253 9.93667 7.73544 9.95923C7.75232 10.09 7.77271 10.2203 7.79191 10.3508C7.78238 10.4056 7.75951 10.4619 7.76602 10.5147C7.78067 10.6335 7.80987 10.7505 7.83315 10.8682C7.37089 11.2496 7.02118 11.7164 6.77533 12.262C6.70645 12.241 6.6267 12.2356 6.57046 12.1965C6.21983 11.9524 5.86068 11.7177 5.53037 11.448C4.94392 10.9692 4.50737 10.3675 4.19064 9.68097C4.07418 9.42853 3.97401 9.16858 3.86641 8.91205C3.85658 8.82291 3.84674 8.73377 3.83691 8.64473C3.88548 8.58888 3.93239 8.53138 3.9829 8.47723C4.44343 7.98357 5.01225 7.94123 5.53709 8.37045C5.67994 8.48727 5.80501 8.62631 5.93474 8.75858C6.32924 9.16075 6.81046 9.25951 7.34744 9.16753C7.47669 9.11995 7.58151 9.02895 7.71076 8.98138C7.92463 8.80078 8.17554 8.67643 8.37466 8.48081C9.31331 7.55864 10.773 7.68048 11.5067 8.37124C11.7075 8.56031 11.9142 8.74341 12.1242 8.92225C12.1768 8.96705 12.2525 8.98478 12.3175 9.01496L12.3176 9.01468C12.3287 9.02519 12.3398 9.0357 12.3509 9.04622C12.3509 9.04622 12.3511 9.0465 12.3511 9.04649C12.3595 9.0583 12.5784 9.1552 12.6794 9.19183L12.6794 9.19187Z" fill="#FCFCFC"/>
<path d="M12.3221 16.3751C12.7989 15.9342 13.1812 15.4274 13.3938 14.8071C13.4517 14.6382 13.4856 14.4611 13.5305 14.2877C13.5939 14.6822 13.6873 15.0747 13.7146 15.4717C13.7703 16.2832 13.6895 17.0907 13.5564 17.892C13.5475 17.9458 13.4925 18.0043 13.4432 18.0363C13.3692 18.0842 13.358 18.1209 13.4243 18.1795C13.4559 18.2074 13.48 18.2458 13.5149 18.2678C13.8107 18.454 13.8466 18.737 13.8109 19.048L13.15 19.3048C13.1235 19.2377 13.0969 19.1707 13.0704 19.1037C13.0521 19.1808 13.0337 19.2579 13.0154 19.3349C12.7377 19.3272 12.4599 19.3195 12.1822 19.3118C12.1763 19.3034 12.1666 19.2956 12.1652 19.2866C12.1552 19.2196 12.1468 19.1524 12.1378 19.0852C12.113 19.1478 12.0882 19.2103 12.0634 19.2729C12.0185 19.2772 11.966 19.2986 11.9299 19.2828C11.7637 19.2101 11.602 19.127 11.4387 19.0476C11.3882 18.7308 11.4841 18.4756 11.7557 18.2942C11.7645 18.2884 11.7736 18.2826 11.7809 18.2751C11.8406 18.214 11.9 18.1525 11.9594 18.0912C11.8766 18.0677 11.7915 18.05 11.7121 18.0181C11.6791 18.0048 11.6401 17.9642 11.635 17.9312C11.6022 17.7227 11.5782 17.5129 11.5514 17.3035C11.5855 17.2524 11.6132 17.1952 11.6549 17.1514C11.7853 17.0147 11.9282 16.8894 12.0523 16.7475C12.1527 16.6325 12.2329 16.4999 12.3221 16.3751V16.3751Z" fill="#FAA702"/>
<path d="M8.15336 17.562C8.14367 17.6408 8.12807 17.7194 8.12558 17.7983C8.12106 17.9414 8.10139 18.0579 7.90926 18.0289C7.87196 18.0232 7.82716 18.0672 7.78582 18.0883C7.81021 18.1239 7.82863 18.1664 7.8602 18.1937C7.93201 18.2559 8.01561 18.3049 8.08491 18.3695C8.28299 18.5541 8.34809 18.7842 8.30077 19.0484C8.09757 19.1357 7.89437 19.2229 7.69117 19.3101C7.68195 19.2789 7.67274 19.2476 7.66353 19.2164C7.63912 19.1634 7.6147 19.1105 7.59029 19.0575C7.57359 19.1069 7.54311 19.1562 7.54283 19.2057C7.54205 19.3419 7.42809 19.3248 7.36036 19.3289C7.14908 19.3418 6.93653 19.3338 6.72447 19.3338C6.72271 19.3289 6.72005 19.3242 6.71934 19.3191C6.70876 19.2438 6.69845 19.1684 6.68807 19.0931C6.6551 19.1642 6.62214 19.2354 6.58917 19.3066C6.3361 19.2629 6.08122 19.2229 5.9209 18.9859C5.92145 18.9328 5.922 18.8796 5.92255 18.8265C5.92777 18.7904 5.93298 18.7544 5.9382 18.7183C5.954 18.5383 6.03489 18.398 6.18674 18.297C6.23464 18.2651 6.27553 18.2222 6.31747 18.182C6.37671 18.1254 6.37409 18.0836 6.2982 18.0349C6.249 18.0033 6.19333 17.9454 6.18485 17.8922C6.02606 16.8954 5.94446 15.895 6.07481 14.8874C6.08223 14.8301 6.09716 14.7737 6.1086 14.7168C6.12383 14.7379 6.14173 14.7576 6.15392 14.7804C6.64595 15.6989 7.23312 16.5457 8.01678 17.2432C8.06077 17.2824 8.12295 17.3011 8.17667 17.3293C8.17573 17.3611 8.1748 17.393 8.17387 17.4248C8.16703 17.4705 8.1602 17.5163 8.15336 17.562V17.562Z" fill="#FAA702"/>
<path d="M16.0239 6.58973C15.9463 6.41718 15.8725 6.24272 15.7903 6.07237C15.1476 4.74117 14.1169 3.84271 12.7358 3.33349C12.1213 3.10692 11.4901 2.96748 10.8359 2.92086C9.82101 2.84853 8.81529 2.87683 7.82701 3.14842C6.75014 3.44436 5.80613 3.96797 5.05121 4.79986C4.624 5.27063 4.30392 5.8132 4.06869 6.40478C4.05137 6.44833 4.02634 6.48882 4.00488 6.5308C4.20313 5.65227 4.60931 4.88113 5.21792 4.21954C6.1218 3.23697 7.27062 2.71344 8.56444 2.4936C9.83225 2.27818 11.0939 2.32371 12.3301 2.70365C13.6076 3.09625 14.6476 3.81933 15.3652 4.96331C15.6795 5.46431 15.9164 6.00222 16.0239 6.58972L16.0239 6.58973Z" fill="#F9C759"/>
<path d="M6.81722 2.65978C6.44075 2.88502 6.05038 3.09028 5.69104 3.34016C5.14519 3.71974 4.72538 4.2263 4.36126 4.77927C4.33763 4.72861 4.30278 4.68016 4.29235 4.62692C4.24982 4.40994 4.20836 4.19238 4.17819 3.97343C4.09557 3.37374 3.99932 2.77489 3.94796 2.17235C3.92186 1.86616 3.98079 1.55272 4.00128 1.24255C4.12099 1.25696 4.24321 1.26056 4.35998 1.28763C4.90389 1.41372 5.38009 1.69209 5.8462 1.98247C6.1807 2.19086 6.49429 2.4328 6.81721 2.65978H6.81722Z" fill="#EF5928"/>
<path d="M15.6005 4.71123C15.027 3.81586 14.2437 3.16328 13.2865 2.71194C13.2388 2.68948 13.1931 2.66306 13.1465 2.63849C13.7052 2.20496 14.2984 1.82537 14.9382 1.52391C15.2586 1.37291 15.5883 1.23611 15.9548 1.24266C15.9555 1.27969 15.9563 1.31671 15.957 1.35374C15.9655 1.77402 16.0103 2.19752 15.9735 2.6138C15.924 3.17365 15.8156 3.72859 15.7235 4.28416C15.6995 4.42933 15.6424 4.56902 15.6005 4.71123V4.71123Z" fill="#EF5928"/>
<path d="M15.9551 1.24263C15.5886 1.23608 15.2589 1.37289 14.9385 1.52388C14.2988 1.82534 13.7055 2.20494 13.1468 2.63846C13.0236 2.5901 12.9005 2.54174 12.7773 2.49336C13.1239 2.25909 13.4663 2.01838 13.8179 1.79198C14.4611 1.37784 15.1251 1.00308 15.8645 0.783373C16.2886 0.657323 16.7117 0.575903 17.1136 0.854073C17.1156 1.34024 17.1525 1.82927 17.1129 2.31203C16.9997 3.69339 16.7159 5.0488 16.4331 6.4033C16.4255 6.43961 16.4176 6.476 16.4068 6.51142C16.4018 6.52786 16.3894 6.54207 16.3804 6.55729C16.3732 6.54345 16.3638 6.53031 16.359 6.51566C16.2437 6.15938 16.129 5.80294 16.0141 5.44649C16.0259 5.41826 16.0432 5.39111 16.0487 5.36174C16.1532 4.80622 16.2814 4.25364 16.3528 3.69383C16.4282 3.10261 16.4683 2.50509 16.4879 1.90914C16.5035 1.43488 16.3517 1.27603 15.9551 1.24261L15.9551 1.24263Z" fill="#FBAD03"/>
<path d="M6.81737 2.65987C6.49445 2.4329 6.18086 2.19095 5.84636 1.98256C5.38025 1.69218 4.90405 1.41381 4.36014 1.28772C4.24337 1.26065 4.12115 1.25705 4.00145 1.2426C3.64535 1.27261 3.55209 1.35477 3.48737 1.7058C3.47113 1.79387 3.4633 1.8842 3.45991 1.97381C3.43227 2.70421 3.55042 3.4211 3.67089 4.13681C3.75345 4.62726 3.85303 5.11485 3.945 5.60371C3.85796 5.87608 3.7713 6.14858 3.68341 6.42067C3.67241 6.45472 3.65495 6.48669 3.64048 6.51962C3.62304 6.48562 3.59639 6.45338 3.58951 6.41736C3.41651 5.51138 3.21698 4.60921 3.08304 3.69741C2.9685 2.91772 2.92537 2.12727 2.86096 1.34073C2.84861 1.18993 2.88416 1.0352 2.89761 0.882296C2.90313 0.869866 2.90866 0.857426 2.91418 0.844986C2.91418 0.844986 2.90824 0.850356 2.90829 0.850346C3.10987 0.722916 3.32825 0.644906 3.56808 0.667436C4.04802 0.712526 4.4965 0.871466 4.92731 1.07874C5.74522 1.47226 6.50094 1.96889 7.2397 2.4926C7.09893 2.54835 6.95815 2.60411 6.81738 2.65986L6.81737 2.65987Z" fill="#FBAD03"/>
<path d="M14.2374 15.1892C14.6411 15.4103 14.8879 15.7301 14.8635 16.211C14.8353 16.7672 14.7995 17.323 14.7686 17.8791C14.7638 17.9661 14.7371 18.0167 14.6366 18.0105C14.5916 18.0077 14.5377 18.0227 14.5017 18.0487C14.4828 18.0624 14.479 18.1403 14.4939 18.1501C14.578 18.2049 14.6725 18.2434 14.7584 18.2957C14.9492 18.4118 14.9526 18.5979 14.9287 18.7887C14.907 18.9618 14.8037 19.0609 14.6354 19.1029C14.5467 19.125 14.5038 19.1022 14.5022 19.0095C14.502 18.999 14.4996 18.9884 14.4969 18.9782C14.4771 18.9035 14.4569 18.8288 14.4369 18.7542C14.411 18.8208 14.3851 18.8875 14.3591 18.9541C14.3485 18.9044 14.3295 18.8548 14.3286 18.8048C14.3234 18.5374 14.2654 18.2948 14.0661 18.0952C14.0227 18.0517 14.0164 17.9504 14.0246 17.8794C14.0665 17.5181 14.1392 17.1594 14.1624 16.7972C14.1936 16.3114 14.1885 15.8232 14.2019 15.3362C14.2033 15.2869 14.2251 15.2382 14.2374 15.1892H14.2374Z" fill="#FBAD03"/>
<path d="M11.2381 17.52C11.2764 17.7312 11.3205 17.9417 11.3491 18.1542C11.356 18.2058 11.3172 18.2668 11.2905 18.3188C11.25 18.3978 11.2017 18.4726 11.1567 18.5492C10.8493 18.5882 10.5429 18.6466 10.2344 18.662C9.6807 18.6897 9.12763 18.6656 8.5829 18.5456C8.52526 18.4528 8.46557 18.3612 8.41124 18.2665C8.39485 18.2379 8.38157 18.1987 8.38696 18.1679C8.41931 17.9829 8.45752 17.799 8.49377 17.6147C8.52693 17.6298 8.56121 17.6428 8.59309 17.6602C8.93571 17.8472 9.29211 17.98 9.68932 18.0013C10.1946 18.0284 10.6329 17.8454 11.0588 17.6077C11.1168 17.5753 11.1782 17.5491 11.2381 17.52V17.52Z" fill="#FBFBFB"/>
<path d="M5.34736 18.8266C5.34097 18.8067 5.33459 18.7868 5.3282 18.7668C5.31344 18.7751 5.2889 18.7805 5.28555 18.7921C5.26792 18.8529 5.24334 18.9155 5.24396 18.9772C5.24546 19.1265 5.17336 19.1247 5.0609 19.0896C4.88683 19.0352 4.82323 18.9052 4.8066 18.742C4.78788 18.5583 4.81791 18.3902 4.99509 18.2871C5.07289 18.2418 5.15527 18.2044 5.23381 18.1603C5.25976 18.1458 5.28022 18.1214 5.30319 18.1015C5.27544 18.0795 5.24675 18.0374 5.22009 18.0387C4.93355 18.0522 4.96638 17.8419 4.957 17.6661C4.93018 17.1635 4.9043 16.6608 4.88361 16.1579C4.86597 15.7289 5.08955 15.4389 5.43884 15.2262C5.46006 15.2777 5.49758 15.3285 5.49986 15.3808C5.51481 15.724 5.5068 16.0688 5.53558 16.4107C5.57887 16.9249 5.64766 17.4368 5.70087 17.9502C5.706 17.9997 5.69486 18.072 5.66223 18.1007C5.46231 18.2768 5.39577 18.4993 5.40184 18.7554C5.40239 18.7787 5.36639 18.8028 5.34736 18.8266V18.8266Z" fill="#FBAD03"/>
<path d="M11.2375 17.52C11.1776 17.5491 11.1162 17.5753 11.0582 17.6077C10.6323 17.8454 10.194 18.0284 9.68871 18.0013C9.2915 17.98 8.93511 17.8472 8.59248 17.6602C8.5606 17.6428 8.52633 17.6298 8.49316 17.6147C8.50614 17.3726 8.51912 17.1304 8.53211 16.8882C8.57698 16.8945 8.62554 16.8918 8.66615 16.9084C9.46795 17.2374 10.2831 17.2656 11.1114 17.0229C11.1412 17.0142 11.1735 17.0138 11.2047 17.0094C11.2156 17.1796 11.2265 17.3498 11.2375 17.52V17.52Z" fill="#C8C8D4"/>
<path d="M3.94521 5.60366C3.85324 5.11479 3.75366 4.62721 3.6711 4.13676C3.55063 3.42105 3.43248 2.70416 3.46012 1.97376C3.46351 1.88415 3.47135 1.79382 3.48758 1.70575C3.5523 1.35472 3.64555 1.27256 4.00166 1.24255C3.98116 1.55276 3.92223 1.8662 3.94834 2.1724C3.99971 2.77495 4.09595 3.37379 4.17857 3.97348C4.20874 4.19243 4.2502 4.40999 4.29273 4.62697C4.30316 4.68021 4.33801 4.72866 4.36164 4.77932C4.22284 5.0541 4.08403 5.32888 3.94522 5.60366H3.94521Z" fill="#C1492C"/>
<path d="M15.9549 1.24268C16.3515 1.27609 16.5033 1.43495 16.4877 1.90921C16.4681 2.50516 16.4279 3.10268 16.3525 3.6939C16.2811 4.25371 16.1529 4.80629 16.0485 5.36181C16.043 5.39118 16.0257 5.41833 16.0138 5.44656C15.8761 5.20149 15.7383 4.95637 15.6006 4.71126C15.6425 4.56905 15.6996 4.42936 15.7236 4.28419C15.8157 3.72862 15.9241 3.17368 15.9736 2.61383C16.0103 2.19754 15.9656 1.77405 15.9571 1.35377C15.9564 1.31674 15.9556 1.27972 15.9549 1.24269L15.9549 1.24268Z" fill="#C1492C"/>
<path d="M13.3047 12.2321C13.5292 12.1077 13.7684 12.0037 13.9757 11.8552C14.7356 11.3107 15.3492 10.6312 15.7667 9.7899C15.9025 9.51621 15.9966 9.22183 16.111 8.93742C16.1235 8.9062 16.1444 8.87831 16.1614 8.84888C16.1099 9.47358 15.9296 10.0623 15.6573 10.6237C15.1813 11.6049 14.4501 12.3516 13.5301 12.9229C13.455 12.6926 13.3798 12.4624 13.3047 12.2321V12.2321Z" fill="#C8C8D4"/>
<path d="M3.86586 8.91211C3.97346 9.16864 4.07363 9.42859 4.19009 9.68103C4.50682 10.3676 4.94337 10.9692 5.52982 11.448C5.86013 11.7177 6.21928 11.9525 6.56991 12.1965C6.62615 12.2357 6.7059 12.241 6.77478 12.262C6.7006 12.4952 6.62643 12.7285 6.55225 12.9617C5.05241 12.0536 4.13325 10.7513 3.8678 9.00572C3.86315 8.97513 3.86633 8.94334 3.86586 8.91212V8.91211Z" fill="#C8C8D4"/>
<path d="M8.17647 17.3293C8.12276 17.3011 8.06057 17.2824 8.01658 17.2432C7.23293 16.5457 6.64576 15.6989 6.15372 14.7804C6.14153 14.7576 6.12364 14.7379 6.1084 14.7168C6.22576 14.315 6.34311 13.9132 6.46047 13.5114C6.49011 13.7449 6.51085 13.9801 6.55093 14.2119C6.72935 15.2435 7.26428 16.0434 8.13283 16.6242C8.18765 16.6609 8.23283 16.712 8.28251 16.7563C8.24717 16.9473 8.21182 17.1383 8.17647 17.3293Z" fill="#C7850A"/>
<path d="M7.23961 2.49252C6.50085 1.96881 5.74513 1.47218 4.92722 1.07866C4.49642 0.871394 4.04793 0.712454 3.56799 0.667364C3.32816 0.644834 3.10979 0.722844 2.9082 0.850274C2.94532 0.474674 3.08217 0.343224 3.45416 0.332494C3.85115 0.321044 4.21653 0.450414 4.57412 0.600634C5.32513 0.916134 6.01491 1.34145 6.68467 1.80046C6.92933 1.96813 7.16866 2.14362 7.40909 2.31738C7.44117 2.34056 7.46538 2.37464 7.49323 2.40366C7.45933 2.41823 7.42618 2.43497 7.39137 2.44686C7.34142 2.46393 7.29026 2.47746 7.23961 2.4925V2.49252Z" fill="#F9C759"/>
<path d="M17.1138 0.854151C16.7119 0.575981 16.2888 0.657401 15.8646 0.783451C15.1253 1.00316 14.4612 1.37791 13.8181 1.79206C13.4665 2.01846 13.1241 2.25917 12.7775 2.49344C12.6918 2.46008 12.6062 2.42671 12.5205 2.39333C12.5849 2.33998 12.6464 2.28271 12.7141 2.23387C13.578 1.60985 14.46 1.01525 15.4479 0.598821C15.7906 0.454361 16.1409 0.332451 16.5196 0.331911C16.9233 0.331331 17.0594 0.452681 17.1138 0.854151V0.854151Z" fill="#F9C759"/>
<path d="M5.81198 14.5855C5.82481 14.6868 5.77394 14.736 5.6824 14.7722C5.33236 14.9106 5.02001 15.103 4.79592 15.4171C4.78695 15.4297 4.71766 15.4236 4.71185 15.4105C4.50531 14.9453 4.31865 14.4734 4.25977 13.962C4.4933 13.899 4.72683 13.8361 4.96037 13.7732C5.10009 14.1951 5.38525 14.4645 5.81199 14.5855L5.81198 14.5855Z" fill="#FBAD03"/>
<path d="M8.58301 18.5455C9.12775 18.6655 9.68081 18.6897 10.2345 18.662C10.543 18.6465 10.8494 18.5882 11.1568 18.5492C11.1358 18.6578 11.094 18.7673 11.0987 18.8748C11.1054 19.0313 11.0421 19.0841 10.8963 19.103C10.1948 19.1938 9.49522 19.2022 8.79487 19.091C8.68391 19.0734 8.64954 19.0319 8.64732 18.9187C8.64487 18.7939 8.60601 18.6699 8.58301 18.5455Z" fill="#C8C8D4"/>
<path d="M4.96032 13.7732C4.72679 13.8361 4.49325 13.899 4.25972 13.962C4.15833 13.4815 4.14772 13.0008 4.32155 12.5369C4.37023 12.407 4.50363 12.3088 4.59818 12.196C4.66628 12.3135 4.75488 12.4239 4.79864 12.5498C4.92855 12.9236 5.04081 13.3036 5.15997 13.6811C5.09342 13.7118 5.02687 13.7425 4.96032 13.7732V13.7732Z" fill="#FBFBFB"/>
<path d="M5.34766 18.8266C5.36669 18.8029 5.40269 18.7787 5.40214 18.7555C5.39607 18.4994 5.46261 18.2768 5.66253 18.1008C5.69515 18.072 5.70629 17.9997 5.70117 17.9503C5.64796 17.4369 5.57916 16.9249 5.53588 16.4107C5.5071 16.0689 5.51511 15.724 5.50016 15.3808C5.49788 15.3285 5.46036 15.2777 5.43914 15.2262C5.53742 15.1791 5.6357 15.1321 5.73398 15.085C5.73157 15.1781 5.73102 15.2713 5.72646 15.3643C5.68314 16.2475 5.75465 17.123 5.89333 17.9949C5.90361 18.0596 5.87443 18.1484 5.83213 18.2004C5.64371 18.432 5.58608 18.699 5.582 18.9875C5.58136 19.0332 5.5436 19.0783 5.523 19.1237C5.47772 19.0862 5.4184 19.0568 5.39096 19.0091C5.36109 18.9571 5.36083 18.8882 5.34766 18.8266V18.8266Z" fill="#C7850A"/>
<path d="M14.2381 15.1892C14.2258 15.2382 14.204 15.2869 14.2026 15.3362C14.1892 15.8232 14.1943 16.3114 14.1631 16.7972C14.1398 17.1594 14.0672 17.5181 14.0253 17.8794C14.017 17.9504 14.0233 18.0517 14.0668 18.0952C14.2661 18.2948 14.324 18.5373 14.3293 18.8048C14.3302 18.8548 14.3492 18.9044 14.3598 18.9541C14.3508 18.9949 14.3539 19.0464 14.3296 19.0735C14.3041 19.102 14.2528 19.1162 14.212 19.1177C14.1962 19.1183 14.164 19.0675 14.1636 19.0398C14.1587 18.7029 14.1024 18.3863 13.8468 18.1365C13.8278 18.118 13.8346 18.0674 13.838 18.0325C13.8995 17.4011 13.9737 16.7707 14.0198 16.1382C14.042 15.8335 14.0246 15.524 13.9999 15.2186C13.9858 15.044 14.0499 15.0804 14.1452 15.1316C14.1773 15.1488 14.2072 15.1699 14.2381 15.1892H14.2381Z" fill="#C7850A"/>
<path d="M4.95996 13.7732C5.02651 13.7425 5.09306 13.7119 5.15961 13.6812C5.29234 13.8424 5.42359 14.0049 5.55906 14.1638C5.58534 14.1946 5.62532 14.2248 5.66359 14.2326C5.89019 14.2786 5.86789 14.4239 5.81158 14.5856C5.38484 14.4645 5.09968 14.1951 4.95996 13.7732V13.7732Z" fill="#F9C759"/>
<path d="M6.72364 19.3338C6.9357 19.3338 7.14825 19.3418 7.35953 19.3289C7.42726 19.3248 7.54123 19.3419 7.542 19.2057C7.54228 19.1562 7.57276 19.1069 7.58946 19.0575C7.61387 19.1105 7.63829 19.1634 7.6627 19.2164C7.63235 19.2225 7.57917 19.2225 7.57558 19.2358C7.55928 19.2964 7.54744 19.3614 7.55145 19.4237C7.56157 19.5808 7.49752 19.6433 7.33907 19.6279C7.2398 19.6182 7.13839 19.6319 7.03792 19.633C6.83915 19.6353 6.73439 19.5355 6.72363 19.3338L6.72364 19.3338Z" fill="#C7850A"/>
<path d="M12.1816 19.3118C12.4594 19.3195 12.7371 19.3272 13.0149 19.3349C13.0089 19.5354 12.9096 19.6349 12.7171 19.6334C12.6482 19.6328 12.5793 19.6312 12.5105 19.6291C12.3055 19.6228 12.1958 19.517 12.1816 19.3118V19.3118Z" fill="#C7850A"/>
<path d="M12.3215 16.3751C12.2323 16.4999 12.1521 16.6325 12.0516 16.7474C11.9276 16.8894 11.7846 17.0147 11.6543 17.1514C11.6125 17.1952 11.5848 17.2524 11.5507 17.3035C11.528 17.1743 11.5052 17.045 11.4824 16.9158C11.5172 16.8864 11.549 16.8523 11.5872 16.8284C11.8312 16.676 12.0766 16.526 12.3215 16.3751L12.3215 16.3751Z" fill="#C7850A"/>
<path d="M13.1494 19.3048L13.8104 19.048C13.7964 19.3382 13.5401 19.5911 13.2556 19.5885C13.229 19.5883 13.1868 19.5504 13.1795 19.5227C13.1611 19.4523 13.1584 19.3777 13.1494 19.3048V19.3048Z" fill="#C7850A"/>
<path d="M5.92017 18.986C6.08049 19.223 6.33537 19.2629 6.58844 19.3067C6.5667 19.6389 6.5407 19.6555 6.24342 19.5139C6.02243 19.4087 5.91397 19.2317 5.92017 18.986V18.986Z" fill="#C7850A"/>
<path d="M11.4385 19.0476C11.6018 19.127 11.7635 19.2101 11.9297 19.2828C11.9658 19.2986 12.0182 19.2771 12.0632 19.2729C12.0554 19.3142 12.0482 19.3557 12.0398 19.3969C11.9948 19.6168 11.9577 19.6361 11.7551 19.5272C11.5653 19.4253 11.4531 19.2675 11.4385 19.0476L11.4385 19.0476Z" fill="#C7850A"/>
<path d="M7.69043 19.3102C7.89363 19.2229 8.09683 19.1357 8.30003 19.0485C8.28029 19.2995 8.14336 19.4608 7.91727 19.559C7.7842 19.6168 7.7091 19.5924 7.70465 19.4352C7.70347 19.3934 7.69536 19.3518 7.69044 19.3101L7.69043 19.3102Z" fill="#C7850A"/>
<path d="M8.15332 17.5621C8.16016 17.5163 8.16699 17.4706 8.17383 17.4248C8.16699 17.4706 8.16016 17.5163 8.15332 17.5621Z" fill="#C7850A"/>
<path d="M16.0484 6.68664C16.0391 6.65283 16.0298 6.61903 16.0205 6.58521C16.0298 6.61901 16.0391 6.65283 16.0484 6.68664Z" fill="#F9C759"/>
<path d="M5.93752 18.7184C5.9323 18.7545 5.9271 18.7905 5.92188 18.8266C5.9271 18.7905 5.9323 18.7545 5.93752 18.7184Z" fill="#C7850A"/>
<path d="M2.91403 0.844971C2.90851 0.857411 2.90298 0.869851 2.89746 0.882281C2.90298 0.869831 2.90851 0.857401 2.91403 0.844971Z" fill="#F9C759"/>
<path d="M10.9421 11.6422C10.9927 11.7615 11.0469 11.8795 11.0932 12.0005C11.2025 12.2857 11.3118 12.571 11.4118 12.8594C11.4314 12.9159 11.4095 12.9867 11.4067 13.051C11.0845 13.3925 10.7622 13.7341 10.4399 14.0757C10.2692 14.0427 10.0991 14.0059 9.92762 13.9776C9.64514 13.931 9.36148 13.8916 9.0789 13.8455C8.98135 13.8296 8.88557 13.8028 8.789 13.781C8.78902 13.7811 8.78258 13.7768 8.78258 13.7768C8.80257 13.7538 8.84438 13.7204 8.83916 13.7095C8.78971 13.6058 8.73225 13.506 8.67709 13.4051C8.64899 13.3478 8.62089 13.2905 8.59279 13.2332C8.58759 13.2176 8.58239 13.202 8.57721 13.1865C8.5385 12.9532 8.49394 12.7205 8.46511 12.486C8.4578 12.4266 8.48334 12.3457 8.52313 12.3006C8.80746 11.9784 9.09728 11.661 9.39159 11.3479C9.42782 11.3093 9.50153 11.287 9.55665 11.2891C9.68199 11.2939 9.80656 11.3185 9.93145 11.3351C10.2684 11.4375 10.6052 11.5398 10.9421 11.6421L10.9421 11.6422Z" fill="#FCFCFC"/>
<path d="M7.79129 10.3509C7.77209 10.2204 7.7517 10.0901 7.73482 9.95927C7.73191 9.93672 7.74388 9.91225 7.74898 9.88866C7.7623 9.90936 7.7809 9.92836 7.78816 9.951C7.9192 10.3595 8.18082 10.6396 8.59974 10.7503C9.11803 10.8874 9.63321 10.5965 9.7781 10.0964C9.85626 9.86333 9.85114 9.87388 9.63846 9.77068C9.29441 9.60374 9.00021 9.39002 9.02444 8.94486C9.14296 8.45465 9.27003 8.33457 9.77749 8.29013C9.98628 8.27184 10.1996 8.28885 10.4097 8.30525C10.8015 8.33583 11.0033 8.56682 11.0526 8.94609C11.049 9.12151 11.0461 9.30244 10.9006 9.4269C10.758 9.54887 10.6111 9.67242 10.4479 9.76203C10.2384 9.87701 10.2305 9.86271 10.3127 10.0952C10.5107 10.7552 11.2989 10.9905 11.8746 10.5607C12.076 10.4103 12.2102 10.2112 12.2921 9.97474C12.303 9.94316 12.325 9.9154 12.3418 9.88587C12.3464 9.92146 12.3589 9.95811 12.3543 9.99246C12.3367 10.1229 12.3135 10.2527 12.2925 10.3827C12.2223 10.5073 12.1521 10.6319 12.0819 10.7565C12.0442 10.7891 12.0065 10.8216 11.9688 10.8542C11.9225 10.8876 11.8762 10.9211 11.83 10.9546C11.8119 10.9674 11.7939 10.9802 11.7759 10.9931C11.7309 11.0011 11.686 11.0104 11.6408 11.0169C11.4488 11.0443 11.2564 11.095 11.0648 11.0927C10.6549 11.0879 10.3532 10.8613 10.0983 10.5613C10.082 10.535 10.0657 10.5087 10.0494 10.4824L9.95803 10.5985C9.76447 10.7491 9.57093 10.8996 9.37737 11.0502L9.06652 11.0881C8.98963 11.0908 8.91277 11.094 8.83587 11.0962C8.56002 11.104 8.3375 10.9664 8.11434 10.8308C8.07815 10.8067 8.04195 10.7827 8.00575 10.7586C7.93426 10.6227 7.86277 10.4868 7.79129 10.3509V10.3509ZM9.29432 8.72674C9.76355 8.53507 10.2357 8.51073 10.7125 8.69972C10.7325 8.70766 10.7592 8.69873 10.7828 8.69766C10.7771 8.67314 10.7788 8.64141 10.7638 8.62566C10.7354 8.5958 10.7006 8.5668 10.6628 8.55187C10.2679 8.39602 9.86651 8.39353 9.46937 8.53237C9.39649 8.55785 9.3496 8.65767 9.29076 8.72321C9.28682 8.7283 9.28287 8.73339 9.27893 8.73848L9.29432 8.72674V8.72674Z" fill="#06063C"/>
<path d="M8.78254 13.7768C8.78254 13.7768 8.78898 13.781 8.78896 13.781C8.78729 13.8382 8.80481 13.9054 8.78092 13.951C8.60386 14.2883 8.42071 14.6225 8.23314 14.9541C8.20967 14.9956 8.14614 15.0457 8.10639 15.0416C7.86578 15.0166 7.62397 14.9895 7.38805 14.938C7.2335 14.9042 7.11045 14.7989 7.05815 14.641C6.94203 14.2904 6.81664 13.9414 6.72994 13.5833C6.70111 13.4642 6.77881 13.3193 6.8078 13.1862C6.90106 13.0105 6.99143 12.8331 7.08831 12.6593C7.2134 12.435 7.36521 12.2518 7.66488 12.3342C7.85444 12.3496 8.0438 12.3723 8.23363 12.3775C8.33986 12.3803 8.36821 12.4092 8.37915 12.52C8.3998 12.7292 8.45161 12.9355 8.49673 13.1416C8.50107 13.1615 8.5493 13.1717 8.57715 13.1864C8.58235 13.202 8.58754 13.2176 8.59274 13.2331C8.54784 13.25 8.547 13.2984 8.59022 13.3781C8.65432 13.511 8.71843 13.6439 8.78253 13.7768L8.78254 13.7768Z" fill="#FBFBFB"/>
<path d="M10.6614 15.354C10.5975 14.9503 10.5336 14.5466 10.4697 14.143C10.7697 13.757 11.1192 13.4111 11.476 13.0661C11.514 13.058 11.5551 13.0363 11.5896 13.044C11.9279 13.1191 12.2655 13.1978 12.6023 13.2797C12.6379 13.2884 12.6668 13.3243 12.6989 13.3476C12.7052 13.3885 12.7115 13.4294 12.7179 13.4702C12.6947 13.5096 12.6611 13.5462 12.6499 13.5887C12.4171 14.4765 11.9043 15.1566 11.1327 15.6471C11.1082 15.6627 11.094 15.6945 11.075 15.7187C10.9967 15.7025 10.9184 15.6864 10.8402 15.6702L10.8398 15.6626C10.7536 15.6142 10.6547 15.5764 10.6647 15.4491C10.6636 15.4174 10.6625 15.3857 10.6614 15.354L10.6614 15.354Z" fill="#FCFCFC"/>
<path d="M11.0752 15.7187C11.0942 15.6945 11.1084 15.6627 11.1329 15.6471C11.9045 15.1566 12.4173 14.4765 12.6501 13.5887C12.6613 13.5462 12.6949 13.5096 12.7181 13.4702C12.7566 13.609 12.7952 13.7479 12.8338 13.8867C12.8526 14.0602 12.9127 14.124 12.9368 14.2968C12.9405 14.3234 12.9362 14.4552 12.9591 14.4792L12.9566 14.4807C12.9363 14.5015 12.9076 14.5188 12.8972 14.5437C12.8543 14.647 12.838 14.7682 12.7738 14.8545C12.5124 15.2059 12.259 15.5679 11.8699 15.7987C11.8548 15.8077 11.8514 15.8457 11.852 15.87C11.8532 15.9205 11.8608 15.9709 11.8657 16.0214C11.815 16.048 11.7644 16.075 11.7135 16.1012C11.4335 16.245 11.1604 16.4046 10.872 16.5287C10.3757 16.7421 9.84523 16.7344 9.31742 16.7254C9.31117 16.6999 9.30137 16.6747 9.2992 16.6489C9.26551 16.2483 9.27923 16.2539 9.64931 16.1227C9.93682 16.0208 10.209 15.8742 10.4841 15.7395C10.5722 15.6963 10.6429 15.6093 10.7522 15.6963C10.7646 15.7062 10.8098 15.6748 10.8399 15.6625C10.84 15.6626 10.8404 15.6702 10.8403 15.6701C10.8608 15.7027 10.8768 15.7591 10.9026 15.7641C11.1084 15.8037 11.3161 15.8336 11.5233 15.8664C11.544 15.8696 11.5656 15.8779 11.5854 15.875C11.6579 15.8642 11.7297 15.8496 11.8018 15.8364C11.7305 15.8251 11.6592 15.8137 11.5879 15.8023C11.417 15.7744 11.2461 15.7466 11.0752 15.7187L11.0752 15.7187Z" fill="#EAEAEA"/>
<path d="M7.66515 12.3342C7.36547 12.2517 7.21367 12.4349 7.08858 12.6593C6.9917 12.833 6.90133 13.0104 6.80807 13.1862C6.67879 13.2041 6.6705 13.1932 6.71104 13.0591C6.74693 13.0297 6.79234 13.0067 6.81715 12.9698C6.96656 12.7477 7.11116 12.5224 7.25763 12.2984C7.27462 12.2724 7.30377 12.2495 7.3093 12.2216C7.35727 11.98 7.40113 11.7375 7.44621 11.4953C7.44621 11.4953 7.44332 11.499 7.44332 11.499C7.45323 11.4884 7.46315 11.4779 7.47306 11.4673C7.62778 11.3296 7.78173 11.191 7.93754 11.0545C8.01071 10.9904 8.14841 10.9789 8.11506 10.8307C8.33822 10.9664 8.56075 11.1039 8.8366 11.0961C8.9135 11.0939 8.99038 11.0908 9.0673 11.088C9.05309 11.1272 9.04521 11.1704 9.02363 11.205C8.72265 11.6884 8.32264 12.0548 7.78067 12.2538C7.73806 12.2694 7.70346 12.3069 7.66513 12.3342H7.66515Z" fill="#303742"/>
<path d="M7.2884 15.5751C7.24336 15.3939 7.19464 15.2134 7.15508 15.031C7.13917 14.9576 7.16217 14.9192 7.24812 14.9679C7.50698 15.1146 7.79142 15.1304 8.08095 15.1313C8.14518 15.1315 8.22607 15.1727 8.27063 15.2212C8.54156 15.5167 8.8042 15.8197 9.0696 16.1202C9.04927 16.1389 9.02658 16.1759 9.00895 16.1737C8.62281 16.1238 8.24161 16.0527 7.88859 15.8776C7.68792 15.778 7.48843 15.676 7.2884 15.5752V15.5751Z" fill="#FBFBFB"/>
<path d="M9.31738 16.7254C9.84519 16.7345 10.3757 16.7421 10.8719 16.5287C11.1604 16.4046 11.4335 16.245 11.7134 16.1012C11.7644 16.075 11.8149 16.048 11.8657 16.0214C11.8386 16.3368 11.7591 16.6009 11.4165 16.7385C10.8689 16.9586 10.3104 17.0625 9.72349 17.0087C9.50646 16.9888 9.34692 16.8731 9.31738 16.7254V16.7254Z" fill="#D5D6D6"/>
<path d="M7.28906 15.5752C7.48908 15.6761 7.68857 15.778 7.88925 15.8776C8.24227 16.0528 8.62347 16.1239 9.00961 16.1737C9.02723 16.176 9.04992 16.139 9.07026 16.1203C9.19547 16.1538 9.24259 16.2295 9.22405 16.3619C9.209 16.4694 9.21835 16.5802 9.21687 16.6896C9.02763 16.6472 8.83445 16.6174 8.65015 16.5594C8.42509 16.4885 8.20749 16.394 7.98666 16.3097C7.75413 16.0648 7.5216 15.82 7.28907 15.5752L7.28906 15.5752Z" fill="#EAEAEA"/>
<path d="M12.9558 14.4806C12.9558 14.4806 12.9583 14.4791 12.9583 14.4791C12.9626 14.4409 12.9668 14.4027 12.9711 14.3645C12.9996 14.3236 13.0452 14.2859 13.0537 14.2412C13.1012 13.9939 13.1736 13.7448 13.1731 13.4965C13.1724 13.114 13.1194 12.7317 13.0886 12.3492C13.1293 12.3837 13.1911 12.4101 13.2077 12.4538C13.4883 13.1897 13.5019 13.9344 13.263 14.6835C13.2515 14.7194 13.1917 14.7758 13.1821 14.7707C13.1036 14.7287 13.024 14.6821 12.9615 14.62C12.9373 14.596 12.9564 14.5284 12.9558 14.4806L12.9558 14.4806Z" fill="#D5D6D6"/>
<path d="M13.0894 12.3493C13.1202 12.7317 13.1732 13.1141 13.174 13.4966C13.1745 13.7449 13.102 13.9939 13.0546 14.2412C13.046 14.286 13.0004 14.3236 12.972 14.3646C12.9486 14.2051 12.9252 14.0456 12.9019 13.886C12.8574 13.7058 12.8129 13.5256 12.7684 13.3454C12.7696 13.2892 12.7609 13.2307 12.7736 13.1772C12.8338 12.9221 12.9028 12.6691 12.9619 12.4138C12.9814 12.3299 12.9999 12.2788 13.0894 12.3493V12.3493Z" fill="#EAEAEA"/>
<path d="M10.0986 10.5613C10.3535 10.8613 10.6552 11.0879 11.0651 11.0927C11.2568 11.095 11.4491 11.0443 11.6411 11.0169C11.6864 11.0104 11.7312 11.0011 11.7763 10.9931C11.7674 11.0386 11.774 11.1088 11.7471 11.1258C11.5394 11.2569 11.3252 11.3778 11.1131 11.5019C11.045 11.4789 10.9783 11.4511 10.9088 11.4338C10.4898 11.3291 10.1539 10.9687 10.0986 10.5613V10.5613Z" fill="#C8C8D4"/>
<path d="M10.0984 10.5612C10.1536 10.9687 10.4896 11.329 10.9086 11.4337C10.978 11.4511 11.0448 11.4789 11.1128 11.5018C11.0611 11.5246 11.0094 11.5473 10.9577 11.5701C10.6155 11.4699 10.2733 11.3698 9.93107 11.2696C9.83588 11.2581 9.74069 11.2465 9.64551 11.235C9.68125 11.1751 9.72197 11.1175 9.75173 11.0548C9.82326 10.904 9.88965 10.7507 9.95811 10.5984L10.0495 10.4823C10.0658 10.5086 10.0821 10.5349 10.0984 10.5612L10.0984 10.5612Z" fill="#FBFBFB"/>
<path d="M7.44611 11.4954C7.40103 11.7376 7.35717 11.98 7.3092 12.2217C7.30366 12.2496 7.27452 12.2725 7.25753 12.2985C7.11107 12.5225 6.96646 12.7478 6.81705 12.9699C6.79224 13.0067 6.74683 13.0297 6.71094 13.0592C6.79693 12.5778 6.97837 12.1353 7.25631 11.7332C7.31385 11.65 7.38256 11.5745 7.44612 11.4954L7.44611 11.4954Z" fill="#EAEAEA"/>
<path d="M12.1641 11.0176C12.4832 11.2575 12.737 11.5539 12.9299 11.9029C12.9471 12.0009 12.9643 12.0988 12.9815 12.1968C12.655 11.8466 12.3285 11.4964 12.002 11.1462C12.056 11.1033 12.1101 11.0605 12.1641 11.0176V11.0176Z" fill="#EAEAEA"/>
<path d="M7.98633 16.3096C8.20716 16.3939 8.42476 16.4884 8.64982 16.5593C8.83412 16.6173 9.0273 16.6471 9.21654 16.6895C9.24408 16.7673 9.22378 16.8205 9.13443 16.8105C8.98893 16.7943 8.82866 16.8003 8.70311 16.7387C8.45392 16.6166 8.22414 16.4549 7.98634 16.3096L7.98633 16.3096Z" fill="#C8C8D4"/>
<path d="M11.4754 13.066C11.1603 13.4425 10.8161 13.7934 10.4691 14.1429C10.4592 14.1205 10.4493 14.0981 10.4395 14.0756C10.7617 13.7341 11.084 13.3925 11.4063 13.0509C11.4293 13.0559 11.4523 13.061 11.4754 13.066V13.066Z" fill="#20232C"/>
<path d="M9.93172 11.2697C10.2739 11.3698 10.6161 11.47 10.9583 11.5701C10.953 11.5941 10.9477 11.6181 10.9423 11.6421C10.6054 11.5398 10.2685 11.4375 9.93164 11.3351C9.93167 11.3133 9.93169 11.2915 9.93172 11.2697V11.2697Z" fill="#303742"/>
<path d="M7.79169 10.3508C7.86317 10.4868 7.93466 10.6227 8.00615 10.7586C7.94842 10.7951 7.89067 10.8317 7.83293 10.8682C7.80965 10.7505 7.78045 10.6335 7.7658 10.5147C7.75929 10.4619 7.78216 10.4056 7.79169 10.3508V10.3508Z" fill="#C8C8D4"/>
<path d="M12.082 10.7565C12.1522 10.6319 12.2224 10.5073 12.2926 10.3827C12.2679 10.534 12.2432 10.6854 12.2185 10.8367C12.173 10.81 12.1275 10.7832 12.082 10.7565V10.7565Z" fill="#C8C8D4"/>
<path d="M12.1643 11.0175C12.1102 11.0604 12.0561 11.1032 12.0021 11.1461C11.9447 11.0822 11.8874 11.0184 11.8301 10.9545C11.8764 10.921 11.9226 10.8876 11.9689 10.8541C12.034 10.9086 12.0991 10.963 12.1643 11.0175Z" fill="#C8C8D4"/>
<path d="M12.9823 12.1967C12.9651 12.0987 12.9479 12.0008 12.9307 11.9028C12.9776 11.9786 13.0265 12.0533 13.0705 12.1308C13.0878 12.1614 13.094 12.1984 13.1052 12.2325C13.0643 12.2206 13.0233 12.2086 12.9823 12.1967V12.1967Z" fill="#D5D6D6"/>
<path d="M10.6611 15.354C10.6622 15.3857 10.6633 15.4174 10.6644 15.4491C10.6633 15.4174 10.6622 15.3857 10.6611 15.354Z" fill="#303742"/>
<path d="M7.4731 11.4674C7.46319 11.4779 7.45327 11.4885 7.44336 11.499C7.45328 11.4885 7.46319 11.478 7.4731 11.4674Z" fill="#EAEAEA"/>
<path d="M8.21306 7.10008C8.21106 7.12265 8.21022 7.1761 8.20112 7.22811C8.13097 7.62932 7.80551 7.91608 7.46267 7.88057C7.0979 7.84279 6.81546 7.48021 6.82239 7.0538C6.82359 6.98006 6.83266 6.90493 6.84973 6.83321C6.93962 6.45542 7.25489 6.20662 7.58981 6.24483C7.944 6.28524 8.21578 6.64482 8.21305 7.10008H8.21306ZM7.94046 6.72965C7.9205 6.60421 7.85677 6.52147 7.72264 6.52586C7.59076 6.53018 7.51507 6.61232 7.51833 6.73913C7.52158 6.86557 7.60047 6.94499 7.73266 6.94293C7.86696 6.94084 7.92558 6.85385 7.94047 6.72965H7.94046Z" fill="#000037"/>
<path d="M11.875 7.0701C11.8718 6.58705 12.2155 6.20897 12.6263 6.24353C13.0218 6.2768 13.3303 6.73112 13.2623 7.18005C13.1974 7.60801 12.8836 7.90991 12.5321 7.88236C12.1646 7.85355 11.8779 7.4991 11.875 7.0701V7.0701ZM12.6215 6.77056C12.6019 6.64514 12.5315 6.56623 12.3996 6.57229C12.2758 6.57797 12.2024 6.65875 12.2039 6.7801C12.2054 6.90821 12.281 6.99144 12.4144 6.98902C12.5473 6.98661 12.6106 6.9017 12.6215 6.77057V6.77056Z" fill="#000037"/>
<path d="M8.13852 5.74C7.88002 5.8477 7.59378 5.87225 7.31928 5.81686C7.26427 5.80576 7.21095 5.79339 7.15847 5.77815C6.87492 5.69583 6.74017 5.49192 6.7907 5.25225C6.84134 5.01204 7.11004 4.81568 7.3654 4.85582C7.76842 4.91917 8.03384 5.17626 8.22949 5.51629C8.2893 5.62023 8.22649 5.70303 8.14312 5.73809C8.14159 5.73873 8.14007 5.73937 8.13854 5.74001L8.13852 5.74Z" fill="#FBFBFB"/>
<path d="M12.8121 5.80348C12.5202 5.87374 12.2116 5.85192 11.9371 5.73019C11.9356 5.7295 11.934 5.72881 11.9325 5.72811C11.8326 5.68342 11.8138 5.58489 11.8746 5.485C12.0538 5.19064 12.2894 4.96441 12.631 4.87115C12.8326 4.81611 13.0122 4.87728 13.1609 5.00952C13.4045 5.22618 13.3379 5.62254 13.0314 5.73801C12.9607 5.76467 12.8876 5.78529 12.8121 5.80346L12.8121 5.80348Z" fill="#FBFBFB"/>
<path d="M12.266 8.91973C11.9967 8.64966 11.7997 8.42528 11.5129 8.17501C10.6091 7.38629 9.20629 7.44698 8.36339 8.29877C8.20614 8.45767 8.05077 8.61843 7.89524 8.77904C7.78694 8.89088 7.66338 8.98687 7.52827 9.06421C7.46807 9.09867 7.40786 9.13313 7.34766 9.1676C7.40091 9.148 7.45417 9.1284 7.50742 9.10879C7.65546 9.0543 7.7934 8.97563 7.91593 8.87627C8.07314 8.74878 8.23114 8.62208 8.37487 8.48087C9.31352 7.5587 10.7732 7.68054 11.5069 8.3713C11.7077 8.56037 11.9065 8.75322 12.1244 8.92231C12.3948 9.13219 12.5786 9.15526 12.6796 9.19189C12.4188 9.07335 12.2687 8.92241 12.266 8.91971L12.266 8.91973Z" fill="#000037"/>
<path d="M12.3507 9.04627C12.3396 9.03576 12.3285 9.02525 12.3174 9.01473C12.3295 9.01348 12.3416 9.01224 12.3537 9.01099C12.3527 9.02275 12.3517 9.03451 12.3507 9.04626V9.04627Z" fill="#000037"/>
<path d="M10.3133 10.0951C10.231 9.86266 10.2389 9.87696 10.4484 9.76198C10.6116 9.67237 10.7585 9.54882 10.9011 9.42686C11.0466 9.3024 11.0495 9.12145 11.0531 8.94604C11.205 9.10728 11.1957 9.48815 11.0211 9.66165C10.8168 9.86464 10.584 10.0074 10.3133 10.0951H10.3133Z" fill="#C8C8D4"/>
<path d="M9.02469 8.94482C9.00047 9.38998 9.29467 9.6037 9.63871 9.77064C9.85139 9.87384 9.85651 9.86329 9.77835 10.0964C9.58812 9.99545 9.38936 9.90767 9.20955 9.79074C8.89458 9.58591 8.86677 9.17746 9.02468 8.94483L9.02469 8.94482Z" fill="#C8C8D4"/>
<path d="M9.29102 8.72311C9.34991 8.65761 9.3968 8.55779 9.46968 8.53231C9.86682 8.39347 10.2682 8.39596 10.6631 8.55181C10.7009 8.56674 10.7357 8.59574 10.7641 8.6256C10.7791 8.64135 10.7774 8.67308 10.7831 8.6976C10.7595 8.69867 10.7328 8.7076 10.7128 8.69966C10.236 8.51068 9.76386 8.53501 9.29463 8.72668L9.29102 8.72311V8.72311Z" fill="#313260"/>
<path d="M9.646 11.2351C9.52218 11.2234 9.42699 11.1702 9.37793 11.0502C9.57149 10.8996 9.76504 10.7491 9.9586 10.5985C9.89014 10.7508 9.82375 10.904 9.75222 11.0548C9.72246 11.1176 9.68174 11.1752 9.646 11.2351Z" fill="#C8C8D4"/>
<path d="M9.29469 8.72669L9.2793 8.73843C9.28324 8.73334 9.28719 8.72825 9.29111 8.72314C9.29109 8.72312 9.29469 8.72669 9.29469 8.72669Z" fill="#303742"/>
<path d="M13.5715 13.273C13.5576 13.1563 13.5437 13.0395 13.5298 12.9228C13.4546 12.6926 13.3795 12.4623 13.3044 12.2321C13.0501 11.6831 12.6883 11.2179 12.2185 10.8367C12.173 10.8099 12.1275 10.7832 12.082 10.7565C12.0443 10.789 12.0066 10.8216 11.9689 10.8542C12.034 10.9086 12.0991 10.9631 12.1643 11.0176C12.4833 11.2575 12.7371 11.5539 12.93 11.9029C12.9769 11.9787 13.0259 12.0534 13.0698 12.1309C13.0871 12.1615 13.0933 12.1985 13.1046 12.2325C13.0636 12.2206 13.0226 12.2087 12.9817 12.1968C12.6551 11.8466 12.3286 11.4964 12.0021 11.1462C11.9448 11.0823 11.8874 11.0184 11.8301 10.9545C11.8121 10.9674 11.7941 10.9802 11.776 10.9931C11.7672 11.0386 11.7738 11.1088 11.7469 11.1258C11.5392 11.2569 11.325 11.3778 11.1128 11.5019C11.0611 11.5246 11.0094 11.5474 10.9577 11.5701C10.9524 11.5941 10.9471 11.6181 10.9417 11.6421C10.9923 11.7615 11.0465 11.8795 11.0928 12.0005C11.2021 12.2857 11.3114 12.571 11.4114 12.8594C11.431 12.9158 11.4091 12.9867 11.4063 13.051C11.4294 13.056 11.4524 13.061 11.4754 13.066C11.5135 13.058 11.5545 13.0363 11.589 13.0439C11.9274 13.1191 12.265 13.1977 12.6018 13.2797C12.6374 13.2883 12.6663 13.3243 12.6983 13.3476C12.7214 13.3468 12.7446 13.3461 12.7677 13.3454C12.7688 13.2892 12.7602 13.2307 12.7728 13.1772C12.833 12.9221 12.9021 12.6691 12.9612 12.4138C12.9806 12.3299 12.9992 12.2788 13.0887 12.3493C13.1294 12.3837 13.1911 12.4102 13.2078 12.4538C13.4884 13.1897 13.502 13.9344 13.2631 14.6835C13.2516 14.7194 13.1917 14.7758 13.1822 14.7707C13.1037 14.7288 13.0241 14.6822 12.9616 14.6201C12.9514 14.6099 12.9504 14.5738 12.9526 14.5321C12.9578 14.4851 12.9675 14.3979 12.9712 14.3646C12.9478 14.2051 12.9245 14.0456 12.9011 13.8861C12.8566 13.7058 12.8122 13.5256 12.7677 13.3454C12.7446 13.3461 12.7214 13.3469 12.6983 13.3476C12.7046 13.3884 12.711 13.4293 12.7173 13.4702C12.7559 13.609 12.7945 13.7479 12.833 13.8867C12.8519 14.0602 12.9236 14.3159 12.8815 14.5832C12.8487 14.6767 12.8292 14.779 12.7731 14.8545C12.5117 15.2059 12.2583 15.5679 11.8692 15.7987C11.8657 15.8008 11.8629 15.8045 11.8606 15.8092C11.7672 15.8072 11.6391 15.8106 11.5872 15.8023C11.5656 15.8237 11.5441 15.845 11.5225 15.8664C11.5433 15.8696 11.5648 15.8779 11.5847 15.875C11.716 15.8869 11.7995 15.8898 11.8521 15.8874C11.8544 15.9321 11.8606 15.9767 11.865 16.0214C11.8379 16.3368 11.7584 16.6009 11.4158 16.7385C10.8682 16.9586 10.3097 17.0625 9.72279 17.0087C9.50576 16.9888 9.34622 16.8731 9.31668 16.7254C9.31043 16.6999 9.30063 16.6747 9.29846 16.6489C9.26476 16.2483 9.27849 16.2539 9.64857 16.1227C9.93608 16.0208 10.2082 15.8742 10.4833 15.7395C10.5625 15.7007 10.6276 15.627 10.7192 15.6753C10.7236 15.6781 10.7289 15.6812 10.7352 15.6847C10.7405 15.6882 10.7459 15.6919 10.7515 15.6963C10.7534 15.6979 10.7565 15.6981 10.76 15.6978C10.7913 15.7138 10.8369 15.7352 10.9019 15.7641C11.0934 15.8492 11.3154 15.8336 11.5225 15.8664C11.5441 15.845 11.5657 15.8237 11.5872 15.8023C11.4163 15.7744 11.2454 15.7466 11.0744 15.7187C11.0061 15.7046 10.9107 15.6778 10.8355 15.6605C10.7503 15.6131 10.6543 15.5745 10.6642 15.4491L10.6609 15.354C10.597 14.9503 10.5331 14.5466 10.4692 14.1429C10.4593 14.1205 10.4494 14.0981 10.4395 14.0757C10.2688 14.0427 10.0987 14.0059 9.92722 13.9776C9.64474 13.9309 9.36107 13.8916 9.0785 13.8455C9.01809 13.8356 8.95836 13.8216 8.89869 13.8071C8.82715 13.6737 8.71857 13.4817 8.67668 13.4051C8.64983 13.3503 8.60255 13.2299 8.57387 13.1693C8.53584 12.9417 8.49282 12.7148 8.4647 12.486C8.45739 12.4266 8.48293 12.3457 8.52272 12.3006C8.80705 11.9784 9.09687 11.661 9.39118 11.3478C9.42741 11.3093 9.50112 11.287 9.55624 11.2891C9.68158 11.2939 9.80615 11.3185 9.93104 11.3351L9.93112 11.2696C9.83593 11.2581 9.74075 11.2466 9.64556 11.2351C9.52174 11.2234 9.42655 11.1702 9.37749 11.0502C9.27388 11.0628 9.17026 11.0755 9.06669 11.088C9.05248 11.1272 9.0446 11.1704 9.02302 11.205C8.72204 11.6885 8.32203 12.0548 7.78006 12.2538C7.73745 12.2695 7.70285 12.3069 7.66452 12.3342C7.85408 12.3496 8.04344 12.3723 8.23327 12.3775C8.3395 12.3803 8.36785 12.4092 8.3788 12.5201C8.39945 12.7292 8.45428 13.0315 8.53385 13.2513C8.53391 13.2516 8.53399 13.2516 8.53405 13.2518C8.54277 13.2856 8.56249 13.3276 8.58987 13.3781C8.65101 13.5049 8.72623 13.6652 8.78869 13.7951C8.78965 13.849 8.80253 13.9091 8.78056 13.951C8.6035 14.2883 8.42035 14.6225 8.23278 14.9541C8.20931 14.9956 8.14578 15.0457 8.10603 15.0416C7.86542 15.0166 7.62361 14.9895 7.38769 14.938C7.23315 14.9042 7.11009 14.7989 7.05779 14.641C6.94167 14.2904 6.81628 13.9414 6.72958 13.5833C6.70075 13.4642 6.77845 13.3193 6.80744 13.1862C6.67816 13.2041 6.66987 13.1932 6.71041 13.0591C6.7964 12.5777 6.97784 12.1352 7.25578 11.7332C7.31332 11.6499 7.38203 11.5744 7.44559 11.4953L7.4427 11.499C7.45261 11.4885 7.46253 11.4779 7.47244 11.4674C7.62716 11.3296 7.78111 11.191 7.93692 11.0545C8.01009 10.9904 8.14779 10.9789 8.11444 10.8307C8.07826 10.8067 8.04207 10.7827 8.00588 10.7586C7.94814 10.7952 7.89039 10.8317 7.83265 10.8682C7.37039 11.2496 7.02068 11.7164 6.77483 12.262C6.70065 12.4952 6.62648 12.7284 6.55231 12.9616C6.52153 13.1449 6.49075 13.3281 6.45996 13.5114C6.4896 13.745 6.51033 13.9801 6.55042 14.2119C6.72884 15.2436 7.26377 16.0435 8.13232 16.6243C8.18714 16.6609 8.23232 16.712 8.282 16.7564C8.36544 16.8003 8.44887 16.8442 8.53231 16.8881C8.57717 16.8944 8.62573 16.8917 8.66635 16.9084C9.46815 17.2374 10.2833 17.2655 11.1116 17.0229C11.1414 17.0141 11.1737 17.0137 11.2049 17.0094C11.2974 16.9782 11.39 16.9469 11.4825 16.9157C11.5173 16.8863 11.6727 16.8351 11.7109 16.8113C11.9549 16.6589 12.1024 16.5607 12.3216 16.3751C12.7984 15.9341 13.1807 15.4273 13.3933 14.807C13.4512 14.6381 13.4851 14.461 13.53 14.2877C13.5375 14.2644 13.5493 14.2416 13.5519 14.2179C13.5762 14.002 13.5989 13.7859 13.622 13.5699C13.6052 13.4709 13.5883 13.372 13.5715 13.273L13.5715 13.273ZM9.13411 16.8106C8.98861 16.7943 8.82834 16.8003 8.70279 16.7388C8.4536 16.6167 8.22382 16.455 7.98602 16.3096C7.75349 16.0648 7.52096 15.82 7.28843 15.5751C7.24339 15.3939 7.19467 15.2134 7.15511 15.031C7.1392 14.9576 7.1622 14.9192 7.24815 14.9679C7.50701 15.1146 7.79145 15.1304 8.08098 15.1313C8.14521 15.1315 8.2261 15.1727 8.27066 15.2212C8.54159 15.5167 8.80423 15.8197 9.06963 16.1202C9.19484 16.1538 9.24196 16.2295 9.22342 16.3619C9.20837 16.4693 9.21772 16.5802 9.21624 16.6895C9.24378 16.7673 9.22348 16.8205 9.13413 16.8106H9.13411Z" fill="#20232C"/>
<path d="M7.93982 6.72971C7.92492 6.85391 7.86631 6.9409 7.73201 6.94299C7.59983 6.94505 7.52093 6.86562 7.51768 6.73919C7.51443 6.61238 7.59011 6.53023 7.72199 6.52592C7.85613 6.52153 7.91986 6.60427 7.93981 6.72971H7.93982Z" fill="#EAEAEA"/>
<path d="M7.5015 7.15977C7.59722 7.21878 7.58897 7.36731 7.48496 7.41004C7.47319 7.41488 7.46203 7.41713 7.45122 7.41602C7.40131 7.41086 7.37997 7.31743 7.37895 7.28231C7.37767 7.23834 7.40776 7.15707 7.46328 7.14871C7.475 7.14694 7.48764 7.15122 7.5015 7.15977V7.15977Z" fill="#EAEAEA"/>
<path d="M12.6217 6.77063C12.6108 6.90176 12.5475 6.98667 12.4146 6.98908C12.2812 6.9915 12.2057 6.90827 12.2041 6.78016C12.2027 6.65882 12.2761 6.57804 12.3999 6.57235C12.5317 6.5663 12.6021 6.6452 12.6217 6.77062V6.77063Z" fill="#EAEAEA"/>
<path d="M12.6749 7.15596C12.7749 7.20927 12.7769 7.35882 12.6751 7.40851C12.6639 7.414 12.6532 7.41678 12.6427 7.41606C12.6312 7.41526 12.62 7.41123 12.6089 7.40496C12.5231 7.35646 12.519 7.23425 12.5946 7.17097C12.6077 7.15995 12.6216 7.15167 12.6367 7.14775C12.6477 7.14486 12.6605 7.14823 12.6749 7.15596Z" fill="#EAEAEA"/>
</g>
<defs>
<clipPath id="clip0_4441_57711">
<rect width="20" height="20" fill="white"/>
</clipPath>
</defs>
</svg>
