<svg width="18" height="18" viewBox="0 0 18 18" fill="none" xmlns="http://www.w3.org/2000/svg">
<path d="M12.3022 1.79999H5.84521C5.48856 1.80038 5.14663 1.94141 4.89444 2.19212C4.64225 2.44284 4.5004 2.78276 4.5 3.13733V14.8629C4.5004 15.2175 4.64225 15.5574 4.89444 15.8081C5.14663 16.0588 5.48856 16.1998 5.84521 16.2002H12.3022C12.6588 16.1998 13.0008 16.0588 13.253 15.8081C13.5051 15.5574 13.647 15.2175 13.6474 14.8629V3.13733C13.647 2.78276 13.5051 2.44284 13.253 2.19212C13.0008 1.94141 12.6588 1.80038 12.3022 1.79999ZM13.1093 14.8629C13.1091 15.0756 13.024 15.2796 12.8727 15.43C12.7213 15.5805 12.5162 15.6651 12.3022 15.6653H5.84521C5.63122 15.6651 5.42606 15.5805 5.27474 15.43C5.12343 15.2796 5.03832 15.0756 5.03808 14.8629V3.13733C5.03832 2.92459 5.12343 2.72063 5.27474 2.5702C5.42606 2.41977 5.63122 2.33516 5.84521 2.33492H12.3022C12.5162 2.33516 12.7213 2.41977 12.8727 2.5702C13.024 2.72063 13.1091 2.92459 13.1093 3.13733V14.8629ZM11.4951 4.16418C11.4951 4.23512 11.4667 4.30315 11.4163 4.35331C11.3658 4.40347 11.2974 4.43165 11.226 4.43165H6.92137C6.85002 4.43165 6.78158 4.40347 6.73113 4.35331C6.68067 4.30315 6.65233 4.23512 6.65233 4.16418C6.65233 4.09325 6.68067 4.02522 6.73113 3.97506C6.78158 3.9249 6.85002 3.89672 6.92137 3.89672H11.226C11.2974 3.89672 11.3658 3.9249 11.4163 3.97506C11.4667 4.02522 11.4951 4.09325 11.4951 4.16418Z" fill="#363636"/>
</svg>
