<svg width="20" height="20" viewBox="0 0 20 20" fill="none" xmlns="http://www.w3.org/2000/svg">
<path d="M16.5498 1C17.078 1 17.5066 1.44726 17.5151 1.97278L17.5152 1.98873V9.03662C17.5152 9.04782 17.5243 9.0569 17.5356 9.0569H19.0244C19.5632 9.0569 20 9.49276 20 10.0304C20 10.5681 19.5632 11.0039 19.0244 11.0039H17.5356C17.5243 11.0039 17.5152 11.013 17.5152 11.0242V18.0113C17.5152 18.5383 17.1417 18.9412 16.6166 18.9492L16.6006 18.9493H16.499C16.0738 18.9493 15.7718 18.7036 15.4716 18.3574L15.4573 18.3408L9.71379 11.0117C9.70993 11.0068 9.70403 11.0039 9.69777 11.0039H4.45122C4.43999 11.0039 4.43089 11.013 4.43089 11.0242V18.0113C4.43089 18.5383 4.00758 18.9909 3.45677 19H3.44004C2.91184 19 2.48324 18.5527 2.47472 18.0272L2.47459 18.0113V11.0242C2.47459 11.013 2.46549 11.0039 2.45427 11.0039H0.97561C0.436795 11.0039 0 10.5681 0 10.0304C0 9.49276 0.436795 9.0569 0.97561 9.0569H2.45427C2.46549 9.0569 2.47459 9.04782 2.47459 9.03662V2.03944C2.47459 1.51237 2.92281 1.05984 3.44946 1.05084L3.46545 1.0507H3.74492C4.18816 1.0507 4.46434 1.26505 4.73538 1.6014L4.76118 1.6338L10.5882 9.04914C10.5921 9.05404 10.598 9.0569 10.6042 9.0569H15.5386C15.5498 9.0569 15.5589 9.04782 15.5589 9.03662V1.98873C15.5589 1.46166 15.9823 1.00913 16.5331 1H16.5498ZM15.5386 11.0039H12.1662C12.1549 11.0039 12.1458 11.013 12.1458 11.0242C12.1458 11.0288 12.1474 11.0332 12.1502 11.0367L15.5226 15.3284C15.5296 15.3372 15.5423 15.3388 15.5512 15.3319C15.5561 15.328 15.5589 15.3221 15.5589 15.3159V11.0242C15.5589 11.013 15.5498 11.0039 15.5386 11.0039ZM4.43089 4.32928V9.03662C4.43089 9.04782 4.43999 9.0569 4.45122 9.0569H8.14017C8.1514 9.0569 8.1605 9.04782 8.1605 9.03662C8.1605 9.03209 8.15898 9.02769 8.15618 9.02413L4.46723 4.31679C4.46032 4.30797 4.44754 4.30641 4.4387 4.31331C4.43377 4.31715 4.43089 4.32304 4.43089 4.32928Z" fill="url(#paint0_linear)"/>
<defs>
<linearGradient id="paint0_linear" x1="15.7105" y1="5.27686" x2="5.49166" y2="15.7571" gradientUnits="userSpaceOnUse">
<stop stop-color="#0A87F5"/>
<stop offset="1" stop-color="#DC1EB9"/>
</linearGradient>
</defs>
</svg>
