<svg width="46" height="46" viewBox="0 0 46 46" fill="none" xmlns="http://www.w3.org/2000/svg">
<path d="M22.9999 3.79272C27.0356 3.79272 30.9271 5.3061 33.7377 8.11666C36.6203 10.9272 38.2071 14.6026 38.2071 18.5675V42.9991H7.79272V18.5675C7.79272 14.6039 9.37816 10.9272 12.2608 8.11666C15.0713 5.3061 18.8922 3.79272 22.9999 3.79272ZM22.9999 3C18.748 3 14.7097 4.58544 11.6843 7.54149C8.65887 10.4935 7 14.3864 7 18.5662V43.7918H38.9998V18.5675C39.0095 16.5181 38.5987 14.4884 37.7928 12.6041C36.9868 10.7197 35.8029 9.02076 34.3142 7.6122C31.2875 4.58544 27.2518 3 22.9999 3Z" fill="#181A1F"/>
<path d="M32.4156 9.56342L31.695 8.84276C29.3155 6.75286 26.2901 5.67188 23.0471 5.67188C19.5145 5.67188 16.1275 7.04112 13.6772 9.56342C12.4401 10.7892 11.4589 12.2486 10.7908 13.857C10.1227 15.4653 9.78108 17.1904 9.78569 18.9319V40.9867H36.3072V19.004C36.3072 15.4007 34.8659 12.0857 32.4156 9.56342ZM28.3065 39.6161C27.0311 40.0533 25.6912 40.273 24.3429 40.2661H14.7569V35.8687C14.5431 35.6466 14.3501 35.4054 14.1803 35.148C12.5228 32.9861 11.658 30.321 11.658 27.5812V19.2936C11.658 16.0493 12.8831 13.0226 15.0451 10.6458C15.3334 10.6458 15.6937 10.6458 16.054 10.7165C18.2881 10.934 21.3162 11.7254 23.9092 13.527C26.2166 15.1125 29.0272 17.9951 29.0272 22.6807V39.3999C28.8096 39.472 28.5948 39.5454 28.3065 39.6175V39.6161Z" fill="#181A1F"/>
<path d="M23.9844 13.5311C21.3901 11.8015 18.3633 10.9367 16.1293 10.7205C15.769 10.7205 15.4086 10.6484 15.1204 10.6484C12.9584 13.028 11.7319 16.0534 11.7319 19.2963V27.5852C11.7319 30.3237 12.5981 32.9901 14.2556 35.1521C14.4718 35.3696 14.6159 35.6566 14.8321 35.8727V40.2701H24.4182C25.7861 40.2701 27.0833 40.0525 28.3804 39.6202C28.6687 39.5481 28.8849 39.476 29.1732 39.3319V22.6127C29.1011 17.9271 26.2905 15.1165 23.9844 13.5311V13.5311ZM15.5528 39.476V36.6668C16.8499 37.8919 18.3633 38.9009 20.0208 39.4774H15.5528V39.476ZM28.3084 38.8274C27.0328 39.2641 25.693 39.4834 24.3448 39.476C21.1739 39.476 18.2192 38.2523 15.9131 35.9448L15.4807 35.5124C15.1776 35.2086 14.9115 34.8699 14.688 34.5035C13.1822 32.4848 12.3729 30.0316 12.3819 27.5131V19.2963C12.3819 16.4137 13.4629 13.6031 15.3366 11.4412C20.3812 11.6574 28.2363 15.1165 28.2363 22.6127V38.8274H28.3084V38.8274Z" fill="#181A1F"/>
<path d="M19.9705 29.8358C19.8583 29.8282 19.7527 29.7802 19.6732 29.7007C19.5937 29.6212 19.5457 29.5156 19.5381 29.4034V22.05C19.5395 21.1139 19.912 20.2166 20.5739 19.5547C21.2359 18.8927 22.1332 18.5202 23.0693 18.5188C24.0054 18.5202 24.9027 18.8927 25.5647 19.5547C26.2266 20.2166 26.5991 21.1139 26.6005 22.05C26.5929 22.1622 26.5449 22.2678 26.4654 22.3473C26.3859 22.4268 26.2803 22.4748 26.1681 22.4824C26.056 22.4748 25.9504 22.4268 25.8709 22.3473C25.7914 22.2678 25.7434 22.1622 25.7357 22.05C25.7357 20.6087 24.5106 19.3849 23.0693 19.3849C21.628 19.3849 20.4029 20.6087 20.4029 22.05V29.4021C20.3952 29.5142 20.3472 29.6198 20.2677 29.6993C20.1882 29.7788 20.0826 29.8268 19.9705 29.8345V29.8358Z" fill="#181A1F"/>
<path d="M24.3678 24.1439C24.2554 24.1363 24.1496 24.0881 24.0701 24.0083C23.9906 23.9285 23.9427 23.8226 23.9354 23.7102C23.94 23.5954 23.9208 23.4809 23.8789 23.3739C23.8371 23.2669 23.7736 23.1697 23.6923 23.0884C23.6111 23.0072 23.5139 22.9437 23.4069 22.9018C23.2999 22.86 23.1854 22.8408 23.0706 22.8454C22.9558 22.8408 22.8413 22.86 22.7343 22.9018C22.6273 22.9437 22.5301 23.0072 22.4489 23.0884C22.3676 23.1697 22.3041 23.2669 22.2623 23.3739C22.2204 23.4809 22.2012 23.5954 22.2058 23.7102C22.1982 23.8223 22.1502 23.9279 22.0707 24.0074C21.9912 24.0869 21.8856 24.1349 21.7734 24.1426C21.6613 24.1349 21.5556 24.0869 21.4762 24.0074C21.3967 23.9279 21.3487 23.8223 21.341 23.7102C21.341 22.7012 22.1337 21.9085 23.1427 21.9085C24.1516 21.9085 24.9443 22.7012 24.9443 23.7102C24.8002 23.9277 24.584 24.1426 24.3678 24.1426V24.1439ZM19.9691 29.8344C18.6719 29.8344 17.5909 28.7534 17.5909 27.4562C17.5909 27.24 17.8085 27.0238 18.0233 27.0238C18.2408 27.0238 18.4557 27.24 18.4557 27.4562C18.4557 28.2489 19.1043 28.8975 19.897 28.8975C20.6897 28.8975 21.3383 28.2489 21.3383 27.4562C21.3383 27.24 21.5559 27.0238 21.7707 27.0238C21.9883 27.0238 22.2031 27.24 22.2031 27.4562C22.2752 28.7534 21.2662 29.8344 19.9691 29.8344ZM17.4481 24.8646C17.304 24.8646 17.2306 24.7925 17.1599 24.7204L15.2127 22.772V24.4308C15.2048 24.5427 15.1566 24.648 15.0772 24.7272C14.9977 24.8064 14.8923 24.8543 14.7803 24.8619C14.5628 24.8619 14.2759 24.6457 14.2759 24.3588V21.691C14.2759 21.4748 14.42 21.3306 14.5641 21.2586C14.7803 21.1865 14.9245 21.1865 15.0672 21.3306L17.0144 23.2764V22.1234C17.0144 21.9072 17.2306 21.691 17.4468 21.691C17.663 21.691 17.8792 21.9085 17.8792 22.1234V24.3588C17.8766 24.4505 17.8482 24.5396 17.7972 24.6158C17.7462 24.6921 17.6747 24.7524 17.5909 24.7898C17.5909 24.8619 17.5188 24.8619 17.4468 24.8619L17.4481 24.8646ZM19.8984 22.5571C19.7862 22.5495 19.6806 22.5015 19.6011 22.422C19.5216 22.3425 19.4736 22.2369 19.466 22.1247C19.466 22.0527 19.466 20.251 18.2422 20.251C18.1298 20.2437 18.0239 20.1958 17.9441 20.1163C17.8643 20.0368 17.8161 19.931 17.8085 19.8186C17.8085 19.6011 18.026 19.3862 18.2408 19.3862C19.8997 19.3862 20.3307 21.1879 20.3307 22.1247C20.3231 22.2369 20.2751 22.3425 20.1956 22.422C20.1161 22.5015 20.0105 22.5495 19.8984 22.5571Z" fill="#181A1F"/>
</svg>
