<svg width="20" height="20" viewBox="0 0 20 20" fill="none" xmlns="http://www.w3.org/2000/svg">
<path d="M3.37433 9.03058C2.92522 9.47968 2.92522 10.2078 3.37433 10.6569C3.82343 11.106 4.55157 11.106 5.00067 10.6569L3.37433 9.03058ZM8.125 5.90625L8.93817 5.09308C8.48907 4.64397 7.76093 4.64397 7.31183 5.09308L8.125 5.90625ZM12.0625 9.84375L11.2493 10.6569C11.4806 10.8882 11.7995 11.0101 12.1261 10.992C12.4527 10.9739 12.7562 10.8176 12.9605 10.5621L12.0625 9.84375ZM16.9605 5.56215C17.3573 5.0662 17.2768 4.34251 16.7809 3.94575C16.2849 3.54899 15.5613 3.6294 15.1645 4.12535L16.9605 5.56215ZM2.07009 10.6626C1.62484 10.2096 0.896732 10.2034 0.443807 10.6487C-0.00911796 11.0939 -0.0153412 11.822 0.429907 12.2749L2.07009 10.6626ZM4.875 15.1562L4.05491 15.9624C4.28128 16.1927 4.59403 16.3172 4.91672 16.3055C5.23942 16.2938 5.54232 16.1469 5.75139 15.9009L4.875 15.1562ZM8.40625 11L9.23174 10.1993C9.00599 9.96658 8.69247 9.83995 8.36839 9.85062C8.04431 9.8613 7.7398 10.0083 7.52986 10.2554L8.40625 11ZM12.4375 15.1562L11.612 15.9569C11.8464 16.1986 12.175 16.3254 12.5109 16.3039C12.8469 16.2824 13.1566 16.1147 13.3583 15.8452L12.4375 15.1562ZM19.6708 7.40766C20.0513 6.8991 19.9475 6.17841 19.4389 5.79793C18.9304 5.41746 18.2097 5.52129 17.8292 6.02984L19.6708 7.40766ZM5.00067 10.6569L8.93817 6.71942L7.31183 5.09308L3.37433 9.03058L5.00067 10.6569ZM7.31183 6.71942L11.2493 10.6569L12.8757 9.03058L8.93817 5.09308L7.31183 6.71942ZM12.9605 10.5621L16.9605 5.56215L15.1645 4.12535L11.1645 9.12535L12.9605 10.5621ZM0.429907 12.2749L4.05491 15.9624L5.69509 14.3501L2.07009 10.6626L0.429907 12.2749ZM5.75139 15.9009L9.28264 11.7446L7.52986 10.2554L3.99861 14.4116L5.75139 15.9009ZM7.58076 11.8007L11.612 15.9569L13.263 14.3556L9.23174 10.1993L7.58076 11.8007ZM13.3583 15.8452L19.6708 7.40766L17.8292 6.02984L11.5167 14.4673L13.3583 15.8452Z" fill="#465EF1"/>
</svg>
