<svg width="20" height="20" viewBox="0 0 20 20" fill="none" xmlns="http://www.w3.org/2000/svg">
<path d="M10 20C15.5228 20 20 15.5228 20 10C20 4.47715 15.5228 0 10 0C4.47715 0 0 4.47715 0 10C0 15.5228 4.47715 20 10 20Z" fill="#202029"/>
<path d="M3.22437 12.1018H4.31459V10.0657H4.3364L5.86545 12.1018H6.75126V8.2358H5.66103V10.2398H5.63922L4.12108 8.2358H3.22437V12.1018Z" fill="#1AF296"/>
<path fill-rule="evenodd" clip-rule="evenodd" d="M11.35 10.1702C11.35 8.93507 10.5841 8.16882 9.36854 8.16882C8.15293 8.16882 7.38704 8.93507 7.38704 10.1702C7.38704 11.4053 8.1502 12.1688 9.36854 12.1688C10.5841 12.1688 11.35 11.4053 11.35 10.1702ZM8.56449 10.1702C8.56449 9.50037 8.88611 9.07438 9.36854 9.07438C9.85096 9.07438 10.1726 9.50037 10.1726 10.1702C10.1726 10.8373 9.85369 11.2633 9.36854 11.2633C8.88338 11.2633 8.56449 10.8373 8.56449 10.1702Z" fill="#1AF296"/>
<path d="M13.9264 12.1018L14.5124 9.88885H14.5342L15.1202 12.1018H16.2105L17.2244 8.2358H16.0306L15.5781 10.6792H15.5563L14.9703 8.2358H14.0763L13.4903 10.6792H13.4685L13.0161 8.2358H11.8223L12.8362 12.1018H13.9264Z" fill="#1AF296"/>
</svg>
