<svg width="20" height="20" fill="none" xmlns="http://www.w3.org/2000/svg"><circle cx="10" cy="10" r="10" fill="#fff"/><path d="M6.755 15.25c-.044.083-.13.095-.203.13a38.935 38.935 0 0 1-1.015.47l-.27.127c-.085.04-.116.033-.157-.052-.12-.247-.238-.494-.356-.74-.126-.263-.246-.527-.372-.789-.074-.153-.154-.304-.228-.458-.105-.214-.205-.43-.307-.647-.098-.199-.198-.398-.295-.6-.103-.21-.202-.427-.305-.639-.097-.201-.197-.397-.292-.599-.097-.201-.19-.405-.287-.607-.074-.153-.154-.304-.23-.458-.075-.151-.144-.305-.216-.456-.077-.158-.156-.314-.233-.473-.074-.151-.144-.302-.218-.453-.069-.141-.14-.282-.207-.426-.085-.176-.164-.352-.249-.528a62.159 62.159 0 0 0-.29-.59c-.046-.09-.035-.123.057-.166l.822-.38.585-.272c.076-.035.087-.03.123.043.09.181.176.363.264.544.102.211.202.423.307.634.015.03.046.063.085.043a.137.137 0 0 0 .061-.075c.01-.043 0-.091.003-.139.01-.136.01-.272.033-.405a3.15 3.15 0 0 1 .164-.55c.092-.238.215-.457.377-.656a2.59 2.59 0 0 1 .545-.534c.16-.106.313-.217.48-.31a4.494 4.494 0 0 1 .917-.36c.1-.027.205-.048.31-.058.171-.017.348-.042.52-.027a2.57 2.57 0 0 1 1.14.352c.205.123.39.272.559.443.074.076.156.146.223.23.133.166.261.334.381.508.085.12.162.25.236.378.085.15.167.304.244.458.123.247.24.498.36.745.088.179.18.358.265.536.105.217.202.436.307.655.074.154.151.305.226.46.087.182.171.366.258.547.082.171.172.342.254.514.098.199.19.403.285.601.074.154.153.305.228.459.084.17.164.345.248.518.098.202.187.408.3.602.097.169.218.325.336.478.179.232.404.418.66.56.11.06.242.088.364.13.146.05.3.068.451.053.105-.01.208-.033.31-.053a2.143 2.143 0 0 0 .692-.264c.164-.09.31-.204.438-.335.106-.106.203-.219.277-.35.074-.13.126-.272.174-.413.105-.294.095-.597.077-.896-.007-.149-.051-.295-.08-.44a2.555 2.555 0 0 0-.066-.278 4.413 4.413 0 0 0-.102-.312 15.406 15.406 0 0 0-.195-.473c-.059-.136-.123-.27-.187-.403-.085-.179-.174-.355-.261-.531-.1-.204-.203-.406-.3-.61-.151-.312-.3-.624-.449-.936-.11-.23-.223-.456-.333-.682-.117-.247-.238-.491-.356-.738l-.307-.64c-.036-.075-.077-.15-.11-.229-.031-.073-.034-.12.064-.158.117-.043.23-.104.345-.159l.41-.191.49-.23c.064-.03.128-.067.197-.088.054-.017.077.036.095.073.043.081.082.164.12.245.075.153.144.31.218.463.087.184.177.367.267.549a95.007 95.007 0 0 1 .717 1.478l.33.682c.121.25.241.496.36.745l.399.844c.108.229.218.455.328.682.156.322.315.645.474.967.12.246.24.496.361.742l.328.678c.07.146.141.292.21.44.02.046.006.081-.04.104-.154.073-.31.143-.467.214l-.546.251c-.153.07-.31.144-.466.214-.046.02-.074-.005-.092-.045l-.272-.569-.302-.627c-.016-.033-.046-.065-.085-.045-.028.018-.059.058-.061.09-.008.124.005.25-.01.37-.016.152-.047.3-.08.446-.023.1-.059.202-.092.3-.064.189-.162.36-.274.524-.144.206-.31.395-.515.546-.195.146-.4.282-.613.4-.19.106-.394.189-.597.267-.13.048-.271.063-.407.1a2.127 2.127 0 0 1-.69.054c-.104-.005-.21-.03-.312-.053-.128-.028-.259-.056-.382-.096a2.05 2.05 0 0 1-.34-.151 3.543 3.543 0 0 1-.436-.28 4.096 4.096 0 0 1-.413-.372 4.163 4.163 0 0 1-.607-.79 14.017 14.017 0 0 1-.387-.69c-.107-.207-.202-.424-.305-.635-.097-.204-.2-.405-.3-.61l-.4-.843c-.094-.196-.194-.39-.289-.589-.102-.214-.202-.43-.305-.644-.097-.202-.2-.4-.297-.602-.074-.154-.143-.307-.218-.46l-.23-.477c-.072-.15-.149-.3-.216-.453a2.764 2.764 0 0 0-.284-.49 3.429 3.429 0 0 0-.41-.494c-.177-.169-.361-.323-.594-.41a1.454 1.454 0 0 0-.272-.079 2.832 2.832 0 0 0-.328-.027c-.167-.01-.328.03-.484.083-.139.047-.277.093-.408.156-.215.1-.415.234-.586.397-.136.131-.26.277-.341.454-.049.103-.105.206-.139.314-.035.111-.058.224-.071.34a2.43 2.43 0 0 0-.023.386c.005.138.03.276.048.412a2.45 2.45 0 0 0 .105.491c.023.078.054.156.082.232.034.098.062.196.098.292.043.11.09.222.14.327.098.207.198.41.298.617.105.22.205.44.31.66.095.196.195.393.29.589.097.199.187.403.284.602l.248.503c.098.2.193.4.29.602.077.156.156.307.23.463.075.154.147.31.218.464.06.108.11.211.162.317Z" fill="#2F68EA"/></svg>
