<svg width="18" height="18" viewBox="0 0 18 18" fill="none" xmlns="http://www.w3.org/2000/svg">
<path d="M12.5819 2.70001C11.8622 2.69945 11.1717 2.98525 10.662 3.49468C10.1522 4.0041 9.86491 4.69552 9.86305 5.41716V8.42981C9.58305 8.44876 9.29675 8.4607 8.99995 8.4607C8.70315 8.4607 8.41825 8.47263 8.13685 8.48948V5.41716C8.1254 4.70177 7.83396 4.01958 7.3254 3.51773C6.81683 3.01589 6.13192 2.73463 5.4184 2.73463C4.70489 2.73463 4.01997 3.01589 3.5114 3.51773C3.00284 4.01958 2.7114 4.70177 2.69995 5.41716V12.6175C2.7114 13.3329 3.00284 14.0151 3.5114 14.5169C4.01997 15.0188 4.70489 15.3 5.4184 15.3C6.13192 15.3 6.81683 15.0188 7.3254 14.5169C7.83396 14.0151 8.1254 13.3329 8.13685 12.6175V9.60483C8.41685 9.58588 8.70315 9.57395 8.99995 9.57395C9.29675 9.57395 9.58165 9.56202 9.86305 9.54517V12.6175C9.8745 13.3329 10.1659 14.0151 10.6745 14.5169C11.1831 15.0188 11.868 15.3 12.5815 15.3C13.295 15.3 13.9799 15.0188 14.4885 14.5169C14.9971 14.0151 15.2885 13.3329 15.3 12.6175V5.41716C15.2981 4.69564 15.0109 4.00433 14.5013 3.49492C13.9917 2.98552 13.3014 2.69964 12.5819 2.70001ZM5.41805 3.81326C5.84277 3.81308 6.25023 3.98184 6.55101 4.28253C6.85179 4.58322 7.02134 4.99127 7.02245 5.41716V8.6074C6.2271 8.72297 5.45041 8.94316 4.71245 9.26229C4.39271 9.40301 4.09173 9.58315 3.81645 9.79856V5.41716C3.81756 4.99176 3.98672 4.58413 4.2869 4.28352C4.58708 3.98291 4.99381 3.81382 5.41805 3.81326ZM7.02245 12.6175C7.02245 13.0442 6.85342 13.4534 6.55253 13.7551C6.25165 14.0568 5.84356 14.2263 5.41805 14.2263C4.99254 14.2263 4.58445 14.0568 4.28357 13.7551C3.98269 13.4534 3.81365 13.0442 3.81365 12.6175V11.8952C3.81365 11.2572 4.31765 10.6528 5.16255 10.2766C5.75788 10.019 6.38254 9.83585 7.02245 9.73118V12.6175ZM12.5819 14.2214C12.1571 14.2216 11.7497 14.0528 11.4489 13.7521C11.1481 13.4514 10.9786 13.0434 10.9775 12.6175V9.42725C11.7728 9.31168 12.5495 9.09148 13.2875 8.77235C13.6072 8.63164 13.9082 8.45149 14.1835 8.23608V12.6175C14.1823 13.0429 14.0132 13.4505 13.713 13.7511C13.4128 14.0517 13.0061 14.2208 12.5819 14.2214ZM12.8374 7.75386C12.242 8.01141 11.6174 8.19458 10.9775 8.29926V5.41716C10.9775 4.99048 11.1465 4.58127 11.4474 4.27956C11.7483 3.97785 12.1563 3.80835 12.5819 3.80835C13.0074 3.80835 13.4155 3.97785 13.7163 4.27956C14.0172 4.58127 14.1863 4.99048 14.1863 5.41716V6.13944C14.1863 6.77468 13.6823 7.37903 12.8374 7.75386Z" fill="url(#paint0_linear_211_232)"/>
<defs>
<linearGradient id="paint0_linear_211_232" x1="8.99995" y1="2.70001" x2="8.99995" y2="15.3" gradientUnits="userSpaceOnUse">
<stop stop-color="#8EF5C2"/>
<stop offset="1" stop-color="#51B0E1"/>
</linearGradient>
</defs>
</svg>
