<svg width="20" height="20" viewBox="0 0 20 20" fill="none" xmlns="http://www.w3.org/2000/svg">
<path d="M10 20C15.5228 20 20 15.5228 20 10C20 4.47715 15.5228 0 10 0C4.47715 0 0 4.47715 0 10C0 15.5228 4.47715 20 10 20Z" fill="white"/>
<path d="M10.4563 6.78198C10.4563 5.254 11.695 4.01533 13.223 4.01533C14.7509 4.01533 15.9896 5.254 15.9896 6.78198C15.9896 8.30996 14.7509 9.54863 13.223 9.54863L6.77757 9.54862C4.75101 9.54862 3.10815 11.1915 3.10815 13.218C3.10815 15.2446 4.75101 16.8874 6.77757 16.8874C8.80413 16.8874 10.447 15.2446 10.447 13.218V12.7881L11.1963 13.5372L11.8346 12.8989L10.0001 11.0646L8.16583 12.8989L8.80419 13.5372L9.54422 12.7972V13.218C9.54422 14.746 8.30555 15.9847 6.77757 15.9847C5.24959 15.9847 4.01092 14.746 4.01092 13.218C4.01092 11.6901 5.24959 10.4514 6.77757 10.4514L13.223 10.4514C15.2495 10.4514 16.8924 8.80854 16.8924 6.78198C16.8924 4.75542 15.2495 3.11256 13.223 3.11256C11.1964 3.11256 9.55355 4.75542 9.55355 6.78198V7.21194L8.80428 6.46276L8.16597 7.10116L10.0004 8.9354L11.8347 7.10114L11.1964 6.46279L10.4563 7.20282V6.78198Z" fill="black"/>
</svg>
