<svg width="20" height="20" viewBox="0 0 20 20" fill="none" xmlns="http://www.w3.org/2000/svg">
<g clip-path="url(#clip0)">
<path fill-rule="evenodd" clip-rule="evenodd" d="M9.48567 0.486132V0.916172C9.63601 0.85539 9.77751 0.774685 9.90636 0.676222C9.76301 0.676222 9.61967 0.486132 9.47632 0.486132H9.48567Z" fill="black"/>
<path fill-rule="evenodd" clip-rule="evenodd" d="M9.99365 0.517294C9.84095 0.517294 9.68202 0.492365 9.53556 0.489248H9.48882C7.50635 0.595948 5.6068 1.31956 4.0558 2.5589C2.5048 3.79824 1.37991 5.49133 0.838446 7.4014C0.296979 9.31147 0.366007 11.343 1.03588 13.2119C1.70575 15.0808 2.94297 16.6937 4.57451 17.8249C4.27003 17.5491 4.02695 17.2124 3.86106 16.8366C3.69517 16.4608 3.61017 16.0543 3.6116 15.6435C3.6165 14.8632 3.92866 14.1162 4.48045 13.5644C5.03224 13.0126 5.77922 12.7004 6.55956 12.6955L7.14853 12.6768V12.5491C7.14816 11.9319 7.34297 11.3303 7.7051 10.8305C8.06722 10.3307 8.57812 9.95821 9.16473 9.76628C9.45912 9.66827 9.7675 9.6188 10.0778 9.61982C10.6424 9.61927 11.1952 9.78193 11.6696 10.0882C12.1439 10.3945 12.5196 10.8314 12.7515 11.3462C13.7564 10.6569 14.5255 9.67569 14.9549 8.53524C15.3842 7.39478 15.4532 6.15002 15.1525 4.96911C14.8517 3.7882 14.1957 2.72806 13.2731 1.93192C12.3506 1.13578 11.2059 0.641999 9.99365 0.517294Z" fill="#B4E1FF"/>
<path fill-rule="evenodd" clip-rule="evenodd" d="M10.3052 0.486132C15.4533 1.10938 17.0457 4.88937 17.0488 8.30165C17.0488 11.7918 14.1164 14.3378 11.5517 15.0109C10.5955 15.2458 9.62548 15.4207 8.6474 15.5344L8.25787 15.5812C8.16506 15.5938 8.07337 15.6135 7.98364 15.6404C7.70844 15.7212 7.45492 15.8629 7.24186 16.0549C7.02879 16.2469 6.86163 16.4844 6.75273 16.7498C6.65744 16.9799 6.60872 17.2267 6.60938 17.4758C6.60908 17.8735 6.7325 18.2615 6.96255 18.5859C7.1926 18.9103 7.51786 19.1551 7.89327 19.2864C8.02727 19.3175 8.16438 19.3425 8.30461 19.3705C8.86324 19.4694 9.42942 19.5195 9.99673 19.5201C12.4892 19.5119 14.879 18.5265 16.6529 16.7756C18.4269 15.0248 19.4434 12.648 19.4842 10.1559C19.525 7.66376 18.5868 5.25502 16.8711 3.44701C15.1555 1.639 12.7992 0.575931 10.3084 0.486132H10.3052Z" fill="#90D595"/>
<path fill-rule="evenodd" clip-rule="evenodd" d="M10.3053 0.486132C10.2025 0.486132 10.1028 0.486132 9.99368 0.486132C9.84099 0.486132 9.68206 0.486132 9.5356 0.486132C9.69141 0.486132 9.84722 0.501713 9.99368 0.517294C11.2085 0.638867 12.3566 1.13129 13.2819 1.92773C14.2073 2.72416 14.8652 3.78604 15.1664 4.96924C15.4676 6.15243 15.3974 7.39964 14.9654 8.54157C14.5334 9.68351 13.7605 10.6649 12.7516 11.3524C12.4796 10.736 12.0035 10.2322 11.4034 9.92587C10.8034 9.61953 10.1161 9.5294 9.45732 9.67066C8.79857 9.81193 8.20864 10.176 7.78696 10.7014C7.36528 11.2269 7.13761 11.8816 7.14233 12.5553V12.68L6.55024 12.7018C5.95648 12.703 5.37696 12.8837 4.88771 13.2201C4.39845 13.5565 4.02233 14.033 3.80869 14.587C3.59504 15.141 3.55385 15.7466 3.69053 16.3245C3.8272 16.9023 4.13535 17.4253 4.57455 17.8249C4.76153 17.9557 4.95162 18.0742 5.14794 18.1926C5.99913 18.7001 6.92595 19.0683 7.89334 19.2833C7.51818 19.1526 7.19301 18.9083 6.96295 18.5845C6.73288 18.2606 6.60934 17.8731 6.60945 17.4758C6.60846 17.2257 6.65719 16.9778 6.7528 16.7466C6.86266 16.4819 7.03014 16.2449 7.24306 16.053C7.45599 15.8611 7.709 15.7191 7.98371 15.6373C8.07389 15.613 8.16547 15.5942 8.25794 15.5812L8.64747 15.5375C9.62536 15.421 10.5953 15.2451 11.5518 15.0109C14.1165 14.3347 17.052 11.7918 17.0488 8.30165C17.0488 4.87379 15.4533 1.09691 10.3053 0.486132Z" fill="white"/>
<path fill-rule="evenodd" clip-rule="evenodd" d="M13.0881 11.6952L12.7454 11.3524L13.0881 11.6952Z" fill="black"/>
<path fill-rule="evenodd" clip-rule="evenodd" d="M9.99684 7.34115e-07C9.83479 7.34115e-07 9.68521 7.34115e-07 9.51382 7.34115e-07H9.49512C7.41173 0.104779 5.41331 0.858662 3.77981 2.15604C2.14632 3.45342 0.959588 5.22929 0.385878 7.23487C-0.187832 9.24045 -0.119781 11.3753 0.580498 13.3402C1.28078 15.3052 2.5782 17.0019 4.29101 18.1926C4.47413 18.356 4.67358 18.5001 4.88621 18.6226C4.93964 18.6506 4.99772 18.6685 5.0576 18.6756C5.90528 19.1597 6.81994 19.5157 7.77184 19.732C7.92625 19.7859 8.08615 19.8225 8.24863 19.8411C8.82679 19.9436 9.41277 19.9958 9.99995 19.9969C11.3278 20.0201 12.647 19.7786 13.8805 19.2865C15.1141 18.7943 16.2372 18.0614 17.1844 17.1305C18.1316 16.1996 18.8839 15.0894 19.3973 13.8645C19.9108 12.6397 20.1751 11.3249 20.1749 9.99686C20.1747 8.66878 19.91 7.35405 19.3961 6.12941C18.8823 4.90476 18.1297 3.79474 17.1822 2.86412C16.2347 1.9335 15.1113 1.20094 13.8776 0.709189C12.644 0.217438 11.3247 -0.0236487 9.99684 7.34115e-07ZM6.25735 18.2269C5.7588 18.0023 5.28206 17.7321 4.83323 17.4198C4.47979 17.0767 4.23694 16.6358 4.13587 16.1537C4.0348 15.6716 4.08011 15.1702 4.26599 14.7141C4.45188 14.2579 4.76985 13.8677 5.17909 13.5935C5.58833 13.3194 6.07016 13.1738 6.56274 13.1754C6.75595 13.1754 6.9772 13.1754 7.16106 13.1567C7.28398 13.1512 7.40006 13.0986 7.48531 13.0098C7.57057 12.9211 7.61848 12.803 7.61915 12.68V12.5553C7.61877 11.9931 7.81129 11.4479 8.16455 11.0106C8.51781 10.5733 9.01043 10.2704 9.56011 10.1526C10.1098 10.0348 10.6833 10.1091 11.1847 10.3632C11.6862 10.6173 12.0853 11.0358 12.3153 11.5488C12.3664 11.663 12.4607 11.7523 12.5775 11.7973C12.6942 11.8422 12.824 11.8392 12.9386 11.7887C12.9626 11.775 12.9855 11.7593 13.0071 11.742C14.3089 10.857 15.2394 9.52385 15.621 7.99673C16.0026 6.46961 15.8087 4.85544 15.0763 3.46214C16.3477 5.11063 16.5596 7.14553 16.5596 8.29542C16.5596 11.474 13.9108 13.8859 11.4178 14.5279C10.3507 14.7833 9.26812 14.9696 8.17695 15.0857C7.60642 15.1673 7.08431 15.4515 6.70609 15.8864C6.32787 16.3212 6.1188 16.8777 6.11712 17.454C6.12199 17.7096 6.16613 17.9629 6.248 18.205L6.25735 18.2269ZM0.959753 10C0.957884 7.66455 1.86022 5.41906 3.4776 3.7343C5.09497 2.04954 7.30177 1.05633 9.63535 0.962917C10.7378 1.00993 11.8003 1.38953 12.6829 2.0518C13.5656 2.71406 14.2271 3.62798 14.5805 4.67334C14.9339 5.7187 14.9626 6.84654 14.6629 7.90853C14.3631 8.97052 13.749 9.91692 12.9012 10.6232C12.5081 10.0442 11.9462 9.6003 11.292 9.3519C10.6377 9.10351 9.92278 9.06268 9.24449 9.23498C8.56619 9.40728 7.95743 9.78434 7.50102 10.3149C7.0446 10.8454 6.76269 11.5036 6.69363 12.2001H6.54405C5.63492 12.2001 4.76303 12.5612 4.12018 13.2041C3.47734 13.8469 3.11619 14.7188 3.11619 15.6279C3.11619 15.7121 3.11619 15.7931 3.13489 15.8772C1.72665 14.243 0.952491 12.1572 0.95352 10H0.959753ZM9.99684 19.0371C9.32775 19.0349 8.66097 18.9586 8.00868 18.8096C7.7115 18.697 7.46004 18.489 7.29368 18.2183C7.12731 17.9475 7.05542 17.6292 7.08926 17.3132C7.12311 16.9972 7.26077 16.7014 7.48071 16.472C7.70064 16.2426 7.99044 16.0926 8.30472 16.0455C9.43908 15.9232 10.5643 15.7275 11.6734 15.4596C14.5091 14.7149 17.5257 11.9476 17.5225 8.2923C17.5649 6.59349 17.1216 4.91785 16.2449 3.46214C17.5528 4.70775 18.4574 6.31669 18.8421 8.08139C19.2268 9.84608 19.0739 11.6856 18.4031 13.3625C17.7324 15.0395 16.5745 16.477 15.0789 17.4895C13.5833 18.5021 11.8186 19.0433 10.0124 19.0433L9.99684 19.0371Z" fill="#41474E"/>
</g>
<defs>
<clipPath id="clip0">
<rect width="20" height="20" fill="white"/>
</clipPath>
</defs>
</svg>
