<svg width="20" height="20" viewBox="0 0 20 20" fill="none" xmlns="http://www.w3.org/2000/svg">
<circle cx="10" cy="10" r="10" fill="#1A1720"/>
<path d="M2.65479 10.2466V12H1.62939V7.02344H3.5708C3.9445 7.02344 4.27262 7.0918 4.55518 7.22852C4.84001 7.36523 5.05876 7.56006 5.21143 7.81299C5.3641 8.06364 5.44043 8.34961 5.44043 8.6709C5.44043 9.15853 5.27295 9.54362 4.93799 9.82617C4.60531 10.1064 4.14388 10.2466 3.55371 10.2466H2.65479ZM2.65479 9.41602H3.5708C3.84196 9.41602 4.04818 9.35221 4.18945 9.22461C4.33301 9.09701 4.40479 8.91471 4.40479 8.67773C4.40479 8.43392 4.33301 8.23682 4.18945 8.08643C4.0459 7.93604 3.84766 7.85856 3.59473 7.854H2.65479V9.41602ZM9.14209 9.84326H7.17334V11.1763H9.48389V12H6.14795V7.02344H9.47705V7.854H7.17334V9.04004H9.14209V9.84326ZM13.8999 7.854H12.3755V12H11.3501V7.854H9.84619V7.02344H13.8999V7.854Z" fill="#EE9A00"/>
<path d="M18.4253 11.3711C18.2407 11.5921 17.9798 11.7642 17.6426 11.8872C17.3053 12.008 16.9316 12.0684 16.5215 12.0684C16.0908 12.0684 15.7126 11.9749 15.3867 11.7881C15.0632 11.599 14.8125 11.3255 14.6348 10.9678C14.4593 10.61 14.3693 10.1896 14.3647 9.70654V9.36816C14.3647 8.87142 14.4479 8.44189 14.6143 8.07959C14.7829 7.71501 15.0244 7.43701 15.3389 7.24561C15.6556 7.05192 16.0259 6.95508 16.4497 6.95508C17.0399 6.95508 17.5013 7.09635 17.834 7.37891C18.1667 7.65918 18.3638 8.0682 18.4253 8.60596H17.4272C17.3817 8.32113 17.2803 8.11263 17.123 7.98047C16.9681 7.84831 16.7539 7.78223 16.4805 7.78223C16.1318 7.78223 15.8664 7.91325 15.6841 8.17529C15.5018 8.43734 15.4095 8.82699 15.4072 9.34424V9.66211C15.4072 10.1839 15.5063 10.5781 15.7046 10.8447C15.9028 11.1113 16.1934 11.2446 16.5762 11.2446C16.9613 11.2446 17.2358 11.1626 17.3999 10.9985V10.1406H16.4668V9.38525H18.4253V11.3711Z" fill="#05CCF3"/>
</svg>
