<?xml version="1.0" standalone="no"?>
<!DOCTYPE svg PUBLIC "-//W3C//DTD SVG 20010904//EN"
        "http://www.w3.org/TR/2001/REC-SVG-20010904/DTD/svg10.dtd">
<svg version="1.0" xmlns="http://www.w3.org/2000/svg"
     width="314.000000pt" height="367.000000pt" viewBox="0 0 314.000000 367.000000"
     preserveAspectRatio="xMidYMid meet">

    <g transform="translate(0.000000,367.000000) scale(0.100000,-0.100000)"
       fill="#000000" stroke="none">
        <path d="M269 3657 c-70 -20 -136 -64 -174 -115 -107 -145 -125 -451 -40 -689
44 -123 85 -192 160 -268 58 -58 60 -63 52 -95 -15 -64 -20 -382 -8 -471 35
-247 121 -428 270 -573 l72 -68 2 -132 c2 -110 6 -140 26 -191 31 -77 107
-155 176 -179 69 -24 204 -31 290 -14 67 13 73 13 140 -10 242 -82 428 -82
670 0 67 23 73 23 140 10 86 -17 221 -10 290 14 69 24 145 102 176 179 20 51
24 81 26 191 l2 132 72 68 c149 145 235 326 270 573 12 89 7 407 -8 471 -8 32
-6 37 52 95 75 76 116 145 160 268 86 241 67 547 -43 692 -27 36 -57 60 -106
85 -67 34 -72 35 -180 34 -96 0 -124 -5 -207 -32 -156 -52 -331 -168 -498
-330 l-86 -84 -395 0 -395 0 -86 84 c-237 231 -469 354 -684 364 -56 2 -107
-1 -136 -9z m271 -157 c107 -54 269 -171 434 -313 l39 -33 -36 -23 c-131 -81
-247 -234 -270 -359 l-7 -32 53 53 c167 169 466 267 817 267 352 0 646 -97
817 -267 l52 -53 -6 33 c-23 119 -127 263 -250 345 -29 19 -53 36 -53 37 0 1
37 33 83 72 128 109 270 211 363 260 174 93 303 62 375 -91 41 -86 52 -155 46
-276 -11 -209 -90 -372 -236 -486 l-58 -45 8 -42 c5 -23 13 -104 19 -179 25
-295 -33 -582 -149 -751 -35 -51 -130 -147 -145 -147 -6 0 -33 44 -61 98 -27
53 -78 134 -111 179 l-62 82 37 6 c20 3 47 12 61 20 l25 13 -30 8 c-37 9 -121
50 -130 64 -4 6 17 10 57 10 80 1 155 27 181 62 19 26 19 29 4 68 -18 47 -11
50 46 20 33 -18 37 -18 37 -4 0 48 -82 125 -154 145 -56 15 -94 -3 -188 -87
-46 -42 -95 -82 -111 -90 -26 -14 -30 -13 -80 25 -111 84 -229 121 -387 121
-158 0 -276 -37 -387 -121 -50 -38 -54 -39 -80 -25 -16 8 -65 48 -111 90 -94
84 -132 102 -188 87 -72 -20 -154 -97 -154 -145 0 -14 4 -14 37 4 57 30 64 27
46 -20 -15 -39 -15 -42 4 -68 26 -35 101 -61 181 -62 40 0 61 -4 57 -10 -9
-14 -93 -55 -130 -64 l-30 -8 25 -13 c14 -8 41 -17 61 -20 l37 -6 -62 -82
c-33 -45 -83 -126 -111 -179 -27 -54 -55 -98 -61 -98 -15 0 -110 96 -145 147
-116 169 -174 456 -149 751 6 75 14 156 19 179 l8 42 -58 45 c-32 25 -77 69
-100 98 -199 250 -181 697 31 793 56 25 151 15 230 -25z m345 -1407 c41 -21
75 -40 75 -44 0 -11 -70 -18 -94 -10 -12 5 -27 15 -33 23 -14 16 -35 68 -28
68 3 0 38 -17 80 -37z m1435 27 c0 -24 -33 -71 -55 -80 -13 -5 -43 -6 -67 -2
l-43 8 75 42 c80 44 90 48 90 32z m-570 -69 c107 -36 197 -96 295 -195 101
-101 174 -205 240 -341 56 -114 75 -188 75 -291 0 -170 -62 -243 -206 -244
-168 0 -470 163 -525 285 -37 81 -21 141 65 234 80 87 96 141 55 180 -19 17
-36 19 -179 19 -143 0 -160 -2 -179 -19 -41 -39 -25 -93 55 -180 61 -66 84
-111 84 -161 -1 -89 -89 -183 -248 -266 -261 -135 -436 -122 -490 37 -17 48
-15 186 3 256 9 33 36 101 60 150 142 291 355 493 581 550 83 21 230 14 314
-14z m-144 -862 c16 -18 62 -56 102 -86 80 -60 89 -72 73 -101 -20 -37 -95
-57 -211 -57 -116 0 -191 20 -211 57 -16 29 -7 41 73 101 40 30 86 68 102 86
17 17 33 31 36 31 3 0 19 -14 36 -31z"/>
        <path d="M484 1108 l4 -88 -38 0 c-38 0 -38 0 -60 -66 -12 -36 -20 -66 -19
-68 2 -1 31 -12 63 -25 l60 -22 24 25 25 24 38 -56 c21 -32 56 -75 78 -97 23
-21 41 -42 41 -45 0 -3 -18 -16 -40 -30 -25 -15 -38 -30 -36 -40 3 -8 10 -43
17 -78 11 -57 14 -63 33 -58 12 2 47 8 78 11 l57 7 11 50 c7 27 15 47 19 45
18 -10 139 -65 155 -71 18 -6 17 -9 -10 -39 -60 -64 -59 -57 -9 -157 25 -50
49 -90 54 -88 4 2 47 21 95 43 l88 39 -4 68 c-2 45 0 67 7 65 5 -3 53 -12 105
-22 52 -10 97 -19 99 -21 2 -2 -14 -46 -35 -99 l-38 -96 109 -102 c60 -56 111
-102 115 -102 4 0 55 46 115 102 l109 102 -38 96 c-21 53 -37 97 -35 99 2 2
47 11 99 21 52 10 100 19 105 22 7 2 9 -20 7 -65 l-4 -68 88 -39 c48 -22 91
-41 95 -43 5 -2 29 38 54 88 50 100 51 93 -9 157 -27 30 -28 33 -10 39 16 6
137 61 155 71 4 2 12 -18 19 -45 l11 -50 57 -7 c31 -3 66 -9 78 -11 19 -5 22
1 33 58 7 35 14 70 17 78 2 10 -11 25 -36 40 -22 14 -40 27 -40 30 0 3 18 24
41 45 22 22 57 65 78 97 l38 56 25 -24 24 -25 60 22 c32 13 61 24 63 25 1 2
-7 32 -19 68 -22 66 -22 66 -60 66 l-38 0 4 88 4 87 -15 -54 c-71 -251 -343
-421 -790 -492 -105 -17 -465 -17 -570 0 -238 38 -418 100 -556 192 -128 86
-199 177 -234 300 l-15 54 4 -87z"/>
    </g>
</svg>
