<svg width="40" height="28" viewBox="0 0 40 28" fill="none" xmlns="http://www.w3.org/2000/svg">
<path d="M16.8584 19.9506V12.6107C16.8584 11.2602 17.9532 10.1654 19.3037 10.1654L21.4708 10.1687C22.8174 10.1713 23.9077 11.2637 23.9077 12.6104V14.1727C23.9077 15.5232 22.8128 16.618 21.4623 16.618H18.4" stroke="#939598" stroke-width="0.452076" stroke-miterlimit="10" stroke-linecap="round" stroke-linejoin="round"/>
<path d="M24.5132 10.1644H25.4532C26.0075 10.1644 26.4567 10.6137 26.4567 11.1679V16.6508" stroke="#939598" stroke-width="0.452076" stroke-miterlimit="10" stroke-linecap="round" stroke-linejoin="round"/>
<path d="M26.2562 9.31495L25.8299 8.8886C25.724 8.78283 25.724 8.61131 25.8299 8.50554L26.2559 8.07945C26.3619 7.97352 26.5336 7.97352 26.6395 8.07945L27.0655 8.50554C27.1714 8.61131 27.1714 8.78283 27.0655 8.8886L26.6392 9.31495C26.5335 9.42073 26.362 9.42073 26.2562 9.31495" fill="#32BCAD"/>
<path d="M28.2603 10.1595H29.1925C29.6722 10.1595 30.1321 10.35 30.4712 10.6891L32.6518 12.8697C32.9342 13.1522 33.3922 13.1522 33.6747 12.8697L35.8473 10.6971C36.1864 10.358 36.6463 10.1675 37.1259 10.1675H37.8839" stroke="#939598" stroke-width="0.452076" stroke-miterlimit="10" stroke-linecap="round" stroke-linejoin="round"/>
<path d="M28.2603 16.6028H29.1925C29.6722 16.6028 30.1321 16.4123 30.4712 16.0732L32.6518 13.8926C32.9342 13.6101 33.3922 13.6101 33.6747 13.8926L35.8473 16.0652C36.1864 16.4043 36.6463 16.5948 37.1259 16.5948H37.8839" stroke="#939598" stroke-width="0.452076" stroke-miterlimit="10" stroke-linecap="round" stroke-linejoin="round"/>
<path d="M11.3002 17.9959C10.8324 17.9959 10.3923 17.8137 10.0614 17.483L8.27266 15.6942C8.14706 15.5683 7.92818 15.5687 7.80264 15.6942L6.00736 17.4895C5.67648 17.8203 5.23641 18.0024 4.76853 18.0024H4.41602L6.68153 20.2679C7.38904 20.9754 8.53619 20.9754 9.24374 20.2679L11.5157 17.9959H11.3002Z" fill="#32BCAD"/>
<path d="M4.76842 11.6688C5.23631 11.6688 5.67638 11.8509 6.00725 12.1816L7.80254 13.9772C7.93183 14.1066 8.14294 14.1071 8.27256 13.9771L10.0613 12.1882C10.3922 11.8575 10.8322 11.6753 11.3001 11.6753H11.5156L9.24369 9.40335C8.53608 8.69579 7.38893 8.69579 6.68143 9.40335L4.41602 11.6688L4.76842 11.6688Z" fill="#32BCAD"/>
<path d="M13.3953 13.5546L12.0223 12.1816C11.9921 12.1937 11.9594 12.2013 11.9248 12.2013H11.3006C10.9778 12.2013 10.6619 12.3322 10.4339 12.5604L8.64517 14.3491C8.47778 14.5165 8.25783 14.6003 8.03809 14.6003C7.81813 14.6003 7.59834 14.5165 7.431 14.3493L5.63555 12.5539C5.40751 12.3256 5.09158 12.1947 4.76886 12.1947H4.00129C3.96855 12.1947 3.93796 12.187 3.90908 12.1761L2.53067 13.5546C1.82311 14.2621 1.82311 15.4092 2.53067 16.1168L3.90902 17.4951C3.93795 17.4842 3.96855 17.4765 4.00129 17.4765H4.76886C5.09158 17.4765 5.40751 17.3457 5.63555 17.1175L7.43083 15.3222C7.75533 14.998 8.321 14.9979 8.64517 15.3223L10.4339 17.1109C10.6619 17.3391 10.9778 17.47 11.3006 17.47H11.9248C11.9594 17.47 11.9921 17.4776 12.0223 17.4897L13.3953 16.1168C14.1028 15.4092 14.1028 14.2621 13.3953 13.5545" fill="#32BCAD"/>
<path d="M18.7216 19.3266C18.6203 19.3266 18.5024 19.351 18.3857 19.3779V19.8252C18.4665 19.8547 18.5588 19.8689 18.6473 19.8689C18.8716 19.8689 18.9779 19.7932 18.9779 19.5957C18.9779 19.4099 18.8908 19.3266 18.7216 19.3266M18.3101 20.1573V19.2727H18.3716L18.378 19.3112C18.4818 19.2869 18.6254 19.2548 18.7279 19.2548C18.8114 19.2548 18.8908 19.2675 18.9574 19.3214C19.0344 19.3843 19.0587 19.4855 19.0587 19.5957C19.0587 19.7112 19.0202 19.8201 18.9151 19.8803C18.8421 19.9213 18.7434 19.938 18.6549 19.938C18.5639 19.938 18.4768 19.9239 18.3857 19.897V20.1573H18.3101Z" fill="#939598"/>
<path d="M19.6224 19.324C19.3981 19.324 19.2981 19.3946 19.2981 19.592C19.2981 19.7829 19.3968 19.8689 19.6224 19.8689C19.8454 19.8689 19.9454 19.7996 19.9454 19.6022C19.9454 19.4112 19.8468 19.324 19.6224 19.324ZM19.9108 19.8689C19.8364 19.9226 19.7365 19.9381 19.6224 19.9381C19.5058 19.9381 19.4057 19.9214 19.3327 19.8689C19.2507 19.8112 19.2173 19.7163 19.2173 19.5972C19.2173 19.4791 19.2507 19.3831 19.3327 19.324C19.4057 19.2715 19.5058 19.2548 19.6224 19.2548C19.7377 19.2548 19.8364 19.2715 19.9108 19.324C19.9942 19.3831 20.0262 19.4791 20.0262 19.5957C20.0262 19.715 19.9928 19.8112 19.9108 19.8689Z" fill="#939598"/>
<path d="M20.973 19.9201L20.723 19.3831H20.7178L20.4718 19.9201H20.4038L20.1372 19.2727H20.2205L20.4423 19.8162H20.4475L20.6884 19.2727H20.7576L21.005 19.8162H21.0102L21.2268 19.2727H21.3075L21.0409 19.9201H20.973Z" fill="#939598"/>
<path d="M21.791 19.3227C21.5834 19.3227 21.5129 19.415 21.5 19.5484H22.082C22.0756 19.401 21.9999 19.3227 21.791 19.3227ZM21.7885 19.938C21.6641 19.938 21.5834 19.9201 21.5193 19.8662C21.4436 19.8008 21.418 19.706 21.418 19.5971C21.418 19.4933 21.4526 19.383 21.5385 19.3202C21.6103 19.2703 21.6987 19.2548 21.791 19.2548C21.8744 19.2548 21.9705 19.2638 22.0499 19.3177C22.1435 19.3804 22.1615 19.4907 22.1615 19.6163H21.4975C21.5 19.7496 21.5436 19.8676 21.7948 19.8676C21.9141 19.8676 22.0256 19.8483 22.1294 19.8304V19.8982C22.0217 19.9176 21.9025 19.938 21.7885 19.938" fill="#939598"/>
<path d="M22.3784 19.9201V19.2727H22.4399L22.4464 19.3112C22.5835 19.2767 22.6476 19.2548 22.7681 19.2548H22.7771V19.3266H22.7591C22.6579 19.3266 22.5964 19.3407 22.4541 19.3779V19.9201H22.3784Z" fill="#939598"/>
<path d="M23.2163 19.3227C23.0087 19.3227 22.9382 19.415 22.9253 19.5484H23.5073C23.5009 19.401 23.4252 19.3227 23.2163 19.3227ZM23.2138 19.938C23.0894 19.938 23.0087 19.9201 22.9446 19.8662C22.8689 19.8008 22.8433 19.706 22.8433 19.5971C22.8433 19.4933 22.8779 19.383 22.9638 19.3202C23.0356 19.2703 23.124 19.2548 23.2163 19.2548C23.2997 19.2548 23.3958 19.2638 23.4752 19.3177C23.5688 19.3804 23.5868 19.4907 23.5868 19.6163H22.9228C22.9253 19.7496 22.9689 19.8676 23.2201 19.8676C23.3393 19.8676 23.4508 19.8483 23.5547 19.8304V19.8982C23.447 19.9176 23.3278 19.938 23.2138 19.938" fill="#939598"/>
<path d="M24.4147 19.3677C24.3339 19.3382 24.2417 19.324 24.1532 19.324C23.9289 19.324 23.8224 19.3998 23.8224 19.5972C23.8224 19.7842 23.9096 19.8662 24.0788 19.8662C24.1801 19.8662 24.298 19.8419 24.4147 19.8163V19.3677ZM24.4288 19.9201L24.4224 19.8816C24.3186 19.906 24.175 19.9381 24.0724 19.9381C23.9892 19.9381 23.9096 19.9266 23.843 19.8714C23.7661 19.8086 23.7417 19.7073 23.7417 19.5972C23.7417 19.4818 23.7802 19.3728 23.8852 19.3138C23.9583 19.2715 24.057 19.2549 24.1468 19.2549C24.2365 19.2549 24.3237 19.2703 24.4147 19.2959V18.9998H24.4904V19.9201H24.4288Z" fill="#939598"/>
<path d="M25.5996 19.3267C25.4982 19.3267 25.3803 19.3511 25.2637 19.378V19.824C25.3457 19.8548 25.4367 19.869 25.5252 19.869C25.7495 19.869 25.8558 19.7933 25.8558 19.5958C25.8558 19.41 25.7687 19.3267 25.5996 19.3267M25.7931 19.8804C25.72 19.9214 25.6213 19.9381 25.5328 19.9381C25.4367 19.9381 25.3406 19.9214 25.2432 19.8894L25.2393 19.9202H25.188V18.9998H25.2637V19.3087C25.3675 19.2857 25.5072 19.2549 25.6059 19.2549C25.6893 19.2549 25.7687 19.2676 25.8353 19.3215C25.9123 19.3844 25.9366 19.4856 25.9366 19.5958C25.9366 19.7113 25.8981 19.8202 25.7931 19.8804Z" fill="#939598"/>
<path d="M26.0378 20.1687V20.0983C26.0749 20.1021 26.1096 20.1047 26.134 20.1047C26.2276 20.1047 26.2839 20.0777 26.3365 19.9713L26.3608 19.9201L26.0225 19.2727H26.1096L26.3994 19.8316H26.4045L26.68 19.2727H26.7659L26.4019 19.9996C26.3352 20.1316 26.2634 20.1751 26.1314 20.1751C26.1019 20.1751 26.0699 20.1726 26.0378 20.1687" fill="#939598"/>
<path d="M27.8082 19.5509H27.557V19.7779H27.8094C27.9825 19.7779 28.0479 19.7586 28.0479 19.6638C28.0479 19.5624 27.9582 19.5509 27.8082 19.5509M27.7621 19.183H27.557V19.4137H27.7633C27.9338 19.4137 28.0017 19.3933 28.0017 19.2971C28.0017 19.1947 27.9159 19.183 27.7621 19.183M28.1518 19.8586C28.0594 19.9176 27.9479 19.9201 27.7441 19.9201H27.3608V19.0421H27.7352C27.9108 19.0421 28.0184 19.0446 28.1082 19.0985C28.1723 19.1369 28.1979 19.1959 28.1979 19.2728C28.1979 19.365 28.1595 19.4266 28.0594 19.4677V19.4727C28.1723 19.4985 28.2453 19.5561 28.2453 19.6804C28.2453 19.765 28.2146 19.8201 28.1518 19.8587" fill="#939598"/>
<path d="M29.0121 19.6484C28.9364 19.6419 28.8596 19.6382 28.7788 19.6382C28.6468 19.6382 28.6006 19.6651 28.6006 19.7252C28.6006 19.7816 28.6391 19.8125 28.7403 19.8125C28.8249 19.8125 28.9262 19.7933 29.0121 19.7739V19.6484ZM29.0506 19.9201L29.0454 19.8816C28.9351 19.9086 28.807 19.9381 28.6942 19.9381C28.6249 19.9381 28.5506 19.9291 28.498 19.8906C28.4494 19.856 28.4263 19.7996 28.4263 19.7342C28.4263 19.6611 28.4584 19.5932 28.5352 19.5586C28.6031 19.5266 28.6942 19.5241 28.7776 19.5241C28.8454 19.5241 28.9364 19.5278 29.0121 19.533V19.5214C29.0121 19.4202 28.9454 19.3869 28.7634 19.3869C28.6929 19.3869 28.607 19.3906 28.525 19.3983V19.2676C28.6159 19.26 28.7186 19.2548 28.8032 19.2548C28.9159 19.2548 29.0327 19.2638 29.1044 19.315C29.1787 19.3677 29.1929 19.4408 29.1929 19.5368V19.9201L29.0506 19.9201Z" fill="#939598"/>
<path d="M30.038 19.9201V19.5624C30.038 19.4446 29.9778 19.4022 29.8701 19.4022C29.7907 19.4022 29.6907 19.4227 29.606 19.4433V19.9201H29.4253V19.2727H29.5727L29.5791 19.3138C29.6932 19.2843 29.8201 19.2548 29.9253 19.2548C30.0047 19.2548 30.0855 19.2663 30.147 19.3215C30.1982 19.3677 30.2175 19.4316 30.2175 19.524V19.9201H30.038Z" fill="#939598"/>
<path d="M30.7279 19.938C30.6445 19.938 30.5534 19.9265 30.4868 19.8701C30.4074 19.806 30.3843 19.7048 30.3843 19.5957C30.3843 19.4932 30.4176 19.3817 30.5163 19.3189C30.5971 19.2663 30.697 19.2548 30.8009 19.2548C30.8753 19.2548 30.9483 19.26 31.029 19.2675V19.406C30.9636 19.3997 30.8854 19.3945 30.8227 19.3945C30.6508 19.3945 30.5702 19.4484 30.5702 19.5971C30.5702 19.7368 30.6304 19.797 30.7714 19.797C30.8534 19.797 30.9496 19.7816 31.0432 19.7637V19.897C30.9419 19.9176 30.8316 19.938 30.7279 19.938" fill="#939598"/>
<path d="M31.5769 19.3906C31.4051 19.3906 31.3294 19.4445 31.3294 19.5919C31.3294 19.7394 31.4038 19.8022 31.5769 19.8022C31.7473 19.8022 31.8216 19.7495 31.8216 19.6021C31.8216 19.4547 31.7487 19.3906 31.5769 19.3906ZM31.8871 19.8701C31.8076 19.9239 31.7038 19.938 31.5769 19.938C31.4474 19.938 31.3436 19.9226 31.2654 19.8701C31.1757 19.8112 31.1436 19.7138 31.1436 19.5971C31.1436 19.4803 31.1757 19.3817 31.2654 19.3227C31.3436 19.2702 31.4474 19.2548 31.5769 19.2548C31.7051 19.2548 31.8076 19.2702 31.8871 19.3227C31.9768 19.3817 32.0076 19.4804 32.0076 19.5957C32.0076 19.7125 31.9755 19.8112 31.8871 19.8701Z" fill="#939598"/>
<path d="M33.0516 19.938C32.9427 19.938 32.8248 19.9201 32.7362 19.847C32.6312 19.7598 32.5991 19.6253 32.5991 19.4803C32.5991 19.351 32.6401 19.1971 32.7773 19.1074C32.8836 19.0383 33.0157 19.0241 33.149 19.0241C33.2465 19.0241 33.3464 19.0305 33.4554 19.0395V19.1971C33.3618 19.1894 33.2465 19.183 33.1567 19.183C32.9067 19.183 32.8004 19.2779 32.8004 19.4803C32.8004 19.6869 32.899 19.7791 33.0837 19.7791C33.2041 19.7791 33.3387 19.7548 33.4746 19.7265V19.8828C33.3387 19.9099 33.1964 19.938 33.0516 19.938" fill="#939598"/>
<path d="M34.0057 19.3702C33.8557 19.3702 33.798 19.4241 33.7865 19.5228H34.2224C34.2172 19.4177 34.1556 19.3702 34.0057 19.3702ZM33.9787 19.9381C33.8724 19.9381 33.7762 19.9253 33.7044 19.8662C33.6275 19.8022 33.6006 19.706 33.6006 19.5957C33.6006 19.497 33.6327 19.3868 33.7224 19.3227C33.8018 19.2663 33.9032 19.2548 34.0057 19.2548C34.098 19.2548 34.207 19.2651 34.2864 19.3202C34.3903 19.3933 34.3992 19.5061 34.4005 19.6394H33.7852C33.789 19.7381 33.8416 19.8022 34.0236 19.8022C34.1364 19.8022 34.262 19.7856 34.3685 19.7689V19.8958C34.2441 19.9164 34.1082 19.9381 33.9787 19.9381" fill="#939598"/>
<path d="M35.205 19.9201V19.5624C35.205 19.4446 35.1448 19.4022 35.0371 19.4022C34.9576 19.4022 34.8577 19.4227 34.773 19.4433V19.9201H34.5923V19.2727H34.7397L34.7461 19.3138C34.8601 19.2843 34.9871 19.2548 35.0923 19.2548C35.1717 19.2548 35.2525 19.2663 35.314 19.3215C35.3652 19.3677 35.3845 19.4316 35.3845 19.524V19.9201H35.205Z" fill="#939598"/>
<path d="M35.8982 19.938C35.8111 19.938 35.7315 19.9137 35.688 19.8458C35.6559 19.7996 35.6405 19.7369 35.6405 19.6497V19.4073H35.5098V19.2728H35.6405L35.6598 19.0766H35.82V19.2728H36.0751V19.4073H35.82V19.6151C35.82 19.665 35.8238 19.7073 35.8379 19.7381C35.8571 19.7817 35.8994 19.7983 35.9558 19.7983C35.9981 19.7983 36.0495 19.7919 36.0853 19.7856V19.915C36.0264 19.9266 35.9584 19.938 35.8982 19.938" fill="#939598"/>
<path d="M36.252 19.9201V19.2727H36.3994L36.4058 19.3138C36.5251 19.2804 36.6135 19.2548 36.7263 19.2548C36.7314 19.2548 36.7391 19.2548 36.7493 19.256V19.4099C36.7288 19.4087 36.7045 19.4087 36.6865 19.4087C36.598 19.4087 36.5314 19.4189 36.4327 19.442V19.9201L36.252 19.9201Z" fill="#939598"/>
<path d="M37.4057 19.6484C37.33 19.6419 37.2531 19.6382 37.1724 19.6382C37.0404 19.6382 36.9941 19.6651 36.9941 19.7252C36.9941 19.7816 37.0327 19.8125 37.1339 19.8125C37.2185 19.8125 37.3197 19.7933 37.4057 19.7739V19.6484ZM37.4441 19.9201L37.439 19.8816C37.3288 19.9086 37.2006 19.9381 37.0877 19.9381C37.0185 19.9381 36.9442 19.9291 36.8916 19.8906C36.843 19.856 36.8198 19.7996 36.8198 19.7342C36.8198 19.6611 36.8519 19.5932 36.9288 19.5586C36.9968 19.5266 37.0877 19.5241 37.1711 19.5241C37.2391 19.5241 37.33 19.5278 37.4057 19.533V19.5214C37.4057 19.4202 37.339 19.3869 37.157 19.3869C37.0865 19.3869 37.0006 19.3906 36.9185 19.3983V19.2676C37.0095 19.26 37.1121 19.2548 37.1968 19.2548C37.3095 19.2548 37.4262 19.2638 37.498 19.315C37.5723 19.3677 37.5864 19.4408 37.5864 19.5368V19.9201L37.4441 19.9201Z" fill="#939598"/>
<path d="M37.8193 18.9998H38.0001V19.9201H37.8193V18.9998Z" fill="#939598"/>
</svg>
