<svg width="51" height="51" viewBox="0 0 51 51" fill="none" xmlns="http://www.w3.org/2000/svg">
<path d="M36.6981 18.2199C35.8742 17.7125 34.8031 17.7125 33.8968 18.2199L27.4702 22.1099L23.1035 24.6469L16.677 28.537C15.8531 29.0444 14.782 29.0444 13.8757 28.537L8.76741 25.4926C7.9435 24.9852 7.36675 24.055 7.36675 23.0401V17.0359C7.36675 16.0211 7.8611 15.0909 8.76741 14.5835L13.7933 11.6237C14.6172 11.1163 15.6882 11.1163 16.5946 11.6237L21.6205 14.5835C22.4444 15.0909 23.0211 16.0211 23.0211 17.0359V20.926L27.3879 18.3044V14.4144C27.3879 13.3996 26.8936 12.4693 25.9872 11.9619L16.677 6.38055C15.8531 5.87315 14.782 5.87315 13.8757 6.38055L4.40066 11.9619C3.49435 12.4693 3 13.3996 3 14.4144V25.6617C3 26.6765 3.49435 27.6067 4.40066 28.1141L13.8757 33.6955C14.6996 34.203 15.7707 34.203 16.677 33.6955L23.1035 29.89L27.4702 27.2685L33.8968 23.463C34.7207 22.9556 35.7918 22.9556 36.6981 23.463L41.724 26.4229C42.548 26.9302 43.1247 27.8605 43.1247 28.8752V34.8795C43.1247 35.8942 42.6303 36.8245 41.724 37.3318L36.6981 40.3763C35.8742 40.8837 34.8031 40.8837 33.8968 40.3763L28.871 37.4165C28.047 36.9091 27.4702 35.9788 27.4702 34.964V31.074L23.1035 33.6955V37.5856C23.1035 38.6003 23.5979 39.5306 24.5042 40.038L33.9792 45.6195C34.8031 46.1268 35.8742 46.1268 36.7805 45.6195L46.2556 40.038C47.0795 39.5306 47.6562 38.6003 47.6562 37.5856V26.3382C47.6562 25.3235 47.1618 24.3932 46.2556 23.8859L36.6981 18.2199Z" fill="#7950DD"/>
</svg>
