<svg width="20" height="20" viewBox="0 0 20 20" fill="none" xmlns="http://www.w3.org/2000/svg">
<path d="M9.99997 19.9538C15.4972 19.9538 19.9537 15.4974 19.9537 10.0001C19.9537 4.50281 15.4972 0.0463867 9.99997 0.0463867C4.50269 0.0463867 0.0462646 4.50281 0.0462646 10.0001C0.0462646 15.4974 4.50269 19.9538 9.99997 19.9538Z" fill="white"/>
<path d="M14.3703 14.9314L14.369 14.9285C14.2467 14.9765 14.1236 15.0226 13.9998 15.0667C14.124 15.0236 14.2476 14.9785 14.3703 14.9314V14.9314ZM5.98705 15.0718C5.81266 15.0081 5.69149 14.9574 5.63003 14.9306L5.62756 14.9359C5.71117 14.9701 5.83212 15.0173 5.98705 15.0718Z" fill="#9590C5"/>
<path d="M10 0.462891C4.73288 0.462891 0.463013 4.73276 0.463013 9.99993C0.463013 12.9222 1.77733 15.5375 3.84709 17.2869C4.22983 16.1933 5.07736 15.1869 5.56142 14.6723C5.55542 14.4438 5.58161 14.0661 5.75027 13.609C5.81888 13.9301 6.46535 14.1412 7.01275 14.2638C7.8112 14.4426 8.87211 14.5411 10 14.5411C11.128 14.5411 12.1889 14.4426 12.9873 14.2638C13.5347 14.1412 14.1812 13.9301 14.2498 13.609C14.4185 14.0661 14.4447 14.4438 14.4387 14.6723C14.9227 15.1869 15.7703 16.1933 16.153 17.2869C18.2228 15.5375 19.5371 12.9222 19.5371 9.99993C19.5371 4.73276 15.2672 0.462891 10 0.462891ZM15.982 10.1365C15.577 11.358 14.7585 12.4083 13.6805 13.1442C13.9941 13.2727 14.1652 13.4142 14.1652 13.5527C14.1652 13.9861 12.4915 14.4501 10.0001 14.4501C7.5086 14.4501 5.83496 13.9861 5.83496 13.5527C5.83496 13.4142 6.00598 13.2727 6.31961 13.1442C5.24159 12.4083 4.42311 11.358 4.01816 10.1365C3.02905 10.052 2.25253 9.22252 2.25253 8.21154C2.25253 7.15526 3.10014 6.29709 4.15229 6.27974C5.05562 4.07576 7.33298 2.51148 10 2.51148C12.6671 2.51148 14.9445 4.07576 15.8479 6.27972C16.9 6.29708 17.7476 7.15524 17.7476 8.21152C17.7476 9.22252 16.9711 10.052 15.982 10.1365V10.1365Z" fill="#9590C5"/>
<path d="M4.1522 6.28003C3.10005 6.29738 2.25244 7.15555 2.25244 8.21183C2.25244 9.22283 3.02894 10.0523 4.01807 10.1368C3.83502 9.58466 3.7364 8.99762 3.7364 8.38894C3.7364 7.64562 3.88387 6.93468 4.1522 6.28003V6.28003ZM3.13285 9.07327C2.93722 9.07327 2.77861 8.91466 2.77861 8.71903C2.77861 8.5234 2.93722 8.36479 3.13285 8.36479C3.32848 8.36479 3.48709 8.5234 3.48709 8.71903C3.48709 8.91466 3.3285 9.07327 3.13285 9.07327ZM3.13285 8.05884C2.93722 8.05884 2.77861 7.90023 2.77861 7.7046C2.77861 7.50897 2.93722 7.35036 3.13285 7.35036C3.32848 7.35036 3.48709 7.50897 3.48709 7.7046C3.48709 7.90025 3.3285 8.05884 3.13285 8.05884Z" fill="#635DA8"/>
<path d="M3.13368 8.05862C3.32933 8.05862 3.48794 7.90001 3.48794 7.70436C3.48794 7.5087 3.32933 7.3501 3.13368 7.3501C2.93803 7.3501 2.77942 7.5087 2.77942 7.70436C2.77942 7.90001 2.93803 8.05862 3.13368 8.05862Z" fill="#E7E5EA"/>
<path d="M3.13251 9.07165C3.32813 9.07165 3.48671 8.91308 3.48671 8.71747C3.48671 8.52185 3.32813 8.36328 3.13251 8.36328C2.9369 8.36328 2.77832 8.52185 2.77832 8.71747C2.77832 8.91308 2.9369 9.07165 3.13251 9.07165Z" fill="#E7E5EA"/>
<path d="M4.40124 17.5898C4.39044 17.626 4.38011 17.6624 4.37024 17.6988C4.51592 17.8055 4.6646 17.908 4.81609 18.0063C4.88368 17.359 4.99176 16.768 5.10178 16.2781C4.79742 16.6818 4.54018 17.1261 4.40124 17.5898V17.5898ZM14.4165 14.9099C14.4006 14.9162 14.3848 14.9223 14.3689 14.9286L14.3703 14.9315C14.1399 15.0198 13.907 15.1012 13.6718 15.1754C13.9368 16.4227 14.6379 17.4072 15.1764 18.0111L15.1838 18.0063C15.1162 17.359 15.0081 16.768 14.8981 16.2781C15.2025 16.6818 15.4597 17.1261 15.5987 17.5898C15.6095 17.626 15.6198 17.6624 15.6297 17.6988C15.8088 17.5676 15.9833 17.4303 16.1529 17.287C15.7702 16.1934 14.9226 15.1869 14.4386 14.6724C14.4346 14.8239 14.4165 14.9099 14.4165 14.9099V14.9099Z" fill="#E7E5EA"/>
<path d="M14.8982 16.2781C15.0082 16.768 15.1163 17.359 15.1839 18.0063C15.3354 17.9081 15.484 17.8055 15.6297 17.6988C15.6199 17.6624 15.6095 17.626 15.5987 17.5898C15.4598 17.1261 15.2025 16.6818 14.8982 16.2781V16.2781Z" fill="#E7E5EA"/>
<path d="M6.31949 13.144C6.00588 13.2726 5.83484 13.4141 5.83484 13.5526C5.83484 13.986 7.50849 14.45 9.99995 14.45C12.4914 14.45 14.1651 13.986 14.1651 13.5526C14.1651 13.4141 13.994 13.2726 13.6804 13.144C12.6472 13.8493 11.3755 14.2657 9.99997 14.2657C8.62443 14.2657 7.35275 13.8493 6.31949 13.144Z" fill="#635DA8"/>
<path d="M6.32721 15.1846C6.21317 15.149 6.09977 15.1114 5.98706 15.0719C5.83214 15.0174 5.71121 14.9702 5.62762 14.936L5.63008 14.9307C5.59929 14.9173 5.58345 14.9099 5.58345 14.9099C5.58345 14.9099 5.56536 14.8239 5.56138 14.6724C5.07734 15.1869 4.22981 16.1934 3.84705 17.287C4.01663 17.4303 4.19114 17.5676 4.37027 17.6988C4.38005 17.6628 4.39027 17.6265 4.40127 17.5898C4.54021 17.1261 4.79747 16.6818 5.10182 16.278C4.99177 16.7679 4.88369 17.359 4.81614 18.0063L4.82419 18.0115C4.9333 17.8893 5.03832 17.7635 5.13908 17.6343C5.56677 17.0857 6.10155 16.2321 6.32721 15.1846V15.1846ZM7.23055 15.4264C6.93638 16.7503 6.23695 17.7991 5.64912 18.4889C6.95362 19.1589 8.43266 19.5371 10 19.5371C11.5677 19.5371 13.047 19.1588 14.3517 18.4885C13.7633 17.798 13.0631 16.7477 12.7696 15.422C10.5318 15.9415 8.55655 15.7262 7.23055 15.4264Z" fill="#E7E5EA"/>
<path d="M13.9998 15.067C14.1236 15.023 14.2466 14.9769 14.3689 14.9289C14.3848 14.9226 14.4007 14.9165 14.4166 14.9102C14.4166 14.9102 14.4347 14.8242 14.4386 14.6727C14.4446 14.4441 14.4185 14.0664 14.2498 13.6093C14.1812 13.9304 13.5347 14.1416 12.9873 14.2642C12.1888 14.443 11.128 14.5415 10 14.5415C8.87207 14.5415 7.81116 14.443 7.01272 14.2642C6.46531 14.1416 5.81887 13.9304 5.75024 13.6093C5.58159 14.0664 5.55539 14.4442 5.56139 14.6727C5.56537 14.8242 5.58346 14.9102 5.58346 14.9102C5.58346 14.9102 5.59927 14.9176 5.63009 14.931C5.69155 14.9578 5.81272 15.0085 5.98711 15.0722C6.09981 15.1118 6.21321 15.1493 6.32726 15.1849C6.10159 16.2324 5.56681 17.086 5.13911 17.6346C5.03835 17.7638 4.93333 17.8896 4.82422 18.0118C5.09106 18.1846 5.36639 18.3439 5.64916 18.4892C6.237 17.7994 6.93644 16.7506 7.23059 15.4267C8.55661 15.7265 10.5318 15.9418 12.7697 15.4223C13.0632 16.748 13.7633 17.7982 14.3517 18.4888C14.6345 18.3435 14.9097 18.1841 15.1765 18.0113C14.638 17.4074 13.9369 16.423 13.6719 15.1757C13.7817 15.141 13.891 15.1048 13.9998 15.067V15.067ZM15.8478 6.28003C16.1161 6.9347 16.2636 7.64562 16.2636 8.38896C16.2636 8.99762 16.165 9.58468 15.9819 10.1368C16.971 10.0523 17.7475 9.22283 17.7475 8.21184C17.7475 7.15555 16.8999 6.29736 15.8478 6.28003V6.28003ZM16.8671 7.3504C17.0628 7.3504 17.2214 7.50901 17.2214 7.70464C17.2214 7.90027 17.0628 8.05888 16.8671 8.05888C16.6715 8.05888 16.5129 7.90027 16.5129 7.70464C16.5129 7.50897 16.6715 7.3504 16.8671 7.3504ZM16.8671 9.07327C16.6715 9.07327 16.5129 8.91466 16.5129 8.71903C16.5129 8.5234 16.6715 8.36479 16.8671 8.36479C17.0628 8.36479 17.2214 8.5234 17.2214 8.71903C17.2214 8.91468 17.0628 9.07327 16.8671 9.07327Z" fill="#635DA8"/>
<path d="M17.1168 8.96947C17.2552 8.83112 17.2551 8.60683 17.1168 8.46849C16.9785 8.33016 16.7542 8.33016 16.6158 8.4685C16.4775 8.60685 16.4775 8.83114 16.6158 8.96948C16.7542 9.10781 16.9785 9.10781 17.1168 8.96947Z" fill="#E7E5EA"/>
<path d="M17.1959 7.83813C17.2708 7.65738 17.1849 7.45016 17.0042 7.37529C16.8234 7.30042 16.6162 7.38625 16.5413 7.56701C16.4665 7.74776 16.5523 7.95498 16.733 8.02985C16.9138 8.10472 17.121 8.01889 17.1959 7.83813Z" fill="#E7E5EA"/>
<path d="M15.8478 6.27972C14.9444 4.07575 12.667 2.51147 9.99994 2.51147C7.33286 2.51147 5.05551 4.07575 4.15212 6.27972C3.88379 6.93438 3.73633 7.64531 3.73633 8.38864C3.73633 8.99731 3.83494 9.58436 4.01799 10.1365C4.42296 11.358 5.24144 12.4083 6.31944 13.1441C7.35272 13.8494 8.6244 14.2658 9.99992 14.2658C11.3754 14.2658 12.6471 13.8494 13.6804 13.1441C14.7584 12.4083 15.5769 11.358 15.9818 10.1365C16.1649 9.58436 16.2635 8.99733 16.2635 8.38864C16.2635 7.64531 16.1161 6.93436 15.8478 6.27972V6.27972ZM9.99994 12.7026C5.79053 12.7026 4.65414 10.6763 4.65414 8.17675C4.65414 5.6772 7.04753 3.65086 9.99994 3.65086C12.9523 3.65086 15.3457 5.67716 15.3457 8.17673C15.3457 10.6763 14.2093 12.7026 9.99994 12.7026Z" fill="#E7E5EA"/>
<path d="M15.344 8.06015C15.2871 6.15804 13.844 4.54755 11.838 3.92572C11.7881 3.91031 11.7379 3.89557 11.6876 3.88147C11.5791 3.85094 11.4697 3.82344 11.3597 3.79901C11.309 3.78768 11.2582 3.777 11.2072 3.76697C11.164 3.75853 11.1207 3.75055 11.0773 3.74303C11.0283 3.73459 10.9792 3.72674 10.93 3.71949C10.7579 3.69383 10.5849 3.67542 10.4112 3.66431C10.2743 3.65548 10.1371 3.65109 9.99993 3.65112C9.86272 3.65114 9.72555 3.65554 9.58862 3.66431C9.45396 3.67297 9.31962 3.68596 9.1858 3.70325C6.61984 4.03521 4.65417 5.91175 4.65417 8.17696C4.65417 10.6765 5.79056 12.7028 9.99997 12.7028C14.2094 12.7028 15.3458 10.6765 15.3458 8.17696C15.3458 8.13789 15.3452 8.09896 15.344 8.06015V8.06015Z" fill="#635DA8"/>
<path opacity="0.1" d="M4.40124 17.5898C4.39044 17.626 4.38011 17.6624 4.37024 17.6988C4.51592 17.8055 4.6646 17.9081 4.81609 18.0063C4.88368 17.359 4.99176 16.768 5.10178 16.2781C4.79742 16.6818 4.54018 17.1261 4.40124 17.5898V17.5898ZM14.8981 16.2781C15.0082 16.768 15.1163 17.359 15.1838 18.0063C15.3353 17.9081 15.484 17.8055 15.6297 17.6988C15.6198 17.6624 15.6095 17.626 15.5987 17.5898C15.4597 17.1261 15.2025 16.6818 14.8981 16.2781V16.2781Z" fill="#635DA8"/>
</svg>
