<svg width="20" height="20" viewBox="0 0 20 20" fill="none" xmlns="http://www.w3.org/2000/svg">
<path d="M10 20C15.5228 20 20 15.5228 20 10C20 4.47715 15.5228 0 10 0C4.47715 0 0 4.47715 0 10C0 15.5228 4.47715 20 10 20Z" fill="#142743"/>
<path d="M9.25059 2.91307C9.53352 2.87486 9.8215 2.91693 10.0817 3.03449C10.4345 3.1973 10.7149 3.48441 10.8693 3.84094C11.0257 4.2043 11.0361 4.61391 10.8984 4.98476C10.7712 5.32674 10.5292 5.61398 10.2138 5.79748C9.69503 6.10349 9.00148 6.05465 8.52075 5.69533C8.24917 5.49631 8.05151 5.2126 7.95892 4.88888C7.89445 4.67354 7.87777 4.44671 7.91004 4.22425C7.94231 4.0018 8.02276 3.78906 8.14576 3.60091C8.26876 3.41276 8.43135 3.25373 8.62218 3.13493C8.813 3.01613 9.02747 2.94041 9.25059 2.91307Z" fill="white"/>
<path d="M6.82555 6.28536C6.85998 6.27697 6.89547 6.2738 6.93084 6.27595C7.32824 6.27595 7.72609 6.27595 8.12349 6.27595C8.12349 8.51968 8.12035 10.7639 8.12618 13.0076C8.04957 13.0228 7.97116 13.0076 7.89365 13.0076C7.56749 13.0103 7.24087 13.0121 6.91471 13.0098C6.87785 13.0132 6.84096 13.0037 6.81032 12.9829C6.78423 12.9483 6.77237 12.905 6.77716 12.862C6.77716 10.7192 6.77716 8.57643 6.77716 6.43366C6.77985 6.38437 6.77224 6.31493 6.82555 6.28536Z" fill="white"/>
<path d="M8.5078 6.27822C9.3035 6.27329 10.0992 6.27822 10.8949 6.27822C11.4657 6.28629 12.0481 6.28449 12.6001 6.44982C12.7038 6.47822 12.8006 6.52759 12.8846 6.59486C12.9685 6.66213 13.0377 6.74588 13.088 6.84095C13.2623 7.17025 13.2408 7.55466 13.2426 7.91622C13.2426 9.18593 13.2426 10.4553 13.2426 11.7245C13.2367 12.0345 13.1897 12.3741 12.9711 12.6116C12.7551 12.8396 12.4307 12.9068 12.1315 12.9494C11.6131 13.0215 11.088 13.0076 10.5656 13.0085C10.5746 14.478 10.5656 15.9485 10.5696 17.418C9.8837 17.4077 9.19732 17.418 8.51139 17.4135V7.62276C8.51542 7.17428 8.50108 6.72625 8.5078 6.27822ZM10.5656 7.16084C10.5656 8.32303 10.5656 9.48521 10.5656 10.6474C10.5687 11.1299 10.5593 11.6133 10.5701 12.0959C10.7466 12.1039 10.9366 12.1407 11.1041 12.0659C11.1937 12.0273 11.2175 11.9211 11.2148 11.8329C11.2148 10.3992 11.2148 8.9655 11.2148 7.53181C11.2148 7.41487 11.17 7.28942 11.0652 7.22849C10.9151 7.13754 10.7323 7.16532 10.5652 7.16084H10.5656Z" fill="white"/>
</svg>
