<svg width="100" height="100" viewBox="0 0 100 100" fill="none" xmlns="http://www.w3.org/2000/svg">
<rect width="100" height="100" fill="#0C445B" fill-opacity="0.8"/>
<path d="M88.1031 76.1282C87.522 75.8735 86.8796 75.7928 86.2535 75.8957L77.3078 18H22.261L13.9435 75.8491C13.3153 75.7086 12.6595 75.7571 12.059 75.9887C11.3574 76.2621 10.7734 76.7716 10.4075 77.4292C10.0416 78.0869 9.91681 78.8516 10.0547 79.5914C10.1925 80.3312 10.5843 80.9998 11.1626 81.4817C11.7409 81.9637 12.4693 82.2289 13.2223 82.2316C13.8492 82.2322 14.4627 82.0498 14.9876 81.707C15.5124 81.3643 15.9258 80.8759 16.177 80.3018C16.5139 79.5443 16.5433 78.6859 16.259 77.9072C15.9747 77.1286 15.3989 76.4907 14.6531 76.1282L36.1972 42.5533L48.9934 64.2236H48.877C48.1705 64.4913 47.5806 64.9987 47.2103 65.6571C46.8401 66.3155 46.7132 67.0829 46.8519 67.8252C46.9904 68.5676 47.3857 69.2378 47.9685 69.7184C48.5513 70.1991 49.2846 70.4598 50.0402 70.4548C50.4373 70.4531 50.8309 70.3823 51.2036 70.2457C51.6003 70.0927 51.9626 69.8628 52.2699 69.5693C52.5773 69.2758 52.8235 68.9244 52.9943 68.5353C53.1652 68.1463 53.2574 67.7273 53.2655 67.3026C53.2735 66.8778 53.1975 66.4556 53.0417 66.0604C52.8922 65.6652 52.665 65.3041 52.3732 64.9986C52.0814 64.693 51.7312 64.4492 51.3432 64.2817L51.0872 64.2003L63.8485 42.2976L85.5438 76.1282C84.8854 76.4332 84.3487 76.9508 84.0203 77.5977C83.6917 78.2445 83.5906 78.9829 83.7329 79.6942C83.8753 80.4054 84.2529 81.0482 84.805 81.5189C85.3571 81.9897 86.0517 82.2613 86.777 82.2898C87.1748 82.2862 87.5688 82.2114 87.9402 82.0688C88.3366 81.9156 88.6987 81.6858 89.0061 81.3926C89.3135 81.0994 89.5601 80.7484 89.7317 80.3599C90.0702 79.5821 90.0891 78.7024 89.7844 77.9107C89.4798 77.1192 88.8759 76.4789 88.1031 76.1282ZM75.5744 19.3718L63.7904 39.7284L50.715 19.3602L75.5744 19.3718ZM36.2437 40.0073L23.9595 19.337H49.5518L36.2437 40.0073ZM13.99 77.2908C14.2182 77.3892 14.4245 77.5319 14.5969 77.7108C14.7694 77.8896 14.9044 78.101 14.9943 78.3325C15.0842 78.5641 15.127 78.8112 15.1204 79.0595C15.1137 79.3078 15.0577 79.5522 14.9555 79.7787C14.8591 80.0087 14.7179 80.2174 14.5402 80.3924C14.3624 80.5676 14.1516 80.7056 13.92 80.7986C13.6884 80.8917 13.4406 80.9378 13.191 80.9343C12.9414 80.9309 12.695 80.8779 12.4661 80.7784C12.0087 80.5736 11.6497 80.1981 11.4657 79.7321C11.3757 79.5009 11.3323 79.2541 11.338 79.0061C11.3437 78.758 11.3984 78.5136 11.4989 78.2867C11.5994 78.0599 11.7438 77.8551 11.9238 77.6841C12.1037 77.5133 12.3157 77.3796 12.5475 77.2908C12.7617 77.2035 12.9911 77.1601 13.2223 77.1629C13.4001 77.1606 13.577 77.1882 13.7457 77.2442V77.5233L13.8621 77.2908H13.99ZM15.8978 71.5942L23.2266 20.639L35.4411 41.2512L15.8978 71.5942ZM49.4586 21.9643V62.2705L37.0115 41.2512L49.4586 21.9643ZM51.8783 66.5835C52.0568 67.0507 52.0433 67.5696 51.8407 68.027C51.638 68.4843 51.2627 68.8431 50.7965 69.025C50.3484 69.1445 49.872 69.0948 49.4585 68.8852C49.0449 68.6758 48.7231 68.3213 48.5546 67.8896C48.3862 67.4579 48.3829 66.9792 48.5453 66.5452C48.7079 66.1113 49.0247 65.7523 49.4354 65.5372C49.903 65.3587 50.4222 65.3722 50.8798 65.5748C51.3373 65.7774 51.6963 66.1525 51.8783 66.6184V66.5835ZM50.7731 62.1774V21.9295L63.011 40.9955L50.7731 62.1774ZM64.6046 40.9955L76.3655 20.6855L84.2293 71.5593L64.6046 40.9955ZM88.5335 79.8136C88.3853 80.1573 88.1378 80.4492 87.8229 80.6518C87.5079 80.8545 87.1396 80.9587 86.765 80.9512C86.3906 80.9437 86.0268 80.8249 85.7201 80.6098C85.4135 80.3948 85.178 80.0933 85.0437 79.7438C84.8608 79.2765 84.8709 78.7561 85.0715 78.2962C85.2721 77.8363 85.6469 77.4749 86.1139 77.2908H86.2884L86.521 77.6512L86.4512 77.2442C86.7898 77.1781 87.1402 77.2062 87.4638 77.3254C87.7877 77.4445 88.0725 77.6503 88.2873 77.9202C88.5021 78.1899 88.6386 78.5136 88.6821 78.8556C88.7255 79.1977 88.6741 79.5451 88.5335 79.86V79.8136Z" fill="#DAB679"/>
</svg>
