<svg width="20" height="20" viewBox="0 0 20 20" fill="none" xmlns="http://www.w3.org/2000/svg">
<circle cx="10" cy="10" r="10" fill="white"/>
<path d="M14.8704 10.4646C13.7812 10.1091 12.4709 10.0136 11.4903 10.0014V9.99858C12.4709 9.98639 13.7813 9.89089 14.8704 9.53533C15.3954 9.4197 15.9193 9.13908 16.3562 8.70217C17.4013 7.65711 17.5517 6.11311 16.692 5.25349C16.324 4.88542 15.8304 4.70252 15.3042 4.69574C15.2975 4.16961 15.1146 3.67602 14.7465 3.30795C13.8869 2.44833 12.3428 2.59867 11.2978 3.64374C10.8609 4.08061 10.5804 4.60474 10.4647 5.12958C10.1091 6.21874 10.0136 7.52905 10.0014 8.50964H9.99859C9.98641 7.52905 9.89091 6.21867 9.53534 5.12958C9.41972 4.60458 9.13909 4.08061 8.70219 3.64374C7.65716 2.59867 6.11313 2.44833 5.2535 3.30795C4.88544 3.67602 4.70253 4.16961 4.69575 4.69574C4.16959 4.70252 3.67603 4.88542 3.30797 5.25349C2.44834 6.11311 2.59869 7.65711 3.64375 8.70217C4.08066 9.13908 4.60475 9.41958 5.12959 9.53533C6.21875 9.89089 7.52906 9.98639 8.50966 9.99858V10.0014C7.52906 10.0136 6.21872 10.1091 5.12959 10.4646C4.60459 10.5803 4.08066 10.8609 3.64375 11.2978C2.59869 12.3429 2.44834 13.8869 3.30797 14.7465C3.67603 15.1145 4.16959 15.2975 4.69575 15.3042C4.70253 15.8304 4.88544 16.324 5.2535 16.692C6.11313 17.5516 7.65716 17.4014 8.70219 16.3562C9.13909 15.9194 9.41963 15.3952 9.53534 14.8704C9.89091 13.7812 9.98641 12.4709 9.99859 11.4903H10.0014C10.0136 12.4709 10.1091 13.7813 10.4647 14.8704C10.5803 15.3954 10.8609 15.9194 11.2978 16.3562C12.3428 17.4013 13.8869 17.5516 14.7465 16.692C15.1146 16.324 15.2975 15.8304 15.3042 15.3042C15.8304 15.2975 16.324 15.1145 16.692 14.7465C17.5517 13.8869 17.4014 12.3429 16.3562 11.2978C15.9193 10.8609 15.3953 10.5804 14.8704 10.4646Z" fill="#4DBC00"/>
</svg>
