<?xml version="1.0" encoding="UTF-8"?>
<svg version="1.1" xmlns="http://www.w3.org/2000/svg" width="220" height="219">
<path d="M0 0 C0.73195587 -0.00867096 1.46391174 -0.01734192 2.2180481 -0.02627563 C32.46111908 -0.27472127 59.15485147 12.46005618 80.5625 33.4375 C85.50634485 38.40470528 89.65212203 43.60781922 93.375 49.5625 C94.13876953 50.74392578 94.13876953 50.74392578 94.91796875 51.94921875 C104.09090773 66.59290796 110.42527777 82.82309436 110.61328125 100.2421875 C110.621353 100.97261261 110.62942474 101.70303772 110.63774109 102.45559692 C110.65151732 104.00032225 110.66226811 105.54507719 110.67016602 107.08984375 C110.68159051 108.637138 110.70188784 110.1843959 110.73168945 111.73144531 C111.29303759 140.97172476 99.3026401 166.49317219 79.375 187.5625 C78.715 188.27535156 78.055 188.98820313 77.375 189.72265625 C66.54449637 201.05538081 52.07010177 209.34097657 37.375 214.5625 C36.77558594 214.79243652 36.17617187 215.02237305 35.55859375 215.25927734 C24.12928229 219.52217962 12.81086859 220.06791375 0.75 220.125 C-0.34793381 220.13800644 -0.34793381 220.13800644 -1.4680481 220.15127563 C-31.71111908 220.39972127 -58.40485147 207.66494382 -79.8125 186.6875 C-84.75634485 181.72029472 -88.90212203 176.51718078 -92.625 170.5625 C-93.13417969 169.77488281 -93.64335938 168.98726562 -94.16796875 168.17578125 C-103.34090773 153.53209204 -109.67527777 137.30190564 -109.86328125 119.8828125 C-109.871353 119.15238739 -109.87942474 118.42196228 -109.88774109 117.66940308 C-109.90151732 116.12467775 -109.91226811 114.57992281 -109.92016602 113.03515625 C-109.93159051 111.487862 -109.95188784 109.9406041 -109.98168945 108.39355469 C-110.54303759 79.15327524 -98.5526401 53.63182781 -78.625 32.5625 C-77.635 31.49322266 -77.635 31.49322266 -76.625 30.40234375 C-65.79449637 19.06961919 -51.32010177 10.78402343 -36.625 5.5625 C-35.72587891 5.21759521 -35.72587891 5.21759521 -34.80859375 4.86572266 C-23.37928229 0.60282038 -12.06086859 0.05708625 0 0 Z " fill="#1072EB" transform="translate(109.625,-0.5625)"/>
<path d="M0 0 C1.10917282 -0.00952698 2.21834564 -0.01905396 3.36112976 -0.02886963 C5.71215732 -0.04103141 8.06328276 -0.04019702 10.41430664 -0.02734375 C13.96226078 -0.01578611 17.50531119 -0.06763594 21.05273438 -0.125 C37.29757623 -0.2210573 49.51246892 1.50750305 62.38671875 12.171875 C66.26042918 16.01314229 69.26585815 19.85840148 71.69921875 24.734375 C72.08980469 25.42402344 72.48039062 26.11367187 72.8828125 26.82421875 C77.60572707 36.38444374 77.1435395 48.93759631 74.32421875 59.046875 C69.64077214 70.94580826 61.03263679 79.92423032 49.50390625 85.1953125 C38.92481485 89.33098322 28.93944817 89.24788802 17.69921875 88.734375 C17.74046875 89.70375 17.78171875 90.673125 17.82421875 91.671875 C17.82889357 95.39864546 17.10036648 98.72498336 16.22949219 102.33398438 C15.67973006 104.8225945 15.31214879 107.28498775 14.98828125 109.8125 C14.87742188 110.66328125 14.7665625 111.5140625 14.65234375 112.390625 C14.43176792 114.13422441 14.22098267 115.87908766 14.01953125 117.625 C13.33628272 122.71830723 12.60930193 126.07324843 8.69921875 129.734375 C3.1742963 131.57601582 -2.98518814 131.04035577 -8.77880859 131.08447266 C-10.37335804 131.10103856 -11.96783303 131.12833757 -13.56201172 131.16650391 C-15.86855315 131.22138747 -18.17336161 131.24315912 -20.48046875 131.2578125 C-21.18895966 131.28048187 -21.89745056 131.30315125 -22.62741089 131.32650757 C-26.56261886 131.30978413 -28.14698499 130.86091752 -31.22705078 128.32666016 C-34.26975886 124.52309595 -34.50249833 122.5755849 -34.30078125 117.734375 C-33.80578125 116.744375 -33.80578125 116.744375 -33.30078125 115.734375 C-32.99883256 113.10951414 -32.73454271 110.4894918 -32.48828125 107.859375 C-31.70313649 100.11156646 -30.37063475 92.57962011 -28.77124023 84.96240234 C-27.3005822 77.91795729 -26.19949524 70.8767862 -25.30078125 63.734375 C-26.1928125 63.78078125 -27.08484375 63.8271875 -28.00390625 63.875 C-29.174375 63.91109375 -30.34484375 63.9471875 -31.55078125 63.984375 C-32.7109375 64.03078125 -33.87109375 64.0771875 -35.06640625 64.125 C-38.30078125 63.734375 -38.30078125 63.734375 -40.69140625 61.875 C-42.30078125 59.734375 -42.30078125 59.734375 -42.80078125 57.234375 C-42.11724375 53.81668752 -41.09126749 52.82285213 -38.30078125 50.734375 C-35.40628176 50.4437626 -32.9212819 50.35251455 -30.05078125 50.484375 C-29.30570313 50.50242188 -28.560625 50.52046875 -27.79296875 50.5390625 C-25.96168424 50.58601851 -24.13106476 50.65775848 -22.30078125 50.734375 C-22.32140625 49.5175 -22.34203125 48.300625 -22.36328125 47.046875 C-22.36902241 43.81460178 -22.0884444 40.88502759 -21.30078125 37.734375 C-22.27660156 37.78078125 -23.25242187 37.8271875 -24.2578125 37.875 C-26.16626953 37.92914063 -26.16626953 37.92914063 -28.11328125 37.984375 C-30.01013672 38.05398437 -30.01013672 38.05398437 -31.9453125 38.125 C-35.30078125 37.734375 -35.30078125 37.734375 -37.2265625 35.87890625 C-38.55195374 33.23294337 -38.75043933 31.65715254 -38.30078125 28.734375 C-37.2890625 27.125 -37.2890625 27.125 -35.30078125 25.734375 C-32.50826542 25.35762982 -29.91298924 25.13245559 -27.11328125 25.046875 C-26.36369141 25.01271484 -25.61410156 24.97855469 -24.84179688 24.94335938 C-22.99531287 24.86103206 -21.14807131 24.79602219 -19.30078125 24.734375 C-19.23608643 24.18499268 -19.1713916 23.63561035 -19.10473633 23.06958008 C-18.79633991 20.55873026 -18.45515997 18.05337619 -18.11328125 15.546875 C-18.01208984 14.68255859 -17.91089844 13.81824219 -17.80664062 12.92773438 C-17.68740234 12.08662109 -17.56816406 11.24550781 -17.4453125 10.37890625 C-17.29606323 9.22418823 -17.29606323 9.22418823 -17.14379883 8.04614258 C-14.08454654 -0.34310154 -7.7191763 -0.02797718 0 0 Z " fill="#F8FBFE" transform="translate(96.30078125,43.265625)"/>
<path d="M0 0 C5.49514624 -0.09973738 10.98975226 -0.1718742 16.4855957 -0.21972656 C18.35059807 -0.23969895 20.21553898 -0.26688668 22.08032227 -0.30175781 C34.86857632 -0.53470752 46.59328588 -0.55663161 57 8 C63.98547057 14.78396661 67.9774937 20.48509273 68.4375 30.3125 C68.14424335 39.51820864 64.65926269 48.52492969 58 55 C51.18037108 59.98699248 44.4622175 63.24164202 35.90234375 63.23828125 C34.77119141 63.25439453 33.64003906 63.27050781 32.47460938 63.28710938 C30.11268532 63.3040641 27.75064784 63.30923403 25.38867188 63.30273438 C18.84189284 63.40699921 18.84189284 63.40699921 12.828125 65.71484375 C9.92066085 70.93958167 9.49498023 76.36871872 8.8125 82.25 C8.50944625 84.63058391 8.20351362 87.01080332 7.89453125 89.390625 C7.76925049 90.44282227 7.64396973 91.49501953 7.51489258 92.57910156 C6.88615688 96.7563631 5.91638221 100.87628006 5 105 C-1.93 105 -8.86 105 -16 105 C-15.40755823 95.44014417 -14.15998433 86.178711 -12.5 76.75 C-10.71777113 66.76063684 -10.71777113 66.76063684 -9.40625 56.703125 C-9 53 -9 53 -8 51 C-7.14341797 50.99453156 -7.14341797 50.99453156 -6.26953125 50.98895264 C-0.29890984 50.94697912 5.67095345 50.87753048 11.64111328 50.79248047 C13.86597086 50.76434228 16.09092707 50.74309235 18.31591797 50.72900391 C21.52362303 50.70747568 24.73015103 50.66077322 27.9375 50.609375 C28.92427734 50.60814636 29.91105469 50.60691772 30.92773438 50.60565186 C38.3549655 50.44991035 43.53925101 48.73217026 49.375 44.125 C53.30206642 38.98960545 53.65357993 33.23079536 53 27 C51.45401081 20.91910917 48.6311884 18.52418192 43.56838989 15.27264404 C39.3230678 13.16907562 35.38311067 13.14783245 30.71484375 13.1953125 C29.77314835 13.18160614 28.83145294 13.16789978 27.86122131 13.15377808 C24.88615083 13.11671816 21.91276702 13.12017668 18.9375 13.125 C16.90687523 13.1068564 14.87627241 13.08604852 12.84570312 13.0625 C7.89685581 13.01087403 2.94910167 12.99555365 -2 13 C-1.34 8.71 -0.68 4.42 0 0 Z " fill="#1575EB" transform="translate(92,56)"/>
<path d="M0 0 C5.74742629 -0.09902133 11.49435392 -0.17154082 17.24243164 -0.21972656 C19.19694673 -0.23981774 21.1514019 -0.26709589 23.10571289 -0.30175781 C25.91828208 -0.35038601 28.73005527 -0.3729936 31.54296875 -0.390625 C32.41398727 -0.41127014 33.2850058 -0.43191528 34.18241882 -0.45318604 C38.27408546 -0.45469272 40.48430188 -0.29994479 44.09106445 1.79785156 C46 4 46 4 46 7.625 C45 11 45 11 42 13 C40.00679016 13.24050903 40.00679016 13.24050903 37.7121582 13.22705078 C36.42115959 13.22682419 36.42115959 13.22682419 35.1040802 13.22659302 C34.17899155 13.21627045 33.25390289 13.20594788 32.30078125 13.1953125 C31.35059616 13.1924826 30.40041107 13.18965271 29.4214325 13.18673706 C26.38499385 13.17553715 23.34884958 13.15043288 20.3125 13.125 C18.25456155 13.11496996 16.19661848 13.10584415 14.13867188 13.09765625 C9.0923344 13.07559842 4.04621712 13.04106982 -1 13 C-1.07654536 8.48382401 -1.10228696 4.40914783 0 0 Z " fill="#1675EB" transform="translate(88,81)"/>
</svg>
