<svg width="21" height="20" viewBox="0 0 21 20" fill="none" xmlns="http://www.w3.org/2000/svg">
<g clip-path="url(#clip0)">
<path d="M10.5 20C16.0228 20 20.5 15.5228 20.5 10C20.5 4.47715 16.0228 0 10.5 0C4.97715 0 0.5 4.47715 0.5 10C0.5 15.5228 4.97715 20 10.5 20Z" fill="#F0F0F0"/>
<path d="M20.5 10C20.5 4.47719 16.0229 0 10.5 0C8.54379 0 6.71902 0.562305 5.1777 1.53324L7.36961 2.46453L4.41309 3.7207L7.36961 4.97684L4.41309 6.23293L7.36961 7.48898L4.41309 8.74488L7.36961 10.0007L4.41309 11.2568L7.36961 12.5128L4.41309 13.7687L7.36961 15.0247L4.41309 16.2808L7.36961 17.5367L5.17867 18.4675C6.7198 19.438 8.54418 20 10.5 20C16.0229 20 20.5 15.5228 20.5 10Z" fill="#751A46"/>
</g>
<defs>
<clipPath id="clip0">
<rect width="20" height="20" fill="white" transform="translate(0.5)"/>
</clipPath>
</defs>
</svg>
