<svg width="20" height="20" viewBox="0 0 20 20" fill="none" xmlns="http://www.w3.org/2000/svg">
<path d="M10 20C15.5228 20 20 15.5228 20 10C20 4.47715 15.5228 0 10 0C4.47715 0 0 4.47715 0 10C0 15.5228 4.47715 20 10 20Z" fill="white"/>
<path d="M5.21716 2.16576H11.5753C11.6521 2.14225 11.6913 2.2128 11.7415 2.25199C12.3408 2.81806 12.8784 3.44607 13.3453 4.12549C14.0087 5.07564 14.5295 6.11776 14.8912 7.21872C15.269 8.38202 15.4477 9.61273 15.4007 10.8356H12.1593C12.1752 10.6731 12.181 10.5097 12.1765 10.3464C12.1428 9.19334 11.787 8.06219 11.2265 7.06038C10.6268 5.98723 9.7896 5.06146 8.83795 4.29246C7.80165 3.45448 6.63522 2.79288 5.42019 2.25826C5.35278 2.22691 5.28223 2.20182 5.21716 2.16576ZM7.5704 7.90933C8.65789 9.87669 9.74358 11.845 10.8275 13.8144C11.0885 14.2894 11.3527 14.7629 11.6114 15.2387C10.2623 16.1026 8.91713 16.9742 7.56884 17.8389V7.90933H7.5704Z" fill="#2A2A2A"/>
</svg>
