<svg width="20" height="20" fill="none" xmlns="http://www.w3.org/2000/svg"><path d="M10 20c5.523 0 10-4.477 10-10S15.523 0 10 0 0 4.477 0 10s4.477 10 10 10Z" fill="#0E0E21"/><path d="m15.584 12.333-1.188-2.02c-.042-.084-.146-.105-.208-.042l-.771.5a.162.162 0 0 0-.042.208l.688 1.146c.02.042 0 .083-.021.104l-4 2.584a.063.063 0 0 1-.084 0L6 12.229c-.042-.02-.042-.062-.02-.104l.687-1.146a.162.162 0 0 0-.042-.208l-.77-.5c-.084-.042-.167-.021-.209.041l-1.188 2.021a.303.303 0 0 0 .105.417l5.312 3.458a.32.32 0 0 0 .334 0l5.312-3.458c.104-.104.146-.292.063-.417Z" fill="#fff"/><path d="m6.437 9.188.771.5c.084.041.167.02.209-.042l2.5-4.25c.02-.042.104-.042.124 0l2.5 4.25c.042.083.146.104.209.041l.77-.5a.162.162 0 0 0 .042-.208l-2.937-5.083c-.063-.104-.146-.146-.271-.146h-.708a.356.356 0 0 0-.271.146l-2.98 5.083a.162.162 0 0 0 .042.209Z" fill="#2AE7A8"/></svg>
