<svg width="100" height="100" viewBox="0 0 100 100" fill="none" xmlns="http://www.w3.org/2000/svg">
<path d="M9.62595 67.92C9.52671 68.1505 9.41074 68.3734 9.27895 68.587C8.59189 69.7425 8.17834 71.04 8.06995 72.38C9.16975 74.6007 10.4385 76.7336 11.8649 78.76C11.9419 77.9681 12.1169 77.1888 12.3859 76.44C12.6936 75.4836 12.682 74.4532 12.3529 73.504C11.3173 71.7072 10.4062 69.8415 9.62595 67.92V67.92Z" fill="black"/>
<path d="M6.18303 38.895C7.0711 38.49 7.7993 37.8012 8.25303 36.937C8.86352 34.9209 9.61298 32.9495 10.496 31.037C10.2547 31.1195 10.0073 31.1831 9.75603 31.227C8.46367 31.4725 7.24923 32.025 6.21503 32.838C5.31754 35.2006 4.60441 37.6292 4.08203 40.102C4.72543 39.6078 5.43202 39.2019 6.18303 38.895Z" fill="black"/>
<path d="M37.995 5.407C38.7737 6.00075 39.7344 6.30577 40.713 6.27C42.7046 5.81973 44.7257 5.51195 46.761 5.349C46.546 5.15856 46.3476 4.95014 46.168 4.726C45.401 3.78996 44.4371 3.03439 43.345 2.513C40.8823 2.88209 38.4536 3.45063 36.083 4.213C36.7674 4.53017 37.4097 4.93125 37.995 5.407V5.407Z" fill="black"/>
<path d="M29.156 9.01603C30.0275 9.4232 31.0124 9.51886 31.946 9.28703C33.8098 8.40812 35.7348 7.66551 37.706 7.06503C37.4646 6.92778 37.2352 6.77056 37.02 6.59502C36.0628 5.83295 34.9461 5.29633 33.753 5.02502C31.4202 5.91428 29.1634 6.99148 27.005 8.24603C27.7519 8.40989 28.4748 8.66865 29.156 9.01603V9.01603Z" fill="black"/>
<path d="M9.49095 29.714C10.4354 29.5089 11.2837 28.9926 11.8999 28.248C12.9132 26.404 14.054 24.6331 15.3139 22.948C15.0486 22.9802 14.781 22.9906 14.514 22.979C13.2319 22.9431 11.9597 23.2122 10.8019 23.764C9.42803 25.8942 8.22366 28.1291 7.19995 30.448C7.92733 30.1019 8.69788 29.855 9.49095 29.714Z" fill="black"/>
<path d="M21.2371 14.442C22.1946 14.6555 23.1967 14.5289 24.0711 14.084C25.7035 12.8356 27.4221 11.7041 29.2141 10.698C28.9522 10.6156 28.6976 10.5116 28.4531 10.387C27.3492 9.83837 26.1338 9.55129 24.9011 9.54797C22.8046 10.9226 20.8201 12.4607 18.9661 14.148C19.7326 14.1475 20.4959 14.2464 21.2371 14.442V14.442Z" fill="black"/>
<path d="M14.584 21.443C15.5869 21.4457 16.5586 21.0944 17.328 20.451C17.9093 19.7783 18.5113 19.12 19.134 18.476C19.948 17.638 20.7883 16.838 21.655 16.076C21.3797 16.051 21.1071 16.0029 20.84 15.932C19.634 15.6292 18.3741 15.611 17.16 15.879C17.033 16.007 16.905 16.132 16.78 16.262C15.1404 17.9503 13.6251 19.755 12.246 21.662C13.0122 21.4859 13.7984 21.4123 14.584 21.443V21.443Z" fill="black"/>
<path d="M4.796 48.583C5.6072 47.9753 6.19102 47.1129 6.454 46.134C6.64448 44.0616 6.97388 42.0043 7.44 39.976C7.22175 40.107 6.99374 40.221 6.758 40.317C5.53595 40.8381 4.45575 41.643 3.607 42.665C3.21635 45.1569 3.01344 47.6747 3 50.197C3.52552 49.5828 4.12934 49.0402 4.796 48.583V48.583Z" fill="black"/>
<path d="M79.277 86.517C78.3195 86.3032 77.3175 86.4295 76.443 86.874C74.8111 88.1219 73.0932 89.2531 71.302 90.259C71.5632 90.3418 71.8171 90.4462 72.061 90.571C73.165 91.1194 74.3803 91.4064 75.613 91.41C77.7095 90.0356 79.6941 88.4975 81.548 86.81C80.7816 86.8105 80.0182 86.712 79.277 86.517V86.517Z" fill="black"/>
<path d="M95.717 52.377C94.907 52.9831 94.3235 53.8433 94.06 54.82C93.8694 56.8927 93.54 58.9504 93.074 60.979C93.2918 60.8479 93.5195 60.7339 93.755 60.638C94.9778 60.1146 96.0586 59.3077 96.908 58.284C97.2983 55.7937 97.5009 53.2777 97.514 50.757C96.9886 51.3735 96.3844 51.9181 95.717 52.377Z" fill="black"/>
<path d="M62.5179 95.553C61.7395 94.96 60.7799 94.6547 59.8019 94.689C57.8097 95.1397 55.788 95.4478 53.752 95.611C53.9668 95.8013 54.1651 96.0094 54.3449 96.233C55.112 97.1693 56.0758 97.9252 57.1679 98.447C59.631 98.0779 62.06 97.5094 64.4309 96.747C63.7461 96.4301 63.1035 96.029 62.5179 95.553V95.553Z" fill="black"/>
<path d="M43.645 96.798C43.1674 95.9246 42.4061 95.2403 41.487 94.858C39.5036 94.4469 37.552 93.8952 35.647 93.207C35.7581 93.4566 35.8497 93.7143 35.921 93.978C36.2586 95.1743 36.8523 96.2829 37.661 97.227C40.0269 97.8925 42.4423 98.3677 44.884 98.648C44.3989 98.0828 43.983 97.4617 43.645 96.798V96.798Z" fill="black"/>
<path d="M90.785 63.562C90.785 63.562 90.885 63.548 90.896 63.534C91.767 60.669 92.748 57.678 92.748 54.595C92.748 53.241 92.828 51.9 92.828 50.513C92.7934 48.8401 92.6622 47.1707 92.435 45.513H92.522V45.449C92.1181 42.4226 91.4557 39.4363 90.542 36.523H90.53C90.53 36.523 90.509 36.507 90.507 36.493C84.831 19.214 68.931 6.745 50.26 6.745C31.269 6.745 15.146 19.651 9.73295 37.395C9.73295 37.395 9.72595 37.404 9.71995 37.417C8.43436 41.6418 7.78293 46.034 7.78695 50.45C7.77908 52.1208 7.87325 53.7906 8.06895 55.45H8.20896V55.514C8.57496 58.5372 9.19923 61.5234 10.075 64.44H10.031C10.031 64.44 10.023 64.454 10.025 64.467C15.703 81.743 31.589 94.212 50.256 94.212C69.253 94.213 85.373 81.306 90.785 63.562ZM14.539 50.48C14.539 30.113 30.562 13.544 50.257 13.544C69.952 13.544 85.975 30.114 85.975 50.48C85.975 70.846 69.952 87.416 50.257 87.416C30.562 87.416 14.539 70.847 14.539 50.48Z" fill="black"/>
<path d="M34.434 94.378C34.1461 93.4336 33.5536 92.6112 32.749 92.039C30.8789 91.2042 29.0706 90.237 27.338 89.145C27.3955 89.4084 27.4326 89.6759 27.449 89.945C27.5403 91.2087 27.9061 92.4373 28.521 93.545C30.695 94.7041 32.9586 95.6866 35.29 96.483C34.9218 95.818 34.6344 95.1113 34.434 94.378V94.378Z" fill="black"/>
<path d="M25.91 90.041C25.8147 89.0298 25.3842 88.0795 24.687 87.341C23.0461 86.1303 21.4898 84.8089 20.029 83.386C20.0323 83.6583 20.0143 83.9305 19.975 84.2C19.8073 85.4759 19.9217 86.7731 20.31 88C22.2003 89.5937 24.2128 91.0365 26.329 92.315C26.0986 91.5766 25.9579 90.8131 25.91 90.041V90.041Z" fill="black"/>
<path d="M66.079 6.582C66.3659 7.52662 66.9582 8.34929 67.763 8.92099C69.6331 9.75594 71.4414 10.7231 73.174 11.815C73.1168 11.5515 73.0797 11.2841 73.063 11.015C72.9718 9.75118 72.6055 8.52254 71.99 7.415C69.8153 6.25305 67.5507 5.26787 65.218 4.46899C65.5886 5.13628 65.8777 5.84571 66.079 6.582V6.582Z" fill="black"/>
<path d="M94.334 62.065C93.4462 62.4691 92.7182 63.1573 92.265 64.021C91.6545 66.0373 90.9047 68.0087 90.021 69.921C90.2624 69.8389 90.5098 69.7757 90.761 69.732C92.055 69.4837 93.2706 68.9289 94.306 68.114C95.2024 65.7532 95.9148 63.3267 96.437 60.856C95.793 61.3509 95.0857 61.7575 94.334 62.065V62.065Z" fill="black"/>
<path d="M85.929 79.517C84.9263 79.5125 83.9544 79.8637 83.186 80.508C82.604 81.1813 82.0017 81.84 81.379 82.484C80.565 83.322 79.7247 84.122 78.858 84.884C79.1329 84.9086 79.4052 84.9565 79.672 85.027C80.8779 85.3304 82.1379 85.3486 83.352 85.08C83.479 84.953 83.607 84.827 83.733 84.698C85.3728 83.0096 86.8885 81.2049 88.268 79.298C87.5014 79.4737 86.7149 79.5473 85.929 79.517V79.517Z" fill="black"/>
<path d="M82.058 16.986C81.9469 18.0177 82.1853 19.0569 82.735 19.937C84.0861 21.4547 85.3339 23.0613 86.47 24.746C86.5215 24.4898 86.592 24.2377 86.681 23.992C87.1089 22.7511 87.2554 21.4305 87.11 20.126C86.0532 18.7794 84.9263 17.4893 83.734 16.261C83.2007 15.713 82.6577 15.1797 82.105 14.661C82.1837 15.435 82.1679 16.2158 82.058 16.986V16.986Z" fill="black"/>
<path d="M91.0219 71.245C90.0759 71.4496 89.226 71.9663 88.6089 72.712C87.5956 74.5559 86.4548 76.3269 85.1949 78.012C85.4603 77.9802 85.7279 77.9702 85.9949 77.982C87.2761 78.0185 88.5476 77.7505 89.705 77.2C91.0813 75.0701 92.288 72.8351 93.3139 70.516C92.586 70.8604 91.8151 71.1056 91.0219 71.245V71.245Z" fill="black"/>
<path d="M47.37 3.764C48.0345 4.53607 48.9504 5.04856 49.956 5.211C50.056 5.211 50.156 5.211 50.256 5.211C52.1568 5.21138 54.0555 5.33631 55.94 5.585C55.7721 5.35627 55.6232 5.11412 55.495 4.861C54.9365 3.78553 54.1518 2.84365 53.195 2.1C52.221 2.039 51.242 2 50.258 2C48.7533 2 47.261 2.07167 45.781 2.215C46.3712 2.66537 46.9047 3.18548 47.37 3.764V3.764Z" fill="black"/>
<path d="M53.144 97.195C52.4795 96.4226 51.563 95.9104 50.557 95.749C50.457 95.749 50.357 95.749 50.257 95.749C48.3559 95.7489 46.4568 95.6239 44.572 95.375C44.7404 95.604 44.8896 95.8464 45.018 96.1C45.5763 97.1756 46.361 98.1175 47.318 98.861C48.292 98.922 49.272 98.961 50.256 98.961C51.76 98.961 53.252 98.8893 54.732 98.746C54.1419 98.2951 53.6087 97.7742 53.144 97.195V97.195Z" fill="black"/>
<path d="M5.40303 58.352C6.07555 57.5852 6.47349 56.6162 6.53403 55.598C6.34819 53.8983 6.25472 52.1898 6.25403 50.48C6.25403 50.1093 6.25836 49.7393 6.26703 49.37C6.07971 49.5468 5.87913 49.7089 5.66703 49.855C4.57542 50.6302 3.68109 51.651 3.05603 52.835C3.17224 55.3516 3.47878 57.8557 3.97303 60.326C4.362 59.6087 4.84271 58.9452 5.40303 58.352V58.352Z" fill="black"/>
<path d="M18.455 83.974C18.566 82.9418 18.3272 81.9023 17.777 81.022C16.4258 79.5047 15.178 77.8984 14.042 76.214C13.9909 76.4705 13.9207 76.7229 13.832 76.969C13.4026 78.2075 13.255 79.5262 13.4 80.829C14.4581 82.1776 15.5863 83.4698 16.78 84.7C17.3133 85.248 17.856 85.7813 18.408 86.3C18.3296 85.5256 18.3454 84.7446 18.455 83.974Z" fill="black"/>
<path d="M74.5989 10.92C74.6952 11.9309 75.1255 12.8809 75.8219 13.62C77.4629 14.8309 79.0193 16.1527 80.4799 17.576C80.4768 17.3037 80.4949 17.0315 80.5339 16.762C80.702 15.4861 80.5876 14.1888 80.1989 12.962C78.3087 11.3682 76.2962 9.92544 74.1799 8.64697C74.4107 9.38497 74.5514 10.1482 74.5989 10.92V10.92Z" fill="black"/>
<path d="M56.869 4.16198C57.3467 5.03489 58.1075 5.71911 59.026 6.10197C61.0101 6.51278 62.9624 7.06451 64.868 7.75298C64.7567 7.5035 64.6651 7.24572 64.594 6.98198C64.2563 5.78535 63.6626 4.67642 62.854 3.73198C60.488 3.06661 58.0727 2.59143 55.631 2.31097C56.1161 2.87631 56.5317 3.49775 56.869 4.16198V4.16198Z" fill="black"/>
<path d="M7.97003 67.777C8.45932 66.9126 8.65676 65.9135 8.53303 64.928C7.88274 62.9321 7.36988 60.894 6.99803 58.828C6.85208 59.0365 6.69063 59.2337 6.51503 59.418C5.60051 60.4104 4.92978 61.6022 4.55603 62.899C5.17788 65.324 5.98525 67.6977 6.97103 69.999C7.20754 69.2186 7.54329 68.4718 7.97003 67.777V67.777Z" fill="black"/>
<path d="M94.851 51.106C95.9433 50.3305 96.8383 49.3095 97.4641 48.125C97.3473 45.6081 97.0405 43.1036 96.5461 40.633C96.1559 41.3505 95.6739 42.0141 95.1121 42.607C94.4392 43.3739 94.0415 44.3435 93.9821 45.362C94.1672 47.0617 94.2603 48.7702 94.261 50.48C94.261 50.8507 94.2567 51.2207 94.248 51.59C94.4364 51.4135 94.638 51.2517 94.851 51.106V51.106Z" fill="black"/>
<path d="M90.8879 33.04C90.9873 32.8098 91.1032 32.5872 91.2349 32.374C91.9231 31.2202 92.3374 29.924 92.4459 28.585C91.3449 26.3611 90.0745 24.2251 88.646 22.196C88.5689 22.9882 88.3939 23.7678 88.1249 24.517C87.8164 25.4728 87.8277 26.5031 88.1569 27.452C89.1942 29.2499 90.1067 31.1169 90.8879 33.04V33.04Z" fill="black"/>
<path d="M92.544 33.183C92.0548 34.047 91.8573 35.0458 91.981 36.031C92.6312 38.027 93.1441 40.0651 93.516 42.131C93.662 41.9228 93.8235 41.7259 93.999 41.542C94.914 40.5494 95.5851 39.3572 95.9591 38.06C95.3375 35.6349 94.5301 33.2612 93.544 30.96C93.3072 31.7408 92.9711 32.4879 92.544 33.183V33.183Z" fill="black"/>
<path d="M71.358 91.941C70.4864 91.5338 69.5016 91.4382 68.568 91.67C66.7044 92.5484 64.7797 93.2907 62.809 93.891C63.0495 94.029 63.2783 94.1865 63.493 94.362C64.4501 95.1243 65.5668 95.6609 66.76 95.932C69.0931 95.0428 71.3502 93.9656 73.509 92.711C72.7621 92.5471 72.0392 92.2883 71.358 91.941V91.941Z" fill="black"/>
<path d="M68.111 65.506L59.788 54.22C61.1576 53.6779 62.4232 52.9032 63.5289 51.93C65.5469 50.143 67.954 46.777 67.954 40.885C68.0226 39.104 67.711 37.3287 67.0399 35.6776C66.3688 34.0264 65.3536 32.5371 64.062 31.309C59.947 27.532 54.524 27.652 52.784 27.652H36.247C34.9777 27.6612 33.7638 28.1728 32.8709 29.0748C31.9779 29.9768 31.4785 31.1957 31.482 32.465C31.482 32.565 31.497 32.718 31.497 32.821V37.145H54.797C55.8167 37.1765 56.7845 37.6024 57.4968 38.3329C58.209 39.0634 58.6102 40.0417 58.616 41.062V41.97C58.6044 42.9742 58.1965 43.9332 57.4813 44.6381C56.766 45.3431 55.8012 45.7369 54.797 45.734H51.121C50.2388 45.7347 49.3741 45.9799 48.623 46.4425C47.8718 46.9051 47.2636 47.5669 46.866 48.3543C46.4683 49.1418 46.2968 50.024 46.3704 50.9031C46.444 51.7822 46.7599 52.6236 47.2829 53.334L60.431 71.164C60.8024 71.6679 61.2695 72.0938 61.8055 72.4172C62.3415 72.7407 62.936 72.9554 63.555 73.0491C64.174 73.1428 64.8054 73.1136 65.4131 72.9633C66.0208 72.813 66.593 72.5444 67.097 72.173C67.6009 71.8015 68.0268 71.3345 68.3502 70.7984C68.6736 70.2624 68.8883 69.6679 68.982 69.049C69.0757 68.43 69.0466 67.7986 68.8963 67.1908C68.7459 66.5831 68.4774 66.0109 68.106 65.507L68.111 65.506Z" fill="#FF0000"/>
<path d="M31.4969 45.733V68.11H31.554C31.703 69.5075 32.3671 70.7994 33.4168 71.7339C34.4665 72.6684 35.8266 73.1786 37.2319 73.165C38.6295 73.1651 39.9788 72.6535 41.0249 71.7268C42.071 70.8001 42.7416 69.5224 42.9099 68.135L42.972 45.735L31.4969 45.733Z" fill="black"/>
</svg>
