<svg fill="none" height="20" viewBox="0 0 20 20" width="20" xmlns="http://www.w3.org/2000/svg"><g fill="#002060"><path d="m10.0002-.00016766-3.84981 3.84977766 3.84981 3.84978 3.8497-3.84978z"/><path d="m10.0002 12.3006-3.84981 3.8498 3.84981 3.8498 3.8497-3.8498z"/><path d="m16.1506 6.1805-3.8498 3.8498 3.8498 3.8498 3.8497-3.8498z"/></g><path d="m11.1348 10.0265 2.7111-2.71107 2.711 2.71107-2.711 2.7112z" fill="#4e87f7"/><path d="m3.84978 6.1805-3.84978 3.8498 3.84978 3.8498 3.84978-3.8498z" fill="#002060"/><g fill="#4e87f7"><path d="m3.43555 10.0265 2.71112-2.71107 2.7111 2.71107-2.7111 2.7112z"/><path d="m7.28516 6.17694 2.7111-2.71112 2.71114 2.71112-2.71114 2.71111z"/><path d="m7.28516 13.8762 2.7111-2.7112 2.71114 2.7112-2.71114 2.7111z"/></g></svg>