<svg width="20" height="20" viewBox="0 0 20 20" fill="none" xmlns="http://www.w3.org/2000/svg">
<rect width="20" height="20" fill="url(#paint0_linear_2289_3014)"/>
<rect x="0.555664" y="0.555542" width="18.8889" height="18.8889" fill="#252623"/>
<path fill-rule="evenodd" clip-rule="evenodd" d="M4.84717 2.77777C3.7426 2.77777 2.84717 3.6732 2.84717 4.77777V7.72222C2.84717 8.82678 3.7426 9.72222 4.84717 9.72222H7.79161C8.89618 9.72222 9.79161 8.82678 9.79161 7.72222V4.77777C9.79161 3.6732 8.89618 2.77777 7.79161 2.77777H4.84717ZM4.72217 5.55555C5.18241 5.55555 5.5555 5.18245 5.5555 4.72222C5.5555 4.26198 5.18241 3.88888 4.72217 3.88888C4.26193 3.88888 3.88884 4.26198 3.88884 4.72222C3.88884 5.18245 4.26193 5.55555 4.72217 5.55555ZM7.15272 6.24999C7.15272 6.71023 6.77963 7.08333 6.31939 7.08333C5.85915 7.08333 5.48606 6.71023 5.48606 6.24999C5.48606 5.78976 5.85915 5.41666 6.31939 5.41666C6.77963 5.41666 7.15272 5.78976 7.15272 6.24999ZM7.84717 8.6111C8.30741 8.6111 8.6805 8.23801 8.6805 7.77777C8.6805 7.31753 8.30741 6.94444 7.84717 6.94444C7.38693 6.94444 7.01384 7.31753 7.01384 7.77777C7.01384 8.23801 7.38693 8.6111 7.84717 8.6111Z" fill="url(#paint1_linear_2289_3014)"/>
<path fill-rule="evenodd" clip-rule="evenodd" d="M10.2085 12.2083C10.2085 11.1037 11.1039 10.2083 12.2085 10.2083H15.1529C16.2575 10.2083 17.1529 11.1037 17.1529 12.2083V15.1528C17.1529 16.2573 16.2575 17.1528 15.1529 17.1528H12.2085C11.1039 17.1528 10.2085 16.2573 10.2085 15.1528V12.2083ZM12.8474 11.7361C12.8474 12.1963 12.4743 12.5694 12.0141 12.5694C11.5538 12.5694 11.1807 12.1963 11.1807 11.7361C11.1807 11.2759 11.5538 10.9028 12.0141 10.9028C12.4743 10.9028 12.8474 11.2759 12.8474 11.7361ZM15.3474 12.5694C15.8076 12.5694 16.1807 12.1963 16.1807 11.7361C16.1807 11.2759 15.8076 10.9028 15.3474 10.9028C14.8871 10.9028 14.5141 11.2759 14.5141 11.7361C14.5141 12.1963 14.8871 12.5694 15.3474 12.5694ZM12.8474 13.6805C12.8474 14.1408 12.4743 14.5139 12.0141 14.5139C11.5538 14.5139 11.1807 14.1408 11.1807 13.6805C11.1807 13.2203 11.5538 12.8472 12.0141 12.8472C12.4743 12.8472 12.8474 13.2203 12.8474 13.6805ZM15.3474 14.5139C15.8076 14.5139 16.1807 14.1408 16.1807 13.6805C16.1807 13.2203 15.8076 12.8472 15.3474 12.8472C14.8871 12.8472 14.5141 13.2203 14.5141 13.6805C14.5141 14.1408 14.8871 14.5139 15.3474 14.5139ZM12.8474 15.625C12.8474 16.0852 12.4743 16.4583 12.0141 16.4583C11.5538 16.4583 11.1807 16.0852 11.1807 15.625C11.1807 15.1648 11.5538 14.7917 12.0141 14.7917C12.4743 14.7917 12.8474 15.1648 12.8474 15.625ZM15.3474 16.4583C15.8076 16.4583 16.1807 16.0852 16.1807 15.625C16.1807 15.1648 15.8076 14.7917 15.3474 14.7917C14.8871 14.7917 14.5141 15.1648 14.5141 15.625C14.5141 16.0852 14.8871 16.4583 15.3474 16.4583Z" fill="url(#paint2_linear_2289_3014)"/>
<rect x="11.4585" y="3.33331" width="1.11111" height="2.08333" rx="0.555555" fill="url(#paint3_linear_2289_3014)"/>
<rect x="7.43066" y="14.5139" width="1.11111" height="2.08333" rx="0.555556" fill="url(#paint4_linear_2289_3014)"/>
<rect width="1.11111" height="2.08333" rx="0.555555" transform="matrix(0.707106 0.707108 -0.707106 0.707108 14.876 4.30554)" fill="url(#paint5_linear_2289_3014)"/>
<rect width="1.11111" height="2.08333" rx="0.555555" transform="matrix(0.707108 0.707106 -0.707108 0.707106 5.84814 13.4028)" fill="url(#paint6_linear_2289_3014)"/>
<rect x="14.5137" y="8.47223" width="1.11111" height="2.08333" rx="0.555556" transform="rotate(-90 14.5137 8.47223)" fill="url(#paint7_linear_2289_3014)"/>
<rect x="3.40283" y="12.5695" width="1.11111" height="2.08333" rx="0.555555" transform="rotate(-90 3.40283 12.5695)" fill="url(#paint8_linear_2289_3014)"/>
<defs>
<linearGradient id="paint0_linear_2289_3014" x1="19.9998" y1="10" x2="-1.61778e-07" y2="10" gradientUnits="userSpaceOnUse">
<stop stop-color="#D600E9"/>
<stop offset="1" stop-color="#8000E2"/>
</linearGradient>
<linearGradient id="paint1_linear_2289_3014" x1="9.79161" y1="6.24999" x2="2.84717" y2="6.24999" gradientUnits="userSpaceOnUse">
<stop stop-color="#E903FD"/>
<stop offset="1" stop-color="#9801FF"/>
</linearGradient>
<linearGradient id="paint2_linear_2289_3014" x1="17.1529" y1="13.6805" x2="10.2085" y2="13.6805" gradientUnits="userSpaceOnUse">
<stop stop-color="#E903FD"/>
<stop offset="1" stop-color="#9801FF"/>
</linearGradient>
<linearGradient id="paint3_linear_2289_3014" x1="12.5696" y1="4.37498" x2="11.4585" y2="4.37498" gradientUnits="userSpaceOnUse">
<stop stop-color="#E903FD"/>
<stop offset="1" stop-color="#9801FF"/>
</linearGradient>
<linearGradient id="paint4_linear_2289_3014" x1="8.54178" y1="15.5555" x2="7.43066" y2="15.5555" gradientUnits="userSpaceOnUse">
<stop stop-color="#E903FD"/>
<stop offset="1" stop-color="#9801FF"/>
</linearGradient>
<linearGradient id="paint5_linear_2289_3014" x1="1.11111" y1="1.04167" x2="0" y2="1.04167" gradientUnits="userSpaceOnUse">
<stop stop-color="#E903FD"/>
<stop offset="1" stop-color="#9801FF"/>
</linearGradient>
<linearGradient id="paint6_linear_2289_3014" x1="1.11111" y1="1.04167" x2="0" y2="1.04167" gradientUnits="userSpaceOnUse">
<stop stop-color="#E903FD"/>
<stop offset="1" stop-color="#9801FF"/>
</linearGradient>
<linearGradient id="paint7_linear_2289_3014" x1="15.6248" y1="9.5139" x2="14.5137" y2="9.5139" gradientUnits="userSpaceOnUse">
<stop stop-color="#E903FD"/>
<stop offset="1" stop-color="#9801FF"/>
</linearGradient>
<linearGradient id="paint8_linear_2289_3014" x1="4.51394" y1="13.6111" x2="3.40283" y2="13.6111" gradientUnits="userSpaceOnUse">
<stop stop-color="#E903FD"/>
<stop offset="1" stop-color="#9801FF"/>
</linearGradient>
</defs>
</svg>
