<svg width="20" height="20" viewBox="0 0 20 20" fill="none" xmlns="http://www.w3.org/2000/svg">
<circle cx="10" cy="10" r="10" fill="#FFAEFF"/>
<path d="M3.64353 12.5581C3.25594 12.5581 2.3257 11.7829 2.09314 11.4729L2.01562 11.0853V10.6977L2.09314 10.155L2.24818 9.6124L2.3257 9.14729L2.48074 8.68217L2.63578 8.06202L2.86834 7.51938L2.79082 7.36434L2.63578 6.74419L2.48074 5.81395L2.3257 4.4186V3.41085L2.40322 2.7907L2.63578 1.93798L3.02338 1.16279L3.64353 1.00775L4.34121 1.16279L5.27144 1.62791L5.96911 2.32558L6.58927 3.10078L7.5195 2.48062L8.60477 2.0155L10.0001 1.78295L11.3955 2.0155L12.4807 2.48062L13.4885 3.10078L13.6435 2.86822L14.3412 2.0155L15.1164 1.39535L15.8916 1.00775L16.8218 1.08527L17.3645 1.78295L17.597 2.7907L17.6745 3.87597L17.597 5.1938L17.3645 6.74419L17.1319 7.44186L17.2094 7.82946L17.6745 9.14729L17.9071 10.3876V11.4729C17.6745 11.7829 16.7443 12.5581 16.3567 12.5581C13.4885 12.5581 12.7908 10.6977 10.0001 10.6202C7.20942 10.6977 6.51175 12.5581 3.64353 12.5581Z" fill="#FFA700"/>
<path fill-rule="evenodd" clip-rule="evenodd" d="M2.01539 11.4729C2.24795 11.7829 3.17818 12.5581 3.56578 12.5581C5.02868 12.5581 5.92694 12.0742 6.82625 11.5896C7.69016 11.1241 8.55504 10.6581 9.92237 10.6202C11.2897 10.6581 12.1546 11.1241 13.0185 11.5896C13.9178 12.0742 14.8161 12.5581 16.279 12.5581C16.6666 12.5581 17.5968 11.7829 17.8293 11.4729L17.9844 12.093L17.9069 13.1783L17.6743 14.031L17.1317 15.0388L16.279 16.0465L14.8836 16.9767L13.1782 17.6744L10.6976 18.1395H8.99213L7.28671 17.8295L5.89136 17.3643L4.57353 16.8217L3.95337 16.3566L3.10066 15.5814L2.40299 14.4961L2.17043 13.7985L2.01539 13.1783L1.86035 12.4806V11.8605L2.01539 11.4729ZM10.0774 12.4806L8.91462 12.9457V13.1783L9.06965 13.6434L9.30221 14.031L9.61229 14.4186L10.0774 14.6512L10.5425 14.3411L10.8526 14.031L11.0076 13.6434L11.1627 13.1008L11.0852 12.8682L10.5425 12.7132L10.0774 12.4806Z" fill="white"/>
<path fill-rule="evenodd" clip-rule="evenodd" d="M3.38135 0.796154C2.92709 0.902814 2.58677 1.40173 2.41067 2.21919C2.29113 2.77407 2.23489 3.63311 2.26803 4.39773C2.32127 5.62571 2.48487 6.67513 2.72219 7.31081L2.79195 7.49767L2.65235 7.87081C2.27029 8.89201 2.03001 9.86777 1.90547 10.9037C1.86997 11.1989 1.86187 11.3794 1.86051 11.9039C1.85883 12.5578 1.86963 12.7139 1.95105 13.2139C2.11857 14.2427 2.53939 15.0496 3.30731 15.8145C4.42707 16.9298 6.16007 17.7414 8.23887 18.1238C9.80117 18.4113 11.3346 18.3296 12.9689 17.8718C14.5768 17.4213 15.8834 16.7179 16.7904 15.8145C17.5584 15.0496 17.9792 14.2427 18.1467 13.2139C18.2281 12.7139 18.2389 12.5578 18.2372 11.9039C18.2359 11.3794 18.2278 11.1989 18.1923 10.9037C18.0677 9.86777 17.8275 8.89201 17.4454 7.87081L17.3058 7.49767L17.38 7.30081C17.6485 6.58799 17.8335 5.21659 17.8343 3.93393C17.835 2.73119 17.6807 1.87029 17.3678 1.33119C17.2117 1.06223 16.9521 0.851734 16.7066 0.795134C16.5746 0.764714 16.14 0.770154 15.9791 0.804254C15.5482 0.895514 15.1113 1.11821 14.6889 1.46189C14.3711 1.72043 13.9453 2.18545 13.6845 2.55883C13.4772 2.85573 13.5137 2.83537 13.3769 2.73013C12.6855 2.19843 11.6846 1.78549 10.735 1.64019C10.435 1.59431 9.66269 1.59431 9.36277 1.64019C8.41315 1.78549 7.41227 2.19843 6.72087 2.73013C6.58409 2.83533 6.62033 2.85531 6.41493 2.56133C6.15387 2.18763 5.72697 1.72121 5.40867 1.46189C4.98743 1.11871 4.54967 0.895534 4.11869 0.804254C3.96347 0.771374 3.50821 0.766374 3.38135 0.796154ZM3.97865 1.11517C4.69251 1.21445 5.52085 1.82407 6.24209 2.78091L6.39057 2.97791L6.23039 3.14475C6.07275 3.30895 6.02337 3.39643 6.06487 3.43793C6.10233 3.47539 6.17527 3.43909 6.53765 3.20277C7.90593 2.31039 8.91281 1.95161 10.0489 1.95161C11.1849 1.95161 12.1918 2.31039 13.5601 3.20277C13.9225 3.43909 13.9954 3.47539 14.0329 3.43793C14.0744 3.39643 14.025 3.30895 13.8674 3.14475L13.7072 2.97791L13.8557 2.78091C14.4747 1.95967 15.1648 1.39807 15.8164 1.18539C16.1482 1.07705 16.5433 1.06865 16.7434 1.16569C17.0798 1.32887 17.3261 1.91293 17.4386 2.81393C17.5732 3.89293 17.4893 5.63027 17.2482 6.75393C17.1527 7.19879 17.1792 7.19017 17.003 6.83369C16.816 6.45523 16.7324 6.32393 16.6786 6.32393C16.6205 6.32393 16.6288 6.35451 16.8376 6.90943C17.5938 8.91965 17.9211 10.543 17.8831 12.0939C17.8524 13.3476 17.5881 14.2223 17.0032 15.0063C16.3162 15.9273 15.2022 16.6878 13.7489 17.228C12.4379 17.7153 10.8726 17.978 9.66387 17.9135C7.37515 17.7915 5.07759 16.9376 3.73647 15.7108C2.69791 14.7607 2.25415 13.7061 2.21463 12.0939C2.17661 10.543 2.50397 8.91965 3.26017 6.90943C3.46891 6.35451 3.47723 6.32393 3.41915 6.32393C3.36533 6.32393 3.28175 6.45523 3.09471 6.83369C2.91853 7.19017 2.94503 7.19879 2.84957 6.75393C2.66101 5.87523 2.55759 4.52227 2.60455 3.54911C2.61745 3.28225 2.64203 2.95143 2.65919 2.81393C2.76759 1.94551 3.00099 1.36917 3.31999 1.18221C3.46191 1.09905 3.69335 1.07549 3.97865 1.11517ZM3.64295 1.86157C3.45595 1.91351 3.36541 2.06175 3.32629 2.38003C3.29223 2.65717 3.34931 3.12149 3.40997 3.06083C3.43071 3.04009 3.44809 2.94591 3.49937 2.57657C3.55655 2.16477 3.61047 2.07325 3.79499 2.07481C4.00245 2.07657 4.19627 2.18541 4.47013 2.45393C4.65835 2.63849 4.90857 2.95497 5.04673 3.18321C5.10109 3.27299 5.11459 3.31625 5.11459 3.40059C5.11459 3.45851 5.10299 3.52795 5.08883 3.55491C5.07467 3.58187 4.96763 3.70299 4.85097 3.82407C4.63801 4.04511 4.46715 4.25783 4.35317 4.44393C4.28325 4.55805 4.25289 4.65393 4.28667 4.65393C4.29885 4.65393 4.52003 4.44953 4.77819 4.19973C5.31087 3.68425 5.33683 3.64737 5.33813 3.40393C5.33903 3.23549 5.31667 3.17687 5.16471 2.94909C4.63285 2.15191 4.06323 1.74485 3.64295 1.86157ZM16.1543 1.85385C15.7995 1.92875 15.3905 2.28805 14.9598 2.90331C14.7849 3.15307 14.7383 3.27881 14.7545 3.45721C14.7729 3.65999 14.8128 3.71271 15.3184 4.20115C15.5762 4.45017 15.7965 4.65393 15.808 4.65393C15.9201 4.65393 15.6182 4.20877 15.2368 3.81179C14.9933 3.55831 14.9739 3.52063 14.9942 3.34035C15.0021 3.27021 15.0356 3.20369 15.1397 3.05121C15.5456 2.45699 15.959 2.10021 16.2678 2.07789C16.3355 2.07299 16.4018 2.07943 16.428 2.09343C16.5149 2.13995 16.5747 2.35441 16.6304 2.81839C16.6432 2.92535 16.6654 3.02885 16.6798 3.04839C16.7039 3.08123 16.7076 3.07957 16.7278 3.02651C16.785 2.87679 16.8038 2.53801 16.7675 2.31405C16.7319 2.09435 16.6487 1.94643 16.5244 1.88177C16.4544 1.84535 16.2629 1.83091 16.1543 1.85385ZM4.88161 8.70403C4.86889 8.73713 4.89243 8.87557 4.92421 8.95459C4.93541 8.98245 4.97779 9.04875 5.01837 9.10193C5.07197 9.17215 5.08617 9.20463 5.07023 9.22057C5.03109 9.25971 4.66227 9.26293 4.54673 9.22513C4.49049 9.20673 4.43987 9.19627 4.43427 9.20187C4.42865 9.20747 4.43041 9.24623 4.43815 9.28799C4.44825 9.34243 4.48013 9.39089 4.55071 9.45913L4.64917 9.55435L4.59709 9.63303C4.56845 9.67633 4.54363 9.74147 4.54193 9.77783C4.53681 9.88835 4.60053 9.87493 4.96973 9.68775C5.55705 9.39003 5.82507 9.31373 6.28201 9.31419C6.70945 9.31463 6.90961 9.37017 7.50589 9.65383C7.89599 9.83939 7.98263 9.83761 7.88983 9.64591C7.83763 9.53809 7.59887 9.30909 7.44117 9.21559C7.02557 8.96919 6.36959 8.86727 5.81887 8.96357C5.44489 9.02895 5.23065 8.97751 4.99519 8.76581C4.91705 8.69557 4.89041 8.68107 4.88161 8.70403ZM15.1002 8.76761C14.8694 8.97683 14.6518 9.02875 14.2789 8.96357C13.7282 8.86727 13.0722 8.96919 12.6566 9.21559C12.4989 9.30909 12.2601 9.53809 12.2079 9.64591C12.1151 9.83761 12.2018 9.83939 12.5919 9.65383C13.1881 9.37017 13.3883 9.31463 13.8157 9.31419C14.273 9.31373 14.5407 9.38997 15.1266 9.68757C15.4966 9.87551 15.561 9.88903 15.5558 9.77783C15.5541 9.74147 15.5293 9.67633 15.5007 9.63303L15.4486 9.55435L15.547 9.45913C15.6176 9.39089 15.6495 9.34243 15.6596 9.28799C15.6673 9.24623 15.6691 9.20747 15.6635 9.20187C15.6579 9.19627 15.6073 9.20673 15.551 9.22513C15.4355 9.26293 15.0667 9.25971 15.0275 9.22057C15.0116 9.20463 15.0254 9.17263 15.078 9.10367C15.1618 8.99391 15.1973 8.91627 15.215 8.80393C15.2352 8.67589 15.2102 8.66797 15.1002 8.76761ZM9.66887 10.5155C9.44689 10.5377 9.18903 10.5984 9.10331 10.6486C8.92969 10.7503 8.91341 10.9152 9.04985 11.1906C9.19943 11.4924 9.53001 11.7746 9.82651 11.8536L9.91415 11.8769L9.90361 11.9933C9.88085 12.2443 9.71117 12.4822 9.48327 12.5827C9.17393 12.7191 8.76925 12.7033 8.43257 12.5417C8.23539 12.4471 8.01145 12.2314 7.96379 12.0902L7.93213 11.9964L8.04551 11.9839C8.10785 11.9771 8.18425 11.9667 8.21525 11.9608C8.27047 11.9504 8.27089 11.9493 8.23525 11.9092C8.21525 11.8867 8.15387 11.8471 8.09887 11.8213C7.97915 11.7651 7.78649 11.7577 7.67323 11.805C7.51611 11.8706 7.40865 12.0265 7.40917 12.1881C7.40967 12.3444 7.42811 12.3459 7.55843 12.2002L7.67663 12.068L7.70225 12.1808C7.75927 12.4319 7.90157 12.5993 8.17007 12.7311C8.32597 12.8077 8.60357 12.8929 8.69937 12.8936C8.73505 12.8939 8.74399 12.9181 8.77457 13.0973C8.81565 13.3381 8.93621 13.71 9.04003 13.9164C9.24619 14.326 9.51323 14.5888 9.84101 14.7045C9.91683 14.7312 10.0104 14.7531 10.0489 14.7531C10.1493 14.7531 10.3761 14.6681 10.5067 14.5814C10.8244 14.3707 11.0757 13.9817 11.2356 13.4535C11.274 13.3267 11.3167 13.149 11.3306 13.0585C11.3528 12.9135 11.3607 12.8939 11.3973 12.8936C11.494 12.8929 11.771 12.808 11.9277 12.7311C12.1962 12.5993 12.3385 12.4319 12.3955 12.1808L12.4211 12.068L12.5393 12.2002C12.6696 12.3459 12.6881 12.3444 12.6886 12.1881C12.6891 12.0265 12.5816 11.8706 12.4245 11.805C12.3113 11.7577 12.1186 11.7651 11.9989 11.8213C11.9439 11.8471 11.8825 11.8867 11.8625 11.9092C11.8269 11.9493 11.8273 11.9504 11.8825 11.9608C11.9135 11.9667 11.9899 11.9771 12.0522 11.9839L12.1656 11.9964L12.134 12.0902C12.0863 12.2314 11.8624 12.4471 11.6652 12.5417C11.3285 12.7033 10.9238 12.7191 10.6145 12.5827C10.3866 12.4822 10.2169 12.2443 10.1941 11.9933L10.1836 11.8769L10.2712 11.8536C10.6404 11.7553 11.0488 11.3414 11.1288 10.9844C11.1847 10.735 11.0515 10.6165 10.633 10.5434C10.4131 10.505 9.91711 10.4906 9.66887 10.5155ZM10.5389 10.7757C10.8524 10.8275 10.8457 10.9044 10.523 10.9576C10.2198 11.0077 9.53047 10.9794 9.37969 10.9107C9.17637 10.818 9.61025 10.7282 10.1689 10.7473C10.3064 10.752 10.4729 10.7647 10.5389 10.7757ZM9.94891 12.8139C9.94957 12.9255 9.97839 13.242 10.0003 13.3789C10.0091 13.4338 10.0222 13.4539 10.0489 13.4539C10.0755 13.4539 10.0886 13.4338 10.0974 13.3789C10.1207 13.2337 10.1482 12.9225 10.1485 12.8001C10.1487 12.732 10.1565 12.6716 10.1658 12.6658C10.1751 12.6601 10.2089 12.6833 10.2408 12.7174C10.3868 12.8732 10.6378 12.9907 10.9183 13.0344C10.995 13.0463 11.0609 13.0593 11.0648 13.0632C11.0794 13.0778 10.965 13.4686 10.8979 13.6331C10.7436 14.0116 10.5047 14.3063 10.2562 14.4247C10.02 14.5372 9.82995 14.4794 9.56887 14.2155C9.35439 13.9988 9.21139 13.7347 9.10235 13.3539C9.01257 13.0405 9.01139 13.0588 9.12259 13.0438C9.41757 13.0039 9.64773 12.9077 9.81381 12.7548C9.93367 12.6445 9.94795 12.6507 9.94891 12.8139Z" fill="#220059"/>
<ellipse cx="4.18586" cy="11.1628" rx="1.08527" ry="0.620155" fill="#FFAEFF"/>
<ellipse cx="6.98628" cy="4.79982" rx="1.08527" ry="0.620155" transform="rotate(-29.9259 6.98628 4.79982)" fill="white"/>
<ellipse rx="1.08527" ry="0.620155" transform="matrix(-0.866671 -0.49888 -0.49888 0.866671 13.0328 4.79982)" fill="white"/>
<ellipse cx="15.8138" cy="11.1628" rx="1.08527" ry="0.620155" fill="#FFAEFF"/>
</svg>
