<svg width="21" height="20" viewBox="0 0 21 20" fill="none" xmlns="http://www.w3.org/2000/svg">
<g clip-path="url(#clip0)">
<path d="M10.5 20C16.0228 20 20.5 15.5228 20.5 10C20.5 4.47715 16.0228 0 10.5 0C4.97715 0 0.5 4.47715 0.5 10C0.5 15.5228 4.97715 20 10.5 20Z" fill="#6DA544"/>
<path d="M6.15227 11.9565C6.15227 12.6768 6.73626 13.2608 7.45661 13.2608H11.3697C11.3697 13.8611 11.8563 14.3477 12.4566 14.3477H13.7609C14.3613 14.3477 14.8479 13.8611 14.8479 13.2608V11.9565H6.15227Z" fill="#F0F0F0"/>
<path d="M14.9565 5.65213V8.6956C14.9565 9.17509 14.5665 9.56517 14.087 9.56517V10.8695C15.2857 10.8695 16.2609 9.89427 16.2609 8.6956V5.65213H14.9565Z" fill="#F0F0F0"/>
<path d="M5.60883 8.69655C5.60883 9.17604 5.21875 9.56612 4.73926 9.56612V10.8705C5.93797 10.8705 6.91316 9.89522 6.91316 8.69655V5.65307H5.60883V8.69655Z" fill="#F0F0F0"/>
<path d="M14.3045 5.65213H13.0001V8.6956H14.3045V5.65213Z" fill="#F0F0F0"/>
<path d="M11.0436 7.39124C11.0436 7.51112 10.9461 7.60862 10.8262 7.60862C10.7064 7.60862 10.6088 7.51108 10.6088 7.39124V5.6521H9.30451V7.39124C9.30451 7.51112 9.20697 7.60862 9.08712 7.60862C8.96728 7.60862 8.86974 7.51108 8.86974 7.39124V5.6521H7.56537V7.39124C7.56537 8.23034 8.24802 8.913 9.08712 8.913C9.41029 8.913 9.70997 8.81143 9.95669 8.63893C10.2034 8.81139 10.5031 8.913 10.8263 8.913C10.8913 8.913 10.9553 8.90843 11.0183 8.90042C10.9258 9.28124 10.5829 9.56514 10.1741 9.56514V10.8695C11.3728 10.8695 12.348 9.89424 12.348 8.69557V5.6521H11.0436L11.0436 7.39124Z" fill="#F0F0F0"/>
<path d="M9.52189 9.56518H7.56537V10.8695H9.52189V9.56518Z" fill="#F0F0F0"/>
</g>
<defs>
<clipPath id="clip0">
<rect width="20" height="20" fill="white" transform="translate(0.5)"/>
</clipPath>
</defs>
</svg>
