<svg width="100" height="100" viewBox="0 0 100 100" fill="none" xmlns="http://www.w3.org/2000/svg">
<path d="M31.4981 40.5119H31.3288C34.7913 33.706 41.8617 29.0423 50.0213 29.0423C55.2848 29.0423 60.094 30.9818 63.7747 34.1856H63.9032H72.2574C67.3112 27.2438 59.1948 22.7158 50.0213 22.7158C36.0219 22.7158 24.4864 33.2584 22.9188 46.8383L40.5332 46.837V53.1619H22.916L22.923 53.2108C23.1789 55.3924 23.6921 57.4942 24.4305 59.4884H40.5303V75.5881C42.5371 76.3322 44.6585 76.8482 46.8553 77.1026V59.4897H53.1804V77.104C55.3787 76.8495 57.4987 76.3349 59.5053 75.5896V59.4884H75.6052C76.7015 56.5335 77.3 53.3367 77.3 50C77.3 46.6635 76.7015 43.4668 75.6052 40.5119H71.8589H31.4981ZM53.1817 53.1633H46.8568V46.8383H53.1817V53.1633ZM70.74 53.1633H59.5081V46.8383H70.74C70.8968 47.8704 70.9778 48.9261 70.9778 50.0015C70.9778 51.0755 70.8968 52.1312 70.74 53.1633Z" fill="black"/>
<path d="M50 10C27.908 10 10 27.9094 10 50C10 72.0907 27.908 90.0001 50 90.0001C72.0921 90.0001 90 72.0907 90 50C90 27.9094 72.0921 10 50 10ZM50 83.6638C31.4083 83.6638 16.3362 68.5919 16.3362 50C16.3362 31.4082 31.4083 16.3362 50 16.3362C68.5918 16.3362 83.6639 31.4082 83.6639 50C83.6639 68.5919 68.5918 83.6638 50 83.6638Z" fill="black"/>
</svg>
