<svg fill="none" height="28" viewBox="0 0 40 28" width="40" xmlns="http://www.w3.org/2000/svg" xmlns:xlink="http://www.w3.org/1999/xlink"><clipPath id="a"><path d="m0 0h40v28h-40z"/></clipPath><clipPath id="b"><path d="m4 10h32v8.768h-32z"/></clipPath><g clip-path="url(#a)"><g clip-path="url(#b)"><g fill="#0742a6"><path d="m11.1276 12.8007h-2.18541c0-.3587-.04219-.5993-.12614-.7219-.13008-.1812-.48895-.272-1.0764-.272-.57062 0-.94882.0521-1.13334.1567-.18453.1049-.277.3328-.277.6838 0 .3177.08187.5272.24583.6274.1174.0712.27263.113.46588.1255l.44075.0312c.94466.0625 1.5346.1068 1.76983.1319.74704.0752 1.2886.2739 1.6246.5958.2643.2512.422.5795.4723.9847.0295.2425.0441.517.0441.8219 0 .7028-.0672 1.2173-.2012 1.5433-.2433.5985-.79.9765-1.64057 1.1352-.35637.0671-.90143.1006-1.63476.1006-1.22394 0-2.07675-.0727-2.55843-.2192-.59099-.1794-.98082-.5428-1.16929-1.0899-.10515-.3047-.1571-.8121-.1571-1.5224h2.18543c0 .0792.00021.1399.00021.1816 0 .3791.10889.6226.32645.7313.15066.0748.33248.1141.54631.1188h.80356c.40999 0 .67161-.0209.78445-.0631.20094-.079.33289-.2062.39586-.3822.03345-.1084.05008-.2485.05008-.4201 0-.3843-.14027-.618-.42038-.702-.10494-.033-.59203-.0794-1.46188-.1378-.69862-.0498-1.18383-.0978-1.45543-.1444-.71545-.1338-1.19235-.4091-1.43028-.827-.20926-.355-.31378-.8921-.31378-1.6109 0-.5471.05652-.986.16956-1.316.11305-.3302.29529-.5808.54672-.7522.36843-.2633.83993-.4177 1.41367-.4638.47752-.0418 1.0072-.063 1.58988-.063.91722 0 1.57096.0528 1.96059.1573.95113.2556 1.42653.9713 1.42653 2.1474 0 .0964-.0071.2406-.0212.4335z"/><path d="m20.7383 18.7445v-8.7284h3.4241.5374.4155c.6003 0 1.0583.0488 1.3732.1469.7199.2255 1.2028.6874 1.4503 1.3852.1276.3664.1916.9179.1916 1.6543 0 .8855-.0708 1.5215-.2111 1.9091-.2808.7659-.8585 1.2073-1.7311 1.3216-.1027.0172-.5393.0324-1.3101.0449l-.3898.0129h-1.4007v2.2535zm2.3493-4.2784h1.4645c.4644-.0166.7469-.0523.8485-.1082.1388-.0763.2321-.2292.2785-.4584.0297-.1525.0444-.3795.0444-.6808 0-.3692-.0295-.6429-.0887-.8216-.0844-.2504-.2868-.4027-.6072-.4582-.0636-.0083-.2153-.0129-.4558-.0129h-1.4842z"/><path d="m33.1418 17.2366h-3.1409l-.422 1.5084h-2.4305l2.6227-8.7284h3.5436l2.6546 8.7284h-2.3793zm-.4665-1.7004-1.1007-3.7836-1.0681 3.7836z"/></g><path d="m17.4965 11.2441c.9688 0 1.8336.4464 2.402 1.1454l.5064-1.0857c-.792-.7485-1.8698-1.21-3.0586-1.21-1.8511 0-3.4346 1.1179-4.0843 2.7005h-.9875l-.5831 1.2499h1.2703c-.0096.116-.0158.2319-.0158.3504 0 .1432.0075.2849.0216.4247h-.6384l-.5828 1.2504h1.546c.6683 1.5425 2.232 2.6253 4.054 2.6253.9182 0 1.7702-.2751 2.4757-.7452v-1.5323c-.5681.6469-1.3991 1.0556-2.3255 1.0556-1.0828 0-2.0354-.5583-2.59-1.4034h3.2371l.5831-1.2504h-4.2965c-.0222-.1504-.0341-.3042-.0341-.4609 0-.1059.0054-.2107.0158-.3142h4.6761l.5829-1.2499h-4.8548c.5369-.9266 1.5361-1.5502 2.6804-1.5502z" fill="#ffbe00"/><path d="m17.4928 11.2818c.9233 0 1.7881.4127 2.3729 1.1317l.0378.0466.0256-.0543.5062-1.0857.0112-.0248-.0193-.0187c-.8325-.7867-1.928-1.22-3.0846-1.22-.9033 0-1.7724.2639-2.5136.7633-.7237.4875-1.279 1.1655-1.6052 1.9604l.0345-.0233h-.9875-.0241l-.01.0216-.5829 1.2501-.0249.0534h.0588 1.2703l-.0374-.0407c-.0106.1299-.0158.2452-.0158.3535 0 .1402.0073.2847.0216.4285l.0374-.0412h-.6383-.0237l-.01.0216-.5833 1.2502-.0247.0534h.0588 1.546l-.0345-.0227c.697 1.6086 2.3018 2.648 4.0885 2.648.8956 0 1.7586-.2595 2.4965-.7512l.0164-.011v-.0204-1.5323-.0995l-.0655.0748c-.582.6627-1.4192 1.0425-2.2972 1.0425-1.0328 0-1.9893-.5184-2.5588-1.3864l-.0312.0582h3.2371.0241l.01-.0214.5831-1.2506.0249-.0532h-.059-4.2965l.0372.032c-.0222-.1515-.0336-.3044-.0336-.4555 0-.1028.0051-.2072.0155-.3104l-.0374.0338h4.6762.0241l.0099-.0216.5829-1.2501.0252-.0534h-.0593-4.8548l.0324.0563c.5474-.9446 1.5623-1.5315 2.648-1.5315zm-2.6804 1.5502h4.8548l-.034-.0534-.5827 1.2501.0339-.0216h-4.6762-.0338l-.0038.0339c-.0104.1056-.0156.2126-.0156.3177 0 .1546.0117.3117.0343.4665l.005.032h.0322 4.2965l-.0339-.0534-.5829 1.2502.0337-.0217h-3.2371-.0696l.0382.0578c.5833.8898 1.5635 1.4203 2.6214 1.4203.8994 0 1.7574-.389 2.3538-1.0679l-.0659-.0247v1.5323l.0166-.0309c-.7254.4831-1.5741.7385-2.4547.7385-1.757 0-3.3346-1.0218-4.0195-2.6029l-.01-.0225h-.0245-1.546l.0343.0537.5826-1.2506-.034.0218h.6383.0414l-.004-.0413c-.0141-.1413-.0216-.2832-.0216-.421 0-.106.0052-.2197.0158-.3473l.0033-.0405h-.0407-1.2703l.0339.0534.5831-1.2501-.0339.0216h.9875.0251l.0094-.0233c.321-.7811.8667-1.4473 1.5782-1.9267.7285-.4906 1.5834-.7501 2.4716-.7501 1.1375 0 2.2143.4257 3.0328 1.1994l-.0083-.0432-.506 1.0859.063-.0079c-.5995-.7366-1.4854-1.1593-2.4313-1.1593-1.1128 0-2.152.6012-2.713 1.5689l-.0326.0563z" fill="#0742a6"/></g></g></svg>