<svg xmlns="http://www.w3.org/2000/svg" fill-rule="evenodd" clip-rule="evenodd" image-rendering="optimizeQuality" shape-rendering="geometricPrecision" text-rendering="geometricPrecision" viewBox="0 0 64 64">
    <path fill="#4b22ef" d="M25.5-.5h12c13.667 3.667 22.333 12.333 26 26v12c-3.667 13.667-12.333 22.333-26 26h-12c-13.667-3.667-22.333-12.333-26-26v-12c3.667-13.667 12.333-22.333 26-26Z" opacity=".993"/>
    <path fill="#fefefe" d="M27.5 13.5c7.008-.166 14.008 0 21 .5l-8 8c-5.99.5-11.99.666-18 .5.166 5.011 0 10.011-.5 15a107.987 107.987 0 0 1-8.5-9 74.979 74.979 0 0 1 14-15Zm13 12a57.449 57.449 0 0 1 9 9 84.89 84.89 0 0 0-7 8.5 29.946 29.946 0 0 0-7 6c-7 .667-14 .667-21 0l8-8c5.99-.5 11.99-.666 18-.5v-15Z"/>
</svg>
