<svg width="20" height="21" viewBox="0 0 20 21" fill="none" xmlns="http://www.w3.org/2000/svg">
<path d="M10 20.2259C15.5228 20.2259 20 15.7487 20 10.2259C20 4.70301 15.5228 0.225861 10 0.225861C4.47715 0.225861 0 4.70301 0 10.2259C0 15.7487 4.47715 20.2259 10 20.2259Z" fill="white"/>
<path d="M18.8738 8.59015C18.8881 8.60431 18.8881 8.61847 18.8881 8.63264C18.9454 8.98669 18.7018 9.31242 18.3866 9.3549C18.0283 9.41155 17.6988 9.18496 17.6414 8.84507C17.6271 8.81674 17.6271 8.77425 17.6271 8.74593C16.925 5.21957 13.7582 2.54294 9.94661 2.54294C6.27831 2.54294 3.21184 5.00714 2.35208 8.34939L8.84325 12.5414L11.5228 9.80809C11.6375 9.68063 11.7951 9.60982 11.9814 9.60982C12.3253 9.60982 12.6119 9.8789 12.6119 10.233C12.6119 10.3887 12.5402 10.5445 12.4256 10.6578L12.3969 10.6861L9.04386 14.1417L1.54964 9.29826C1.54248 9.29826 1.5389 9.29472 1.53531 9.29117C1.53173 9.28763 1.52815 9.28409 1.52098 9.28409C1.494 9.2752 1.47266 9.26073 1.45342 9.24769C1.44202 9.23995 1.43135 9.23272 1.42068 9.22745C1.34187 9.17788 1.26305 9.13185 1.18424 9.08582C1.10543 9.03979 1.02662 8.99377 0.947812 8.9442C1.5783 4.58228 5.36123 1.22586 9.94661 1.22586C14.403 1.22586 18.1 4.39817 18.8881 8.59015H18.8738Z" fill="url(#paint0_linear)"/>
<path d="M18.186 11.0685C18.2576 11.111 18.3293 11.1535 18.4152 11.2101C18.4726 11.2498 18.5345 11.2894 18.5964 11.3291C18.6892 11.3886 18.7821 11.448 18.8595 11.5075C18.229 15.8694 14.446 19.2259 9.86066 19.2259C5.41858 19.2259 1.72162 16.0819 0.919183 11.9041C0.919183 11.8899 0.915601 11.8757 0.912019 11.8616C0.908437 11.8474 0.904855 11.8332 0.904855 11.8191C0.847538 11.4792 1.09113 11.1535 1.43504 11.0968C1.76461 11.0402 2.07985 11.2526 2.16583 11.5642C2.18015 11.5783 2.18016 11.5783 2.18016 11.5925V11.6208C2.83931 15.2038 6.03474 17.923 9.87499 17.923C13.5433 17.923 16.6098 15.4446 17.4695 12.1165L10.964 7.91035L8.3131 10.6436C8.19846 10.7711 8.04084 10.8419 7.85456 10.8419C7.51066 10.8419 7.22407 10.5728 7.22407 10.2188C7.22407 10.0488 7.29572 9.89304 7.41035 9.77975L7.43901 9.75142L10.7921 6.29587L17.9137 10.8844L18.014 10.9552L18.143 11.0402C18.1502 11.0473 18.1573 11.0508 18.1645 11.0543C18.1717 11.0579 18.1788 11.0614 18.186 11.0685Z" fill="url(#paint1_linear)"/>
<defs>
<linearGradient id="paint0_linear" x1="4.80364" y1="2.59208" x2="14.9741" y2="12.8826" gradientUnits="userSpaceOnUse">
<stop stop-color="#085BB4"/>
<stop offset="1" stop-color="#42C4C4"/>
</linearGradient>
<linearGradient id="paint1_linear" x1="4.80364" y1="2.59208" x2="14.9741" y2="12.8826" gradientUnits="userSpaceOnUse">
<stop stop-color="#085BB4"/>
<stop offset="1" stop-color="#42C4C4"/>
</linearGradient>
</defs>
</svg>
