<svg width="20" height="20" viewBox="0 0 20 20" fill="none" xmlns="http://www.w3.org/2000/svg">
<path d="M10 20C15.5228 20 20 15.5228 20 10C20 4.47715 15.5228 0 10 0C4.47715 0 0 4.47715 0 10C0 15.5228 4.47715 20 10 20Z" fill="#B30D23"/>
<path d="M10.5706 13.2712L9.98812 14.3562L9.40562 13.2712C5.88687 12.9981 3.125 10.3744 3.125 10.3744C3.125 10.3681 5.80875 7.82562 9.25562 7.49062L9.71187 6.70937L9.98812 6.25L10.4569 7.03125L10.7206 7.49062C14.1669 7.81937 16.8512 10.3744 16.8512 10.3744C16.8512 10.3744 14.0888 12.9981 10.57 13.2712H10.5706ZM3.7075 10.3744C3.70125 10.3744 6.36125 12.1919 9.03312 12.5763L7.73063 10.1388L8.08438 9.525L8.40938 10.1325L8.40312 10.1388L9.67 12.6325C9.77187 12.6388 9.87375 12.6388 9.97625 12.6388C10.0781 12.6388 10.1744 12.6388 10.2762 12.6325L11.2069 10.7775L11.8856 9.5125L12.2394 10.1262L10.9369 12.57C13.6088 12.1919 16.2681 10.4181 16.2681 10.3681C16.2681 10.3244 13.735 8.63188 11.1287 8.1975L11.525 8.88625L11.195 9.54938L10.3363 8.11063C10.2203 8.10336 10.1043 8.0992 9.98812 8.09812C9.87375 8.09812 9.75375 8.10438 9.63375 8.11063L8.75688 9.54938L8.43313 8.91688L8.84687 8.20375C6.24125 8.64438 3.7075 10.3744 3.7075 10.3744Z" fill="white"/>
</svg>
