<svg width="20" height="20" viewBox="0 0 20 20" fill="none" xmlns="http://www.w3.org/2000/svg">
<path d="M10 20C15.5228 20 20 15.5228 20 10C20 4.47715 15.5228 0 10 0C4.47715 0 0 4.47715 0 10C0 15.5228 4.47715 20 10 20Z" fill="#26E44C"/>
<path d="M10 19C14.9706 19 19 14.9706 19 10C19 5.02944 14.9706 1 10 1C5.02944 1 1 5.02944 1 10C1 14.9706 5.02944 19 10 19Z" fill="black"/>
<path d="M12.4722 2.6484C12.4722 3.08462 12.4722 3.52 12.489 3.95622C11.9055 3.72978 11.298 3.57069 10.6784 3.48203C10.653 3.08631 10.7661 2.65178 10.6505 2.27631C10.2091 2.24484 9.76619 2.23949 9.32414 2.26028C9.3022 2.66697 9.31064 3.07534 9.32414 3.48372C8.70426 3.57646 8.09685 3.73893 7.51345 3.96803C7.5261 3.52759 7.53032 3.088 7.52442 2.64672C5.9842 3.16533 4.64561 4.15428 3.69735 5.47414C2.7491 6.794 2.23901 8.37819 2.23901 10.0034C2.23901 11.6286 2.7491 13.2127 3.69735 14.5326C4.64561 15.8525 5.9842 16.8414 7.52442 17.36C7.52442 16.928 7.5202 16.4977 7.51176 16.0674C8.09073 16.294 8.69505 16.4495 9.31148 16.5306C9.31148 16.9263 9.31148 17.3221 9.28785 17.7136C9.76035 17.7811 10.2396 17.7811 10.7121 17.7136C10.6906 17.3238 10.6793 16.9336 10.6784 16.5433C11.2952 16.4566 11.9006 16.3027 12.484 16.0843C12.4705 16.5117 12.4705 16.9394 12.484 17.3668C14.0236 16.847 15.3612 15.8572 16.3084 14.5368C17.2556 13.2165 17.7645 11.6322 17.7635 10.0072C17.7625 8.38225 17.2515 6.79859 16.3027 5.47943C15.3538 4.16027 14.0149 3.17214 12.4747 2.65431L12.473 2.6484H12.4722ZM13.6281 14.4061C12.6089 15.33 11.161 15.5485 9.83123 15.5291C8.66432 15.5291 7.42907 15.2127 6.58617 14.3681C6.13898 13.9361 5.88585 13.359 5.65888 12.7861C6.47395 12.5751 7.31517 12.5042 8.13614 12.3287C8.18717 12.577 8.30284 12.8073 8.47144 12.9965C8.64004 13.1857 8.85559 13.327 9.09632 13.4062C9.84135 13.6391 10.7644 13.672 11.3854 13.1404C11.8259 12.7751 11.8385 11.9761 11.2926 11.7027C10.0126 11.0412 8.41795 11.2656 7.20801 10.4286C5.5416 9.37815 5.41842 6.59209 7.04939 5.45809C8.29645 4.58312 9.9637 4.47428 11.4099 4.82528C12.7177 5.15603 13.65 6.26472 14.0989 7.49237C13.294 7.63159 12.4899 7.77418 11.6849 7.91003C11.4732 6.63175 9.68357 6.328 8.79426 7.07303C8.28801 7.49406 8.41795 8.39097 9.05076 8.6154C10.4345 9.18915 12.0967 9.02378 13.3227 9.98397C14.7461 10.9492 14.8946 13.2543 13.6273 14.4052L13.6281 14.4061Z" fill="#26E44C"/>
</svg>
