<svg xmlns="http://www.w3.org/2000/svg" viewBox="0 0 20 20"><defs><style>.cls-1{fill:#f4f4f4;}.cls-2{fill:none;stroke:#ec4c20;stroke-miterlimit:10;stroke-width:0.3px;}.cls-3{fill:#040d5d;}.cls-4{fill:#fff;}</style></defs><g id="Layer_4" data-name="Layer 4"><circle class="cls-1" cx="10" cy="10" r="10"/><rect class="cls-2" x="4.65" y="4.65" width="10.69" height="10.69" transform="translate(-4.14 10) rotate(-45)"/><rect class="cls-3" x="5.87" y="5.87" width="8.25" height="8.25" transform="translate(-4.14 10) rotate(-45)"/><circle class="cls-3" cx="13.78" cy="13.78" r="0.86"/><circle class="cls-3" cx="6.22" cy="13.78" r="0.86"/><circle class="cls-3" cx="13.78" cy="6.22" r="0.86"/><circle class="cls-3" cx="6.22" cy="6.22" r="0.86"/><path class="cls-4" d="M12,7.78l-.41,1.06s-1.68-.72-2.08-.11c-.22.34.29.6,1,.7a3.63,3.63,0,0,1,1.3.47c.71.46,1,2.72-2,2.66a3.21,3.21,0,0,1-1.95-.66l.41-1.06a4.63,4.63,0,0,0,.95.37,4.28,4.28,0,0,0,1.29.11.3.3,0,0,0,.15-.5,3.05,3.05,0,0,0-1.26-.42C7.69,10,7.85,8.82,8,8.49A1.91,1.91,0,0,1,10,7.24,4.65,4.65,0,0,1,12,7.78Z"/></g></svg>