<svg width="20" height="20" viewBox="0 0 20 20" fill="none" xmlns="http://www.w3.org/2000/svg">
<circle cx="10" cy="10" r="10" fill="white"/>
<path fill-rule="evenodd" clip-rule="evenodd" d="M9.06379 0.0731095C7.85671 0.27843 7.54079 0.348835 6.87382 0.560939C5.38018 1.03609 4.0984 1.82161 2.9374 2.97344C1.00203 4.89343 0 7.30351 0 10.0382C0 11.7213 0.285831 12.9409 1.0408 14.4788C3.18413 18.8451 8.23436 20.992 12.9872 19.5574C16.4846 18.5017 19.1414 15.535 19.8562 11.8871C20.0462 10.9173 20.0483 9.14857 19.8605 8.20287C19.4612 6.19197 18.5141 4.40899 17.1055 3.01599C15.4041 1.33346 13.6574 0.4869 11.1031 0.106697C10.2202 -0.0246663 9.69012 -0.0333862 9.06379 0.0731095ZM12.0577 1.20468C13.3058 1.48129 14.5067 2.05083 15.5931 2.88164C16.0815 3.25514 16.2551 3.44932 16.4733 3.86658C16.7163 4.33108 16.7412 4.4383 16.7071 4.87446C16.6713 5.33201 16.6263 5.4226 15.9891 6.32131C15.6152 6.84862 15.2062 7.35567 15.0804 7.44803C14.8589 7.61048 14.7365 7.61726 11.3087 7.65634L7.76603 7.69671L7.73983 7.96937C7.72548 8.11938 7.7447 8.27295 7.78258 8.31066C7.82046 8.34836 8.89078 8.39786 10.161 8.42062C11.4311 8.44339 12.5921 8.49708 12.7408 8.53988C13.459 8.74689 14.132 9.36189 14.4042 10.06C14.5893 10.5346 14.5774 11.3421 14.3775 11.874C14.1919 12.3677 13.6416 12.9462 13.0787 13.2392C12.7163 13.4279 12.691 13.4294 9.54956 13.4544L6.38546 13.4795L6.1036 13.2905C5.71955 13.0329 5.60299 12.7831 5.6433 12.3039C5.67137 11.9703 5.72474 11.8615 5.97001 11.6378L6.26314 11.3704H9.02202C11.6729 11.3704 11.7873 11.3641 11.9432 11.2089C12.1405 11.0124 12.1466 10.9036 11.9712 10.7106C11.8469 10.574 11.6594 10.563 9.44898 10.563C6.69587 10.563 6.43753 10.5212 5.75321 9.96598C5.52294 9.77907 5.22461 9.44925 5.0903 9.23295C4.861 8.8638 4.84607 8.78993 4.84607 8.02597C4.84607 7.07421 4.92353 6.88245 5.56649 6.24243C6.25974 5.55227 6.22664 5.55711 10.2882 5.55711C12.2172 5.55711 13.8545 5.53458 13.9267 5.50697C13.9988 5.47944 14.2282 5.21913 14.4365 4.92855L14.8153 4.40027L14.4213 4.05527C13.9717 3.66142 13.1655 3.25361 12.1776 2.92039C11.5242 2.69998 11.4358 2.69085 9.956 2.69085C8.47858 2.69085 8.39082 2.69989 7.83189 2.90933C5.55189 3.7638 3.91647 5.21429 3.18729 7.02859C2.70145 8.23767 2.59268 8.80172 2.59179 10.1189C2.59097 11.255 2.60614 11.3751 2.83682 12.0567C3.77137 14.8182 5.53194 16.5246 8.17158 17.2274C8.85728 17.4099 9.15195 17.4437 10.0777 17.4457C11.0287 17.4478 11.2687 17.42 11.9026 17.2343C13.6897 16.7108 14.9606 15.8403 16.0433 14.3981C16.531 13.7485 16.8011 13.2385 17.1348 12.3377C17.6129 11.0469 17.609 9.12831 17.1255 7.74265C16.9236 7.16375 16.9011 7.02229 16.9757 6.79735C17.0651 6.52768 17.4804 6.20303 17.7359 6.20303C18.2806 6.20303 18.6158 6.75109 18.9706 8.22152C19.1842 9.10651 19.1652 10.9987 18.9332 11.9458C18.0142 15.697 15.1422 18.4013 11.4431 18.9985C8.71639 19.4387 5.88663 18.5791 3.88516 16.7027C2.3285 15.2434 1.42867 13.6316 1.073 11.6658C0.627061 9.20049 1.14519 6.84935 2.57938 4.83045C3.32688 3.77825 4.74225 2.52259 5.75142 2.01643C6.71404 1.53353 8.10604 1.11933 9.1449 1.0067C9.76896 0.939043 11.341 1.04586 12.0577 1.20468ZM7.79555 14.014C7.91316 14.1012 8.08001 14.3413 8.16631 14.5477C8.32171 14.9192 8.32171 14.9267 8.16436 15.3045C7.94317 15.8359 7.57023 16.0796 7.0517 16.0315C6.3608 15.9674 5.82061 15.2484 6.01738 14.6547C6.10506 14.3904 6.51467 13.939 6.75216 13.845C6.97634 13.7561 7.57964 13.8539 7.79555 14.014ZM12.8159 13.9536C13.6046 14.4323 13.568 15.4959 12.7485 15.9118C12.5956 15.9895 12.3609 16.0529 12.2271 16.0529C11.6931 16.0525 11.133 15.4736 11.1324 14.9216C11.1314 14.0627 12.0887 13.5122 12.8159 13.9536Z" fill="#0696A6"/>
</svg>
