<svg width="20" height="20" fill="none" xmlns="http://www.w3.org/2000/svg"><path d="M10.967 15.777v.012l-.955 1.655-.955-1.655v-.023l.955-1.655.955 1.654v.012Zm1.46 0a1.43 1.43 0 0 0-.163-.685l-1.854-3.215c-.217-.376-.574-.376-.79 0l-1.856 3.215a1.39 1.39 0 0 0-.161.685c0 .25.054.496.161.686l1.855 3.214c.217.377.574.377.79 0l1.855-3.214c.108-.19.162-.438.162-.686ZM10.967 4.42v.012l-.955 1.655-.955-1.655v-.024l.955-1.654.955 1.654v.012Zm1.46 0c0-.247-.055-.497-.163-.685L10.41.52c-.217-.376-.574-.376-.79 0L7.763 3.735a1.39 1.39 0 0 0-.161.685c0 .248.054.495.161.686L9.62 8.32c.217.376.574.376.79 0l1.855-3.214a1.43 1.43 0 0 0 .162-.686ZM16.374 6.425l-.955 1.655c-.007.005-.014.01-.021.012h-1.912l.955-1.655a.096.096 0 0 1 .021-.012h1.912Zm2.221-1.076c0-.224-.178-.381-.488-.381h-3.71c-.435 0-.968.307-1.185.686l-1.855 3.212a.629.629 0 0 0-.093.304c0 .226.179.381.489.381h3.709c.436 0 .97-.307 1.186-.685l1.855-3.215a.603.603 0 0 0 .092-.302ZM6.538 12.104l-.955 1.654c-.007.005-.014.01-.021.012H3.65l.955-1.655a.096.096 0 0 1 .021-.011h1.912Zm2.221-1.077c0-.223-.178-.38-.488-.38h-3.71c-.435 0-.968.306-1.185.685l-1.855 3.212a.629.629 0 0 0-.093.305c0 .226.179.38.489.38h3.71c.435 0 .968-.306 1.185-.685l1.855-3.214a.596.596 0 0 0 .092-.303ZM6.538 8.092h-1.91l-.021-.012-.955-1.655h1.912c.007.005.014.007.022.012l.952 1.655ZM8.759 9.17a.629.629 0 0 0-.092-.304L6.812 5.65c-.217-.376-.75-.685-1.186-.685h-3.71c-.309 0-.488.154-.488.38 0 .093.031.196.093.305l1.855 3.212c.217.376.75.686 1.186.686h3.71c.309.002.487-.155.487-.379ZM16.374 13.77h-1.91l-.021-.012-.955-1.654H15.4l.021.012.953 1.654Zm2.221 1.079a.63.63 0 0 0-.092-.305l-1.855-3.214c-.217-.376-.75-.686-1.186-.686h-3.71c-.309 0-.488.155-.488.381a.63.63 0 0 0 .093.305l1.855 3.212c.217.376.75.683 1.186.685h3.71c.309.003.487-.154.487-.378Z" fill="#CFB675"/></svg>