<svg width="20" height="20" viewBox="0 0 20 20" fill="none" xmlns="http://www.w3.org/2000/svg">
<path d="M10 20C15.5228 20 20 15.5228 20 10C20 4.47715 15.5228 0 10 0C4.47715 0 0 4.47715 0 10C0 15.5228 4.47715 20 10 20Z" fill="#1C1C1C"/>
<path d="M9.82187 8.39562C10.0131 8.47374 10.2044 8.43437 10.3575 8.39562C10.4725 8.78562 10.6637 9.13624 10.8544 9.29187C10.74 10.2669 10.3956 10.6175 10.0131 10.6175C9.47812 10.6175 9.20999 9.48687 9.20999 9.29249C9.32499 9.21437 9.66937 8.97999 9.82249 8.39562H9.82187ZM9.24812 11.8262C9.47812 11.6312 9.63062 11.3194 9.82187 10.8125C9.97499 10.8906 10.2044 10.8512 10.3575 10.8125C10.4725 11.3581 10.5869 11.7094 10.8544 11.865C10.7781 12.4887 10.3956 12.9175 10.0512 12.9175C9.55437 12.9175 9.32499 12.1381 9.24812 11.8262ZM6.18874 13.0344C6.34187 12.8394 6.34187 12.5281 6.26562 11.9431C6.37999 11.9819 6.49499 11.9819 6.57187 11.9431C6.80062 12.4887 6.99187 12.8394 7.29812 13.0344C7.33624 13.3075 7.29812 13.6194 7.18312 13.6581C6.76249 13.8531 6.37999 13.3462 6.18937 13.0344H6.18874ZM4.58249 11.9819C4.65937 11.9819 4.69749 11.9819 4.77374 12.0212C5.04187 12.7225 5.50062 13.1125 5.50062 13.1125C5.65374 13.4244 5.72999 13.7362 5.61499 13.7362C5.27124 13.775 5.00312 13.5412 4.73562 13.0344C4.77374 12.9175 4.73562 12.8394 4.58249 11.9819ZM3.54999 11.9819C3.93249 13.6194 4.65937 13.5412 4.62124 13.4631C4.46812 13.1906 4.31499 13.0737 4.16187 12.9569C3.81812 12.6056 3.54999 11.865 3.54999 11.9819ZM8.21562 13.0344C8.48374 12.8394 8.52187 12.4106 8.55999 11.8656C8.71312 11.9037 8.90374 11.9037 9.01874 11.8656C9.09562 12.2156 9.20999 12.7225 9.55437 12.9569C9.51624 13.3856 9.40124 13.6194 9.13374 13.6581C8.94249 13.7362 8.40687 13.7362 8.21562 13.0344ZM4.92687 11.8262C5.07999 11.6312 5.11812 11.3194 5.15624 10.8906C5.27124 10.9294 5.42437 10.9294 5.49999 10.8906C5.61499 11.3969 5.80624 11.7094 6.03624 11.8656C6.11249 12.6837 6.03624 12.9569 5.88312 12.9569C5.53937 12.9569 5.07999 12.2156 4.92687 11.8256V11.8262ZM3.74124 11.8262C3.74124 11.7481 3.77937 11.2412 3.81812 10.8906H3.97062C4.16187 11.6312 4.42999 11.8656 4.42999 11.8656C4.62124 12.7619 4.62124 12.9956 4.46749 12.9175C4.12374 12.8006 3.85624 12.1381 3.74124 11.8262ZM6.80062 11.8262C6.99187 11.67 7.10687 11.3975 7.18312 10.8906C7.37437 10.9681 7.56562 10.9294 7.68062 10.8906C7.79499 11.3969 7.98687 11.7094 8.25437 11.8656C8.25437 12.2937 8.21562 12.9956 7.68062 12.8781C7.22124 12.7619 6.83937 11.9819 6.80062 11.8262ZM6.45687 11.7094C5.99749 11.7094 5.72999 10.9681 5.72999 10.7344C5.95937 10.5006 6.07374 10.0719 6.18874 9.33124C6.26562 9.36999 6.37999 9.36999 6.49499 9.33124C6.53312 10.15 6.76249 10.5006 6.95374 10.6956C6.87749 11.3581 6.68624 11.7094 6.45687 11.7094ZM4.08562 10.7344C4.16187 10.5781 4.16187 10.5394 4.39187 9.33124H4.58249C4.58249 10.15 4.81187 10.5394 4.92687 10.6956C4.88874 11.1244 4.96499 11.7094 4.62062 11.7094C4.46812 11.7094 4.27687 11.5144 4.08562 10.7344ZM3.32062 9.36999C3.43562 9.40937 3.35874 10.4225 3.51187 10.7737C3.51187 10.7737 3.51187 11.7481 3.43562 11.67C2.86187 10.9681 3.24437 9.33124 3.32062 9.36999ZM7.90999 10.7344C8.17749 10.5394 8.33062 10.1106 8.55999 9.33124C8.71312 9.36999 8.90374 9.36999 9.01874 9.33124C9.09562 9.91562 9.24812 10.345 9.55437 10.6562C9.47812 11.28 9.17187 11.7094 8.78937 11.7094C8.17749 11.7094 7.94812 10.8512 7.90999 10.7344ZM4.77374 9.21437C5.07999 9.09749 5.27124 8.43437 5.30937 8.35624C5.35145 8.39397 5.40597 8.41484 5.46249 8.41484C5.51901 8.41484 5.57354 8.39397 5.61562 8.35624C5.61562 8.86312 5.76812 9.09749 5.88312 9.17499C5.76812 9.83749 5.61499 10.6175 5.27062 10.6175C4.96499 10.6175 4.81187 9.91562 4.77374 9.21437ZM3.81749 10.6562C3.54999 10.6562 3.47374 9.64312 3.54999 9.21437C3.54999 9.21437 3.77937 8.86312 3.93249 8.35624C3.97062 8.35624 4.04749 8.39562 4.08562 8.35624C4.04749 8.86312 4.12374 9.09749 4.19999 9.21437C4.19999 9.21437 4.00937 10.6562 3.81812 10.6562H3.81749ZM6.72437 9.21437C6.87749 9.13624 7.18312 8.70749 7.33624 8.31749C7.48937 8.39562 7.64249 8.39562 7.83312 8.35624C7.90999 8.78562 8.02437 9.05812 8.29249 9.21437C8.17749 9.91562 7.94812 10.6175 7.45124 10.6175C6.99187 10.6175 6.76249 9.68187 6.72437 9.21437ZM7.06812 8.16187C6.83937 8.78562 6.60937 9.13624 6.30374 9.13624C5.92124 9.13624 5.88312 8.31749 5.88312 8.23937C6.18937 8.00562 6.41812 7.53812 6.60937 7.14812H6.87749C6.80062 7.73249 6.95374 8.00562 7.06874 8.16187H7.06812ZM5.19437 7.18687C5.00312 7.73249 5.07999 8.00562 5.15687 8.20062C4.85062 8.97999 4.69749 9.17562 4.46812 9.17562C4.23874 9.13624 4.23874 8.66812 4.31499 8.27874C4.54437 8.12249 5.04187 7.22624 5.04187 7.18687H5.19437ZM4.08562 7.22624C4.19999 7.18687 3.77937 7.77187 3.81812 8.04499C3.85562 8.43437 3.39687 9.09749 3.35874 9.05812C3.20624 9.01937 3.51187 7.61562 4.08562 7.22624ZM9.51624 8.16187C9.40124 8.59062 9.24812 9.13624 8.59812 9.13624C8.25437 9.09749 8.06312 8.62999 7.98624 8.23937C8.36874 7.96687 8.55999 7.49874 8.67499 7.14812C8.78937 7.18687 8.98124 7.18687 9.09562 7.14812C9.17187 7.73249 9.36312 8.00562 9.51624 8.16187ZM4.31499 7.10874C4.39124 7.06999 4.88874 6.40749 5.15624 6.40749C5.30937 6.44624 4.88874 6.83624 4.92687 7.03124C4.81187 7.22624 4.27687 8.19999 4.08562 8.19999C3.93249 8.19999 3.93249 7.69374 4.31499 7.10874ZM13.7231 11.9431C13.6844 12.5275 13.6844 12.8394 13.7994 13.0344C13.6462 13.3469 13.2256 13.8144 12.8056 13.6581C12.6519 13.6194 12.6519 13.3075 12.69 13.0344C13.0344 12.8394 13.2637 12.45 13.4169 11.9431C13.4931 11.9819 13.6081 11.9819 13.7231 11.9431ZM15.2525 11.9431C15.2906 11.9819 15.3675 11.9819 15.4437 11.9037C15.2906 12.7619 15.2525 12.8394 15.2906 12.9569C15.0231 13.4631 14.7556 13.6581 14.4112 13.6581C14.2581 13.6581 14.335 13.3856 14.5262 13.0344C14.5262 13.0344 14.985 12.645 15.2525 11.9431ZM15.865 12.9569C15.7112 13.1125 15.5587 13.1906 15.4437 13.4631C15.4056 13.5412 16.1325 13.6194 16.5144 11.9819C16.4381 11.865 16.2081 12.6056 15.8644 12.9569H15.865ZM11.4662 11.9431C11.4662 12.4106 11.5812 12.8394 11.8106 13.1125C11.6194 13.775 11.0844 13.775 10.8931 13.7362C10.625 13.6581 10.5487 13.4244 10.4725 13.0344C10.7781 12.7619 10.9312 12.2937 11.0075 11.9431C11.1606 11.9819 11.3137 11.9819 11.4662 11.9431ZM14.9081 10.8512C14.9081 11.3194 14.9469 11.6312 15.1381 11.7869C14.985 12.1769 14.4881 12.9181 14.1819 12.9181C14.0287 12.9181 13.9525 12.645 14.0287 11.8262C14.2581 11.67 14.4494 11.28 14.5644 10.8512C14.6169 10.8807 14.676 10.8962 14.7362 10.8962C14.7964 10.8962 14.8556 10.8807 14.9081 10.8512ZM16.285 10.9294C16.285 11.2419 16.285 11.7481 16.3619 11.865C16.2087 12.1775 15.9412 12.84 15.635 12.9569C15.4437 12.9956 15.4819 12.7619 15.6731 11.9037C15.6731 11.9037 15.9412 11.6312 16.1325 10.9294H16.285ZM12.8812 10.8512C12.9581 11.3975 13.0344 11.67 13.2637 11.7869C13.2262 11.9819 12.805 12.7619 12.3844 12.8394C11.8487 12.9569 11.8106 12.2156 11.8106 11.8262C12.0781 11.67 12.2694 11.3194 12.3844 10.8512C12.4994 10.8906 12.6906 10.9294 12.8812 10.8512ZM14.335 10.7344C14.2962 10.9681 13.9906 11.7094 13.6081 11.7094C13.3787 11.7094 13.1875 11.3194 13.1112 10.6956C13.3025 10.5394 13.5319 10.15 13.57 9.33124C13.6683 9.37029 13.7779 9.37029 13.8762 9.33124C14.0287 10.0331 14.1437 10.5006 14.335 10.7344ZM15.6731 9.33124C15.8644 10.5394 15.9025 10.5787 15.9794 10.7344C15.7881 11.475 15.5969 11.7094 15.4437 11.7094C15.1 11.7094 15.1762 11.0856 15.1375 10.6956C15.2906 10.5394 15.4819 10.15 15.4819 9.33124C15.5587 9.36999 15.5969 9.33124 15.6731 9.33124ZM16.4762 10.7344C16.6675 10.4225 16.5912 9.40937 16.6675 9.33124C16.7825 9.29187 17.1262 11.0075 16.5531 11.6312C16.4762 11.7094 16.4762 10.7344 16.4762 10.7344ZM11.5812 9.33124C11.6962 10.1106 11.8875 10.5394 12.2312 10.7344C12.1931 10.8512 11.8875 11.7094 11.3519 11.7094C10.9312 11.7481 10.7019 11.2412 10.5869 10.6562C10.8544 10.345 11.0456 9.91562 11.1225 9.33124C11.1987 9.36999 11.39 9.36999 11.5812 9.33124ZM14.7556 8.35624C14.7556 8.43437 14.985 9.09749 15.2525 9.29187C15.2525 9.95437 15.0612 10.6956 14.7556 10.6956C14.4112 10.6956 14.2581 9.95499 14.1431 9.25312C14.2581 9.13624 14.4112 8.86312 14.4112 8.39562C14.4673 8.41795 14.5281 8.42604 14.5881 8.41917C14.6481 8.4123 14.7054 8.39068 14.755 8.35624H14.7556ZM16.4762 9.21437C16.5144 9.64312 16.4381 10.6562 16.2469 10.6175C16.0556 10.6175 15.8644 9.17499 15.8644 9.17499C15.9412 9.05812 16.0175 8.78562 15.9794 8.35624C16.0004 8.37517 16.0277 8.38565 16.0559 8.38565C16.0842 8.38565 16.1115 8.37517 16.1325 8.35624C16.285 8.86312 16.4762 9.21437 16.4762 9.21437ZM12.7287 8.35624C12.8812 8.70749 13.1494 9.13624 13.3787 9.25312C13.3406 9.72124 13.0725 10.6562 12.6519 10.6562C12.0781 10.6956 11.9256 9.99374 11.8106 9.25312C12.04 9.09687 12.1931 8.78562 12.2312 8.39562C12.3844 8.43437 12.575 8.43437 12.7287 8.35624ZM13.685 9.09749C13.4169 9.13624 13.1875 8.78499 12.92 8.16187C13.0725 8.00562 13.1875 7.69374 13.1112 7.14812C13.2256 7.18687 13.3025 7.18687 13.3787 7.14812C13.6081 7.57687 13.8375 8.00562 14.105 8.20062C14.105 8.31749 14.0675 9.09749 13.6844 9.09749H13.685ZM14.9081 8.16187C14.9469 8.00562 15.0231 7.73249 14.7937 7.14812H14.9469C14.9469 7.18687 15.4819 8.12312 15.6731 8.23937C15.75 8.66812 15.75 9.09749 15.52 9.13624C15.3294 9.13624 15.1762 8.94124 14.9081 8.16124V8.16187ZM16.2081 8.04437C16.2469 7.77187 15.8644 7.18687 15.9025 7.22562C16.515 7.61562 16.7444 9.01937 16.6294 9.05812C16.5912 9.09749 16.1706 8.39562 16.2087 8.04437H16.2081ZM11.3519 9.09749C10.7781 9.13624 10.625 8.59062 10.5106 8.16187C10.7019 8.04437 10.8931 7.69374 10.9312 7.14812C11.0456 7.18687 11.2375 7.18687 11.3519 7.14812C11.4662 7.49874 11.6581 7.96687 11.9637 8.20062C11.9256 8.66812 11.7344 9.05812 11.3512 9.09749H11.3519ZM14.9081 6.40749C15.0994 6.40749 15.6731 7.06999 15.7112 7.10874C16.1325 7.73249 16.1325 8.20062 15.9794 8.20062C15.75 8.20062 15.2525 7.22562 15.1381 7.03124C15.1756 6.83624 14.7556 6.40749 14.9081 6.40749ZM6.41812 6.52437C6.34187 6.75812 6.30374 6.99187 6.41812 7.10874C6.18874 7.57687 5.80624 8.23999 5.46187 8.20062C5.07999 8.12249 5.38562 7.22562 5.42437 7.14812C5.65374 7.03124 6.18874 6.29062 6.38062 6.29062C6.49499 6.32937 6.41812 6.52437 6.41812 6.52437ZM8.21562 6.48562C8.21562 6.71937 8.25437 6.99187 8.44499 7.10874C8.29249 7.57687 7.98624 8.20062 7.48874 8.16187C7.14499 8.12249 7.06874 7.53812 7.14499 7.10874C7.48874 6.99187 7.79499 6.25124 8.02437 6.25124C8.21562 6.25124 8.21562 6.44624 8.21562 6.48562ZM13.6469 7.10874C13.7231 6.99187 13.7231 6.75874 13.6469 6.52437C13.6469 6.48562 13.57 6.29062 13.6844 6.29062C13.8756 6.29062 14.4112 7.03124 14.6406 7.14812C14.6787 7.22624 14.9844 8.12312 14.6025 8.20062C14.22 8.23937 13.8756 7.53812 13.6462 7.10874H13.6469ZM11.6194 7.10874C11.7725 6.99187 11.8106 6.71937 11.8487 6.48562C11.8487 6.44624 11.8487 6.25124 12.04 6.25124C12.2312 6.21249 12.6137 6.99187 12.92 7.10874C13.0344 7.61562 12.9575 8.12249 12.5756 8.16187C12.04 8.23937 11.7725 7.53812 11.6194 7.10874ZM10.0131 6.25124C10.3956 6.25124 10.3956 6.99187 10.7019 7.14812C10.7019 7.34312 10.5869 8.20062 9.97499 8.20062C9.43937 8.20062 9.32499 7.49874 9.28687 7.14812C9.74562 6.95312 9.59312 6.25124 10.0131 6.25124Z" fill="white"/>
</svg>
