<svg xmlns="http://www.w3.org/2000/svg" viewBox="0 0 194.68 274.17"><defs><style>.cls-1,.cls-2{fill:#1ba5f8;}.cls-1{isolation:isolate;opacity:0.62;}</style></defs><path class="cls-1" d="M641.41 464.24l34.59-42.62a9 9 0 0 1 14 0l34.58 42.62a9 9 0 0 1 0 11.38l-34.58 42.62a9 9 0 0 1-14 0l-34.58-42.62a9 9 0 0 1-.01-11.38z" transform="translate(-585.66 -247.42)"/><path class="cls-2" d="M695.14 360l34.58-42.63a9 9 0 0 1 14 0l34.6 42.63a9 9 0 0 1 0 11.37l-34.58 42.63a9 9 0 0 1-14 0l-34.58-42.63a9 9 0 0 1-.02-11.37zM587.68 360l34.58-42.63a9 9 0 0 1 14 0l34.6 42.63a9 9 0 0 1 0 11.37l-34.58 42.63a9 9 0 0 1-14 0l-34.58-42.63a9 9 0 0 1-.02-11.37zM641.41 293.38l34.59-42.62a9 9 0 0 1 14 0l34.58 42.62a9 9 0 0 1 0 11.38l-34.58 42.62a9 9 0 0 1-14 0l-34.58-42.62a9 9 0 0 1-.01-11.38z" transform="translate(-585.66 -247.42)"/></svg>