<svg width="20" height="21" viewBox="0 0 20 21" fill="none" xmlns="http://www.w3.org/2000/svg">
<g clip-path="url(#clip0)">
<path d="M9.99243 20.0108C15.5195 20.0108 20 15.5303 20 10.0032C20 4.47621 15.5195 -0.0043335 9.99243 -0.0043335C4.4654 -0.0043335 -0.0151367 4.47621 -0.0151367 10.0032C-0.0151367 15.5303 4.4654 20.0108 9.99243 20.0108Z" fill="#FFF1AC"/>
<path d="M9.99243 18.4747C14.6711 18.4747 18.4639 14.6819 18.4639 10.0032C18.4639 5.32459 14.6711 1.5318 9.99243 1.5318C5.31379 1.5318 1.521 5.32459 1.521 10.0032C1.521 14.6819 5.31379 18.4747 9.99243 18.4747Z" fill="white"/>
<path d="M11.7176 11.6625H9.52799L10.8316 1.56635C10.5286 1.5349 10.2228 1.51489 9.91121 1.51489C5.23186 1.51775 1.43579 5.31096 1.43579 9.99317C1.43579 14.5439 5.02319 18.2571 9.52531 18.4572L11.7176 11.6625Z" fill="#FFD609"/>
<path fill-rule="evenodd" clip-rule="evenodd" d="M6.65675 13.9152C6.65656 13.9151 6.65639 13.9149 6.90449 13.5716C7.15259 13.2283 7.15244 13.2282 7.15231 13.2281L7.15209 13.228L7.15186 13.2278C7.15179 13.2277 7.15191 13.2278 7.15221 13.228L7.15616 13.2308L7.17675 13.245C7.19604 13.258 7.22626 13.2779 7.26669 13.3032C7.34763 13.3539 7.46906 13.4256 7.62517 13.506C7.93824 13.6672 8.38588 13.8604 8.92254 13.9889C9.98938 14.2444 11.4003 14.2445 12.8352 13.2262L13.3255 13.9171C11.6444 15.1101 9.96737 15.1102 8.72528 14.8128C8.10748 14.6649 7.59541 14.4435 7.23739 14.2592C7.05796 14.1668 6.91599 14.0831 6.81742 14.0214C6.7681 13.9906 6.72954 13.9652 6.70248 13.9469C6.68895 13.9377 6.67828 13.9304 6.67057 13.925L6.66123 13.9184L6.65825 13.9163L6.65718 13.9155L6.65675 13.9152Z" fill="#FFD609"/>
<path d="M6.65674 13.9152C6.65674 13.9152 6.65638 13.9149 6.90448 13.5716C7.15258 13.2283 7.1523 13.2281 7.1523 13.2281L7.15615 13.2308L7.17674 13.245C7.19603 13.258 7.22625 13.2779 7.26668 13.3032C7.34762 13.3539 7.46905 13.4256 7.62516 13.506C7.93823 13.6672 8.38587 13.8604 8.92253 13.9889C9.51257 14.1302 10.2079 14.1934 10.9543 14.0494L10.664 14.9482C9.95413 15.0228 9.2941 14.949 8.72527 14.8128C8.10747 14.6649 7.5954 14.4435 7.23738 14.2592C7.05795 14.1668 6.91598 14.0831 6.81741 14.0214C6.76809 13.9906 6.72953 13.9652 6.70247 13.9469C6.68894 13.9378 6.67827 13.9304 6.67056 13.925L6.66122 13.9184L6.65824 13.9163L6.65674 13.9152Z" fill="white"/>
<path d="M3.36279 6.74261H16.6221L14.9812 11.1624H11.1262L9.99383 8.49872L9.03008 11.2186H5.11889L3.36279 6.74261Z" fill="black"/>
</g>
<defs>
<clipPath id="clip0">
<rect width="20" height="20" fill="white" transform="translate(0 0.00476074)"/>
</clipPath>
</defs>
</svg>
