<svg width="20" height="20" viewBox="0 0 20 20" fill="none" xmlns="http://www.w3.org/2000/svg">
    <circle cx="10" cy="10" r="10" fill="url(#paint0_linear)"/>
    <path d="M9.96203 3C9.82683 3.00041 9.69177 3.00877 9.55754 3.02506C8.90937 3.10241 8.35631 3.37075 7.89293 3.8271C7.56213 4.15299 7.23829 4.486 6.91046 4.81498C6.74233 4.98359 6.57333 5.15131 6.40347 5.31816C6.22555 5.49348 6.04517 5.66643 5.86837 5.84278C5.7042 6.00624 5.54423 6.17424 5.38037 6.33811C5.1258 6.59274 4.86764 6.84376 4.6146 7.09973C4.41749 7.29918 4.22593 7.50431 4.03138 7.70623C3.91738 7.82463 3.79466 7.93539 3.68867 8.06049C3.22745 8.6045 3.00889 9.23905 3.00212 10.0832C2.98139 10.4054 3.11488 10.8246 3.30963 11.2229C3.41337 11.4354 3.55477 11.6308 3.69216 11.8247C3.78635 11.9576 3.8552 11.9566 3.98141 11.8539C4.00501 11.8348 4.02563 11.812 4.04677 11.7901C4.16949 11.6623 4.29149 11.5338 4.41462 11.4067C4.59306 11.2229 4.77313 11.0409 4.95044 10.8561C5.13616 10.6628 5.3186 10.4662 5.50411 10.2724C5.59246 10.1802 5.68676 10.0935 5.7749 10.0011C5.96472 9.80235 6.15003 9.59929 6.34109 9.40221C6.52753 9.20946 6.72033 9.02331 6.90738 8.83169C7.1165 8.61739 7.32038 8.39803 7.53011 8.18455C7.72271 7.98891 7.9232 7.80091 8.11529 7.60465C8.3675 7.34734 8.61324 7.08395 8.86473 6.82581C9.01803 6.66823 9.17759 6.51694 9.33232 6.3607C9.54277 6.14825 9.74922 5.93209 9.96069 5.72057C10.1416 5.53937 10.3291 5.36456 10.5102 5.18357C10.9159 4.77848 11.3198 4.37142 11.7239 3.96488C11.7497 3.9389 11.7739 3.91105 11.7969 3.88259C11.8946 3.76069 11.9029 3.73243 11.7814 3.64456C11.5894 3.50565 11.3945 3.3624 11.1815 3.26288C10.7959 3.08261 10.3932 3.00103 9.97772 3H9.96203ZM13.0744 5.53328C12.6974 5.54762 12.3706 5.66488 12.1251 5.96674C12.1059 5.99015 12.082 6.00995 12.0601 6.03109C11.841 6.24323 11.6205 6.45382 11.4032 6.66771C11.1772 6.89037 10.9547 7.11643 10.7297 7.34033C10.5437 7.52565 10.3553 7.70861 10.1703 7.89507C9.9766 8.08988 9.788 8.28964 9.59325 8.48311C9.38978 8.68514 9.18015 8.88078 8.97576 9.08199C8.72847 9.32589 8.48406 9.57268 8.23831 9.81823C7.78417 10.2718 7.32982 10.7252 6.87578 11.1788C6.27491 11.7794 5.67434 12.3803 5.07275 12.9802C4.95865 13.0942 4.95455 13.1096 5.07388 13.2302C5.3619 13.5214 5.65269 13.8099 5.94153 14.1004C6.11863 14.2789 6.32734 14.4009 6.57493 14.4443C6.81103 14.4859 7.04939 14.4881 7.2819 14.421C7.45264 14.3718 7.61517 14.3015 7.74651 14.1749C7.98405 13.9461 8.22107 13.7172 8.45892 13.4889C8.62627 13.3284 8.79701 13.1713 8.96221 13.0085C9.2923 12.683 9.61819 12.353 9.94899 12.0282C10.2192 11.7631 10.4945 11.5032 10.7662 11.2398C11.1387 10.8785 11.5104 10.5162 11.8822 10.1542C12.2324 9.81349 12.5819 9.47192 12.9328 9.1319C13.0864 8.98288 13.2299 8.99866 13.3406 9.17563C13.5409 9.49605 13.6531 9.84319 13.6068 10.2235C13.5679 10.5448 13.4552 10.8454 13.2311 11.0841C12.9723 11.3597 12.6977 11.6203 12.4284 11.886C12.2373 12.0747 12.0422 12.2594 11.8516 12.4487C11.6048 12.6933 11.3605 12.9402 11.1156 13.1868C11.0772 13.2258 11.042 13.2684 11.004 13.308C10.9237 13.3917 10.8434 13.4752 10.7613 13.5573C10.5799 13.7379 10.3956 13.9158 10.2156 14.098C10.0228 14.2931 9.83377 14.4919 9.64281 14.6888C9.62578 14.7063 9.60577 14.7207 9.58822 14.7376C9.3827 14.9373 9.17697 15.1366 8.97227 15.3371C8.87643 15.4306 8.78326 15.5268 8.68886 15.6216C8.52541 15.7859 8.35857 15.9467 8.20004 16.1158C8.10461 16.217 8.10554 16.2791 8.21841 16.3587C8.41234 16.4954 8.60688 16.6386 8.8202 16.7386C9.21134 16.9218 9.62003 16.9994 10.0405 17H10.0493C10.1937 16.9995 10.338 16.9909 10.4814 16.9742C11.0595 16.9075 11.5608 16.669 11.9909 16.2914C12.3072 16.0142 12.5914 15.6997 12.8891 15.4012C13.1092 15.1805 13.3282 14.9585 13.548 14.7376C13.7545 14.5299 13.9617 14.3227 14.1684 14.1151C14.3579 13.925 14.5457 13.7333 14.7369 13.5449C14.9497 13.3355 15.1682 13.1314 15.3798 12.9208C15.5961 12.7057 15.8117 12.4892 16.0196 12.2659C16.2766 11.989 16.4008 11.8464 16.4933 11.7089C16.5848 11.5737 16.8996 11.0824 16.9806 10.3618C17.0215 9.9982 16.9867 9.71923 16.9762 9.64219C16.9578 9.50791 16.8789 9.00237 16.5228 8.45114C16.3908 8.24653 16.3227 8.16021 15.9215 7.76234C15.3267 7.17285 14.733 6.5816 14.1514 5.97912C13.8659 5.68324 13.5368 5.53205 13.1366 5.53205C13.1161 5.53205 13.0954 5.53246 13.0744 5.53328V5.53328Z"
          fill="white"/>
    <defs>
        <linearGradient id="paint0_linear" x1="3.5" y1="3.5" x2="20" y2="23" gradientUnits="userSpaceOnUse">
            <stop stop-color="#FF4920"/>
            <stop offset="1" stop-color="#F19043"/>
        </linearGradient>
    </defs>
</svg>
