<svg width="21" height="20" fill="none" xmlns="http://www.w3.org/2000/svg"><path d="m7.65 13.108-1.953-1.156-3.785 2.271V7.49L7.65 4.183v4.542l1.873 1.036V.876L0 6.414V17.61l7.65-4.502ZM12.39 13.108l1.953-1.156 3.784 2.271V7.49L12.39 4.183v4.542l-1.872 1.036V.876l9.522 5.538V17.61l-7.65-4.502Z" fill="#EB4F45"/><path d="m2.829 12.789 1.434-.837V10l3.546 1.952v4.184L6.096 15.02l-1.833 1.116 5.299 3.067v-8.247L2.829 7.131v5.658ZM17.251 12.789l-1.434-.837V10l-3.546 1.952v4.184l1.713-1.116 1.833 1.116-5.3 3.067v-8.247l6.734-3.825v5.658Z" fill="#EB4F45"/></svg>