<svg width="21" height="21" viewBox="0 0 21 21" fill="none" xmlns="http://www.w3.org/2000/svg">
<path d="M10.3306 20.0048C15.8534 20.0048 20.3306 15.5276 20.3306 10.0048C20.3306 4.48191 15.8534 0.00476074 10.3306 0.00476074C4.80772 0.00476074 0.330566 4.48191 0.330566 10.0048C0.330566 15.5276 4.80772 20.0048 10.3306 20.0048Z" fill="url(#paint0_linear)"/>
<path d="M5.42035 13.1659C5.0842 12.2187 5.12611 11.2512 5.28606 10.2832C5.42006 9.47062 5.83832 8.78981 6.33727 8.15378C6.75695 7.61872 7.22539 7.12815 7.71094 6.6527C8.11124 6.26052 8.48987 5.84896 8.83998 5.40973C9.4199 4.68271 9.63716 3.8516 9.59439 2.93606C9.58327 2.69533 9.59268 2.45347 9.59268 2.20904C9.59068 2.20904 9.60779 2.20476 9.61577 2.21132C10.2268 2.71701 10.8301 3.22954 11.266 3.90664C11.6059 4.43401 11.8186 4.99902 11.8531 5.63305C11.8662 5.8752 11.865 6.11449 11.8519 6.35493C11.792 6.81726 11.6885 7.26847 11.5263 7.70685C11.404 8.0377 11.4274 8.37112 11.5711 8.69141C11.7775 9.15175 12.2725 9.38163 12.823 9.28124C13.3 9.19425 13.6624 8.83687 13.753 8.3617C13.7841 8.19885 13.8106 8.03542 13.8406 7.86286C13.9395 7.92903 13.9957 8.02116 14.061 8.1033C14.7062 8.91417 15.241 9.78635 15.4175 10.8251C15.645 12.1633 15.3899 13.3849 14.4387 14.404C14.037 14.8344 13.5401 15.1256 12.9924 15.3378C12.6035 15.4884 12.2257 15.6666 11.8573 15.8631C11.3421 16.1381 10.9581 16.5414 10.706 17.0659C10.6485 17.186 10.5814 17.1988 10.4634 17.1774C9.49118 17.0032 8.60705 16.6184 7.7959 16.0625C6.81198 15.3886 6.02678 14.5406 5.53525 13.4408C5.49448 13.3504 5.45827 13.2577 5.42035 13.1659ZM10.2904 10.233C9.35946 10.233 8.42857 10.2347 7.49768 10.2307C7.38933 10.2301 7.35198 10.2544 7.35341 10.3699C7.35968 10.9161 7.35911 11.4626 7.35398 12.009C7.35284 12.12 7.38306 12.1531 7.49625 12.1519C8.06134 12.1462 8.62672 12.1519 9.19181 12.1468C9.30244 12.1457 9.33693 12.1739 9.33579 12.2885C9.32981 12.8587 9.33522 13.4288 9.33123 13.999C9.33038 14.0977 9.35832 14.1285 9.45839 14.1276C10.0141 14.1233 10.5698 14.1231 11.1254 14.1279C11.2287 14.1288 11.2503 14.0934 11.2498 13.9976C11.2458 13.4274 11.2512 12.8573 11.2452 12.2871C11.2441 12.1722 11.2783 12.1457 11.3883 12.1468C11.9534 12.1522 12.5188 12.1462 13.0839 12.1516C13.1917 12.1528 13.2182 12.1228 13.217 12.017C13.2116 11.466 13.2113 10.9147 13.2173 10.3636C13.2185 10.2552 13.1879 10.2307 13.083 10.2313C12.1521 10.2353 11.2212 10.2333 10.2904 10.233Z" fill="#FEFEFD"/>
<path d="M13.0664 5.41443C13.1694 5.26754 13.2694 5.11837 13.3758 4.97377C13.5563 4.72877 13.6558 4.46181 13.6178 4.15264C13.611 4.09759 13.617 4.04112 13.617 3.96582C13.7738 4.12839 13.8742 4.31407 13.9999 4.48006C14.1961 4.82688 14.3951 5.17399 14.4832 5.5673C14.5661 5.93808 14.5715 6.30088 14.2941 6.60862C14.2725 6.63258 14.2488 6.65625 14.222 6.67422C14.035 6.79943 13.9024 6.96486 13.8377 7.18276C13.8129 7.26661 13.7761 7.28858 13.6803 7.24836C13.0411 6.98054 12.7312 6.22672 12.9997 5.57044C13.0208 5.51796 13.0442 5.46634 13.0664 5.41443Z" fill="#FEFEFD"/>
<defs>
<linearGradient id="paint0_linear" x1="3.60723" y1="0.00476094" x2="19.0023" y2="20.0048" gradientUnits="userSpaceOnUse">
<stop stop-color="#ED6D31"/>
<stop offset="1" stop-color="#F3AD41"/>
</linearGradient>
</defs>
</svg>
