<svg width="18" height="18" viewBox="0 0 18 18" fill="none" xmlns="http://www.w3.org/2000/svg">
<path d="M15.119 6.21591C14.4624 5.6096 13.554 4.68373 12.8142 4.02708L12.7704 3.99644C12.6976 3.93795 12.6155 3.89208 12.5275 3.86073C10.7436 3.52803 2.44136 1.97615 2.27939 1.99585C2.234 2.00221 2.19062 2.01866 2.15243 2.04401L2.11085 2.07684C2.05964 2.12885 2.02074 2.19167 1.99703 2.2607L1.98608 2.28915V2.44456V2.46864C2.92071 5.07115 6.61107 13.5966 7.33776 15.5972C7.38154 15.7329 7.46471 15.9912 7.62012 16.0043H7.65514C7.73831 16.0043 8.0929 15.5359 8.0929 15.5359C8.0929 15.5359 14.4317 7.84877 15.0731 7.03015C15.1561 6.92931 15.2294 6.82085 15.2919 6.7062C15.3079 6.6165 15.3004 6.5242 15.2701 6.43827C15.2398 6.35235 15.1877 6.27574 15.119 6.21591ZM9.7192 7.11114L12.4246 4.86759L14.0115 6.32972L9.7192 7.11114ZM8.66856 6.96448L4.01075 3.14717L11.5469 4.53708L8.66856 6.96448ZM9.08882 7.96478L13.8561 7.1965L8.40591 13.763L9.08882 7.96478ZM3.37818 3.52803L8.27895 7.6868L7.56977 13.7673L3.37818 3.52803Z" fill="#EA3427"/>
</svg>
