<svg width="20" height="20" viewBox="0 0 20 20" fill="none" xmlns="http://www.w3.org/2000/svg">
<path d="M7.72126 16.9077C7.6666 16.9077 7.61195 16.8986 7.56033 16.8773C7.38726 16.8106 7.27492 16.6468 7.27492 16.4617V8.55843L0.412771 4.01064C0.248808 3.90142 0.175936 3.69815 0.23059 3.51005C0.288281 3.32195 0.461352 3.19149 0.658715 3.19149H19.4355C19.6116 3.19149 19.7725 3.29464 19.8424 3.45847C19.9152 3.61927 19.8818 3.80737 19.7634 3.93783L16.3688 7.66647C16.2018 7.8485 15.9194 7.86064 15.7372 7.69681C15.555 7.52995 15.5429 7.24779 15.7069 7.06576L18.4213 4.08649H2.14045L7.9672 7.94862C8.09169 8.03054 8.1676 8.1701 8.1676 8.32179V15.3149L10.621 12.6269V6.66832C10.621 6.49842 10.7181 6.3437 10.873 6.26785C11.0248 6.192 11.21 6.21324 11.3436 6.31639L14.6138 8.86486C14.7109 8.9407 14.7747 9.05599 14.7838 9.18038C14.7929 9.30477 14.7534 9.42612 14.6684 9.51714L11.5137 12.9697V16.4617C11.5137 16.7074 11.3133 16.9077 11.0673 16.9077C10.8214 16.9077 10.621 16.7074 10.621 16.4617V13.9466L8.04919 16.7621C7.96417 16.8561 7.84271 16.9077 7.72126 16.9077ZM11.5137 7.58152V11.6469L13.6816 9.2714L11.5137 7.58152Z" fill="#ED1C24"/>
</svg>
