<svg width="21" height="21" viewBox="0 0 21 21" fill="none" xmlns="http://www.w3.org/2000/svg">
<circle cx="10.8462" cy="10.8889" r="10" fill="#080E1C"/>
<path d="M12.5128 9.12982C11.0205 8.66501 9.56697 8.93615 9.02673 9.12982C7.49774 8.36533 6.85559 8.65584 5.60183 8.5641C4.59882 8.49071 3.43068 7.62632 2.97199 7.20331L2.81909 7.29505V7.83019C3.09431 8.27359 3.76705 8.96163 4.28691 9.25214C4.80676 9.54264 5.61711 9.71083 6.16755 9.71083C6.60789 9.71083 7.22764 10.0268 7.48247 10.1848C7.32447 10.4244 7.03906 10.9707 7.16138 11.2398C7.31428 11.5762 9.40898 15.3222 9.76064 15.7656C10.1123 16.209 10.4945 16.2854 10.7698 16.2854C11.045 16.2854 11.5648 16.2549 11.8859 15.7656C12.207 15.2763 14.2253 11.6221 14.3629 11.2398C14.4729 10.934 14.2456 10.3479 14.1182 10.0931C14.368 9.99624 14.95 9.78422 15.2802 9.71083C15.6931 9.61909 16.6257 9.58851 17.3138 9.25214C17.8642 8.98304 18.5828 8.07992 18.8733 7.662V7.38679L18.5828 7.20331C18.0732 7.68239 16.7175 8.62526 15.372 8.5641C14.0265 8.50294 12.9052 8.91576 12.5128 9.12982Z" fill="#286FF6"/>
</svg>
