<svg width="18" height="18" viewBox="0 0 18 18" fill="none" xmlns="http://www.w3.org/2000/svg">
<path fill-rule="evenodd" clip-rule="evenodd" d="M10.1084 9.47292C10.0306 9.47875 9.62905 9.50272 8.73326 9.50272C8.02077 9.50272 7.51491 9.48134 7.33743 9.47292C4.584 9.3518 2.5288 8.87249 2.5288 8.29862C2.5288 7.72474 4.584 7.24608 7.33743 7.12301V8.99556C7.5175 9.00851 8.03308 9.03896 8.74557 9.03896C9.60055 9.03896 10.0287 9.00333 10.1058 8.99621V7.12431C12.8534 7.24673 14.904 7.72604 14.904 8.29862C14.904 8.8712 12.854 9.35051 10.1058 9.47228L10.1084 9.47292ZM10.1084 6.93064V5.255H13.9428V2.69977H3.50296V5.255H7.33679V6.92999C4.22063 7.07314 1.8772 7.69041 1.8772 8.4301C1.8772 9.16979 4.22063 9.78642 7.33679 9.93021V15.2998H10.1077V9.92827C13.2167 9.78512 15.5563 9.1685 15.5563 8.42946C15.5563 7.69041 13.2187 7.07379 10.1077 6.92999L10.1084 6.93064Z" fill="#6AAD97"/>
</svg>
