<svg width="100" height="100" viewBox="0 0 100 100" fill="none" xmlns="http://www.w3.org/2000/svg">
<rect width="100" height="100" fill="url(#paint0_linear_418_123)"/>
<path d="M27.0949 31.0535C27.3207 31.0178 27.5436 31 27.7636 31C29.8261 31 31.642 32.5009 31.9749 34.602C32.2156 36.1207 31.6182 37.577 30.5305 38.5072C30.4057 38.6142 30.2749 38.7153 30.1382 38.8014C29.6253 39.1518 29.0403 39.3824 28.4263 39.4761C27.9122 39.5587 27.3873 39.5456 26.8779 39.4374C26.655 39.3899 26.4381 39.3275 26.227 39.2443C24.857 38.7153 23.793 37.4878 23.5493 35.9335C23.1778 33.6064 24.7678 31.419 27.0949 31.0535ZM89.8125 65.258C89.1468 67.5702 86.4275 69.3415 84.1182 69.3415H84.035C81.708 69.294 80.3052 68.1854 78.3764 63.6858C74.0254 53.0461 73.9957 52.9689 71.2317 46.2225L72.5305 61.4212C72.6196 62.5178 72.5662 63.6204 72.2957 64.6785C72.1263 65.3442 71.6954 66.8242 70.4412 67.9803C69.1187 69.1929 67.6178 69.3534 66.8659 69.3534C66.7173 69.3534 66.5984 69.3474 66.5122 69.3415C63.781 69.3415 61.4212 67.7515 60.7525 65.4809C58.6127 58.2352 58.1729 56.7641 55.9468 49.1855C55.8161 50.621 55.617 52.6925 55.3406 55.186C55.1355 57.1029 54.9691 58.4819 54.7372 60.0541C54.2142 63.4926 53.7922 64.9519 53.3226 65.9683C53.2602 66.102 53.1948 66.2269 53.1205 66.3666C52.6271 67.2879 51.9376 68.0487 51.0847 68.5837C50.9301 68.6817 50.5824 68.8898 50.1247 69.0651C49.9791 69.1127 49.2421 69.3772 48.3089 69.3772C48.1365 69.3772 47.9552 69.3653 47.765 69.3474C45.5865 69.0889 43.4824 67.1749 42.989 64.9757L42.8464 64.3694C42.1301 60.1135 41.4258 55.9141 40.7006 51.6434C40.3469 53.9704 40.0884 55.8428 39.9279 57.0256C39.0422 63.558 38.9144 65.8524 37.2442 67.6178C36.3942 68.5183 35.4491 68.9433 34.8577 69.1483H34.8517C34.3554 69.2999 33.8234 69.3831 33.2914 69.3831C32.9645 69.3831 32.6435 69.3534 32.3255 69.288H32.3196C31.6034 69.1662 30.9228 68.8957 30.3046 68.4707C30.153 68.3608 29.6478 68.0101 29.2139 67.4365C28.5838 66.6311 28.4233 65.79 28.355 65.4155C28.1024 64.0722 27.4574 59.8787 26.6936 54.1636C26.5688 55.2484 26.3162 56.8503 25.7456 58.6959C25.4008 59.8074 22.6666 68.9968 17.7391 69.3296C17.5964 69.3474 17.4003 69.3593 17.1774 69.3593C16.366 69.3593 15.1118 69.1929 14.036 68.2211C13.4461 67.677 13.0436 66.9602 12.8858 66.1734C11.0402 57.091 11.0165 57.0137 10.0565 51.7444C9.66718 49.5778 11.3315 47.5123 13.7596 47.1587C14.0033 47.123 14.2529 47.1141 14.4996 47.1141C16.6513 47.1141 18.5861 48.5079 18.913 50.4813C20.1404 58.0064 20.1404 58.0064 20.6902 61.2726C22.1852 58.7256 22.6904 55.7655 22.9787 54.1814C23.2432 52.7044 23.264 51.9079 23.6949 49.6937C23.7752 49.3193 24.2507 47.0368 25.4454 45.4349L25.4514 45.429C25.4603 45.4111 25.4781 45.3933 25.4959 45.3725C25.5643 45.2596 25.6445 45.1615 25.7307 45.0723C25.9477 44.8138 26.2954 44.4155 26.8631 44.0708C26.8898 44.05 26.9195 44.0321 26.9492 44.0143C27.083 43.9341 27.2227 43.8627 27.3802 43.7944C27.395 43.7884 27.4129 43.7825 27.4366 43.7706C27.4426 43.7706 27.4604 43.7587 27.4723 43.7528C27.8438 43.5893 28.242 43.4645 28.667 43.408C28.9018 43.3783 29.1396 43.3545 29.3744 43.3545C29.627 43.3545 29.8766 43.3783 30.1144 43.408C30.1501 43.4199 30.1828 43.4258 30.2244 43.4318C30.4116 43.4645 30.5959 43.5061 30.7771 43.5655L30.8069 43.5744C31.425 43.7617 31.9897 44.0678 32.4652 44.4631C32.486 44.4809 32.5158 44.5047 32.5336 44.5284C32.6019 44.5879 32.6644 44.6503 32.7268 44.7157C33.2944 45.2596 33.6897 45.958 33.8056 46.7277C35.1192 55.1325 35.1252 55.1681 35.7701 59.3051C37.0985 50.5586 37.0985 50.5586 38.2279 43.4407C38.2546 43.2713 38.323 42.9176 38.5251 42.5075C38.6742 42.1832 38.8661 41.8803 39.0957 41.607C39.9962 40.549 41.3574 39.9843 42.7245 39.9843C43.6874 39.9843 44.6563 40.2577 45.4795 40.8194C45.8035 41.0364 46.0858 41.3217 46.0858 41.3217C46.7545 41.9696 46.9982 42.6502 47.1349 43.0276C47.4381 43.8865 48.3475 46.5435 49.4739 50.2168C50.1723 46.8852 50.8737 43.5596 51.5691 40.2339C51.6939 39.7346 51.9852 38.9263 52.7014 38.1744C53.6733 37.1698 55.2514 36.4655 56.8533 36.4655C57.4834 36.4655 58.1194 36.5665 58.7256 36.8072C59.1774 36.9826 59.5905 37.253 59.9323 37.5532C60.6693 38.1744 61.231 39.0184 61.6322 39.9486C62.7973 42.665 63.5432 44.9832 64.6399 47.5183L65.0144 39.271C65.0411 38.6737 65.1154 38.0793 65.2699 37.5116C65.4631 36.7716 65.689 36.3198 66.0635 35.5858C67.0828 33.5678 69.2346 32.5989 71.2704 32.5989C71.7281 32.5989 72.1857 32.6465 72.6137 32.7475C73.645 32.9883 74.4801 33.4875 75.1399 34.0374C75.9512 34.7239 76.608 35.6214 77.1014 36.6081C83.6397 49.6194 83.6397 49.6195 89.1171 60.5771C89.6966 61.7035 90.3208 63.4689 89.8125 65.258Z" fill="white"/>
<defs>
<linearGradient id="paint0_linear_418_123" x1="0" y1="0" x2="100" y2="100" gradientUnits="userSpaceOnUse">
<stop stop-color="#6FDEBC"/>
<stop offset="1" stop-color="#6C66D7"/>
</linearGradient>
</defs>
</svg>
