<svg xmlns="http://www.w3.org/2000/svg" width="200" height="200" shape-rendering="geometricPrecision" text-rendering="geometricPrecision" image-rendering="optimizeQuality" fill-rule="evenodd" clip-rule="evenodd"><path fill="#070356" d="M147.5-.5h12c7.287 4.852 12.454 11.518 15.5 20 7.065 18.095 9.565 36.762 7.5 56a501.786 501.786 0 0 1 17 39v22c-5.808 19.066-17.475 33.566-35 43.5-20.746 11.181-42.746 17.681-66 19.5h-23c-19.171-1.448-36.505-7.948-52-19.5-12.207-11.275-18.208-25.275-18-42a2207.41 2207.41 0 0 1 4-32.5c-4.386-11.145-7.72-22.478-10-34v-29C.6 25.576 9.6 18.41 26.5 21c11.479 2.245 22.145 6.412 32 12.5 17.865-7.544 36.365-10.211 55.5-8 9.04-11.555 20.206-20.222 33.5-26z" opacity=".922"/><path fill="#0b74f7" d="M156.5 4.5c6.778 6.539 11.278 14.538 13.5 24a103.876 103.876 0 0 1 3.5 33c-.722-.417-1.222-1.084-1.5-2 .1-13.747-2.9-26.747-9-39-3.209-6.515-8.376-9.015-15.5-7.5-7.751 3.08-14.418 7.746-20 14-2.413.484-4.746.15-7-1 7.827-10.252 17.827-17.585 30-22 2.212-.79 4.212-.622 6 .5z"/><path fill="#b03d91" d="M164.5 50.5c.708-3.602.208-7.27-1.5-11a52.93 52.93 0 0 0-9.5-15.5c-7.94-2.299-14.273-.132-19 6.5a28.233 28.233 0 0 0-4-1.5c5.519-6.523 12.352-11.023 20.5-13.5 3.425.42 6.091 2.086 8 5 6.137 10.549 9.137 21.882 9 34a19.565 19.565 0 0 1-3.5-4z"/><path fill="#a0c4f3" d="M156.5 4.5c3.143.633 5.643 2.3 7.5 5 11.042 18.131 15.709 37.798 14 59a1916.073 1916.073 0 0 0-4.5-7 103.876 103.876 0 0 0-3.5-33c-2.222-9.462-6.722-17.462-13.5-24z"/><path fill="#fa589d" d="M164.5 50.5c-8.657-8.663-18.657-15.33-30-20 4.727-6.632 11.06-8.799 19-6.5a52.93 52.93 0 0 1 9.5 15.5c1.708 3.73 2.208 7.398 1.5 11z"/><path fill="#0072f7" d="M14.5 25.5c13.852-.371 26.518 3.296 38 11a21.628 21.628 0 0 1-5 4c-9.197-6.24-19.197-8.407-30-6.5-4.742 3.65-7.242 8.482-7.5 14.5-1.223 12.333.277 24.333 4.5 36a59.258 59.258 0 0 1-3.5 10c-7.81-20.28-9.144-40.948-4-62 1.742-3.246 4.242-5.579 7.5-7z"/><path fill="#a4c8f7" d="M162.5 56.5c-12.099-11.134-26.266-18.468-42.5-22-9.284 5.557-18.284 5.224-27-1-37.019 4.215-62.186 23.548-75.5 58 9.022-31.853 29.688-51.686 62-59.5 31.726-7.363 59.226.137 82.5 22.5.464.594.631 1.261.5 2z"/><path fill="#0378fe" d="M162.5 56.5c1.257 2.927 3.257 5.26 6 7a111.875 111.875 0 0 1 8.5 12 36088.01 36088.01 0 0 1 9.5 21c-7.769 4.486-12.936 11.152-15.5 20-7.632 7.537-16.799 10.37-27.5 8.5a83.314 83.314 0 0 0-25-7.5c-10.418-4.261-20.751-3.761-31 1.5a19.565 19.565 0 0 1-4 3.5c-.667 0-1 .333-1 1-7.652 3.807-14.652 8.64-21 14.5-9.195 5.474-18.528 5.808-28 1l-11-11a25.644 25.644 0 0 0-10-3.5l2.5-26c.39-2.604 1.224-4.938 2.5-7 13.314-34.452 38.481-53.785 75.5-58 8.716 6.224 17.716 6.557 27 1 16.234 3.532 30.401 10.866 42.5 22z"/><path fill="#b23e92" d="M41.5 44.5c-5.737-2.965-11.737-3.465-18-1.5-2.967 2.1-4.8 4.934-5.5 8.5-.822 7.845-.656 15.511.5 23-1.31 3.833-2.477 3.833-3.5 0a121.59 121.59 0 0 1-1-29c2.21-8.603 7.71-11.436 16.5-8.5a44.845 44.845 0 0 1 13 5.5c-.355 1.022-1.022 1.689-2 2z"/><path fill="#fa589d" d="M41.5 44.5c-9.903 8.243-17.57 18.243-23 30-1.156-7.489-1.322-15.155-.5-23 .7-3.566 2.533-6.4 5.5-8.5 6.263-1.965 12.263-1.465 18 1.5z"/><path fill="#7aa9ef" d="M162.5 56.5c2.743 1.74 4.743 4.073 6 7-2.743-1.74-4.743-4.073-6-7z"/><path fill="#f5f9ff" d="M122.5 77.5c5.493-1.322 7.993.678 7.5 6-2.266 6.55-6.766 9.05-13.5 7.5-1.091-2.064-1.258-4.23-.5-6.5a65.7 65.7 0 0 1 6.5-7zM61.5 87.5c6.765-1.031 11.932 1.302 15.5 7 .711 1.867.211 3.367-1.5 4.5-6.103 1.574-10.936-.26-14.5-5.5-.678-2.098-.51-4.098.5-6z"/><path fill="#02055a" d="M141.5 90.5c4.135-.61 7.801.223 11 2.5-10.367 2.195-18.367 7.862-24 17-5.58 1.261-7.413-.906-5.5-6.5 4.689-6.536 10.856-10.87 18.5-13z"/><path fill="#fdfdfe" d="M186.5 96.5a60.75 60.75 0 0 1 6 14c.476 18.881-6.524 34.381-21 46.5-31.214 21.804-65.881 30.47-104 26-20.216-2.187-36.716-11.021-49.5-26.5l-7.5-15c-.166-4.679 0-9.345.5-14 .232-1.237.732-2.237 1.5-3a25.644 25.644 0 0 1 10 3.5l11 11c9.472 4.808 18.805 4.474 28-1 6.348-5.86 13.348-10.693 21-14.5-.61 6.113 1.89 10.446 7.5 13 .09 2.268-1.077 3.768-3.5 4.5-6.388 2.403-12.388 1.903-18-1.5-.333-1-1-1.667-2-2-1.242 3.24-1.076 6.574.5 10a218.302 218.302 0 0 1 15 20c2.279 2.881 5.112 4.881 8.5 6 13.557 9.139 25.557 7.473 36-5 2.296-1.901 4.129-4.234 5.5-7a336.416 336.416 0 0 1 9-24 16.242 16.242 0 0 0 0-8c-.278-.916-.778-1.582-1.5-2v-1c-.06-.543-.393-.876-1-1-1.064 3.896-3.397 6.729-7 8.5-4.576 1.476-9.243 1.81-14 1a3.943 3.943 0 0 1-1-2 24.037 24.037 0 0 0 4-9.5c-.02-1.226-.353-2.226-1-3a5.727 5.727 0 0 0-1-3 83.314 83.314 0 0 1 25 7.5c10.701 1.87 19.868-.963 27.5-8.5 2.564-8.848 7.731-15.514 15.5-20z"/><path fill="#020459" d="M48.5 105.5c10.333-1.8 19.5.533 27.5 7 1.205 3.368.205 5.702-3 7-8.736-6.412-18.57-9.746-29.5-10a23.722 23.722 0 0 1 5-4z"/><path fill="#080355" d="M118.5 117.5c.61.891.943 1.891 1 3-1.139 7.314-5.139 12.481-12 15.5 7.724 6.596 16.058 7.263 25 2 3-3.514 5.333-7.347 7-11.5v1c.97 6.054-.863 11.054-5.5 15-.8 9.224-3.3 17.891-7.5 26-10.443 12.473-22.443 14.139-36 5-6.065-6.448-10.899-13.781-14.5-22-6.578-2.402-9.744-7.069-9.5-14 1 .333 1.667 1 2 2 2.682 5.596 7.182 8.262 13.5 8 7.892.141 13.726-3.193 17.5-10-6.61-1.214-11.776-4.548-15.5-10a12.935 12.935 0 0 1-.5-5 19.565 19.565 0 0 0 4-3.5c10.249-5.261 20.582-5.761 31-1.5z"/><path fill="#b1afd4" d="M192.5 110.5c5.496 18.183 1.996 34.517-10.5 49-17.213 16.691-37.713 27.191-61.5 31.5-20.291 4.148-40.624 4.482-61 1-19.61-4.03-34.443-14.53-44.5-31.5a78.838 78.838 0 0 1-4.5-19l7.5 15c12.784 15.479 29.284 24.313 49.5 26.5 38.119 4.47 72.786-4.196 104-26 14.476-12.119 21.476-27.619 21-46.5z"/><path fill="#e0e0ea" d="M98.5 118.5c11.655.565 11.489 1.898-.5 4l-3.5-1c1.124-1.359 2.458-2.359 4-3z"/><path fill="#adabd1" d="M119.5 120.5c.647.774.98 1.774 1 3a24.037 24.037 0 0 1-4 9.5 3.943 3.943 0 0 0 1 2c4.757.81 9.424.476 14-1 3.603-1.771 5.936-4.604 7-8.5.607.124.94.457 1 1-1.667 4.153-4 7.986-7 11.5-8.942 5.263-17.276 4.596-25-2 6.861-3.019 10.861-8.186 12-15.5z"/><path fill="#aba8ce" d="M139.5 127.5c.722.418 1.222 1.084 1.5 2a16.242 16.242 0 0 1 0 8 336.416 336.416 0 0 0-9 24c-1.371 2.766-3.204 5.099-5.5 7 4.2-8.109 6.7-16.776 7.5-26 4.637-3.946 6.47-8.946 5.5-15z"/><path fill="#b0aed2" d="M83.5 122.5c-.16 1.699.007 3.366.5 5 3.724 5.452 8.89 8.786 15.5 10-3.774 6.807-9.608 10.141-17.5 10-6.318.262-10.818-2.404-13.5-8 5.612 3.403 11.612 3.903 18 1.5 2.423-.732 3.59-2.232 3.5-4.5-5.61-2.554-8.11-6.887-7.5-13 0-.667.333-1 1-1z"/><path fill="#afadd2" d="M66.5 137.5c-.244 6.931 2.922 11.598 9.5 14 3.601 8.219 8.435 15.552 14.5 22-3.388-1.119-6.221-3.119-8.5-6a218.302 218.302 0 0 0-15-20c-1.576-3.426-1.742-6.76-.5-10z"/><path fill="#f82791" d="M123.5 156.5c-2.912 5.644-7.579 9.144-14 10.5-7.087 1.467-13.42-.033-19-4.5a11.115 11.115 0 0 1 3-4.5c9.815-6.518 19.815-7.018 30-1.5z"/><path fill="#b21c8a" d="M123.5 156.5c1.195.366 1.861 1.199 2 2.5-5.839 14.591-15.839 18.591-30 12l-5.5-5.5c-.74-1.249-.573-2.249.5-3 5.58 4.467 11.913 5.967 19 4.5 6.421-1.356 11.088-4.856 14-10.5z"/></svg>
