<svg fill="none" height="28" viewBox="0 0 40 28" width="40" xmlns="http://www.w3.org/2000/svg"><g fill="#0742a6"><path clip-rule="evenodd" d="m18.196 18.105h-2.146l1.342-8.115h2.145zm7.777-7.917a5.39 5.39 0 0 0 -1.924-.345c-2.119 0-3.61 1.105-3.62 2.685-.017 1.165 1.068 1.813 1.88 2.201.83.397 1.112.657 1.112 1.01-.008.544-.67.795-1.288.795-.856 0-1.315-.13-2.013-.432l-.282-.13-.3 1.822c.503.224 1.43.423 2.392.432 2.251 0 3.717-1.088 3.734-2.771.008-.924-.565-1.632-1.8-2.21-.751-.372-1.21-.622-1.21-1.002.008-.345.388-.7 1.235-.7a3.715 3.715 0 0 1 1.598.312l.194.086z" fill-rule="evenodd"/><path d="m28.824 15.23c.177-.466.856-2.27.856-2.27-.008.017.177-.475.283-.777l.15.699s.406 1.943.494 2.348zm2.648-5.24h-1.66c-.511 0-.9.147-1.12.673l-3.187 7.442h2.25l.451-1.217h2.754c.062.285.256 1.217.256 1.217h1.987z"/><g clip-rule="evenodd" fill-rule="evenodd"><path d="m14.259 9.99-2.101 5.534-.23-1.122c-.388-1.296-1.606-2.702-2.966-3.402l1.925 7.097h2.268l3.372-8.107h-2.267z"/><path d="m10.207 9.99h-3.451l-.036.164c2.693.673 4.476 2.297 5.208 4.248l-.75-3.73c-.123-.518-.503-.665-.97-.682z"/></g></g></svg>