<svg width="80" height="80" viewBox="0 0 80 80" fill="none" xmlns="http://www.w3.org/2000/svg">
<path d="M40.2784 5C20.8244 5 5 20.7002 5 40C5 59.2998 20.8244 75 40.2784 75C59.7302 75 75.5567 59.2976 75.5567 40C75.5567 20.7024 59.7302 5 40.2784 5ZM43.3983 71.3426C21.6488 73.5011 3.75161 53.6467 9.66809 31.576C11.0849 26.3668 13.8493 21.623 17.6831 17.8223C21.5311 14.0084 26.3094 11.2668 31.5439 9.86938C53.788 4 73.8009 21.7516 71.6295 43.3298C70.152 58.0043 58.1906 69.8758 43.3983 71.3426ZM48.1349 25.3854H61.0257L46.5353 57.3426V57.2869L33.6831 57.2762L25.743 39.773H38.5589L40.0899 43.1456L48.1349 25.3854ZM39.7388 32.2655H20.4882L19.0792 29.1392H21.0728L19.3704 25.3854H31.9893L33.6916 29.137H41.1627L39.7388 32.2655ZM37.6574 37.8972H22.5803L21.167 34.7687H39.0685L37.6552 37.8951L37.6574 37.8972Z" fill="#ED0A4B"/>
</svg>
