<svg width="21" height="20" viewBox="0 0 21 20" fill="none" xmlns="http://www.w3.org/2000/svg">
<path d="M10.4927 20C16.0155 20 20.4927 15.5228 20.4927 10C20.4927 4.47715 16.0155 0 10.4927 0C4.96983 0 0.492676 4.47715 0.492676 10C0.492676 15.5228 4.96983 20 10.4927 20Z" fill="white"/>
<path fill-rule="evenodd" clip-rule="evenodd" d="M16.828 3.87103C17.4515 4.32828 17.5863 5.2044 17.1291 5.82791L9.79575 15.8279C9.54581 16.1687 9.15527 16.3784 8.7331 16.3984C8.31093 16.4185 7.9023 16.2467 7.62123 15.931L3.95456 11.8134C3.44037 11.2359 3.49164 10.351 4.06908 9.83681C4.64652 9.32261 5.53146 9.37388 6.04566 9.95132L8.56132 12.7764L14.8711 4.17209C15.3284 3.54858 16.2045 3.41379 16.828 3.87103Z" fill="url(#paint0_linear)"/>
<defs>
<linearGradient id="paint0_linear" x1="10.5001" y1="5" x2="10.5001" y2="15" gradientUnits="userSpaceOnUse">
<stop stop-color="#8091ED"/>
<stop offset="1" stop-color="#A87BE2"/>
</linearGradient>
</defs>
</svg>
