<svg width="20" height="20" viewBox="0 0 20 20" fill="none" xmlns="http://www.w3.org/2000/svg">
<path fill-rule="evenodd" clip-rule="evenodd" d="M9.99988 2.55998C5.89755 2.55998 2.55982 5.89768 2.55982 10.0002C2.55982 14.1026 5.89755 17.4401 9.99988 17.4401C14.1025 17.4401 17.4402 14.1026 17.4402 10.0002C17.4402 5.89768 14.1025 2.55998 9.99988 2.55998ZM9.99988 20C4.48608 20 0 15.5141 0 10.0002C0 4.48604 4.48608 0 9.99988 0C15.514 0 20 4.48604 20 10.0002C20 15.5141 15.514 20 9.99988 20Z" fill="#FF5847"/>
<path fill-rule="evenodd" clip-rule="evenodd" d="M7.78342 9.99937L10.0002 12.216L12.2171 9.99937L10.0002 7.78268L7.78342 9.99937ZM10.0002 15.3062C9.66081 15.3062 9.3352 15.1715 9.09507 14.9314L5.06814 10.9045C4.56827 10.4044 4.56827 9.59404 5.06814 9.09419L9.09507 5.06728C9.59497 4.56742 10.4055 4.56742 10.9054 5.06728L14.9323 9.09419C15.4321 9.59404 15.4321 10.4044 14.9323 10.9045L10.9054 14.9314C10.6653 15.1715 10.3397 15.3062 10.0002 15.3062Z" fill="#FF5847"/>
</svg>
