<svg width="20" height="20" fill="none" xmlns="http://www.w3.org/2000/svg"><path d="M8.717 6.48A30.36 30.36 0 0 0 6.058 1.2a1.388 1.388 0 0 0-.554-.54 1.465 1.465 0 0 0-.77-.172H1.291a1.27 1.27 0 0 0-.47.087 1.23 1.23 0 0 0-.399.252 1.175 1.175 0 0 0-.268.38 1.136 1.136 0 0 0-.097.45c.021.316.021.634 0 .951-.018.217.032.435.146.623a1.1 1.1 0 0 0 .488.433 16.79 16.79 0 0 1 4.8 4.152 19.807 19.807 0 0 1 2.575 3.856c.041.08.05.192.183.184.133-.008.133-.088.15-.176.146-.525.252-1.06.317-1.6.108-1.072.05-2.152.05-3.2a.84.84 0 0 0-.05-.4ZM13.267 4.512c.23-.909.378-1.835.441-2.768a1.014 1.014 0 0 0-.153-.702A1.086 1.086 0 0 0 12.967.6a4.562 4.562 0 0 0-1.709-.048c-.833.104-1.108.424-1.125 1.264 0 .528-.041 1.056-.05 1.6-.05 1.6-.066 3.2-.091 4.848.004.422-.021.845-.075 1.264-.09.421-.105.854-.042 1.28a13.828 13.828 0 0 0 1.792-2.344 13.788 13.788 0 0 0 1.6-3.952Z" fill="#02AE98"/><path d="M19.3 11.336a1.097 1.097 0 0 0-.727-.104c-.248.05-.469.183-.623.376a42.836 42.836 0 0 1-4.692 4.152c-.075.056-.233.096-.183.232.05.136.192.08.292.08h5.308c.172.026.349.013.515-.04.166-.051.317-.14.44-.259a1.025 1.025 0 0 0 .311-.917V12.36a.992.992 0 0 0-.148-.611 1.054 1.054 0 0 0-.493-.413Z" fill="#E5A457"/><path d="M.183 15.536c.114.182.28.328.478.42.198.092.42.127.64.1H7.674c.175 0 .517 0 .5-.088a.848.848 0 0 0-.317-.552.497.497 0 0 0-.158-.088L4.883 14.08c-1.091-.48-2.125-1.096-3.216-1.64a1.11 1.11 0 0 0-1.057.013c-.16.09-.294.217-.387.37a1 1 0 0 0-.148.505v1.72a.897.897 0 0 0 .108.488Z" fill="#02AE98"/><path d="M8.717.056a1.335 1.335 0 0 0-.683.005c-.223.06-.425.177-.584.34a1.127 1.127 0 0 0-.133 1.2c.566.967 1.216 1.88 1.716 2.927.042-.064.067-.088.067-.104.055-1.11.18-2.216.375-3.312a.978.978 0 0 0-.182-.658 1.05 1.05 0 0 0-.576-.398ZM.55 10.344c.72.366 1.463.686 2.225.96.067 0 .15.048.208 0 .059-.048 0-.152 0-.224a9.72 9.72 0 0 1-.341-.856v-.056c0-.096-.117-.368-.2-.696-.042-.136-.075-.288-.109-.432-.033-.144 0-.192-.058-.288-.092-.456-.117-.856.05-.896 0 .072.05.192.092.344a.223.223 0 0 0 0 .072c.133.63.384 1.232.741 1.776.15.312.292.632.467.936.114.265.288.502.51.693.223.191.487.332.773.411.584.152 1.134.424 1.667.576.242.064.592.272.733.096.142-.176-.1-.472-.2-.704a21.949 21.949 0 0 0-2.383-3.96 26.318 26.318 0 0 0-2.708-3.2 1.122 1.122 0 0 0-.532-.334A1.161 1.161 0 0 0 .85 4.56a1.092 1.092 0 0 0-.577.392 1.019 1.019 0 0 0-.206.648 27.65 27.65 0 0 0 .016 4 .775.775 0 0 0 .12.438.822.822 0 0 0 .347.306Z" fill="#E5A457"/><path d="m12.625 17.936-.125-.272c.053.086.095.177.125.272Z" fill="url(#a)"/><path d="M2.175 16.88h.567V19l-.575.56-.35-.36v.224l-.567.104V19.2l-.35.328-.575-.56v-2.096h.567v2.024l.367-.384v-1.264l-.167-.376h.733v1.64l.367.384V16.88h-.017ZM5.433 16.976h.925v2.632h-.525v-.8h-.475v.8H4.75v-.8l-.208-.408h.208v-.8c0-.107.033-.212.092-.304a.5.5 0 0 1 .233-.216.91.91 0 0 1 .358-.104ZM5.317 18.4h.516v-.976H5.65a.572.572 0 0 0-.242 0c-.058 0-.083.112-.083.24v.736h-.008ZM8.925 16.904h.558v2.632h-.558v-1.328l-.408-.52v1.848h-.55v-2.64h.541l.409.512v-.52l.008.016ZM11.933 16.976h.925v2.632h-.566v-.8h-.475v.8h-.567v-.8l-.208-.408h.208v-.8a.558.558 0 0 1 .083-.304.598.598 0 0 1 .234-.216c.114-.057.238-.092.366-.104Zm-.108 1.424h.475v-.976h-.142a.573.573 0 0 0-.241 0c-.059 0-.084.112-.084.24v.736h-.008ZM15.784 19.616l-.284-.704-.242.16v.544H14.7v-2.632h.559v1.488c.116-.08.25-.184.408-.312v-1.184h.55V18.4l-.242.2.4 1.048-.591-.032ZM18.992 16.976h.933v2.632h-.567v-.8h-.475v.8h-.55v-.8l-.225-.408h.225v-.8a.558.558 0 0 1 .084-.304.598.598 0 0 1 .233-.216.935.935 0 0 1 .342-.104Zm-.117 1.424h.475v-.976h-.142a.573.573 0 0 0-.241 0c-.059 0-.084.112-.084.24v.736h-.008Z" fill="#02AE98"/><path d="m19.642 14.264-.142-.272c.054.088.101.179.142.272Z" fill="url(#b)"/><path d="M19.908 1.704v-.416a1.01 1.01 0 0 0-.343-.555 1.082 1.082 0 0 0-.623-.245h-3.734a1.075 1.075 0 0 0-.63.24 1 1 0 0 0-.345.56c-.075.872-.141 1.744-.141 2.616v.184a23.747 23.747 0 0 1-.875 3.36l.266-.144.067-.104s3.333-1.776 4.367-4.872c.141 0 .091.168.091.272a3.484 3.484 0 0 1-.266 1.304 7.94 7.94 0 0 1-2.067 2.968c-.925.88-1.883 1.728-2.783 2.632a6.852 6.852 0 0 0-2.15 4.8c0 .392.083.488.408.36a16.19 16.19 0 0 0 4.683-3.048.645.645 0 0 0 .267-.408c.042-.44.117-.88.15-1.328a6.471 6.471 0 0 1 .9-2.888c.19-.4.53-.716.95-.888a8.69 8.69 0 0 0-.933 4.2c0 .088-.042.208.058.256.1.048.175-.056.25-.112a13.968 13.968 0 0 0 2.075-1.912c.264-.264.407-.618.4-.984-.05-1.952-.042-3.896-.042-5.848Z" fill="#02AE98"/><defs><linearGradient id="a" x1="11.475" y1="16.952" x2="12.749" y2="18.027" gradientUnits="userSpaceOnUse"><stop stop-color="#00A48B"/><stop offset="1" stop-color="#9CCB82"/></linearGradient><linearGradient id="b" x1="22.642" y1="16.753" x2="22.957" y2="16.62" gradientUnits="userSpaceOnUse"><stop stop-color="#00A48B"/><stop offset="1" stop-color="#9CCB82"/></linearGradient></defs></svg>
