<svg width="18" height="18" viewBox="0 0 18 18" fill="none" xmlns="http://www.w3.org/2000/svg">
<path d="M2.26788 15.2666L15.4518 15.2666C15.8887 15.2661 16.3076 15.0917 16.6165 14.7818C16.9255 14.4718 17.0993 14.0515 17.0998 13.6131L17.0998 4.3535C17.0993 3.91512 16.9255 3.49483 16.6165 3.18484C16.3076 2.87486 15.8887 2.70049 15.4518 2.7L8.53024 2.7L9.11337 3.3614L11.4206 3.3614C11.508 3.3614 11.5918 3.32656 11.6536 3.26454C11.7154 3.20252 11.7502 3.11841 11.7502 3.0307C11.7502 2.94299 11.7154 2.85888 11.6536 2.79686C11.5918 2.73484 11.508 2.7 11.4206 2.7L6.14699 2.7C6.05958 2.7 5.97574 2.73484 5.91393 2.79686C5.85212 2.85888 5.81739 2.94299 5.81739 3.0307C5.81739 3.11841 5.85212 3.20252 5.91393 3.26454C5.97574 3.32656 6.05958 3.3614 6.14699 3.3614L8.45417 3.3614L8.53024 2.7L2.26788 2.7C1.83096 2.7005 1.41207 2.87486 1.10312 3.18485C0.794169 3.49483 0.620383 3.91512 0.619891 4.3535L0.619892 13.6131C0.620384 14.0515 0.79417 14.4718 1.10312 14.7818C1.41207 15.0917 1.83096 15.2661 2.26788 15.2666ZM15.4518 14.6052L2.26788 14.6052C2.00573 14.6049 1.75439 14.5003 1.56902 14.3143C1.38365 14.1283 1.27938 13.8761 1.27909 13.6131L1.27909 5.57986L16.4406 5.57985L16.4406 13.6131C16.4403 13.8761 16.336 14.1283 16.1506 14.3143C15.9653 14.5003 15.7139 14.6049 15.4518 14.6052ZM2.26788 3.3614L15.4518 3.3614C15.7139 3.36169 15.9653 3.46631 16.1506 3.6523C16.336 3.8383 16.4403 4.09047 16.4406 4.3535L16.4406 4.91845L1.27909 4.91846L1.27909 4.3535C1.27938 4.09047 1.38365 3.8383 1.56902 3.65231C1.75439 3.46631 2.00573 3.36169 2.26788 3.3614Z" fill="#363636"/>
</svg>
