<svg width="40" height="40" viewBox="0 0 40 40" fill="none" xmlns="http://www.w3.org/2000/svg">
<path d="M24.5708 16.4761L27.4591 23.3942L28.5194 19.8702H34.2594L30.9872 30.5534C30.7313 31.388 29.9635 31.963 29.0861 31.963H25.8322C25.0278 31.963 24.2966 31.4622 23.9859 30.7018L20.3846 21.8362L16.8565 30.6832C16.564 31.4622 15.8328 31.963 15.0102 31.963H11.7197C10.8423 31.963 10.0745 31.388 9.81858 30.5348L3 8H8.74004L13.3101 23.3942L16.2898 16.439C16.9662 14.7141 18.5932 13.5827 20.4212 13.5827C22.2675 13.5827 23.9127 14.7326 24.5708 16.4761Z" fill="black"/>
<path d="M37.9337 8H32.1023L29.415 16.9212H35.1734L37.9337 8Z" fill="black"/>
</svg>
