<svg width="20" height="20" viewBox="0 0 20 20" fill="none" xmlns="http://www.w3.org/2000/svg">
<circle cx="10" cy="10" r="10" fill="url(#paint0_linear)"/>
<path fill-rule="evenodd" clip-rule="evenodd" d="M7.38193 2.70258C7.05816 2.81866 6.74437 2.95568 6.44217 3.11201L3.11011 6.44407C2.95379 6.74626 2.81677 7.06006 2.70068 7.38383L7.38193 2.70258ZM2.24976 9.83476C2.25371 9.64558 2.26445 9.45807 2.28172 9.27245L9.27056 2.28362C9.45617 2.26634 9.64368 2.2556 9.83286 2.25165L2.24976 9.83476ZM2.41489 11.6071C2.38362 11.4588 2.35659 11.309 2.33394 11.1577L11.1558 2.33583C11.3071 2.35849 11.4569 2.38552 11.6052 2.41679L2.41489 11.6071ZM2.9018 13.1202C2.84729 12.9964 2.79593 12.8709 2.74781 12.7439L12.742 2.7497C12.8691 2.79782 12.9945 2.84918 13.1183 2.90369L2.9018 13.1202ZM3.53905 14.2844C3.49477 14.2178 3.4515 14.1505 3.40925 14.0824L14.0805 3.41114C14.1891 3.47856 14.2959 3.5486 14.4009 3.62116L3.63831 14.3837L3.53905 14.2844ZM4.53 15.492C4.44139 15.4038 4.35491 15.3134 4.27063 15.221L15.2192 4.27252C15.3116 4.3568 15.4019 4.44328 15.4901 4.53189L4.53 15.492ZM5.58671 16.3728C5.48266 16.3006 5.38047 16.226 5.28021 16.149L16.1471 5.2821C16.2241 5.38236 16.2987 5.48455 16.3709 5.5886L5.58671 16.3728ZM6.86776 17.0918C6.74609 17.038 6.62607 16.9812 6.50779 16.9214L16.9195 6.50968C16.9793 6.62796 17.0361 6.74798 17.0899 6.86965L6.86776 17.0918ZM8.22568 17.5463C8.08429 17.5133 7.94438 17.4763 7.80608 17.4356L17.4337 7.80797C17.4744 7.94627 17.5114 8.08618 17.5444 8.22757L8.22568 17.5463ZM10.0221 17.7499C10.0141 17.7499 10.0061 17.7499 9.99803 17.7499C9.83312 17.7499 9.66941 17.7448 9.50706 17.7346L17.7327 9.50895C17.7429 9.6713 17.748 9.83501 17.748 9.99992C17.748 10.008 17.748 10.016 17.748 10.024L10.0221 17.7499ZM12.5918 17.3053C12.3453 17.3927 12.0932 17.4681 11.836 17.5307L17.5288 11.8379C17.4662 12.0951 17.3909 12.3472 17.3034 12.5937L12.5918 17.3053Z" fill="url(#paint1_linear)"/>
<path fill-rule="evenodd" clip-rule="evenodd" d="M8.61634 2.53087C8.37392 2.58074 8.13571 2.64216 7.90233 2.71454L4.6853 5.93157C4.87579 5.90989 5.06813 5.89432 5.26213 5.88508L8.61634 2.53087ZM16.8206 13.6088C16.2105 14.7236 15.3289 15.6687 14.2647 16.355C14.2803 16.2774 14.2949 16.1994 14.3084 16.121L16.8206 13.6088ZM17.724 10.5804C17.7078 10.7836 17.6836 10.9846 17.6517 11.183L14.4329 14.4018C14.4287 14.2327 14.4197 14.0649 14.406 13.8984L17.724 10.5804ZM17.6371 8.66724C17.6636 8.82064 17.6855 8.97563 17.7027 9.13204L14.2068 12.6279C14.1737 12.4862 14.1372 12.3459 14.0974 12.207L17.6371 8.66724ZM17.2456 7.24625C17.2952 7.37526 17.3413 7.50597 17.3839 7.63826L13.7644 11.2578C13.7127 11.134 13.6583 11.0116 13.6012 10.8907L17.2456 7.24625ZM16.5769 5.915C16.6457 6.02382 16.7119 6.13452 16.7752 6.24699L13.0791 9.94309C13.0107 9.83534 12.94 9.72919 12.8672 9.6247L16.5769 5.915ZM15.7353 4.81903C15.8203 4.91105 15.903 5.00518 15.9834 5.10133L12.2479 8.83683C12.1651 8.74302 12.0802 8.65099 11.9935 8.56082L15.7353 4.81903ZM14.6824 3.87199C14.7835 3.9472 14.8826 4.02487 14.9798 4.1049L11.2296 7.85505C11.1323 7.77526 11.0332 7.69752 10.9325 7.6219L14.6824 3.87199ZM13.4358 3.11858C13.5544 3.17551 13.6713 3.23543 13.7865 3.29824L10.047 7.03768C9.9343 6.97273 9.81996 6.91023 9.70413 6.85024L13.4358 3.11858ZM11.9628 2.59162C12.103 2.62588 12.2417 2.66403 12.3787 2.70595L8.68291 6.40179C8.55217 6.35413 8.41998 6.30949 8.28641 6.26797L11.9628 2.59162ZM10.2414 2.37549C10.4121 2.3774 10.5814 2.38495 10.7493 2.39795L7.15019 5.99701C6.99658 5.97113 6.84161 5.94925 6.68539 5.93148L10.2414 2.37549Z" fill="url(#paint2_linear)"/>
<defs>
<linearGradient id="paint0_linear" x1="1.90625" y1="15.4375" x2="18.9062" y2="3.5625" gradientUnits="userSpaceOnUse">
<stop stop-color="#6DC1FF"/>
<stop offset="1" stop-color="#6671FE"/>
</linearGradient>
<linearGradient id="paint1_linear" x1="5.90601" y1="17.7499" x2="13.2498" y2="7.28117" gradientUnits="userSpaceOnUse">
<stop stop-color="white"/>
<stop offset="1" stop-color="white" stop-opacity="0"/>
</linearGradient>
<linearGradient id="paint2_linear" x1="10.5" y1="8.3125" x2="15.6875" y2="3.46875" gradientUnits="userSpaceOnUse">
<stop stop-color="white"/>
<stop offset="1" stop-color="white" stop-opacity="0"/>
</linearGradient>
</defs>
</svg>
