<svg version="1.2" xmlns="http://www.w3.org/2000/svg" viewBox="0 0 109 109" width="109" height="109">
	<title>ecash logo-svg</title>
	<defs>
		<linearGradient id="g1" x1="25.1" y1="-14.8" x2="67.8" y2="111.8" gradientUnits="userSpaceOnUse">
			<stop offset="0" stop-color="#273498"/>
			<stop offset=".53" stop-color="#0074c2"/>
			<stop offset="1" stop-color="#00abe7"/>
		</linearGradient>
	</defs>
	<style>
		.s0 { fill: #ffffff } 
		.s1 { fill: url(#g1) } 
	</style>
	<path id="Layer" fill-rule="evenodd" class="s0" d="m160.6 63.4h-29.4q0.1 0.9 0.5 1.7 0.3 0.8 0.8 1.5 0.5 0.7 1.1 1.4 0.6 0.6 1.3 1.1 0.8 0.6 1.7 1 0.9 0.4 1.9 0.6 0.9 0.3 1.9 0.4 0.9 0.1 1.9 0.1 0.7 0 1.4 0 0.7-0.1 1.4-0.2 0.6-0.1 1.3-0.3 0.7-0.2 1.3-0.4 0.6-0.2 1.2-0.5 0.6-0.3 1.1-0.7 0.6-0.4 1.1-0.8 0.5-0.4 1-0.9l6 6.6q-5.5 6.3-16.1 6.3-1.5 0-3-0.2-1.5-0.1-3-0.4-1.4-0.4-2.9-0.9-1.4-0.4-2.7-1.1-1.2-0.6-2.4-1.4-1.1-0.7-2.1-1.6-1-0.9-1.8-2-0.9-1-1.6-2.1-0.7-1.2-1.2-2.5-0.5-1.2-0.9-2.5-0.3-1.3-0.5-2.7-0.1-1.3-0.1-2.7 0-1.4 0.1-2.7 0.2-1.3 0.6-2.6 0.3-1.3 0.8-2.6 0.5-1.2 1.2-2.4 0.7-1.1 1.5-2.2 0.8-1 1.8-1.9 0.9-0.9 2-1.7 1-0.8 2.2-1.4 2.4-1.2 5.1-1.9 2.6-0.6 5.4-0.7 2.7 0 5.4 0.7 2.7 0.6 5.1 1.8 1.1 0.6 2.2 1.4 1 0.7 1.9 1.6 1 0.9 1.8 1.9 0.7 1.1 1.4 2.2 0.6 1.2 1.2 2.5 0.5 1.3 0.8 2.6 0.3 1.4 0.5 2.8 0.1 1.4 0.1 2.8c-0.1 0.1-0.1 1.1-0.3 3zm-26.4-12.5q-0.7 0.5-1.2 1.2-0.6 0.7-1 1.4-0.4 0.8-0.6 1.6-0.3 0.8-0.4 1.7h19.2q-0.1-0.9-0.4-1.7-0.2-0.8-0.7-1.5-0.4-0.8-0.9-1.5-0.5-0.6-1.2-1.2-0.7-0.6-1.4-1-0.8-0.4-1.6-0.7-0.8-0.3-1.7-0.4-0.8-0.1-1.7-0.1-0.8 0-1.7 0.1-0.9 0.1-1.7 0.4-0.8 0.3-1.6 0.7-0.7 0.4-1.4 1z"/>
	<path id="Layer" class="s0" d="m183 77.2q-1.5-0.8-2.9-1.8-1.4-1-2.7-2.2-1.2-1.2-2.3-2.5-1.1-1.4-1.9-2.9-0.9-1.5-1.6-3.1-0.7-1.6-1.2-3.4-0.4-1.7-0.6-3.4-0.3-1.8-0.2-3.6-0.1-1.7 0.2-3.5 0.2-1.7 0.6-3.5 0.5-1.7 1.2-3.3 0.7-1.6 1.6-3.2 0.8-1.4 1.9-2.8 1.1-1.3 2.3-2.5 1.3-1.2 2.7-2.2 1.4-1 2.9-1.8 1.6-0.9 3.3-1.5 1.7-0.6 3.5-1.1 1.8-0.4 3.6-0.6 1.8-0.2 3.7-0.2 1.5 0 3 0.2 1.6 0.1 3.1 0.4 1.5 0.3 2.9 0.7 1.5 0.5 2.9 1 1.3 0.6 2.5 1.3 1.3 0.7 2.4 1.5 1.1 0.9 2.2 1.9 1 0.9 1.9 2l-7.5 7q-1.2-1.4-2.6-2.5-1.5-1.1-3.1-1.9-1.7-0.8-3.5-1.2-1.7-0.3-3.6-0.3-1.1 0-2.2 0.1-1 0.1-2.1 0.4-1.1 0.2-2.1 0.6-1 0.4-2 0.9-0.9 0.5-1.7 1.2-0.8 0.6-1.6 1.3-0.7 0.7-1.3 1.6-0.6 0.8-1.1 1.7-0.5 1-0.9 2-0.4 1-0.7 2.1-0.3 1-0.4 2.1-0.1 1.1-0.1 2.2 0 1.1 0.1 2.2 0.1 1.1 0.4 2.1 0.3 1.1 0.7 2.1 0.4 1 0.9 2 0.5 0.9 1.1 1.7 0.6 0.8 1.3 1.6 0.8 0.7 1.6 1.3 0.8 0.6 1.7 1.1 1 0.6 2 1 1 0.4 2.1 0.6 1.1 0.3 2.1 0.4 1.1 0.1 2.2 0.1 1.9 0 3.6-0.4 1.8-0.3 3.5-1.1 1.6-0.8 3.1-1.9 1.4-1.2 2.6-2.6l7.5 7q-0.9 1.1-1.9 2.1-1.1 1-2.2 1.8-1.1 0.9-2.4 1.6-1.2 0.7-2.5 1.2-1.4 0.6-2.9 1.1-1.5 0.4-3 0.7-1.5 0.2-3 0.4-1.6 0.1-3.1 0-1.8 0.1-3.6-0.1-1.8-0.2-3.6-0.7-1.8-0.4-3.5-1-1.7-0.7-3.3-1.5z"/>
	<path id="Layer" fill-rule="evenodd" class="s0" d="m258 44.5q4.9 4.3 4.9 13v22.2h-10.6v-4.9q-3.2 5.5-11.9 5.5-1 0-2-0.1-1-0.1-2-0.3-1-0.2-1.9-0.5-1-0.3-1.9-0.7-0.7-0.3-1.4-0.7-0.7-0.5-1.4-1-0.6-0.5-1.2-1.2-0.5-0.6-1-1.3-0.4-0.6-0.7-1.4-0.4-0.7-0.6-1.5-0.2-0.7-0.3-1.5-0.1-0.8-0.1-1.6-0.1-1.3 0.2-2.5 0.2-1.2 0.8-2.3 0.5-1.1 1.3-2.1 0.8-0.9 1.8-1.7 4-3.1 12.6-3.1h9q0-0.8-0.1-1.6-0.1-0.8-0.4-1.5-0.3-0.7-0.8-1.4-0.4-0.6-1-1.2-2.2-2-6.7-2-0.8 0-1.6 0.1-0.7 0-1.5 0.2-0.8 0.1-1.5 0.3-0.8 0.2-1.5 0.4-0.7 0.2-1.4 0.5-0.6 0.3-1.3 0.6-0.6 0.3-1.2 0.7-0.6 0.4-1.2 0.9l-4.1-7.9q0.9-0.6 1.8-1.1 0.9-0.6 1.9-1 1-0.4 1.9-0.8 1-0.3 2.1-0.6 1.1-0.3 2.2-0.5 1.1-0.3 2.3-0.4 1.1-0.2 2.3-0.3 1.2 0 2.3 0 9-0.1 13.9 4.3zm-9.6 26.8q0.5-0.3 1-0.7 0.5-0.5 0.9-1 0.4-0.5 0.7-1 0.3-0.6 0.6-1.2v-4h-7.8q-7 0-7 4.5 0 0.5 0.1 1 0.1 0.5 0.3 1 0.2 0.4 0.6 0.8 0.3 0.4 0.7 0.7 0.5 0.3 1.1 0.6 0.5 0.2 1.1 0.4 0.6 0.1 1.2 0.2 0.7 0.1 1.3 0 0.6 0.1 1.3 0 0.7-0.1 1.4-0.3 0.6-0.1 1.2-0.4 0.7-0.2 1.3-0.6z"/>
	<path id="Layer" class="s0" d="m280.3 79.1q-1-0.3-2-0.6-0.9-0.3-1.8-0.6-1-0.4-1.9-0.9-0.8-0.4-1.7-0.9l3.8-8.1q0.7 0.5 1.5 0.8 0.7 0.4 1.5 0.8 0.8 0.3 1.6 0.6 0.8 0.3 1.7 0.5 0.8 0.3 1.7 0.5 0.9 0.1 1.8 0.3 1 0.1 1.9 0.2 0.9 0 1.8 0 7.2 0 7.2-3.5 0-0.5-0.2-0.9-0.1-0.3-0.4-0.7-0.3-0.3-0.7-0.5-0.3-0.2-0.7-0.3-0.8-0.3-1.5-0.4-0.7-0.2-1.5-0.4-0.7-0.1-1.5-0.3-0.8-0.1-1.5-0.2-1-0.1-2-0.3-1-0.1-2-0.3-1-0.3-2-0.5-0.9-0.2-1.9-0.5-0.8-0.2-1.5-0.6-0.8-0.3-1.4-0.7-0.7-0.4-1.3-1-0.7-0.5-1.2-1.1-2.3-2.3-2.3-6.8 0-0.8 0.1-1.7 0.2-0.9 0.5-1.7 0.2-0.8 0.7-1.6 0.4-0.8 0.9-1.5 0.6-0.8 1.3-1.4 0.7-0.7 1.5-1.3 0.8-0.5 1.6-1 0.9-0.4 1.8-0.7 1.2-0.5 2.4-0.8 1.2-0.3 2.4-0.5 1.2-0.2 2.4-0.3 1.3-0.1 2.5 0 1 0 2.1 0 1 0.1 2 0.2 1 0.1 2.1 0.3 1 0.1 2 0.4 0.9 0.1 1.8 0.4 0.8 0.2 1.7 0.5 0.8 0.4 1.7 0.7 0.8 0.4 1.6 0.9l-3.8 8q-1.3-0.8-2.6-1.3-1.4-0.6-2.8-0.9-1.4-0.4-2.9-0.6-1.4-0.2-2.9-0.1-0.7-0.1-1.4 0-0.7 0-1.4 0.1-0.7 0.2-1.3 0.4-0.7 0.2-1.3 0.5-0.4 0.1-0.8 0.4-0.3 0.3-0.5 0.6-0.3 0.3-0.4 0.7-0.1 0.4-0.2 0.9 0 0.4 0.2 0.8 0.1 0.4 0.4 0.8 0.3 0.3 0.6 0.6 0.4 0.2 0.8 0.3 0.8 0.2 1.5 0.5 0.8 0.2 1.6 0.3 0.8 0.2 1.6 0.3 0.7 0.2 1.5 0.3 1 0.1 2 0.3 1 0.2 2 0.4 0.9 0.2 1.9 0.5 1 0.2 1.9 0.5 0.8 0.2 1.5 0.5 0.7 0.3 1.4 0.8 0.7 0.4 1.3 0.9 0.6 0.5 1.1 1.1 0.6 0.7 1.1 1.4 0.4 0.8 0.7 1.7 0.3 0.8 0.4 1.7 0.1 0.9 0.1 1.8 0 0.9-0.1 1.8-0.2 0.8-0.5 1.7-0.2 0.8-0.6 1.6-0.5 0.7-1 1.4-0.6 0.8-1.3 1.4-0.8 0.7-1.6 1.3-0.8 0.5-1.6 0.9-0.9 0.5-1.8 0.8-1.2 0.4-2.4 0.7-1.3 0.3-2.5 0.5-1.2 0.2-2.5 0.3-1.3 0.1-2.5 0.1-1.2 0-2.4-0.1-1.2-0.1-2.4-0.2-1.2-0.2-2.4-0.4-1.2-0.2-2.3-0.5z"/>
	<path id="Layer" class="s0" d="m354.1 44.5q4.4 4.3 4.4 12.9v22.3h-11.3v-20.6q0-4.6-2-6.9-0.5-0.6-1.2-1-0.7-0.5-1.4-0.8-0.8-0.3-1.6-0.4-0.8-0.1-1.6-0.1-1 0-1.9 0.1-0.9 0.2-1.8 0.5-0.9 0.4-1.7 0.9-0.8 0.5-1.4 1.2-2.6 2.6-2.6 7.8v19.3h-11.3v-53.7h11.3v18.8q0.6-0.6 1.2-1.1 0.6-0.5 1.3-0.9 0.7-0.5 1.4-0.8 0.8-0.4 1.5-0.7 0.9-0.3 1.7-0.5 0.9-0.2 1.8-0.4 0.8-0.1 1.7-0.2 0.9-0.1 1.8 0 7.2 0 11.7 4.3z"/>
	<path id="Layer" fill-rule="evenodd" class="s1" d="m24.9 37c6.7-3.8 13.5-7.7 20.2-11.6q0.8-0.5 1.6-0.7 0.8-0.2 1.7-0.2 0.9 0 1.7 0.2 0.8 0.2 1.6 0.7l10 5.7q0.2 0.1 0.3 0.3 0.1 0.2 0.1 0.4 0 0.3-0.1 0.5-0.1 0.2-0.3 0.3l-24.5 14.1q-0.2 0.1-0.4 0.3-0.2 0.2-0.3 0.4-0.1 0.2-0.2 0.5-0.1 0.3-0.1 0.5v11.8q0 0.3 0.1 0.5 0.1 0.3 0.2 0.5 0.1 0.2 0.3 0.4 0.2 0.2 0.4 0.3l10.3 5.9q0.2 0.1 0.4 0.2 0.3 0.1 0.5 0.1 0.3 0 0.5-0.1 0.3-0.1 0.5-0.2l42.2-24.3c7.1-4.1 7.1-16 0-20.2l-37.9-21.8q-1.2-0.8-2.5-1.1-1.4-0.4-2.8-0.4-1.4 0-2.7 0.4-1.3 0.3-2.5 1.1l-37.9 21.8q-1.2 0.7-2.2 1.7-1 0.9-1.7 2.1-0.7 1.2-1.1 2.6-0.3 1.3-0.3 2.7c0 14.6 0.1 29.2 0 43.8q0 1.3 0.3 2.7 0.4 1.3 1.1 2.5 0.7 1.2 1.7 2.2 1 1 2.2 1.7l37.9 21.9q1.2 0.7 2.5 1 1.3 0.4 2.7 0.4 1.4 0 2.7-0.4 1.4-0.3 2.6-1l37.9-21.9q1.2-0.7 2.2-1.7 1-1 1.7-2.2 0.6-1.2 1-2.5 0.3-1.4 0.3-2.7v-19l-45.1 26.1q-0.8 0.4-1.6 0.6-0.8 0.3-1.7 0.3-0.9 0-1.7-0.3-0.8-0.2-1.6-0.6l-20.1-11.7q-0.8-0.4-1.4-1-0.6-0.6-1-1.4-0.4-0.7-0.7-1.6-0.2-0.8-0.2-1.7v-23.3q0-0.8 0.2-1.6 0.3-0.8 0.7-1.6 0.4-0.7 1-1.3 0.6-0.6 1.3-1.1z"/>
</svg>