<svg width="21" height="20" viewBox="0 0 21 20" fill="none" xmlns="http://www.w3.org/2000/svg">
<path d="M10.1445 20C15.6674 20 20.1445 15.5228 20.1445 10C20.1445 4.47715 15.6674 0 10.1445 0C4.62168 0 0.144531 4.47715 0.144531 10C0.144531 15.5228 4.62168 20 10.1445 20Z" fill="#1A1A1A"/>
<path fill-rule="evenodd" clip-rule="evenodd" d="M10.1445 18.5C14.839 18.5 18.6445 14.6944 18.6445 10C18.6445 5.30558 14.839 1.5 10.1445 1.5C5.45011 1.5 1.64453 5.30558 1.64453 10C1.64453 14.6944 5.45011 18.5 10.1445 18.5ZM20.1445 10C20.1445 15.5228 15.6674 20 10.1445 20C4.62168 20 0.144531 15.5228 0.144531 10C0.144531 4.47715 4.62168 0 10.1445 0C15.6674 0 20.1445 4.47715 20.1445 10Z" fill="#BE6C6A"/>
<path d="M8.47787 5.7522H5.72485L8.76821 9.99991L5.72485 14.2477H8.47787L10.1446 11.9213L11.8114 14.2477H14.5644L11.5212 9.99991L14.5644 5.7522H11.8114L10.1446 8.07862L8.47787 5.7522Z" fill="white"/>
</svg>
