<svg width="18" height="18" viewBox="0 0 18 18" fill="none" xmlns="http://www.w3.org/2000/svg">
<path d="M14.0731 2.70001H16.2722L11.6957 7.23133C10.0384 8.87144 7.35131 8.87144 5.69277 7.23133L1.1145 2.70001H3.31538L6.79232 6.14219C7.29891 6.64147 7.98162 6.92136 8.6929 6.92136C9.40418 6.92136 10.0869 6.64147 10.5935 6.14219L14.0731 2.70001Z" fill="#23292E"/>
<path d="M3.28749 15.3H1.08691L5.69312 10.7408C7.35046 9.10065 10.0375 9.10065 11.696 10.7408L16.3023 15.3H14.1032L10.5965 11.8299C10.0899 11.3306 9.4072 11.0507 8.69592 11.0507C7.98464 11.0507 7.30193 11.3306 6.79534 11.8299L3.28749 15.3Z" fill="#23292E"/>
</svg>
