<svg width="20" height="20" viewBox="0 0 20 20" fill="none" xmlns="http://www.w3.org/2000/svg">
<g clip-path="url(#clip0)">
<path d="M17.4414 11.2325C17.4414 16.7554 14.1098 20 10 20C5.89023 20 2.55859 16.7554 2.55859 11.2325C2.55859 5.70969 5.89023 0 10 0C14.1098 0 17.4414 5.70969 17.4414 11.2325Z" fill="#E8C38C"/>
<path d="M10.0001 0C9.79692 0 9.59579 0.0144922 9.39673 0.0416797C13.2243 0.56457 16.2348 5.9827 16.2348 11.2325C16.2348 16.4824 13.2243 19.6733 9.39673 19.976C9.59579 19.9918 9.79692 20 10.0001 20C14.1099 20 17.4415 16.7554 17.4415 11.2325C17.4415 5.70969 14.1099 0 10.0001 0V0Z" fill="#DBB37E"/>
<path d="M8.40821 8.61201C8.12891 10.0494 7.11309 11.0637 6.1393 10.8773C5.16552 10.691 4.60255 9.37475 4.88188 7.93733C5.16122 6.49991 6.177 5.48569 7.15079 5.67201C8.12453 5.8583 8.68754 7.17459 8.40821 8.61201Z" fill="#67756A"/>
<path d="M3.80586 16.3901C3.13527 15.2217 2.70281 13.7901 2.58887 12.1255C3.31219 12.0859 4.10988 12.7665 4.47344 13.7901C4.88379 14.9475 4.58484 16.1074 3.80586 16.3901Z" fill="#67756A"/>
<path d="M12.9733 3.39726C13.3859 4.29081 13.1979 5.25253 12.5532 5.54531C11.9085 5.83808 11.0514 5.35101 10.6387 4.45746C10.2261 3.5639 10.4142 2.60218 11.0589 2.30941C11.7036 2.01663 12.5606 2.50371 12.9733 3.39726Z" fill="#67756A"/>
<path d="M15.3778 14.6509C15.0913 16.1252 13.9395 17.1445 12.8051 16.9274C11.6707 16.7104 10.9834 15.3393 11.2698 13.865C11.5563 12.3907 12.7081 11.3715 13.8425 11.5885C14.9769 11.8055 15.6643 13.1766 15.3778 14.6509Z" fill="#67756A"/>
</g>
<defs>
<clipPath id="clip0">
<rect width="20" height="20" fill="white"/>
</clipPath>
</defs>
</svg>
