<svg width="512" height="512" xmlns="http://www.w3.org/2000/svg" >
  <path d="M512 315v57c0 11-9 20-20 20h-56a20 20 0 1 1 0-40h36v-37a20 20 0 1 1 40 0zm-276-98c11 0 20-9 20-20v-45h20c11 0 20-9 20-20V20a20 20 0 0 0-20.7-20A20.3 20.3 0 0 0 256 20.5V36h-20a20 20 0 1 0 0 40h20v36h-20c-11 0-20 9-20 20v65c0 11 9 20 20 20zM20 295c11 0 20-9 20-20v-20h21a20 20 0 1 0 0-40H20c-11 0-20 9-20 20v40c0 11 9 20 20 20zm296-40h54v59.5a20 20 0 1 0 40 .5v-20h21a20 20 0 1 0 0-40h-21v-20c0-11-9-20-20-20h-74a20 20 0 1 0 0 40zm176-40a20 20 0 1 0 0 40 20 20 0 0 0 0-40zm-176 80c-11 0-20 9-20 20v37h-10a20 20 0 1 0 0 40h30c11 0 20-9 20-20v-57c0-11-9-20-20-20zm0 177h-20v-20c0-11-9-20-20-20h-20v-20a20 20 0 1 0-40 0v40c0 11 9 20 20 20h20v20c0 11 9 20 20 20h40a20 20 0 1 0 0-40zm80-40c0-11-9-20-20-20h-10a20 20 0 1 0 0 40h10c11 0 20-9 20-20zm96 40h-16v-20a20 20 0 1 0-40 0v20h-40a20 20 0 1 0 0 40h96a20 20 0 1 0 0-40zM236 332c11 0 20-9 20-20v-37c0-11-9-20-20-20h-72v-19.5a20 20 0 1 0-40-.5v20h-10a20 20 0 1 0 0 40h102v17c0 11 9 20 20 20zM0 120V60C0 27 27 0 60 0h60c33 0 60 27 60 60v60c0 33-27 60-60 60H60c-33 0-60-27-60-60zm40 0c0 11 9 20 20 20h60c11 0 20-9 20-20V60c0-11-9-20-20-20H60c-11 0-20 9-20 20v60zm50-10a20 20 0 1 0 0-40 20 20 0 0 0 0 40zm422-50v60c0 33-27 60-60 60h-60c-33 0-60-27-60-60V60c0-33 27-60 60-60h60c33 0 60 27 60 60zm-40 0c0-11-9-20-20-20h-60c-11 0-20 9-20 20v60c0 11 9 20 20 20h60c11 0 20-9 20-20V60zm-50 10a20 20 0 1 0 0 40 20 20 0 0 0 0-40zM180 392v60c0 33-27 60-60 60H60c-33 0-60-27-60-60v-60c0-33 27-60 60-60h60c33 0 60 27 60 60zm-40 0c0-11-9-20-20-20H60c-11 0-20 9-20 20v60c0 11 9 20 20 20h60c11 0 20-9 20-20v-60zm-50 10a20 20 0 1 0 0 40 20 20 0 0 0 0-40z" fill="#7190EB" fill-rule="nonzero"/></svg>
