<svg width="196" height="95" viewBox="0 0 196 95" version="1.1" xmlns="http://www.w3.org/2000/svg">
  <defs>
    <linearGradient x1="50%" y1="0%" x2="50%" y2="100%" id="a">
      <stop stop-color="#9E6AAE" offset="0%"/>
      <stop stop-color="#7797F4" offset="100%"/>
    </linearGradient>
  </defs>
  <g fill="none" fill-rule="evenodd">
    <path d="M56.92 60.909H56c-1.057-11.85-8.068-20.947-13.518-27.409 5.451-6.46 12.46-15.559 13.521-27.409h.92c1.7 0 3.077-1.364 3.077-3.046C60 1.363 58.623 0 56.924 0H3.076C1.376 0 0 1.364 0 3.045 0 4.727 1.377 6.09 3.076 6.09h.92c1.06 11.851 8.068 20.95 13.52 27.409-5.45 6.46-12.46 15.558-13.52 27.409h-.92C1.376 60.909 0 62.27 0 63.952 0 65.636 1.377 67 3.076 67h53.848c1.7 0 3.076-1.364 3.076-3.048 0-1.682-1.378-3.043-3.08-3.043zm-46.756 0c1.156-10.707 8.19-18.952 13.445-25.113l.28-.329a3.019 3.019 0 0 0 0-3.927l-.279-.328C18.356 25.05 11.32 16.805 10.164 6.097h39.67c-1.156 10.708-8.192 18.953-13.446 25.115l-.278.328a3.019 3.019 0 0 0 0 3.927l.281.33c5.254 6.16 12.287 14.405 13.444 25.112H10.164zm20.835-22.393c.002 2.191 1.295 4.358 3.644 6.116 5.018 3.75 8.775 7.823 11.164 12.106a1.533 1.533 0 0 1-.011 1.509c-.27.467-.763.753-1.295.753h-30a1.49 1.49 0 0 1-1.295-.753 1.522 1.522 0 0 1-.012-1.51c2.39-4.282 6.146-8.355 11.165-12.105 2.346-1.758 3.64-3.925 3.641-6.116A1.51 1.51 0 0 1 29.5 37c.827 0 1.5.678 1.5 1.516zm-2.507-7.02a7.495 7.495 0 0 0-1.77-4.826c-2.534-2.999-4.43-6.25-5.636-9.663A1.505 1.505 0 0 1 22.51 15h14.981a1.505 1.505 0 0 1 1.423 2.007c-1.202 3.413-3.102 6.664-5.635 9.663a7.497 7.497 0 0 0-1.768 4.825 1.509 1.509 0 0 1-3.019 0z" transform="translate(71 12)" fill="url(#a)" fill-rule="nonzero"/>
    <path d="M14.88 32.863c0-13.339-2.462-15.932-15.12-15.932 12.658 0 15.12-2.593 15.12-15.931 0 13.338 2.461 15.931 15.12 15.931-12.659 0-15.12 2.593-15.12 15.932zM184.398 85.02c0-10.055-1.856-12.01-11.398-12.01 9.542 0 11.398-1.955 11.398-12.01 0 10.055 1.855 12.01 11.398 12.01-9.543 0-11.398 1.955-11.398 12.01zM182.9 16.648c0-6.97-1.287-8.324-7.9-8.324 6.613 0 7.9-1.355 7.9-8.324 0 6.97 1.286 8.324 7.9 8.324-6.614 0-7.9 1.355-7.9 8.324zM19.127 95.02c0-6.288-1.16-7.51-7.127-7.51 5.966 0 7.127-1.223 7.127-7.51 0 6.287 1.16 7.51 7.128 7.51-5.968 0-7.128 1.222-7.128 7.51z" fill="#F1F2FA"/>
    <path d="M36.5 65.733c-3.038 0-5.5-2.626-5.5-5.866C31 56.627 33.462 54 36.5 54s5.5 2.627 5.5 5.867-2.462 5.866-5.5 5.866zm0-1.833c2.088 0 3.781-1.806 3.781-4.033 0-2.228-1.693-4.034-3.781-4.034s-3.781 1.806-3.781 4.034c0 2.227 1.693 4.033 3.781 4.033zm125-24.2c-1.933 0-3.5-1.724-3.5-3.85 0-2.126 1.567-3.85 3.5-3.85s3.5 1.724 3.5 3.85c0 2.126-1.567 3.85-3.5 3.85zm0-1.75c1.054 0 1.91-.94 1.91-2.1 0-1.16-.856-2.1-1.91-2.1-1.054 0-1.91.94-1.91 2.1 0 1.16.856 2.1 1.91 2.1z" fill="#F1F2FA" fill-rule="nonzero"/>
  </g>
</svg>
