<svg width="135" height="40" fill="none" xmlns="http://www.w3.org/2000/svg"><path d="M8.669 39.998c-.35 0-.69-.004-1.036-.011a15.866 15.866 0 01-2.14-.17 7.186 7.186 0 01-1.896-.574 6.197 6.197 0 01-1.6-1.063 5.62 5.62 0 01-1.79-3.193 11.887 11.887 0 01-.19-1.96C.01 32.805 0 32.07 0 32.07V7.915s.01-.723.017-.935c.009-.656.072-1.31.19-1.958a5.67 5.67 0 011.784-3.2A6.38 6.38 0 013.596.753 7.117 7.117 0 015.49.184C6.199.078 6.917.021 7.636.013L8.67 0h117.656l1.046.013c.712.008 1.424.065 2.127.17.665.103 1.31.297 1.913.573 1.188.56 2.155 1.444 2.765 2.53.298.544.505 1.125.613 1.725.118.652.185 1.312.199 1.973.003.297.003.615.003.931.009.392.009.766.009 1.142v21.885c0 .38 0 .75-.009 1.124 0 .34 0 .652-.005.972-.013.65-.078 1.298-.195 1.939a5.669 5.669 0 01-.618 1.746 5.81 5.81 0 01-1.163 1.449 6.215 6.215 0 01-1.602 1.07 7.168 7.168 0 01-1.91.574c-.708.106-1.423.163-2.14.17-.335.008-.686.012-1.027.012L125.09 40 8.669 39.998z" fill="#000"/><path d="M53.743 15V8.602h1.806c.556 0 1.049.123 1.476.369.428.246.758.596.99 1.05.233.454.352.976.355 1.564v.41c0 .603-.117 1.132-.351 1.586a2.441 2.441 0 01-.998 1.046c-.43.243-.933.367-1.507.373h-1.771zm.843-5.704v5.014h.888c.65 0 1.156-.202 1.516-.606.363-.405.545-.98.545-1.727v-.374c0-.726-.171-1.29-.514-1.692-.34-.404-.823-.61-1.45-.615h-.985zm4.54 3.283c0-.466.091-.885.273-1.257.184-.372.44-.66.764-.862a2.093 2.093 0 011.12-.303c.648 0 1.171.224 1.57.673.401.448.602 1.044.602 1.788v.057c0 .463-.09.88-.268 1.248-.176.367-.43.652-.76.857a2.094 2.094 0 01-1.134.308c-.645 0-1.168-.224-1.57-.672-.398-.449-.597-1.042-.597-1.78v-.057zm.818.096c0 .528.121.951.364 1.27.246.32.575.48.985.48.413 0 .74-.162.984-.484.243-.325.365-.78.365-1.362 0-.522-.125-.944-.374-1.266a1.173 1.173 0 00-.984-.488c-.401 0-.725.16-.971.48-.246.319-.37.776-.37 1.37zm8.56 1.204l.914-3.634h.813L68.847 15h-.66l-1.155-3.604L65.907 15h-.66l-1.379-4.755h.809l.936 3.56 1.107-3.56h.655l1.13 3.634zm3.147-3.634l.026.598a1.733 1.733 0 011.424-.686c1.005 0 1.512.567 1.52 1.7V15h-.812v-3.146c-.003-.343-.082-.597-.238-.76-.152-.165-.39-.247-.716-.247-.264 0-.495.07-.694.211-.2.14-.355.325-.466.554V15h-.813v-4.755h.769zM76.55 15h-.813V8.25h.813V15zm.91-2.421c0-.466.09-.885.272-1.257.185-.372.44-.66.765-.862a2.094 2.094 0 011.12-.303c.648 0 1.171.224 1.57.673.4.448.602 1.044.602 1.788v.057c0 .463-.09.88-.269 1.248-.175.367-.429.652-.76.857a2.094 2.094 0 01-1.134.308c-.644 0-1.167-.224-1.569-.672-.398-.449-.597-1.042-.597-1.78v-.057zm.817.096c0 .528.122.951.365 1.27.246.32.574.48.984.48.413 0 .742-.162.985-.484.243-.325.365-.78.365-1.362 0-.522-.125-.944-.374-1.266a1.173 1.173 0 00-.984-.488c-.402 0-.725.16-.972.48-.246.319-.369.776-.369 1.37zM85.564 15c-.046-.094-.084-.26-.114-.501-.378.393-.829.589-1.353.589-.469 0-.854-.132-1.156-.396a1.296 1.296 0 01-.448-1.01c0-.495.187-.88.562-1.152.378-.275.908-.413 1.591-.413h.791v-.373c0-.284-.085-.51-.255-.677-.17-.17-.42-.255-.751-.255-.29 0-.534.073-.73.22-.196.146-.294.323-.294.531h-.818c0-.237.084-.465.25-.685.17-.223.4-.399.686-.527.29-.13.608-.194.954-.194.548 0 .977.138 1.288.413.31.273.471.65.483 1.13v2.188c0 .437.056.784.167 1.042V15h-.853zm-1.349-.62c.255 0 .497-.066.725-.197.229-.132.395-.304.497-.514v-.976H84.8c-.996 0-1.494.291-1.494.874 0 .255.085.454.255.598.17.144.388.215.654.215zm2.932-1.797c0-.73.173-1.315.518-1.758a1.638 1.638 0 011.358-.668c.557 0 .998.19 1.323.572V8.25h.813V15h-.747l-.04-.51c-.325.399-.778.598-1.358.598-.55 0-1-.226-1.349-.677-.345-.451-.518-1.04-.518-1.766v-.062zm.813.092c0 .54.111.961.334 1.266.222.305.53.457.923.457.515 0 .892-.232 1.129-.694V11.52c-.243-.449-.617-.673-1.12-.673-.4 0-.71.154-.932.462-.223.307-.334.763-.334 1.366zM94.697 15v-4.127h-.752v-.628h.752v-.488c0-.51.136-.903.409-1.182.272-.278.657-.417 1.155-.417.188 0 .374.025.559.074l-.044.66a2.335 2.335 0 00-.44-.04c-.264 0-.467.078-.61.233-.144.152-.216.372-.216.66v.5h1.015v.629H95.51V15h-.813zm2.334-2.421c0-.466.09-.885.272-1.257.185-.372.44-.66.765-.862a2.093 2.093 0 011.12-.303c.648 0 1.171.224 1.569.673.401.448.602 1.044.602 1.788v.057c0 .463-.089.88-.268 1.248a2.003 2.003 0 01-.76.857 2.094 2.094 0 01-1.134.308c-.645 0-1.167-.224-1.569-.672-.398-.449-.597-1.042-.597-1.78v-.057zm.817.096c0 .528.121.951.365 1.27.246.32.574.48.984.48.413 0 .741-.162.984-.484.244-.325.365-.78.365-1.362 0-.522-.124-.944-.373-1.266a1.174 1.174 0 00-.985-.488c-.401 0-.725.16-.97.48-.247.319-.37.776-.37 1.37zm6.649-1.7a2.434 2.434 0 00-.4-.031c-.533 0-.895.227-1.085.681V15h-.813v-4.755h.791l.013.55c.267-.425.644-.638 1.134-.638.158 0 .278.02.36.062v.756zM54.156 32V20.625h3.36c1.005 0 1.895.224 2.672.672A4.574 4.574 0 0162 23.203c.427.823.64 1.766.64 2.828v.57c0 1.079-.215 2.027-.648 2.844a4.495 4.495 0 01-1.836 1.89c-.791.444-1.7.665-2.726.665h-3.274zm1.977-9.781v8.203h1.289c1.036 0 1.83-.323 2.383-.969.557-.65.84-1.583.851-2.797v-.633c0-1.234-.268-2.177-.804-2.828-.537-.65-1.316-.976-2.336-.976h-1.383zm12.015 9.937c-1.203 0-2.18-.377-2.93-1.133-.744-.76-1.116-1.77-1.116-3.03v-.235c0-.844.161-1.596.484-2.258.328-.667.786-1.185 1.375-1.555a3.625 3.625 0 011.969-.554c1.15 0 2.039.367 2.664 1.101.63.735.945 1.774.945 3.117v.766h-5.523c.057.698.289 1.25.695 1.656.411.407.927.61 1.547.61.87 0 1.578-.352 2.125-1.055l1.023.977a3.441 3.441 0 01-1.36 1.18c-.562.275-1.194.413-1.898.413zm-.226-7.242c-.521 0-.943.182-1.266.547-.318.365-.52.872-.61 1.523h3.618v-.14c-.042-.636-.21-1.115-.508-1.438-.297-.328-.708-.492-1.234-.492zm12.516 2.945c0 1.313-.295 2.357-.883 3.133-.584.776-1.388 1.164-2.414 1.164-.99 0-1.76-.357-2.313-1.07l-.094.914h-1.718V20h1.898v4.36c.547-.646 1.284-.97 2.211-.97 1.031 0 1.841.383 2.43 1.15.588.765.882 1.835.882 3.21v.11zm-1.899-.164c0-.916-.161-1.604-.484-2.062-.323-.459-.792-.688-1.407-.688-.822 0-1.4.36-1.734 1.078v3.485c.339.734.922 1.101 1.75 1.101.594 0 1.052-.221 1.375-.664.323-.442.49-1.112.5-2.008v-.242zM84.055 32h-1.899v-8.453h1.899V32zm-2.016-10.648c0-.292.091-.534.273-.727.188-.193.454-.29.797-.29.344 0 .61.097.797.29a1 1 0 01.281.727.99.99 0 01-.28.718c-.188.188-.454.282-.798.282-.343 0-.609-.094-.796-.282a1.005 1.005 0 01-.274-.718zM91.18 32c-.083-.162-.156-.424-.218-.79a2.955 2.955 0 01-2.219.946c-.849 0-1.541-.242-2.078-.726-.536-.485-.805-1.084-.805-1.797 0-.901.334-1.591 1-2.07.672-.485 1.63-.727 2.875-.727h1.164v-.555c0-.437-.122-.786-.367-1.047-.245-.265-.617-.398-1.117-.398-.432 0-.786.11-1.062.328a.993.993 0 00-.415.82H86.04c0-.463.154-.896.461-1.297.307-.406.724-.724 1.25-.953a4.432 4.432 0 011.773-.343c.99 0 1.78.25 2.368.75.588.494.89 1.192.906 2.093v3.813c0 .76.107 1.367.32 1.82V32H91.18zm-2.085-1.367c.375 0 .726-.091 1.054-.274a1.82 1.82 0 00.75-.734v-1.594h-1.023c-.703 0-1.232.123-1.586.367-.354.245-.531.592-.531 1.04 0 .364.12.656.36.875.244.213.57.32.976.32zm7.453-7.086l.055.976c.625-.755 1.445-1.132 2.46-1.132 1.761 0 2.657 1.007 2.688 3.023V32h-1.898v-5.477c0-.536-.118-.932-.352-1.187-.23-.26-.607-.39-1.133-.39-.765 0-1.336.346-1.71 1.038V32h-1.9v-8.453h1.79z" fill="#fff"/><g clip-path="url(#clip0)" fill="#A80030"><path d="M28.985 21.209c-.414.006.079.213.62.297.149-.117.285-.235.405-.35-.337.083-.68.085-1.025.053zM31.208 20.654c.247-.34.427-.713.49-1.098-.055.274-.204.512-.345.762-.774.488-.072-.29 0-.585-.833 1.048-.114.629-.145.921zM32.03 18.519c.05-.746-.147-.51-.214-.226.078.04.139.526.213.226zM27.414 8.323c.221.04.478.07.442.123.242-.053.296-.102-.442-.123z"/><path d="M27.855 8.445l-.156.033.146-.013.01-.02z"/><path d="M34.75 18.802c.024.67-.196.995-.395 1.57l-.358.18c-.293.568.028.36-.182.813-.457.407-1.388 1.272-1.686 1.352-.217-.005.148-.257.195-.356-.612.42-.49.631-1.427.887l-.028-.061c-2.31 1.086-5.517-1.067-5.475-4.005-.025.187-.07.14-.121.216-.12-1.512.698-3.03 2.076-3.65 1.348-.667 2.929-.394 3.894.506-.53-.694-1.586-1.43-2.837-1.362-1.226.02-2.373.798-2.755 1.644-.628.395-.701 1.524-.975 1.73-.368 2.706.693 3.875 2.487 5.25.282.19.08.22.118.365a4.867 4.867 0 01-1.591-1.217c.238.349.495.688.827.954-.562-.19-1.313-1.362-1.532-1.41.97 1.735 3.931 3.043 5.482 2.394-.717.026-1.63.014-2.436-.284-.338-.174-.799-.535-.717-.602 2.117.79 4.304.598 6.135-.87.466-.363.975-.98 1.122-.988-.221.333.038.16-.132.454.464-.749-.202-.305.48-1.293l.252.347c-.094-.622.772-1.377.684-2.36.198-.3.221.324.01 1.015.293-.767.078-.89.153-1.523.08.212.187.439.242.663-.19-.741.196-1.248.29-1.68-.093-.04-.293.329-.339-.547.007-.38.106-.2.144-.293-.074-.043-.27-.335-.39-.894.087-.131.232.34.35.36-.076-.445-.207-.784-.212-1.125-.343-.718-.122.096-.4-.308-.366-1.14.303-.265.348-.783.555.803.87 2.047 1.016 2.563-.111-.629-.29-1.237-.508-1.826.168.07-.271-1.293.219-.39-.524-1.926-2.24-3.725-3.819-4.569.193.177.437.399.35.434-.786-.468-.648-.504-.76-.702-.64-.26-.682.021-1.105 0-1.206-.639-1.439-.57-2.548-.971l.05.235c-.798-.266-.93.101-1.794.001-.052-.04.277-.148.548-.188-.772.102-.736-.152-1.492.029.186-.131.383-.218.582-.329-.63.038-1.503.367-1.234.068-1.027.459-2.852 1.102-3.875 2.062l-.033-.215c-.469.563-2.045 1.682-2.17 2.411l-.126.03c-.244.413-.402.881-.596 1.306-.32.545-.468.21-.423.295-.628 1.273-.94 2.343-1.209 3.22.192.288.005 1.729.077 2.882-.315 5.695 3.997 11.224 8.71 12.5.692.248 1.72.239 2.593.264-1.031-.295-1.164-.156-2.169-.506-.724-.342-.883-.731-1.396-1.177l.203.36c-1.007-.357-.585-.442-1.404-.7l.217-.284c-.326-.025-.864-.55-1.011-.84l-.357.013c-.43-.529-.657-.91-.64-1.205l-.116.205c-.13-.224-1.578-1.984-.827-1.575-.14-.127-.325-.207-.526-.572l.153-.175c-.361-.465-.665-1.06-.642-1.259.193.26.326.31.459.354-.912-2.264-.964-.125-1.654-2.304l.146-.012c-.112-.169-.18-.352-.27-.532l.063-.634c-.657-.76-.184-3.229-.089-4.583.066-.55.548-1.137.915-2.056l-.223-.039c.427-.745 2.44-2.994 3.372-2.878.452-.568-.09-.002-.177-.145.991-1.027 1.303-.726 1.973-.91.722-.429-.62.167-.277-.164 1.248-.318.884-.724 2.512-.886.172.097-.398.15-.541.277 1.04-.508 3.29-.393 4.752.283 1.697.793 3.603 3.136 3.678 5.341l.086.023c-.044.877.134 1.89-.174 2.822l.21-.441z"/><path d="M24.463 21.777l-.058.29c.272.37.488.771.836 1.06-.25-.488-.436-.69-.778-1.35zM25.107 21.752c-.144-.16-.23-.35-.325-.542.091.336.279.624.453.918l-.128-.376zM36.496 19.277l-.06.152a7.369 7.369 0 01-.722 2.304 7.238 7.238 0 00.782-2.456zM27.496 8.124c.28-.103.688-.056.986-.124-.388.033-.773.052-1.154.101l.168.023zM17.662 13.352c.064.598-.45.83.114.436.302-.68-.118-.188-.114-.436zM17 16.118c.13-.398.154-.637.203-.868-.358.459-.165.556-.203.868z"/></g><defs><clipPath id="clip0"><path fill="#fff" transform="translate(17 8)" d="M0 0h20.066v25H0z"/></clipPath></defs></svg>