<svg width="112" height="112" fill="none" xmlns="http://www.w3.org/2000/svg">
  <g opacity=".6">
    <path d="M57.68 109.96c30 0 54.32-24.61 54.32-54.98C112 24.62 87.68 0 57.68 0S3.35 24.62 3.35 54.98c0 30.37 24.32 54.98 54.33 54.98Z" fill="#F2F2F7"/>
    <path fill-rule="evenodd" clip-rule="evenodd" d="M42.76 23.76H33.2c-3.5 0-6.37 2.9-6.37 6.42V69.1c-1.51-.36-3.08-.54-4.7-.54-11.48 0-20.79 9.42-20.79 21.04s9.3 21.04 20.8 21.04c11.47 0 20.78-9.42 20.78-21.04 0-1.4-.13-2.75-.39-4.07h38.95c3.5 0 6.38-2.9 6.38-6.43V40.44l-15.38-14.4v8.47c0 2.53-2.15 4.69-4.66 4.69h-20.4a4.75 4.75 0 0 1-4.66-4.7V23.77Z" fill="#fff"/>
    <path fill-rule="evenodd" clip-rule="evenodd" d="M44.1 22.4v12.1a3.4 3.4 0 0 0 3.31 3.34h20.4a3.4 3.4 0 0 0 3.33-3.33V22.94l18.06 16.9V79.1a7.78 7.78 0 0 1-7.72 7.79H44.1c.1.89.16 1.8.16 2.71 0 12.37-9.9 22.4-22.13 22.4C9.91 112 0 101.97 0 89.6s9.9-22.4 22.13-22.4c1.14 0 2.26.09 3.36.26V30.18a7.78 7.78 0 0 1 7.7-7.78h10.9ZM26.83 69.1a20.56 20.56 0 0 0-4.7-.54c-11.48 0-20.79 9.42-20.79 21.04s9.3 21.04 20.8 21.04c11.47 0 20.78-9.42 20.78-21.04a21.49 21.49 0 0 0-.39-4.07h38.95c3.5 0 6.38-2.9 6.38-6.43V40.44l-15.38-14.4v8.47c0 2.53-2.15 4.69-4.66 4.69h-20.4a4.75 4.75 0 0 1-4.66-4.7V23.77H33.2c-3.5 0-6.37 2.9-6.37 6.42V69.1Z" fill="#434B6D"/>
    <path fill-rule="evenodd" clip-rule="evenodd" d="M33.2 24.44c-3.13 0-5.7 2.6-5.7 5.74V79.1a5.76 5.76 0 0 0 5.7 5.75h48.28c3.13 0 5.7-2.6 5.7-5.75V40.73L73.16 27.6v6.91a5.43 5.43 0 0 1-5.33 5.38h-20.4a5.43 5.43 0 0 1-5.33-5.38V24.44h-8.9Zm-7.04 5.74a7.1 7.1 0 0 1 7.04-7.1h10.23V34.5a4.08 4.08 0 0 0 3.98 4.02h20.4a4.08 4.08 0 0 0 4-4.02V24.5l16.72 15.65V79.1a7.1 7.1 0 0 1-7.05 7.1H33.2a7.1 7.1 0 0 1-7.04-7.1V30.18Z" fill="#434B6D"/>
    <path d="M22.13 110.64c11.48 0 20.8-9.42 20.8-21.04s-9.32-21.04-20.8-21.04S1.34 77.98 1.34 89.6s9.3 21.04 20.8 21.04Z" fill="#fff"/>
    <path fill-rule="evenodd" clip-rule="evenodd" d="M22.13 109.96c11.11 0 20.12-9.11 20.12-20.36s-9-20.36-20.12-20.36c-11.11 0-20.12 9.11-20.12 20.36s9.01 20.36 20.12 20.36Zm20.8-20.36c0 11.62-9.32 21.04-20.8 21.04S1.34 101.22 1.34 89.6s9.3-21.04 20.8-21.04c11.47 0 20.78 9.42 20.78 21.04Z" fill="#434B6D"/>
    <path d="M54.34 22.59v9.32a4.74 4.74 0 0 1-4.72 4.76 4.89 4.89 0 0 1-4.84-4.76V22.6h9.56Z" fill="#7190EB"/>
    <path fill-rule="evenodd" clip-rule="evenodd" d="M56.35 21.9v10.01a5.41 5.41 0 0 1-5.39 5.44 5.56 5.56 0 0 1-5.5-5.44v-10h10.9Zm-.67.69h-9.56v9.32c0 2.6 2.27 4.76 4.84 4.76 2.58 0 4.72-2.1 4.72-4.76V22.6Z" fill="#434B6D"/>
    <path d="M44.26 67.1c0-1.47.93-2.62 2.1-2.62L71.1 82.13H44.26V67.1Z" fill="#D2DAF2"/>
    <path fill-rule="evenodd" clip-rule="evenodd" d="M43.6 82.81V67.1c0-1.7 1.1-3.3 2.77-3.3h22.57c1.71 0 2.82 1.58 2.82 3.3V82.8H43.6ZM71.08 67.1c0-1.47-.92-2.61-2.15-2.61H46.37c-1.18 0-2.1 1.14-2.1 2.6v15.04h26.82V67.1Z" fill="#434B6D"/>
    <rect x="44.43" y="44.3" width="27.16" height="17.97" rx="4.5" fill="#FFC149" stroke="#434B6D"/>
    <path fill-rule="evenodd" clip-rule="evenodd" d="M47.62 48.87c0-.37.3-.68.67-.68h19.45c.37 0 .67.3.67.68 0 .38-.3.68-.67.68H48.29a.67.67 0 0 1-.67-.68ZM47.62 52.95c0-.38.3-.68.67-.68h19.45c.37 0 .67.3.67.68 0 .37-.3.68-.67.68H48.29a.67.67 0 0 1-.67-.68ZM47.62 57.02c0-.38.3-.68.67-.68h9.39c.37 0 .67.3.67.68 0 .37-.3.68-.67.68h-9.4a.67.67 0 0 1-.66-.68Z" fill="#fff"/>
    <path fill-rule="evenodd" clip-rule="evenodd" d="M22.13 104.53c8.15 0 14.76-6.68 14.76-14.93s-6.61-14.93-14.76-14.93A14.84 14.84 0 0 0 7.38 89.6c0 8.25 6.6 14.93 14.75 14.93Z" fill="#55B64E"/>
    <path fill-rule="evenodd" clip-rule="evenodd" d="M39.65 89.6c0 9.8-7.84 17.73-17.52 17.73A17.63 17.63 0 0 1 4.61 89.6c0-9.8 7.84-17.73 17.52-17.73S39.65 79.8 39.65 89.6Zm-2.76 0c0 8.25-6.61 14.93-14.76 14.93A14.84 14.84 0 0 1 7.38 89.6c0-8.25 6.6-14.93 14.75-14.93S36.9 81.35 36.9 89.6Z" fill="#fff"/>
    <path d="m29.04 82.9-.97 1c-2.7 2.73-5.57 5.83-8.26 8.6l-3.72-3.1-1.07-.89-1.76 2.16 1.07.9 4.7 3.92.98.8.88-.9c2.98-3.01 6.2-6.55 9.13-9.51l.98-1-1.96-1.98Z" fill="#fff"/>
  </g>
</svg>
