<svg width="16px" height="16px" fill="none" xmlns="http://www.w3.org/2000/svg" viewBox="0 0 16 16">
    <g clip-path="url(#clip0)">
        <g clip-path="url(#clip1)">
            <path d="M8 0L5.372 5.185 0 6.113l3.877 4.23L3.055 16l5.025-2.569L12.946 16l-.771-5.82L16 6.114l-5.503-1.029L8 0z" fill="#F35B51"/>
            <path d="M8 0L5.372 5.185 0 6.113l3.877 4.23L3.055 16 8 13.5l4.946 2.5-.771-5.82L16 6.114l-5.503-1.029L8 0z" fill="#E4E4E4"/>
            <path d="M8 0L5.372 5.185 0 6.113l3.877 4.23L3.055 16 8 13.46V0z" fill="#F35B51"/>
        </g>
    </g>
    <defs>
        <clipPath id="clip0">
            <path fill="#fff" d="M0 0h16v16H0z"/>
        </clipPath>
        <clipPath id="clip1">
            <path fill="#fff" d="M0 0h16v16H0z"/>
        </clipPath>
    </defs>
</svg>