<svg width="190" height="95" viewBox="0 0 190 95" xmlns="http://www.w3.org/2000/svg"><g fill-rule="nonzero" fill="none"><path d="M64.92 33.16l4.87 4.3 2.14-6.14-3.1 2.68-3.9-.84zm3.7-.59l3.07-2.8-5.04-5.08-1.97 7 3.93.88zm2.52 10.73a12.73 12.73 0 11-6.47-24.63 12.73 12.73 0 016.47 24.63zm-.34-1.34a11.4 11.4 0 008.11-13.9 11.41 11.41 0 00-13.9-8.11 11.38 11.38 0 105.8 22.01zM48.33 25.3A12.73 12.73 0 1141.86.68a12.73 12.73 0 016.47 24.62zM48 24.02a11.41 11.41 0 008.12-13.92A11.41 11.41 0 0042.19 2a11.41 11.41 0 00-8.11 13.91 11.44 11.44 0 0013.91 8.12zm-4.87-5.46l-.87.26-.84.22-.08-.83c0-.04-.09-.65-.18-1.8l-.04-.6 1.1-.27-.97-3.68c-.4.1-.66.18-.79.22l-.7.18-.17-.7-.22-.79-.22-.79-.18-.7.7-.17 1.67-.44-.3-1.14-.18-.7.7-.18.26-.08c.17-.05.3-.1.48-.13.18-.05.26-.1.4-.1.08-.04.21-.04.3-.04v-.04l.7-.17.3-.1.88-.21.7-.18.18.7.3 1.23c.36-.04.53-.04.75-.04.48 0 .88.04 1.27.22.57.21 1 .56 1.27 1.09.17.35.3.7.35 1.05.04.44.04.83-.09 1.18.05 0 .09.05.13.05.48.17.88.52 1.18.96.22.3.31.66.44 1.05.09.4.13.79.09 1.14a2.8 2.8 0 01-.57 1.44 3.8 3.8 0 01-.74.7c-.44.31-.88.53-1.45.75l.22.87.09.27c0 .04.04.08 0 .08l.13.66-.66.18-.08.04c-.1.04-.14.04-.18.04-.09.05-.17.05-.3.09-.27.09-.4.09-.53.13-.09.05-.22.05-.3.05v.04l-.66.17-.27.1-.43.12c-.18.05-.27.1-.4.1-.04 0-.09.03-.17.03-.14 0-.27 0-.4-.08a1.02 1.02 0 01-.3-.31c-.05-.04-.05-.13-.1-.17-.08-.31-.17-.57-.3-1.14l-.92.17zm1.36-1.6l.07.26.36 1.35c0 .04 0 .04.04.04.2-.04.35-.08.55-.16l.47-.11-.43-1.62c.28-.08.55-.15.87-.2.15.5.27 1.05.43 1.55 0 .04.04.04.04.04.24-.08.51-.12.75-.2.08-.03.16-.03.23-.07v-.04c-.15-.5-.27-1-.43-1.54 0-.04 0-.04.04-.04.16-.04.32-.11.47-.15.44-.16.83-.35 1.19-.62.2-.15.35-.3.5-.5.24-.27.36-.61.4-.96.04-.27 0-.54-.08-.8-.08-.28-.15-.5-.27-.74-.2-.27-.44-.46-.75-.57a4.27 4.27 0 00-.75-.16h-.24l.04-.04.2-.19c.32-.34.4-.77.35-1.19-.03-.27-.11-.5-.23-.73-.2-.3-.47-.54-.83-.7-.28-.1-.59-.15-.9-.15-.24 0-.44.04-.68.04-.15 0-.31.04-.47.08L45 7.22l-1.03.27.44 1.58-.83.23v-.04c-.12-.5-.28-1-.4-1.5 0-.04 0-.04-.03-.04-.2.04-.36.08-.56.16l-.47.11.43 1.62-2.12.57c.08.35.27 1.08.4 1.39l1.33-.35 1.22 4.43-1.06.26c.12 1 .16 1.54.16 1.58.63-.2 1.3-.38 2-.54zm-.7-6.5c.1-.02 1.5-.42 1.9-.39.4.03.73.57.6 1.08-.14.5-1.96.97-1.96.94-.1-.38-.52-1.5-.54-1.62zm.99 2.93c.13-.04 1.98-.54 2.55-.5.58.04.89.53.7 1.22-.2.68-2.68 1.36-2.68 1.32-.13-.5-.54-1.89-.57-2.04zm21.3 9.42l7.48 7.31-3.15 9.15-7.27-6.44 2.93-10.02zM140.7 31.13v-1.75h9.64c.43 0 .78-.35.78-.8v-11.2a.78.78 0 00-.78-.79h-10.82c-.65 0-1.18.53-1.18 1.18v13.01c-.7-.05-1.36-.1-2.06-.1H106.3a19.94 19.94 0 00-19.91 19.93v18.47L78.8 83.44a1.94 1.94 0 001.75 2.85h8.8a1.2 1.2 0 001.23-1.14c0-.66-.53-1.23-1.18-1.23h-8.23l7.04-13.4H123.2l-6.3 13.4H97.76a1.2 1.2 0 00-1.23 1.14c0 .66.53 1.23 1.18 1.23h19.44c.75 0 1.45-.44 1.75-1.1l4.9-10.37v18.12c0 1.1.88 1.93 1.93 1.93h10.42c1.1 0 1.93-.88 1.93-1.93V70.62h18.04c1.05 0 1.92-.88 1.92-1.93V52.53a21.72 21.72 0 00-17.33-21.4zm0-12.17h8.06V27h-8.05v-8.05zm-1.18 24.23c.78 0 1.4-.65 1.4-1.46V38.4a3.62 3.62 0 012.1 3.34c0 2-1.54 3.67-3.5 3.67-1.9 0-3.5-1.62-3.5-3.67 0-1.5.88-2.8 2.11-3.34v3.34c.05.81.67 1.46 1.4 1.46zM135.8 92.5h-9.67V70.57h9.67V92.5zm1.18-24.3h-10.72v-7.74c0-.66-.53-1.18-1.18-1.18-.66 0-1.19.52-1.19 1.18v7.75H88.7V50.6a17.6 17.6 0 0135.2 0v1.92c0 .66.52 1.19 1.18 1.19.65 0 1.18-.53 1.18-1.19v-1.92c0-7.62-4.3-14.23-10.6-17.6h20.67c.7 0 1.4.04 2.05.13v3.46a5.29 5.29 0 102.28 0v-3.07a19.53 19.53 0 0115.06 19v15.72h-18.74v-.04z" fill="#7190EB"/><path d="M18.17 53.41c0-15.2-2.98-18.17-18.17-18.17 15.2 0 18.17-2.98 18.17-18.17 0 15.2 2.98 18.17 18.17 18.17-15.2 0-18.17 2.98-18.17 18.17zm155.85-9.63c0-11.16-2.19-13.35-13.35-13.35 11.16 0 13.35-2.2 13.35-13.36 0 11.17 2.19 13.36 13.35 13.36-11.16 0-13.35 2.19-13.35 13.35zm-144.9 38.3c-3.86 0-7.01-3.15-7.01-7s3.15-7 7-7c3.86 0 7 3.15 7 7s-3.14 7-7 7zm0-2.18a4.8 4.8 0 004.8-4.82 4.8 4.8 0 00-4.8-4.82 4.8 4.8 0 00-4.82 4.82 4.8 4.8 0 004.81 4.82zm155.85-1.75a4.8 4.8 0 01-4.82-4.82 4.8 4.8 0 014.82-4.82 4.8 4.8 0 014.81 4.82 4.8 4.8 0 01-4.81 4.82zm0-2.2a2.63 2.63 0 002.62-2.62 2.63 2.63 0 00-2.62-2.63 2.63 2.63 0 00-2.63 2.63 2.63 2.63 0 002.63 2.63z" fill="#F1F2FA"/></g></svg>
