<svg fill="none" xmlns="http://www.w3.org/2000/svg" viewBox="0 0 24 24">
    <path d="M12 1C8.676 1 6 3.676 6 7v1c-1.1 0-2 .9-2 2v10c0 1.1.9 2 2 2h12c1.1 0 2-.9 2-2V10c0-1.1-.9-2-2-2V7c0-3.324-2.676-6-6-6zm0 2c2.276 0 4 1.724 4 4v1H8V7c0-2.276 1.724-4 4-4z" fill="#979797"/>
    <path d="M12 19.55c2.51 0 4.55-2.04 4.55-4.55s-2.04-4.55-4.55-4.55S7.45 12.49 7.45 15s2.04 4.55 4.55 4.55zm0-8.1a3.55 3.55 0 110 7.101 3.55 3.55 0 010-7.1z" fill="#303133"/>
    <path d="M11.8 15.8h1.7c.28 0 .5-.22.5-.5s-.22-.5-.5-.5h-1.2v-2.1c0-.28-.22-.5-.5-.5s-.5.22-.5.5v2.6c0 .28.22.5.5.5z" fill="#303133"/>
</svg>