<svg width="135" height="40" fill="none" xmlns="http://www.w3.org/2000/svg"><path d="M8.669 39.998c-.35 0-.69-.004-1.036-.011a15.866 15.866 0 01-2.14-.17 7.186 7.186 0 01-1.896-.574 6.197 6.197 0 01-1.6-1.063 5.62 5.62 0 01-1.79-3.193 11.887 11.887 0 01-.19-1.96C.01 32.805 0 32.07 0 32.07V7.915s.01-.723.017-.935c.009-.656.072-1.31.19-1.958a5.67 5.67 0 011.784-3.2A6.38 6.38 0 013.596.753 7.117 7.117 0 015.49.184C6.199.078 6.917.021 7.636.013L8.67 0h117.656l1.046.013c.712.008 1.424.065 2.127.17.665.103 1.31.297 1.913.573 1.188.56 2.155 1.444 2.765 2.53.298.544.505 1.125.613 1.725.118.652.185 1.312.199 1.973.003.297.003.615.003.931.009.392.009.766.009 1.142v21.885c0 .38 0 .75-.009 1.124 0 .34 0 .652-.005.972-.013.65-.078 1.298-.195 1.939a5.669 5.669 0 01-.618 1.746 5.81 5.81 0 01-1.163 1.449 6.215 6.215 0 01-1.602 1.07 7.168 7.168 0 01-1.91.574c-.708.106-1.423.163-2.14.17-.335.008-.686.012-1.027.012L125.09 40 8.669 39.998z" fill="#000"/><path d="M53.743 15V8.602h1.806c.556 0 1.049.123 1.476.369.428.246.758.596.99 1.05.233.454.352.976.355 1.564v.41c0 .603-.117 1.132-.351 1.586a2.441 2.441 0 01-.998 1.046c-.43.243-.933.367-1.507.373h-1.771zm.843-5.704v5.014h.888c.65 0 1.156-.202 1.516-.606.363-.405.545-.98.545-1.727v-.374c0-.726-.171-1.29-.514-1.692-.34-.404-.823-.61-1.45-.615h-.985zm4.54 3.283c0-.466.091-.885.273-1.257.184-.372.44-.66.764-.862a2.093 2.093 0 011.12-.303c.648 0 1.171.224 1.57.673.401.448.602 1.044.602 1.788v.057c0 .463-.09.88-.268 1.248-.176.367-.43.652-.76.857a2.094 2.094 0 01-1.134.308c-.645 0-1.168-.224-1.57-.672-.398-.449-.597-1.042-.597-1.78v-.057zm.818.096c0 .528.121.951.364 1.27.246.32.575.48.985.48.413 0 .74-.162.984-.484.243-.325.365-.78.365-1.362 0-.522-.125-.944-.374-1.266a1.173 1.173 0 00-.984-.488c-.401 0-.725.16-.971.48-.246.319-.37.776-.37 1.37zm8.56 1.204l.914-3.634h.813L68.847 15h-.66l-1.155-3.604L65.907 15h-.66l-1.379-4.755h.809l.936 3.56 1.107-3.56h.655l1.13 3.634zm3.147-3.634l.026.598a1.733 1.733 0 011.424-.686c1.005 0 1.512.567 1.52 1.7V15h-.812v-3.146c-.003-.343-.082-.597-.238-.76-.152-.165-.39-.247-.716-.247-.264 0-.495.07-.694.211-.2.14-.355.325-.466.554V15h-.813v-4.755h.769zM76.55 15h-.813V8.25h.813V15zm.91-2.421c0-.466.09-.885.272-1.257.185-.372.44-.66.765-.862a2.094 2.094 0 011.12-.303c.648 0 1.171.224 1.57.673.4.448.602 1.044.602 1.788v.057c0 .463-.09.88-.269 1.248-.175.367-.429.652-.76.857a2.094 2.094 0 01-1.134.308c-.644 0-1.167-.224-1.569-.672-.398-.449-.597-1.042-.597-1.78v-.057zm.817.096c0 .528.122.951.365 1.27.246.32.574.48.984.48.413 0 .742-.162.985-.484.243-.325.365-.78.365-1.362 0-.522-.125-.944-.374-1.266a1.173 1.173 0 00-.984-.488c-.402 0-.725.16-.972.48-.246.319-.369.776-.369 1.37zM85.564 15c-.046-.094-.084-.26-.114-.501-.378.393-.829.589-1.353.589-.469 0-.854-.132-1.156-.396a1.296 1.296 0 01-.448-1.01c0-.495.187-.88.562-1.152.378-.275.908-.413 1.591-.413h.791v-.373c0-.284-.085-.51-.255-.677-.17-.17-.42-.255-.751-.255-.29 0-.534.073-.73.22-.196.146-.294.323-.294.531h-.818c0-.237.084-.465.25-.685.17-.223.4-.399.686-.527.29-.13.608-.194.954-.194.548 0 .977.138 1.288.413.31.273.471.65.483 1.13v2.188c0 .437.056.784.167 1.042V15h-.853zm-1.349-.62c.255 0 .497-.066.725-.197.229-.132.395-.304.497-.514v-.976H84.8c-.996 0-1.494.291-1.494.874 0 .255.085.454.255.598.17.144.388.215.654.215zm2.932-1.797c0-.73.173-1.315.518-1.758a1.638 1.638 0 011.358-.668c.557 0 .998.19 1.323.572V8.25h.813V15h-.747l-.04-.51c-.325.399-.778.598-1.358.598-.55 0-1-.226-1.349-.677-.345-.451-.518-1.04-.518-1.766v-.062zm.813.092c0 .54.111.961.334 1.266.222.305.53.457.923.457.515 0 .892-.232 1.129-.694V11.52c-.243-.449-.617-.673-1.12-.673-.4 0-.71.154-.932.462-.223.307-.334.763-.334 1.366zM94.697 15v-4.127h-.752v-.628h.752v-.488c0-.51.136-.903.409-1.182.272-.278.657-.417 1.155-.417.188 0 .374.025.559.074l-.044.66a2.335 2.335 0 00-.44-.04c-.264 0-.467.078-.61.233-.144.152-.216.372-.216.66v.5h1.015v.629H95.51V15h-.813zm2.334-2.421c0-.466.09-.885.272-1.257.185-.372.44-.66.765-.862a2.093 2.093 0 011.12-.303c.648 0 1.171.224 1.569.673.401.448.602 1.044.602 1.788v.057c0 .463-.089.88-.268 1.248a2.003 2.003 0 01-.76.857 2.094 2.094 0 01-1.134.308c-.645 0-1.167-.224-1.569-.672-.398-.449-.597-1.042-.597-1.78v-.057zm.817.096c0 .528.121.951.365 1.27.246.32.574.48.984.48.413 0 .741-.162.984-.484.244-.325.365-.78.365-1.362 0-.522-.124-.944-.373-1.266a1.174 1.174 0 00-.985-.488c-.401 0-.725.16-.97.48-.247.319-.37.776-.37 1.37zm6.649-1.7a2.434 2.434 0 00-.4-.031c-.533 0-.895.227-1.085.681V15h-.813v-4.755h.791l.013.55c.267-.425.644-.638 1.134-.638.158 0 .278.02.36.062v.756zM62.477 20.625v7.602c0 1.208-.388 2.166-1.164 2.875-.771.703-1.8 1.054-3.086 1.054-1.302 0-2.336-.346-3.102-1.039-.766-.698-1.148-1.664-1.148-2.898v-7.594h1.968v7.61c0 .76.193 1.34.578 1.742.386.4.954.601 1.704.601 1.52 0 2.28-.802 2.28-2.406v-7.547h1.97zm9.351 7.234c0 1.313-.294 2.357-.883 3.133-.583.776-1.388 1.164-2.414 1.164-.99 0-1.76-.357-2.312-1.07l-.094.914h-1.719V20h1.899v4.36c.547-.646 1.283-.97 2.21-.97 1.032 0 1.842.383 2.43 1.15.589.765.883 1.835.883 3.21v.11zm-1.898-.164c0-.916-.162-1.604-.485-2.062-.323-.459-.791-.688-1.406-.688-.823 0-1.401.36-1.734 1.078v3.485c.338.734.922 1.101 1.75 1.101.593 0 1.052-.221 1.375-.664.323-.442.49-1.112.5-2.008v-.242zm8.617 3.477c-.557.656-1.35.984-2.375.984-.917 0-1.612-.268-2.086-.804-.469-.537-.703-1.313-.703-2.329v-5.476h1.898V29c0 1.073.446 1.61 1.336 1.61.922 0 1.544-.331 1.867-.993v-6.07h1.899V32h-1.79l-.046-.828zm5.531-7.625l.055.976c.625-.755 1.445-1.132 2.46-1.132 1.761 0 2.657 1.007 2.688 3.023V32h-1.898v-5.477c0-.536-.117-.932-.352-1.187-.229-.26-.607-.39-1.133-.39-.765 0-1.335.346-1.71 1.038V32h-1.899v-8.453h1.79zm9.524-2.055v2.055h1.492v1.406h-1.492v4.719c0 .323.062.557.187.703.13.14.36.21.688.21.218 0 .44-.025.664-.077v1.469c-.433.12-.85.18-1.25.18-1.459 0-2.188-.805-2.188-2.415v-4.789h-1.39v-1.406h1.39v-2.055h1.899zm8.07 9.68c-.557.656-1.349.984-2.375.984-.917 0-1.612-.268-2.086-.804-.469-.537-.703-1.313-.703-2.329v-5.476h1.898V29c0 1.073.446 1.61 1.336 1.61.922 0 1.544-.331 1.867-.993v-6.07h1.899V32h-1.789l-.047-.828z" fill="#fff"/><path d="M40 20.5C40 27.403 34.404 33 27.5 33S15 27.403 15 20.5C15 13.596 20.596 8 27.5 8S40 13.596 40 20.5z" fill="#DD4814"/><path d="M19.001 18.83a1.669 1.669 0 100 3.339 1.669 1.669 0 000-3.338zm11.916 7.586a1.668 1.668 0 101.667 2.89 1.668 1.668 0 00-1.667-2.89zm-8.29-5.916c0-1.65.819-3.106 2.072-3.989l-1.22-2.043a7.265 7.265 0 00-2.998 4.214 2.34 2.34 0 010 3.635 7.26 7.26 0 002.998 4.215l1.22-2.044a4.867 4.867 0 01-2.073-3.988zm4.874-4.875a4.875 4.875 0 014.855 4.443l2.378-.036a7.227 7.227 0 00-2.154-4.702 2.34 2.34 0 01-3.142-1.817 7.27 7.27 0 00-1.937-.263 7.223 7.223 0 00-3.213.75l1.16 2.078a4.855 4.855 0 012.053-.453zm0 9.75c-.734 0-1.43-.164-2.053-.454L24.288 27a7.246 7.246 0 005.15.487 2.338 2.338 0 011.141-1.655 2.338 2.338 0 012.001-.162 7.227 7.227 0 002.154-4.702l-2.378-.035a4.873 4.873 0 01-4.855 4.443zm3.415-10.792a1.668 1.668 0 101.67-2.888 1.668 1.668 0 00-1.67 2.888z" fill="#fff"/></svg>