<svg width="16" height="16" fill="none" xmlns="http://www.w3.org/2000/svg">
  <path fill-rule="evenodd" clip-rule="evenodd" d="M16 9.6V5.8 14c0 1.1-.8 2-1.78 2H1.78C.8 16 0 15.1 0 14V2C0 .9.8 0 1.78 0h8.54H6.4c.44 0 .8.36.8.8 0 .44-.36.8-.8.8H2.06c-.26 0-.46.24-.46.54v11.74c0 .28.2.54.46.54h11.88c.26 0 .46-.24.46-.54V9.6c0-.44.36-.8.8-.8.44 0 .8.36.8.8zm-2.84-8L7.32 7.44c-.34.34-.34.9 0 1.24.34.34.9.34 1.24 0l5.84-5.84V4.8c0 .44.36.8.8.8.44 0 .8-.36.8-.8v-4c0-.22-.08-.42-.24-.56A.726.726 0 0015.2 0h-4c-.44 0-.8.36-.8.8 0 .44.36.8.8.8h1.96z" fill="#7190EB"/>
</svg>