<svg width="164" height="100" viewBox="0 0 164 100" xmlns="http://www.w3.org/2000/svg"><g fill="none" fill-rule="evenodd"><path d="M59.02 69.84a36.2 36.2 0 01-2.67-14.18h-34.7v-1.98h38.59v1.98h-1.87v.5a34.3 34.3 0 10.28-4.47h-2.03a36.32 36.32 0 113.28 20.14H46.26v-1.99h12.76zM36.16 39.5V37.5h20.58v1.99H36.16zm-2.6 32.33v-1.99h4.96v1.99h-4.96zm58.9 13.69a29.17 29.17 0 110-58.34 29.17 29.17 0 010 58.34zm0-1.99a27.18 27.18 0 100-54.36 27.18 27.18 0 000 54.36z" fill="#7190EB" fill-rule="nonzero"/><path d="M40.87 19.84c0-8.3-1.61-9.92-9.92-9.92 8.3 0 9.92-1.61 9.92-9.92 0 8.3 1.62 9.92 9.92 9.92-8.3 0-9.92 1.62-9.92 9.92zM150.8 90.48c0-10.3-2-12.3-12.3-12.3 10.3 0 12.3-2 12.3-12.3 0 10.3 2 12.3 12.3 12.3-10.3 0-12.3 2-12.3 12.3zM6.15 92.46c0-5.15-1-6.15-6.15-6.15 5.15 0 6.15-1 6.15-6.15 0 5.15 1 6.15 6.15 6.15-5.15 0-6.15 1-6.15 6.15z" fill="#F1F2FA"/><path d="M54.56 100a3.77 3.77 0 110-7.54 3.77 3.77 0 010 7.54zm0-1.19a2.58 2.58 0 100-5.16 2.58 2.58 0 000 5.16zm96.23-70.24a4.37 4.37 0 110-8.73 4.37 4.37 0 010 8.73zm0-1.98a2.38 2.38 0 100-4.77 2.38 2.38 0 000 4.77z" fill="#F1F2FA" fill-rule="nonzero"/></g></svg>
