<svg fill="none" xmlns="http://www.w3.org/2000/svg" viewBox="0 0 24 24">
    <g clip-path="url(#clip0)">
        <path d="M21.766 14.857c0 .086 0 .2-.028.286h-3.466c-.029-.086-.029-.2-.029-.286v-1.661c0-.716.573-1.29 1.29-1.29h.973c.716 0 1.289.574 1.289 1.29v1.66h-.029zm-1.375 3.207c-.057.03-.057.086-.057.144v.859a.348.348 0 01-.343.343.33.33 0 01-.344-.343v-.86c0-.057 0-.085-.057-.143-.258-.2-.344-.515-.201-.802a.637.637 0 01.716-.372.652.652 0 01.544.659c.029.2-.086.4-.258.515zm2.664-2.892c0-.115.029-.2.029-.315v-1.661a2.616 2.616 0 00-2.607-2.607h-.973a2.616 2.616 0 00-2.607 2.607v1.66c0 .115 0 .201.029.316a1.198 1.198 0 00-.945 1.174v3.18a1.21 1.21 0 001.203 1.202h5.613A1.21 1.21 0 0024 19.525v-3.179c0-.544-.401-1.031-.945-1.174zM1.632 5.692c0-.544.43-.974.974-.974H18.33c.544 0 .974.43.974.974v.372h-17.7l.03-.372zm13.089 10.826H2.635a.966.966 0 01-.974-.974V8.671h17.7v.687H20.85V5.721C20.85 4.23 19.618 3 18.129 3H2.72A2.738 2.738 0 000 5.72v9.767c0 1.49 1.232 2.72 2.72 2.72h12.058v-1.69h-.057z" fill="#656565"/>
    </g>
    <defs>
        <clipPath id="clip0">
            <path fill="#fff" transform="translate(0 3)" d="M0 0h24v17.728H0z"/>
        </clipPath>
    </defs>
</svg>