<svg fill="none" height="40" width="135" xmlns="http://www.w3.org/2000/svg"><path d="m8.669 39.998c-.35 0-.69-.004-1.036-.011a15.866 15.866 0 0 1 -2.14-.17 7.186 7.186 0 0 1 -1.896-.574 6.197 6.197 0 0 1 -1.6-1.063 5.62 5.62 0 0 1 -1.79-3.193 11.887 11.887 0 0 1 -.19-1.96c-.007-.222-.017-.957-.017-.957v-24.155s.01-.723.017-.935c.009-.656.072-1.31.19-1.958a5.67 5.67 0 0 1 1.784-3.2 6.38 6.38 0 0 1 1.605-1.069 7.117 7.117 0 0 1 1.894-.569c.709-.106 1.427-.163 2.146-.171l1.034-.013h117.656l1.046.013c.712.008 1.424.065 2.127.17.665.103 1.31.297 1.913.573 1.188.56 2.155 1.444 2.765 2.53.298.544.505 1.125.613 1.725.118.652.185 1.312.199 1.973.003.297.003.615.003.931.009.392.009.766.009 1.142v21.885c0 .38 0 .75-.009 1.124 0 .34 0 .652-.005.972-.013.65-.078 1.298-.195 1.939a5.669 5.669 0 0 1 -.618 1.746 5.81 5.81 0 0 1 -1.163 1.449 6.215 6.215 0 0 1 -1.602 1.07 7.168 7.168 0 0 1 -1.91.574c-.708.106-1.423.163-2.14.17-.335.008-.686.012-1.027.012l-1.242.002z" fill="#000"/><path d="m53.743 15v-6.398h1.806c.556 0 1.049.123 1.476.369.428.246.758.596.99 1.05.233.454.352.976.355 1.564v.41c0 .603-.117 1.132-.351 1.586a2.441 2.441 0 0 1 -.998 1.046c-.43.243-.933.367-1.507.373zm.843-5.704v5.014h.888c.65 0 1.156-.202 1.516-.606.363-.405.545-.98.545-1.727v-.374c0-.726-.171-1.29-.514-1.692-.34-.404-.823-.61-1.45-.615zm4.54 3.283c0-.466.091-.885.273-1.257.184-.372.44-.66.764-.862a2.093 2.093 0 0 1 1.12-.303c.648 0 1.171.224 1.57.673.401.448.602 1.044.602 1.788v.057c0 .463-.09.88-.268 1.248-.176.367-.43.652-.76.857a2.094 2.094 0 0 1 -1.134.308c-.645 0-1.168-.224-1.57-.672-.398-.449-.597-1.042-.597-1.78zm.818.096c0 .528.121.951.364 1.27.246.32.575.48.985.48.413 0 .74-.162.984-.484.243-.325.365-.78.365-1.362 0-.522-.125-.944-.374-1.266a1.173 1.173 0 0 0 -.984-.488c-.401 0-.725.16-.971.48-.246.319-.37.776-.37 1.37zm8.56 1.204.914-3.634h.813l-1.384 4.755h-.66l-1.155-3.604-1.125 3.604h-.66l-1.379-4.755h.809l.936 3.56 1.107-3.56h.655l1.13 3.634zm3.147-3.634.026.598a1.733 1.733 0 0 1 1.424-.686c1.005 0 1.512.567 1.52 1.7v3.143h-.812v-3.146c-.003-.343-.082-.597-.238-.76-.152-.165-.39-.247-.716-.247-.264 0-.495.07-.694.211-.2.14-.355.325-.466.554v3.388h-.813v-4.755zm4.899 4.755h-.813v-6.75h.813zm.91-2.421c0-.466.09-.885.272-1.257.185-.372.44-.66.765-.862a2.094 2.094 0 0 1 1.12-.303c.648 0 1.171.224 1.57.673.4.448.602 1.044.602 1.788v.057c0 .463-.09.88-.269 1.248-.175.367-.429.652-.76.857a2.094 2.094 0 0 1 -1.134.308c-.644 0-1.167-.224-1.569-.672-.398-.449-.597-1.042-.597-1.78zm.817.096c0 .528.122.951.365 1.27.246.32.574.48.984.48.413 0 .742-.162.985-.484.243-.325.365-.78.365-1.362 0-.522-.125-.944-.374-1.266a1.173 1.173 0 0 0 -.984-.488c-.402 0-.725.16-.972.48-.246.319-.369.776-.369 1.37zm7.287 2.325c-.046-.094-.084-.26-.114-.501-.378.393-.829.589-1.353.589-.469 0-.854-.132-1.156-.396a1.296 1.296 0 0 1 -.448-1.01c0-.495.187-.88.562-1.152.378-.275.908-.413 1.591-.413h.791v-.373c0-.284-.085-.51-.255-.677-.17-.17-.42-.255-.751-.255-.29 0-.534.073-.73.22-.196.146-.294.323-.294.531h-.818c0-.237.084-.465.25-.685.17-.223.4-.399.686-.527.29-.13.608-.194.954-.194.548 0 .977.138 1.288.413.31.273.471.65.483 1.13v2.188c0 .437.056.784.167 1.042v.07zm-1.349-.62c.255 0 .497-.066.725-.197.229-.132.395-.304.497-.514v-.976h-.637c-.996 0-1.494.291-1.494.874 0 .255.085.454.255.598s.388.215.654.215zm2.932-1.797c0-.73.173-1.315.518-1.758a1.638 1.638 0 0 1 1.358-.668c.557 0 .998.19 1.323.572v-2.479h.813v6.75h-.747l-.04-.51c-.325.399-.778.598-1.358.598-.55 0-1-.226-1.349-.677-.345-.451-.518-1.04-.518-1.766zm.813.092c0 .54.111.961.334 1.266.222.305.53.457.923.457.515 0 .892-.232 1.129-.694v-2.184c-.243-.449-.617-.673-1.12-.673-.4 0-.71.154-.932.462-.223.307-.334.763-.334 1.366zm9.998.655h-2.681l-.602 1.67h-.87l2.443-6.398h.738l2.448 6.398h-.865zm-2.426-.694h2.175l-1.09-2.993zm5.427-.14v2.504h-.843v-6.398h2.359c.701 0 1.248.178 1.644.536.398.357.598.83.598 1.42 0 .62-.195 1.1-.585 1.436-.387.334-.942.501-1.665.501h-1.508zm0-.69h1.516c.452 0 .797-.106 1.038-.317.24-.214.36-.522.36-.923 0-.38-.12-.686-.36-.914-.241-.229-.57-.347-.989-.356h-1.565zm6.28.219-.782.813v2.162h-.844v-6.398h.844v3.164l2.843-3.164h1.02l-2.518 2.825 2.716 3.573h-1.011zm8.455-2.716v.613h-.133c-.562.01-1.01.177-1.343.5-.334.323-.526.777-.579 1.363.3-.344.709-.515 1.227-.515.495 0 .889.174 1.184.523.297.349.445.8.445 1.352 0 .585-.16 1.054-.481 1.406-.317.351-.744.527-1.281.527-.544 0-.985-.208-1.324-.625-.339-.42-.508-.958-.508-1.617v-.277c0-1.047.223-1.847.668-2.399.448-.555 1.113-.838 1.996-.851zm-.949 2.562c-.247 0-.475.074-.684.223a1.162 1.162 0 0 0 -.433.558v.266c0 .469.105.846.316 1.133.211.286.474.43.789.43.326 0 .581-.12.766-.36.187-.24.281-.553.281-.941 0-.39-.095-.706-.285-.946a.902.902 0 0 0 -.75-.363zm2.535 2.75c0-.125.037-.23.11-.312.075-.084.187-.125.336-.125.148 0 .26.041.336.125a.44.44 0 0 1 .117.312c0 .12-.039.22-.117.3-.076.082-.188.122-.336.122-.149 0-.261-.04-.336-.121a.432.432 0 0 1 -.11-.3zm5.426-2.047c0 .847-.144 1.476-.433 1.887s-.741.617-1.356.617c-.607 0-1.056-.2-1.348-.601-.291-.404-.442-1.006-.453-1.805v-.965c0-.836.145-1.457.434-1.863s.742-.61 1.359-.61c.612 0 1.063.197 1.352.59.289.39.437.995.445 1.813zm-.722-.988c0-.612-.086-1.057-.258-1.336-.172-.281-.444-.422-.817-.422-.369 0-.639.14-.808.418-.17.279-.257.707-.262 1.285v1.156c0 .615.089 1.07.266 1.364.179.291.45.437.812.437.357 0 .621-.138.793-.414.175-.276.266-.71.274-1.304zm3.633.363h1.585v.684h-1.585v1.797h-.727v-1.797h-1.586v-.684h1.586v-1.66h.727zm-65.094 17.403h-4.406l-.922 2.648h-2.054l4.297-11.375h1.773l4.305 11.375h-2.063zm-3.851-1.594h3.297l-1.649-4.719zm9.344-4.211.054.976c.625-.755 1.446-1.132 2.461-1.132 1.76 0 2.656 1.007 2.688 3.023v5.586h-1.899v-5.477c0-.536-.117-.932-.351-1.187-.23-.26-.607-.39-1.133-.39-.766 0-1.336.346-1.711 1.038v6.016h-1.898v-8.453zm6.789 4.164c0-1.302.302-2.346.906-3.133.604-.791 1.414-1.187 2.43-1.187.895 0 1.62.312 2.171.937v-4.328h1.899v12h-1.719l-.094-.875c-.567.688-1.325 1.031-2.273 1.031-.99 0-1.792-.398-2.406-1.195-.61-.797-.914-1.88-.914-3.25zm1.898.164c0 .86.164 1.531.492 2.016.334.479.805.718 1.414.718.776 0 1.344-.346 1.704-1.039v-3.61c-.35-.676-.912-1.015-1.688-1.015-.615 0-1.088.245-1.422.735-.333.484-.5 1.216-.5 2.195zm11.914-2.594a4.705 4.705 0 0 0 -.773-.062c-.87 0-1.456.333-1.758 1v5.781h-1.898v-8.453h1.812l.047.945c.458-.734 1.094-1.101 1.906-1.101.271 0 .495.036.672.109zm.563 2.414c0-.828.164-1.573.492-2.234.328-.667.789-1.177 1.383-1.531.593-.36 1.276-.54 2.047-.54 1.14 0 2.065.368 2.773 1.102.713.735 1.099 1.709 1.156 2.922l.008.445c0 .834-.161 1.578-.484 2.235a3.52 3.52 0 0 1 -1.375 1.523c-.594.36-1.282.54-2.063.54-1.193 0-2.148-.397-2.867-1.188-.713-.797-1.07-1.857-1.07-3.18zm1.898.164c0 .87.18 1.552.54 2.047.359.49.859.735 1.5.735.64 0 1.137-.25 1.491-.75.36-.5.54-1.232.54-2.196 0-.854-.186-1.53-.555-2.03-.365-.5-.862-.75-1.492-.75-.62 0-1.112.247-1.477.741-.365.49-.547 1.224-.547 2.203zm9.586 4.141h-1.898v-8.453h1.898zm-2.016-10.648c0-.292.092-.534.274-.727.187-.193.453-.29.797-.29s.61.097.797.29a1 1 0 0 1 .28.727.99.99 0 0 1 -.28.718c-.188.188-.454.282-.797.282-.344 0-.61-.094-.797-.282a1.005 1.005 0 0 1 -.274-.718zm3.735 6.359c0-1.302.302-2.346.906-3.133.604-.791 1.414-1.187 2.43-1.187.896 0 1.62.312 2.172.937v-4.328h1.898v12h-1.719l-.093-.875c-.568.688-1.326 1.031-2.274 1.031-.989 0-1.792-.398-2.406-1.195-.609-.797-.914-1.88-.914-3.25zm1.898.164c0 .86.164 1.531.492 2.016.334.479.805.718 1.415.718.776 0 1.343-.346 1.703-1.039v-3.61c-.349-.676-.912-1.015-1.688-1.015-.614 0-1.088.245-1.422.735-.333.484-.5 1.216-.5 2.195z" fill="#fff"/><path d="m33.253 24.523a1.042 1.042 0 0 1 0-2.082 1.042 1.042 0 0 1 0 2.082zm-11.506 0a1.042 1.042 0 0 1 0-2.082 1.042 1.042 0 0 1 0 2.082zm11.88-6.27 2.08-3.604a.433.433 0 0 0 -.75-.433l-2.106 3.65a12.843 12.843 0 0 0 -5.351-1.146c-1.93 0-3.74.41-5.35 1.144l-2.107-3.649a.433.433 0 0 0 -.75.433l2.08 3.604c-3.572 1.942-6.016 5.56-6.373 9.832h25c-.358-4.273-2.801-7.89-6.373-9.832z" fill="#3ddb85"/></svg>