<svg fill="none" xmlns="http://www.w3.org/2000/svg" viewBox="0 0 150 150">
    <path d="M77.246 147.273c40.181 0 72.754-32.968 72.754-73.637C150 32.968 117.427 0 77.246 0 37.065 0 4.49 32.968 4.49 73.636c0 40.669 32.574 73.637 72.755 73.637z" fill="#32353E"/>
    <path fill-rule="evenodd" clip-rule="evenodd" d="M57.265 31.818H44.463c-4.678 0-8.535 3.888-8.535 8.604V92.54a27.61 27.61 0 00-6.287-.722c-15.378 0-27.845 12.618-27.845 28.182 0 15.565 12.467 28.182 27.845 28.182 15.378 0 27.844-12.617 27.844-28.182 0-1.866-.18-3.69-.521-5.454h52.166c4.678 0 8.535-3.889 8.535-8.604V54.155L97.066 34.879v11.334c0 3.392-2.872 6.287-6.237 6.287H63.502c-3.365 0-6.237-2.895-6.237-6.287V31.818z" fill="#000"/>
    <path fill-rule="evenodd" clip-rule="evenodd" d="M59.061 30v16.213c0 2.38 2.062 4.469 4.44 4.469H90.83c2.38 0 4.44-2.089 4.44-4.47v-15.49l24.192 22.637v52.583c0 5.726-4.668 10.422-10.331 10.422H59.066c.142 1.192.215 2.406.215 3.636 0 16.569-13.27 30-29.64 30S0 136.569 0 120c0-16.569 13.27-30 29.64-30 1.526 0 3.026.117 4.492.342v-49.92C34.132 34.695 38.8 30 44.462 30h14.6zM35.928 92.54a27.45 27.45 0 00-6.287-.722c-15.378 0-27.845 12.618-27.845 28.182 0 15.564 12.467 28.182 27.845 28.182 15.378 0 27.844-12.618 27.844-28.182a28.786 28.786 0 00-.521-5.455h52.166c4.678 0 8.535-3.888 8.535-8.603V54.155L97.066 34.879v11.334c0 3.392-2.872 6.287-6.237 6.287H63.502c-3.365 0-6.237-2.895-6.237-6.287V31.818H44.463c-4.678 0-8.535 3.888-8.535 8.604V92.54z" fill="#AAB0CF"/>
    <path fill-rule="evenodd" clip-rule="evenodd" d="M44.463 32.727c-4.185 0-7.637 3.485-7.637 7.695v65.52c0 4.21 3.452 7.694 7.637 7.694h64.667c4.185 0 7.636-3.484 7.636-7.694v-51.39L97.964 36.958v9.255c0 3.897-3.277 7.196-7.135 7.196H63.502c-3.858 0-7.135-3.299-7.135-7.196V32.727H44.463zm-9.433 7.695c0-5.221 4.262-9.513 9.433-9.513h13.7v15.304c0 2.886 2.467 5.378 5.339 5.378h27.327c2.872 0 5.339-2.492 5.339-5.378V32.8l22.395 20.957v52.185c0 5.221-4.263 9.513-9.433 9.513H44.463c-5.17 0-9.433-4.292-9.433-9.513v-65.52z" fill="#AAB0CF"/>
    <path d="M29.64 148.182c15.379 0 27.845-12.617 27.845-28.182 0-15.564-12.466-28.182-27.844-28.182-15.378 0-27.845 12.618-27.845 28.182 0 15.565 12.467 28.182 27.845 28.182z" fill="#000"/>
    <path fill-rule="evenodd" clip-rule="evenodd" d="M29.64 147.273c14.883 0 26.947-12.211 26.947-27.273S44.523 92.728 29.64 92.728c-14.882 0-26.946 12.21-26.946 27.272 0 15.062 12.064 27.273 26.946 27.273zM57.486 120c0 15.565-12.466 28.182-27.844 28.182-15.378 0-27.845-12.617-27.845-28.182 0-15.564 12.467-28.182 27.845-28.182 15.378 0 27.844 12.618 27.844 28.182z" fill="#AAB0CF"/>
    <path d="M72.775 30.248V42.74c0 3.557-2.872 6.37-6.319 6.37s-6.483-2.896-6.483-6.37V30.248h12.802z" fill="#4A5B90"/>
    <path fill-rule="evenodd" clip-rule="evenodd" d="M75.47 29.339v13.4c0 4.071-3.286 7.28-7.218 7.28-3.909 0-7.38-3.27-7.38-7.28v-13.4H75.47zm-.899.909H61.77V42.74c0 3.474 3.037 6.37 6.483 6.37 3.447 0 6.32-2.813 6.32-6.37V30.248z" fill="#AAB0CF"/>
    <path d="M59.281 89.862c0-1.963 1.237-3.499 2.817-3.499L95.209 110H59.281V89.862z" fill="#1A1F31"/>
    <path fill-rule="evenodd" clip-rule="evenodd" d="M58.383 110.909V89.862c0-2.282 1.476-4.408 3.715-4.408h30.226c2.296 0 3.784 2.11 3.784 4.408v21.047H58.383zM95.21 89.862c0-1.963-1.237-3.499-2.886-3.499H62.098c-1.58 0-2.816 1.536-2.816 3.499V110H95.21V89.862z" fill="#AAB0CF"/>
    <rect x="59.68" y="59.5" width="36.03" height="23.727" rx="4.5" fill="#AC7200" stroke="#AAB0CF"/>
    <path fill-rule="evenodd" clip-rule="evenodd" d="M63.773 65.455c0-.502.402-.91.898-.91h26.047c.497 0 .899.408.899.91s-.402.91-.898.91H64.67a.904.904 0 01-.899-.91zM63.773 70.91c0-.503.402-.91.898-.91h26.047c.497 0 .899.407.899.91 0 .501-.402.908-.898.908H64.67a.904.904 0 01-.899-.909zM63.773 76.363c0-.502.402-.909.898-.909h12.575c.496 0 .898.407.898.91 0 .501-.402.908-.898.908H64.67a.904.904 0 01-.899-.909z" fill="#000"/>
    <path fill-rule="evenodd" clip-rule="evenodd" d="M29.64 140c10.914 0 19.761-8.954 19.761-20s-8.847-20-19.76-20c-10.914 0-19.76 8.954-19.76 20s8.846 20 19.76 20z" fill="#417638"/>
    <path fill-rule="evenodd" clip-rule="evenodd" d="M53.106 120c0 13.117-10.506 23.75-23.465 23.75-12.96 0-23.466-10.633-23.466-23.75s10.506-23.75 23.466-23.75S53.106 106.883 53.106 120zm-3.705 0c0 11.046-8.847 20-19.76 20-10.914 0-19.76-8.954-19.76-20s8.846-20 19.76-20c10.913 0 19.76 8.954 19.76 20z" fill="#434B6D"/>
    <path d="M38.896 111.029l-1.308 1.336c-3.607 3.658-7.455 7.811-11.058 11.52l-4.979-4.148-1.435-1.196-2.35 2.895 1.423 1.195 6.299 5.25 1.308 1.09 1.181-1.207c3.99-4.047 8.314-8.78 12.227-12.75l1.309-1.336-2.617-2.649z" fill="#000"/>
</svg>