<svg width="166" height="38" xmlns="http://www.w3.org/2000/svg"><g fill-rule="nonzero" fill="none"><path d="M32.9 5.5l-11.4 27h-7.3L8.5 11C8.2 9.6 8 9.1 7 8.6 5.2 7.6 2.4 6.8 0 6.3l.2-.8H12c1.5 0 2.9 1 3.2 2.7l3 15.7 7.3-18.4h7.3zm29 18.2c0-7.1-9.9-7.5-9.8-10.7 0-1 1-2 3-2.3 1 0 3.7-.2 6.8 1.2l1.3-5.7A19 19 0 0056.6 5c-6.9 0-11.8 3.7-11.8 9 0 3.8 3.5 6 6.1 7.3 2.8 1.4 3.7 2.2 3.7 3.4 0 1.8-2.2 2.6-4.2 2.6-3.5 0-5.6-1-7.2-1.7l-1.2 6c1.6.7 4.6 1.4 7.7 1.4C57 33 62 29.3 62 23.7zm18.2 8.8h6.5L81 5.5h-6c-1.3 0-2.5.7-3 2l-10.5 25h7.3l1.5-4h9l.8 4zM72.3 23L76 12.8l2.1 10.1h-5.8zM43 5.5l-5.8 27h-7l5.8-27h7z" fill="#FFF"/><path d="M164.9 30.8V30h-.2l-.2.5-.3-.5h-.1v.8-.6l.3.5h.1l.2-.5v.6h.2zm-1.2 0v-.6h.2V30h-.6v.2h.2v.6h.2z" fill="#F79410"/><path fill="#FF5F00" d="M143 34h-16.6V4H143z"/><path d="M127.5 19a19 19 0 017.2-15 19 19 0 100 29.9 19 19 0 01-7.2-14.9z" fill="#EB001B"/><path d="M165.5 19a19 19 0 01-30.8 15 19 19 0 000-30 19 19 0 0130.7 15z" fill="#F79E1B"/></g></svg>
