<svg fill="none" xmlns="http://www.w3.org/2000/svg" viewBox="0 0 24 24">
    <path d="M6 3C4.355 3 3 4.355 3 6v13a2 2 0 002 2h14a2 2 0 002-2V9a2 2 0 00-2-2H6c-.565 0-1-.435-1-1s.435-1 1-1h14V3H6zm12 10a1 1 0 110 2 1 1 0 010-2z" fill="#656565"/>
    <g clip-path="url(#clip0)">
        <path fill-rule="evenodd" clip-rule="evenodd" d="M12.336 14.393l-.049-.056-2.917-2.916a.583.583 0 00-.77-.049l-.054.049-2.917 2.917a.583.583 0 00.77.873l.055-.049 1.921-1.92v6.175a.583.583 0 001.166 0v-6.174l1.921 1.92c.21.21.541.226.77.048l.055-.049a.584.584 0 00.049-.77z" fill="#fff"/>
    </g>
    <defs>
        <clipPath id="clip0">
            <path fill="#fff" transform="translate(4 11.25)" d="M0 0h8.75v8.75H0z"/>
        </clipPath>
    </defs>
</svg>