<?xml version="1.0" encoding="UTF-8"?>
<svg width="286px" height="306px" viewBox="0 0 286 306" version="1.1" xmlns="http://www.w3.org/2000/svg" xmlns:xlink="http://www.w3.org/1999/xlink">
    <title>leader spring 2021 white</title>
    <defs>
        <linearGradient x1="37.6306555%" y1="89.8724728%" x2="238.89587%" y2="224.953%" id="linearGradient-1">
            <stop stop-color="#C2C2BD" offset="0%"></stop>
            <stop stop-color="#F06A2A" offset="100%"></stop>
        </linearGradient>
        <linearGradient x1="69.0378053%" y1="15.9493659%" x2="48.0841009%" y2="0%" id="linearGradient-2">
            <stop stop-color="#FFFFFF" offset="0%"></stop>
            <stop stop-color="#E7E7E7" offset="100%"></stop>
        </linearGradient>
        <linearGradient x1="38.9751038%" y1="33.8289283%" x2="62.4620037%" y2="104.559927%" id="linearGradient-3">
            <stop stop-color="#FFFFFF" offset="0%"></stop>
            <stop stop-color="#F3F3F3" offset="100%"></stop>
        </linearGradient>
        <linearGradient x1="-23.8878218%" y1="50.8770231%" x2="-111.319272%" y2="25.6719711%" id="linearGradient-4">
            <stop stop-color="#1F0E06" offset="0%"></stop>
            <stop stop-color="#DDDDDD" offset="100%"></stop>
        </linearGradient>
        <linearGradient x1="198.040385%" y1="38.5897707%" x2="77.3770612%" y2="50%" id="linearGradient-5">
            <stop stop-color="#FFCB00" offset="0%"></stop>
            <stop stop-color="#F06A2B" offset="100%"></stop>
        </linearGradient>
        <linearGradient x1="-81.751479%" y1="43.3407581%" x2="50%" y2="50%" id="linearGradient-6">
            <stop stop-color="#FFCB00" offset="0%"></stop>
            <stop stop-color="#F06A2B" offset="100%"></stop>
        </linearGradient>
    </defs>
    <g id="leader-spring-2021-white" stroke="none" stroke-width="1" fill="none" fill-rule="evenodd">
        <g id="White-leader-badge-3" transform="translate(0.000000, 3.000000)">
            <g id="White-leader-badge-2">
                <g id="White-leader-badge">
                    <g id="Group-6">
                        <g id="Group-5">
                            <g id="shield">
                                <path d="M-2.84217094e-14,211.193202 L-2.84217094e-14,22.9543053 C-2.94312673e-14,21.9631671 0.725912036,21.1215329 1.70630551,20.975987 L142.706306,0.0436008976 C142.901035,0.0146920477 143.098965,0.0146920477 143.293694,0.0436008976 L284.293694,20.975987 C285.274088,21.1215329 286,21.9631671 286,22.9543053 L286,211.193202 C286,211.878039 285.649594,212.515261 285.071287,212.88209 L144.071287,302.320467 C143.417329,302.735282 142.582671,302.735282 141.928713,302.320467 L0.928713132,212.88209 C0.350405661,212.515261 -6.57746969e-15,211.878039 -2.84217094e-14,211.193202 Z" id="Fill-161" fill="url(#linearGradient-1)"></path>
                                <path d="M280.551174,28.2695352 C280.451885,27.6067511 279.837638,26.383298 279.388313,25.9555711 L144.932432,5.78980892 C144.787706,5.73200798 144.678999,5.78980892 143,5.78980892 C141.321001,5.78980892 141.067568,5.78980892 141.067568,5.78980892 L6.35488762,25.9555711 C5.90892781,26.3794446 5.29636415,27.5951909 5.19539211,28.2502682 L5.19539211,207.198108 C5.29299841,207.858965 5.91061068,209.078565 6.35993622,209.502438 L143,297.210191 L279.391679,209.490878 C279.837638,209.070858 280.443471,207.862818 280.54276,207.213521 L280.551174,28.2695352 Z" id="Fill-162" fill="#F06A2B"></path>
                                <polygon id="Fill-163" fill="url(#linearGradient-2)" points="11.9113868 30.878014 11.9113868 204.581951 143 291.420382 273.826761 204.578083 273.835179 30.8799478 143 11.5796178"></polygon>
                                <polygon id="Fill-163" fill="url(#linearGradient-3)" points="11.5945946 204.573248 143 291.420382 143 11.5796178 11.9113868 30.8789809"></polygon>
                            </g>
                            <text id="Leader" fill="url(#linearGradient-4)" font-family="Helvetica-Bold, Helvetica, Arial" font-size="71" font-weight="bold">
                                <tspan x="28" y="106">Leader</tspan>
                            </text>
                        </g>
                        <polygon id="Fill-18-Copy-4" fill="#FFCB00" points="256.688411 126.235669 259.674912 132.588165 266.351351 133.607963 261.519103 138.551699 262.661412 145.535032 256.688411 142.238663 250.716966 145.535032 251.857719 138.551699 247.027027 133.607963 253.703467 132.588165"></polygon>
                        <polygon id="Fill-18-Copy-4" fill="#FFCB00" points="28.661384 126.235669 31.6478847 132.588165 38.3243243 133.607963 33.492076 138.551699 34.6343853 145.535032 28.661384 142.238663 22.689939 145.535032 23.830692 138.551699 19 133.607963 25.6764397 132.588165"></polygon>
                        <g id="Sash-and-text" transform="translate(17.391892, 164.044586)" fill="url(#linearGradient-5)">
                            <polygon id="Rectangle" points="0 0 251.216216 0 251.216216 37.4290677 211.963682 61.7579618 39.2525338 61.7579618 0 37.4290677"></polygon>
                        </g>
                        <g id="Sash-and-text" transform="translate(17.391892, 164.044586)"></g>
                        <polygon id="Rectangle" fill="url(#linearGradient-6)" points="17.3918919 164.044586 268.608108 164.044586 56.6444257 225.802548 17.3918919 201.473654"></polygon>
                    </g>
                    <text id="Spring" fill="#FFFFFF" font-family="Helvetica, Arial" font-size="52" font-weight="normal" letter-spacing="-1.300001">
                        <tspan x="72.243753" y="211">Spring</tspan>
                    </text>
                    <text id="2021" font-family="Helvetica-Bold, Helvetica, Arial" font-size="29" font-weight="bold" letter-spacing="-0.725000558" fill="#000000">
                        <tspan x="112.193165" y="258">2023</tspan>
                    </text>
                </g>
            </g>
            <g id="SourceForge-Logo-White-vector" transform="translate(45.675676, 126.000000)" fill="#000000">
                <path d="M12.0194745,2.77814939 C11.935085,2.93812709 11.8145286,3.02006689 11.6095827,3.02006689 C11.4890263,3.02006689 11.3242658,2.93812709 11.1193199,2.73913043 C10.9183926,2.54013378 10.6290572,2.34503902 10.3035549,2.14604236 C9.93384853,1.90412486 9.52395672,1.7090301 8.9935085,1.5490524 C8.46306028,1.35005574 7.80803709,1.26811594 7.0324575,1.26811594 C6.25285935,1.26811594 5.60185471,1.39297659 4.987017,1.58807135 C4.41638331,1.787068 3.92612056,2.10312152 3.51622875,2.46209588 C3.10633694,2.82107023 2.82102009,3.2541806 2.61607419,3.73021182 C2.41112828,4.20624303 2.29057187,4.72519509 2.29057187,5.24024526 C2.29057187,5.95429208 2.4553323,6.5122631 2.7366306,6.98829431 C3.025966,7.42140468 3.43585781,7.81939799 3.96630603,8.1393534 C4.45656878,8.45540691 5.02720247,8.73244147 5.68222566,8.93143813 C6.33724884,9.17335563 6.99227202,9.36845039 7.64729521,9.56744705 C8.29829985,9.7664437 8.95332303,10.0044593 9.60834621,10.2814939 C10.2633694,10.5195095 10.7938176,10.8784838 11.3242658,11.2335563 C11.8547141,11.5925307 12.2244204,12.1114827 12.5499227,12.6616499 C12.8392581,13.219621 13,13.9336678 13,14.7686734 C13,15.6426979 12.8392581,16.4347826 12.5499227,17.1878484 C12.2646059,17.9448161 11.8145286,18.6198439 11.2438949,19.173913 C10.6732612,19.7318841 9.93384853,20.1649944 9.11808346,20.5239688 C8.25811437,20.8400223 7.31777434,21 6.25285935,21 C4.86646059,21 3.64080371,20.7619844 2.65625966,20.2859532 C1.63554869,19.809922 0.775579598,19.1309922 0,18.3037904 L0.409891808,17.6638796 C0.530448223,17.5039019 0.655023184,17.4687848 0.81576507,17.4687848 C0.90015456,17.4687848 1.02071097,17.5039019 1.14528594,17.6287625 C1.26584235,17.7458194 1.47078825,17.9057971 1.63554869,18.0618729 C1.84049459,18.2218506 2.08562597,18.4208473 2.37094281,18.6198439 C2.65625966,18.8149387 2.98176198,19.0139353 3.35146832,19.173913 C3.72117465,19.3338907 4.13106646,19.4899666 4.62132921,19.6070234 C5.11159196,19.7318841 5.64204019,19.7670011 6.25285935,19.7670011 C7.11282844,19.7670011 7.84822257,19.6499443 8.50324575,19.4119287 C9.15826893,19.173913 9.72890263,18.8149387 10.1789799,18.4208473 C10.6290572,18.022854 10.9987635,17.4687848 11.2438949,16.9108138 C11.4890263,16.3177258 11.6095827,15.6817168 11.6095827,15.0457079 C11.6095827,14.3316611 11.4448223,13.738573 11.163524,13.2625418 C10.8741886,12.7826087 10.4642968,12.3846154 9.93384853,12.0685619 C9.44358578,11.7525084 8.87295209,11.4754738 8.2179289,11.2764771 C7.56290572,11.0774805 6.91190108,10.835563 6.25285935,10.6404682 C5.60185471,10.4414716 4.94683153,10.1995541 4.29180835,9.96544036 C3.64080371,9.72352285 3.10633694,9.40746934 2.57588872,9.01337793 C2.08562597,8.61538462 1.67573416,8.1393534 1.35023184,7.54236343 C1.06089645,6.94537347 0.90015456,6.23522854 0.90015456,5.31828317 C0.90015456,4.64715719 1.02071097,3.97212932 1.30602782,3.3361204 C1.59536321,2.69620959 1.96506955,2.14604236 2.49149923,1.6270903 C3.025966,1.15105909 3.64080371,0.753065775 4.41638331,0.437012263 C5.19196291,0.159977703 6.05193199,0 7.0324575,0 C8.13755796,0 9.11808346,0.159977703 10.0142195,0.518952062 C10.8741886,0.874024526 11.6899536,1.39297659 12.4293663,2.06410256 L12.0194745,2.77814939 Z" id="Fill-953"></path>
                <path d="M32.6896552,10.4980621 C32.6896552,9.07953227 32.4927792,7.77727536 32.0990272,6.6339248 C31.7091355,5.49057425 31.1571107,4.54488768 30.4506733,3.75810747 C29.7442359,2.96745149 28.8795257,2.3744595 27.8604029,1.94424963 C26.8374198,1.51016399 25.7372305,1.3125 24.5212317,1.3125 C23.3013726,1.3125 22.2050436,1.51016399 21.1820605,1.94424963 C20.1590774,2.3744595 19.2982275,2.96745149 18.5917901,3.75810747 C17.8853528,4.54488768 17.2947248,5.49057425 16.9009728,6.6339248 C16.5072208,7.77727536 16.3103448,9.04077463 16.3103448,10.4980621 C16.3103448,11.916592 16.5072208,13.2188489 16.9009728,14.3621994 C17.2947248,15.50555 17.8428893,16.4512366 18.5917901,17.2418925 C19.2982275,18.0286727 20.1590774,18.6216647 21.1820605,19.0557504 C22.2050436,19.4859602 23.3013726,19.6875 24.5212317,19.6875 C25.7372305,19.6875 26.876023,19.4859602 27.8604029,19.0557504 C28.8795257,18.6604224 29.7442359,18.0286727 30.4506733,17.2418925 C31.1571107,16.4512366 31.7091355,15.50555 32.0990272,14.3621994 C32.4927792,13.2188489 32.6896552,11.9592254 32.6896552,10.4980621 M34,10.5 C34,12.0792683 33.7698113,13.4994457 33.309434,14.8032151 C32.8490566,16.1069845 32.1962264,17.20898 31.354717,18.1208426 C30.509434,19.0249446 29.5132075,19.7389135 28.3584906,20.2511086 C27.2075472,20.767184 25.9018868,21 24.4830189,21 C23.0981132,21 21.7962264,20.767184 20.6415094,20.2511086 C19.490566,19.7389135 18.4943396,19.0676275 17.645283,18.1208426 C16.8037736,17.20898 16.1509434,16.1069845 15.690566,14.8032151 C15.2301887,13.4994457 15,12.0792683 15,10.5 C15,8.92461197 15.2301887,7.50055432 15.690566,6.20066519 C16.1509434,4.89689579 16.8037736,3.79101996 17.645283,2.88303769 C18.4943396,1.97505543 19.490566,1.26108647 20.6415094,0.748891353 C21.7962264,0.236696231 23.0981132,0 24.4830189,0 C25.9018868,0 27.2075472,0.236696231 28.3584906,0.748891353 C29.5132075,1.26108647 30.509434,1.93625277 31.354717,2.88303769 C32.1962264,3.79101996 32.8490566,4.89689579 33.309434,6.20066519 C33.7698113,7.50055432 34,8.92461197 34,10.5" id="Fill-955"></path>
                <path d="M44.5392866,19.6828309 C45.4896483,19.6828309 46.3277625,19.5216252 47.0910451,19.1598952 C47.8505862,18.7981651 48.460464,18.3184797 48.9917685,17.7208388 C49.5268147,17.1231979 49.9047144,16.3604194 50.1703667,15.5622543 C50.4397605,14.7208388 50.5894238,13.8440367 50.5894238,12.8414155 L50.5894238,0 L52,0 L52,12.8414155 C52,14.0013106 51.8091793,15.0393185 51.4686954,16.0419397 C51.1244699,17.0406291 50.6268396,17.8820446 49.9832876,18.6408912 C49.335994,19.3604194 48.5352956,19.9619921 47.6223497,20.3630406 C46.7094038,20.7601573 45.6430531,21 44.5018708,21 C43.3606885,21 42.2905962,20.7994758 41.3776503,20.3630406 C40.4647044,19.9226737 39.6677476,19.3604194 39.0167124,18.6408912 C38.3731604,17.921363 37.8755301,17.0406291 37.5350461,16.0419397 C37.1908207,15.0393185 37,13.9619921 37,12.8414155 L37,0 L38.447992,0 L38.447992,12.802097 C38.447992,13.7614679 38.6013969,14.6815203 38.8670491,15.5190039 C39.1327014,16.3604194 39.5517585,17.0799476 40.0456473,17.6815203 C40.5806934,18.2830931 41.1868296,18.7627785 41.9501122,19.1205767 C42.7096533,19.5216252 43.5889249,19.6828309 44.5392866,19.6828309" id="Fill-957"></path>
                <path d="M59.290969,9.86363636 L59.6950316,9.86363636 L60.6744441,9.86363636 C61.7021685,9.86363636 62.6420533,9.75 63.4457864,9.55681818 C64.2495196,9.3219697 64.9654131,9.0530303 65.5012352,8.63257576 C66.0809772,8.24242424 66.4850398,7.74242424 66.7968707,7.20454545 C67.1087016,6.66287879 67.2448531,6.00757576 67.2448531,5.31818182 C67.2448531,3.89015152 66.709031,2.84848485 65.6373868,2.15530303 C64.5657425,1.46212121 62.997804,1.11363636 60.8984354,1.11363636 L56.6557782,1.11363636 L56.6557782,9.86363636 L56.6557782,10.9431818 L56.6557782,20 L55,20 L55,0 L60.8984354,0 C63.581938,0 65.5934669,0.462121212 66.8847104,1.34848485 C68.2286577,2.23106061 68.8523195,3.54166667 68.8523195,5.27651515 C68.8523195,6.04924242 68.716168,6.74242424 68.4087291,7.35984848 C68.0925062,7.97348485 67.6445237,8.5530303 67.0647818,9.01515152 C66.4850398,9.47727273 65.8130662,9.90151515 65.009333,10.1704545 C64.2055998,10.4810606 63.2657151,10.6742424 62.2863025,10.7878788 C62.5542136,10.9431818 62.7738128,11.1363636 62.997804,11.3636364 L71,20 L69.5242932,20 C69.3442218,20 69.2124623,19.9583333 69.0763107,19.9204545 C68.9445512,19.8863636 68.8083997,19.7651515 68.716168,19.6515152 L61.3024979,11.5568182 C61.1224266,11.3636364 60.8984354,11.2121212 60.722756,11.1363636 C60.4987648,11.0568182 59.1987373,11.0227273 58.7551469,11.0227273 C58.7551469,9.97727273 58.9308262,9.86363636 59.290969,9.86363636" id="Fill-959"></path>
                <path d="M85.2190651,17.3224732 C85.2960587,17.3224732 85.4060495,17.3652351 85.4427131,17.4390966 L86,18.0727508 C85.5930339,18.5120326 85.1824015,18.9435394 84.6947754,19.3011847 C84.2108158,19.6588301 83.6901925,19.9737134 83.1292392,20.2108478 C82.5719523,20.4479822 81.9340055,20.6423547 81.3033914,20.8056275 C80.6324473,20.965013 79.8845096,21 79.1035747,21 C77.7580202,21 76.5261228,20.7628656 75.4078827,20.2497223 C74.2896425,19.736579 73.3180568,19.0601629 72.5371219,18.1116253 C71.7525206,17.2058497 71.1182401,16.0979267 70.6709441,14.7917438 C70.223648,13.4894484 70,12.0627545 70,10.4805628 C70,8.94113291 70.223648,7.5144391 70.7076077,6.21214365 C71.1585701,4.90596076 71.8295142,3.83691225 72.6471127,2.88837468 C73.4683776,1.97871159 74.4766269,1.26342096 75.6315307,0.750277675 C76.7901008,0.237134395 78.0953254,0 79.4738772,0 C80.1814849,0 80.8157654,0.0388744909 81.4133822,0.159385413 C82.0109991,0.276008886 82.5352887,0.435394298 83.055912,0.633654202 C83.5765353,0.831914106 84.0238313,1.10792299 84.4711274,1.42280637 C84.9184235,1.73768974 85.3693859,2.09533506 85.776352,2.49185487 L85.3693859,3.12550907 C85.2960587,3.24213254 85.1824015,3.28489448 85.0320807,3.28489448 C84.9587534,3.28489448 84.8450962,3.24213254 84.7351054,3.12550907 C84.6214482,3.00499815 84.4344638,2.88837468 84.2474794,2.72898926 C84.0641613,2.56960385 83.8001833,2.41410589 83.5398717,2.25472047 C83.27956,2.05646057 82.9422548,1.89707516 82.5352887,1.78045168 C82.1613199,1.62106627 81.7103575,1.5044428 81.1897342,1.38393188 C80.7057745,1.26342096 80.1081577,1.22454646 79.4738772,1.22454646 C78.2786434,1.22454646 77.1970669,1.42280637 76.2291476,1.85820067 C75.2612282,2.29359496 74.4032997,2.88837468 73.6920257,3.71640133 C72.984418,4.50944095 72.4234647,5.49685302 72.0128323,6.60477601 C71.6058662,7.712699 71.4188818,9.01499445 71.4188818,10.4378008 C71.4188818,11.9033691 71.6058662,13.1706775 72.0128323,14.317475 C72.4234647,15.460385 72.9477544,16.4128101 73.6553621,17.2058497 C74.3666361,17.9950019 75.1842346,18.5858941 76.1191567,19.0212884 C77.0504125,19.4605702 78.0953254,19.6588301 79.1769019,19.6588301 C79.8845096,19.6588301 80.4821265,19.6160681 81.0394134,19.4994447 C81.6003666,19.4178082 82.0879927,19.2623103 82.5352887,19.0601629 C82.9825848,18.861903 83.4298808,18.6286561 83.8001833,18.3526472 C84.2108158,18.0727508 84.5847846,17.7578675 84.9587534,17.3652351 C84.995417,17.3224732 85.0320807,17.2835987 85.0687443,17.2835987 C85.1054079,17.3652351 85.1824015,17.3224732 85.2190651,17.3224732" id="Fill-961"></path>
                <polygon id="Fill-963" points="103 0 103 1.19544592 90.7123894 1.19544592 90.7123894 9.30550285 100.929204 9.30550285 100.929204 10.4629981 90.7123894 10.4629981 90.7123894 18.8045541 103 18.8045541 103 20 89 20 89 0"></polygon>
                <polygon id="Fill-965" points="120 0 120 3.12939652 109.445262 3.12939652 109.445262 9.33376527 118.3402 9.33376527 118.3402 12.4592743 109.445262 12.4592743 109.445262 21 105 21 105 0.04276194 120 0.04276194"></polygon>
                <path d="M138.0625,10.5 C138.0625,9.38037263 137.905566,8.37460568 137.591699,7.49028983 C137.28166,6.60217863 136.856791,5.83172319 136.309438,5.20928628 C135.762084,4.59064472 135.061625,4.12761238 134.246336,3.7822358 C133.42722,3.43685923 132.531551,3.28125 131.521052,3.28125 C130.506726,3.28125 129.611056,3.43685923 128.795768,3.7822358 C127.976651,4.12761238 127.314469,4.59064472 126.728839,5.20928628 C126.147036,5.83172319 125.71834,6.60217863 125.404473,7.49028983 C125.094434,8.37460568 124.9375,9.38037263 124.9375,10.5 C124.9375,11.6196274 125.094434,12.6253943 125.404473,13.5135055 C125.71834,14.3978214 126.147036,15.1720722 126.728839,15.7907137 C127.314469,16.4093553 127.976651,16.8723876 128.795768,17.2215595 C129.611056,17.5669361 130.506726,17.71875 131.521052,17.71875 C132.531551,17.71875 133.42722,17.5669361 134.246336,17.2215595 C135.061625,16.8723876 135.723808,16.4093553 136.309438,15.7907137 C136.856791,15.1720722 137.28166,14.3978214 137.591699,13.5135055 C137.905566,12.6253943 138.0625,11.6196274 138.0625,10.5 M142,10.5 C142,12.0119695 141.765942,13.4096844 141.259456,14.6855277 C140.752969,15.9651795 140.050795,17.0848749 139.110725,18.0179543 C138.2167,18.9472252 137.08478,19.6822633 135.795542,20.226877 C134.506304,20.7676823 133.063585,21 131.501919,21 C129.940252,21 128.493696,20.7334059 127.204458,20.226877 C125.919057,19.6822633 124.825507,18.9891186 123.889275,18.0179543 C122.949205,17.0848749 122.247031,15.9651795 121.740544,14.6855277 C121.234058,13.4096844 121,12.0119695 121,10.5 C121,8.99183896 121.234058,7.59412405 121.740544,6.31447225 C122.247031,5.03482046 122.949205,3.91512514 123.889275,2.9820457 C124.825507,2.05277476 125.919057,1.31773667 127.204458,0.77312296 C128.493696,0.232317737 129.940252,0 131.501919,0 C133.063585,0 134.506304,0.270402612 135.795542,0.815016322 C137.08478,1.35963003 138.174493,2.09466812 139.110725,3.02393906 C140.008588,3.95321001 140.752969,5.07671382 141.259456,6.35636561 C141.727572,7.59412405 142,8.99183896 142,10.5" id="Fill-966"></path>
                <path d="M149.011899,9.98386199 L149.847216,9.98386199 C150.536173,9.98386199 151.118039,9.90205899 151.624941,9.70728993 C152.135412,9.50862549 152.535221,9.27100723 152.863636,8.95158598 C153.188482,8.6360601 153.441932,8.2426266 153.588291,7.80244853 C153.73465,7.37006121 153.841742,6.85197551 153.841742,6.3377852 C153.841742,5.26655537 153.516897,4.43683918 152.863636,3.88369505 C152.210376,3.32665554 151.228701,3.01112966 149.91861,3.01112966 L147.598287,3.01112966 L147.598287,9.98386199 L147.598287,12.8002226 L147.598287,21 L144,21 L144,0 L149.882913,0 C151.189434,0 152.317468,0.159710629 153.259876,0.436282693 C154.205854,0.708959377 154.966207,1.14524207 155.551642,1.65943239 C156.129938,2.17751809 156.601142,2.85141903 156.858163,3.56816917 C157.147311,4.31608236 157.29367,5.11074012 157.29367,6.01836394 C157.29367,6.73511408 157.183008,7.40901503 157.000952,8.04396216 C156.822465,8.67501391 156.529748,9.23205342 156.165635,9.74624374 C155.801523,10.2604341 155.366016,10.7006121 154.823417,11.0940456 C154.277249,11.4913745 153.695383,11.8069004 153.006426,12.0094602 C153.441932,12.2821369 153.841742,12.6794658 154.170157,13.1936561 L159,20.9610462 L155.769396,20.9610462 C155.44098,20.9610462 155.18396,20.8831386 154.966207,20.7662771 C154.748453,20.6455203 154.569967,20.4507513 154.423608,20.1702838 L150.393384,13.4351697 C150.282723,13.2754591 150.064969,12.917084 149.847216,12.8781302 L148.576392,12.8781302 L148.576392,10.3422371 C148.612089,9.98386199 149.011899,9.98386199 149.011899,9.98386199" id="Fill-967"></path>
                <path d="M169.156838,18.0233526 C170.046842,18.0233526 170.853409,17.9435192 171.501046,17.7876539 C172.148683,17.6355902 172.79632,17.403693 173.400251,17.1337799 L173.400251,12.4920348 L170.734212,12.4920348 C170.491844,12.4920348 170.28921,12.4122013 170.126307,12.2981535 C169.967378,12.1422882 169.88394,11.9902245 169.88394,11.7963432 L169.88394,9.62943519 L177,9.62943519 L177,18.8368936 C176.475533,19.2208545 175.907361,19.5287835 175.299456,19.8024982 C174.695525,20.0724113 174.08762,20.3081101 173.400251,20.4981897 C172.716855,20.692071 172.029486,20.8061188 171.258678,20.8859522 C170.491844,20.9619841 169.681305,21 168.795274,21 C167.2179,21 165.80343,20.7300869 164.468423,20.2282766 C163.133417,19.7226647 162.001046,18.9889573 161.071309,18.0613686 C160.10184,17.1337799 159.374739,16.0123099 158.81054,14.7349747 C158.2821,13.461441 158,12.0282404 158,10.519008 C158,8.97175959 158.242367,7.58037654 158.770807,6.26502534 C159.295274,4.98769008 160.022376,3.86622013 160.991844,2.93863143 C161.961313,2.01104272 163.133417,1.27733526 164.508156,0.775524982 C165.882894,0.269913106 167.420535,0 169.117106,0 C170.853409,0 172.39105,0.231897176 173.642618,0.733707458 C174.937892,1.23931933 175.990799,1.89699493 176.87683,2.66871832 L175.704726,4.40984794 C175.462359,4.7595945 175.180259,4.95347574 174.814722,4.95347574 C174.572355,4.95347574 174.329987,4.87364229 174.08762,4.71777697 C173.765788,4.52389573 173.443957,4.36803041 173.118151,4.17414917 C172.79632,3.98406951 172.430782,3.83200579 172.029486,3.71035482 C171.624216,3.59630702 171.179214,3.48225923 170.694479,3.40242578 C170.209745,3.32639392 169.60184,3.28837799 168.954203,3.28837799 C167.90527,3.28837799 166.931828,3.44044171 166.085529,3.79018827 C165.235257,4.13993483 164.508156,4.60372918 163.904224,5.26140478 C163.29632,5.88106445 162.851317,6.65278783 162.529486,7.54236061 C162.20368,8.43193338 162.040778,9.43555395 162.040778,10.519008 C162.040778,11.7203114 162.20368,12.7619479 162.569218,13.6895366 C162.934755,14.6171253 163.41949,15.3926503 164.023421,16.0123099 C164.631326,16.6319696 165.39816,17.1337799 166.248432,17.4797248 C167.09473,17.8294714 168.147637,18.0233526 169.156838,18.0233526" id="Fill-968"></path>
                <path d="M190.720129,12.5618394 L183.489406,12.5618394 L183.489406,17.869275 L194,17.869275 L194,21 L179,21 L179,0 L194,0 L194,3.13461895 L183.445262,3.13461895 L183.445262,9.59076581 L191.75309,9.59076581 L191.75309,11.8881884 C191.75309,11.8881884 191.708946,12.5618394 190.720129,12.5618394" id="Fill-969"></path>
            </g>
            <g id="SF-logo-vector" transform="translate(121.000000, 15.000000)" fill="#F06A2A">
                <path d="M19.1526948,0 L24.5113418,0 C24.7812203,-4.95758678e-17 25,0.218779714 25,0.488658168 L25,0.58574583 C25,0.837487111 24.9050521,1.07996677 24.7341129,1.26477329 L7.73762255,19.6400867 C7.38382386,20.022587 7.38301276,20.6126494 7.73575854,20.9961208 L21.0358329,35.4546895 C21.3849831,35.8342523 21.3882155,36.4170863 21.0432966,36.8004982 L18.8990084,39.1840897 C18.5296392,39.5946806 17.8973567,39.6280974 17.4867658,39.2587283 C17.4637443,39.238018 17.4416972,39.2162497 17.4206958,39.1934935 L0.625302206,20.9947923 C0.272050226,20.612025 0.271765047,20.0222003 0.624646726,19.6390916 L18.4171673,0.322505132 C18.6065066,0.116947481 18.8732251,2.2717838e-15 19.1526948,0 Z" id="Rectangle"></path>
                <path d="M39.1756144,2 L44.5039512,2 C44.7779114,2 45,2.22208859 45,2.49604876 L45,2.60899184 C45,2.8556547 44.9088361,3.09361492 44.744029,3.27713922 L27.7357577,22.2170417 C27.3947516,22.5967758 27.3944263,23.1723755 27.7350028,23.5524949 L41.0420524,38.4045692 C41.380609,38.7824341 41.382551,39.3539469 41.0465703,39.7341039 L38.9015596,42.1611502 C38.5358207,42.574978 37.903857,42.6139619 37.4900291,42.248223 C37.4618851,42.2233495 37.4351649,42.1969101 37.4099954,42.1690305 L20.6029593,23.5523122 C20.260158,23.1726 20.2592026,22.5953998 20.6007449,22.2145548 L38.4311374,2.33235184 C38.6208184,2.12084357 38.8915112,2 39.1756144,2 Z" id="Rectangle" transform="translate(32.500000, 22.500000) rotate(-180.000000) translate(-32.500000, -22.500000) "></path>
                <path d="M22.6747927,31 C26.3894387,31 29.3194462,26.8988227 28.9719908,22.5136521 C28.8173963,20.5625433 27.6113539,17.0697822 27.2024716,17.6912659 C27.0005625,17.9981593 27.4586717,20.3945113 27.3086259,21.8604286 C27.0591941,24.297326 26.1190649,25.7812962 25.6387457,24.9137062 C25.1584265,24.0461162 25.3232889,22.3338284 25.2066739,20.5315495 C25.0802263,18.5773066 24.7505963,16.631058 24.3409322,15.423935 C24.1622593,14.8974546 22.4810231,10.4224866 21.2685912,10 C21.1899398,10 21.1405673,10 21.1204737,10 C21.0812745,10 20.9701371,10.0373805 20.9022977,10.0966557 C20.6351073,10.3301154 21.0369375,11.8660996 19.9241288,13.7368948 C19.1936058,14.9650115 17.7701235,16.5662071 17.0723324,18.1384178 C16.1275421,20.2671489 15.9589197,22.3532514 16.0074995,23.454824 C16.2194212,28.2602623 18.9601466,31 22.6747927,31 Z" id="Oval"></path>
            </g>
        </g>
    </g>
</svg>