<svg fill="none" xmlns="http://www.w3.org/2000/svg" viewBox="0 0 24 24">
    <path d="M16.526 9.59l-2.042 1.978a.24.24 0 00-.063.169l.463 2.758c.042.273-.252.484-.505.358l-2.484-1.327a.293.293 0 00-.19 0l-2.442 1.306c-.252.126-.547-.085-.505-.358l.484-2.8c.021-.063 0-.127-.063-.169l-2-1.937c-.21-.189-.084-.547.19-.59l2.8-.399a.158.158 0 00.147-.105l1.242-2.527a.34.34 0 01.61 0l1.264 2.548a.158.158 0 00.147.105l2.758.4c.295.042.4.379.19.59zm5.41 10.505l-1.789-3.916a9.811 9.811 0 001.558-5.326C21.705 5.4 17.285 1 11.853 1S2 5.421 2 10.853c0 5.452 4.421 9.852 9.853 9.852 1.957 0 3.79-.568 5.326-1.558l3.916 1.79c.526.252 1.095-.316.842-.842z" fill="#979797"/>
</svg>