<svg width="135" height="40" fill="none" xmlns="http://www.w3.org/2000/svg"><path d="M8.669 39.998c-.35 0-.69-.004-1.036-.011a15.866 15.866 0 01-2.14-.17 7.186 7.186 0 01-1.896-.574 6.196 6.196 0 01-1.6-1.063 5.62 5.62 0 01-1.79-3.193 11.887 11.887 0 01-.19-1.96C.01 32.805 0 32.07 0 32.07V7.915s.01-.723.017-.935c.009-.656.072-1.31.19-1.958a5.67 5.67 0 011.784-3.2A6.38 6.38 0 013.596.753 7.117 7.117 0 015.49.184C6.199.078 6.917.021 7.636.013L8.67 0h117.656l1.046.013c.712.008 1.424.065 2.127.17.665.103 1.31.297 1.913.573 1.188.56 2.155 1.444 2.765 2.53.298.544.505 1.125.613 1.725.118.652.185 1.312.199 1.973.003.297.003.615.003.931.009.392.009.766.009 1.142v21.885c0 .38 0 .75-.009 1.124 0 .34 0 .652-.005.972-.013.65-.078 1.298-.195 1.939a5.669 5.669 0 01-.618 1.746 5.81 5.81 0 01-1.163 1.449 6.215 6.215 0 01-1.602 1.07 7.168 7.168 0 01-1.91.574c-.708.106-1.423.163-2.14.17-.335.008-.686.012-1.027.012L125.09 40 8.669 39.998z" fill="#000"/><path d="M32.797 20.3a4.95 4.95 0 012.357-4.151 5.067 5.067 0 00-3.991-2.158c-1.68-.176-3.308 1.005-4.163 1.005-.872 0-2.19-.987-3.609-.958a5.315 5.315 0 00-4.473 2.728c-1.934 3.348-.491 8.27 1.362 10.976.926 1.325 2.01 2.805 3.427 2.753 1.387-.058 1.905-.885 3.58-.885 1.658 0 2.144.885 3.59.852 1.489-.024 2.427-1.332 3.321-2.67a10.963 10.963 0 001.519-3.092 4.781 4.781 0 01-2.92-4.4zM30.065 12.21a4.872 4.872 0 001.114-3.49 4.957 4.957 0 00-3.207 1.66 4.635 4.635 0 00-1.144 3.361 4.099 4.099 0 003.237-1.53zM50.33 27.14h-4.733l-1.137 3.356h-2.005l4.483-12.418h2.084l4.483 12.418h-2.04L50.33 27.14zm-4.243-1.55h3.752l-1.85-5.446h-.051l-1.851 5.447zM63.187 25.97c0 2.813-1.506 4.621-3.779 4.621a3.07 3.07 0 01-2.848-1.584h-.043v4.484h-1.859V21.443h1.8v1.505h.033a3.212 3.212 0 012.883-1.6c2.298 0 3.813 1.816 3.813 4.622zm-1.91 0c0-1.833-.948-3.038-2.393-3.038-1.42 0-2.375 1.23-2.375 3.038 0 1.824.955 3.046 2.375 3.046 1.445 0 2.392-1.196 2.392-3.046zM73.151 25.97c0 2.813-1.505 4.621-3.778 4.621a3.07 3.07 0 01-2.849-1.584h-.043v4.484h-1.858V21.443h1.799v1.505h.034a3.213 3.213 0 012.883-1.6c2.298 0 3.812 1.816 3.812 4.622zm-1.91 0c0-1.833-.947-3.038-2.392-3.038-1.42 0-2.375 1.23-2.375 3.038 0 1.824.955 3.046 2.375 3.046 1.445 0 2.392-1.196 2.392-3.046zM79.738 27.036c.138 1.232 1.334 2.04 2.97 2.04 1.566 0 2.692-.808 2.692-1.919 0-.964-.68-1.54-2.289-1.936l-1.609-.388c-2.28-.55-3.339-1.617-3.339-3.348 0-2.142 1.867-3.614 4.519-3.614 2.624 0 4.422 1.472 4.483 3.614H85.29c-.112-1.239-1.137-1.987-2.634-1.987-1.497 0-2.521.757-2.521 1.858 0 .878.654 1.395 2.255 1.79l1.368.336c2.548.603 3.606 1.626 3.606 3.443 0 2.323-1.85 3.778-4.794 3.778-2.754 0-4.613-1.42-4.733-3.667h1.902zM91.375 19.3v2.142h1.722v1.472h-1.722v4.991c0 .776.345 1.137 1.102 1.137.204-.004.408-.018.61-.043v1.463c-.34.064-.685.092-1.031.086-1.833 0-2.548-.689-2.548-2.444v-5.19H88.19v-1.472h1.317V19.3h1.867zM94.094 25.97c0-2.849 1.678-4.639 4.294-4.639 2.625 0 4.295 1.79 4.295 4.639 0 2.856-1.662 4.638-4.295 4.638s-4.294-1.782-4.294-4.638zm6.695 0c0-1.954-.895-3.108-2.401-3.108-1.506 0-2.4 1.162-2.4 3.108 0 1.962.894 3.106 2.4 3.106 1.505 0 2.401-1.144 2.401-3.106zM104.213 21.442h1.772v1.541h.043a2.159 2.159 0 012.178-1.635c.214-.001.428.022.637.07v1.737a2.602 2.602 0 00-.835-.112 1.872 1.872 0 00-1.937 2.083v5.37h-1.858v-9.053zM117.413 27.837c-.25 1.643-1.851 2.771-3.898 2.771-2.634 0-4.269-1.764-4.269-4.595 0-2.84 1.644-4.682 4.191-4.682 2.504 0 4.08 1.72 4.08 4.466v.637h-6.395v.112c-.029.333.012.669.122.985a2.355 2.355 0 002.314 1.58 2.047 2.047 0 002.09-1.274h1.765zm-6.282-2.702h4.526a2.184 2.184 0 00-.608-1.634 2.178 2.178 0 00-1.612-.664 2.293 2.293 0 00-2.306 2.298zM45.855 8.73a2.64 2.64 0 012.807 2.966c0 1.906-1.03 3.002-2.807 3.002h-2.156V8.73h2.156zm-1.229 5.124h1.125a1.876 1.876 0 001.968-2.146 1.882 1.882 0 00-1.968-2.134h-1.125v4.28zM49.71 12.444a2.134 2.134 0 114.246 0 2.132 2.132 0 11-4.247 0zm3.332 0c0-.976-.438-1.547-1.208-1.547-.772 0-1.207.571-1.207 1.547 0 .984.435 1.55 1.207 1.55.77 0 1.208-.57 1.208-1.55zM59.602 14.698h-.922l-.931-3.317h-.07l-.927 3.317h-.913l-1.241-4.503h.901l.807 3.436h.066l.926-3.436h.852l.926 3.436h.07l.803-3.436h.889l-1.236 4.503zM61.88 10.195h.856v.715h.067a1.348 1.348 0 011.344-.802 1.466 1.466 0 011.558 1.675v2.915h-.889v-2.692c0-.724-.314-1.084-.971-1.084a1.034 1.034 0 00-1.075 1.141v2.635h-.89v-4.503zM67.121 8.437h.889v6.26h-.889v-6.26zM69.246 12.444a2.134 2.134 0 114.248 0 2.134 2.134 0 11-4.248 0zm3.333 0c0-.976-.438-1.546-1.208-1.546-.772 0-1.207.57-1.207 1.546 0 .984.435 1.55 1.207 1.55.77 0 1.208-.57 1.208-1.55zM74.43 13.424c0-.81.603-1.277 1.674-1.344l1.22-.07v-.389c0-.476-.314-.744-.922-.744-.496 0-.84.182-.938.5h-.86c.09-.773.818-1.27 1.84-1.27 1.128 0 1.765.563 1.765 1.514v3.077h-.856v-.633h-.07a1.515 1.515 0 01-1.352.707 1.36 1.36 0 01-1.501-1.348zm2.894-.384v-.377l-1.1.07c-.62.042-.9.253-.9.65 0 .405.35.64.834.64a1.064 1.064 0 001.166-.983zM79.377 12.444c0-1.423.731-2.324 1.87-2.324a1.484 1.484 0 011.38.79h.066V8.437h.889v6.26h-.851v-.71h-.07a1.563 1.563 0 01-1.415.785c-1.145 0-1.869-.901-1.869-2.328zm.918 0c0 .955.45 1.53 1.203 1.53.75 0 1.212-.583 1.212-1.526 0-.938-.468-1.53-1.212-1.53-.748 0-1.203.58-1.203 1.526zM87.258 12.444a2.133 2.133 0 114.247 0 2.134 2.134 0 11-4.247 0zm3.333 0c0-.976-.438-1.547-1.208-1.547-.772 0-1.207.571-1.207 1.547 0 .984.435 1.55 1.207 1.55.77 0 1.208-.57 1.208-1.55zM92.697 10.195h.856v.715h.066a1.348 1.348 0 011.344-.802 1.466 1.466 0 011.559 1.675v2.915h-.89v-2.692c0-.724-.314-1.084-.97-1.084a1.034 1.034 0 00-1.076 1.141v2.635h-.889v-4.503zM101.544 9.074v1.141h.976v.749h-.976v2.315c0 .472.194.678.637.678.113 0 .226-.007.339-.02v.74c-.16.029-.322.044-.484.046-.988 0-1.382-.348-1.382-1.216v-2.543h-.715v-.749h.715V9.074h.89zM103.732 8.437h.881v2.482h.071a1.382 1.382 0 011.373-.807 1.486 1.486 0 011.495 1.034c.065.208.084.428.055.644v2.908h-.889V12.01c0-.72-.335-1.084-.963-1.084a1.05 1.05 0 00-1.075.691 1.062 1.062 0 00-.059.45v2.63h-.889v-6.26zM112.789 13.482a1.833 1.833 0 01-1.951 1.303 2.042 2.042 0 01-2.011-1.447 2.065 2.065 0 01-.07-.877 2.077 2.077 0 012.077-2.353c1.253 0 2.008.856 2.008 2.27v.31h-3.179v.05a1.19 1.19 0 001.199 1.29 1.08 1.08 0 001.071-.546h.856zm-3.126-1.451h2.274a1.089 1.089 0 00-.666-1.084 1.09 1.09 0 00-.442-.083 1.156 1.156 0 00-1.082.718 1.167 1.167 0 00-.084.449z" fill="#fff"/></svg>