<svg width="19" height="21" viewBox="0 0 19 21" version="1" xmlns="http://www.w3.org/2000/svg">
  <path d="M17.0837,5.0669 L0.0774,5.0669 L0.0774,4.0669 L17.0627,4.0669 L14.0914,1.0914 L13.7538,0.7534 L14.4288,0.0774 L14.7664,0.4154 L18.2475,3.9014 L18.9225,4.5774 L18.5851,4.9154 L14.7664,8.7394 L14.4289,9.0774 L13.7539,8.4014 L14.0914,8.0634 L17.0837,5.0669 Z M1.9164,15.0669 L18.9226,15.0669 L18.9226,14.0669 L1.9373,14.0669 L4.9086,11.0914 L5.2462,10.7534 L4.5712,10.0774 L4.2336,10.4154 L0.7525,13.9014 L0.0774,14.5774 L0.4149,14.9154 L4.2336,18.7394 L4.5711,19.0774 L5.2461,18.4014 L4.9086,18.0634 L1.9163,15.0669 L1.9164,15.0669 Z" transform="rotate(-90 10 10)" fill="#7190EB" stroke="#7190EB" fill-rule="evenodd" stroke-linecap="square"/>
</svg>
