<svg fill="none" height="40" width="135" xmlns="http://www.w3.org/2000/svg"><path d="m130 0h-125a5 5 0 0 0 -5 5v30a5 5 0 0 0 5 5h125a5.002 5.002 0 0 0 5-5v-30a5.002 5.002 0 0 0 -5-5z" fill="#000"/><path d="m50.723 26.788h-4.628l-1.133 3.098h-2.04l4.533-11.563h1.923l4.635 11.563h-2.133l-1.156-3.098zm-4.046-1.568h3.45l-1.237-3.312c-.17-.456-.337-.96-.502-1.515-.15.49-.311.99-.486 1.5zm8.259-1.838c0-.638-.021-1.34-.064-2.108h1.85c.07.363.119.73.145 1.098.765-.836 1.643-1.254 2.633-1.254a2.97 2.97 0 0 1 2.78 1.806c.301.628.452 1.422.452 2.382a5.889 5.889 0 0 1 -.516 2.577 3.677 3.677 0 0 1 -1.44 1.62 4.103 4.103 0 0 1 -2.139.552 5.246 5.246 0 0 1 -1.725-.297v3.55l-1.97.169zm5.175 4.4c.402-.539.603-1.328.603-2.366 0-.963-.157-1.66-.499-2.093a1.589 1.589 0 0 0 -1.328-.651 2.152 2.152 0 0 0 -1.062.271c-.342.196-.654.44-.925.726v4.612c.219.103.45.18.687.228.254.055.514.083.774.083.77 0 1.355-.27 1.757-.81zm3.879-4.4c0-.638-.021-1.34-.063-2.108h1.85c.07.363.118.73.144 1.098.766-.836 1.643-1.254 2.633-1.254a2.97 2.97 0 0 1 2.78 1.806c.302.628.452 1.422.451 2.382a5.888 5.888 0 0 1 -.514 2.577 3.685 3.685 0 0 1 -1.44 1.62 4.107 4.107 0 0 1 -2.139.552 5.246 5.246 0 0 1 -1.725-.297v3.55l-1.977.175v-10.1zm5.182 4.4c.402-.539.603-1.328.603-2.366 0-.963-.167-1.66-.5-2.093a1.588 1.588 0 0 0 -1.327-.651 2.152 2.152 0 0 0 -1.062.271c-.343.195-.655.44-.925.726v4.612c.218.103.448.18.685.228.254.055.514.083.775.083.77 0 1.354-.27 1.754-.81zm6.334 1.556a4.78 4.78 0 0 1 -1.962-2.023c-.458-.878-.687-1.915-.687-3.111 0-1.299.262-2.401.784-3.308a5.08 5.08 0 0 1 2.15-2.038 6.712 6.712 0 0 1 3.052-.682 8.089 8.089 0 0 1 1.904.22c.583.138 1.149.34 1.687.601l-.501 1.517a6.977 6.977 0 0 0 -3.002-.75 4.2 4.2 0 0 0 -2.11.515 3.502 3.502 0 0 0 -1.412 1.511 5.32 5.32 0 0 0 -.502 2.41c-.014.75.118 1.496.387 2.196a3.245 3.245 0 0 0 1.22 1.517c.557.37 1.258.557 2.103.558.385 0 .77-.032 1.15-.096a6.03 6.03 0 0 0 1.076-.279v-2.344h-2.666v-1.539h4.588v4.862c-.666.31-1.363.548-2.08.71a9.767 9.767 0 0 1 -2.165.246c-1.158.009-2.163-.223-3.014-.693zm14.359.548a7.476 7.476 0 0 1 -.135-1.142c-.33.383-.733.697-1.185.922a3.52 3.52 0 0 1 -1.648.378 3.115 3.115 0 0 1 -1.352-.29 2.25 2.25 0 0 1 -.97-.878 2.688 2.688 0 0 1 -.355-1.432 2.458 2.458 0 0 1 .901-2c.602-.496 1.604-.745 3.008-.746.525 0 1.05.037 1.568.113v-.168c0-.76-.162-1.297-.486-1.609-.324-.311-.79-.468-1.395-.47-.456.005-.91.066-1.35.183a7.054 7.054 0 0 0 -1.255.44l-.314-1.437c.448-.191.913-.338 1.39-.44a8.027 8.027 0 0 1 1.819-.198 4.777 4.777 0 0 1 1.899.338c.53.235.96.647 1.22 1.166.293.55.439 1.29.439 2.222v3.423c0 .357.021.896.064 1.62zm-1.175-1.596c.38-.176.722-.425 1.005-.734v-1.598a12.775 12.775 0 0 0 -1.316-.088c-.813 0-1.375.132-1.687.395a1.321 1.321 0 0 0 -.47 1.065c0 .427.113.74.338.941.257.218.586.33.922.314.42-.006.833-.107 1.208-.295zm4.692-.47v-10.176l1.962-.157v9.982c0 .367.062.628.188.784a.722.722 0 0 0 .594.227c.175-.008.35-.038.518-.088l.232 1.412a3.45 3.45 0 0 1 -.682.179 4.56 4.56 0 0 1 -.763.067c-1.367-.004-2.05-.747-2.05-2.23zm4.908 0v-10.176l1.961-.157v9.982c0 .367.063.628.188.784a.723.723 0 0 0 .594.227c.176-.008.351-.038.52-.088l.232 1.412c-.221.083-.45.143-.684.179a4.566 4.566 0 0 1 -.762.067c-1.366-.004-2.049-.747-2.05-2.23zm11.665-1.988h-5.633c.089 1.803.948 2.705 2.577 2.705a5.55 5.55 0 0 0 1.242-.147 7.53 7.53 0 0 0 1.217-.396l.43 1.349a7.343 7.343 0 0 1 -3.248.701c-.915 0-1.687-.172-2.315-.518a3.336 3.336 0 0 1 -1.411-1.492 5.324 5.324 0 0 1 -.471-2.353 5.55 5.55 0 0 1 .502-2.457 3.651 3.651 0 0 1 1.401-1.568 3.92 3.92 0 0 1 2.07-.543c.813 0 1.492.19 2.038.57a3.4 3.4 0 0 1 1.212 1.52c.269.67.402 1.387.389 2.108v.52zm-1.922-1.255c-.038-.687-.211-1.202-.519-1.544a1.593 1.593 0 0 0 -1.238-.515 1.659 1.659 0 0 0 -1.254.52c-.333.344-.55.858-.651 1.54h3.662zm3.51-1.14c0-.474-.022-1.194-.064-2.163h1.842c.033.24.063.526.093.858.03.333.048.604.059.811.199-.336.424-.655.675-.953.217-.256.48-.468.774-.628.31-.166.657-.25 1.009-.243.264-.005.528.027.784.096l-.248 1.708a2.142 2.142 0 0 0 -.638-.088 2.099 2.099 0 0 0 -1.214.354c-.431.326-.806.721-1.109 1.169v5.53h-1.963zm6.354 9.97a4.887 4.887 0 0 1 -.711-.17l.359-1.437c.132.036.3.072.502.107.19.034.382.051.574.053.874 0 1.529-.561 1.964-1.684l.127-.314-3.174-8.681h2.113l1.597 4.852c.207.624.374 1.261.502 1.907.148-.628.324-1.25.527-1.868l1.618-4.898h1.987l-3.168 8.723a8.865 8.865 0 0 1 -.966 1.994 3.373 3.373 0 0 1 -1.225 1.125 3.65 3.65 0 0 1 -1.703.367 5.358 5.358 0 0 1 -.923-.075zm-74.981-26.331h3.555l-.1.858h-2.412v1.662h2.274v.805h-2.274v1.842h2.541l-.088.866h-3.497v-6.033zm6.005 2.954-1.868-2.954h1.184l1.27 2.17 1.338-2.17h1.151l-1.858 2.917 2.012 3.116h-1.207l-1.439-2.374-1.463 2.374h-1.144l2.024-3.078zm3.989-2.954h1.624c.765 0 1.349.157 1.755.47.406.314.608.761.608 1.35.007.369-.09.73-.277 1.047a1.804 1.804 0 0 1 -.761.687 2.51 2.51 0 0 1 -1.121.238 4.439 4.439 0 0 1 -.784-.083v2.324h-1.042l-.003-6.033zm2.612 2.694a1.09 1.09 0 0 0 .332-.851c0-.373-.113-.642-.338-.805-.226-.163-.559-.245-.998-.246h-.564v2.142c.198.035.399.056.6.063.35.022.694-.085.968-.303zm2.404-2.694h1.046v5.142h2.496l-.088.891h-3.45zm5.122 5.738a2.52 2.52 0 0 1 -1.011-1.064 3.45 3.45 0 0 1 -.352-1.594 3.544 3.544 0 0 1 .375-1.668c.24-.465.615-.848 1.075-1.098a3.37 3.37 0 0 1 1.655-.389 3.116 3.116 0 0 1 1.569.376c.433.246.782.616 1.003 1.062.24.493.358 1.035.345 1.582a3.558 3.558 0 0 1 -.376 1.688 2.633 2.633 0 0 1 -1.074 1.098 3.326 3.326 0 0 1 -1.64.387 3.118 3.118 0 0 1 -1.569-.38zm2.7-.74c.294-.198.522-.48.655-.807.15-.374.223-.775.216-1.178a3.259 3.259 0 0 0 -.191-1.16 1.713 1.713 0 0 0 -.612-.808c-.32-.214-.7-.32-1.084-.303a1.846 1.846 0 0 0 -1.075.306c-.295.205-.524.49-.662.822-.15.359-.226.745-.221 1.135-.007.4.064.797.208 1.17.127.33.348.614.637.817a1.81 1.81 0 0 0 1.063.301 1.87 1.87 0 0 0 1.064-.295h.003zm3.123-4.998h1.882c.688 0 1.21.138 1.568.413a1.412 1.412 0 0 1 .53 1.179c.007.293-.059.582-.191.844-.115.227-.275.43-.47.594-.176.144-.373.26-.584.342l1.855 2.666h-1.209l-1.568-2.392h-.767v2.387h-1.041zm1.633 2.854a1.47 1.47 0 0 0 .672-.147 1.11 1.11 0 0 0 .453-.417c.11-.19.164-.408.157-.628a.772.772 0 0 0 -.288-.664 1.411 1.411 0 0 0 -.838-.21h-.754v2.066zm3.781-2.854h3.554l-.1.858h-2.413v1.662h2.276v.805h-2.276v1.842h2.543l-.088.866h-3.496zm7.425 0h1.041v6.033h-1.041zm3.79.871h-1.87l.092-.87h4.696l-.096.87h-1.778v5.162h-1.044zm7.439 4.867a2.522 2.522 0 0 1 -1.013-1.064 3.45 3.45 0 0 1 -.35-1.594 3.543 3.543 0 0 1 .374-1.668c.24-.465.614-.847 1.074-1.098a3.375 3.375 0 0 1 1.656-.389 3.116 3.116 0 0 1 1.568.376c.433.246.782.616 1.003 1.062.24.492.36 1.035.347 1.582a3.577 3.577 0 0 1 -.376 1.688 2.638 2.638 0 0 1 -1.076 1.098 3.32 3.32 0 0 1 -1.639.388 3.108 3.108 0 0 1 -1.568-.38zm2.699-.74c.295-.197.524-.479.657-.807.15-.374.224-.775.216-1.178a3.293 3.293 0 0 0 -.191-1.16 1.725 1.725 0 0 0 -.613-.808c-.32-.214-.7-.32-1.084-.303a1.841 1.841 0 0 0 -1.074.306c-.295.205-.525.49-.663.822-.15.359-.226.745-.221 1.135-.007.4.064.797.208 1.17.127.33.35.614.638.817a1.8 1.8 0 0 0 1.059.301c.378.012.75-.09 1.068-.295zm3.127-4.998h1.195l2.979 4.675a21.973 21.973 0 0 1 -.037-1.23v-3.45h.967v6.038h-1.159l-3.025-4.75c.03.54.044 1.017.046 1.433v3.317h-.966z" fill="#fff"/><path clip-rule="evenodd" d="m28.29 7.027h-11.134c-5.23 0-7.156 1.918-7.156 7.16v11.135c0 5.242 1.918 7.16 7.16 7.16h11.135c5.242 0 7.163-1.918 7.163-7.16v-11.134c-.01-5.243-1.926-7.16-7.168-7.16z" fill="#c8102e" fill-rule="evenodd"/><path d="m15.04 19.755h.674v3.328h-.674v-1.353h-1.524v1.351h-.676v-3.327h.676v1.342h1.524v-1.342zm3.803 1.905c0 .541-.268.83-.756.83s-.76-.297-.76-.853v-1.882h-.677v1.904c0 .94.521 1.472 1.428 1.472.906 0 1.44-.547 1.44-1.5v-1.883h-.675zm7.802.383-.755-2.288h-.552l-.754 2.288-.74-2.287h-.718l1.159 3.326h.56l.755-2.184.756 2.184h.565l1.157-3.326h-.701zm2.647-.392h1.228v-.606h-1.228v-.682h1.783v-.605h-2.448v3.323h2.509v-.607h-1.844zm2.652 1.427h.666v-3.323h-.666zm-11.092-.69-.301.693h-.69l1.464-3.326h.596l1.46 3.326h-.707l-.3-.693zm.25-.6h1.017l-.511-1.191-.505 1.192zm1.623-6.268a4.234 4.234 0 0 1 -4.234-4.235h.6a3.641 3.641 0 0 0 3.636 3.715 3.638 3.638 0 0 0 3.637-3.714h.6a4.234 4.234 0 0 1 -4.24 4.234z" fill="#fff"/></svg>