<svg width="166" height="38" viewBox="0 0 166 38" fill="none" xmlns="http://www.w3.org/2000/svg">
<path d="M32.894 5.48138L21.5415 32.5587H14.1605L8.54441 10.937C8.2235 9.61318 7.90258 9.1318 6.89971 8.5702C5.2149 7.64756 2.44699 6.80516 0 6.28367L0.160458 5.48138H12.0745C13.5989 5.48138 14.9628 6.48424 15.3238 8.24928L18.2521 23.894L25.553 5.48138H32.894ZM61.8968 23.6934C61.937 16.553 52.0287 16.1519 52.0688 12.9828C52.1089 12.0201 53.0315 10.9771 55.0372 10.7364C56.0401 10.616 58.808 10.4957 61.937 11.9398L63.1805 6.20344C61.4957 5.60172 59.3295 5 56.6418 5C49.7421 5 44.8481 8.69054 44.808 13.9456C44.7679 17.8367 48.298 20.0029 50.9456 21.3266C53.6734 22.6504 54.596 23.4928 54.596 24.6963C54.5559 26.5014 52.4298 27.3037 50.4241 27.3438C46.894 27.384 44.8481 26.3811 43.2436 25.6189L41.9599 31.5559C43.6046 32.318 46.6132 32.9599 49.7421 33C57.043 32.9599 61.8567 29.3095 61.8968 23.6934ZM80.149 32.5186H86.6074L80.9513 5.44126H74.9742C73.6504 5.44126 72.4871 6.24355 72.0057 7.40688L61.4957 32.4785H68.8367L70.2808 28.4269H79.2665L80.149 32.5186ZM72.3266 22.9312L76.0172 12.7822L78.1433 22.9312H72.3266ZM42.8825 5.48138L37.106 32.5186H30.086L35.9026 5.48138H42.8825Z" fill="url(#paint0_linear)"/>
<path d="M164.881 30.7704V30.0335H164.689L164.467 30.5397L164.246 30.0335H164.052V30.7704H164.189V30.2147L164.397 30.6943H164.538L164.746 30.2135V30.7704H164.881ZM163.662 30.7704V30.1592H163.909V30.0347H163.281V30.1592H163.527V30.7704H163.662Z" fill="#F79410"/>
<path d="M143.041 33.9401H126.418V4.06482H143.041V33.9401Z" fill="#FF5F00"/>
<path d="M127.483 19C127.483 12.9397 130.32 7.54129 134.739 4.06237C131.508 1.5184 127.43 -4.85388e-07 122.998 -4.85388e-07C112.505 -4.85388e-07 104 8.50645 104 19C104 29.4935 112.505 38 122.998 38C127.43 38 131.508 36.4816 134.739 33.9376C130.32 30.4587 127.483 25.0603 127.483 19Z" fill="#EB001B"/>
<path d="M165.461 19C165.461 29.4935 156.956 38 146.464 38C142.032 38 137.953 36.4816 134.721 33.9376C139.141 30.4587 141.978 25.0603 141.978 19C141.978 12.9397 139.141 7.54129 134.721 4.06237C137.953 1.5184 142.032 -4.85388e-07 146.464 -4.85388e-07C156.956 -4.85388e-07 165.461 8.50645 165.461 19Z" fill="#F79E1B"/>
<defs>
<linearGradient id="paint0_linear" x1="7.83507" y1="32.0918" x2="80.856" y2="5.19989" gradientUnits="userSpaceOnUse">
<stop stop-color="#1A1E5A"/>
<stop offset="1" stop-color="#122D98"/>
</linearGradient>
</defs>
</svg>
