<svg viewBox="0 0 40 45" xmlns="http://www.w3.org/2000/svg">
  <path fill="#7190EB" d="M39.429 4.728c.127.04.226.147.235.284l.002.017c.06.905 2.18 32.53-19.692 39.951a.348.348 0 0 1-.099.02.35.35 0 0 1-.098-.02C-2.3 37.488.057 5.335.087 5.012a.303.303 0 0 1 .235-.274L19.797.008a.364.364 0 0 1 .147 0l19.485 4.72zM19.875 40.984c.02 0 .05 0 .079-.01 18.148-6.15 16.203-32.583 16.173-32.848a.26.26 0 0 0-.196-.225L19.924 4.013a.24.24 0 0 0-.118 0L3.8 7.901a.25.25 0 0 0-.196.225c-.02.265-1.956 26.698 16.183 32.849.03.01.059.01.088.01zM30.181 12.61c.07.018.121.077.126.148.014.17 1.26 17.132-10.38 21.082a.164.164 0 0 1-.107 0C8.18 29.889 9.426 12.928 9.44 12.757a.166.166 0 0 1 .126-.148l10.268-2.492a.146.146 0 0 1 .079 0l10.268 2.492z" />
</svg>
