<?xml version="1.0" encoding="utf-8"?>
<!-- Generator: Adobe Illustrator 26.5.0, SVG Export Plug-In . SVG Version: 6.00 Build 0)  -->
<svg version="1.1" xmlns="http://www.w3.org/2000/svg" xmlns:xlink="http://www.w3.org/1999/xlink" x="0px" y="0px"
	 viewBox="0 0 598.1 217.9" style="enable-background:new 0 0 598.1 217.9;" xml:space="preserve">
<style type="text/css">
	.st0{fill:#FFFFFF;}
	.st1{fill:#E40046;}
	.st2{display:none;}
	.st3{display:inline;}
	.st4{fill:none;stroke:#FF0013;stroke-miterlimit:10;}
	.st5{display:inline;fill:none;stroke:#FF0013;stroke-miterlimit:10;}
</style>
<g id="Layer_1">
	<g>
		<path class="st0" d="M0,119.5L12,99c6.7,6,21.1,12.1,31.7,12.1c8.6,0,12.1-2.4,12.1-6.3c0-11.2-52.5,0.4-52.5-36.2
			c0-15.9,13.8-29.7,38.7-29.7c15.3,0,28,4.9,37.7,12l-11,20.4c-5.4-5.2-15.7-9.9-26.5-9.9c-6.7,0-11.2,2.6-11.2,6.2
			c0,9.9,52.3-0.4,52.3,36.6c0,17.2-15.1,29.5-40.9,29.5C26.1,133.5,9.5,128.1,0,119.5z"/>
		<path class="st1" d="M85.7,16.4C85.7,7.3,93,0,102.1,0c9.1,0,16.6,7.3,16.6,16.4S111.3,33,102.1,33C93,33,85.7,25.6,85.7,16.4z"/>
		<rect x="87.8" y="41.1" class="st0" width="28.8" height="90.2"/>
		<path class="st0" d="M240.9,131.3V76.4c0-6.9-3.4-12.1-12-12.1c-7.8,0-13.4,5-16.2,8.8v58.3h-28.8V76.4c0-6.9-3.2-12.1-11.8-12.1
			c-7.8,0-13.3,5-16.2,8.8v58.3h-28.8V41.1h28.8V49l-3,6.7c1.1-1.4,2.2-2.7,3-3.6c3.9-5.2,15.5-13.3,29.7-13.3
			c13.1,0,21.8,5.4,25.6,16.1c5.2-7.8,17-16.1,31.2-16.1c16.6,0,27.1,8.6,27.1,27.1v65.4H240.9z"/>
		<path class="st0" d="M309,120.6c-0.7-0.9-1.2-2-1.7-3.1l1.7,10v38.2h-28.8V41.1H309v10.5c7.1-8.6,16.4-12.7,26.7-12.7
			c22.6,0,39.6,16.8,39.6,47.2c0,30.6-17,47.4-39.6,47.4C325.6,133.5,316.5,129.6,309,120.6z M346,86.1c0-13.4-8.6-21.8-19.8-21.8
			c-6.2,0-13.6,3.4-17.2,8.2v27.4c3.5,4.7,11,8.2,17.2,8.2C337.4,108.1,346,99.7,346,86.1z"/>
		<path class="st0" d="M380,131.3V6.7h28.8v124.5H380z"/>
		<path class="st0" d="M413.6,86.1c0-26.1,19.6-47.2,47.8-47.2c26.7,0,46.1,19.6,46.1,50.2v6.5h-62l-2.4-3.2c-0.1,1-0.1,2,0.2,3.2
			c2.1,8,9.5,14.8,22.6,14.8c6.3,0,16.8-2.8,22-7.7l12.5,18.9c-9,8-23.9,12-37.7,12C434.8,133.5,413.6,115.4,413.6,86.1z M461.4,62
			c-12.5,0-17.4,7.5-18.5,14H480C479.3,69.6,474.6,62,461.4,62z"/>
		<path class="st0" d="M566.1,131.3L548.9,104l-17.7,27.3h-31.4L530.6,85l-28.9-43.9h31.6l15.5,24.5l1.1,1.7l0-3.5l14.2-22.7h31.6
			L566.9,85l30.8,46.3H566.1z"/>
	</g>
	<g>
		<g>
			<g>
				<path class="st0" d="M484,188.6c0-3.6-1.9-4.9-4.8-4.9c-2.8,0-4.6,1.5-5.7,2.9v19H464v-29.5h9.4v2.6l-1.2,2.2
					c1.8-2.1,6.4-5.5,11.3-5.5c6.7,0,9.8,3.9,9.8,9.3v20.9H484V188.6z"/>
			</g>
			<g>
				<path class="st0" d="M516.1,201.3c-1.8,2.1-6.2,5.1-11.1,5.1c-6.7,0-9.7-3.8-9.7-9.2v-21h9.4v17.1c0,3.5,1.8,4.8,4.9,4.8
					c2.7,0,4.5-1.5,5.6-2.9v-19h9.4v29.5h-9.4v-2.2L516.1,201.3z"/>
			</g>
			<g>
				<path class="st0" d="M571,175.4c8.7,0,15.1,6.4,15.1,16.4v2h-20.3l-0.8-1.1c0,0.4,0.1,0.9,0.2,1.3c0.7,2.6,3.2,5,7.5,5
					c2.6,0,5.6-1,7.2-2.5l4,5.9c-2.9,2.6-7.8,3.9-12.3,3.9c-9.1,0-16.1-5.9-16.1-15.5C555.4,182.3,561.8,175.4,571,175.4z
					 M565,187.8h12.1c-0.2-2.1-1.8-5.1-6.1-5.1C566.9,182.7,565.4,185.6,565,187.8z"/>
			</g>
			<g>
				<path class="st0" d="M588,176.2h9.4v29.5H588V176.2z"/>
			</g>
		</g>
		<g>
			<polygon class="st0" points="547.8,176.2 541.5,193.7 541.7,196.4 534.5,176.2 526.5,176.2 526.5,180.9 536.2,205.6 546.2,205.6 
				557.8,176.2 			"/>
		</g>
		<g>
			<path class="st1" d="M587.3,167.1c0-3,2.4-5.4,5.4-5.4c3,0,5.4,2.4,5.4,5.4c0,3-2.4,5.4-5.4,5.4
				C589.7,172.4,587.3,170.1,587.3,167.1z"/>
		</g>
		<g>
			<path class="st0" d="M380,205.9V165h6.4v15.4c2.4-3.2,5.8-4.8,9.5-4.8c7.7,0,13.2,6,13.2,15.5c0,9.8-5.6,15.6-13.2,15.6
				c-3.8,0-7.2-1.8-9.5-4.8v4H380z M394.1,200.9c5.1,0,8.3-4.1,8.3-9.9c0-5.7-3.3-9.8-8.3-9.8c-3.1,0-6.2,1.8-7.7,4V197
				C387.9,199.2,391,200.9,394.1,200.9z"/>
			<path class="st0" d="M415.7,211.7c0.7,0.3,1.7,0.5,2.5,0.5c2.1,0,3.4-0.6,4.3-2.6l1.5-3.4l-12.2-30h6.9l8.6,22.2l8.7-22.2h6.9
				l-14.3,35c-2,5-5.5,6.6-10.1,6.7c-0.9,0-2.8-0.2-3.6-0.4L415.7,211.7z"/>
		</g>
	</g>
</g>
<g id="Layer_2" class="st2">
	<g class="st3">
		<path class="st4" d="M359.8,146.1c-1.4-1.2-3.3-4-3.3-7.3c0-4.4,2.5-6.3,6-6.3h13.7v6.1H365c-2.3,0-3.1,1.2-3.1,3.2
			c0,1.7,1,2.9,1.9,3.7h12.4v6.1h-19.2v-6.1h1.4L359.8,146.1z"/>
	</g>
	<rect x="-123.2" y="131.8" class="st5" width="844.7" height="19.8"/>
	
		<rect x="28.6" y="37.4" transform="matrix(-1.836970e-16 1 -1 -1.836970e-16 636.0139 -265.8271)" class="st5" width="844.7" height="295.3"/>
</g>
</svg>
